/* XPM */
static const char *folderOpenPressed_xpm[] = {
/* columns rows colors chars-per-pixel */
"30 30 173 2 ",
"   c #1C1C11",
".  c #201D11",
"X  c #211E11",
"o  c #232010",
"O  c #232013",
"+  c #272411",
"@  c #262514",
"#  c #2B2712",
"$  c #282817",
"%  c #292817",
"&  c #282818",
"*  c #28281B",
"=  c #28281C",
"-  c #383214",
";  c #3C3614",
":  c #242421",
">  c #272723",
",  c #262823",
"<  c #262824",
"1  c #272824",
"2  c #272924",
"3  c #272825",
"4  c #292A27",
"5  c #272A28",
"6  c #272B2B",
"7  c #292B2A",
"8  c #2A2C28",
"9  c #292C2B",
"0  c #2C2F2C",
"q  c #2D302E",
"w  c #2D312E",
"e  c #2D3333",
"r  c #403A13",
"t  c #474013",
"y  c #4B4311",
"u  c #4E4512",
"i  c #454018",
"p  c #464018",
"a  c #4F4819",
"s  c #584D10",
"d  c #504819",
"f  c #534B19",
"g  c #534C19",
"h  c #584F19",
"j  c #5B5219",
"k  c #59501B",
"l  c #5E5419",
"z  c #5F5519",
"x  c #5D5619",
"c  c #5E541C",
"v  c #5D551F",
"b  c #5F591B",
"n  c #62550C",
"m  c #61540F",
"M  c #67590E",
"N  c #685A0E",
"B  c #695B0E",
"V  c #6A5C0E",
"C  c #605514",
"Z  c #6C601B",
"A  c #6D6419",
"S  c #7A6A10",
"D  c #77691A",
"F  c #786C1B",
"G  c #7D6D1B",
"H  c #796B1C",
"J  c #595320",
"K  c #5E5723",
"L  c #645D21",
"P  c #6D6939",
"I  c #726E36",
"U  c #454D4E",
"Y  c #474F50",
"T  c #73785F",
"R  c #7A7D5C",
"E  c #636F6F",
"W  c #697166",
"Q  c #647071",
"!  c #657172",
"~  c #667172",
"^  c #677475",
"/  c #6A7672",
"(  c #6B7772",
")  c #687475",
"_  c #687576",
"`  c #84751C",
"'  c #877C1F",
"]  c #8B7B1D",
"[  c #8E7D1D",
"{  c #8E7E1D",
"}  c #8E821D",
"|  c #8E851E",
" . c #978414",
".. c #90801D",
"X. c #92801C",
"o. c #99881A",
"O. c #9E8B1B",
"+. c #9E8D1D",
"@. c #A28E1D",
"#. c #A7921D",
"$. c #AD961D",
"%. c #AD971D",
"&. c #A99A1F",
"*. c #AD981D",
"=. c #AF991D",
"-. c #B39E1B",
";. c #B0991D",
":. c #B09A1D",
">. c #B19A1D",
",. c #B19E1E",
"<. c #B9A21F",
"1. c #BAA21E",
"2. c #BAA21F",
"3. c #C2A91E",
"4. c #C5AE1C",
"5. c #C5AF1F",
"6. c #C8AF1E",
"7. c #CAB01E",
"8. c #CDB21E",
"9. c #CEB31E",
"0. c #CFB61C",
"q. c #CFB51F",
"w. c #D0B71C",
"e. c #D1B71C",
"r. c #D0B51F",
"t. c #D1B61F",
"y. c #D0BB1D",
"u. c #D5BA1F",
"i. c #D6BA1F",
"p. c #D6BB1F",
"a. c #D7BB1F",
"s. c #CFB820",
"d. c #D1BB20",
"f. c #DABF20",
"g. c #DFC21F",
"h. c #E1C41F",
"j. c #E3C51F",
"k. c #E3C61F",
"l. c #E4C71F",
"z. c #E5C81F",
"x. c #E6C81F",
"c. c #E7C91F",
"v. c #E8CA20",
"b. c #E9CA20",
"n. c #ECCD20",
"m. c #EAD021",
"M. c #EFD020",
"N. c #F1D120",
"B. c #F1D220",
"V. c #F1D321",
"C. c #F2D320",
"Z. c #F3D320",
"A. c #F4D420",
"S. c #F5D420",
"D. c #F5D520",
"F. c #FADE22",
"G. c #FEDE22",
"H. c #FFDE22",
"J. c #FFDF22",
"K. c #FFE222",
"L. c #FFE322",
"P. c #FFE923",
"I. c #8D9065",
"U. c #919878",
"Y. c #919C88",
"T. c #8A9B9C",
"R. c #92A5A5",
"E. c #AABEB8",
"W. c #ABBEB8",
"Q. c #C6DFDC",
"!. c #C6E0E1",
"~. c #CAE4E5",
"^. c #D1ECED",
/* pixels */
"^.^.^.^.^.^.^.^.^.^.^.^.^.^.^.^.^.^.^.^.^.^.^.^.^.^.^.^.^.^.",
"^.^.^.^.^.^.^.^.^.^.^.^.^.^.^.^.^.^.^.^.^.^.^.^.^.^.^.^.^.^.",
"^.^.^.^.^.^.^.^.^.^.^.^.^.^.^.^.^.^.^.^.^.^.^.^.^.^.^.^.^.^.",
"^.^.^.^.^.^.^.^.^.^.^.^.^.^.^.^.^.^.^.^.^.^.^.^.^.^.^.^.^.^.",
"^.^.^.^.^.^.^.^.^.^.^.^.^.^.^.^.^.^.^.^.^.^.^.^.^.^.^.^.^.^.",
"^.^.^.^.^.^.^.^.^.^.^.^.^.^.^.^.^.^.^.^.^.^.^.^.^.^.^.^.^.^.",
"^.^.^.^.^.^.^.^.^.^.^.^.^.^.^.^.^.^.^.^.^.^.^.^.^.^.^.^.^.^.",
"^.^.^.^.^.^.!.~ 7 < 3 1 1 : 6 E.^.^.^.^.^.^.^.^.^.^.^.^.^.^.",
"^.^.^.^.^.^.! O i a f h j x # W ^.^.^.^.^.^.^.^.^.^.^.^.^.^.",
"^.^.^.^.^.^.5 p b Z H ` ] } D . U _ ) ^ ^ ) T.~.^.^.^.^.^.^.",
"^.^.^.^.^.^.> d Z G X.@.%.>.2.O.C u t r ; - X Y Q.^.^.^.^.^.",
"^.^.^.^.^.^.4 g H X.%.3.9.t.t.u.d.5.,.+...' F o Y.^.^.^.^.^.",
"^.^.^.^.^.^.8 k ` @.3.a.l.v.v.z.h.p.6.1.*.#.&.y T ^.^.^.^.^.",
"^.^.^.^.^.^.0 v ] $.8.k.N.Z.Z.C.M.b.g.i.9.7.s.s R ^.^.^.^.^.",
"^.^.^.^.^.^.q K { ;.t.c.Z.A.A.A.Z.N.n.v.k.j.m.m P ^.^.^.^.^.",
"^.^.^.^.^.^.w K { >.t.c.Z.A.A.A.A.Z.Z.B.N.N.F.M L ^.^.^.^.^.",
"^.^.^.^.^.^.8 c [ :.r.x.C.A.A.A.A.A.A.A.A.D.K.B I ^.^.^.^.^.",
"^.^.^.^.^.^.1 l [ =.q.x.C.Z.A.A.A.A.A.A.A.D.K.N I.^.^.^.^.^.",
"^.^.^.^.^.^.2 l [ :.r.x.C.A.A.A.A.A.A.A.A.D.K.V U.^.^.^.^.^.",
"^.^.^.^.^.^., z [ ;.t.c.Z.A.A.A.A.A.A.A.A.S.L.S / ^.^.^.^.^.",
"^.^.^.^.^.^.9 J | <.f.V.G.J.J.J.J.J.J.J.H.K.P.n ( ^.^.^.^.^.",
"^.^.^.^.^.^.E + A o.-.4.0.w.w.w.w.w.w.w.e.y. .  W.^.^.^.^.^.",
"^.^.^.^.^.^.!.Q 3 = * & $ $ $ $ $ $ $ $ % @ e R.^.^.^.^.^.^.",
"^.^.^.^.^.^.^.^.^.^.^.^.^.^.^.^.^.^.^.^.^.^.^.^.^.^.^.^.^.^.",
"^.^.^.^.^.^.^.^.^.^.^.^.^.^.^.^.^.^.^.^.^.^.^.^.^.^.^.^.^.^.",
"^.^.^.^.^.^.^.^.^.^.^.^.^.^.^.^.^.^.^.^.^.^.^.^.^.^.^.^.^.^.",
"^.^.^.^.^.^.^.^.^.^.^.^.^.^.^.^.^.^.^.^.^.^.^.^.^.^.^.^.^.^.",
"^.^.^.^.^.^.^.^.^.^.^.^.^.^.^.^.^.^.^.^.^.^.^.^.^.^.^.^.^.^.",
"^.^.^.^.^.^.^.^.^.^.^.^.^.^.^.^.^.^.^.^.^.^.^.^.^.^.^.^.^.^.",
"^.^.^.^.^.^.^.^.^.^.^.^.^.^.^.^.^.^.^.^.^.^.^.^.^.^.^.^.^.^."
};
