/* XPM */
static const char *folderOpenNormal_xpm[] = {
/* columns rows colors chars-per-pixel */
"30 30 107 2 ",
"   c #1C1C11",
".  c #1B1E1D",
"X  c #262109",
"o  c #322C07",
"O  c #352E07",
"+  c #262314",
"@  c #262514",
"#  c #2A2815",
"$  c #292816",
"%  c #282817",
"&  c #292817",
"*  c #2A2916",
"=  c #2B2917",
"-  c #2B2A17",
";  c #24241A",
":  c #23241C",
">  c #23241E",
",  c #2A2919",
"<  c #2A2A1C",
"1  c #2B2B1C",
"2  c #2B2C1F",
"3  c #2A2B21",
"4  c #2A2C21",
"5  c #2D3333",
"6  c #433A08",
"7  c #473D09",
"8  c #4D430A",
"9  c #62550C",
"0  c #685A0E",
"q  c #695B0E",
"w  c #6A5C0E",
"e  c #6B5E0E",
"r  c #72630F",
"t  c #73640F",
"y  c #74650F",
"u  c #76660F",
"i  c #7A6A10",
"p  c #685F20",
"a  c #736E36",
"s  c #747038",
"d  c #3D4546",
"f  c #5A6666",
"g  c #5C6868",
"h  c #5D6969",
"j  c #5F6B6C",
"k  c #606C6D",
"l  c #616D6E",
"z  c #626E6F",
"x  c #7B7F60",
"c  c #6A7672",
"v  c #6B7772",
"b  c #877612",
"n  c #978414",
"m  c #BFAD1A",
"M  c #BDA820",
"N  c #C0AE1A",
"B  c #C4AD1B",
"V  c #CDB41E",
"C  c #CDB51E",
"Z  c #D0B61C",
"A  c #D1B61C",
"S  c #D0B71C",
"D  c #D1B71C",
"F  c #D3B91C",
"G  c #D0BB1D",
"H  c #D3BA1C",
"J  c #D4BA1C",
"K  c #D6BB1C",
"L  c #D1BF1D",
"P  c #D6BC1C",
"I  c #DBBF1D",
"U  c #C4AE25",
"Y  c #C9B322",
"T  c #E9CF1F",
"R  c #F3D320",
"E  c #F4D320",
"W  c #F3D420",
"Q  c #F4D420",
"!  c #F5D420",
"~  c #F5D520",
"^  c #F6D620",
"/  c #FBDA21",
"(  c #FFDE22",
")  c #FFDF22",
"_  c #FFE022",
"`  c #FFE122",
"'  c #FFE222",
"]  c #FFE322",
"[  c #FFE723",
"{  c #FFE725",
"}  c #FFE823",
"|  c #FFE923",
" . c #FFED24",
".. c #FFEE24",
"X. c #86875A",
"o. c #85885C",
"O. c #8E9165",
"+. c #929978",
"@. c #849596",
"#. c #AEB586",
"$. c #92A5A5",
"%. c #ABBEB8",
"&. c #BDCDB7",
"*. c #CFE6DC",
"=. c #C6DFE0",
"-. c #CAE4E5",
";. c #D1ECED",
/* pixels */
";.;.;.;.;.;.;.;.;.;.;.;.;.;.;.;.;.;.;.;.;.;.;.;.;.;.;.;.;.;.",
";.;.;.;.;.;.;.;.;.;.;.;.;.;.;.;.;.;.;.;.;.;.;.;.;.;.;.;.;.;.",
";.;.;.;.;.;.;.;.;.;.;.;.;.;.;.;.;.;.;.;.;.;.;.;.;.;.;.;.;.;.",
";.;.;.;.;.;.;.;.;.;.;.;.;.;.;.;.;.;.;.;.;.;.;.;.;.;.;.;.;.;.",
";.;.;.;.;.;.;.;.;.;.;.;.;.;.;.;.;.;.;.;.;.;.;.;.;.;.;.;.;.;.",
";.;.;.;.;.;.;.;.;.;.;.;.;.;.;.;.;.;.;.;.;.;.;.;.;.;.;.;.;.;.",
";.;.;.;.;.;.;.;.;.;.;.;.;.;.;.;.;.;.;.;.;.;.;.;.;.;.;.;.;.;.",
";.;.;.;.;.;.=.h : $ % % % + . &.;.;.;.;.;.;.;.;.;.;.;.;.;.;.",
";.;.;.;.;.;.g 7 N H S S S L 8 x ;.;.;.;.;.;.;.;.;.;.;.;.;.;.",
";.;.;.;.;.;.; B  .( ) ) ) } A X d z l k j j @.-.;.;.;.;.;.;.",
";.;.;.;.;.;.# K ( E Q Q Q E ( I b r y y u t O d *.;.;.;.;.;.",
";.;.;.;.;.;., Z ) Q Q Q Q Q R / ] ' ' ' ' { T o #.;.;.;.;.;.",
";.;.;.;.;.;.1 C ) Q Q Q Q Q Q W Q Q Q Q Q ^ [ e o.;.;.;.;.;.",
";.;.;.;.;.;.2 Y _ E Q Q Q Q Q Q Q Q Q Q Q ~ ' w X.;.;.;.;.;.",
";.;.;.;.;.;.3 U ` E Q Q Q Q Q Q Q Q Q Q Q ~ ' q s ;.;.;.;.;.",
";.;.;.;.;.;.4 U ` E Q Q Q Q Q Q Q Q Q Q Q ~ ' q p ;.;.;.;.;.",
";.;.;.;.;.;.< V ) Q Q Q Q Q Q Q Q Q Q Q Q ~ ' q a ;.;.;.;.;.",
";.;.;.;.;.;.= F ( Q Q Q Q Q Q Q Q Q Q Q Q ~ ' 0 O.;.;.;.;.;.",
";.;.;.;.;.;.- J ( Q Q Q Q Q Q Q Q Q Q Q Q ~ ' w +.;.;.;.;.;.",
";.;.;.;.;.;.* P ( E Q Q Q Q Q Q Q Q Q Q Q ! ] i c ;.;.;.;.;.",
";.;.;.;.;.;.> M ..( ) ) ) ) ) ) ) ) ) ) ( ' | 9 v ;.;.;.;.;.",
";.;.;.;.;.;.f 6 m H S S S S S S S S S S D G n   %.;.;.;.;.;.",
";.;.;.;.;.;.=.h : $ % % % % % % % % % % & @ 5 $.;.;.;.;.;.;.",
";.;.;.;.;.;.;.;.;.;.;.;.;.;.;.;.;.;.;.;.;.;.;.;.;.;.;.;.;.;.",
";.;.;.;.;.;.;.;.;.;.;.;.;.;.;.;.;.;.;.;.;.;.;.;.;.;.;.;.;.;.",
";.;.;.;.;.;.;.;.;.;.;.;.;.;.;.;.;.;.;.;.;.;.;.;.;.;.;.;.;.;.",
";.;.;.;.;.;.;.;.;.;.;.;.;.;.;.;.;.;.;.;.;.;.;.;.;.;.;.;.;.;.",
";.;.;.;.;.;.;.;.;.;.;.;.;.;.;.;.;.;.;.;.;.;.;.;.;.;.;.;.;.;.",
";.;.;.;.;.;.;.;.;.;.;.;.;.;.;.;.;.;.;.;.;.;.;.;.;.;.;.;.;.;.",
";.;.;.;.;.;.;.;.;.;.;.;.;.;.;.;.;.;.;.;.;.;.;.;.;.;.;.;.;.;."
};
