/* XPM */
static const char *folderOpenMouseOver_xpm[] = {
/* columns rows colors chars-per-pixel */
"30 30 108 2 ",
"   c #2B2B1F",
".  c #343017",
"X  c #2A2D2A",
"o  c #353221",
"O  c #353422",
"+  c #373523",
"@  c #323327",
"#  c #373625",
"$  c #373725",
"%  c #383623",
"&  c #383624",
"*  c #383724",
"=  c #383825",
"-  c #383925",
";  c #393827",
":  c #313228",
">  c #323329",
",  c #31332B",
"<  c #383828",
"1  c #383829",
"2  c #393A2D",
"3  c #38392E",
"4  c #403A16",
"5  c #433C16",
"6  c #3A403F",
"7  c #504717",
"8  c #534A17",
"9  c #595019",
"0  c #6D611B",
"q  c #72651C",
"w  c #73661C",
"e  c #74671C",
"r  c #75691C",
"t  c #7C6E1D",
"y  c #7D6F1D",
"u  c #7F701D",
"i  c #726A2E",
"p  c #495150",
"a  c #7C7843",
"s  c #7D7944",
"d  c #646F6F",
"f  c #657171",
"g  c #667271",
"h  c #687574",
"j  c #697575",
"k  c #6A7676",
"l  c #6B7777",
"z  c #727F79",
"x  c #83741E",
"c  c #8F7F20",
"v  c #74807A",
"b  c #9E8C22",
"n  c #C2AE2E",
"m  c #C3B328",
"M  c #C4B428",
"N  c #C8B329",
"B  c #CDB82F",
"V  c #D0B92B",
"C  c #D0BA2B",
"Z  c #D3BB2A",
"A  c #D4BB2A",
"S  c #D3BC29",
"D  c #D3BC2A",
"F  c #D4BC2A",
"G  c #D6BE2A",
"H  c #D6BF2A",
"J  c #D7BF2A",
"K  c #D9BF29",
"L  c #C8B432",
"P  c #D3C02B",
"I  c #D4C32B",
"U  c #D9C029",
"Y  c #DDC32A",
"T  c #EAD22C",
"R  c #F4D62D",
"E  c #F5D62D",
"W  c #F4D72D",
"Q  c #F5D72D",
"!  c #F6D72D",
"~  c #F6D82D",
"^  c #F7D92D",
"/  c #FBDD2E",
"(  c #FFE02F",
")  c #FFE12F",
"_  c #FFE22F",
"`  c #FFE32F",
"'  c #FFE42F",
"]  c #FFE52F",
"[  c #FFE92F",
"{  c #FFE930",
"}  c #FFE931",
"|  c #FFEA30",
" . c #FFEE31",
".. c #FFEF31",
"X. c #8D8F64",
"o. c #8C8F65",
"O. c #838769",
"+. c #94986E",
"@. c #989F80",
"#. c #8A9B9B",
"$. c #B2B98D",
"%. c #97AAAA",
"&. c #AEC2BC",
"*. c #BFD0BA",
"=. c #CFE6DD",
"-. c #C6E0E1",
";. c #CAE4E5",
":. c #D1ECED",
/* pixels */
":.:.:.:.:.:.:.:.:.:.:.:.:.:.:.:.:.:.:.:.:.:.:.:.:.:.:.:.:.:.",
":.:.:.:.:.:.:.:.:.:.:.:.:.:.:.:.:.:.:.:.:.:.:.:.:.:.:.:.:.:.",
":.:.:.:.:.:.:.:.:.:.:.:.:.:.:.:.:.:.:.:.:.:.:.:.:.:.:.:.:.:.",
":.:.:.:.:.:.:.:.:.:.:.:.:.:.:.:.:.:.:.:.:.:.:.:.:.:.:.:.:.:.",
":.:.:.:.:.:.:.:.:.:.:.:.:.:.:.:.:.:.:.:.:.:.:.:.:.:.:.:.:.:.",
":.:.:.:.:.:.:.:.:.:.:.:.:.:.:.:.:.:.:.:.:.:.:.:.:.:.:.:.:.:.",
":.:.:.:.:.:.:.:.:.:.:.:.:.:.:.:.:.:.:.:.:.:.:.:.:.:.:.:.:.:.",
":.:.:.:.:.:.-.g > + # # # o X *.:.:.:.:.:.:.:.:.:.:.:.:.:.:.",
":.:.:.:.:.:.f 8 M H S S D I 9 O.:.:.:.:.:.:.:.:.:.:.:.:.:.:.",
":.:.:.:.:.:.@ N  .( ) ) ) [ A . p l k j h h #.;.:.:.:.:.:.:.",
":.:.:.:.:.:.% K ( E Q Q Q E ( Y c t y y u t 5 p =.:.:.:.:.:.",
":.:.:.:.:.:.; Z ) Q Q Q Q Q R / ] ' ' ' ' } T 4 $.:.:.:.:.:.",
":.:.:.:.:.:.< C ) Q Q Q Q Q Q W Q Q Q Q Q ^ { r o.:.:.:.:.:.",
":.:.:.:.:.:.2 B _ E Q Q Q Q Q Q Q Q Q Q Q ~ ' e X.:.:.:.:.:.",
":.:.:.:.:.:.3 L ` E Q Q Q Q Q Q Q Q Q Q Q ~ ' w s :.:.:.:.:.",
":.:.:.:.:.:.3 L ` E Q Q Q Q Q Q Q Q Q Q Q ~ ' w i :.:.:.:.:.",
":.:.:.:.:.:.1 V ) Q Q Q Q Q Q Q Q Q Q Q Q ~ ' w a :.:.:.:.:.",
":.:.:.:.:.:.= G ( Q Q Q Q Q Q Q Q Q Q Q Q ~ ' q +.:.:.:.:.:.",
":.:.:.:.:.:.- J ( Q Q Q Q Q Q Q Q Q Q Q Q ~ ' e @.:.:.:.:.:.",
":.:.:.:.:.:.* U ( E Q Q Q Q Q Q Q Q Q Q Q ! ] x z :.:.:.:.:.",
":.:.:.:.:.:., n ..( ) ) ) ) ) ) ) ) ) ) ( ' | 0 v :.:.:.:.:.",
":.:.:.:.:.:.d 7 m H S D D D D D D D S S F P b   &.:.:.:.:.:.",
":.:.:.:.:.:.-.g : & # # # # # # # # # # $ O 6 %.:.:.:.:.:.:.",
":.:.:.:.:.:.:.:.:.:.:.:.:.:.:.:.:.:.:.:.:.:.:.:.:.:.:.:.:.:.",
":.:.:.:.:.:.:.:.:.:.:.:.:.:.:.:.:.:.:.:.:.:.:.:.:.:.:.:.:.:.",
":.:.:.:.:.:.:.:.:.:.:.:.:.:.:.:.:.:.:.:.:.:.:.:.:.:.:.:.:.:.",
":.:.:.:.:.:.:.:.:.:.:.:.:.:.:.:.:.:.:.:.:.:.:.:.:.:.:.:.:.:.",
":.:.:.:.:.:.:.:.:.:.:.:.:.:.:.:.:.:.:.:.:.:.:.:.:.:.:.:.:.:.",
":.:.:.:.:.:.:.:.:.:.:.:.:.:.:.:.:.:.:.:.:.:.:.:.:.:.:.:.:.:.",
":.:.:.:.:.:.:.:.:.:.:.:.:.:.:.:.:.:.:.:.:.:.:.:.:.:.:.:.:.:."
};
