/* XPM */
static const char *recorderSetupClosePressed_xpm[] = {
/* columns rows colors chars-per-pixel */
"119 29 39 1 ",
"  c #1E1E1E",
". c #2B2B2B",
"X c #3B3B3B",
"o c #434343",
"O c #4C4C4C",
"+ c #535353",
"@ c #5F5F5F",
"# c #606060",
"$ c #676868",
"% c #6B6C6C",
"& c #6F7171",
"* c #747575",
"= c #777878",
"- c #7A7B7B",
"; c #7F8080",
": c #838484",
"> c #878888",
", c #8B8C8C",
"< c #8F9191",
"1 c #939494",
"2 c #979898",
"3 c #9B9B9B",
"4 c #9FA0A0",
"5 c #A3A4A4",
"6 c #A7A8A8",
"7 c #ACACAC",
"8 c #B4B4B4",
"9 c #B6B9B9",
"0 c #BCBCBC",
"q c #BFC2C2",
"w c #C4C4C4",
"e c #C6C9C9",
"r c #CCCCCC",
"t c #CDCFD0",
"y c #CFD0D0",
"u c #D4D4D4",
"i c #DCDCDC",
"p c #E4E4E4",
"a c #E8E8E8",
/* pixels */
"1,,,,<<<<,<,<,,<,,,,,,,,,,,,,,:,,:,,:::,::::::::::::::::;:;;;-;------------*-*--**=*********&*&&&&&&&%&&%%%%%%%%%$%$%$&",
"<,11232332332222222222221211111111111111111111111,1,,,,,,,,,,,,,,,,,,,:,,::,::::::::::::;:;;;;;;;-:--------=--=*==*=**;",
"1113567767767677777777777666676766666555655556555555555555455354535343334343333243333333322322121111111111111,1,,<,,,,<",
"<1379wwwwwwwwwwww0w0w0w00ww0w0w00ww00w000w00000000000000000000008000000000800800808888888888888887888787777777776777667",
"<159wuuuuuuuuuuuuuuuuuuuuuuuuuuuuuuuuuuuuuuuuuuuuuuuurururuururururrrururrurururrrrrrrryrrrrrrrrrrwrwwwwwwwwww0w00w0000",
"1160yippppaappppppppppppppipppipppippppiipippiippiipipipipiipiiipiippiiipiiiiiiiiiiiiiiiiiiiiuiiuuuuuuuuururrrrrrrrwrwr",
"126quppaaaaaaaaaaaaapaaaaaaapaaapaaaappaaapappappapappaaappaapappappppppppppppppappppppppippipiiiiiiiiuuuiuiuuuuyuyyyyy",
"<16wupaaaaaaaaaaaaaaaapaaaaaaaaaapapaaappaaapaaaapappappappappappppppppppppppppppppppipppiiiiiiiiiiiiiuiuuuuuuruyyyyrry",
"1160uiaaaaaaapw>+ooO:rpaaaaaappaaaappaaappaaappppapppapppaappppapppppppppppppppppppippipiipiiiuiiiiuuuuuuuuurururryrrrr",
",16wupaaaaaap5oO=,,=Oo4paapaaaaaapaaappaaappapapppaappappppppppppppppp8.pppppppppippiiiiiiiiiiiuuuuuuuuuuuururrrrrrrrwr",
",160upaaaaaa4X*yaaaar*X4paapapapappa    oaappaapapappapppppppppppppppp8.pppppipipiiiiiiiiiiuiiiuuiuuuuuurururrrrrrrrrwr",
",150uiaaaaaro&ppiaaiip*owaapaaaaap, ,appapappappapppppppppappapppppppp7.piippiipiiiiiiiiiuiuuuuuuuuuuuruurrrrrrrrrwwwww",
",<50yiaaaaa>Orp;*ii=:prO:aaaaapppp.#pppapa8   .pp#,   @ppp,   ,p,   7p7.ppipiiiiiiiiiiiuuuuuuuuuuruuururrrrrrrrwwrwrwww",
",160upaaaaaO*pi*X--X*ia*+aappaapp8 ppaapppp8pp.#p# pp8 8p7 7ppp7 7p:.p7.iiiiiiiiiiuiuuiuiuuuuuyururrrrrrrrrrrwwrrwwwwww",
",150uiapaaaX,aai*XX-iaa,oppppppap8 papppppappp@#p#oppp.:p#opipp@opip.77.iiiiiiuiuuuiuiuuuuuuuuruurrrrrrwwrrwwrwwwwwwwww",
">,40uipaapao<aai*XX-ipa,Xapaapapa8 ppppappp    #p##ppp.,po@ppppo     :5.iiiiiuiiuiuuuuyuyryyryrrrrrrwrrrrwwrwwwww0ww00w",
">,50uiaaapa+-pu-X==X=ua*Oapapaappp.,pppppp :pp##p##ppp.:p@oippi@#iiiii6.iiuuuuuuuuuuruurururrrrrrrrrwrrwwrwwwwwww00w0w0",
">,30yiaaapa:Orp:*ii=:prO:apppppppp: ,ppppp 7pp @p##ppp.:p7 7iii7 6iiui5.uuuiuuuuuuruuurrrrrrrwrrrwrwwwwwwww0ww0ww00w000",
">,30yppaaaawo*piipaiip*owpppppapapp7    #p@   :@p@@ppi.:ii:   :i6    i5.uuuuuuurruurrrrrrrwrrrrwwwrwwwwwwwww00w00000000",
":,30yipppapp4X%rppppr*X3ppappppppppppppppppppppppipiiiiiiiiiuiiuuuiuuuuuuuuuuurrrrrrrrrrrrrrwwrwwwwwwww00w000w000000000",
":,38riapapaap3oO*,,*Oo4ppppppppppppppppppipipipiiiiiiiiiuiuiuuuiuuuuuuuuruururrrrrrrrwrrwrwwwwwwwwwwwww0000w00000080080",
":,30yipappppppw:Ooo+:wpppppppppppppppppippipiiiiiiiiiiiiiiuuiuuuuuurrurrrrrrrrrrrrrwrrwwwwwwwwww0w0w0000000000000800800",
";:30uipapappppppappppppppppppppppppipiippiiiiiiiiiiiuiuuuuuuuuuyuuruurrrrrrrrrwrrwwwwwwwwwwww0www0w00000008080088808888",
"::38rippappppppppapppppppppppippipipipiiiiiiiiiiuuuuuuuuuuuuururrurrrrrrrrrwwrwrwwrwwwwwww0ww00000000000800080800888888",
";:28ripapppppppppppppppppppippipipiiiiiiiiiiiuuuuuuuuuuuurrururrrrrrrrrrwrrwwwwwwwww0w0w0w0w000000000000008888888888888",
";:20ripppppappppppppppipipipiiiiiiiiiiiiuiuuuuuuuuuuurrururrrrrrrrrwrwwrwwwwwwwwwwww0w000000000000008088888888888888788",
"-:28ripppppppppppppppppppiipiiiiiiiiiuuuuuuuuuuuuruururrrrrrrrrrrwwrwwwwwwwwwwww0w0w000w0000000008888888888888888778878",
"-:28ripppppppppppipiipiiiiiiiiiiiuuuuiuuuuuuuurururrrrrrrrrrwrwwrwwwwwwwwwww000w000000000080088880888888888887878877778",
"-;18rippppppppippiipiiiiiiiiuiiuuiuuuuuuuurururrrrrrrrwrrwrwwwrwwwwww0ww00w00000000800000808088888888888878787787777777"
};
