/* XPM */
static const char *recorderSetupCloseMouseOver_xpm[] = {
/* columns rows colors chars-per-pixel */
"119 29 254 2 ",
"   c #1E1E1E",
".  c #2C2C2C",
"X  c #2D2D2D",
"o  c #3A3A3A",
"O  c gray23",
"+  c #3C3C3C",
"@  c #3E3E3E",
"#  c #3F3F3F",
"$  c gray25",
"%  c #414141",
"&  c gray26",
"*  c gray27",
"=  c #464646",
"-  c gray28",
";  c #494949",
":  c gray29",
">  c #4B4B4B",
",  c #4C4C4C",
"<  c gray30",
"1  c #4E4E4E",
"2  c #505050",
"3  c #515151",
"4  c #555555",
"5  c gray34",
"6  c gray39",
"7  c #646464",
"8  c #656565",
"9  c gray40",
"0  c #676767",
"q  c #686868",
"w  c DimGray",
"e  c gray47",
"r  c #797979",
"t  c #7B7B7B",
"y  c #7C7C7C",
"u  c gray49",
"i  c #7E7E7E",
"p  c gray50",
"a  c #808080",
"s  c #818181",
"d  c gray51",
"f  c #838686",
"g  c #848787",
"h  c #858888",
"j  c #868989",
"k  c #868A8A",
"l  c #878A8A",
"z  c #888B8B",
"x  c gray54",
"c  c #8B8B8B",
"v  c #888C8C",
"b  c #898C8C",
"n  c #898D8D",
"m  c #8A8D8D",
"M  c #898E8E",
"N  c #8A8E8E",
"B  c #8B8E8E",
"V  c #8A8F8F",
"C  c #8B8F8F",
"Z  c gray55",
"A  c #8D8D8D",
"S  c #8C8F8F",
"D  c #8E8E8E",
"F  c gray56",
"G  c #8B9090",
"H  c #8B9191",
"J  c #8C9090",
"K  c #8D9090",
"L  c #8C9191",
"P  c #8D9191",
"I  c #8E9191",
"U  c #8D9292",
"Y  c #8E9292",
"T  c #8E9393",
"R  c #8F9393",
"E  c #8E9494",
"W  c #8F9494",
"Q  c #8F9495",
"!  c #909090",
"~  c gray57",
"^  c #909393",
"/  c #929292",
"(  c #939393",
")  c #909494",
"_  c #909495",
"`  c #909595",
"'  c #919595",
"]  c #919696",
"[  c #919797",
"{  c #939696",
"}  c #929797",
"|  c #939797",
" . c #959595",
".. c #949797",
"X. c gray59",
"o. c #979797",
"O. c #929898",
"+. c #939898",
"@. c #949898",
"#. c #959898",
"$. c #949999",
"%. c #959999",
"&. c #949A9A",
"*. c #959A9A",
"=. c #959B9B",
"-. c #969A9A",
";. c #969B9B",
":. c #979B9B",
">. c #979D9D",
",. c #989898",
"<. c #9B9B9B",
"1. c #989C9C",
"2. c #989D9D",
"3. c #999D9D",
"4. c #999E9E",
"5. c #9A9E9E",
"6. c #9B9F9F",
"7. c gray61",
"8. c #9AA0A0",
"9. c #9CA1A1",
"0. c #9DA1A1",
"q. c #9EA2A2",
"w. c #9EA3A3",
"e. c #9FA3A3",
"r. c #9DA4A4",
"t. c #9FA4A4",
"y. c #A0A4A4",
"u. c #A0A5A5",
"i. c #A1A5A5",
"p. c #A0A6A6",
"a. c #A1A6A6",
"s. c #A2A6A6",
"d. c #A2A7A7",
"f. c #A2A8A8",
"g. c #A3A8A8",
"h. c #A4A8A8",
"j. c #A4A9A9",
"k. c #A5A9A9",
"l. c #A4AAAA",
"z. c #A5AAAA",
"x. c #A6ABAB",
"c. c #A6ABAC",
"v. c #A7ACAC",
"b. c gray66",
"n. c #A9A9A9",
"m. c gray67",
"M. c #A8ACAC",
"N. c #A8ADAD",
"B. c #A9ADAD",
"V. c #A8AEAE",
"C. c #A9AEAE",
"Z. c #AAAEAE",
"A. c #AAAFAF",
"S. c #ABAFAF",
"D. c #ACACAC",
"F. c #AEAEAE",
"G. c #AFAFAF",
"H. c #A9B0B0",
"J. c #ABB0B0",
"K. c #ABB2B2",
"L. c #ACB0B0",
"P. c #ACB1B1",
"I. c #ADB2B2",
"U. c #AEB4B4",
"Y. c #AFB4B4",
"T. c #AFB6B6",
"R. c #B1B6B6",
"E. c #B2B7B7",
"W. c #B7B7B7",
"Q. c #B1B7B8",
"!. c #B3B9B9",
"~. c #B4BABA",
"^. c #B5BABA",
"/. c #B4BBBB",
"(. c #B5BBBB",
"). c #B5BCBC",
"_. c #B6BDBD",
"`. c #B7BEBE",
"'. c #B7BFBF",
"]. c gray72",
"[. c #B9B9B9",
"{. c gray73",
"}. c #BBBBBB",
"|. c #BCBCBC",
" X c gray74",
".X c gray",
"XX c gray75",
"oX c #C0C0C0",
"OX c #C1C1C1",
"+X c #C3C3C3",
"@X c #D2D2D2",
"#X c LightGray",
"$X c #D5D5D5",
"%X c gray84",
"&X c gray85",
"*X c #DADADA",
"=X c gray86",
"-X c #DCDDDD",
";X c #DDDEDE",
":X c gray87",
">X c #DEDFDF",
",X c #DFDFDF",
"<X c #DFE0E0",
"1X c #E0E1E1",
"2X c #E1E1E1",
"3X c #E1E2E2",
"4X c #E2E2E2",
"5X c #E2E3E3",
"6X c #E3E4E4",
"7X c #E4E4E4",
"8X c #E4E5E5",
"9X c gray90",
"0X c #E6E6E6",
"qX c #E6E7E7",
"wX c #E7E7E7",
"eX c gray91",
"rX c #E8E9E9",
"tX c #E9E9E9",
"yX c #E9EAEA",
"uX c #EAEAEA",
"iX c gray92",
"pX c #EBECEC",
"aX c #ECECEC",
"sX c gray93",
"dX c #EDEEEE",
"fX c #EEEEEE",
"gX c #EFEFEF",
"hX c #EFF0F0",
"jX c gray94",
"kX c #F0F1F1",
"lX c #F1F1F1",
"zX c gray95",
"xX c #F2F3F3",
"cX c #F3F3F3",
"vX c #F4F4F4",
"bX c gray96",
"nX c #F5F6F6",
"mX c #F6F6F6",
"MX c gray97",
"NX c #F7F8F8",
"BX c #F8F8F8",
"VX c #F8F9F9",
"CX c #F9F9F9",
"ZX c #F9FAFA",
"AX c gray98",
"SX c #FBFBFB",
"DX c #FBFCFC",
"FX c gray99",
"GX c #FCFDFD",
"HX c #FDFDFD",
"JX c #FDFFFF",
"KX c #FEFEFE",
"LX c #FEFFFF",
"PX c white",
/* pixels */
"'.(.(.^.~.!.E.R.Y.I.J.C.v.z.g.i.e.0.5.2.-.@.| ' ^ I K S N n v z l k j h h h g g g g g f f f f f f f f f f f f f f f f f f f f f f f g g g f f g g g g g g g g g g g g g g g g g g g g g g g g g g g g g g g g g g f f f f f f f f f f f f f M ",
"`.JXPXPXPXPXPXPXPXPXPXPXPXPXPXPXPXPXPXPXPXPXPXPXPXFXCXmXvXzXjXfXaXiXuXtXeXeXwX0X0X9X9X0X9X7X7X7X7X7X7X9X7X9X9X9X9X9X9X9X9X9X9X9X9X0X0X0X0X9X9X9X9X0X0X0X0X0X0X0X0X0X0X0X0X0X0X0XwXwX0X0X0X0X0X0X0X0X0X0X0X0X0X0X0X9X9X9X9X9X9X9X9X9X9X7X7X-XM ",
"_.LXPXPXPXPXPXPXPXPXPXPXPXPXPXPXPXPXPXPXPXPXPXPXPXFXCXmXvXzXjXfXaXaXuXtXeXtXwXwXwX0X0X9X9X9X7X9X9X9X9X9X9X9X7X9X9X9X0X9X9X0X0X0XwX0X0X0X0X0XwXwXwXwX0X0X0X0X0XwXwXwXwXwXwXwXwXwXwXwXwXwXwXwXwXwXwX0X0X0X0X0X0X0X0X0X0X0X0X0X0X7X9X9X9X9X9X;XM ",
").LXPXPXPXKXPXPXPXPXPXPXPXPXPXPXPXPXPXPXPXPXPXPXPXSXBXmXcXlXgXfXaXiXuXtXtXtXeXwXwX0X0X0X9X9X9X9X9X0X0X0X0X0X9X0X0X0X0X0X0XwXwXwXwX0XwX0XwXwXwXwXwX0XwXwXwXeXeXeXwXeXeXeXwXeXeXeXwXeXwXeXeXeXeXeXwXwXwXwXwX0XwXwXwX0X0X0X0X0X9X9X9X9X9X9X9X;XM ",
"/.LXPXKXPXPXPXPXPXPXPXPXPXPXPXPXPXPXPXPXPXPXPXPXHXAXBXmXvXlXgXfXaXiXuXuXtXtXeXwXwX0X0X0X9X9X0X0X0XwX0XwXwXwXwXwXwXwXwXwXwXwXwXwXwXeXeXeXeXeXeXeXeXwXeXeXeXeXeXeXeXeXeXeXeXtXeXeXeXtXeXeXeXtXeXeXeXeXeXeXeXeXeXwXwXwXwXwX0X0X0X0X0X9X9X9X9X;XM ",
"!.LXPXPXPXPXPXPXPXPXPXPXPXPXPXPXPXPXPXPXPXPXPXPXHXCXMXbXvXzXjXsXaXaXiXuXtXeXeXwXeXwXwXwX9XwXwX0XwXwX0XwXwXwXwXwXwXeXeXeXeXeXeXeXeXeXeXeXeXeXeXtXtXtXtXtXtXtXtXuXuXtXuXtXtXuXuXuXtXtXuXuXtXtXtXtXtXtXtXeXeXtXeXeXeXeXeXeXeXwXwX0X0X0X0X9X0X;XV ",
"Q.JXPXPXPXPXPXPXPXPXPXPXPXPXPXPXPXPXPXPXPXPXPXKXFXCXMXvXcXlXjXsXsXaXiXuXuXtXeXeXeXwXeXeXwXwXwXwXeXeXeXwXeXeXeXeXeXeXeXeXeXeXeXtXtXtXtXtXtXtXtXuXuXuXuXuXuXuXiXuXiXuXuXuXuXuXaXiXuXiXiXiXiXiXuXuXuXuXuXuXtXuXtXtXtXeXeXeXeXeXwXeXwXwXwX0X0X>XV ",
"T.JXPXPXPXPXPXPXPXPXPXPXPXPXPXPXPXPXPXPXPXPXPXKXSXCXmXbXcXlXjXfXfXaXiXuXiXtXeXeXeXeXwXeXeXeXeXwXeXeXeXeXeXeXtXtXuXuXtXtXuXuXuXiXuXiXiXiXiXiXiXaXaXiXiXaXaXaXaXaXaXaXaXaXaXaXaXaXaXaXaXaXaXaXiXaXaXaXaXiXiXiXuXuXtXtXtXtXtXeXeXeXeXwXwXwXwX>XV ",
"U.JXPXPXPXPXPXPXPXPXPXPXPXHX*X~ 5 & % 3 ! &XHXHXSXCXmXvXzXlXjXsXsXaXaXiXuXtXtXtXtXtXtXtXeXeXtXtXtXuXtXtXuXuXuXiXiXaXiXiXaXiXaXaXiXaXaXaXaXaXaXsXsXsXsXfXaXfXfXfXsXsXgXfXsXsXfXsXfXsXsXfXsXfXfXfXfXsXsXsXsXaXiXaXaXiXuXuXtXtXtXtXeXeXeXeXwX<XV ",
"K.JXPXPXPXPXPXPXPXPXPXPXAXG.= 1 a <.<.a < * F.MXCXMXbXvXzXlXfXfXsXsXaXiXiXuXuXtXtXtXuXtXtXtXuXuXiXuXiXiXaXaXaXaXaXsXaXsXsXsXaXsXfXfXfXfXgXfXW.. gXjXgXgXgXgXjXgXgXgXgXgXjXjXgXgXjXgXjXjXgXjXgXjXgXfXfXfXfXfXsXsXsXaXaXaXaXiXiXuXtXtXeXeXwX<XV ",
"H.JXPXPXPXPXPXPXPXPXPXHXG.+ r 4XPXPXPXPX4Xt + m.MXMXbXcXzXjXgXgXsXsXaXaX        - iXuXtXiXaXiXiXaXaXaXaXaXsXsXaXfXfXfXgXgXfXgXjXjXjXgXjXjXjX[.. lXlXlXzXjXlXzXzXzXzXlXzXzXcXzXcXcXzXzXcXlXzXlXlXlXlXlXlXlXgXjXjXfXfXsXsXaXaXiXiXuXuXuXtXeX1XG ",
"V.LXPXPXPXPXPXPXPXPXPX=X& r BXmXlXPXPXlXmXCXt & $XmXbXcXzXlXjXgXgXfXZ   Z aXaXiXiXsXaXaXaXsXaXaXsXfXsXgXjXfXjXjXgXjXlXjXjXlXlXlXzXjXjXlXzXvX}.. cXvXcXcXvXcXvXbXvXcXvXvXbXbXvXvXvXvXvXvXvXvXvXcXvXcXcXcXzXlXzXlXlXgXfXfXfXsXaXsXaXiXuXuXuX3XG ",
"c.JXPXPXPXPXPXPXPXPXPX! < 2XCXZ s cXcXa Z BX:X< D mXvXcXzXlXjXgXfXsX. 6 fXsXfXsXfXsXW.      . gXgX7 D       7 zXzXzX!       ! vX!       |.mX X. mXMXMXmXMXmXMXMXBXBXBXBXmXMXBXMXMXBXMXMXMXmXBXmXmXbXbXbXbXbXvXcXzXzXjXlXjXgXsXsXsXaXiXiXuX5XH ",
"l.LXPXPXPXPXPXPXPXPXPX3 p PXjXa o d d o p sXSXu 4 bXvXzXzXlXlXfXfXW.  fXjXgXfXfXfXgXfX].jXjX. 7 lX8   zXcX{.  }.cX|.  |.vXmXbX|.  .XBX/ . BXXXX CXBXCXAXAXAXCXAXAXAXSXSXSXAXSXSXSXSXCXAXAXAXAXCXBXCXCXBXBXMXmXmXvXvXcXzXzXjXjXgXfXsXsXaXaX6XL ",
"f.JXPXPXPXPXPXPXPXPXPX# <.PXPXvXd o o d lXAXCXo.$ vXvXzXzXzXjXgXgXW.  jXjXgXgXjXlXlXjXlXlXzX8 8 cX9 ; bXbXMX. / MX9 : CXBXBXCX0 : SXSXSXX OXoXX FXFXFXFXFXHXFXKXKXKXKXKXKXKXKXKXKXKXHXKXHXKXHXFXFXFXFXSXSXAXCXBXBXmXmXbXvXzXlXlXjXgXfXfXsX6XL ",
"p.LXPXPXPXPXPXPXPXPXPX% 7.PXPXvXd o o d gXAXCX,.@ bXvXzXcXlXlXlXlX[.  lXlXlXlXzXzXcXcX        9 mX9 0 MXBXCXX ( AX: q SXFXHXFX>           X.+XX PXPXPXPXPXPXPXPXPXPXPXPXPXPXPXPXPXPXPXPXPXPXPXPXPXPXKXKXHXHXHXSXSXCXBXBXmXvXvXcXzXjXjXfXfX8XU ",
"r.JXPXPXPXPXPXPXPXPXPX5 a PXjXa o d s o p uXMXy 2 bXcXzXzXcXzXcXzXzX. F cXvXcXcXbXvX  ~ MXMX0 0 CX0 q SXSXFXX  .HXw > PXPXPXPXw w PXPXPXPXPX+XX PXPXPXPXPXPXPXPXPXPXPXPXPXPXPXPXPXPXPXPXPXPXPXPXPXPXPXPXPXPXPXPXHXFXSXAXCXCXMXbXvXcXzXjXjXqXU ",
"9.LXPXPXPXPXPXPXPXPXPX~ < 4XCXZ s lXjXp x zX*X, c bXcXcXvXcXcXvXvXvX~   ~ vXvXMXBXBX  XXCXAX  q FXq w KXPXPXX X.PX+X  +XPXPXPX+X  +XPXPXPXPX+XX PXPXPXPXPXPXPXPXPXPXPXPXPXPXPXPXPXPXPXPXPXPXPXPXPXPXPXPXPXPXPXPXPXPXKXHXFXAXCXBXmXbXvXzXlXrXT ",
"8.LXPXPXPXPXPXPXPXPXPX=X& t CXbXgXAXAXiXsXlXe % @XbXvXbXvXvXcXbXbXbXMX X        0 AXq        .w PXw w PXPXPXX X.PXPXX.      X.PX+X        PX+XX PXPXPXPXPXPXPXPXPXPXPXPXPXPXPXPXPXPXPXPXPXPXPXPXPXPXPXPXPXPXPXPXPXPXPXPXPXHXFXAXBXBXmXvXcXyXW ",
"4.LXPXPXPXPXPXPXPXPXPXHXG.O r ,XFXAXBXCX=Xe O b.vXbXbXbXbXmXmXmXMXmXCXAXCXAXSXFXFXHXHXPXPXPXPXPXPXPXPXPXPXPXPXPXPXPXPXPXPXPXPXPXPXPXPXPXPXPXPXPXPXPXPXPXPXPXPXPXPXPXPXPXPXPXPXPXPXPXPXPXPXPXPXPXPXPXPXPXPXPXPXPXPXPXPXPXPXPXPXFXFXAXBXmXbXpXQ ",
">.DXPXPXPXPXPXPXPXPXPXKXBXD.* , i o.o.i < * n.zXbXmXbXmXmXMXBXCXCXCXAXAXSXHXKXKXPXPXPXPXPXPXPXPXPXPXPXPXPXPXPXPXPXPXPXPXPXPXPXPXPXPXPXPXPXPXPXPXPXPXPXPXPXPXPXPXPXPXPXPXPXPXPXPXPXPXPXPXPXPXPXPXPXPXPXPXPXPXPXPXPXPXPXPXPXPXPXPXKXFXAXCXMXdX_ ",
"=.VXPXPXPXPXPXPXPXKXFXFXSXBX%XA 2 % % 4 A #XvXbXmXbXMXBXMXCXCXCXAXFXFXKXPXPXPXPXPXPXPXPXPXPXPXPXPXPXPXPXPXPXPXPXPXPXPXPXPXPXPXPXPXPXPXPXPXPXPXPXPXPXPXPXPXPXPXPXPXPXPXPXPXPXPXPXPXPXPXPXPXPXPXPXPXPXPXPXPXPXPXPXPXPXPXPXPXPXPXPXPXPXHXSXCXhX` ",
"$.nXKXHXKXHXHXHXSXAXSXAXAXBXMXMXMXmXmXmXmXmXmXmXMXBXBXBXCXAXSXFXFXPXPXPXPXPXPXPXPXPXPXPXPXPXPXPXPXPXPXPXPXPXPXPXPXPXPXPXPXPXPXPXPXPXPXPXPXPXPXPXPXPXPXPXPXPXPXPXPXPXPXPXPXPXPXPXPXPXPXPXPXPXPXPXPXPXPXPXPXPXPXPXPXPXPXPXPXPXPXPXPXPXPXKXFXkX] ",
"O.xXSXAXSXSXAXCXCXCXBXMXMXmXmXmXbXMXbXmXMXmXmXmXCXBXAXAXSXFXHXPXPXPXPXPXPXPXPXPXPXPXPXPXPXPXPXPXPXPXPXPXPXPXPXPXPXPXPXPXPXPXPXPXPXPXPXPXPXPXPXPXPXPXPXPXPXPXPXPXPXPXPXPXPXPXPXPXPXPXPXPXPXPXPXPXPXPXPXPXPXPXPXPXPXPXPXPXPXPXPXPXPXPXPXPXKXxX} ",
"[ hXBXMXCXBXMXMXmXMXmXMXmXmXbXmXbXbXbXbXmXMXMXBXMXAXSXSXHXHXPXPXPXPXPXPXPXPXPXPXPXPXPXPXPXPXPXPXPXPXPXPXPXPXPXPXPXPXPXPXPXPXPXPXPXPXPXPXPXPXPXPXPXPXPXPXPXPXPXPXPXPXPXPXPXPXPXPXPXPXPXPXPXPXPXPXPXPXPXPXPXPXPXPXPXPXPXPXPXPXPXPXPXPXPXPXPXnX+.",
"` dXbXmXmXbXbXbXbXbXbXvXvXvXbXvXbXbXbXmXmXMXMXBXCXSXFXKXPXPXPXPXPXPXPXPXPXPXPXPXPXPXPXPXPXPXPXPXPXPXPXPXPXPXPXPXPXPXPXPXPXPXPXPXPXPXPXPXPXPXPXPXPXPXPXPXPXPXPXPXPXPXPXPXPXPXPXPXPXPXPXPXPXPXPXPXPXPXPXPXPXPXPXPXPXPXPXPXPXPXPXPXPXPXPXPXPXNX&.",
"_ pXvXvXvXcXcXvXcXcXcXcXcXzXcXvXcXbXbXbXMXBXAXAXSXFXHXPXPXPXPXPXPXPXPXPXPXPXPXPXPXPXPXPXPXPXPXPXPXPXPXPXPXPXPXPXPXPXPXPXPXPXPXPXPXPXPXPXPXPXPXPXPXPXPXPXPXPXPXPXPXPXPXPXPXPXPXPXPXPXPXPXPXPXPXPXPXPXPXPXPXPXPXPXPXPXPXPXPXPXPXPXPXPXPXPXPXZX*.",
"W yXlXzXzXlXzXzXzXzXzXzXzXcXzXvXcXvXbXmXBXCXCXSXHXPXPXPXPXPXPXPXPXPXPXPXPXPXPXPXPXPXPXPXPXPXPXPXPXPXPXPXPXPXPXPXPXPXPXPXPXPXPXPXPXPXPXPXPXPXPXPXPXPXPXPXPXPXPXPXPXPXPXPXPXPXPXPXPXPXPXPXPXPXPXPXPXPXPXPXPXPXPXPXPXPXPXPXPXPXPXPXPXPXPXPXPXGX;.",
"E z v b b b b b z b b b m n n m B B C C J P Y I R ) ' { @.#.-.:.:.1.3.6.6.9.q.e.t.u.a.s.d.g.h.j.k.z.x.x.x.v.v.M.N.N.B.C.C.Z.A.A.A.S.J.J.J.J.J.L.P.P.P.P.P.P.P.P.P.I.I.I.I.I.I.I.P.P.P.P.P.P.P.J.J.J.A.A.Z.N.N.v.x.k.j.d.a.y.w.0.6.4.1.-.%...>."
};
