/* XPM */
static const char *recorderSetupStartPressed_xpm[] = {
/* columns rows colors chars-per-pixel */
"145 29 114 2 ",
"   c #6F1313",
".  c #741313",
"X  c #7B1515",
"o  c #7C1B1B",
"O  c #7F2020",
"+  c #841616",
"@  c #891717",
"#  c #8C1B1B",
"$  c #951919",
"%  c #9B1A1A",
"&  c #A31C1C",
"*  c #B51E1E",
"=  c #BC1F1F",
"-  c #812424",
";  c #8F2121",
":  c #852B2B",
">  c #912525",
",  c #942B2B",
"<  c #8A3333",
"1  c #8E3B3B",
"2  c #973131",
"3  c #993535",
"4  c #903E3E",
"5  c #9C3B3B",
"6  c #A72222",
"7  c #A82525",
"8  c #AA2B2B",
"9  c #B72020",
"0  c #BC2121",
"q  c #AE3333",
"w  c #AF3838",
"e  c #B13C3C",
"r  c #C01F1F",
"t  c #C42020",
"y  c #CC2222",
"u  c #C92B2B",
"i  c #D32323",
"p  c #DB2424",
"a  c #CB3333",
"s  c #CD3C3C",
"d  c #E32525",
"f  c #EC2727",
"g  c #E22C2C",
"h  c #F12727",
"j  c #F52828",
"k  c #FB2B2B",
"l  c #E33333",
"z  c #E43B3B",
"x  c #F43333",
"c  c #FB3333",
"v  c #F43B3B",
"b  c #FB3B3B",
"n  c #934444",
"m  c #9F4141",
"M  c #974949",
"N  c #994D4D",
"B  c #9A5151",
"V  c #A14545",
"C  c #A54C4C",
"Z  c #B44343",
"A  c #B74A4A",
"S  c #B84E4E",
"D  c #A55151",
"F  c #AB5252",
"G  c #B45151",
"H  c #BA5252",
"J  c #CF4242",
"K  c #D04646",
"L  c #D14C4C",
"P  c #C75454",
"I  c #CC5555",
"U  c #D35353",
"Y  c #D85656",
"T  c #DE5E5E",
"R  c #E54343",
"E  c #E64C4C",
"W  c #F54444",
"Q  c #FB4343",
"!  c #F54C4C",
"~  c #FC4B4B",
"^  c #E75252",
"/  c #E95656",
"(  c #E55D5D",
")  c #E95E5E",
"_  c #F55454",
"`  c #FC5353",
"'  c #F65959",
"]  c #FC5959",
"[  c #EE6060",
"{  c #F36161",
"}  c #FB6363",
"|  c #FC6B6B",
" . c #FC7575",
".. c #FD7A7A",
"X. c #E58989",
"o. c #EB8A8A",
"O. c #FD8383",
"+. c #F48C8C",
"@. c #FA8C8C",
"#. c #FD9494",
"$. c #FD9B9B",
"%. c #FEA3A3",
"&. c #FDABAB",
"*. c #F5B6B6",
"=. c #FBB6B6",
"-. c #FEBABA",
";. c #FEC2C2",
":. c #FECCCC",
">. c #F6D3D3",
",. c #FCD4D4",
"<. c #FEDBDB",
"1. c #FFE3E3",
"2. c #FEF1F1",
"3. c #FFFFFF",
/* pixels */
"B B B B B B B B B B B B B N N N N B N N N N N N N N M M M M M M M M M M M n M M M n M n M n n 4 n 4 n n 1 n 1 1 4 4 4 4 4 1 4 1 1 1 1 1 1 1 < 1 < < < < < < < : < < < < : : : : : : : : - : - - - - - - - + O O O O O o o O o o o o X o X X X . X . . . . . . . . . . . . .                       ",
"B B B D D D F D D D F D C F D C F C D D C C C C C C C C C C C C C C V C V V V V V V V V V V V V V V e V n 5 m m 5 5 5 5 5 5 5 5 3 5 3 3 5 3 3 3 3 3 3 3 2 3 3 2 2 3 , , 3 , 2 , , , , , , > , > > , > > > > ; ; $ > ; # # # # # # # # @ @ @ # @ @ @ @ @ @ @ @ @ + @ + + + + + + + + + + + X X X X ",
"B B D F G H H H H H H H H G H H H H S S S H S S S S S S S S A A S A A A A A A Z A Z Z Z Z Z Z Z Z Z e Z e Z Z Z e Z e Z e e e e e e e e w w e w w w w w q w q 8 w 8 q 8 8 8 q 8 8 8 8 8 8 8 8 8 8 7 7 6 7 7 7 7 6 & 6 6 6 6 & 6 & & & & & & & & & & % & & % % & % % % % % % $ % $ $ $ $ $ $ $ $ $ ",
"B B F H P I Y Y Y I Y Y Y Y Y I U U U U U L U U U L L U L L L L L L L L L L L L L L K L K L K K K K K K J J J J J J J J J J s K s s s s s s s s a s a s a s a a a a a a a a u a a a u u u u u u u u u u u u t u t u t t t t y t r r r r t r = t r r r = = = = = = = = * * = * * * * * * * * * = * ",
"N D S P T / / / / / / ^ ^ / / / ^ / ^ ^ ^ ^ ^ ^ ^ E ^ E ^ ^ E ^ E E ^ E E E E E E E E E R E R E R E E R E R E R R R R R z R R z R z z R z z z z z z z z z z l z l z l l l l l l l l g l g l p l l g g d g g g g d d d g d d d p d d d p p p p i p p i i i i i i i i i i i y i r y y y y r y r r r ",
"N C G I T / ' ' ' ' ' ' ' ' ' ' ' ` ' ' ' ' _ _ ' _ _ _ ` _ ! _ _ _ ! _ _ ! _ ! ! ! ! ! ! ! ! ! ! ! W ! W W W W W W W W W W W W v W W W v W W v v v v v b v v v v v v x x v x c x x x x x k x k j k j j h h j h j j h h f h f h f h f f f f f f d d f d f d d d d d p d p d p p p p p p p p p p p ",
"N C S U / ' ' ] ] ] ] ] ` ` ` ` ` ` ` ` ` ` ` ` ` ~ ` ` ~ ` ` ~ ` ~ ` ~ ~ ~ ~ ~ ~ ~ ~ ~ Q ~ ~ ~ Q ~ Q Q Q ~ Q Q Q Q Q Q Q b Q Q Q Q b b b b b b b b b c c b c c c c c c c c c c k c c c k c k c k k k k k k j k k k j j j j j h j j j h h h h h f f f f f f f d f d d d d d d d d p d p p p p p p ",
"M C S U ^ ' ] ] ] ` ` ` ` ] ` ` ` ` ` ` ` ` ~ ` ~ ` ~ ` ` ~ ` ~ ~ ~ ~ ~ ~ ~ ~ ~ ~ Q ~ ~ ~ Q Q Q Q Q ~ Q Q Q Q Q Q b Q b Q Q b b b b b b b b b b b b b b c b c c b c c c k c c k c k k k k k k k k k k k k k k j j k j j j j j j h h h f f f f f f f f f f d d f d d d d d d d d p d p p p p p p p ",
"M C S L ^ ' ` ` ` ` ` ` ` ` ` ` ` ` ~ ` ` ` ` ` ` ~ ~ ~ ~ ~ ~ ~ ~ ~ ~ ~ ~ ~ ~ Q Q ~ Q Q ~ Q Q Q Q Q Q Q Q b Q Q Q Q b b b b b b b b b b b b c b c c c c c c c c c k c k c k k k k k k k k k k k j j k j j j j j j j j j h j h h h h f f f f f f f f d f d d d d d d d d d p p p p p p p p p p i i ",
"M m A L E _ ` ` =.3.3.3.3.3.3.3.3.3.3.<.` ~ ~ ~ ~ ~ ~ ~ ~ ~ ~ ~ Q ~ ~ Q Q Q Q ~ ~ Q Q Q Q Q Q Q Q Q Q b Q b b b b b b b b b b b b b c c c b c c c c c c c c c k c c k c c k k k k k k k k k k j k j k j j j j j j =.=.h h f f f f f f f f f d f d d d d d d d d d d p p p p p p p p i p i i i i i ",
"M m A L ^ _ ` ` 3.<.=.=.=.=.=.=.=.&.;.3.O.~ ..1.1.~ ~ ~ ~ Q ~ ~ ~ $.3.3.3.3...Q -.$.Q Q Q b Q b Q b b Q b b b b b b 2.b b b b c c c 3.3.3.3.2.c c c c c k c k c k k k k k k k k k k k j k j j j j j j j j h h j f =.=.f +.3.f f f f f d d d d d d d d d d d d p d p p p p p p p p p p i i i i i i ",
"n m A L E _ ~ ` 3.&.~ ~ ~ ~ ~ ~ ~ ~ | 3.@.=.3.3.3.~ Q ~ ~ ~ Q Q  .3. .Q Q Q Q b <.$.Q Q b Q b b b b b b b b b b b b 3.b b c c c c c 3.c c c ,.<.c k k c c k k k k k k k k k k k j j j k j j j h j j h j h f h f f =.-.f f f d f f d d f d d d d d d d d p d p p p p p p p p i p i i i i i i i i y ",
"n m Z L E ! ` ~ 3.%.~ ~ ~ ~ ~ ~ ~ ~ | 3.3.3.:.-.3.~ Q Q Q Q Q Q  .2.Q Q b Q Q 2.3.3.3.#.b  .3.3.3.2.b b -.#.2.3.#.3.3.3.3.c c c c c 3.c c c @.2.k k k 3.3.3.=.k k k 3.3.3.,.j j :.3.3.3.{ j h -.@.2.3.+.f +.3.3.3.=.*.f [ 2.d [ ,.,.3.3.2.d d d *.3.3.3.3.2.p p p p i i p p i i i i i i i y i i i ",
"n m Z K E ! ~ ~ 3.%.~ ~ ~ ~ Q ~ ~ ~ | 3.2.@.Q %.3.Q Q Q Q Q Q Q Q 2.<.b Q Q b b 2.$.b b b b | b b 2.-.b -.3.#.c c | 3.c c c c c c k 3.k k k ,.,.k k 2.-.k k 3.] j 2.=.j j j j -.2.h h @.3.f h =.3.+.f f { 3.{ d f 3.=.d [ 2.d [ 3.o.d d 2.*.p ( 3.p p / 2.p p i p p p i i i i i i i i i i i y y u ",
"1 5 Z K E ! ~ ~ 3.%.~ ~ ~ ~ Q ~ ~ Q | 3.O.Q Q %.3.Q Q Q b Q Q b Q b -.3.3.| b b 2.$.b b b b b c c -.-.c -.<.c c c | 3.c k c c k k k 3.3.3.3.=.k k } 3.j j j -.=.' 3.j j j j h 2.@.h h f ,.+.f -.,.f f f =.,.d f d ,.*.d [ 2.d [ 3.d p d *.>.p ( 3.p p ( 3.p p i i i i i i i i i i i r i y y y y y ",
"1 4 Z J R ! ~ ~ 3.%.~ Q ~ Q ~ Q Q Q } 3.O.Q Q $.3.Q Q b Q b Q b b b b b  .3.#.b 2.#.c c c c 3.3.3.3.-.c -.-.c c k } 3.k k k k k k k 3.j k ,.=.k k @.3.3.3.3.3.,.@.2.h j h h f 3.' h f f ,.=.f *.*.f d f ,.*.d d d *.*.d ( 2.p ) 2.p p p *.,.p i *.3.3.3.o.i i i i i i i i y y i y y y i y y y y u ",
"1 5 Z J R W ~ Q 3.%.~ Q Q Q Q Q Q Q } 3.2.@.b $.3.b b b b b b b b b b b b ,.-.c 2.#.b c c 3.#.c c -.-.k -.-.k k k } 3.k k k k k k k 3.j k ] 3.j j } 2.h j h h h { 3.f h f h f 2.+.f f f :.+.f *.=.d d d *.,.d d d *.*.p ( 2.p ( 2.p p p *.>.i p >.o.i p i i i i i y i i i y y y i y y y y y t y t ",
"1 5 w s R ! Q Q 3.%.Q Q Q Q Q Q Q b } 3.3.3.:.=.3.b b b b b b b c b c c c 3.#.c 2.-.c c c 3.} c k 3.-.k -.=.k k k } 3.} k k k j k j 3.j j j ,.,.j j 2.=.h h h f h 2.=.f f f f -.2.f d +.3.d d =.*.d d d ) 3.) d p 3.*.p ( 2.p ( 2.p i i *.>.i i 2.T i i i i p r i i y y y y y y r y i r y y t r t ",
"< 3 w s R W Q Q 3.%.Q Q Q b Q b Q b } 3.O.&.3.3.3.b b b b b c b #.3.3.3.3.#.c c @.3.3.#.k -.3.2.3.@.=.k =.-.k k k k :.3.3.j j j j j 3.j j j j 3.@.h h 2.3.3.3.+.f f 3.3.3.,.d d *.3.3.3.) d d *.*.d d d p o.3.3.3.o.*.p ( 2.p ( 2.i p i *.>.i i X.3.3.3.3.T i y y y y y r r i y y y y r t r t t t ",
"< 3 w s R W Q Q 3.<.&.&.&.&.&.&.&.&.-.3. .b } 1.<.b c c c c c c c c c c c c k c c c k k k k k k k k k k k k k k j j k j j j j j j j h j h f h h f f f f f f f f f d f d d f d d d d d d d p d p p p p d p p p p p p p p p i i i i i i i i i y *.>.i r i X.,.i r y y y y i y r y r y r r t r t r t ",
"< 2 w s z W Q Q &.3.3.3.3.3.3.3.3.3.3.,.Q b c b b c c c c c c c c k c c k k k k k k k k k k k j k k k k j j j j j j j j j h h j h h h f f f f f f f f f f f f d d d d d d d d d d d d d d p d p p p p p p p i i p i i p i i i i i i i i i y i >.X.y y y >.,.r y y y t t y r t t t r t t r t t t t ",
"< 2 q a z v b b b b b b b b b c b b c b b c c c c c c c c c c k k k k k k k k k k k k k j k j j j j j j j j j j j j h j h h h f f f f f f f f f f f d d d d d d d d d d d d d p p p p p p p p p p p i p p i i p i i i i i i i i i i y i i y y i 3.3.3.3.>.r y y t t r y r y r t t t t t t = r r 0 ",
"< 2 q a z v b b b b b b b b b c c c c c c c c c c k c c k c k k k k k k k k k j k k k k j j j j j j j j h h h h h h h f f f f f f f f f d f d f d d d d d d d d d d d d d p p p p p p p p i p i p i i p i i i i i i i i i i i y r i i y r r i y y y y y y y r r t t r t t t r r r r r r = r = = 0 ",
"O , q a z v b b b c b c c c c c c c c c c k c c k c k c k k k k k k k k k k j k j j j j j j j j j h h h h h h f h f f f f f d f f f d f d d d d d d d d p d p d d p p p p p p p p p i p i p i i i i i i i i i i y i y y y y y y i r r i y y r y t t r t r r y r r t t t t r r r r r r = = = = 0 0 ",
"< , 8 a l v v b c b c c c c c c k c c k k k k k k k k k k k k k k k k j k j j j j j j j h h h h h h h f f f f f f f f f f d d f d d d d d d d d p d d p p p p p p p p p p i p p i p i i i i i i i i i i y i i y y y y y y y y y y y y t t y t t t t r t t t t t t 0 r r r = = = = = = = = = = = 0 ",
"O , 8 a l x c c c c c c c c c c c c k k k k k k k k k k k k j k j j j j j j h h h h h h h h f f h f f f f f f f d f d d d d d d d d d p d p p d p p p p p p p p i p i i i i i i i i i i i i i i i r y i y y i r y y y y r y y y t t t t t t r t t t t t t = = = = = r = = = = = = = = = * = * * 9 ",
"O , 8 u l x c c c c c c c c k c k k k k k k k j k k k j j j j j j j j j h h h h h f f f f f f f f f d f f d d d d d d d d d d d d d p d p p p p p p p p p p i p p i i i i i i i i i i y i y y i i y y i y y r i y t y t y r y r r t t r t r t t r r r t r 0 = r = = = = 0 = = = * = = * * = * * 9 ",
"O , 8 u l x c c c k c k k k k k k k k k k k j j k j j j j j j j j h h h h h h f f f f f f f f f d f d d d d d d d d p d d p p p p p p p p p p p i p i i i i i i i i i i i i y i y y i y y y y y r i y r r y r y t t t r r t r t t r t t r r r r = = = = = = = = = = = = = = * * * * * * * * * * 9 ",
"O ; 7 u p x c k k k k k k k k k k k k k j j j j j j j j j j h h f f h f f f f f f f f f d f d d d d d d d d p d g p p d p p p p p i p i p i p i i i i i i i i i i y i y i y y y y r i r i y r y y t y r y r r y t t t t = t t t r = r = = = = = = = = = = = = * = * = * * = * * * * * * * * * * 7 "
};
