/* XPM */
static const char *recorderSetupStartMouseOver_xpm[] = {
/* columns rows colors chars-per-pixel */
"145 29 182 2 ",
"   c #FF2B2B",
".  c #FF2C2C",
"X  c #FF2D2D",
"o  c #FF3030",
"O  c #FF3232",
"+  c #FF3333",
"@  c #FE3434",
"#  c #FF3434",
"$  c #FE3535",
"%  c #FF3535",
"&  c #FE3636",
"*  c #FE3737",
"=  c #FF3737",
"-  c #FF3838",
";  c #FF3939",
":  c #FF3B3B",
">  c #FF3C3C",
",  c #FF3E3E",
"<  c #FF4040",
"1  c #FF4141",
"2  c #FF4242",
"3  c #FF4343",
"4  c #FF4444",
"5  c #FF4646",
"6  c #FF4747",
"7  c #FE4848",
"8  c #FF4848",
"9  c #FF4949",
"0  c #FE4A4A",
"q  c #FF4A4A",
"w  c #FF4B4B",
"e  c #FF4C4C",
"r  c #FE4E4E",
"t  c #FF4E4E",
"y  c #FF4F4F",
"u  c #FE5050",
"i  c #FF5050",
"p  c #FF5151",
"a  c #FF5252",
"s  c #FF5353",
"d  c #FE5454",
"f  c #FE5555",
"g  c #FF5555",
"h  c #FF5757",
"j  c #FF5858",
"k  c #FE5959",
"l  c #FF5959",
"z  c #FE5A5A",
"x  c #FF5A5A",
"c  c #FF5B5B",
"v  c #FE5C5C",
"b  c #FF5C5C",
"n  c #FF5D5D",
"m  c #FF5E5E",
"M  c #FE5F5F",
"N  c #FE6060",
"B  c #FF6060",
"V  c #FF6161",
"C  c #FF6262",
"Z  c #FF6363",
"A  c #FE6464",
"S  c #FF6464",
"D  c #FF6565",
"F  c #FF6666",
"G  c #FE6767",
"H  c #FF6767",
"J  c #FE6868",
"K  c #FF6868",
"L  c #FF6969",
"P  c #FE6A6A",
"I  c #FF6A6A",
"U  c #FF6B6B",
"Y  c #FF6C6C",
"T  c #FE6D6D",
"R  c #FF6D6D",
"E  c #FE6E6E",
"W  c #FF6E6E",
"Q  c #FF6F6F",
"!  c #FE7070",
"~  c #FF7070",
"^  c #FE7171",
"/  c #FF7171",
"(  c #FF7272",
")  c #FE7373",
"_  c #FF7373",
"`  c #FF7474",
"'  c #FF7575",
"]  c #FF7676",
"[  c #FF7777",
"{  c #FE7878",
"}  c #FF7878",
"|  c #FE7979",
" . c #FF7979",
".. c #FF7A7A",
"X. c #FE7B7B",
"o. c #FF7B7B",
"O. c #FF7C7C",
"+. c #FE7D7D",
"@. c #FF7D7D",
"#. c #FF7E7E",
"$. c #FF7F7F",
"%. c #FE8080",
"&. c #FF8080",
"*. c #FE8181",
"=. c #FF8181",
"-. c #FF8282",
";. c #FE8383",
":. c #FF8383",
">. c #FF8484",
",. c #FE8585",
"<. c #FF8585",
"1. c #FF8686",
"2. c #FF8B8B",
"3. c #FF8E8E",
"4. c #FF8F8F",
"5. c #FF9191",
"6. c #FF9292",
"7. c #FF9494",
"8. c #FF9595",
"9. c #FF9797",
"0. c #FF9898",
"q. c #FF9A9A",
"w. c #FF9B9B",
"e. c #FF9C9C",
"r. c #FF9D9D",
"t. c #FF9E9E",
"y. c #FFA0A0",
"u. c #FFA1A1",
"i. c #FFA2A2",
"p. c #FFA3A3",
"a. c #FFA5A5",
"s. c #FFA8A8",
"d. c #FFA9A9",
"f. c #FFAAAA",
"g. c #FFACAC",
"h. c #FFADAD",
"j. c #FFAEAE",
"k. c #FFAFAF",
"l. c #FFB1B1",
"z. c #FFB2B2",
"x. c #FFB3B3",
"c. c #FFB4B4",
"v. c #FFB5B5",
"b. c #FFB8B8",
"n. c #FFB9B9",
"m. c #FFBABA",
"M. c #FFBBBB",
"N. c #FFBCBC",
"B. c #FFBDBD",
"V. c #FFBEBE",
"C. c #FFBFBF",
"Z. c #FFC0C0",
"A. c #FFC1C1",
"S. c #FFC2C2",
"D. c #FFC3C3",
"F. c #FFC5C5",
"G. c #FFC7C7",
"H. c #FFCBCB",
"J. c #FFD0D0",
"K. c #FFD2D2",
"L. c #FFD5D5",
"P. c #FFD6D6",
"I. c #FFD7D7",
"U. c #FFD8D8",
"Y. c #FFD9D9",
"T. c #FFDADA",
"R. c #FFDBDB",
"E. c #FFDDDD",
"W. c #FFDEDE",
"Q. c #FFE0E0",
"!. c #FFE1E1",
"~. c #FFE4E4",
"^. c #FFE5E5",
"/. c #FFEAEA",
"(. c #FFF1F1",
"). c #FFF2F2",
"_. c #FFF3F3",
"`. c #FFF4F4",
"'. c #FFF5F5",
"]. c #FFFBFB",
"[. c #FFFEFE",
"{. c white",
/* pixels */
",.:.:.-.-.-.=.=.&.&.&.&.&.@.O.O.O.O.o... . .} } [ [ [ ] ] ] _ _ _ _ ( / / / / ~ Q W R Y U Y I K K K K H F D S Z Z C B B m m m b c l l l j h s s a p y y t e w 8 8 8 6 5 4 4 3 3 2 1 1 , , , : > ; ; ; - = = = = % % # + + + + O O o o o X X . . . . . X . . X X X X . . X X o o o o o o o O O + $ ",
";.-.=.=.&.&.&.$.@.@.$.$.O.O.o... .} } } } [ ] ] ] ' ' ' ' _ / / / / / Q W W R R R U U I I K K F F D D Z Z Z C B B m m m b c c x j h h h g s a p p y t e w w 8 8 5 5 4 4 4 2 2 1 , , , > : ; ; ; - = = = % % % # + + + + O O o o o X X . . . . . . . . . . X X X X X . X X X X X X X X o o O o O @ ",
"*.&.$.$.$.@.@.O.O.O.o.o. .}  .} } } [ ] ' ' ' ' _ _ / / / / ~ Q Q W R R R R Y I I I I K D D S S S Z C B C V B m m b b c x l j j g g s a a p y y t t t w w 6 5 4 4 3 3 2 1 , , , > : : ; ; - - = = = = % # + + + + O O o o o X X . .   . . . .   . . . . . X . . X . . X . X X X X X o o o o O O $ ",
"%.$.@.O.O.o......... .} } [ [ ' ' ' ' _ ( / / / / / ~ ~ Q R R R R Y Y I I U I K K F D D D S C C C B C B m m n n c x x l l j g s a a p y y y t e w q 8 6 5 4 3 4 3 2 1 1 , > > > : ; ; ; - - = = % # + + + + + + o o o X X . .       . .     . . . . . . . . X X X X . . X X X X o o X o o o O O $ ",
"+.O... ... .}  .} } } [ [ ' _ ( ( ( ( / / ~ ~ Q Q R R R Y Y U U U U I K H F D D D S Z Z C C B C m m n b c x x c l l j h g g s p p p p t t e w q 8 8 6 5 4 3 2 2 1 < , > > > : ; ; - = = = % % # # + + O + o o o X X X .       . .       . . . .     . . . . X . X . . X X X X X X X X o o O o O @ ",
"X...}  . .[ ] [ [ ' ' _ ( ( ( / / ~ ~ Q R R R R Y I U U U U K K H H F F S S Z Z Z Z C B m m m n n c c c x l j h g g g s a a p i t t t t w w 8 8 5 5 4 3 3 2 1 1 1 > > : : ; ; - - = % % # # + + + + O o o X X . .       . .             .       . . . . . . . X X . X X X X X o o o o o X o o O @ ",
"| [ [ [ [ ' ' _ ( ( ( ( / / Q W W R R Y Y Y I U U U K K H F F F S Z Z Z Z Z C C V B m m m b b c c x l j h h g s s a s p p y t t t e w w 8 8 5 5 5 3 3 2 1 1 , > > : ; ; ; ; = % % % + + + + O o X o X X . .   .   . .           . . .       . . . . . . . . . X . X X . X X X o o o o o o o O O $ ",
"{ ] ' _ ( ( ( ( ~ ~ ~ W Q W R R Y I U U U U K H H F F F D S S Z Z Z Z V V B B m m b b b c c x j j j h g s s s a p y y y t t e e w w 8 6 5 5 5 4 3 3 2 < , > > > : ; ; = % % # # + + + + O o o o X X X . . . . .           .             . . .     . . . . X . . . . . X X X o X X o X o o O O O @ ",
") ( ( ~ ~ ~ Q Q Q Q R R U U U U U I K H F F F D D S S S Z Z Z V B B B m b b b b c b c l l j j g g g s a p p i p t t t t e w q 8 6 6 5 4 4 4 3 2 1 1 < > > : ; - - = % % % # # + + o o X X X X X . . . .         .   . .             . .       . . . . . . . . X . . X X . X X X o o o o o o o O @ ",
"^ ~ Q Q Q Q W R B.{.{.{.{.{.{.{.{.{.{.W.U S S Z Z Z V B B B m m n n b n b c l l l j h h h h g s a p p p y y t t e e w q 8 6 6 6 5 5 4 3 2 2 1 < , > > : ; - - = % % % # + + O O o o X X X X . . . . . . . . . . . n.b.          .       . . . .     . . . . . . . . . . X X X o o o o o o o O O $ ",
"! Q W W R U U U {.!.B.N.N.N.N.N.N.N.H.{.5.Z 2./.^.B B m n n n b c s.{.{.{.{.<.j G.a.h g s a a p i i y y t e w w q 8 _.6 6 5 5 4 3 3 {.{.{.{.).> > : - - - % % % % + + + O O o X X X X X X . . . . . . . .         b.b.  3.{.          . .     . . . . . . . . . . . . X X X o X o o o o o O O O @ ",
"E U U U U U I K {.x.D D S S S S Z C &.{.w.C.{.{.{.n n n b c x x 1.{.<.j j j h s E.p.a p p p i y t t e e e w q 8 8 6 {.5 4 4 3 3 2 1 {.< > > U.U.; - - = % % # + + + O o o o X o o X X X X . X . . . .           . n.b.      .   . . . .   . . . . . . . . . . X . . X X . X X o o o o O o O O O $ ",
"T U I K K K F D {.z.S S Z Z C V V B O.{.].{.K.Z.{.c x x x l j j <.`.h g s s s _.{.{.{.i.y @.{.{.{._.w q D.r._.{.e.{.{.{.{.2 2 1 < > {.> : : 8.).- = % {.{.{.M.+ O o {.{.{.P.X X L.{.{.{.D X . n.3.(.{.3.. 3.{.{.{.n.b.  S (.. S L.L.{.{.(.. . . n.{.{.{.{.(.X X . X . . X X X o o O o o o O O + $ ",
"P K F D D D S S {.l.V V V m m n n n o.{.'.0.x h.{.l j j j j h g s `.E.a a p p y _.u.t t e e o.q q _.S.5 A.{.w.4 4 ' {.2 1 < , > > > {.: ; - I.I.% % (.M.+ O {.L O (.m.X X o X m.(.X X 3.{.. . n.{.3..   S {.S .   {.n.  S (.. S {.3.. . (.n.. S {.. . S (.. . . . . . X X o o X X o o O O O O O $ ",
"J S S S S Z C V {.k.m n n n n b b x  .{.6.j j g.{.j h g s s s a a p F.{.{.#.t t _.y.e w w q 8 5 5 A.A.5 A.T.3 3 2 ` {., , , > : ; ; {.{.{.{.N.% # L {.+ + + M.M.H {.o o o X o (.4.X X X L.4.X n.L.. . . n.L.. . . L.n.. S (.. S {.. . . n.L.. S {.. . S {.. . . . . X X . X X X o o o o o O O O $ ",
"G S Z Z C C m n {.j.n b c c x x l j [ {.5.h h f.{.s s a a p p i y y t t O.{.y.w _.t.8 6 6 5 {.{.{.{.A.3 Z.Z.1 < < / {.> : : ; - - - {.% % I.N.# # 6.{.{.{.{.{.P.6.(.o X X o o {.D X X X L.n.. n.n.. . . L.n.. . . n.n.. S (.. S (.. . . n.L.. . n.{.{.{.3.X . . . . X X X X X o o o o o O O O + $ ",
"A C V V m n n b {.h.x x l j j j j h [ {._.7.s d.{.p p i y t t t e e e e w R.S.6 _.r.6 6 5 {.w.3 2 Z.Z.1 Z.C., > : ~ {.: ; - - - % % {.% % U {.# # L (.+ + + + o H {.o o o o o (.4.X X X L.4.X n.n.. . . n.L.. . . n.n.. S (.. S (.. . . n.L.. . L.3.. X . X . . X X X X X X X X X o o O O O + + $ ",
"N n n n c b x x {.g.j j j h h g s s _ {.].{.J.N.{.t t t e e e e w w q 8 6 {.r.5 _.A.4 3 3 {.` 1 1 {.C., V.V.: : ; W {.R = = = = = = {.% % % I.I.+ + (.M.O O O O O (.m.o o o o m.(.X X 4.{.. . n.n.. . . S {.S . . {.n.. S (.. S (.. . . n.L.. X (.D X X X X X X X X X X X X X X o o O O O O O + $ ",
"M n b x x l j j {.g.h g s s a a a p ( {.4.v.{.{.{.e e e e w q 8 r.{.{.{.{.e.4 4 w.{.{.q.1 Z.{.{.{.9.V.: V.V.; - - - I.{.{.- = % % % {.% % % % {.6.+ + (.{.{.{.5.o o {.{.{.P.o o m.{.{.{.D X . n.n.. . . . 3.{.{.{.3.n.. S (.. S (.. X X n.L.. . 4.{.{.{.{.D X X X X X X X o o o o O O O O + + + $ ",
"v l l j j j h g {.!.c.c.c.x.x.x.x.z.D.{.>.t } ~.Q.w 8 8 8 6 6 6 5 5 4 4 3 3 2 2 1 1 1 < , > > : : ; ; - - - ; - ; - = = = = = = = = % % % % % # + + + + + O O O O O o o o o o o X X X X . . . . . . . . . . . . . . . . . . X X X . . . . . X n.L.X X X 4.L.. X X X o o o o o o o O O O + + + + $ ",
"z j j h g s s a l.[.{.{.{.{.{.{.{.{.{.Y.h w q 9 9 6 6 6 5 5 4 4 3 3 2 2 2 2 1 1 , > , > > : : ; - ; - ; - - - - - - - - - = % % % % % % = % # # + + + + + + + O o o o o o o o o o X X X X X . . . . . . . X . X X X X X X . . . . . . . X X X L.3.X X X L.P.X X X o o X X o o o O O O + + + + + $ ",
"k g s s a a p p i y t t t t e e e w q 8 8 6 6 5 5 4 4 4 3 3 2 2 2 2 2 , , , > > > : : ; ; ; ; ; ; ; ; ; ; ; ; ; ; ; - = = = = = = = = % % % # # + + + + + O O O O O O O o o o X X X X X X X X X X X X X X X X X X . . . . . . . X X X . . . X X {.{.{.{.P.X X X X X X o o o O O O O O O + + + + & ",
"f a a p p i y t t t t e e w q 8 8 6 6 5 5 5 4 4 3 3 2 2 2 2 1 , , , , > > : : ; ; ; : : ; ; ; ; ; ; ; ; ; - - - - - - - - - = = = = = = = % # # + + + + + + + O O O O O o o o o o o o X X X X X X X X X X X X . . . . X X X X . . . . . X X X X . X X X X . X X X X o o o O o O O O O + + + # # & ",
"d a i y t t t t e e w q 8 8 6 6 6 5 4 4 3 3 2 2 2 2 2 1 , , > > > : : ; ; ; : : ; ; ; ; ; ; ; ; ; ; ; ; ; ; ; ; ; ; - - - - - = = = = = % % # # # # # # + O O O O O O O O O O X X X X X X X X X X X X X X X X X X X X . . . . . . X X X . . . . X X X X X o X X X o X X o o O O O O + + + + + # & ",
"u t t t e e e w q 8 8 6 6 5 5 5 4 3 3 2 2 2 2 1 , , , > > : : : : : : : ; ; ; ; ; : ; : ; ; ; ; ; ; ; ; ; ; - - - - - - - - = = = = = = = = # # # + + + + + + O O O O O o o o o o o o o X X X X X X X X X X . . . . . . . X X X X . . . X X X X X X X o o X X X X X X o O O O O + O O + + # # # & ",
"u t e w q 8 8 6 6 5 5 5 4 3 3 2 2 2 2 1 , , , > > : : ; : : : : ; ; ; ; : : : : ; ; ; ; ; ; ; ; ; ; ; ; ; ; ; ; ; ; - - - - - - - - = = % % # # # # # # # + O O O O O O O O O o X o X o o o o o o o X X X X X X X X X X . . . . . X X X X X X X X X X X X X X X o o O O O O O O O + + + # # # # * ",
"r w 8 8 8 6 5 5 4 4 3 3 2 2 2 2 , , , > > : : : : : : : ; ; ; ; : : : : ; ; ; ; ; ; ; : : ; ; ; ; ; ; ; ; ; ; - ; - ; - - - = = = = = = = % % % % # # + + + + + + + + O O O o o o o o o o X X X X X X X X X X . . . X . . X X X X X X X X X X X X X o o o o o o O o o o O O O + + + # # # # % % * ",
"0 6 6 5 5 5 4 3 3 2 2 2 1 , , , > > : : : : : : : ; ; : : : : : : ; ; ; ; : : : : ; ; ; ; : ; : : ; ; ; ; ; ; ; ; ; - - - - - - - - - = = % % % % # # # # + + + + + O O O O O O o o o o o o o o o o o X X X X X X X X X X X X X X X X X X o o o o o o o X X o o o O O O O O + + + # # # # # # % * ",
"7 5 5 4 3 2 2 2 2 1 , , , > > : : : : : : : ; ; : : : : : ; ; ; : : : : : ; ; : : : : : : ; ; ; ; ; ; ; : ; ; - ; ; ; - ; ; - - - - - = % % % % % % # # # # # # + + + O o O o O o o O O O o X X X X X X X X X X X X X X X X o o o o o o o o o o o o o X o o o o O O O O + + + # + + # # # % % % * "
};
