/* XPM */
static char *recorderSetupSaveNormal_xpm[] = {
/* columns rows colors chars-per-pixel */
"131 29 63 1 ",
"  c #0A7733",
". c #0A7C35",
"X c #0A8137",
"o c #0B8539",
"O c #0B8C3B",
"+ c #0C933E",
"@ c #0C9640",
"# c #0C9B42",
"$ c #0DA145",
"% c #10A347",
"& c #14A54A",
"* c #19A74E",
"= c #1BA750",
"- c #1DA952",
"; c #23AA56",
": c #27AC59",
"> c #2BAD5C",
", c #30AF60",
"< c #34B163",
"1 c #39B367",
"2 c #3DB46A",
"3 c #4CAA6F",
"4 c #42B66E",
"5 c #4DAD71",
"6 c #45B770",
"7 c #4DB474",
"8 c #46B871",
"9 c #4BBA74",
"0 c #53BD7B",
"q c #59BF7F",
"w c #5BC081",
"e c #61C285",
"r c #66C489",
"t c #6DC78E",
"y c #6FC790",
"u c #7DC196",
"i c #70C891",
"p c #7DC598",
"a c #7ECB9B",
"s c #81CF9E",
"d c #83CFA0",
"f c #84D0A1",
"g c #8AD2A5",
"h c #8DD3A8",
"j c #9DD9B4",
"k c #A1DBB7",
"l c #A3DCB8",
"z c #AEDBBF",
"x c #AEDEC0",
"c c #AFE0C1",
"v c #B3E2C4",
"b c #BBE5CB",
"n c #C1E7CF",
"m c #C2E7D0",
"M c #CBEBD7",
"N c #CEEBD9",
"B c #D1EDDC",
"V c #DAF1E2",
"C c #E6F6EC",
"Z c #EFF7F2",
"A c #EFF9F2",
"S c #F2FAF5",
"D c #FFFFFF",
/* pixels */
"999989898888888664644644426424222222122121111111<<<<<<<,<,<,,,,,>>>>>>>>::::::;:;;;;-----=-=*****&&*&&&&&&$$%$$$$$$$$##$#######+##+",
"989888888888684646444444242222222222211111111<<<1<<<<<<,,,,,,>>,>>>>:>::::;;:;;;;;--;-==-==****&&&&&&%%%$$$$$$$$$#$+#$######+#+#+#+",
"88888864644664642642422222222222121111111<<1<<<<<<,,,,,>,>,>>>>>>>:::::::;;;;;------===*****&*&&&&%%%%%%$$$$$$$##$$###+$##+####++++",
"8884464664442424442242222222221221111<<1<<<<<<,,,,,,,>,>>>>>>:::::::::;;;;;;-;---====***&&*&&&&%%&%%%$$$$$#$$$#$$#$+$+$#+##+++#++++",
"4644444442442222222222222111<211<<<1<<<<<,,,,,,,,,>>>>>>>>>>:>>;:;;;;;;--;-;*--*=*****&*&&&&%&%%$$$$$$$$$$$$####+$#+$+$++$#++#+++++",
"6444444242222222222212121111<<<<<<<<<<,<,,,,,,,>>>>>>>>>:>;;;;;;;;;;;-;-;-********&&&&&&&&%%%%$$$$$$$$$$########$+##+#+++++++++++++",
"4244422222212222212<11<<<<<<<<<<<<,<>,<,,,>,>>>>>>>::>;;:;;;;;;;;-;----=*******&&&&&&&&$%%%$$$$$$$$$$#$#########+#+###+$+#++++++O++",
"42222222222jDDDDDDDDDDb41<<<<<<<,,,<>,>>,>>>:>:>::>:;;>;;;;;;;;----*==******&&*&&&&&&$&$%$$$$$$$$$#$#$#########@#+#+++++++++++++++O",
"22222121211DAmSDnnnnDDDM2<<,,,,,,,>>>,>>>>>>;>:>:;:;:;;;;;;----======*&&&&&*&&&%&&%$$%$$$$$$$$$#+$######@#@##@@@#++++++++++O++OOOOO",
"2222211111<Dm1VC<<<<SBvDM<,<>,>>>>>>hDDDDe;:::;;;;;;-;------=====***NDDDS&&%&%%%$$ca$$$9N$$$NB##$########@@@@@@@++++++++++++O++OOOO",
"121111111<1Db<VC<<<,SN,vDb,>>>,>>>>eDe>:;:::;;;;;;;;-;--===*===&*&&vA&&&%&%%$$%%$$Na$$$aN######@$++$#@#@#@@@@++++++++++++O+O+OOOOOO",
"11<1<1<<<<<Db<VDNMMMDM><VD>>>>>:>;>eS:;;;;;vDDDv;vB*==vB==BDDS&&&&&vc&&&%%%%DDDc$ADDDaxDDDB#xx@xaDDDx@@@ZDDDDz@DDDD4+OO++OOOOOOOOOO",
"1<1<<<<<<<<Db<vSSSSSSk>>bD>>>:::>;;:SB;;;;;q--wDqqD==*Af*cA&&Bv&&&&0Da$$$$$Ac$#D9#Sa###xN###xx@xD++8D7@zM@+xz+Np++O++OOOOOOOOOOoOoO",
"<<<<<<,<<>,Dn>>,>0i9>>>>bD::::;:;;;;;vDDw---=--S0*Bf*0A**As&&0A&%$$$$ADA$$9D$$#cx#Aa###xN###xx@xM+#+Ap+zN++zNOxA+O+OOO+OOOOOOOoOoOo",
"<<<,,,,,,<>Db,>>jDDDj>:>bD;;:;;;;;;-;--qDf-fDDDD0*fB&vc&&DDDDDD$$$$$$$$vD#aDDDDDN#Ap###xN#@@xz@zc+++Ap++ZDDDO+O5DD3OOOOOOOOooOOoOoo",
"<,,,,,,>>>>Db>>wDVsVDq;:bD;;;;;--------=BvfD**&A0&&D&A0$$A9&$$$$$$$$$$##D97A######Aa@#@zN@@@xxOxz++#Zp++DOO++OOOOOD3OoOOOoOOoOooooo",
",,,>>>>>>>>Db::gDr:rDg;;bD;;-----*-**-&=DffA&&fD0&&McA$$$cA$$$$$$$$$###aD##Cc###@#Az@#+zC@@@xx@xz+++Ap+5Z+OOOOOOOOZ3OOoOoooOooOoooo",
">>>>>>>::>:Db::yDv8vDt-;bD---=-=***fDDDDf&&ADDNN0%$9Da$$$$cDDDM$#$$MDDDD####ADDDp@aDDp++DDM@zxOxzO+OAuOOMDDDZOMDDDzOoOOoOooooXoXoXX",
">>>>>>:>:::Db:::NDDDN;--bD-*==**&**&&&&&&&&%%&$$$$$$$$$$$$$######$$$###+#++##@@@@#++++#+++++O@O@O+O+OOOAuOOONuOoOoooOoooooooooXoXoX",
">>>:>::::;:Db;-=:ala;---vD**&=&&*&&&&&&%$&$$$$$$$$$$$$$####$#####++++####+##@@@+++++++++++O+OO@oOOO+OOODOOOoDuOooOooooooXoooXoXXoXX",
"::::;:;;;;;DAbbbbbbbvbbvAD*&*&&&&&%&$$$$$%$$$$$#$$$####$########+##+##+++#++++++++++++O++O+OOOOOOOOOOOOuDDDDuOoOoooooooooXoXXXXXXX.",
":::;;;;;;--gDDDDDDDDDDDDSf&&&&&&%$$%$$$$$$$$#$$$$#############+###+#+@#+++++++++++O+O++OOOOOOOOOOOOOOoooooOooooooooooXoXXXXXXXXXXX.",
";;;;;;;-----==***=**&&&&&&&&&&$$$$$$$$$$$$#$#$$############+#++++#++++++++++++O+OO+O+OOOOOOOOOOOoOOooOoOooooooXXoooXXXXXXXXX.X..X..",
";;-----=--=*****&&&&&&&&%&$$$$$$$$$$$$$$#$$###+$######+##++##+#+++#++++++++O+++O+OOOOOOOOOoOOOoOOOooOoooooXooXoXXXXXXXXXXXX.X.X....",
"----====****&*&&&&&&%&$$$$$$$$$#$#$$$###########+##+#++#++++++++++++++++O++OOOOOOOOOOOOOoOoOOoooooooooooXooXoXXXXXXXX.X............",
"--====****&&&&&&&%%$%$$$$$$$$$$$$#####$######+###+##+##+++++#+++++O+O+OOOOOOOOOOOOOOoOoOOooooooOoXoooXoXXXXXXXXXXX.X.X...........  ",
"-=****&*&&&&&%%%%%$$$$$$$$$$$$+$#######+#@#+#+#++#+++++++++++O++O+O+OOOOOOOOOooOoOooOoOoooooooXoooXoXXXXXXXXX.XX..X..X........ ... ",
"=*&*&&&&&&&%%%%%$$$$$$$$$$##+########+###@#+#+++++++++++++++++OOOOOOOOOOOOOOOoOOOoOooooooooooXooXXXXXXXXX.X.XX...... . ..... .     ",
"*&*&&&&%$%%$$$$$$$$$$$$#+$#$$+$+#+#@##+#+@++++++++++++O++OOOOOO+OOOOOOOoOoOoooOooooooXooXoXoXXXXXXXXX.X..X..X......  .. ..    .    "
};
