/* XPM */
static char *recorderSetupSaveMouseOver_xpm[] = {
/* columns rows colors chars-per-pixel */
"131 29 121 2 ",
"   c #0A7D35",
".  c #0A8237",
"X  c #0A8539",
"o  c #0B8C3B",
"O  c #0B933E",
"+  c #0B983F",
"@  c #0C9740",
"#  c #0C9C42",
"$  c #0CA445",
"%  c #0CA947",
"&  c #0CAD49",
"*  c #11AF4D",
"=  c #0CB34B",
"-  c #0CBB4E",
";  c #11B34E",
":  c #0DBE50",
">  c #15B651",
",  c #14BB53",
"<  c #19BC56",
"1  c #1BBE59",
"2  c #4CAE71",
"3  c #4CB373",
"4  c #4DBD77",
"5  c #0DC14F",
"6  c #0DC451",
"7  c #0DCB54",
"8  c #13C455",
"9  c #12CA57",
"0  c #16C658",
"q  c #1BC45B",
"w  c #15CC59",
"e  c #1BCB5D",
"r  c #0ED057",
"t  c #0ED258",
"y  c #14D35C",
"u  c #19D25E",
"i  c #21C65F",
"p  c #1ECE60",
"a  c #1CD562",
"s  c #1DD964",
"d  c #22C760",
"f  c #23CC63",
"g  c #28CE66",
"h  c #2BCE69",
"j  c #23D365",
"k  c #28D167",
"l  c #21DA67",
"z  c #27D568",
"x  c #2BD46B",
"c  c #25DC6A",
"v  c #2ADC6D",
"b  c #31D46E",
"n  c #2EDE71",
"m  c #35D671",
"M  c #3BD675",
"N  c #33DC72",
"B  c #3ADA76",
"V  c #3EDC79",
"C  c #2AE16F",
"Z  c #2DE172",
"A  c #33E375",
"S  c #37E578",
"D  c #3CE57B",
"F  c #3DE87D",
"G  c #4ECD7D",
"H  c #40D77A",
"J  c #4ED17F",
"K  c #44DC7D",
"L  c #49DB7F",
"P  c #42E37E",
"I  c #47DF80",
"U  c #4BDD81",
"Y  c #50D783",
"T  c #52DE86",
"R  c #54DF89",
"E  c #7DC598",
"W  c #7DCB9A",
"Q  c #7DD49E",
"!  c #45E481",
"~  c #4AE182",
"^  c #42E881",
"/  c #56E18A",
"(  c #5AE48E",
")  c #66E395",
"_  c #61E893",
"`  c #6EE59A",
"'  c #70E79D",
"]  c #7DD7A0",
"[  c #7EDBA1",
"{  c #7EE6A6",
"}  c #AEDCBF",
"|  c #81E4A6",
" . c #80E8A7",
".. c #8CE7AE",
"X. c #84EAAA",
"o. c #89EAAD",
"O. c #8DEFB3",
"+. c #9DEEBC",
"@. c #A1EDBE",
"#. c #AEDFC0",
"$. c #AEE2C2",
"%. c #AEEAC5",
"&. c #B0EDC7",
"*. c #B1EFC8",
"=. c #A3F0C0",
"-. c #B4F2CB",
";. c #B9F1CE",
":. c #BDF4D1",
">. c #CEEDDA",
",. c #C1F5D5",
"<. c #CEF5DC",
"1. c #CDF8DD",
"2. c #D0F6DF",
"3. c #D1F7E0",
"4. c #D3F8E1",
"5. c #DAF9E5",
"6. c #E7FBEE",
"7. c #EFFAF3",
"8. c #F2FDF6",
"9. c #F4FDF8",
"0. c #FFFFFF",
/* pixels */
"U U U U U U ~ ~ ~ ~ ~ ~ ~ ! ! ! ! ! ! ^ ! ^ ! ^ ^ ^ ! ^ ^ ^ ^ F F F F F F F F F F F F S F S S S S S S S B S N N N N N N n N N v x N x x k x k x h g g g g d g d d d d i i 1 i 1 i 1 1 1 1 < < < < > > > > > ; > > * & * * % * % % * $ $ # $ $ $ $ $ $ $ # # # # # # # ",
"U U U U U U I U ~ ~ P ~ ~ P ~ ~ ~ ! ! ! ! ! ! ^ ^ ! F ! ^ ^ F F F F F F F F S F S F S S S S S S S S A A Z A A Z n N n n n v v x x x x x k z k k g g f g d f f d i i i i i i 1 q 1 1 1 1 < < > > > > > ; ; ; ; * * ; & & & % % % % % * $ * $ $ $ $ $ $ # $ # # # # # # ",
"L L L K I U I K K ~ ! ~ P K ~ P ! ~ ! F ! F P F F F F D F F F F F F S F S F S F S S S S S A A S A S Z A N n n n N n x v x v x v z x z x z z g z f f f f f d p d i e i i 1 i 1 1 1 1 > < , > ; , > > ; ; ; ; * * & & % * & * $ $ % % $ % * # $ $ # $ # # # # # # @ # @ ",
"L L L L K K K ~ ! K K K P P P F D D P F P D F D F F D F F F F S F S F S S S S S S S S S S Z A S Z Z Z Z n n n n v v v v v x v z z z z z z f j f j f p p e d e q q q q q 1 8 < < < 8 > > > > , ; ; ; ; ; & ; = & * & % * % % $ * $ $ $ $ $ $ # $ # # # # # # # # @ @ @ ",
"L K L K K K K K K P K P D K P P D K D P D D D D D D S F S D S D S S S S S S S S S Z S Z Z S Z Z Z n n Z Z v n v v v z v z v c z z j j j f j j p p f p e e e q q q 8 8 1 8 < 8 , , , , , ; , ; , = ; = ; & = & & * * % % % % % $ $ $ $ $ $ $ # # # # # # # # # @ @ @ + ",
"H L H K K K K D V K D V K D V D V D D D D D D D D D S D S S S S S A S S A A Z A S Z Z Z Z Z C C Z C C C n v v v v v c z c j z j j j j j a e f p p e e e q q q q q q < 8 < 8 , , , , , , - = ; = = = = & = & * & % % % $ % % $ $ $ $ $ # # # $ # # # # # @ @ @ @ O @ O ",
"H H H H H H V V V D D B D V D V D D D B D D B D S A S S S S A A A S A A Z A Z Z Z Z Z Z Z C C C v C v v v v c l z c c l j j j j j j a p p p e u q e e q q 0 0 0 8 8 8 8 < 8 , , , , = = = - ; = = & ; & & & % & * $ % % $ $ $ $ # $ # $ # # # # # # @ @ @ @ @ @ @ O O ",
"H H V V V V V V B V V +.0.0.0.0.0.0.0.0.0.0.:.F S B A A A S Z A Z A A A Z Z Z Z Z Z Z C Z C C C c v v c v l c c c l j j s j j a a a p p p e e e w e 0 w 0 0 0 8 8 8 , , - , : , - - - = = = = = ; = & & & & % % % % $ $ $ $ $ $ $ # $ # # # # # # @ @ @ @ @ @ @ O O O ",
"V H H V H B H B D B D 9.8.,.9.9.,.,.,.:.0.0.0.1.D A A Z A A Z A Z Z Z Z Z Z C C C C C C c C C C c c c c c l l l z j j s s a p a a a e u w e e 0 w 0 w 0 9 9 8 , , 6 , : : , - = = : = = = = = & & & & & * % % $ % $ $ $ $ $ # $ # $ # # # @ @ @ @ @ @ @ @ o @ @ O o O ",
"M M B B B B B B B B B 0.,.N 5.6.D N A A 8.3.-.0.<.S Z Z Z Z Z n C C C Z O.9.0.0.0.( C C c C s v c c c s l l j s s s s a a a a e e u u e 2.0.0.0.8.9 9 8 8 , 8 8 8 : %.[ - - - G 2.= - = <.>.= = & & % & % % % $ $ $ $ $ $ $ # # # # # # # @ @ @ @ @ O @ O @ O o O O o ",
"M M M B B B B B N B B 0.,.N 5.6.N N n N 8.1.N -.0.:.n Z Z Z Z v C C C _ 0._ C C c C c C C s c s c c s s s s s a a a a p u u u a w w w *.7.w 9 9 8 8 8 8 8 6 - 6 6 : <.] - - - Q >.= = & & & & & & % & % % % $ $ % $ $ $ $ # # # # # @ @ @ @ @ @ @ @ @ O @ o o @ O o o ",
"M m M M m M N m m N m 0.,.N 5.0.<.1.1.1.0.<.n A 5.0.n C v C C C C C C _ 8.C s C C s c -.0.0.0.-.s -.4.s s s -.3.a a <.0.0.8.w w u w w *.*.9 8 8 8 6 6 6 0.0.0.%.- 7.0.0.0.Q %.0.0.0.<.= $.$.& $.Q 0.0.0.$.$ $ $ 7.0.0.0.0.$.# 0.0.0.0.4 @ @ O @ @ @ o @ @ @ o o o o o ",
"m m m M M b m N N N N 0.:.N *.9.8.9.9.9.8.=.v C :.0.C C C v C C C c c C 7.3.c c s l l ( s s ( 0.( ( 0.a a s 7.X.y -.8.u y <.*.w w w 7 Y 0.| 6 6 6 6 6 7.%.: - 0.Y = 7.] = - = $.>.& = & $.$.& $.0.% % 4 0.4 $ #.>.# # #.#.# >.E # @ # @ @ @ O O @ o @ o o @ o o o o o ",
"m m m b m b m b N b b 0.,.x v N v ~ ' ~ v v v v :.0.c v c c c s c c c s C -.0.0.( s s s s a s 8./ s 3.X.y / 7.y u 7.| y y Y 7.9 7 9 7 7 7 8.0.7.6 6 J 0.- - - %.$.- 7.] = = = $.<.& & & $.$.& $.>.$ $ $ 7.| $ #.>.# # #.>.# } 7.@ @ @ O O O O O o @ o @ o o o o o o o ",
"m b b b b b b b b v N 0.;.v v v +.0.0.0.+.v c v :.0.c c c c c s c c l l s s s ( 0.X.s X.0.0.0.0./ s { 1.y *.*.u t 0.0.0.0.0.0.7 9 7 7 6 6 6 6 %.0.6 Q 0.0.0.0.0.<.= 7.] = = = $.>.& & & $.$.$ $.@.% $ $ 7.E @ # 8.0.0.0.# @ @ 3 0.0.2 @ @ o @ o o @ o o o o o o o o o ",
"b b b b b b h b x x x 0.:.x x ( 0.5. .5.0./ c l :.0.l c s c c s s l s s s s s s 1.-.X.0.s a y 7.T y y 0.y 7.~ y r 7.U 9 7 7 7 7 7 6 6 6 6 6 6 6 0.G G 8.- - - = = = 7.] = & & $.>.& & & $.$.$ $.#.# $ # 7.E # # 0.+ @ # @ + + O O + 0.2 O O o @ o o o o o o o o X o X ",
"b b b x b x x k x x x 0.:.x z o.0.) c ) 0.o.l l :.0.s l s s s s s s s s s s s y 0.{ X.7.y y X.0./ y t <.*.6.r r r *.7.7 7 7 7 7 6 6 6 6 6 5 : [ 7.5 - 6.@.= = = = = 7.} % & % @.7.% % % $.$.$ #.$.$ # $ 7.W # 3 7.@ + + O + O O O O 7.2 O O o o o O o o o o o X X X o ",
"h h h k h x k z z k z 0.:.c j ` 0.;.L -.0.` j s ;.0.s s s s s s s s y { 0.9.0.0.{ s y 7.0.9.1.1.U t t ~ 0.{ 7 7 7 7 %.0.0.0.,.6 6 6 6 <.0.0.0.0.- - - = 7.0.0.0.Q = | 9.0.Q % % 0.9.>.$ $.#.$ $.} + $ # 7.W @ @ >.0.0.0.7.O >.0.0.0.} o o O o o o X o o X X o X X X X ",
"h h k k h k g z z z g 0.;.z j z <.0.0.0.<.l s a ;.0.a a a s u u s y y s a y y y y y y y t t r r t t r 7 r 7 7 7 7 7 7 6 6 6 6 6 6 : - - : - - - - - = = = = = = = = % & % % % % % $ $ $ $ $ $ $ $ # # # # @ @ 7.E + O O >.E O O O o o o o o o o o o X X X o X X X X X ",
"h h h g g h g z f g z 0.;.j j j z { +.{ j a a a ;.0.a a y s y y y y y y y y y t y t t t r r r r r r r 7 7 7 7 6 7 6 6 6 6 6 5 5 6 : 6 - - - = - = - = = = & & & & & & % % % % $ $ $ $ $ # # # # $ @ # # @ + + 0.+ O + o 0.E O o o O o o o o o o o o o X X X X X X X . ",
"h h h g f g f g j f j 0.7.;.;.;.;.;.;.;.;.;.-.;.7.0.y u y y y y t t y y t t t t t t r r r r 7 7 7 7 7 6 7 6 7 7 6 6 6 6 5 5 5 5 - - - - - - = = = = = = = % & & & % % % % % $ $ $ $ # # # # # # + + @ # + + O E 0.0.0.0.|   X O o o o o X o o X X X o X X X X . . X . ",
"d d f g f f f a f a f X.0.0.0.0.0.0.0.0.0.0.0.0.9.X.y y y y y y t t t t t t t r t t r r 7 7 7 7 7 7 6 7 7 6 6 5 6 6 6 5 5 5 - - - = - - = = = = = = % = % = % % % % $ $ $ $ $ # $ # $ # # # # # + + @ + O + O O O o O o O O X o o o o o o X X o X X X . X X X . . . . ",
"f d d f f f f p f a e p a e u u e u u u u y w y u y y t t t t t r r r r r r 7 7 t r r 6 7 7 7 7 6 6 7 6 6 6 6 6 6 6 - - - - - - - - - = = = = = % = = % % = % % $ % $ $ $ + $ # # $ # # # # @ @ @ + + + O O O O o O o O o o o o o X o o X X X X X X X X X . . .       ",
"d f d e p p e e e e e e w u e e y w w w w y y w 9 9 t t 9 t t t r 7 r 7 7 r 7 7 7 7 7 7 6 7 6 6 6 6 6 6 5 : - 6 - - - - - - = = - & = = = & & = = % % % % % $ $ $ $ $ $ $ $ $ # # + # + # # + + + O O O O O o O o o o o o o X o o X X X X X X X X X . . . . .         ",
"e p e p e e e q e e w e w u w w w y w y y w 9 t t 7 7 r 7 7 r 7 7 7 7 7 7 7 7 7 7 7 6 7 5 7 5 5 6 6 5 6 - 6 - - - - - - = - = = = = = = & & & & % % % % $ $ $ $ $ $ $ $ $ # # # # # + # + @ O + O O O o O O o o o o o o o X X o X X X X X X . X X   . .   .   .       ",
"i q e q q q e e 0 0 w 0 w w 9 w 9 9 9 7 7 7 7 7 7 7 7 7 7 7 7 7 7 7 7 7 7 6 6 7 6 6 6 6 6 6 5 5 6 : 5 - - - - - - - = = = = = = & & & & & % & % % % $ % $ $ $ $ $ + $ + # # + + # + + + O O O O O o O o o o O o o o X o X o X X X X X X X . . . X . . .   .           ",
"q q q 0 0 0 8 w 0 w w 9 9 9 8 9 7 9 7 7 7 6 7 6 7 7 7 7 7 5 7 7 6 6 7 6 6 6 6 6 5 5 5 5 5 5 - 5 - - - - - - - = = = = = = = & = & & & & % % % % $ $ $ $ $ $ + $ # $ + + @ @ + + + O O + O O O O o o o O o o o o o X o X X X X X X . X . . . . .     .                 ",
"q 0 0 0 0 0 0 8 9 9 8 8 8 7 7 6 7 7 6 7 6 7 7 6 7 7 5 6 7 7 5 5 6 6 6 6 5 5 5 5 5 5 5 5 - 5 - - - - - = = - = = = = = = & & = & % % % & % $ $ $ $ $ $ $ $ + $ $ # # + + + + + O O O O O O O o O O o o o o o o X o X X X X X X . . . . . .                             ",
"8 0 9 8 8 0 8 8 8 8 6 7 6 7 6 6 6 6 6 7 6 7 6 7 6 6 6 6 5 5 5 6 5 5 5 5 5 5 5 - : : - - - - = - - = - = = = = = = & & & & & % % % % % % $ $ $ $ $ $ + $ + $ + + + + + # + + + O O O o O o o o o o o o o X X X X X X X X X . X . . . .                                 "
};
