/* XPM */
static const char *smalllogo_xpm[] = {
/* columns rows colors chars-per-pixel */
"30 30 178 2 ",
"   c #4BAC13",
".  c #4BAC14",
"X  c #4DAD1A",
"o  c #4DAD1B",
"O  c #4EAE1D",
"+  c #4EAE1E",
"@  c #53AE1F",
"#  c #4FAE20",
"$  c #50AF24",
"%  c #51B028",
"&  c #52B02C",
"*  c #52B12D",
"=  c #54B12E",
"-  c #54B132",
";  c #55B235",
":  c #60B232",
">  c #63B335",
",  c #68B43C",
"<  c #58B440",
"1  c #58B441",
"2  c #58B442",
"3  c #5DB752",
"4  c #6BB64B",
"5  c #6CB854",
"6  c #7DBA5A",
"7  c #61BA62",
"8  c #63BB68",
"9  c #65BC70",
"0  c #65BD71",
"q  c #67BE77",
"w  c #6ABF80",
"e  c #6AC083",
"r  c #6BC086",
"t  c #6EC392",
"y  c #71C49A",
"u  c #73C5A2",
"i  c #74C6A5",
"p  c #76C7AC",
"a  c #76C7AE",
"s  c #79C7AC",
"d  c #77C8B1",
"f  c #78C9B5",
"g  c #78C9B6",
"h  c #79C9B7",
"j  c #7ACABB",
"k  c #7BCABE",
"l  c #0192CE",
"z  c #0292CE",
"x  c #0293CE",
"c  c #0393CE",
"v  c #0493CE",
"b  c #0594CE",
"n  c #0695CE",
"m  c #0895CE",
"M  c #0996CE",
"N  c #0B97CE",
"B  c #0D98CE",
"V  c #1197CE",
"C  c #1099CE",
"Z  c #1398CE",
"A  c #149BCE",
"S  c #169CCE",
"D  c #189DCE",
"F  c #1A9ECE",
"G  c #1C9ECE",
"H  c #1FA0CE",
"J  c #21A1CE",
"K  c #25A3CE",
"L  c #29A5CE",
"P  c #2BA6CE",
"I  c #2DA7CE",
"U  c #3EA5CF",
"Y  c #38ACCE",
"T  c #3DAECE",
"R  c #3FAFCE",
"E  c #42B1CD",
"W  c #43B1CD",
"Q  c #46B2CD",
"!  c #48B3CD",
"~  c #4DB6CD",
"^  c #54B9CD",
"/  c #58BBCD",
"(  c #5ABCCD",
")  c #52ABD0",
"_  c #59ADD0",
"`  c #5FAFD0",
"'  c #5EB1D0",
"]  c #79BACF",
"[  c #78B6D0",
"{  c #64C0CD",
"}  c #66C1CD",
"|  c #68C2CD",
" . c #6AC3CD",
".. c #7DCCC6",
"X. c #72C7CD",
"o. c #74C8CD",
"O. c #75C8CD",
"+. c #7ECCC9",
"@. c #7ECDCB",
"#. c #79CACD",
"$. c #7BCBCD",
"%. c #7CCCCD",
"&. c #7ECDCD",
"*. c #7FCDCD",
"=. c #A0C696",
"-. c #ADC89E",
";. c #AAC8A1",
":. c #A4CCBB",
">. c #BDCCB5",
",. c #C3CEBC",
"<. c #8FBDD1",
"1. c #86CDCA",
"2. c #81CDCD",
"3. c #82CDCD",
"4. c #83CDCD",
"5. c #84CDCD",
"6. c #85CDCD",
"7. c #87CDCD",
"8. c #87CECE",
"9. c #88CECE",
"0. c #89CECE",
"q. c #8BCECE",
"w. c #8CCECE",
"e. c #90CECE",
"r. c #91CECE",
"t. c #92CECE",
"y. c #94CECE",
"u. c #95CECE",
"i. c #97CECE",
"p. c #9BCECF",
"a. c #9ACFCF",
"s. c #9CCFCF",
"d. c #9ECFCF",
"f. c #A0CFCF",
"g. c #A1CFCF",
"h. c #A4CFCF",
"j. c #A8CFCF",
"k. c #BDCEC0",
"l. c #BECFC5",
"z. c #AAC6D1",
"x. c #ABC6D1",
"c. c #A4C9D0",
"v. c #B2C8D1",
"b. c #B3CED0",
"n. c #BCCDD2",
"m. c #A9D0D0",
"M. c #ACD0D0",
"N. c #AFD0D0",
"B. c #B0D0D0",
"V. c #B1D0D0",
"C. c #B3D0D0",
"Z. c #B5D0D0",
"A. c #B8D0D0",
"S. c #BAD1D1",
"D. c #BBD1D1",
"F. c #BDD1D1",
"G. c #C7CFC3",
"H. c #C5CFC5",
"J. c #CBD0C8",
"K. c #CCD0C9",
"L. c #CED1CF",
"P. c #C0CCD2",
"I. c #C0D1D0",
"U. c #C0D1D1",
"Y. c #C3D0D1",
"T. c #C4D1D1",
"R. c #C5D1D1",
"E. c #C9D1D1",
"W. c #CAD2D1",
"Q. c #CAD2D2",
"!. c #CDD1D2",
"~. c #CCD2D2",
"^. c #CDD2D2",
"/. c #CED2D2",
"(. c #D0D1D2",
"). c #D0D2D2",
"_. c #D1D2D2",
"`. c #D2D2D2",
/* pixels */
"*.*.*.*.*.*.*.*.*.*.*.*.*.*.*.*.*.*.*.*.*.*.*.*.*.*.*.*.*.*.",
"*.*.*.*.*.*.*.*.*.*.*.*.*.*.*.*.*.*.*.*.*.*.*.*.*.*.*.*.*.*.",
"*.*.*.*.*.*.*.*.*.*.X.E H M l l D *.*.*.*.2.w.d.B.N.s.2.*.*.",
"*.*.*.*.*.*.*.*.&.W b l l l l l B *.*.@.*.*.*.*.5.N.`.R.7.*.",
"*.*.*.*.*.*.*.*.I l l l l l l l D *.i $ 8 ..*.*.*.*.F.`.Z.*.",
"*.*.*.*.*.*.*.Q l l l l l l l l P *.2     7 *.*.*.*.g.`.~.*.",
"*.*.*.*.*.*.O.n l l l l l l l l T *.;     t *.*.*.*.a.`.`.*.",
"*.*.*.*.*.*.W l l l l l l l l l ~ *.r #   8 y 9 +.*.h.`.Q.*.",
"*.*.*.*.*.*.F l l l l l l l l l { *.*.f *       q *.A.`.S.*.",
"*.*.*.*.*.$.x l l l l l l l l c %.*.*.*.d X     % 6.).`.f.*.",
"*.*.*.*.*. .l l l l l l l l l C *.*.*.*.*.0   O u m.`.^.4.*.",
"*.*.*.*.*.} l l l l l l l l l A *.*.*.*.*.j . < 7./.`.j.*.*.",
"*.*.*.*.*.| l l l l l l l l l z o.*.*.*.*.*.- . ;.`.E.3.*.*.",
"*.*.*.*.&.L l l l l l l l l l l Q *.*.*.*.*.1 6 `.`.i.*.*.*.",
"*.*.*.*.Y l l l l l l l l l l l F *.*.*.*.*.5 K.`.=.*.*.*.*.",
"*.*.*.! l l l l l l l l l l l l m *.*.*.*.1.,.`.k.s *.*.*.*.",
"*.*.R l l l l l l l l l l l l l C *.*.*.5.l.`.H.9.*.*.*.*.*.",
"*.*.K l l l l l l l l l l l l l S *.*.6.I.`.J.> w *.*.*.*.*.",
"*.4.O.G l l l l l l l l l l l l b *.8.T.`.J.,   3 *.*.*.*.*.",
"*.r.*.%.v l l l l l l l l l l l N e.W.`.G.4 + o g *.*.*.*.*.",
"y.0.*.( l l l l l l l l l l l l ' L.`.>.: k +.g *.*.*.*.*.*.",
"M.*.*./ l l l l l l l l l l V <.`.`.-.@   p *.*.*.*.*.*.*.*.",
"T.*.*.^ l l l l l l l l c ) P.`.(.:.=   & a *.*.*.*.*.*.*.*.",
"`.t.*.#.J l l l l l z U x.`.`.Y.r.*.h e ..*.*.*.*.*.*.*.*.*.",
"_.T.7.*.T l l l Z _ v.`.`.).M.4.*.*.*.*.*.*.*.*.*.*.*.*.*.*.",
"U.`.^.C.] ` [ z._.`.`._.b.q.*.*.*.*.*.*.*.*.*.*.*.*.*.*.*.*.",
"u.).`.`.`.`.`.`.`.!.V.w.*.*.*.*.*.*.*.*.*.*.*.*.*.*.*.*.*.*.",
"*.t.D./.`.).n.c.p.4.*.*.*.*.*.*.*.*.*.*.*.*.*.*.*.*.*.*.*.*.",
"*.*.*.*.*.*.*.*.*.*.*.*.*.*.*.*.*.*.*.*.*.*.*.*.*.*.*.*.*.*.",
"*.*.*.*.*.*.*.*.*.*.*.*.*.*.*.*.*.*.*.*.*.*.*.*.*.*.*.*.*.*."
};
