/* XPM */
static const char *smalllogo_xpm[] = {
/* columns rows colors chars-per-pixel */
"30 19 143 2 ",
"   c #000000",
".  c #0C0C0C",
"X  c #120F10",
"o  c #121212",
"O  c gray10",
"+  c #202020",
"@  c gray17",
"#  c #333333",
"$  c gray24",
"%  c #0A4C1A",
"&  c #0D1D43",
"*  c #001851",
"=  c #011D59",
"-  c #3A3F4A",
";  c #32354A",
":  c #423F41",
">  c #4C4C4C",
",  c #524F47",
"<  c #5E5E5E",
"1  c #526457",
"2  c #636059",
"3  c #645F63",
"4  c #646464",
"5  c #696661",
"6  c #64676D",
"7  c #6C6C6C",
"8  c #6E7770",
"9  c #737373",
"0  c #7D7D7D",
"q  c #1F833A",
"w  c #289259",
"e  c #23BB4F",
"r  c #25B44E",
"t  c #31BF4E",
"y  c #2EB554",
"u  c #31B656",
"i  c #39BE57",
"p  c #33B659",
"a  c #3AB75E",
"s  c #35BB5B",
"d  c #3CB85D",
"f  c #35BC55",
"g  c #2E847C",
"h  c #35877F",
"j  c #3EB662",
"k  c #758179",
"l  c #42B864",
"z  c #49B868",
"x  c #55BB71",
"c  c #5ABA75",
"v  c #33C74A",
"b  c #3FC15A",
"n  c #123688",
"m  c #0D369E",
"M  c #06349A",
"N  c #123E9D",
"B  c #112FA7",
"V  c #1A3FA2",
"C  c #243EB2",
"Z  c #2D6E9E",
"A  c #1E48A6",
"S  c #1342A9",
"D  c #2646A6",
"F  c #254BA1",
"G  c #284FA3",
"H  c #214DAE",
"J  c #2750AA",
"K  c #3C5DA6",
"L  c #2450B0",
"P  c #44729C",
"I  c #506DAB",
"U  c #5873AC",
"Y  c #4F61B3",
"T  c #5070B5",
"R  c #5A73B2",
"E  c #6379B0",
"W  c #6BBC82",
"Q  c #76BD89",
"!  c #7EBD90",
"~  c #7689B2",
"^  c #6FCF8B",
"/  c #76C484",
"(  c gray52",
")  c #8C8083",
"_  c #8C8C8C",
"`  c #979286",
"'  c #949494",
"]  c #9C9C9C",
"[  c #88BD97",
"{  c #8DBF9B",
"}  c #84BE93",
"|  c #8494B5",
" . c #919EB9",
".. c #96BFA2",
"X. c #9BBFA5",
"o. c #97ABB2",
"O. c #98A2BA",
"+. c #A4A4A4",
"@. c #ABA8A1",
"#. c #A9A9A9",
"$. c #B3B3B3",
"%. c #BCBCBC",
"&. c #BCB3BA",
"*. c #9DC9A9",
"=. c #ABC1B2",
"-. c #A7CCB2",
";. c #B3C2B8",
":. c #B8C3BA",
">. c #C6C3BA",
",. c #B2B6C0",
"<. c #BEC2C0",
"1. c #C3C3C3",
"2. c #C8C3C7",
"3. c #CCCAC4",
"4. c #CCC3CA",
"5. c #CBCBCB",
"6. c #D2CEC6",
"7. c #D3C4CF",
"8. c #D9CACF",
"9. c #C1D4C7",
"0. c #D9D3C7",
"q. c #D5D2CD",
"w. c #D6C4D0",
"e. c #DAC4D3",
"r. c #D2CDD1",
"t. c #DAC9D0",
"y. c #D3D3D3",
"u. c #DAD2D6",
"i. c #DEDAD1",
"p. c #D9D6D8",
"a. c #DDDDDD",
"s. c #E3C4DA",
"d. c #E0D0DC",
"f. c #E0DDD9",
"g. c #D9E5DD",
"h. c #E8E4DC",
"j. c #E0DFE0",
"k. c #E9DFE6",
"l. c #E3E3E3",
"z. c #EEE0EA",
"x. c #EAEAEA",
"c. c #FDFDFD",
"v. c #F3F3F3",
/* pixels */
"6 i.3.1.1.1.1.1.1.1.1.1.1.1.1.1.1.1.1.1.1.1.1.1.1.1.1.1.1.1.",
"5 S ~ 3.6.1.1.1.1.1.1.1.1.1.1.1.1.1.1.1.1.1.1.>.1.<.1.1.1.1.",
"3.* A N U ,.6.1.5.y.2.1.1.1.y.y.2.4.4.1.1.,.7.7.5.y.y.y.y.y.",
"y.- L G F N E q.0 # ] 5.1.p.# $ 9.c W w.1.7.W ^ 1 > > > > > ",
"5.` n G G A o.u.<     y.1.l.    k.c u { w...s q             ",
"1.f.& J F F v -.3     + g.j.    j.2.u u 4.u s &.1.0   7 %.%.",
"1.5.2 H D h f d.<   o   7 v.    j.2...p j u X.4.5._   9 y.1.",
"1.1.>.= C b Q t.<   #.    y.    j.1.e.c j c e.1.5.(   9 5.1.",
"2.,.u.; Z v :.y.<   ] $.  o .   l.1.1.p a p <.1.5.(   9 5.1.",
"1.1.5.) w x w.5.<   ' p.4       a.e.z y { u l e.5.(   7 5.1.",
"1.1.<.a.% *.2.y.<   ' 5.l.O     k.[ u W s.W u ! r.@., ' 5.1.",
"1.3.5.5.8 p.1.5.4   ' y.y.y.    g.e s 7.1.w.a y 3.R T 1.1.1.",
"5.] ' 5.p.9 2.2.+.+.p.( 4 %.l.$.k k _ y.1.1.=.u j B I 6.1.1.",
"5.(   l.#.  _ x.  (     +   ] ( X o   . x.1.7./ b g 8.1.1.1.",
"1.a.  $.<   $ y.  4   l.l.9   _ # c.y.  5.1.0.Y d i :.1.1.1.",
"1.y.# 9   '   _ @ $ < y.1.1.  9   > + . a.3.O.m P i l w.1.1.",
"1.5._     c.    ( <   l.l.7   _   4   y.1.6.V N t.W p Q 7.1.",
"1.1.a.  > a.4   y.y.    o   #.7 o c.@ . h.K M | 3.7.d r =.1.",
"1.1.5.] %.1.1.' 5.1.a.' ( 5.5.$.+.1.5._ %. .O.6.1.1.;.} [ 4."
};
