/* XPM */
static const char *windowMaximize_xpm[] = {
/* columns rows colors chars-per-pixel */
"50 50 43 1 ",
"  c #3A3A3A",
". c #434343",
"X c #464646",
"o c gray28",
"O c #494949",
"+ c gray29",
"@ c #4B4B4B",
"# c #4C4C4C",
"$ c gray30",
"% c #4E4E4E",
"& c gray31",
"* c #515151",
"= c gray32",
"- c #535353",
"; c gray34",
": c gray38",
"> c #626262",
", c #646464",
"< c gray42",
"1 c #6D6D6D",
"2 c #6F6F6F",
"3 c #727272",
"4 c gray46",
"5 c gray47",
"6 c #7B7B7B",
"7 c #7C7C7C",
"8 c #7E7E7E",
"9 c #818181",
"0 c gray52",
"q c gray53",
"w c #8D8D8D",
"e c gray57",
"r c gray65",
"t c #ACACAC",
"y c #B4B4B4",
"u c #C0C0C0",
"i c #D5D5D5",
"p c gray84",
"a c #D7D7D7",
"s c #D8D8D8",
"d c #F6F6F6",
"f c #FDFDFD",
"g c white",
/* pixels */
"gggggggggggggggggggggggggggggggggggggggggggggggggg",
"gggggggggggggggggggggggggggggggggggggggggggggggggg",
"gggggggggggggggggggggggggggggggggggggggggggggggggg",
"gggggggggggggggggggggggggggggggggggggggggggggggggg",
"gggggggggggggggggggggggggggggggggggggggggggggggggg",
"gggggggggggggggggggggggggggggggggggggggggggggggggg",
"gggggggggggggggggggggggggggggggggggggggggggggggggg",
"gggggggggggggggggggggggggggggggggggggggggggggggggg",
"gggggggggggggggggggggggggggggggggggggggggggggggggg",
"gggggggggggggggggggggggggggggggggggggggggggggggggg",
"gggggggggggggggggggggggggggggggggggggggggggggggggg",
"gggggggggggggggggggggggggggggggggggggggggggggggggg",
"gggggggggggggggggggggggggggggggggggggggggggggggggg",
"gggggggggggfe-%====================&=qdggggggggggg",
"gggggggggggw                          6ggggggggggg",
"ggggggggggg+                          .ggggggggggg",
"ggggggggggg%                          @ggggggggggg",
"ggggggggggg=                          $ggggggggggg",
"ggggggggggg=                          $ggggggggggg",
"ggggggggggg=                          $ggggggggggg",
"ggggggggggg=                          $ggggggggggg",
"ggggggggggg= X>::::::::::::::::::::,O $ggggggggggg",
"ggggggggggg= 2gggggggggggggggggggggg9 $ggggggggggg",
"ggggggggggg= 1gggggggggggggggggggggg8 $ggggggggggg",
"ggggggggggg= <gggggggggggggggggggggg7 $ggggggggggg",
"ggggggggggg= <gggggggggggggggggggggg7 $ggggggggggg",
"ggggggggggg= <gggggggggggggggggggggg7 $ggggggggggg",
"ggggggggggg= <gggggggggggggggggggggg7 $ggggggggggg",
"ggggggggggg= <gggggggggggggggggggggg7 $ggggggggggg",
"ggggggggggg= <gggggggggggggggggggggg7 $ggggggggggg",
"ggggggggggg= <gggggggggggggggggggggg7 $ggggggggggg",
"ggggggggggg= <gggggggggggggggggggggg7 $ggggggggggg",
"ggggggggggg= <gggggggggggggggggggggg6 $ggggggggggg",
"ggggggggggg* 3gggggggggggggggggggggg0 $ggggggggggg",
"ggggggggggg# :paiiiiiiiiiiiiiiiiiips2 oggggggggggg",
"ggggggggggg;                          #ggggggggggg",
"gggggggggggu                          yggggggggggg",
"ggggggggggggt445555555555555555555544rgggggggggggg",
"gggggggggggggggggggggggggggggggggggggggggggggggggg",
"gggggggggggggggggggggggggggggggggggggggggggggggggg",
"gggggggggggggggggggggggggggggggggggggggggggggggggg",
"gggggggggggggggggggggggggggggggggggggggggggggggggg",
"gggggggggggggggggggggggggggggggggggggggggggggggggg",
"gggggggggggggggggggggggggggggggggggggggggggggggggg",
"gggggggggggggggggggggggggggggggggggggggggggggggggg",
"gggggggggggggggggggggggggggggggggggggggggggggggggg",
"gggggggggggggggggggggggggggggggggggggggggggggggggg",
"gggggggggggggggggggggggggggggggggggggggggggggggggg",
"gggggggggggggggggggggggggggggggggggggggggggggggggg",
"gggggggggggggggggggggggggggggggggggggggggggggggggg"
};
