/* XPM */
static const char *windowMinimizeSmall_xpm[] = {
/* columns rows colors chars-per-pixel */
"30 30 24 1 ",
"  c #3A3A3A",
". c #495A5A",
"X c #4C6161",
"o c #4D6262",
"O c #4F6767",
"+ c #506A6A",
"@ c #537070",
"# c #557474",
"$ c #567575",
"% c #567676",
"& c #577878",
"* c #597C7C",
"= c #5A7F7F",
"- c #669797",
"; c #689C9C",
": c #71AFAF",
"> c #73B4B4",
", c #7BC4C4",
"< c #7DC8C8",
"1 c #7FCDCD",
"2 c #82CECE",
"3 c #87D0D0",
"4 c #8BD2D2",
"5 c #94D5D5",
/* pixels */
"534444444444444444444444444435",
"211111111111111111111111111112",
"411111111111111111111111111114",
"411111111111111111111111111114",
"411111111111111111111111111114",
"411111111111111111111111111114",
"411111111111111111111111111114",
"411111111111111111111111111114",
"411111111111111111111111111114",
"411111111111111111111111111114",
"411111111111111111111111111114",
"411111111111111111111111111114",
"411111111111111111111111111114",
"411111<;@$%$%%%%#%%%$@-,111114",
"411111*                &111114",
"411111+                O111114",
"411111>=.ooXooooXoooo.*:111114",
"411111111111111111111111111114",
"411111111111111111111111111114",
"411111111111111111111111111114",
"411111111111111111111111111114",
"411111111111111111111111111114",
"411111111111111111111111111114",
"411111111111111111111111111114",
"411111111111111111111111111114",
"411111111111111111111111111114",
"411111111111111111111111111114",
"411111111111111111111111111114",
"211111111111111111111111111112",
"534444444444444444444444444435"
};
