/* XPM */
static const char *windowMaximizeSmall_xpm[] = {
/* columns rows colors chars-per-pixel */
"30 30 54 1 ",
"  c #3A3A3A",
". c #3B3C3C",
"X c #3C3E3E",
"o c #3C3F3F",
"O c #424B4B",
"+ c #434E4E",
"@ c #445050",
"# c #455151",
"$ c #465353",
"% c #465454",
"& c #475555",
"* c #485757",
"= c #485959",
"- c #495959",
"; c #495A5A",
": c #495B5B",
"> c #4C6060",
", c #4C6161",
"< c #4D6262",
"1 c #4D6363",
"2 c #4D6464",
"3 c #4E6565",
"4 c #526C6C",
"5 c #526D6D",
"6 c #537070",
"7 c #567575",
"8 c #5B8080",
"9 c #5D8585",
"0 c #628E8E",
"q c #639292",
"w c #649393",
"e c #649595",
"r c #659696",
"t c #669797",
"y c #679A9A",
"u c #6AA1A1",
"i c #6CA3A3",
"p c #6DA7A7",
"a c #6DA8A8",
"s c #6EAAAA",
"d c #73B2B2",
"f c #74B5B5",
"g c #76B9B9",
"h c #76BBBB",
"j c #78BFBF",
"k c #79C0C0",
"l c #7AC3C3",
"z c #7BC6C6",
"x c #7CC7C7",
"c c #7FCDCD",
"v c #82CECE",
"b c #87D0D0",
"n c #8BD2D2",
"m c #94D5D5",
/* pixels */
"mbnnnnnnnnnnnnnnnnnnnnnnnnnnbm",
"vccccccccccccccccccccccccccccv",
"nccccccccccccccccccccccccccccn",
"nccccccccccccccccccccccccccccn",
"nccccccccccccccccccccccccccccn",
"nccccccccccccccccccccccccccccn",
"nccccccccccccccccccccccccccccn",
"nccccch9-<1111111111<;8fcccccn",
"ncccccr@              O0cccccn",
"nccccc:                =cccccn",
"nccccc,                >cccccn",
"nccccc2                ,cccccn",
"nccccc< .oXXXXXXXXXXo. ,cccccn",
"nccccc= exggggggggggzy &cccccn",
"nccccc* iccccccccccccs $cccccn",
"nccccc* ucccccccccccca %cccccn",
"nccccc* ucccccccccccca %cccccn",
"nccccc* ucccccccccccca %cccccn",
"nccccc* uccccccccccccp %cccccn",
"nccccc* iccccccccccccs $cccccn",
"nccccc# qkddddddddddjt +cccccn",
"nccccc7                6cccccn",
"nccccclw34555555555543qlcccccn",
"nccccccccccccccccccccccccccccn",
"nccccccccccccccccccccccccccccn",
"nccccccccccccccccccccccccccccn",
"nccccccccccccccccccccccccccccn",
"nccccccccccccccccccccccccccccn",
"vccccccccccccccccccccccccccccv",
"mbnnnnnnnnnnnnnnnnnnnnnnnnnnbm"
};
