/* XPM */
static char *recordPressed_xpm[] = {
/* columns rows colors chars-per-pixel */
"50 50 132 2 ",
"   c #000001",
".  c #050409",
"X  c #0B0A0E",
"o  c #0F0D11",
"O  c #100E12",
"+  c #1C1417",
"@  c #1B1719",
"#  c #1D1A1B",
"$  c #211D1E",
"%  c #221F20",
"&  c #252021",
"*  c #292423",
"=  c #2E2828",
"-  c #342D2B",
";  c #35312F",
":  c #393433",
">  c #473D38",
",  c #543F31",
"<  c #4C413C",
"1  c #484747",
"2  c #5D534C",
"3  c #515251",
"4  c #585A5A",
"5  c #665445",
"6  c #6B5747",
"7  c #61544D",
"8  c #6B5D4F",
"9  c #665E55",
"0  c #6C5E50",
"q  c #6D6157",
"w  c #67635C",
"e  c #68635B",
"r  c #756455",
"t  c #796656",
"y  c #7A6957",
"u  c #776658",
"i  c #7D6C5A",
"p  c #656561",
"a  c #7D6E62",
"s  c #7F7163",
"d  c #76716B",
"f  c #79746E",
"g  c #856F5A",
"h  c #827464",
"j  c #877866",
"k  c #847569",
"l  c #87796A",
"z  c #8B7C6B",
"x  c #8A7C70",
"c  c #8E806F",
"v  c #91816F",
"b  c #958473",
"n  c #988675",
"m  c #9B8A76",
"M  c #9E8D7A",
"N  c #A18F7C",
"B  c #A4917E",
"V  c #9C8F81",
"C  c #9F9181",
"Z  c #A39484",
"A  c #AA9682",
"S  c #AF9C86",
"D  c #A29688",
"F  c #A99788",
"G  c #A6998A",
"H  c #AA9B8C",
"J  c #B19D87",
"K  c #B29E89",
"L  c #92A09F",
"P  c #B4A08A",
"I  c #BBA68F",
"U  c #B3A493",
"Y  c #BBA690",
"T  c #BDA994",
"R  c #B7A998",
"E  c #BCAB98",
"W  c #97A6A5",
"Q  c #98A7A6",
"!  c #99AAAA",
"~  c #C5AE96",
"^  c #C7B097",
"/  c #C7B099",
"(  c #C9B199",
")  c #D0B89F",
"_  c #C5B4A1",
"`  c #C8B6A3",
"'  c #CAB9A6",
"]  c #D6BDA3",
"[  c #D8BFA5",
"{  c #D1BDA8",
"}  c #DAC0A6",
"|  c #D5C1AC",
" . c #DDC4AA",
".. c #DBC7B2",
"X. c #DDC9B4",
"o. c #E1C7AB",
"O. c #E4CAAD",
"+. c #E8CCAF",
"@. c #E3CCB4",
"#. c #E9CEB2",
"$. c #EED3B6",
"%. c #E7D2BB",
"&. c #EDD6BD",
"*. c #EDDDBE",
"=. c #F0D4B7",
"-. c #F1D6B9",
";. c #F6DABB",
":. c #FBDEBF",
">. c #F5DCC2",
",. c #FBDFC1",
"<. c #EEE0C0",
"1. c #FBE1C4",
"2. c #FFE8C7",
"3. c #FDE6CB",
"4. c #FFECCB",
"5. c #FFF4D3",
"6. c #FFFAD6",
"7. c #FFF7DB",
"8. c #FEFEDC",
"9. c #CAE9EC",
"0. c #CFEFF2",
"q. c #D0EFF2",
"w. c #D5F3F5",
"e. c #D8F6F6",
"r. c #DEFDFD",
"t. c #FFFFE4",
"y. c #FFFFEF",
"u. c #E0FFFF",
"i. c #EAFFFF",
"p. c #FFFFF7",
"a. c #F5FFFF",
"s. c #F9FFFF",
/* pixels */
"u.u.u.u.u.u.u.u.u.u.u.u.u.u.u.u.u.u.u.u.u.u.u.u.u.u.u.u.u.u.u.u.u.u.u.u.u.u.u.u.u.u.u.u.u.u.u.u.u.u.",
"u.u.u.u.u.u.u.u.u.u.u.u.u.u.u.u.u.u.u.u.u.u.u.u.u.u.u.u.u.u.u.u.u.u.u.u.u.u.u.u.u.u.u.u.u.u.u.u.u.u.",
"u.u.r.u.i.i.i.i.i.i.i.i.i.i.i.i.i.i.i.i.i.i.i.i.i.i.i.i.i.i.i.i.i.i.i.i.i.i.i.i.i.i.i.i.i.i.u.r.u.u.",
"u.u.u.u.e.w.w.w.w.w.w.w.w.w.w.w.w.w.w.w.w.w.w.e.w.w.e.w.w.w.w.w.w.w.w.w.w.w.w.w.w.e.w.w.w.w.r.u.u.u.",
"u.u.i.w.4 1 3 3 3 3 3 3 3 3 3 3 3 3 3 3 3 3 3 3 3 3 3 3 3 3 3 3 3 3 3 3 3 3 3 3 3 3 3 3 3 : ! s.u.u.",
"u.u.i.w.2 5 0 0 8 8 8 8 8 8 8 8 8 8 8 0 8 8 8 8 8 8 8 8 8 8 8 8 8 8 0 8 8 8 8 8 0 8 8 8 r , L s.u.u.",
"u.u.i.0.w u i a a a g h h h h h h h h h h h h h h h h h h h h h h h h h h g h h h h a a j 6 Q s.u.u.",
"u.u.i.0.w r i a h j z j v z z z z z z z z v z z z z z v z z z z z z z c z c z j j k j j z 8 Q a.u.u.",
"u.u.i.w.e t s h z b n m M N M M N N N N N M M M B N N N N N m N N M M N M N M m m b v c b r W a.u.u.",
"u.u.i.0.w y h z n B S J P P P P P P P P P P P P P P P P P P P P P P P P P P P P S A N M M u W a.u.u.",
"u.u.i.0.w i j v B S I ~ ( ( ( ( ^ ^ ( ( ^ ^ ( ( ( ( ^ ( ^ ~ ( O.#.@.#.o.( ( ( ( ~ Y H Z C u W a.u.u.",
"u.r.i.0.w y z b A I ^ ) ] ] ] ] } ) ) } } ) } } ) } ) } ) o.O.b u a u n +.O. . .{ / U G C u W a.u.u.",
"u.u.i.0.e i j m A T ) } o.O.O.O.+.O.O.+.+.O.O.O.O.O.+.O.+.:.h           s 1.=.$.X.' T H Z u W a.u.u.",
"u.u.i.0.e i z m S ^ ]  .#.$.=.=.=.=.=.=.=.=.=.=.-.=.=.=.:.#.$ X 2 a 2 X & =.2.=.O.{ E F Z u W a.u.u.",
"u.u.i.0.e i z m S ^ ] o.$.=.;.;.;.;.;.;.;.;.;.;.;.;.;.;.2.O.# O } p.} o $ $.4.&.@.{ E H Z u W a.u.u.",
"u.u.i.0.e i z m S ^ ] o.$.;.;.:.:.;.:.:.:.;.:.:.:.:.:.;.4.#.$ o ] y.} o & =.2.-.@.{ E H Z u W a.u.u.",
"r.u.i.0.w i z m J ^ ) O.=.;.:.:.:.:.:.:.:.:.:.:.:.:.:.:.4.+.# O ~ 8.~ o # $.4.>.@.{ E H Z u W a.u.u.",
"u.u.i.w.e i z m J ^ [ O.$.;.:.:.:.:.:.:.:.:.:.,.:.:.:.:.4.2.=   = ; = . = 1.4.-.X.{ T H Z u W a.u.u.",
"u.u.i.9.e i j m J ~ ] O.$.;.:.:.:.:.:.:.:.:.:.:.:.:.:.2.4.6.T @ . . . @ P 5.>.&.@.{ E H Z u W a.u.u.",
"u.u.i.q.e i z m J ~ ) O.$.;.;.:.:.:.:.:.,.:.:.:.:.:.4.5.q * #.*.T ~ ~ O.5.1.>.&.@.{ E H Z u W a.u.u.",
"u.u.i.q.e i z m S ~ ) O.$.;.;.:.:.:.:.,.:.:.:.:.:.2.8.j     ^ 8.5.5.5.4.1.,.>.&.@.{ E H Z u W a.u.u.",
"u.u.i.0.w i z m S ~ ) O.=.;.:.:.:.:.:.:.:.:.,.,.1.8.m     n 5.1.,.:.:.:.,.1.>.>.@.{ E F Z u W a.u.u.",
"u.u.i.0.e g j m J ^ ) +.=.;.:.:.:.:.:.:.:.:.:.,.8.P .   s 6.2.:.:.:.:.,.,.,.>.-.@.{ R F Z u Q a.u.u.",
"u.u.i.0.e g j m J ( ) +.=.;.;.:.:.:.:.:.:.:.:.6.( o   7 5.4.;.:.:.:.:.,.,.1.>.&.@.{ E H Z u Q a.u.u.",
"u.u.i.0.e i z m J ~ ) O.=.;.:.:.:.:.:.:.:.:.6.X.$   < 4.5.:.:.:.:.:.:.:.1.1.,.&.@.{ E H Z u W a.u.u.",
"u.u.i.0.e i z m J ~ ) +.=.;.;.:.:.:.:.:.:.5.;.-   - <.5.:.:.:.:.:.:.:.:.:.1.>.-.@.{ E H Z r W a.u.u.",
"u.u.i.0.w i z m J ~ ) O.=.;.;.:.:.:.:.:.5.2.>   % @.6.:.:.:.:.:.1.:.:.:.:.1.:.&.@.{ E H Z u W a.u.u.",
"u.u.i.0.w i z m J ( ] O.$.;.:.:.:.:.;.4.5.2   O ] 8.:.:.:.:.:.:.:.:.:.:.1.1.,.&.@.{ E H Z u W a.u.u.",
"u.u.i.0.e i j m S ~ ) O.=.;.;.:.:.;.,.4.i   . Y 8.:.:.:.:.:.:.:.:.:.:.:.1.1.>.&.@.{ T H Z u ! a.u.u.",
"u.u.i.0.e i z m S ~ ] O.$.;.4.5.6.5.t.B     N 8.1.:.:.:.:.:.:.:.:.:.:.,.,.1.>.&.@.{ T H Z u W a.u.u.",
"u.u.i.0.w i z m S ^ ] o.=.4.O.T ~ T <. .* z 6.2.:.:.:.:.:.:.:.:.:.:.:.:.,.1.>.-.@.{ E H Z r W a.u.u.",
"u.u.i.0.e g j m S ^ ] o.2.P @ . . . + ~ 5.4.2.:.:.:.:.:.:.:.:.:.,.:.:.,.,.,.>.&.@.{ T H Z r W a.u.u.",
"r.u.i.q.e i z m S ~ ] =.$.=   = - = . = 2.4.:.:.:.:.:.:.:.:.,.:.:.:.,.:.>.,.>.=.@.{ E H D u W a.u.u.",
"u.u.i.0.e i z m S ~ ] =.o.$ O / 8.~ o @ #.4.:.:.:.:.:.:.:.,.:.:.:.:.:.:.>.>.>.>.@.{ ~ F Z u W a.u.u.",
"u.u.i.0.w i z m S ~ ] =.@.% o } p.[ o % #.4.,.:.:.:.:.:.,.,.,.,.:.:.:.,.>.>.>.<.@.{ E F Z u W a.u.u.",
"u.u.i.0.w i j m S ~ ] =.O.$ o  .p. .o @ #.4.1.:.1.:.:.1.,.,.,.,.,.:.,.,.>.>.>.>.@.{ E F Z r W a.u.u.",
"u.u.i.0.e i z m S ~ [ ;.$.$ X 2 a 2 X % >.3.>.>.1.1.1.1.1.1.>.,.,.,.>.>.,.3.>.>.@.{ E H Z u W a.u.u.",
"u.u.i.0.e i z m S ~ } =.4.z     . .   l 7.3.>.>.1.1.1.1.1.>.>.>.,.,.>.>.3.,.>.>.@.{ E H Z r W a.u.u.",
"u.u.i.0.e i z n S ~ } #.>.3.F k x k D >.>.>.>.>.>.>.>.1.>.>.>.>.>.>.>.>.>.>.>.>...' T F Z u W a.u.u.",
"u.u.i.q.e i j b A ~ ] @.@.>.5.7.7.t.3.>.<.>.<.>.%.%.&.%.<.<.%.<.>.<.>.X.>.>.{ X.} ` U D Z u W a.u.u.",
"u.u.i.q.w y j b Z I ` |  .X.X.X.X.X.X.X.X.X.X.X.X.X.X.X.X.X.X.X.X.X.X.X.X.X.X.{ ' ~ U C C u W i.u.u.",
"u.u.i.q.w y h v N P E _ ' ' ' ' ' ' ' ' ' ' ' ' ' ' ' ' ' ' ' ' ' ' ' ' ' ' ' _ E U H C C a W a.u.u.",
"u.u.i.q.w i h c M H U R R R R R R R R E R R R R R R R R R R E R R R R R R R R U U H G V V r W a.u.u.",
"u.u.i.q.w i k b V C G G H H H H H H H H H H H H H H H H H H H H H H H H H H H F G C C V V r W a.u.u.",
"u.u.i.9.9 g z m M Z Z Z D D D Z Z Z Z Z Z Z Z Z D D D D Z Z Z Z D D D D Z Z Z Z Z C V M Z t W a.u.u.",
"u.u.i.w.p e d f f f d f f f f f f f f f f f f f f f f f f f f f f f f f f f f f f f f f f 2 ! s.u.u.",
"u.u.u.u.w.9.9.9.9.9.9.9.9.9.9.9.9.9.9.9.9.9.9.9.9.9.9.9.9.9.9.9.9.9.9.9.9.9.9.9.9.9.9.9.9.9.e.u.u.u.",
"u.u.u.u.i.i.i.i.i.i.i.i.i.i.i.i.i.i.i.i.i.i.i.i.i.i.i.i.i.i.i.i.i.i.i.i.i.i.i.i.i.i.i.i.i.i.i.u.u.u.",
"u.u.u.u.u.u.u.u.u.u.u.u.u.u.u.u.u.u.u.u.u.u.u.u.u.u.u.u.u.u.u.u.u.u.u.u.u.u.u.u.u.u.u.u.u.u.u.u.u.u.",
"u.u.u.u.u.u.u.u.u.u.u.u.u.u.u.u.u.u.u.u.u.u.u.u.u.u.u.u.u.u.u.u.u.u.u.u.u.u.u.u.u.u.u.u.u.u.u.u.u.u."
};
