/* XPM */
static char *recordNormal_xpm[] = {
/* columns rows colors chars-per-pixel */
"50 50 163 2 ",
"   c #000002",
".  c #02030A",
"X  c #08080E",
"o  c #0D0D12",
"O  c #120F13",
"+  c #121115",
"@  c #1E191C",
"#  c #221D1F",
"$  c #221F20",
"%  c #252121",
"&  c #2B2525",
"*  c #2F2A29",
"=  c #342D2B",
"-  c #37312E",
";  c #3B3430",
":  c #453B36",
">  c #403A38",
",  c #4B3E39",
"<  c #4C403A",
"1  c #55483E",
"2  c #664F3B",
"3  c #664A33",
"4  c #69513D",
"5  c #544940",
"6  c #5C4F46",
"7  c #504F4D",
"8  c #5C5147",
"9  c #595957",
"0  c #585958",
"q  c #6E5640",
"w  c #635449",
"e  c #695A4E",
"r  c #755B45",
"t  c #6E5F52",
"y  c #7D634B",
"u  c #6D655B",
"i  c #726254",
"p  c #7F6750",
"a  c #72695E",
"s  c #7C6A5A",
"d  c #746B60",
"f  c #786E62",
"g  c #7B7369",
"h  c #81654D",
"j  c #846B53",
"k  c #896E55",
"l  c #816E5A",
"z  c #887056",
"x  c #84725E",
"c  c #8B735A",
"v  c #907359",
"b  c #93795E",
"n  c #867261",
"m  c #897562",
"M  c #8E7964",
"N  c #84786A",
"B  c #8D7C6A",
"V  c #927D66",
"C  c #9A7D62",
"Z  c #967F6A",
"A  c #968067",
"S  c #95816A",
"D  c #9B846D",
"F  c #968471",
"G  c #9E8671",
"H  c #9A8B7A",
"J  c #9F927E",
"K  c #A68567",
"L  c #A4876A",
"P  c #AD8768",
"I  c #A0886E",
"U  c #A08772",
"Y  c #A58C72",
"T  c #A88F74",
"R  c #AB9176",
"E  c #A6907A",
"W  c #AC9378",
"Q  c #BD9776",
"!  c #B1977C",
"~  c #B59A7E",
"^  c #B19273",
"/  c #C09F7D",
"(  c #9C9084",
")  c #AA9986",
"_  c #A99C8C",
"`  c #A69582",
"'  c #B79D80",
"]  c #BA9F82",
"[  c #AA9E90",
"{  c #94A19F",
"}  c #BDA183",
"|  c #B8A08A",
" . c #B0A496",
".. c #97A6A5",
"X. c #98A6A5",
"o. c #9AA8A7",
"O. c #99AAA9",
"+. c #C1A587",
"@. c #C2A689",
"#. c #C6A98A",
"$. c #CBAD8D",
"%. c #C8AE90",
"&. c #CEB293",
"*. c #D3B493",
"=. c #D7B895",
"-. c #D8B996",
";. c #DABA98",
":. c #D0BB9A",
">. c #E2B68C",
",. c #E2BF9C",
"<. c #E1BB94",
"1. c #DEC29F",
"2. c #E3C19E",
"3. c #DFC2A0",
"4. c #E5C4A0",
"5. c #EAC7A3",
"6. c #E3CDA7",
"7. c #EECBA6",
"8. c #E8C9AC",
"9. c #F0CCA6",
"0. c #F2CEA8",
"q. c #EFD3AC",
"w. c #F5D1AB",
"e. c #FAD5AE",
"r. c #E9CEB3",
"t. c #EDD0B3",
"y. c #E9D1BB",
"u. c #F2D5B3",
"i. c #FAD6B1",
"p. c #F7DDB4",
"a. c #FBD9B5",
"s. c #FBDCBB",
"d. c #FFE2B6",
"f. c #FFE4BA",
"g. c #FFE9BE",
"h. c #B7D9DE",
"j. c #BADCE2",
"k. c #BEE1E7",
"l. c #BFE2E8",
"z. c #EBDEC2",
"x. c #FBDFC1",
"c. c #FBE1C4",
"v. c #FFEBC4",
"b. c #FCE3C8",
"n. c #FFECCB",
"m. c #FFF2C5",
"M. c #FFF5CA",
"N. c #FFFACC",
"B. c #FFEED4",
"V. c #FFF2D2",
"C. c #FFFFD1",
"Z. c #FFFFDF",
"A. c #C0E3E8",
"S. c #C6E8ED",
"D. c #CDECED",
"F. c #CEEFF2",
"G. c #CFF0F3",
"H. c #D5F3F4",
"J. c #DEFDFD",
"K. c #E0FFFF",
"L. c #EAFFFF",
"P. c #F5FFFF",
"I. c #F8FFFF",
/* pixels */
"K.K.K.K.K.K.K.K.K.K.K.K.K.K.K.K.K.K.K.K.K.K.K.K.K.K.K.K.K.K.K.K.J.K.K.K.K.K.K.K.K.K.K.K.K.K.K.K.K.K.",
"K.K.K.K.K.K.K.K.K.K.K.K.K.K.K.K.K.K.K.K.K.L.K.K.K.K.K.K.K.K.K.K.K.K.K.K.K.K.K.K.K.K.K.K.K.J.K.K.K.K.",
"K.K.J.K.L.L.L.L.L.L.L.L.L.L.L.L.L.L.L.L.L.L.L.P.L.L.L.L.L.L.L.L.L.L.L.L.L.L.L.L.L.L.L.L.L.L.L.J.K.K.",
"K.K.K.K.H.D.D.D.D.D.S.S.D.D.D.D.D.D.D.D.D.D.S.S.S.D.D.D.D.D.D.D.D.D.D.D.D.D.D.D.D.D.F.D.D.D.J.K.J.K.",
"K.K.L.H.0 7 9 9 0 0 0 0 0 0 0 0 9 9 7 0 0 0 7 0 0 7 0 0 9 0 0 0 9 0 0 0 0 0 9 9 9 9 9 9 9 > X.I.K.K.",
"K.K.L.j.( z.y.y.z.z.z.r.y.y.y.y.y.r.z.z.y.z.y.z.z.r.z.z.r.y.y.y.y.y.y.y.y.y.y.r.r.8.5.2.,.P { P.K.K.",
"K.K.L.h. .Z.V.B.B.B.B.B.B.B.B.B.B.B.B.B.b.B.B.B.B.B.B.B.B.B.B.B.B.B.B.B.B.B.B.n.b.f.d.e.0./ X.P.K.K.",
"K.K.L.j.[ B.b.b.b.b.b.b.b.x.b.b.x.b.b.x.b.b.b.b.b.b.b.b.b.b.x.x.b.b.b.b.c.c.x.s.s.e.0.;.;.K X.P.K.K.",
"K.K.L.j.[ V.b.b.b.b.x.b.x.x.x.x.x.c.x.x.c.x.x.x.x.x.x.x.x.x.x.x.n.n.n.B.n.x.s.s.i.w.,.*.$.b ..P.K.K.",
"K.K.L.j.[ M.x.x.x.x.x.x.s.x.x.s.x.s.x.s.x.s.x.s.x.x.s.x.x.s.x.B.c.t.u.r.s.M.s.i.e.2.-.#.+.v X.P.K.K.",
"K.K.L.j._ n.x.c.x.s.s.s.x.s.s.a.s.s.s.s.s.s.s.a.t.x.s.x.s.s.b.] = % & % & E v.e.9.;.&.} ~ k ..P.K.K.",
"K.K.L.h._ n.s.x.s.s.s.a.a.a.i.a.a.i.i.s.i.i.a.a.s.i.i.i.i.b.3.+         . . +.d.2.=.$.~ ^ j ..P.K.K.",
"K.K.L.j._ n.s.s.s.a.a.a.i.i.i.i.i.i.i.i.i.i.a.i.a.i.i.i.i.M.G   $ M J S *   x g.,.*.+.! R h ..P.K.K.",
"K.K.L.j._ v.s.s.s.a.a.i.i.i.i.i.i.i.i.i.i.i.i.i.i.i.i.i.i.n.G   % d.Z.m.;   m f.,.$.} ! T h ..P.K.K.",
"K.K.L.j._ n.s.s.a.a.a.a.i.i.i.e.e.e.i.e.e.e.e.e.e.e.e.e.e.m.U . % 5.m.i.;   m d.;.$.} W T y X.P.K.K.",
"K.K.L.j._ v.s.s.a.a.u.i.i.i.i.e.e.e.e.e.e.e.e.e.e.e.e.e.e.m.G   % 0.N.a.;   n d.;.$.] W Y y X.P.K.K.",
"K.K.L.j._ v.s.s.s.a.i.i.i.e.e.e.e.e.e.i.e.e.e.e.e.e.e.e.e.m.T   # 6 e w &   n d.;.$.} W Y y X.P.K.K.",
"K.K.L.j._ n.s.s.a.a.i.i.i.e.e.e.e.e.e.e.e.e.e.e.e.e.e.e.a.N.f.=           # =.e.;.$.} W T y X.P.K.K.",
"K.K.L.j._ v.s.s.a.a.a.i.i.e.e.e.e.e.e.e.i.e.e.e.e.e.e.f.a.A &.6.i 8 w w e *.d.2.;.$.} W T y X.P.K.K.",
"K.K.L.j._ n.s.s.a.a.i.i.i.e.e.e.e.e.e.e.e.e.e.e.e.e.d.v.i   @ g.M.d.d.d.g.f.5.2.;.$.} W Y y ..P.K.K.",
"K.J.L.j._ v.s.s.s.a.i.u.i.e.e.e.e.e.e.e.e.e.e.e.e.a.m.n     w d.a.a.a.i.a.0.9.4.;.$.' W T y ..P.K.K.",
"K.K.L.j._ v.s.s.a.a.a.i.i.e.e.e.e.e.e.e.e.e.e.e.i.M.U     : p.f.e.e.e.e.i.0.7.2.;.$.} W T y ..P.K.K.",
"K.K.L.j._ n.s.s.a.i.i.i.i.e.e.e.e.e.e.e.i.e.e.e.N.} X   * q.v.e.e.e.i.e.e.0.7.4.;.$.} W Y y X.P.K.K.",
"K.K.L.j._ b.s.x.a.a.a.i.i.e.e.e.i.e.e.e.e.e.e.m.&.+   # 1.m.e.e.e.e.e.e.e.w.9.4.;.$.} W T y X.P.K.K.",
"K.K.L.j._ v.s.s.s.i.i.i.i.i.e.e.e.e.e.e.e.e.m.5.#   O $.m.e.e.e.e.e.e.e.e.e.9.2.;.$.] W T y ..P.K.K.",
"K.K.L.j._ v.s.s.a.a.i.i.i.u.i.e.e.e.e.e.e.v.u.=   X ! N.e.e.e.e.e.e.e.e.e.0.7.4.;.$.} W Y y ..P.K.K.",
"K.K.L.j._ v.s.s.i.a.a.i.i.e.e.e.e.e.e.e.f.f.,     D M.a.e.e.e.e.e.e.e.i.e.0.9.4.;.$.} W T y ..P.K.K.",
"K.K.L.j._ n.s.s.s.s.i.i.i.e.e.e.e.e.e.f.g.w   . s m.a.e.e.e.e.e.e.e.e.e.e.0.9.4.;.$.] W T y X.P.K.J.",
"K.K.L.j._ n.s.s.a.i.i.i.i.e.e.e.e.e.a.m.l     w v.d.e.e.e.e.e.e.e.e.e.e.e.w.9.4.;.$.} R Y y X.P.K.K.",
"K.K.L.j._ v.s.s.a.a.i.i.i.e.e.i.i.e.g.D     , f.g.e.e.e.e.e.e.e.e.e.e.e.e.0.9.4.;.$.] ! T y X.P.K.K.",
"K.K.L.j._ v.s.s.s.a.i.e.a.g.m.g.g.m.2.X   - w.g.e.e.e.e.e.e.e.i.e.e.e.i.e.0.9.2.;.$.} W T y X.P.K.K.",
"K.J.L.j._ v.s.s.a.a.i.d.g.*.} #.} 2.g.8 * 2.m.e.e.e.i.e.e.e.e.e.e.e.e.e.e.0.0.2.;.$.] W Y y ..P.K.K.",
"K.K.L.j._ n.s.s.a.a.s.d.s o o o o O S v.a.g.e.e.e.e.e.e.e.e.e.e.e.e.e.e.e.0.9.2.;.&.} W Y y ..P.K.K.",
"K.K.L.j._ v.s.s.a.a.M.W   O + O o o . &.m.e.e.e.e.e.e.e.e.e.e.e.e.e.e.e.e.e.5.2.;.$.} W T y ..P.K.K.",
"K.K.L.j._ v.s.s.a.a.V.n   = @.:.' $   G m.e.e.e.e.e.e.e.e.e.e.e.e.e.i.e.e.0.0.5.;.&.~ W T y ..P.K.K.",
"K.K.L.j._ v.s.s.a.a.N.B   ; f.C.e.%   G m.e.e.e.w.e.e.e.e.e.e.e.e.e.e.e.e.0.9.2.;.$.+.^ T y ..P.K.K.",
"K.K.L.j._ v.s.s.a.a.M.B   ; e.m.5.%   G g.w.w.w.w.w.w.w.w.e.e.w.0.w.w.w.w.0.2.2.=.$.~ R I y ..I.K.K.",
"K.K.L.j._ v.s.a.a.e.m.n   - 2.d.*.% . Z g.7.0.0.9.0.9.0.9.7.0.0.9.9.9.0.0.2.2.;.*.$.~ W Y h ..I.K.K.",
"K.K.L.j._ v.a.i.e.0.f.V   $ - ; - @ . Y d.2.2.4.2.2.2.5.2.2.2.2.2.2.2.2.2.2.;.*.$.} ! I I r ..I.K.K.",
"K.K.L.j.) d.e.w.7.5.9.;.>           1 2.2.;.;.;.;.;.;.;.;.;.;.;.;.;.1.;.;.-.*.$.+.~ R D D r ..I.K.K.",
"K.K.L.j.) d.0.5.,.;.*.;.$.s i i t x $.;.$.$.#.$.$.$.$.$.$.$.$.$.$.$.$.&.$.#.@.} ~ R G A A r ..P.K.K.",
"K.K.L.j.W e.2.;.*.#.@.} #.=.=.=.=.*.+.~ ~ ~ } ~ ~ ~ } ~ ' ' ' ~ / ~ ~ ~ ~ ~ ! W R D A b A 4 ..P.K.K.",
"K.K.L.k.J 9.*.$.} ~ W R Y Y Y U Y Y U Y I I Y Y Y Y I Y Y U Y Y G Y G I Y G D D A M m x c 2 ..P.K.K.",
"K.K.L.k.H <.#.~ W Y D A A A V V V V V V A A V V V A V V V V V V A A A M A A M m c x x s s 2 ..I.J.K.",
"K.K.L.k.F >.~ ^ L C b c z c z z z z z z z z z z z z z z z z z z x z z z z z j j p p y y j 3 { I.K.K.",
"K.K.L.F.g B N g f d a u u u u u u u u u u u u u u u u u u u u u u u u u u u u u u u u u u 1 O.I.K.K.",
"K.K.K.L.F.k.S.S.F.F.F.F.F.F.G.G.F.F.F.F.G.F.F.F.G.D.G.G.F.F.F.F.G.D.D.F.F.F.F.F.G.G.G.G.G.D.J.K.K.K.",
"K.K.J.J.L.L.L.L.L.L.L.L.L.L.L.L.L.L.L.L.L.L.L.L.L.L.L.L.L.L.L.L.L.L.L.L.L.L.L.L.L.L.L.L.L.L.L.J.K.K.",
"K.K.K.K.K.K.K.K.K.K.K.K.K.K.K.K.K.K.K.K.K.K.K.K.K.K.K.K.K.K.K.K.J.J.K.K.K.K.K.K.K.K.K.K.K.K.K.K.K.K.",
"K.K.K.K.K.K.J.K.K.K.K.K.K.K.K.K.K.K.K.K.K.K.K.K.K.K.K.K.J.K.K.K.K.J.K.K.K.K.K.K.K.K.K.K.K.K.K.K.K.K."
};
