/* XPM */
static char *stopNormal_xpm[] = {
/* columns rows colors chars-per-pixel */
"50 50 135 2 ",
"   c #000000",
".  c #141414",
"X  c #181717",
"o  c #1B1A19",
"O  c #2D2925",
"+  c #352E27",
"@  c #322D28",
"#  c #463E35",
"$  c #403A38",
"%  c #4C443B",
"&  c #55483E",
"*  c #664A33",
"=  c #664F3B",
"-  c #69513D",
";  c #504F4D",
":  c #595957",
">  c #585958",
",  c #6E5640",
"<  c #755B45",
"1  c #7D634B",
"2  c #6F6151",
"3  c #6D655B",
"4  c #756555",
"5  c #7F6750",
"6  c #72695E",
"7  c #7E6D5A",
"8  c #746B60",
"9  c #786E62",
"0  c #7E7366",
"q  c #78736B",
"w  c #81654D",
"e  c #846B53",
"r  c #896E55",
"t  c #816F5A",
"y  c #887056",
"u  c #85735D",
"i  c #8B735A",
"p  c #907359",
"a  c #93795E",
"s  c #877461",
"d  c #897560",
"f  c #8E7962",
"g  c #84786A",
"h  c #8D7C6A",
"j  c #927D66",
"k  c #9A7D62",
"l  c #968067",
"z  c #968068",
"x  c #9C856D",
"c  c #968471",
"v  c #9A8B7A",
"b  c #9F907E",
"n  c #A68567",
"m  c #A4876A",
"M  c #AD8768",
"N  c #A0886E",
"B  c #A48C72",
"V  c #A88F74",
"C  c #AB9176",
"Z  c #AD9479",
"A  c #B19273",
"S  c #BD9776",
"D  c #B1977B",
"F  c #B59A7E",
"G  c #C09F7D",
"H  c #9C9084",
"J  c #A69582",
"K  c #AA9986",
"L  c #A99C8C",
"P  c #B79D80",
"I  c #B99E81",
"U  c #AA9E90",
"Y  c #94A19F",
"T  c #BCA083",
"R  c #B6A88A",
"E  c #B0A496",
"W  c #97A6A5",
"Q  c #98A6A5",
"!  c #9AA8A7",
"~  c #99AAA9",
"^  c #C1A587",
"/  c #C2A688",
"(  c #C6A98A",
")  c #CBAD8D",
"_  c #CFB090",
"`  c #D3B493",
"'  c #D9B997",
"]  c #DABA98",
"[  c #E2B68C",
"{  c #E1BB94",
"}  c #E2BF9B",
"|  c #E3C19E",
" . c #E6C4A0",
".. c #E9C6A3",
"X. c #EECBA6",
"o. c #E8C9AC",
"O. c #F0CCA6",
"+. c #F2CEA8",
"@. c #F5D1AA",
"#. c #FAD5AE",
"$. c #E9CEB3",
"%. c #E9D1BB",
"&. c #FAD6B1",
"*. c #FCDAB4",
"=. c #FBDCBB",
"-. c #FFE0B7",
";. c #FFE1B9",
":. c #FFE8BD",
">. c #B7D9DE",
",. c #BADCE2",
"<. c #BEE1E7",
"1. c #BFE2E8",
"2. c #EBDEC2",
"3. c #FBDFC1",
"4. c #FBE1C4",
"5. c #FFECC4",
"6. c #FCE3C8",
"7. c #FFECCA",
"8. c #FFF1C4",
"9. c #FFF6C9",
"0. c #FFF9CA",
"q. c #FFEED4",
"w. c #FFF2D2",
"e. c #FFFFDC",
"r. c #C0E3E8",
"t. c #C6E8ED",
"y. c #CDECED",
"u. c #CEEFF2",
"i. c #CFF0F3",
"p. c #D5F3F4",
"a. c #DEFDFD",
"s. c #E0FFFF",
"d. c #EAFFFF",
"f. c #F5FFFF",
"g. c #F8FFFF",
/* pixels */
"s.s.s.s.s.s.s.s.s.s.s.s.s.s.s.s.s.s.s.s.s.s.s.s.s.s.s.s.s.s.s.s.s.s.s.s.s.s.s.s.s.s.s.s.s.s.s.s.s.s.",
"s.s.s.s.s.s.s.s.s.s.s.s.s.s.s.s.s.s.s.s.s.s.s.s.s.s.s.s.s.s.s.s.s.a.s.s.s.s.s.s.s.s.s.s.s.s.s.s.s.s.",
"s.s.a.s.d.d.d.d.d.d.d.d.d.d.d.d.d.d.d.d.d.d.d.f.d.d.d.d.d.d.d.d.d.d.d.d.d.d.d.d.d.d.d.d.d.d.d.s.s.s.",
"s.s.s.s.p.y.y.y.y.y.t.t.y.y.y.y.y.y.y.y.y.y.t.t.y.y.y.y.y.y.y.y.y.y.y.y.y.y.y.y.y.y.u.y.y.u.p.s.s.s.",
"s.a.d.p.> ; : : > > > > > > > : : : > > > > ; > > > > > : > > > : > > > > > > : : > : : : $ W f.s.s.",
"s.a.d.,.H 2.%.%.2.2.%.%.%.%.%.%.%.%.%.2.%.%.2.2.2.$.2.2.$.%.%.%.%.%.%.%.%.%.%.$.$.o.X.| } M Y f.s.s.",
"s.s.d.>.E e.w.q.q.q.q.q.q.q.q.q.q.q.q.q.q.q.q.q.6.q.q.q.q.q.q.q.q.q.q.q.q.q.q.7.6.:.*.@.+.G Q f.s.s.",
"s.s.d.,.E q.6.6.6.6.6.6.6.6.6.6.3.3.6.6.3.3.6.6.6.6.6.6.6.6.3.3.6.6.6.6.4.4.4.=.*.*.O.} ' n Q f.s.s.",
"s.s.d.,.U w.6.6.6.6.4.4.3.3.4.4.3.3.3.3.3.3.3.3.3.3.3.3.3.3.3.3.3.3.3.3.3.3.=.=.&.+.} ` _ a W f.s.s.",
"s.s.d.,.U 7.4.4.3.3.3.3.3.=.3.=.3.3.3.=.3.=.3.=.3.3.3.3.3.3.3.3.=.=.3.3.3.=.*.*.@. .' ( ^ p W f.s.s.",
"s.s.d.,.L 7.3.3.3.=.=.=.=.=.=.=.=.=.=.=.=.=.=.=.3.3.3.=.=.=.&.=.=.=.=.=.=.=.&.@.O.} _ ^ F r W f.s.s.",
"s.s.d.>.L 7.3.=.=.=.=.*.*.*.&.*.&.&.&.&.=.&.&.=.@.&.@.=.&.=.&.&.*.*.&.*.&.&.#.X.| ' ) F A w W f.s.s.",
"s.s.d.,.L 7.=.3.=.=.*.*.*.&.&.&.&.&.&.&.&.&.&.&.&.&.&.&.&.&.&.&.&.&.&.&.&.#.+.X.} ` ^ D V w W f.s.s.",
"s.s.d.,.L 5.=.=.=.&.*.*.&.&.&.#.&.&.&.&.&.&.&.&.&.&.&.&.&.&.&.&.&.#.&.&.#.#.O...] _ ^ Z V w W g.s.s.",
"s.s.d.,.L 7.=.=.=.*.&.&.&.&.@.*.7.0.0.0.9.9.9.9.w.9.9.9.9.9.6.9.0.8.*.#.#.@.O. .] _ I Z V 1 W f.s.s.",
"s.s.d.,.L 5.=.=.&.*.&.&.&.@.=.=.B 7 s s s s s s s s s s s s s s t B *.*.#.@.O. .] ) I Z V 1 W f.s.s.",
"a.a.d.,.L 5.=.=.=.*.*.&.&.&.:.4                                     4 5.&.@.X. .] ) T Z V 1 W f.s.s.",
"a.a.d.,.L 5.=.=.*.*.&.&.#.=.+..   @ % # # % # # # # # % # # # % @   . O.-.@.X. .] ) I Z V 1 W f.s.a.",
"a.s.d.,.L 7.=.=.*.*.&.&.&.-.X.X   B 0.*.*.*.*.*.*.*.*.*.*.*.*.0.B   X X.;.@.O. .] ) T Z V 1 W f.s.s.",
"s.s.d.,.L 5.=.=.=.&.&.&.&.-.O.o   C 0.*.*.-.-.*.*.*.-.-.-.*.*.0.V   o O.*.@.O. .] ) I Z B 1 Q f.s.s.",
"s.s.d.,.L 5.=.=.=.*.&.&.&.-.X.o   B 8.#.#.#.#.#.#.#.#.#.#.#.#.8.v   o O.;.+.X. .] ) T Z B 1 Q f.s.s.",
"s.s.d.,.L 5.3.=.*.&.&.&.&.;.X.o   v 8.#.#.#.#.#.#.#.#.#.#.#.#.8.B   o O.=.+.X. .] _ I Z V 1 W f.s.s.",
"s.s.d.,.L 7.=.=.=.*.&.&.&.;.O.o   B 5.#.#.#.#.#.#.#.#.#.#.#.#.8.B   o X.-.@.X. .] ) T Z V 1 W f.s.s.",
"s.a.d.,.L 6.=.=.*.&.=.&.&.;.X.o   B 8.#.#.#.#.#.#.#.#.#.#.#.#.8.B   o O.-.@.X. .] ) T Z V 1 W f.s.s.",
"s.s.d.,.L 5.=.=.*.&.&.&.&.=.O.o   B 8.#.#.#.#.#.#.#.#.#.#.#.#.8.v   o O.-.@.X. .] ) T Z B 1 Q f.s.s.",
"s.s.d.,.L 5.=.=.=.*.&.&.&.;.X.o   B 8.#.#.#.#.#.#.#.#.#.#.#.#.8.B   o O.-.@.X. .] ) T Z V 1 W f.s.s.",
"s.s.d.,.L 5.=.=.*.&.*.&.&.;.o.o   B 8.#.#.#.#.#.#.#.#.#.#.#.#.8.B   o X.-.+.O. .] ) T C V 1 W f.s.s.",
"s.s.d.,.L 7.=.=.=.*.&.&.&.;.X.o   v 8.#.#.#.#.#.#.#.#.#.#.#.#.8.B   o O.-.@.O. .] ) T C V 1 W f.s.s.",
"s.s.d.,.L 7.=.=.=.&.&.&.&.;.O.o   B 5.#.#.#.#.#.#.#.#.#.#.#.#.9.v   o O.*.@.X. .] ) T Z V 1 Q f.s.s.",
"s.s.d.,.L 5.=.=.=.&.&.&.#.;.O.o   B 8.#.#.#.#.#.#.#.#.#.#.#.#.8.B   o O.;.@.X. .] ) T Z V 1 W f.s.s.",
"s.s.d.,.L 7.=.=.*.*.&.&.&.;.X.o   N 8.#.#.#.#.#.#.#.#.#.#.#.#.8.B   o X.-.@.O. .] ) T C V 1 W f.s.s.",
"s.s.d.,.L 5.=.=.=.*.&.&.#.;.X.o   F e.5.5.8.8.:.8.8.8.:.8.8.:.e.P   o X.-.@.O.| ] ) T Z B 1 W f.s.s.",
"s.s.d.,.L 5.=.=.=.&.&.&.&.;.X..   4 R Z Z Z Z Z Z D Z K Z Z Z R 4   . X.-.@.X. .] ) T Z B 1 W f.s.s.",
"s.s.d.,.L 5.=.=.=.&.&.&.&.*.*.O                                     O *.*.@.O.| ] ) T Z C 1 W f.s.s.",
"s.s.d.,.L 7.=.*.=.=.&.&.#.#.:.) + . X X o o o o o o o o o o o . . + ) :.#.+.X.| ] ) T Z B 1 W f.s.s.",
"a.s.d.,.L 5.=.=.*.&.&.&.#.#.#.:.-.| X.X.X.X.X.X.X.X.X.X.X.X.X.X...*.:.#.#.@.X.| ] ) T Z V 1 W f.s.s.",
"s.s.d.,.L 5.=.=.*.*.#.#.#.#.@.#.*.-.-.-.-.-.-.-.*.*.-.-.*.-.-.-.-.*.#.@.@.+.X.| ` ) T C N 1 W g.s.s.",
"s.s.d.,.L 5.=.*.*.#.#.@.O.X.X.X.+.+.O.O.O.O.O.+.O.O.O.O.O.O.+.+.O.O.O.O.O...| ] ` ( F C V 1 W f.s.s.",
"s.s.d.,.K 4.*.&.#.+.X.X... . . .| | | | | | | | ..| | ..| | | | | | | ..| | ] ` ) T D N m 1 W f.s.s.",
"s.s.d.,.K :.#.#.X. .| | ] ] ] ] ] ] } ] ] ] ] ] ] ] ] ] ] ] } ] ] ] ] ] ] ` ` ) / F C x x < W f.s.s.",
"s.s.d.,.K -.@...} ] ` ` ) ) ) ) ) ) ) ) ) ) ) ) ) ) ) ) ) ) ) ) ) ) ) ) ) ( R T F C B z l < W f.s.s.",
"s.s.d.,.Z #.| ] _ ( / T I I I F T F F F T F T F F T F F I F I F F I F F F F D Z C x z i f , W f.s.s.",
"s.s.d.<.b X.` ( R F D C B B B B N B B B N x B N B N B B B N B B B B B B B N x x l j u u u - Q f.s.s.",
"s.s.d.1.v { ( P Z B x z l j j j j j j j l l l h l l j j j j j j j j j j j j f f u u u 7 u = Q f.s.s.",
"s.s.d.<.c [ F A m k a i i i y y y y y y y y y y y y y y y y y y y y y y y y e e 5 5 1 1 e * Y g.s.s.",
"s.s.d.u.q h h 0 9 8 6 3 3 3 3 3 3 3 3 3 3 3 3 3 3 3 3 3 3 3 3 3 3 3 3 3 3 3 3 3 3 3 3 3 3 & ! g.s.s.",
"s.s.s.s.y.<.t.t.u.u.u.u.u.u.p.y.u.u.u.u.i.u.u.u.u.u.i.i.u.u.u.u.u.u.p.u.u.u.u.u.i.i.i.i.u.y.a.s.s.s.",
"s.s.s.s.d.d.d.d.d.d.d.d.d.d.d.d.d.d.d.d.d.d.d.d.d.d.d.d.d.d.d.d.d.d.d.d.d.d.d.d.d.d.d.d.d.d.d.a.s.s.",
"s.s.s.s.s.s.s.s.s.s.s.s.s.s.s.s.s.s.s.s.s.s.s.s.s.s.s.s.s.s.s.s.a.s.s.s.s.s.s.s.s.s.s.s.a.s.s.s.s.s.",
"s.s.s.s.s.s.s.s.s.s.s.s.s.s.s.s.s.s.s.s.s.s.s.s.s.s.s.s.s.s.s.s.s.s.s.s.s.s.s.s.s.s.s.s.s.s.s.s.s.s."
};
