/* XPM */
static char *windowClose_xpm[] = {
/* columns rows colors chars-per-pixel */
"50 50 121 2 ",
"   c #3A3A3A",
".  c gray23",
"X  c #3C3C3C",
"o  c gray24",
"O  c #3E3E3E",
"+  c #3F3F3F",
"@  c gray25",
"#  c gray26",
"$  c #444444",
"%  c gray27",
"&  c #464646",
"*  c gray28",
"=  c #484848",
"-  c #494949",
";  c #4E4E4E",
":  c #505050",
">  c #515151",
",  c #535353",
"<  c gray33",
"1  c #565656",
"2  c gray34",
"3  c #585858",
"4  c gray35",
"5  c #5A5A5A",
"6  c #5B5B5B",
"7  c gray36",
"8  c #5D5D5D",
"9  c gray37",
"0  c #5F5F5F",
"q  c #606060",
"w  c gray38",
"e  c #626262",
"r  c gray39",
"t  c #646464",
"y  c #676767",
"u  c #686868",
"i  c DimGray",
"p  c #6C6C6C",
"a  c #6D6D6D",
"s  c gray43",
"d  c #6F6F6F",
"f  c gray44",
"g  c #717171",
"h  c #777777",
"j  c gray47",
"k  c #797979",
"l  c #7C7C7C",
"z  c gray53",
"x  c gray54",
"c  c #8B8B8B",
"v  c gray55",
"b  c #8D8D8D",
"n  c #8E8E8E",
"m  c #929292",
"M  c #939393",
"N  c #959595",
"B  c gray59",
"V  c gray60",
"C  c #9A9A9A",
"Z  c #9B9B9B",
"A  c #9D9D9D",
"S  c gray62",
"D  c #9F9F9F",
"F  c #A0A0A0",
"G  c gray63",
"H  c #A2A2A2",
"J  c gray64",
"K  c #A4A4A4",
"L  c #A5A5A5",
"P  c gray65",
"I  c gray66",
"U  c #A9A9A9",
"Y  c gray68",
"T  c #AEAEAE",
"R  c #AFAFAF",
"E  c #B1B1B1",
"W  c #B4B4B4",
"Q  c gray71",
"!  c #B6B6B6",
"~  c #B9B9B9",
"^  c gray73",
"/  c #BBBBBB",
"(  c gray74",
")  c #C8C8C8",
"_  c #CACACA",
"`  c gray80",
"'  c #CDCDCD",
"]  c gray82",
"[  c LightGray",
"{  c gray83",
"}  c #D5D5D5",
"|  c gray84",
" . c #D7D7D7",
".. c #D8D8D8",
"X. c gray85",
"o. c #DADADA",
"O. c gray86",
"+. c #DDDDDD",
"@. c gray87",
"#. c #DFDFDF",
"$. c gray88",
"%. c #E1E1E1",
"&. c #E2E2E2",
"*. c #E4E4E4",
"=. c #E6E6E6",
"-. c #EAEAEA",
";. c gray93",
":. c #EEEEEE",
">. c #EFEFEF",
",. c gray94",
"<. c #F1F1F1",
"1. c #F3F3F3",
"2. c #F4F4F4",
"3. c gray96",
"4. c gray97",
"5. c #F9F9F9",
"6. c gray98",
"7. c gray99",
"8. c #FDFDFD",
"9. c #FEFEFE",
"0. c white",
/* pixels */
"0.0.0.0.0.0.0.0.0.0.0.0.0.0.0.0.0.0.0.0.0.0.0.0.0.0.0.0.0.0.0.0.0.0.0.0.0.0.0.0.0.0.0.0.0.0.0.0.0.0.",
"0.0.0.0.0.0.0.0.0.0.0.0.0.0.0.0.0.0.0.0.0.0.0.0.0.0.0.0.0.0.0.0.0.0.0.0.0.0.0.0.0.0.0.0.0.0.0.0.0.0.",
"0.0.0.0.0.0.0.0.0.0.0.0.0.0.0.0.0.0.0.0.0.0.0.0.0.0.0.0.0.0.0.0.0.0.0.0.0.0.0.0.0.0.0.0.0.0.0.0.0.0.",
"0.0.0.0.0.0.0.0.0.0.0.0.0.0.0.0.0.0.0.0.0.0.0.0.0.0.0.0.0.0.0.0.0.0.0.0.0.0.0.0.0.0.0.0.0.0.0.0.0.0.",
"0.0.0.0.0.0.0.0.0.0.0.0.0.0.0.0.0.0.0.0.0.0.0.0.0.0.0.0.0.0.0.0.0.0.0.0.0.0.0.0.0.0.0.0.0.0.0.0.0.0.",
"0.0.0.0.0.0.0.0.0.0.0.0.0.0.0.0.0.0.0.0.0.0.0.0.0.0.0.0.0.0.0.0.0.0.0.0.0.0.0.0.0.0.0.0.0.0.0.0.0.0.",
"0.0.0.0.0.0.0.0.0.0.0.0.0.0.0.0.0.0.0.[ S l 7 - $ $ - 8 l D [ 0.0.0.0.0.0.0.0.0.0.0.0.0.0.0.0.0.0.0.",
"0.0.0.0.0.0.0.0.0.0.0.0.0.0.0.0.,.J 5                         5 J >.0.0.0.0.0.0.0.0.0.0.0.0.0.0.0.0.",
"0.0.0.0.0.0.0.0.0.0.0.0.0.0.0.L -                                 * H 0.0.0.0.0.0.0.0.0.0.0.0.0.0.0.",
"0.0.0.0.0.0.0.0.0.0.0.0.0...t               = w d a 9 *               w  .0.0.0.0.0.0.0.0.0.0.0.0.0.",
"0.0.0.0.0.0.0.0.0.0.0.0.^ X           y L X.4.0.0.0.0.4.} J t             ~ 0.0.0.0.0.0.0.0.0.0.0.0.",
"0.0.0.0.0.0.0.0.0.0.0.R           f ` 0.0.0.0.0.0.0.0.0.0.0.0._ d           Y 0.0.0.0.0.0.0.0.0.0.0.",
"0.0.0.0.0.0.0.0.0.0.(         O W 0.0.0.0.0.0.0.0.0.0.0.0.0.0.0.0.Q +         / 0.0.0.0.0.0.0.0.0.0.",
"0.0.0.0.0.0.0.0.0.%.        > O.0.0.0.0.0.0.0.0.0.0.0.0.0.0.0.0.0.0.+.<         #.0.0.0.0.0.0.0.0.0.",
"0.0.0.0.0.0.0.0.0.3       ; -.0.0.0.0.0.0.0.0.0.0.0.0.0.0.0.0.0.0.0.0.;.>       2 0.0.0.0.0.0.0.0.0.",
"0.0.0.0.0.0.0.0.K       . $.0.0.0.0.0.0.0.0.0.0.0.0.0.0.0.0.0.0.0.0.0.0.=.+       H 0.0.0.0.0.0.0.0.",
"0.0.0.0.0.0.0.3.+       E 0.0.0.0.0.0.>.0.0.0.0.0.0.0.0.0.0.:.0.0.0.0.0.0.~       + 2.0.0.0.0.0.0.0.",
"0.0.0.0.0.0.0.H       t 0.0.0.0.0.0.K @ x 0.0.0.0.0.0.0.0.v @ K 0.0.0.0.0.0.i       F 0.0.0.0.0.0.0.",
"0.0.0.0.0.0.0.,       ] 0.0.0.0.9.K       c 0.0.0.0.0.0.c       K 9.0.0.0.0. .      : 0.0.0.0.0.0.0.",
"0.0.0.0.0.0.}       8 0.0.0.0.0.,.          c 0.0.0.0.c           ,.0.0.0.0.0.w       [ 0.0.0.0.0.0.",
"0.0.0.0.0.0.S       J 0.0.0.0.0.7.b           c 0.0.c           x 7.0.0.0.0.0.I       A 0.0.0.0.0.0.",
"0.0.0.0.0.0.k       | 0.0.0.0.0.0.0.c           m M           c 0.0.0.0.0.0.0.o.      h 0.0.0.0.0.0.",
"0.0.0.0.0.0.8     % 5.0.0.0.0.0.0.0.0.c                     c 0.0.0.0.0.0.0.0.6.&     6 0.0.0.0.0.0.",
"0.0.0.0.0.0.-     0 0.0.0.0.0.0.0.0.0.0.x                 x 0.0.0.0.0.0.0.0.0.0.q     - 0.0.0.0.0.0.",
"0.0.0.0.0.0.#     a 0.0.0.0.0.0.0.0.0.0.0.N             V 0.0.0.0.0.0.0.0.0.0.0.p     # 0.0.0.0.0.0.",
"0.0.0.0.0.0.#     d 0.0.0.0.0.0.0.0.0.0.0.Z             B 0.0.0.0.0.0.0.0.0.0.0.p     # 0.0.0.0.0.0.",
"0.0.0.0.0.0.-     r 0.0.0.0.0.0.0.0.0.0.c                 z 0.0.0.0.0.0.0.0.0.0.0     - 0.0.0.0.0.0.",
"0.0.0.0.0.0.7     - 8.0.0.0.0.0.0.0.0.c                     c 0.0.0.0.0.0.0.0.6.&     7 0.0.0.0.0.0.",
"0.0.0.0.0.0.j       +.0.0.0.0.0.0.0.c           N C           c 0.0.0.0.0.0.0...      h 0.0.0.0.0.0.",
"0.0.0.0.0.0.S       U 0.0.0.0.0.7.b           z 0.0.c           b 7.0.0.0.0.0.P       S 0.0.0.0.0.0.",
"0.0.0.0.0.0.}       r 0.0.0.0.0.,.          c 0.0.0.0.c           <.0.0.0.0.0.q       [ 0.0.0.0.0.0.",
"0.0.0.0.0.0.0.,        .0.0.0.0.9.L       c 0.0.0.0.0.0.v       K 9.0.0.0.0.}       : 0.0.0.0.0.0.0.",
"0.0.0.0.0.0.0.H       u 0.0.0.0.0.0.K @ x 0.0.0.0.0.0.0.0.n @ J 0.0.0.0.0.0.y       D 0.0.0.0.0.0.0.",
"0.0.0.0.0.0.0.2.+       ! 0.0.0.0.0.0.:.0.0.0.0.0.0.0.0.0.0.;.0.0.0.0.0.0.!       + 1.0.0.0.0.0.0.0.",
"0.0.0.0.0.0.0.0.K       X &.0.0.0.0.0.0.0.0.0.0.0.0.0.0.0.0.0.0.0.0.0.0.*.o       G 0.0.0.0.0.0.0.0.",
"0.0.0.0.0.0.0.0.0.4       ; -.0.0.0.0.0.0.0.0.0.0.0.0.0.0.0.0.0.0.0.0.;.:       1 0.0.0.0.0.0.0.0.0.",
"0.0.0.0.0.0.0.0.0.%.        : X.0.0.0.0.0.0.0.0.0.0.0.0.0.0.0.0.0.0.+.,         @.0.0.0.0.0.0.0.0.0.",
"0.0.0.0.0.0.0.0.0.0.(         X R 0.0.0.0.0.0.0.0.0.0.0.0.0.0.0.0.! +         ~ 0.0.0.0.0.0.0.0.0.0.",
"0.0.0.0.0.0.0.0.0.0.0.T           a ) 0.0.0.0.0.0.0.0.0.0.0.0.' g           Y 0.0.0.0.0.0.0.0.0.0.0.",
"0.0.0.0.0.0.0.0.0.0.0.0.^ .           r J | 4.0.0.0.0.4.o.L u             ~ 0.0.0.0.0.0.0.0.0.0.0.0.",
"0.0.0.0.0.0.0.0.0.0.0.0.0...r               * 0 s d w =               e  .0.0.0.0.0.0.0.0.0.0.0.0.0.",
"0.0.0.0.0.0.0.0.0.0.0.0.0.0.0.J *                                 * H 0.0.0.0.0.0.0.0.0.0.0.0.0.0.0.",
"0.0.0.0.0.0.0.0.0.0.0.0.0.0.0.0.,.J 5                         5 H >.0.0.0.0.0.0.0.0.0.0.0.0.0.0.0.0.",
"0.0.0.0.0.0.0.0.0.0.0.0.0.0.0.0.0.0.0.{ D l 8 - $ $ - 7 l S [ 0.0.0.0.0.0.0.0.0.0.0.0.0.0.0.0.0.0.0.",
"0.0.0.0.0.0.0.0.0.0.0.0.0.0.0.0.0.0.0.0.0.0.0.0.0.0.0.0.0.0.0.0.0.0.0.0.0.0.0.0.0.0.0.0.0.0.0.0.0.0.",
"0.0.0.0.0.0.0.0.0.0.0.0.0.0.0.0.0.0.0.0.0.0.0.0.0.0.0.0.0.0.0.0.0.0.0.0.0.0.0.0.0.0.0.0.0.0.0.0.0.0.",
"0.0.0.0.0.0.0.0.0.0.0.0.0.0.0.0.0.0.0.0.0.0.0.0.0.0.0.0.0.0.0.0.0.0.0.0.0.0.0.0.0.0.0.0.0.0.0.0.0.0.",
"0.0.0.0.0.0.0.0.0.0.0.0.0.0.0.0.0.0.0.0.0.0.0.0.0.0.0.0.0.0.0.0.0.0.0.0.0.0.0.0.0.0.0.0.0.0.0.0.0.0.",
"0.0.0.0.0.0.0.0.0.0.0.0.0.0.0.0.0.0.0.0.0.0.0.0.0.0.0.0.0.0.0.0.0.0.0.0.0.0.0.0.0.0.0.0.0.0.0.0.0.0.",
"0.0.0.0.0.0.0.0.0.0.0.0.0.0.0.0.0.0.0.0.0.0.0.0.0.0.0.0.0.0.0.0.0.0.0.0.0.0.0.0.0.0.0.0.0.0.0.0.0.0."
};
