/* XPM */
static char *windowMinimize_xpm[] = {
/* columns rows colors chars-per-pixel */
"50 50 29 1 ",
"  c #3A3A3A",
". c gray27",
"X c #4B4B4B",
"o c #4C4C4C",
"O c gray30",
"+ c #4E4E4E",
"@ c gray31",
"# c #505050",
"$ c gray44",
"% c #727272",
"& c #767676",
"* c #797979",
"= c gray48",
"- c #7C7C7C",
"; c gray49",
": c #7E7E7E",
"> c gray50",
", c gray51",
"< c #888888",
"1 c #8D8D8D",
"2 c #909090",
"3 c #B9B9B9",
"4 c gray74",
"5 c gray77",
"6 c #C5C5C5",
"7 c #E6E6E6",
"8 c #ECECEC",
"9 c #FDFDFD",
"0 c white",
/* pixels */
"00000000000000000000000000000000000000000000000000",
"00000000000000000000000000000000000000000000000000",
"00000000000000000000000000000000000000000000000000",
"00000000000000000000000000000000000000000000000000",
"00000000000000000000000000000000000000000000000000",
"00000000000000000000000000000000000000000000000000",
"00000000000000000000000000000000000000000000000000",
"00000000000000000000000000000000000000000000000000",
"00000000000000000000000000000000000000000000000000",
"00000000000000000000000000000000000000000000000000",
"00000000000000000000000000000000000000000000000000",
"00000000000000000000000000000000000000000000000000",
"00000000000000000000000000000000000000000000000000",
"00000000000000000000000000000000000000000000000000",
"00000000000000000000000000000000000000000000000000",
"00000000000000000000000000000000000000000000000000",
"00000000000000000000000000000000000000000000000000",
"00000000000000000000000000000000000000000000000000",
"00000000000000000000000000000000000000000000000000",
"00000000000000000000000000000000000000000000000000",
"00000000000000000000000000000000000000000000000000",
"00000000000000000000000000000000000000000000000000",
"0000000000006:*;;:-;:;;;;;>*->;;;;;=-4900000000000",
"000000000005X                        .300000000000",
"00000000000&                          $00000000000",
"00000000000%                          $00000000000",
"000000000001                          ,00000000000",
"0000000000082oO###O@#######o+######OX<700000000000",
"00000000000000000000000000000000000000000000000000",
"00000000000000000000000000000000000000000000000000",
"00000000000000000000000000000000000000000000000000",
"00000000000000000000000000000000000000000000000000",
"00000000000000000000000000000000000000000000000000",
"00000000000000000000000000000000000000000000000000",
"00000000000000000000000000000000000000000000000000",
"00000000000000000000000000000000000000000000000000",
"00000000000000000000000000000000000000000000000000",
"00000000000000000000000000000000000000000000000000",
"00000000000000000000000000000000000000000000000000",
"00000000000000000000000000000000000000000000000000",
"00000000000000000000000000000000000000000000000000",
"00000000000000000000000000000000000000000000000000",
"00000000000000000000000000000000000000000000000000",
"00000000000000000000000000000000000000000000000000",
"00000000000000000000000000000000000000000000000000",
"00000000000000000000000000000000000000000000000000",
"00000000000000000000000000000000000000000000000000",
"00000000000000000000000000000000000000000000000000",
"00000000000000000000000000000000000000000000000000",
"00000000000000000000000000000000000000000000000000"
};
