/* XPM */
static const char *pauseMouseOver_xpm[] = {
/* columns rows colors chars-per-pixel */
"50 50 148 2 ",
"   c #000002",
".  c #0D0E10",
"X  c #0F1011",
"o  c #151515",
"O  c #181716",
"+  c #1E1D1B",
"@  c #201E1C",
"#  c #3C342E",
"$  c #413B33",
"%  c #4F3D46",
"&  c #594E42",
"*  c #514F4F",
"=  c #5C5144",
"-  c #4E5B51",
";  c #525752",
":  c #525852",
">  c #644B4C",
",  c #605447",
"<  c #635649",
"1  c #6A5C4E",
"2  c #7E5450",
"3  c #666455",
"4  c #686656",
"5  c #6C6959",
"6  c #716D5C",
"7  c #7D6C5A",
"8  c #6A715F",
"9  c #777260",
"0  c #7D7764",
"q  c #815652",
"w  c #885151",
"e  c #855A55",
"r  c #8A5E59",
"t  c #856756",
"y  c #8E615B",
"u  c #816F5C",
"i  c #8C6C5A",
"p  c #92655E",
"a  c #84725E",
"s  c #88755F",
"d  c #91715E",
"f  c #956760",
"g  c #966861",
"h  c #9A6B64",
"j  c #867460",
"k  c #897560",
"l  c #8E7963",
"z  c #8F7C6B",
"x  c #957561",
"c  c #927D66",
"v  c #9C7A66",
"b  c #A07169",
"n  c #A8776E",
"m  c #539466",
"M  c #559668",
"N  c #539968",
"B  c #37C46E",
"V  c #38C36C",
"C  c #39C671",
"Z  c #3DC974",
"A  c #44CF79",
"S  c #46D17A",
"D  c #4BD47C",
"F  c #51D97E",
"G  c #968067",
"H  c #968068",
"J  c #9C856D",
"K  c #988472",
"L  c #938A74",
"P  c #998F78",
"I  c #A3816B",
"U  c #A0886E",
"Y  c #A58C72",
"T  c #AB8C73",
"R  c #B38075",
"E  c #BE8A7C",
"W  c #AB9176",
"Q  c #A0947C",
"!  c #AC9378",
"~  c #B1977B",
"^  c #BA937B",
"/  c #B59A7E",
"(  c #55DC81",
")  c #57E585",
"_  c #58E786",
"`  c #57EA87",
"'  c #5BE887",
"]  c #58EF89",
"[  c #58F089",
"{  c #54FC8D",
"}  c #59FD8F",
"|  c #9E9085",
" . c #A29A86",
".. c #A29C89",
"X. c #B79D80",
"o. c #B99E81",
"O. c #BCA083",
"+. c #A9A290",
"@. c #CF8E86",
"#. c #D49C8B",
"$. c #C1A587",
"%. c #C9A185",
"&. c #C1A588",
"*. c #C6AB8C",
"=. c #CBAD8D",
"-. c #CDB292",
";. c #D4B494",
":. c #D9B997",
">. c #D6BA99",
",. c #DABA98",
"<. c #E1BF9C",
"1. c #EBBD9D",
"2. c #F4BA9C",
"3. c #DEC09D",
"4. c #E3C19E",
"5. c #E6C4A0",
"6. c #E9C5A2",
"7. c #EECBA6",
"8. c #EFCCA9",
"9. c #F1CCA6",
"0. c #FBCAA7",
"q. c #F3CEA9",
"w. c #F5D1AA",
"e. c #FAD5AE",
"r. c #F1CBB4",
"t. c #F1CEB9",
"y. c #FAD6B1",
"u. c #FCD9B4",
"i. c #F2D1BD",
"p. c #FBDCBB",
"a. c #FEE0B7",
"s. c #FFE3BA",
"d. c #FFEABE",
"f. c #F2D3C2",
"g. c #FBDFC1",
"h. c #FBE1C4",
"j. c #FFEDC1",
"k. c #FCE3C8",
"l. c #FFEDCE",
"z. c #FFF3C5",
"x. c #FFF7C9",
"c. c #FFFCCD",
"v. c #F5E1D2",
"b. c #FFEED4",
"n. c #FFF1D5",
"m. c #FFFFD2",
"M. c #FFF3DA",
"N. c #FFFFE7",
/* pixels */
") ) ) ) ) ) ) ) ) ) ) ) ) ) ) ) ) ) ) ) ) ) ) ) ) ) [ ' ' ' ` F ' ' ) ) ) ) F ' ' F ` ` _ ) ) ) ) ) ",
") ) ) ) ) ) ) ) ) ) ) ) ) ) ) ) ) ) ) ) ) ) ) ) ) ) F F F ' ' ] ' F ) ) ) ) ` F ` ' F ' _ _ ) ) ) ) ",
") ) ) ) ] ] ] ] ] ] ` ` ] ] ] ` ] ] ] ] ` ] ] ] ] ` ] ] } F ] ] ` ] ] ] [ ] ] ] ] ] } ] ] [ ` ) ) ) ",
") ) ) _ F S D D A A ( ( D S D D D D S D D D S D D D D D F D D D D D D S D D S D D D D D D D ( ` ) ) ",
") ) ] ( - * ; ; : : : : : : : : ; ; : : : : : : : : : : ; : : : : : : : : : : : ; ; : : : % N { ) ) ",
") ) ] V | v.f.f.f.f.f.f.f.f.f.f.i.i.f.f.f.f.f.f.f.f.f.f.i.i.f.p.f.i.f.f.f.f.i.i.t.q.0.7.1.@.m { ) ) ",
") ) ] V +.N.b.n.n.n.n.b.b.b.b.b.b.b.b.b.b.b.b.b.b.b.b.b.b.b.b.b.b.b.b.b.b.b.b.l.k.s.a.w.9.#.N { ) ) ",
") ) ] B ..M.k.k.k.k.k.k.k.k.k.k.k.k.k.k.k.k.k.k.k.k.k.k.h.k.k.k.k.k.k.k.k.k.h.p.u.u.9.<.:.E M { ) ) ",
") ) ] V ..M.k.k.h.k.g.h.g.g.h.h.g.g.g.g.g.h.g.g.h.h.g.g.h.g.h.h.g.g.g.g.g.g.p.p.u.9.4.;.-.n N { ) ) ",
") ) ] V ..n.h.h.h.s.g.g.g.p.g.p.g.g.g.p.g.p.g.p.p.p.p.p.g.p.p.g.g.p.g.g.g.p.p.y.w.5.:.%.$.n N { ) ) ",
") ) ] V ..n.g.g.p.p.p.p.p.p.p.p.p.p.p.u.p.p.p.p.p.p.p.p.p.p.p.p.p.u.p.p.p.u.y.w.9.,.=.$./ b N { ) ) ",
") ) ] V | b.g.p.p.p.p.p.u.u.y.u.u.u.p.y.u.y.u.u.u.u.u.u.y.y.y.u.p.y.y.y.u.y.w.q.4.:.=./ ~ h N { ) ) ",
") ) [ V | n.s.g.p.p.u.u.u.u.y.p.s.h.s.s.s.s.p.y.y.y.y.y.p.j.s.s.s.s.s.p.y.e.w.9.4.;.$.~ W h N { ) ) ",
") ) [ B  .n.p.p.p.u.u.y.u.w.j.a.6.8.8.8.7.q.j.u.e.y.y.h.a.6.8.8.8.7.w.j.u.w.9.6.,.-.$.~ T d N { ) ) ",
") ) ] B  .l.p.p.u.u.t.y.y.j.>.# o o O O o o u a.u.e.j.>.# X o o o o O a a.u.9.4.,.=./ ~ T p N { ) ) ",
") ) ] B  .l.p.p.p.u.y.e.u.a.#                 W z.u.a.#                 ! d.9.4.,.=.O.W W p N { ) ) ",
") ) ] B  .l.p.p.u.p.y.y.s.6.o   l -.O.*.*.$   7 c.s.4.o   z -.O.*.*.$   7 x.9.4.,.=.O.! T p N { ) ) ",
") ) ] B  .b.p.p.p.y.u.y.s.8.o   >.m.j.z.c.1   7 x.s.4..   3.c.z.d.c.<   s z.9.4.,.=.O.! W p N { ) ) ",
") ) [ B  .l.p.p.u.u.y.y.p.q.O   &.d.y.u.s.,   u z.s.6.o   *.d.e.u.a.=   s z.7.4.,.=.O.! W p N { ) ) ",
") ) [ B  .l.p.p.i.u.u.y.a.8.O   &.d.e.u.s.,   u x.a.6.o   *.d.e.u.s.&   a x.7.4.,.=.O.! W p N { ) ) ",
") ) [ B ..x.p.p.u.u.u.y.s.8.o   &.d.e.u.d.,   u x.s.6.o   *.j.y.u.a.&   s z.7.5.,.=.O.! W p N { ) ) ",
") ) ] B | n.p.p.u.u.y.y.a.8.O   &.j.e.u.s.,   a z.s.6.X   -.j.y.u.s.&   j z.7.5.,.=.O.! W p N { ) ) ",
") ) ] B | x.p.p.p.y.u.y.a.q.O   &.d.e.u.d.,   7 x.a.6.o   *.s.y.u.s.&   j z.7.5.,.=.O.! Y p N { ) ) ",
") ) [ B | l.p.p.p.u.y.y.h.8.O   &.d.e.u.s.,   a z.s.6.o   *.d.e.u.a.&   a z.7.5.,.=.O.! W p N { ) ) ",
") ) [ B ..l.p.p.y.y.y.y.d.6.O   $.d.e.u.s.,   u z.s.5.o   *.j.y.u.a.=   s z.7.5.,.=.O.! Y f N { ) ) ",
") ) [ B  .l.p.p.p.p.y.y.s.8.O   $.d.e.u.s.,   u z.s.5.o   *.d.y.u.s.&   s z.7.5.,.=.O.! Y f N { ) ) ",
") ) ] B  .l.p.p.y.y.y.y.s.8.o   $.d.e.u.d.,   u z.s.7.o   *.d.e.u.a.=   s z.7.5.,.=.O.! Y g N { ) ) ",
") ) ] B  .b.p.p.p.p.y.y.s.8.o   $.d.e.u.s.,   a z.s.8.o   *.d.e.u.s.&   s z.7.4.,.=.O.! Y g N { ) ) ",
") ) ] B  .l.p.p.u.y.y.y.s.9.O   &.d.y.a.s.,   7 z.a.8.o   =.j.y.u.a.&   j z.7.5.,.=.O.! W f N { ) ) ",
") ) ] B  .l.p.p.p.u.y.y.s.9.O   &.d.e.u.d.<   a z.a.7.O   *.s.y.u.s.&   j z.7.5.,.=.O.! Y g N { ) ) ",
") ) ] V  .l.p.p.u.u.y.y.s.7.O   $.d.e.u.s.=   7 z.s.8.o   *.j.y.u.s.&   j z.7.5.,.=.O.! T g N { ) ) ",
") ) ] V  .b.p.p.p.u.y.y.s.7.O   $.d.e.u.d.<   a z.s.8.O   *.s.e.u.a.&   j z.7.5.,.=.O.! Y g N { ) ) ",
") ) [ B  .l.p.p.p.y.u.y.a.8.o   *.z.u.u.z.<   a z.a.9.o   -.j.u.a.d.=   s z.7.4.,.=.O.! T g N { ) ) ",
") ) ] B  .l.p.p.p.y.u.y.s.8.o   =.c.a.d.x.,   7 x.a.6.o   =.c.a.j.z.=   u z.7.4.,.=.O.! Y g N { ) ) ",
") ) ] B  .l.p.p.p.y.u.y.a.q.o   $ , = = & @   a x.a.w.o   $ < & = & @   a x.9.4.,.=.O.! W g N { ) ) ",
") ) [ B  .l.p.p.u.y.y.y.u.d.a               @ ,.s.e.d.a               @ 4.u.9.4.,.=.O.! Y p N { ) ) ",
") ) [ B | n.p.p.u.y.e.e.e.y.a.! 7 s s a 7 s 3.d.w.w.e.a.! 7 s s a a s 4.s.9.7.4.;.=./ ! Y g N { ) ) ",
") ) [ B  .l.p.u.u.e.e.q.q.7.w.d.d.z.d.z.z.d.u.9.7.9.7.w.s.z.d.z.j.d.z.u.9.4.4.,.;.*./ ! U p N { ) ) ",
") ) [ B  .j.y.u.e.q.9.7.7.4.4.4.4.4.4.4.4.4.4.4.4.4.6.6.4.6.4.4.4.5.5.4.4.4.:.;.=.O.~ U U p N { ) ) ",
") ) ] B  .d.y.w.9.6.4.4.,.,.,.,.,.,.4.,.,.,.:.3.,.,.,.:.,.:.,.,.,.,.,.,.:.:.;.*.$./ ! J J y N } ) ) ",
") ) ] B  .s.q.6.4.:.;.;.=.=.=.=.=.=.=.-.=.=.=.=.=.=.=.=.=.=.=.=.=.=.=.=.=.*.$.o./ ! U G G y N { ) ) ",
") _ ] C Q u.5.,.-.*.O.O.O./ / O.O./ / / / / / / X.X./ X.X.X.X./ / X.X./ / / ~ ! W J G s c e N { ) ) ",
") ) ] Z P 0.;.*.O./ ! ! Y U Y Y U U Y U Y U Y Y Y Y Y U Y Y Y Y Y Y Y Y Y U K J G c s a s q N { ) ) ",
") ) ] Z L 1.&.X.! Y J J G G c z c z G z G G G l c c c c c c c c c c c c c c l l s a 7 7 u 2 N } ) ) ",
") ) ] Z L 2.%.^ T I v l d d d d k d d g d d s g s d d d i k g s d d d d i k i i i t t t i w m { ) ) ",
") ) ] D 8 z 0 9 5 5 5 3 4 4 4 4 3 3 3 3 3 3 4 3 3 3 3 3 3 3 3 3 3 3 3 3 3 3 3 3 3 3 3 3 3 > N } ) ) ",
") ) ) ' ( C Z S D ( S ( ( D D D ( S ( S D ( ( S D F D D D ( ( D S ( D D D ( ( D D D F D D F F ` ) ) ",
") ) ) _ [ [ [ [ ` ` ` [ ` [ [ [ ] ] ` ] ] ] ] ] ] ] ] ] ] ] ` ] ] ] ] ] ] ] ] ] ] ] ] ] ] } [ F ) ) ",
") ) ) ) ) ) ) ) ) ) ) ) ) ) ) ) ) ) ) ) ) ) ) ) ) ) ) ) ) ) ) ) ) ) ) ) ) ) ) ) ) ) ) ) ) ) ) ) ) ) ",
") ) ) ) ) ) ) ) ) ) ) ) ) ) ) ) ) ) ) ) ) ) ) ) ) ) ) ) ) ) ) ) ) ) ) ) ) ) ) ) ) ) ) ) ) ) ) ) ) ) "
};
