/* XPM */
static const char *pauseDisabled_xpm[] = {
/* columns rows colors chars-per-pixel */
"50 50 243 2 ",
"   c #3F3B3B",
".  c gray31",
"X  c #524E4E",
"o  c #585959",
"O  c #585A5A",
"+  c #5B5E5E",
"@  c #645D5D",
"#  c #6A6565",
"$  c #696B6B",
"%  c #6E6868",
"&  c #6A6C6C",
"*  c #6B6D6D",
"=  c #6D6F6F",
"-  c #706B6B",
";  c #726D6D",
":  c #736E6E",
">  c #746F6F",
",  c #6F7070",
"<  c #767171",
"1  c #737474",
"2  c #737676",
"3  c #7B7676",
"4  c #797B7B",
"5  c gray48",
"6  c #7B7B7B",
"7  c #7C7C7C",
"8  c gray49",
"9  c #7F7D7D",
"0  c #7E7E7E",
"q  c #7F7E7E",
"w  c gray50",
"e  c #807E7E",
"r  c #817F7F",
"t  c #837E7E",
"y  c #808080",
"u  c #818181",
"i  c #828181",
"p  c gray51",
"a  c #838383",
"s  c #868585",
"d  c #878585",
"f  c #858686",
"g  c #868686",
"h  c #878686",
"j  c gray53",
"k  c #888787",
"l  c #888888",
"z  c #888989",
"x  c #898989",
"c  c gray54",
"v  c #8A8B8B",
"b  c #8F8A8A",
"n  c #8B8C8C",
"m  c gray55",
"M  c #8D8E8E",
"N  c gray56",
"B  c #908F8F",
"V  c #909090",
"C  c gray57",
"Z  c #929292",
"A  c #939292",
"S  c #939393",
"D  c #939494",
"F  c gray58",
"G  c #949595",
"H  c #959595",
"J  c #959696",
"K  c gray59",
"L  c #969797",
"P  c #979797",
"I  c #9D9595",
"U  c #989898",
"Y  c #989999",
"T  c #999A9A",
"R  c #9A9A9A",
"E  c #9A9B9B",
"W  c #9B9B9B",
"Q  c #9D9B9B",
"!  c #9B9C9C",
"~  c #9B9D9D",
"^  c gray61",
"/  c #9C9D9D",
"(  c #9D9D9D",
")  c #9D9E9E",
"_  c #9D9F9F",
"`  c gray62",
"'  c #9E9F9F",
"]  c #9F9F9F",
"[  c #93A2A2",
"{  c #94A2A2",
"}  c #97A7A7",
"|  c #9EA0A0",
" . c #9FA0A0",
".. c #99A8A8",
"X. c #98A9A9",
"o. c #99AAAA",
"O. c #A0A0A0",
"+. c #A1A2A2",
"@. c #A2A2A2",
"#. c gray64",
"$. c #A7A1A1",
"%. c #A3A4A4",
"&. c #A4A5A5",
"*. c #A5A5A5",
"=. c #A5A6A6",
"-. c gray65",
";. c #A7A7A7",
":. c gray66",
">. c #A8A9A9",
",. c #A9A9A9",
"<. c #AAAAAA",
"1. c gray67",
"2. c #ACABAB",
"3. c #ADABAB",
"4. c #ACACAC",
"5. c gray68",
"6. c #AEADAD",
"7. c #AEAEAE",
"8. c gray69",
"9. c #B1B1B1",
"0. c #B2B1B1",
"q. c #B2B2B2",
"w. c gray70",
"e. c #B4B4B4",
"r. c gray71",
"t. c #B5B6B6",
"y. c #B6B6B6",
"u. c #B6B7B7",
"i. c #B7B7B7",
"p. c #B8B7B7",
"a. c gray72",
"s. c #B9B9B9",
"d. c gray73",
"f. c #BBBBBB",
"g. c #BBBCBC",
"h. c #BCBCBC",
"j. c gray",
"k. c gray75",
"l. c #BFC0C0",
"z. c #BBD8D8",
"x. c #BDDBDB",
"c. c #BEDBDB",
"v. c #BEDCDC",
"b. c #BFDCDC",
"n. c #C0C0C0",
"m. c #C1C1C1",
"M. c gray76",
"N. c #C3C3C3",
"B. c #C5C5C5",
"V. c #C6C6C6",
"C. c gray78",
"Z. c gray79",
"A. c #C9CACA",
"S. c #CACACA",
"D. c #CBCBCB",
"F. c #CDCDCD",
"G. c #CECECE",
"H. c gray81",
"J. c #D0CCCC",
"K. c #D0CECE",
"L. c #C0DDDD",
"P. c #C0DEDE",
"I. c #C2DFDF",
"U. c #D0D0D0",
"Y. c #D0D1D1",
"T. c gray82",
"R. c #D3D1D1",
"E. c #D1D2D2",
"W. c #D2D2D2",
"Q. c LightGray",
"!. c gray83",
"~. c #D5D5D5",
"^. c #D6D4D4",
"/. c gray84",
"(. c #D7D6D6",
"). c #D7D7D7",
"_. c #D8D6D6",
"`. c #D9D7D7",
"'. c #D8D8D8",
"]. c gray85",
"[. c #DBD9D9",
"{. c #DADADA",
"}. c gray86",
"|. c gainsboro",
" X c #DDDDDD",
".X c gray87",
"XX c #DFDFDF",
"oX c #C9E6E6",
"OX c #CBE9E9",
"+X c #CCE9E9",
"@X c #CDEAEA",
"#X c #CEEBEB",
"$X c #CEECEC",
"%X c #CFECEC",
"&X c #CFEDED",
"*X c #D4F1F1",
"=X c #D7F5F5",
"-X c #DCFAFA",
";X c #DEFFFF",
":X c #DFFFFF",
">X c gray88",
",X c #E1E1E1",
"<X c #E2E2E2",
"1X c gray89",
"2X c #E4E3E3",
"3X c #E4E4E4",
"4X c gray90",
"5X c #E6E6E6",
"6X c #E7E7E7",
"7X c #E8E4E4",
"8X c gray91",
"9X c #E9E9E9",
"0X c #EAE8E8",
"qX c #EAEAEA",
"wX c gray92",
"eX c #EFEDED",
"rX c #EFEFEF",
"tX c #F1EFEF",
"yX c LightCyan",
"uX c #E1FFFF",
"iX c #E2FFFF",
"pX c #E3FFFF",
"aX c #E5FFFF",
"sX c #E9FFFF",
"dX c #EAFFFF",
"fX c #EBFFFF",
"gX c gray95",
"hX c #F3F3F3",
"jX c #F4F2F2",
"kX c #F5F3F3",
"lX c #F4F4F4",
"zX c gray96",
"xX c #F6F4F4",
"cX c #F7F5F5",
"vX c #F9F7F7",
"bX c #F2FFFF",
"nX c #F3FFFF",
"mX c #F4FFFF",
"MX c #F5FFFF",
"NX c #F6FFFF",
"BX c #F7FFFF",
"VX c #F8FFFF",
"CX c white",
/* pixels */
"yXyXyXyXyXyXyXyXyXyXyXyXyXyXyXyXyXyXyXyXyXyXyXyXyXyXyXyXyXyXyXyXyXyXyXyXyXyXyXyXyXyXyXyXyXyXyXyXyXyX",
"yXyXyXyXyXyXyXyXyXyXyXyXyXyXyXyXyXyXyXyXyXyXyXyXyXyXyXyXyXyXyXyXyXyXyXyXyXyXyXyXyXyXyXyXyXyXyXyXyXyX",
"yXyX:XuXsXdXdXdXdXdXdXdXdXdXdXdXdXdXdXdXdXdXdXdXdXdXdXdXdXdXdXdXdXdXdXdXdXdXdXdXdXdXdXdXdXfXaX;XyXyX",
"yXyXyXuX*X+X#X#X#X#X#X#X#X#X#X#X#X#X#X#X#X#X#X#X#X#X#X#X#X#X#X#X#X#X#X#X#X#X#X#X$X$X$X%X$X%X-XiXyXyX",
"yXyXdX=X+ . o o o o o o o o o o o o o o o o o o o o o o o o o o o o o o o o o o o o o o O   X.VXyXyX",
"yXyXfXc.A 7X`.`.`.`.`.`.`.`.`.`.`.`.`.`.`.`.`.`.`.`.`.`.`.`.`.`.`.`.`.`.`.`.`.`._.^.R.K.R.I { mXyXyX",
"yXyXdXz.=.CXhXlXlXzXzXlXlXlXlXlXlXlXlXlXlXlXlXlXlXlXlXlXlXlXlXlXlXlXlXlXlXlXlXhXgXrXwX6X,X$...bXyXyX",
"yXyXdXx. .vX8X8X8X9X9X8X8X8X8X8X8X8X8X8X8X8X8X8X8X8X8X8X8X8X8X8X8X8X8X8X8X8X8X6X3X,X XY.B.b } nXyXyX",
"yXyXdXx.| cX5X6X6X5X5X5X4X4X4X4X4X4X4X4X4X4X4X4X4X4X4X4X4X4X4X4X4X4X4X4X4X4X4X1X>X XT.l.r.t } MXyXyX",
"yXyXdXx.| xX4X3X4X3X<X<X<X<X<X<X<X<X<X<X<X<X<X<X<X<X<X<X<X<X<X<X<X<X<X<X<X<X,XXX|.Q.M.q.,.3 } MXyXyX",
"yXyXdXc.' kX3X1X<X,XXXXXXX.X.X.X.X.X.X.X.X.X.X.X.X.X.X.X.X.X.X.X.X.X.X.X.X.X X|.~.V.y.:.+.< } MXyXyX",
"yXyXdXc.' kX1X<X,XXX.X|.|.|.}.}.}.}.}.}.}.}.}.}.}.}.}.}.}.}.}.}.}.}.}.}.}.}.}.).F.k.8.@./ > } NXyXyX",
"yXyXdXc.' kX1X<X>X.X X}.{.{.]. XXX.X.X.XXX.X}.].{.{.{.]. XXX.X.X.XXX.X}.].{.'.E.C.d.1.] W : } NXyXyX",
"yXyXdXc.' kX1X<X>X X}.{.].'.>X X!.~.~.~.~.).,X|.'.].'.>X X!.~.~.~.~.).,X|.]./.H.B.a.<.` R : } NXyXyX",
"yXyXdXc.' kX1X<X>X.X}.{.].>XH.( V C Z Z C Z w. X}.].>XH.^ V C Z Z C Z w. X{.~.H.B.a.<.` R : } NXyXyX",
"yXyXdXc.' kX1X<X>X.X}.{.|. X( u x x x x l j a n.1X|. X( y x x x x l j a n.1X~.H.B.a.<.` R : } NXyXyX",
"yXyXdXc.' kX1X<X>X.X}.{..X!.N x i.G.C.Z.S.O.8 9.4X.XQ.N c a.G.C.Z.S.O.8 q.5X~.H.B.a.<.` R : } NXyXyX",
"yXyXdXc.' kX1X<X>X.X}.{..X~.C x G.qX,X1X8X4.6 q.3X.XW.V c U.qX,X1X6X<.6 r.4X~.H.B.a.<.` R : } NXyXyX",
"yXyXdXc.' kX1X<X>X.X}.{..X~.Z x C.,X].}.XX,.7 w.3X.XQ.C c Z.,X].}..X;.7 r.4X~.H.B.a.<.` R : } NXyXyX",
"yXyXdXc.' kX1X<X>X.X}.{..X~.Z x C.,X].}.XX,.7 w.3X.XQ.C c Z.,X].}..X;.7 r.4X~.H.B.a.<.` R : } NXyXyX",
"yXyXdXc.' kX1X<X>X.X}.{..X~.Z x C.,X].}.XX,.7 w.3X.XQ.C c Z.,X].}..X;.7 r.4X~.H.B.a.<.` R : } NXyXyX",
"yXyXdXc.' kX1X<X>X.X}.{..X~.Z x C.,X].}.XX,.7 w.3X.XQ.C c Z.,X].}..X;.7 r.4X~.H.B.a.<.` R : } NXyXyX",
"yXyXdXc.' kX1X<X>X.X}.{..X~.Z x C.,X].}.XX,.7 w.3X.XQ.C c Z.,X].}..X;.7 r.4X~.H.B.a.<.` R : } NXyXyX",
"yXyXdXc.' kX1X<X>X.X}.{..X~.Z x C.,X].}.XX,.7 w.3X.XQ.C c Z.,X].}..X;.7 r.4X~.H.B.a.<.` R : } NXyXyX",
"yXyXdXc.' kX1X<X>X.X}.{..X~.Z x C.,X].}.XX,.7 w.3X.XQ.C c Z.,X].}..X;.7 r.4X~.H.B.a.<.` R : } NXyXyX",
"yXyXdXc.' kX1X<X>X.X}.{..X~.Z x C.,X].}.XX,.7 w.3X.XQ.C c Z.,X].}..X;.7 r.4X~.H.B.a.<.` R : } NXyXyX",
"yXyXdXc.' kX1X<X>X.X}.{..X~.Z x C.,X].}.XX,.7 w.3X.X!.Z c Z.,X].}..X;.7 r.4X~.H.B.a.<.` R : } NXyXyX",
"yXyXdXc.' kX1X<X>X.X}.{..X~.Z x C.,X].}.XX,.7 w.3X.X~.Z c Z.,X].}..X;.7 r.4X~.H.B.a.<.` R : } NXyXyX",
"yXyXdXc.' kX1X<X>X.X}.{..X~.Z x C.,X].}.XX,.7 w.3X.X~.Z c Z.,X].}..X;.7 r.4X~.H.B.a.<.` R : } NXyXyX",
"yXyXdXc.' kX1X<X>X.X}.{..X~.Z x C.,X].}.XX,.7 w.3X.X~.Z c Z.,X].}..X;.7 r.4X~.H.B.a.<.` R : } NXyXyX",
"yXyXdXc.' kX1X<X>X.X}.{..X~.Z x C.,X].}.XX,.7 w.3X.X~.Z c Z.,X].}..X;.7 r.4X~.H.B.a.<.` R : } NXyXyX",
"yXyXdXc.' kX1X<X>X.X}.{..X~.Z x C.,X].}.XX,.7 w.3X.X~.Z c Z.,X].}..X;.7 r.4X~.H.B.a.<.` R : } NXyXyX",
"yXyXdXc.' kX1X<X>X.X}.{..X~.Z x Z.1X}. X,X<.7 w.3X.X~.Z c D.1X}. X>X:.7 r.4X~.H.B.a.<.` R : } NXyXyX",
"yXyXdXc.' kX1X<X>X.X}.{..X!.C x S.6X.X,X3X,.6 9.3X.X!.V x D.6X.X,X1X:.6 w.4X~.H.B.a.<.` R : } NXyXyX",
"yXyXdXc.' kX1X<X>X.X}.{..X).Z j ] <.;.:.:.H 0 e.4X.X).Z j ] ,.;.:.;.H 0 e.4X~.H.B.a.<.` R : } NXyXyX",
"yXyXdXc.' kX1X<X>X.X}.{.}.,Xe.a 8 5 7 7 6 w K W.XX{.,Xe.a 8 6 7 7 6 w K W.XX~.H.B.a.<.` R : } NXyXyX",
"yXyXdXc.' kX1X,X>X.X}.{.].|..Xm.w.r.r.r.e.r.W.>X'.].|. Xm.w.r.r.r.w.r.W.>X'./.H.B.a.<.` R : } NXyXyX",
"yXyXdXc.' kX1X>XXX X}.{.'./.'.,X3X1X1X1X2X1X|./.(.)./.'.,X3X1X1X1X3X1X|././.Q.F.N.u.>.( E : } NXyXyX",
"yXyXdXc._ jX<X>X.X|.].!.T.T.T.T.T.T.T.T.T.T.T.T.T.T.T.T.T.T.T.T.T.T.T.T.T.U.F.C.j.w.-./ T : } NXyXyX",
"yXyXdXc._ jX,X.X|./.G.A.C.V.V.V.V.V.V.V.V.V.V.V.V.V.V.V.V.V.V.V.V.V.V.V.V.V.N.j.i.5.@.R U ; } NXyXyX",
"yXyXdXv.) tX.X|.W.C.n.g.s.p.p.p.p.p.p.p.p.p.p.p.p.p.p.p.p.p.p.p.p.p.p.p.p.a.t.0.2.&./ J L ; } NXyXyX",
"yXyXdXv./ eX{.H.m.r.6.>.-.*.*.*.*.*.*.*.*.*.*.*.*.*.*.*.*.*.*.*.*.*.*.*.*.*.%.+.) T G C S - } NXyXyX",
"yXyXdXb.~ 0XF.h.7.#.! P K H H H H H H H H H H H H H H H H H H H H H H H H H F S C N m n N % } NXyXyX",
"yXyXdXP.Y [.f.4.( D M v x x x x x x x x x x x x x x x x x x x x x x x x x x z k h g f g n # } NXyXyX",
"yXyXfXL.B J.3.Q B d i e q q q q q q q q q q q q q q q q q q q q q q q q q q 9 9 9 q q r s @ [ BXyXyX",
"yXyXdX&X2 p 4 1 , * & $ $ $ $ $ $ $ $ $ $ $ $ $ $ $ $ $ $ $ $ $ $ $ $ $ $ $ $ $ $ & & * = X o.BXyXyX",
"yXyXyXpX%XI.oXOX@X$X%X&X&X&X&X&X&X&X&X&X&X&X&X&X&X&X&X&X&X&X&X&X&X&X&X&X&X&X&X&X&X%X%X%X#X#X-XiXyXyX",
"yXyX:XuXsXdXdXdXdXdXdXdXdXdXdXdXdXdXdXdXdXdXdXdXdXdXdXdXdXdXdXdXdXdXdXdXdXdXdXdXdXdXdXdXdXfXaX;XyXyX",
"yXyXyXyXyXyXyXyXyXyXyXyXyXyXyXyXyXyXyXyXyXyXyXyXyXyXyXyXyXyXyXyXyXyXyXyXyXyXyXyXyXyXyXyXyXyXyXyXyXyX",
"yXyXyXyXyXyXyXyXyXyXyXyXyXyXyXyXyXyXyXyXyXyXyXyXyXyXyXyXyXyXyXyXyXyXyXyXyXyXyXyXyXyXyXyXyXyXyXyXyXyX"
};
