/* XPM */
static const char *recordMouseOver_xpm[] = {
/* columns rows colors chars-per-pixel */
"50 50 126 2 ",
"   c #7C1122",
".  c #7F2727",
"X  c #7C2929",
"o  c #632933",
"O  c #65413C",
"+  c #6A433E",
"@  c #4E3641",
"#  c #514A4B",
"$  c #4E594F",
"%  c #52544F",
"&  c #6F4540",
"*  c #754641",
"=  c #7A4843",
"-  c #69564C",
";  c #850118",
":  c #81181F",
">  c #88181E",
",  c #851424",
"<  c #8B1727",
"1  c #861B21",
"2  c #8D1C22",
"3  c #8F1828",
"4  c #951F25",
"5  c #911829",
"6  c #9C1C2C",
"7  c #A31E2E",
"8  c #832B2B",
"9  c #8D2F2F",
"0  c #9E2228",
"q  c #922D2D",
"w  c #933030",
"e  c #9E3434",
"r  c #A8252B",
"t  c #AE2232",
"y  c #B92536",
"u  c #B42A30",
"i  c #A43535",
"p  c #A93636",
"a  c #AB3939",
"s  c #B43B3B",
"d  c #BB3D3D",
"f  c #C32E34",
"g  c #C92139",
"h  c #CE293A",
"j  c #C23F3F",
"k  c #ED2835",
"l  c #E3393F",
"z  c #F43E44",
"x  c #8B4041",
"c  c #944344",
"v  c #93514C",
"b  c #9C524E",
"n  c #9F5D58",
"m  c #A05651",
"M  c #9F635E",
"N  c #9F6560",
"B  c #A06762",
"V  c #A06A66",
"C  c #A06E6A",
"Z  c #A6736F",
"A  c #C64141",
"S  c #CC4343",
"D  c #D44646",
"F  c #DA4747",
"G  c #DF4949",
"H  c #E64147",
"J  c #E9444A",
"K  c #E34B4B",
"L  c #EC4D4D",
"P  c #FF454C",
"I  c #F14E4E",
"U  c #EC5258",
"Y  c #F35151",
"T  c #FF5252",
"R  c #FF555B",
"E  c #F45C5C",
"W  c #EB646B",
"Q  c #F46565",
"!  c #FF6565",
"~  c #FF6268",
"^  c #F56C6C",
"/  c #FF696F",
"(  c #FF6F75",
")  c #ED7177",
"_  c #F57272",
"`  c #FF7477",
"'  c #FF747A",
"]  c #F67D7D",
"[  c #539565",
"{  c #529A67",
"}  c #519B68",
"|  c #36D175",
" . c #39D277",
".. c #38D67B",
"X. c #39DA7F",
"o. c #4AD77C",
"O. c #4BD87D",
"+. c #ED7A80",
"@. c #FF7C82",
"#. c #3CDD82",
"$. c #4CDD82",
"%. c #53DD81",
"&. c #46E085",
"*. c #4CE287",
"=. c #4DE388",
"-. c #57E585",
";. c #59E586",
":. c #57EA87",
">. c #58EF89",
",. c #58F089",
"<. c #59FE8F",
"1. c #55FF91",
"2. c #58FE90",
"3. c #ED8086",
"4. c #EE858B",
"5. c #EE888E",
"6. c #F78484",
"7. c #FF8383",
"8. c #F5838F",
"9. c #FF858B",
"0. c #F78989",
"q. c #FF8C8C",
"w. c #FF8B91",
"e. c #FF9494",
"r. c #FF959B",
"t. c #FF9898",
/* pixels */
"-.-.-.-.-.-.-.-.-.-.-.-.-.-.-.-.-.-.-.-.-.-.-.-.-.-.-.-.-.-.-.-.-.-.-.-.-.-.-.-.-.-.-.-.;.-.-.-.-.-.",
"-.-.-.-.-.-.-.-.-.-.-.-.-.-.-.-.-.-.-.-.-.-.-.-.-.-.-.-.-.-.-.-.-.-.-.-.-.-.-.-.-.-.-.-.;.;.-.-.-.-.",
"-.-.-.-.>.,.>.>.>.>.>.>.>.>.>.>.>.>.>.>.>.>.>.>.>.>.>.>.>.>.>.>.>.>.>.,.,.>.>.,.,.,.,.>.,.,.>.O.-.-.",
"-.-.-.;.%.o.O.O.O.O.O.o.O.O.o.O.O.O.O.O.O.O.O.O.O.O.O.O.O.o.O.O.O.O.o.o.O.O.o.O.$.O.O.$.$.O.;.-.-.-.",
"-.-.,.%.$ # % % $ $ % % % % % % % % % % % % % % % % % % % % % % % % % % % $ % $ % % % % # @ { 1.-.-.",
"-.;.,.| N 8.5.5.5.5.4.4.4.4.4.4.4.4.4.4.4.4.4.4.4.4.4.4.4.4.4.8.4.4.4.4.4.4.+.] ) W U J H g [ 1.-.-.",
"-.-.>.| Z r.t.t.t.t.t.e.e.e.e.e.e.e.e.e.e.e.e.e.e.e.e.e.e.e.e.e.e.e.e.e.e.w.q.7.` ! T I J h [ 1.-.-.",
"-.-.,.| Z w.5.0.e.0.0.0.0.0.0.0.6.0.0.0.0.6.0.0.0.0.0.0.6.0.0.0.0.0.6.0.0.6.6._ Q Y L F D y [ <.-.-.",
"-.-.>. .C 9.6.0.6.6.] ] ] ] ] ] ] ] ] ] ] ] ] ] ] ] ] ] ] ] ] ] ] ] ] ] ] ) ^ Q E L G S j t [ 1.-.-.",
"-.-.>...V @.@.] ] ] ] ) _ _ _ _ _ _ _ ^ _ _ _ ^ ^ ^ ^ ^ _ _ _ _ _ ^ _ _ _ ^ Q Y J G D d d 6 [ 1.-.-.",
"-.-.>...V @.] ] _ _ ^ ^ Q ^ ^ Q Q Q Q ^ Q ^ ^ Q ^ ^ ^ ^ Q ^ ^ Q Q ^ Q ^ Q E E I K F S d u 6 [ 1.-.-.",
"-.-.>...B ' _ _ _ ^ Q Q Q Q E E Q E Q E E E E Q E E E E E E E E E E E E E E I L K D j a p 6 [ 1.-.-.",
"-.-.>...N ' _ _ ^ Q Q E E E E E E E E Y E E E E E E E E E E E E E E Y E Y Y L K F D d a i 5 [ 2.-.-.",
"-.-.>...N ( ^ ^ Q Q E E E Y Y Y Y Y E Y Y Y Y Y Y Y Y Y U Y Y Y Y E Y E Y I L K D A d a i 3 [ 2.-.-.",
"-.-.>...N ( _ ^ Q E E Y Y Y E Y Y Y Y Y Y Y Y Y Y Y Y Y Y Y Y Y Y Y Y Y Y I L K F A s a i 3 [ 1.-.-.",
"-.-.>...N ( ^ ^ Q E E E Y Y Y Y Y Y I Y Y Y Y Y Y Y Y Y Y Y Y Y Y Y Y I Y Y K G D A s i i < [ 1.-.-.",
"-.-.,...M ( ^ ^ Q E E E Y Y Y Y Y Y Y Y I Y Y Y Y Y Y Y Y Y Y I Y Y I Y I L L G D A s p i 3 [ 1.-.-.",
"-.-.>...N ( ^ ^ Q E E Y Y Y Y Y Y Y Y I Y Y Y I Y I Y Y Y Y Y Y Y I Y Y Y L K G D A s p i 3 [ 2.-.-.",
"-.-.>...N ` ^ ^ Q E E E Y Y Y Y I Y Y Y Y Y Y Y Y I I Y Y I Y I I T Y I Y L L G D A d i i 3 [ 1.-.-.",
"-.-.>...M ( ^ ^ Q E E Y E Y Y Y Y Y Y I Y Y Y Y Y I T I Y Y Y Y Y Y Y Y Y L L G D A s a i 5 [ 1.-.-.",
"-.-.>...N ` ^ ^ Q E E Y Y Y Y Y Y Y Y I Y Y T I Y Y Y Y Y I T Y Y Y Y Y Y L K K D S s p e 3 [ 1.-.-.",
"-.-.>...M ` ^ ^ Q E E Y Y Y Y Y Y I Y Y I Y I I Y I Y I I I Y Y I Y I Y Y L L G D A d p i 5 [ 1.-.-.",
"-.-.>...M ` ^ ^ Q E E E Y Y Y Y Y Y Y Y Y I Y I I I Y Y Y Y Y Y Y Y Y Y Y L L G D A s p i 3 [ 1.-.-.",
"-.-.,...M ` ^ ^ Q E E Y Y Y Y Y Y Y Y Y Y Y Y Y I I Y Y I Y I Y I Y Y Y Y L K G D A d i e 3 [ 1.-.-.",
"-.-.>...N ( _ ^ Q E E Y Y Y Y Y Y Y T I Y Y Y Y T Y I Y Y Y Y Y Y I Y I Y I K K D A s p i 5 [ 1.-.-.",
"-.-.>...N ( ^ ^ Q E E Y E Y Y Y Y Y I I I Y I Y Y Y Y Y Y I I I Y Y Y Y Y L J G D S s p i 5 [ 1.-.-.",
"-.-.>...M ( ^ ^ Q E E E Y Y Y Y Y Y Y I Y Y Y Y Y Y Y Y Y Y I T Y I Y Y Y L L G D A s p e 3 [ 1.-.-.",
"-.-.>...N ( ^ ^ Q E E Y Y Y Y Y Y Y Y Y I Y Y Y Y Y Y I Y Y Y Y Y Y I Y Y L K K D A s i i 3 [ 1.-.-.",
"-.-.>...N ( ^ ^ Q E E E Y Y Y Y Y Y Y I I T I Y Y Y Y Y Y Y Y I Y I Y I Y I L G D A s p i < [ 1.-.-.",
"-.-.>...N ( ^ ^ Q E E Y Y Y Y Y I Y Y Y I I Y Y Y Y Y Y I Y Y Y Y Y Y Y Y L K G D A d p i 3 [ <.-.-.",
"-.-.>...N ( ^ ^ Q E E Y Y Y T Y I Y Y Y Y Y Y Y I Y T Y Y I Y I Y Y Y Y I I L G D A s p i < [ 1.-.-.",
"-.-.>...N ( ^ ^ Q E E E Y Y I I I Y Y I Y I Y I Y Y I I I Y Y Y Y Y Y Y I L K G D A d p i 3 [ <.-.-.",
"-.-.>...N ( ^ Q Q E E Y Y Y Y Y Y Y Y Y Y Y Y I Y I Y Y Y Y Y Y Y Y Y Y L L L G D A s a e 5 { 1.-.-.",
"-.-.,...N ( _ ^ Q E E Y Y Y Y Y Y Y Y I Y I Y Y Y Y I Y Y I Y Y Y Y Y Y Y Y L G D A s i i 3 [ 1.-.-.",
"-.-.>...N ( ^ Q Q E E E Y Y Y Y Y Y Y Y Y Y Y Y Y Y Y Y Y Y Y Y Y Y Y I Y L L G D A s a i 5 [ 1.-.-.",
"-.-.>...N ( _ ^ Q E E Y E Y Y Y Y Y Y U Y I Y I I Y I Y Y I Y Y Y I Y Y Y L K G D A s a i 5 [ 1.-.-.",
"-.-.>...N ( ^ ^ Q E Y Y I I I I I L I L I I Y L I I Y I I L L L L L Y I I L K F F h d i e 3 [ <.-.-.",
"-.-.>...M / Q E E Y Y L L L L K L L L L K K L L K L K L L L L L L L K L L G G F S m a i e < [ <.-.-.",
"-.-.>...M ~ E E I L L K K K G G G G G G K G G G K G G G G G G G G G G G G F D S A d a i e < [ 1.-.-.",
"-.-.>.#.n R Y L J K G F D D D D D D D D D D D D D D D D D D D D D D D D D S S A d s i e q , [ 1.-.-.",
"-.-.,.X.b P L K F D S S A A A A A A j j A A A j A A A j A j A j A A A A A A d s s p e 9 w , [ 1.-.-.",
"-.-.,.#.b P G D S j d d s d s a s s s s s s s s s a s s s s s s s s a s s a a a e e 9 9 8 1 [ 2.-.-.",
"-.-.>.X.v P S A d a a p e i e e e e e i e e e e e e e i e e i e e e e e e e w w q 9 8 8 8   [ 1.-.-.",
"-.-.>.#.v l d s p e w w w 9 9 9 9 9 9 9 9 9 9 9 9 9 9 9 9 9 9 9 9 9 9 9 9 9 9 9 8 8 X X 8   [ 2.-.-.",
"-.-.,.#.c k f u r 0 0 4 q 8 4 > 2 2 2 2 2 2 2 4 2 2 2 2 2 2 2 2 8 2 2 2 2 2 2 > 1 :     > ; { 1.-.-.",
"-.-.,.&.- x = * + + O O o O O + O O O O O O O O O O O O O O O O O O O O O O O O O O O O o o { 2.-.-.",
"-.-.-.;.$.#.&.&.*.*.*.*.*.*.*.*.*.*.*.*.*.*.*.*.*.*.*.*.*.*.*.*.*.*.-.&.*.*.*.*.=.=.*.-.*.*.-.;.-.-.",
"-.-.-.;.>.>.>.>.>.>.>.>.>.>.,.,.>.>.>.>.>.>.>.>.,.,.,.,.>.>.,.>.>.>.>.>.>.>.>.>.,.,.>.>.>.,.:.-.-.-.",
"-.-.-.-.-.-.-.-.-.-.-.-.-.-.-.-.-.-.-.-.-.-.-.-.;.-.-.-.-.-.-.-.;.;.-.-.-.-.-.-.-.-.-.-.-.-.-.-.-.-.",
"-.-.-.-.-.-.-.-.-.-.-.-.-.-.-.-.-.-.-.-.-.-.-.-.-.-.-.-.-.-.-.-.-.;.-.-.-.-.-.-.-.-.-.-.-.-.-.-.-.-."
};
