/* XPM */
static const char *recordDisabled_xpm[] = {
/* columns rows colors chars-per-pixel */
"50 50 218 2 ",
"   c #3F3B3B",
".  c gray31",
"X  c #524E4E",
"o  c #585959",
"O  c #585A5A",
"+  c #5B5E5E",
"@  c #645D5D",
"#  c #6A6565",
"$  c #696B6B",
"%  c #6E6868",
"&  c #6A6C6C",
"*  c #6B6D6D",
"=  c #6D6F6F",
"-  c #706B6B",
";  c #726D6D",
":  c #736E6E",
">  c #746F6F",
",  c #6F7070",
"<  c #767171",
"1  c #737474",
"2  c #737676",
"3  c #7B7676",
"4  c #797B7B",
"5  c #7F7D7D",
"6  c #7F7E7E",
"7  c #807E7E",
"8  c #817F7F",
"9  c #837E7E",
"0  c #828181",
"q  c gray51",
"w  c #868585",
"e  c #878585",
"r  c #858686",
"t  c #868686",
"y  c #878686",
"u  c #888787",
"i  c #888989",
"p  c #898989",
"a  c #8A8B8B",
"s  c #8F8A8A",
"d  c #8B8C8C",
"f  c gray55",
"g  c #8D8E8E",
"h  c gray56",
"j  c #908F8F",
"k  c gray57",
"l  c #939292",
"z  c #939393",
"x  c #939494",
"c  c gray58",
"v  c #949595",
"b  c #959595",
"n  c #959696",
"m  c gray59",
"M  c #969797",
"N  c #979797",
"B  c #9D9595",
"V  c #989898",
"C  c #989999",
"Z  c #999A9A",
"A  c #9A9A9A",
"S  c #9A9B9B",
"D  c #9B9B9B",
"F  c #9D9B9B",
"G  c #9B9C9C",
"H  c #9B9D9D",
"J  c #9C9D9D",
"K  c #9D9D9D",
"L  c #9D9E9E",
"P  c #9D9F9F",
"I  c gray62",
"U  c #9E9F9F",
"Y  c #9F9F9F",
"T  c #93A2A2",
"R  c #94A2A2",
"E  c #97A7A7",
"W  c #9EA0A0",
"Q  c #9FA0A0",
"!  c #99A8A8",
"~  c #98A9A9",
"^  c #99AAAA",
"/  c #A1A2A2",
"(  c #A2A2A2",
")  c gray64",
"_  c #A7A1A1",
"`  c #A3A4A4",
"'  c #A4A5A5",
"]  c #A5A5A5",
"[  c #A5A6A6",
"{  c gray65",
"}  c gray66",
"|  c #A8A9A9",
" . c #A9A9A9",
".. c #AAAAAA",
"X. c gray67",
"o. c #ACABAB",
"O. c #ADABAB",
"+. c #ACACAC",
"@. c gray68",
"#. c #AEADAD",
"$. c #AEAEAE",
"%. c gray69",
"&. c #B2B1B1",
"*. c #B2B2B2",
"=. c gray70",
"-. c gray71",
";. c #B5B6B6",
":. c #B6B6B6",
">. c #B6B7B7",
",. c #B7B7B7",
"<. c #B8B7B7",
"1. c gray72",
"2. c #B9B9B9",
"3. c gray73",
"4. c #BBBBBB",
"5. c #BBBCBC",
"6. c #BCBCBC",
"7. c gray",
"8. c gray75",
"9. c #BFC0C0",
"0. c #BBD8D8",
"q. c #BDDBDB",
"w. c #BEDBDB",
"e. c #BEDCDC",
"r. c #BFDCDC",
"t. c #C0C0C0",
"y. c #C1C1C1",
"u. c gray76",
"i. c #C3C3C3",
"p. c #C5C5C5",
"a. c #C6C6C6",
"s. c gray78",
"d. c #C9CACA",
"f. c #CDCDCD",
"g. c #CECECE",
"h. c gray81",
"j. c #D0CCCC",
"k. c #D0CECE",
"l. c #C0DDDD",
"z. c #C0DEDE",
"x. c #C2DFDF",
"c. c #D0D0D0",
"v. c #D0D1D1",
"b. c gray82",
"n. c #D3D1D1",
"m. c #D1D2D2",
"M. c #D2D2D2",
"N. c LightGray",
"B. c gray83",
"V. c #D5D5D5",
"C. c #D6D4D4",
"Z. c gray84",
"A. c #D7D7D7",
"S. c #D8D6D6",
"D. c #D9D7D7",
"F. c #D8D8D8",
"G. c gray85",
"H. c #DBD9D9",
"J. c #DADADA",
"K. c gray86",
"L. c gainsboro",
"P. c #DDDDDD",
"I. c gray87",
"U. c #DFDFDF",
"Y. c #C9E6E6",
"T. c #CBE9E9",
"R. c #CCE9E9",
"E. c #CDEAEA",
"W. c #CEEBEB",
"Q. c #CEECEC",
"!. c #CFECEC",
"~. c #CFEDED",
"^. c #D4F1F1",
"/. c #D7F5F5",
"(. c #DCFAFA",
"). c #DEFFFF",
"_. c #DFFFFF",
"`. c gray88",
"'. c #E1E1E1",
"]. c #E2E2E2",
"[. c gray89",
"{. c #E4E4E4",
"}. c gray90",
"|. c #E6E6E6",
" X c #E7E7E7",
".X c #E8E4E4",
"XX c gray91",
"oX c #E9E9E9",
"OX c #EAE8E8",
"+X c gray92",
"@X c #EFEDED",
"#X c #EFEFEF",
"$X c #F1EFEF",
"%X c LightCyan",
"&X c #E1FFFF",
"*X c #E2FFFF",
"=X c #E3FFFF",
"-X c #E5FFFF",
";X c #E9FFFF",
":X c #EAFFFF",
">X c #EBFFFF",
",X c gray95",
"<X c #F3F3F3",
"1X c #F4F2F2",
"2X c #F5F3F3",
"3X c #F4F4F4",
"4X c gray96",
"5X c #F6F4F4",
"6X c #F7F5F5",
"7X c #F9F7F7",
"8X c #F2FFFF",
"9X c #F3FFFF",
"0X c #F4FFFF",
"qX c #F5FFFF",
"wX c #F6FFFF",
"eX c #F7FFFF",
"rX c #F8FFFF",
"tX c white",
/* pixels */
"%X%X%X%X%X%X%X%X%X%X%X%X%X%X%X%X%X%X%X%X%X%X%X%X%X%X%X%X%X%X%X%X%X%X%X%X%X%X%X%X%X%X%X%X%X%X%X%X%X%X",
"%X%X%X%X%X%X%X%X%X%X%X%X%X%X%X%X%X%X%X%X%X%X%X%X%X%X%X%X%X%X%X%X%X%X%X%X%X%X%X%X%X%X%X%X%X%X%X%X%X%X",
"%X%X_.&X;X:X:X:X:X:X:X:X:X:X:X:X:X:X:X:X:X:X:X:X:X:X:X:X:X:X:X:X:X:X:X:X:X:X:X:X:X:X:X:X:X>X-X).%X%X",
"%X%X%X&X^.R.W.W.W.W.W.W.W.W.W.W.W.W.W.W.W.W.W.W.W.W.W.W.W.W.W.W.W.W.W.W.W.W.W.W.Q.Q.Q.!.Q.!.(.*X%X%X",
"%X%X:X/.+ . o o o o o o o o o o o o o o o o o o o o o o o o o o o o o o o o o o o o o o O   ~ rX%X%X",
"%X%X>Xw.l .XD.D.D.D.D.D.D.D.D.D.D.D.D.D.D.D.D.D.D.D.D.D.D.D.D.D.D.D.D.D.D.D.D.D.S.C.n.k.n.B R 0X%X%X",
"%X%X:X0.[ tX<X3X3X4X4X3X3X3X3X3X3X3X3X3X3X3X3X3X3X3X3X3X3X3X3X3X3X3X3X3X3X3X3X<X,X#X+X X'._ ! 8X%X%X",
"%X%X:Xq.Q 7XXXXXXXoXoXXXXXXXXXXXXXXXXXXXXXXXXXXXXXXXXXXXXXXXXXXXXXXXXXXXXXXXXX X{.'.P.v.p.s E 9X%X%X",
"%X%X:Xq.W 6X|. X X|.|.|.}.}.}.}.}.}.}.}.}.}.}.}.}.}.}.}.}.}.}.}.}.}.}.}.}.}.}.[.`.P.b.9.-.9 E qX%X%X",
"%X%X:Xq.W 5X}.{.}.{.].].].].].].].].].].].].].].].].].].].].].].].].].].].].'.U.L.N.u.*. .3 E qX%X%X",
"%X%X:Xw.U 2X{.[.].'.U.U.U.I.I.I.I.I.I.I.I.I.I.I.I.I.I.I.I.I.I.I.I.I.I.I.I.I.P.L.V.a.:.} / < E qX%X%X",
"%X%X:Xw.U 2X[.].'.U.I.L.L.L.K.K.K.K.K.K.K.K.K.K.K.K.K.K.K.K.K.K.K.K.K.K.K.K.K.A.f.8.%.( J > E wX%X%X",
"%X%X:Xw.U 2X[.].`.I.P.K.J.J.J.J.J.J.J.J.J.J.J.J.J.J.J.J.J.J.J.J.J.J.J.J.J.J.F.m.s.3.X.Y D : E wX%X%X",
"%X%X:Xw.U 2X[.].`.P.K.J.G.G.G.G.G.G.G.G.G.G.G.G.G.G.G.G.G.G.G.G.G.G.G.G.G.G.Z.h.p.1...I A : E wX%X%X",
"%X%X:Xw.U 2X[.].`.I.K.J.G.G.G.G.G.G.G.G.G.G.G.G.G.G.G.G.G.G.G.G.G.G.G.G.G.G.V.h.p.1...I A : E wX%X%X",
"%X%X:Xw.U 2X[.].`.I.K.J.G.G.G.G.G.G.G.G.G.G.G.G.G.G.G.G.G.G.G.G.G.G.G.G.G.G.V.h.p.1...I A : E wX%X%X",
"%X%X:Xw.U 2X[.].`.I.K.J.G.G.G.G.G.G.G.G.G.G.G.G.G.G.G.G.G.G.G.G.G.G.G.G.G.G.V.h.p.1...I A : E wX%X%X",
"%X%X:Xw.U 2X[.].`.I.K.J.G.G.G.G.G.G.G.G.G.G.G.G.G.G.G.G.G.G.G.G.G.G.G.G.G.G.V.h.p.1...I A : E wX%X%X",
"%X%X:Xw.U 2X[.].`.I.K.J.G.G.G.G.G.G.G.G.G.G.G.G.G.G.G.G.G.G.G.G.G.G.G.G.G.G.V.h.p.1...I A : E wX%X%X",
"%X%X:Xw.U 2X[.].`.I.K.J.G.G.G.G.G.G.G.G.G.G.G.G.G.G.G.G.G.G.G.G.G.G.G.G.G.G.V.h.p.1...I A : E wX%X%X",
"%X%X:Xw.U 2X[.].`.I.K.J.G.G.G.G.G.G.G.G.G.G.G.G.G.G.G.G.G.G.G.G.G.G.G.G.G.G.V.h.p.1...I A : E wX%X%X",
"%X%X:Xw.U 2X[.].`.I.K.J.G.G.G.G.G.G.G.G.G.G.G.G.G.G.G.G.G.G.G.G.G.G.G.G.G.G.V.h.p.1...I A : E wX%X%X",
"%X%X:Xw.U 2X[.].`.I.K.J.G.G.G.G.G.G.G.G.G.G.G.G.G.G.G.G.G.G.G.G.G.G.G.G.G.G.V.h.p.1...I A : E wX%X%X",
"%X%X:Xw.U 2X[.].`.I.K.J.G.G.G.G.G.G.G.G.G.G.G.G.G.G.G.G.G.G.G.G.G.G.G.G.G.G.V.h.p.1...I A : E wX%X%X",
"%X%X:Xw.U 2X[.].`.I.K.J.G.G.G.G.G.G.G.G.G.G.G.G.G.G.G.G.G.G.G.G.G.G.G.G.G.G.V.h.p.1...I A : E wX%X%X",
"%X%X:Xw.U 2X[.].`.I.K.J.G.G.G.G.G.G.G.G.G.G.G.G.G.G.G.G.G.G.G.G.G.G.G.G.G.G.V.h.p.1...I A : E wX%X%X",
"%X%X:Xw.U 2X[.].`.I.K.J.G.G.G.G.G.G.G.G.G.G.G.G.G.G.G.G.G.G.G.G.G.G.G.G.G.G.V.h.p.1...I A : E wX%X%X",
"%X%X:Xw.U 2X[.].`.I.K.J.G.G.G.G.G.G.G.G.G.G.G.G.G.G.G.G.G.G.G.G.G.G.G.G.G.G.V.h.p.1...I A : E wX%X%X",
"%X%X:Xw.U 2X[.].`.I.K.J.G.G.G.G.G.G.G.G.G.G.G.G.G.G.G.G.G.G.G.G.G.G.G.G.G.G.V.h.p.1...I A : E wX%X%X",
"%X%X:Xw.U 2X[.].`.I.K.J.G.G.G.G.G.G.G.G.G.G.G.G.G.G.G.G.G.G.G.G.G.G.G.G.G.G.V.h.p.1...I A : E wX%X%X",
"%X%X:Xw.U 2X[.].`.I.K.J.G.G.G.G.G.G.G.G.G.G.G.G.G.G.G.G.G.G.G.G.G.G.G.G.G.G.V.h.p.1...I A : E wX%X%X",
"%X%X:Xw.U 2X[.].`.I.K.J.G.G.G.G.G.G.G.G.G.G.G.G.G.G.G.G.G.G.G.G.G.G.G.G.G.G.V.h.p.1...I A : E wX%X%X",
"%X%X:Xw.U 2X[.].`.I.K.J.G.G.G.G.G.G.G.G.G.G.G.G.G.G.G.G.G.G.G.G.G.G.G.G.G.G.V.h.p.1...I A : E wX%X%X",
"%X%X:Xw.U 2X[.].`.I.K.J.G.G.G.G.G.G.G.G.G.G.G.G.G.G.G.G.G.G.G.G.G.G.G.G.G.G.V.h.p.1...I A : E wX%X%X",
"%X%X:Xw.U 2X[.].`.I.K.J.G.G.G.G.G.G.G.G.G.G.G.G.G.G.G.G.G.G.G.G.G.G.G.G.G.G.V.h.p.1...I A : E wX%X%X",
"%X%X:Xw.U 2X[.].`.I.K.J.G.G.G.G.G.G.G.G.G.G.G.G.G.G.G.G.G.G.G.G.G.G.G.G.G.G.V.h.p.1...I A : E wX%X%X",
"%X%X:Xw.U 2X[.'.`.I.K.J.J.G.G.G.G.G.G.G.G.G.G.G.G.G.G.G.G.G.G.G.G.G.G.G.G.G.Z.h.p.1...I A : E wX%X%X",
"%X%X:Xw.U 2X[.`.U.P.K.J.F.A.A.A.A.A.A.A.A.A.A.A.A.A.A.A.A.A.A.A.A.A.A.A.A.A.N.f.i.>.| K S : E wX%X%X",
"%X%X:Xw.P 1X].`.I.L.G.B.b.b.b.b.b.b.b.b.b.b.b.b.b.b.b.b.b.b.b.b.b.b.b.b.b.c.f.s.7.=.{ J Z : E wX%X%X",
"%X%X:Xw.P 1X'.I.L.Z.g.d.s.a.a.a.a.a.a.a.a.a.a.a.a.a.a.a.a.a.a.a.a.a.a.a.a.a.i.7.,.@.( A V ; E wX%X%X",
"%X%X:Xe.L $XI.L.M.s.t.5.2.<.<.<.<.<.<.<.<.<.<.<.<.<.<.<.<.<.<.<.<.<.<.<.<.1.;.&.o.' J n M ; E wX%X%X",
"%X%X:Xe.J @XJ.h.y.-.#.| { ] ] ] ] ] ] ] ] ] ] ] ] ] ] ] ] ] ] ] ] ] ] ] ] ] ` / L Z v k z - E wX%X%X",
"%X%X:Xr.H OXf.6.$.) G N m b b b b b b b b b b b b b b b b b b b b b b b b b c z k h f d h % E wX%X%X",
"%X%X:Xz.C H.4.+.K x g a p p p p p p p p p p p p p p p p p p p p p p p p p p i u y t r t d # E wX%X%X",
"%X%X>Xl.j j.O.F j e 0 7 6 6 6 6 6 6 6 6 6 6 6 6 6 6 6 6 6 6 6 6 6 6 6 6 6 6 5 5 5 6 6 8 w @ T eX%X%X",
"%X%X:X~.2 q 4 1 , * & $ $ $ $ $ $ $ $ $ $ $ $ $ $ $ $ $ $ $ $ $ $ $ $ $ $ $ $ $ $ & & * = X ^ eX%X%X",
"%X%X%X=X!.x.Y.T.E.Q.!.~.~.~.~.~.~.~.~.~.~.~.~.~.~.~.~.~.~.~.~.~.~.~.~.~.~.~.~.~.~.!.!.!.W.W.(.*X%X%X",
"%X%X_.&X;X:X:X:X:X:X:X:X:X:X:X:X:X:X:X:X:X:X:X:X:X:X:X:X:X:X:X:X:X:X:X:X:X:X:X:X:X:X:X:X:X>X-X).%X%X",
"%X%X%X%X%X%X%X%X%X%X%X%X%X%X%X%X%X%X%X%X%X%X%X%X%X%X%X%X%X%X%X%X%X%X%X%X%X%X%X%X%X%X%X%X%X%X%X%X%X%X",
"%X%X%X%X%X%X%X%X%X%X%X%X%X%X%X%X%X%X%X%X%X%X%X%X%X%X%X%X%X%X%X%X%X%X%X%X%X%X%X%X%X%X%X%X%X%X%X%X%X%X"
};
