/* XPM */
static const char *recordPressed_xpm[] = {
/* columns rows colors chars-per-pixel */
"50 50 102 2 ",
"   c #383131",
".  c #500000",
"X  c #620D0D",
"o  c #661010",
"O  c #671E1E",
"+  c #6B1F1F",
"@  c #731616",
"#  c #761919",
"$  c #791A1A",
"%  c #5B3737",
"&  c #742525",
"*  c #792727",
"=  c #742929",
"-  c #7E2A2A",
";  c #643434",
":  c #6A3C3C",
">  c #484444",
",  c #514F4F",
"<  c #525050",
"1  c #585959",
"2  c #664242",
"3  c #645353",
"4  c #775757",
"5  c #795757",
"6  c #800F0F",
"7  c #832727",
"8  c #862F2F",
"9  c #882F2F",
"0  c #8B3131",
"q  c #8D3D3D",
"w  c #953333",
"e  c #9A3535",
"r  c #923F3F",
"t  c #9C3838",
"y  c #A33636",
"u  c #A63838",
"i  c #AC3A3A",
"p  c #B33C3C",
"a  c #BD3F3F",
"s  c #974444",
"d  c #9A4545",
"f  c #974B4B",
"g  c #9D4C4C",
"h  c #975050",
"j  c #9C5353",
"k  c #AA4747",
"l  c #A34E4E",
"z  c #B54040",
"x  c #BF4040",
"c  c #B14F4F",
"v  c #A45555",
"b  c #AC5555",
"n  c #A65959",
"m  c #AC5A5A",
"M  c #B75454",
"N  c #B95656",
"B  c #B35D5D",
"V  c #BA5B5B",
"C  c #BF6060",
"Z  c #C14040",
"A  c #CE4545",
"S  c #C34E4E",
"D  c #CF4848",
"F  c #D14545",
"G  c #DD4949",
"H  c #C85555",
"J  c #C45C5C",
"K  c #CB5A5A",
"L  c #D75454",
"P  c #DB5555",
"I  c #DD5F5F",
"U  c #E64C4C",
"Y  c #EC4E4E",
"T  c #F14E4E",
"R  c #EF5151",
"E  c #E95B5B",
"W  c #F35050",
"Q  c #F25B5B",
"!  c #C56363",
"~  c #CF6363",
"^  c #D56565",
"/  c #DA6363",
"(  c #D76868",
")  c #E36464",
"_  c #E96161",
"`  c #E46A6A",
"'  c #EE6868",
"]  c #F36262",
"[  c #939D9D",
"{  c #97A3A3",
"}  c #98A4A4",
"|  c #99A9A9",
" . c #CAF4F4",
".. c #CDFAFA",
"X. c #D4F6F6",
"o. c #D8F7F7",
"O. c #D3F9F9",
"+. c #DEFEFE",
"@. c #E0FFFF",
"#. c #EAFFFF",
"$. c #F6FFFF",
"%. c #F9FFFF",
/* pixels */
"@.@.@.@.@.@.@.@.@.@.@.@.@.@.@.@.@.@.@.@.@.@.@.@.@.@.@.@.@.@.@.@.@.@.@.@.@.@.@.+.@.@.@.@.@.@.@.+.@.@.",
"@.@.@.@.@.@.@.@.+.+.@.@.@.@.@.+.@.@.@.@.@.+.@.@.@.@.+.+.@.@.@.@.@.+.@.@.@.@.@.+.@.@.@.@.@.+.@.@.@.@.",
"@.@.+.@.#.#.#.#.#.#.#.#.#.#.#.#.#.#.#.#.#.#.#.#.#.#.#.#.#.#.#.#.#.#.#.#.#.#.#.#.#.#.#.#.#.#.#.+.@.@.",
"@.@.@.@.X.o.o.o.o.o.o.X.o.o.o.O.O.o.o.o.o.X.O.o.o.o.o.O.O.o.o.o.O.o.o.o.o.o.o.O.O.o.o.o.o.O.o.@.@.@.",
"@.@.#.o.1 > < , , , , , , , , , , , , , , , < < , , < < , , , , , , , , , , , , , , , , ,   | %.@.@.",
"@.@.#...% X O O O O O O O O O O O O O O O O O O O O O O O O O O O O O O O O O O O O O O # . [ $.@.@.",
"@.@.#.O.2 @ = * * - - - - 7 - - - - - - 7 - - - - - - - - 7 - - - - 7 - 7 - - - = - * = 7 o } $.@.@.",
"@.@.#.O.2 # = = = 8 8 8 9 8 9 8 8 9 9 9 9 9 9 9 9 8 9 9 9 8 9 9 9 9 8 9 8 9 9 8 8 8 7 8 9 + } $.@.@.",
"@.@.#.O.2 # = - 9 0 w e e e e e e e e e e e e e e e e e e e e e e w e e e e e e w w 9 9 q & } $.@.@.",
"@.@.#.O.2 # 8 8 w e u i i p i p i i p i i i p i p i p i i i i p p i i p i p i p u u t s s = } $.@.@.",
"@.@.#...2 # 8 0 t i p a Z Z Z Z Z Z Z Z Z Z Z Z Z Z Z Z Z Z Z Z Z Z Z Z Z Z Z Z a p k g g = { $.@.@.",
"@.+.#.O.2 # 8 0 u p a A A F A F F F A F F F F F A F F A A F F A F F A F F F G F D S c g g = { $.@.@.",
"@.@.#...2 $ 9 w u a Z F G G G G G U G G G G G G U G G G G G G U G G G G G U U U L H M l g = { $.@.@.",
"@.@.#.O.2 $ 9 w i a A G U U U Y U U U U U Y Y U U U U Y U Y U U U Y Y U Y Y R E I K N l g = { $.@.@.",
"@.@.#...2 $ 9 w i Z A G U Y Y Y T Y T T R Y R T Y Y Y R T Y Y T T T T T T Q Q E I K N l g = { $.@.@.",
"@.@.#.O.2 $ 9 w u a A G U Y Y T W W W T T W W T W W W W W W W T W W T T T Q Q _ I K N l g * { $.@.@.",
"@.@.#...2 $ 9 w u x A G Y Y W T W W W W W W W W W W W T W W W T W W W W W Q ] _ / K M l g = { $.@.@.",
"@.@.#.O.2 $ 8 w i x A G U Y R W W W W T W W T W T W W W W W W W W W T W W Q Q _ I K N l g = { $.@.@.",
"@.@.#...2 $ 9 w i x A G U Y W W W W W W W T W W W W W W W W W W W W W W W Q ] _ E K M l g = { $.@.+.",
"@.@.#...2 $ 8 w u x A G Y Y W W W T W W W W W W W W T W W W T W W W W W W Q Q ] I K N l g = { $.@.@.",
"@.@.#.O.2 $ 9 w i x A G U Y W T W W T W W W W W W T W W W W W W W W W W Q Q Q _ I K M l l = { $.@.@.",
"@.@.#...2 $ 9 w i x A G Y Y W W W T W W W W W W W W W W T W T W W W W W W Q Q _ I K M b g = { $.@.@.",
"@.@.#.O.2 $ 9 w u x A G U Y W W W W T W W W W W W W W T W T W W W W W T W Q _ _ I K M l g = { $.@.@.",
"@.@.#...2 $ 8 w i x A G U Y W W W W W W W W W W T W W W W W W W W W W T Q Q Q _ I K M l g * { $.@.@.",
"@.@.#...2 $ 0 w i x A G U Y W W T W W W W W W W W W W W W W W W W W W W W Q ] _ E K N l g = { $.@.@.",
"@.@.#.O.2 $ 8 w i a A G U Y Y W W W W T W T W W W W W W T W T W W W W W W Q Q _ I K N l g = { $.@.@.",
"@.@.#...2 $ 8 w i a A G Y Y W W W W W W W W T W W W W T W T W W W W W W W Q ] _ I K M l g = { $.@.@.",
"@.@.#.O.2 $ 0 w i a A G U Y W W W W W W W T W W T W W W W W W W W W W W W Q Q ] I K N l g = { $.@.@.",
"@.@.#...2 $ 8 w i Z A G Y T W W T W W W W W T W T W W W W W W W W W W W Q Q ] _ I K M l l = { $.@.@.",
"@.@.#.O.2 $ 8 w u Z A G U T W W W W W T W W W W W W W T W T W W W W W W W Q E _ I K N l g = { $.@.@.",
"@.@.#...2 $ 9 w u Z A G U T T W W W W W T W W W W W W W T W T W W W W W W Q Q _ I K M l g = { $.@.@.",
"@.@.#.O.2 $ 9 w i a A G U T W W W T W W W W W T W W W W W W W W W W W W W Q Q _ I K N l g = { $.@.@.",
"@.@.#.O.2 $ 8 w i x A G U Y W W W W W W W W W W W W W W W W W W W W W W W Q Q _ ) K N l l = { $.@.@.",
"@.@.#...2 $ 9 w i x A G U R W W W W W W W W W W W W W W W W W W W W W W W Q Q _ I K N l l * { $.@.@.",
"@.@.#.O.2 $ 8 w i x A G Y Y R T W W W W W W W W W W W W W W W W W W W W Q Q _ _ I K M l g = { $.@.@.",
"@.@.#...2 # 0 w u x A G U W W W W W W W W Q W W W Q W W Q W W W Q W W W Q Q ] _ I K M l g = { $.@.@.",
"@.@.#...2 $ 8 w i a F G Y T Q Q Q Q Q Q Q Q Q Q Q Q Q Q Q Q Q Q Q Q Q Q ] ] ] _ / K N l g * { $.@.@.",
"@.@.#.O.2 $ 0 w u Z F U W Q ] Q ] ] ] ] ] ] ] ] ] ] ] ] ] ] ] ] ] ] ] ] ] ] ] _ I K N l g = { $.@.@.",
"@.@.#...2 $ 8 w u Z F U E ' ] ' ' ' ' ' ' ' ' ' ' ' ' ' ] ' ' ' ] ' ' ' ' ' ' ` / K M l g = { $.@.@.",
"@.@.#.O.2 $ 8 0 u a F P ) ` ` ` ` ` ` ` ` ' ` ( ' ` ` ` ` ` ` ` ' ` ` ` ' ` ` ( K J b l g = { $.@.@.",
"@.@.#...2 # 8 0 y p S K ( ( ( ( ( ( ( ( ( ( ( ( ( ( ( ( ( ( ( ( ( ( ( ( ^ ^ ^ ~ J V b l g = { $.@.@.",
"@.@.#.O.2 # - 9 e k N V ! ! ! ! ! ! ! ! ! ! ! C ! ! ! ! ! ! ! ! ! ! ! ! ! ! ! ! V B v j f = { $.@.@.",
"@.@.#...2 $ - 0 r l b B V B V B B B B B B C m C C m B B B B B B B B B B B B B m m n j h f = { $.@.@.",
"@.@.#.O.2 $ 8 q g v v n n n n n n n n n n n n n n n n n n n n n n n n n n n n v v j j h f = { $.@.@.",
"@.@.#...; @ 0 w d g g g g g l g g l g l g l g g j l g l g l g l v g l g g g l g g g g f g & [ $.@.@.",
"@.@.#.o.3 : 4 4 4 5 4 4 4 4 4 4 4 4 4 4 4 4 5 4 4 4 4 4 4 4 5 4 4 4 4 4 4 4 4 4 4 4 4 4 4 % | $.@.@.",
"@.@.@.@.o..... . . . . . . . . . . . . . . . . . . . . . . . . . . . . . . . . . . . . . . .o.#.@.@.",
"@.@.+.@.#.#.#.#.#.#.#.#.#.#.#.#.#.#.#.#.#.#.#.#.#.#.#.#.#.#.#.#.#.#.#.#.#.#.#.#.#.#.#.#.#.#.#.+.@.@.",
"@.@.@.@.@.@.@.@.@.@.@.@.@.@.@.@.@.@.@.@.@.@.@.@.@.@.@.@.@.@.@.@.@.@.@.@.@.@.@.@.@.@.@.@.@.@.@.@.@.@.",
"@.@.@.@.@.@.@.@.@.@.@.@.@.@.@.@.@.@.@.@.@.@.@.@.@.@.@.@.@.@.@.@.@.@.@.@.@.@.+.@.@.@.@.@.@.@.@.@.@.@."
};
