/* XPM */
static char *appIcon_xpm[] = {
/* columns rows colors chars-per-pixel */
"58 46 56 1 ",
"  c #2D3131",
". c #8BC63D",
"X c #8BC63E",
"o c #8CC63F",
"O c #8DC642",
"+ c #8EC643",
"@ c #8EC645",
"# c #8FC647",
"$ c #90C648",
"% c #92C64C",
"& c #9CC664",
"* c #9FC66D",
"= c #A2C673",
"- c #0192CE",
"; c #0292CE",
": c #0A94CE",
"> c #1296CD",
", c #1D99CD",
"< c #2E9ECC",
"1 c #35A0CC",
"2 c #42A3CB",
"3 c #4BA5CB",
"4 c #5EAACA",
"5 c #5FAACA",
"6 c #74B0C9",
"7 c #7EB3C8",
"8 c #AAC586",
"9 c #ABC587",
"0 c #ACC589",
"q c #ADC58C",
"w c #B2C599",
"e c #B7C5A5",
"r c #B8C5A6",
"t c #B8C5A7",
"y c #B9C5A8",
"u c #BAC5AA",
"i c #BAC5AB",
"p c #BFC5B7",
"a c #C2C5BD",
"s c #91B7C7",
"d c #96B9C7",
"f c #A8BDC6",
"g c #ABBEC6",
"h c #AFBFC6",
"j c #B2C0C6",
"k c #B3C0C6",
"l c #BCC3C3",
"z c #BDC3C5",
"x c #C3C5C0",
"c c #C3C5C1",
"v c #C4C5C3",
"b c #C4C5C4",
"n c #C5C5C4",
"m c #C4C5C5",
"M c #C5C5C5",
"N c None",
/* pixels */
"NNNNNNNNNNNNNNNNNNNNNNNNNNNNN------NNNNNNNNNNMNNNNNNNNNNNN",
"NNNNNNNNNNNNNNNNNNNNNNNNNN---------NNNNNNNNNNNMMMMNNNNNNNN",
"NNNNNNNNNNNNNNNNNNNNNNNNN----------NNNNNNNNNNNNNMMMNNNNNNN",
"NNNNNNNNNNNNNNNNNNNNNNN------------NNN..NNNNNNNNMMMMNNNNNN",
"NNNNNNNNNNNNNNNNNNNNNNN------------NN.....NNNNNNNMMMNNNNNN",
"NNNNNNNNNNNNNNNNNNNNNN-------------NN.....NNNNNNNMMMNNNNNN",
"NNNNNNNNNNNNNNNNNNNNN--------------NN....NNNNNNNNMMMNNNNNN",
"NNNNNNNNNNNNNNNNNNNNN--------------NNN....NNNNNNNMMMNNNNNN",
"NNNNNNNNNNNNNNNNNNNNN-------------NNNNN......NNNMMMMNNNNNN",
"NNNNNNNNNNNNNNNNNNNN--------------NNNNNN......NNMMMNNNNNNN",
"NNNNNNNNNNNNNNNNNNNN--------------NNNNNNN.....NNMMMNNNNNNN",
"NNNNNNNNNNNNNNNNNNNN--------------NNNNNNNN....NMMMMNNNNNNN",
"NNNNNNNNNNNNNNNNNNNN--------------NNNNNNNN...NNMMMNNNNNNNN",
"NNNNNNNNNNNNNNNNNNNN--------------NNNNNNNN...NMMMMNNNNNNNN",
"NNNNNNNNNNNNNNNNNNNN--------------NNNNNNNNN..=MMMNNNNNNNNN",
"NNNNNNNNNNNNNNNNNNNN---------------NNNNNNNN.%aMMMNNNNNNNNN",
"NNNNNNNNNNNNNNNNNNN----------------NNNNNNNNotMMpNNNNNNNNNN",
"NNNNNNNNNNNNNNNNNN-----------------NNNNNNNN0MMx&NNNNNNNNNN",
"NNNNNNNNNNNNNNNNN------------------NNNNNNN9MMMqNNNNNNNNNNN",
"NNNNNNNNNNNNNNNN-------------------NNNNNNNxMMMNNNNNNNNNNNN",
"NNNNNNNNNNNNNNN--------------------NNNNNNMMMtNNNNNNNNNNNNN",
"NNNNNNNNNNNNNNN--------------------NNNNNMMMt+.NNNNNNNNNNNN",
"NNNNNNNNNNNNNNNN-------------------NNNNMMMi#..NNNNNNNNNNNN",
"NNNNNNNNNNNNNNNNN------------------NNNMMMi$...NNNNNNNNNNNN",
"NNNNNNNNNNNNNNNNNN-----------------NMMMMe#...NNNNNNNNNNNNN",
"NNNNNNNNNNNNNNNNN----------------->lMMMw+NNNNNNNNNNNNNNNNN",
"NNNNNNNNNNNNNNNNN----------------1jMMM9..NNNNNNNNNNNNNNNNN",
"NNNNNNNNNNNNMNNNN--------------:6MMMx*...NNNNNNNNNNNNNNNNN",
"NNNNNNNNNNNNMNNNN-------------2hMMMMN....NNNNNNNNNNNNNNNNN",
"NNNNNNNNNNNNMMNNNN----------<dMMMMMNNN.NNNNNNNNNNNNNNNNNNN",
"NNNNNNNNNNNNMMNNNN--------1sMMMMMNNNNNNNNNNNNNNNNNNNNNNNNN",
"NNNNNNNNNNNNMMMNNN-----,4fMMMMMNNNNNNNNNNNNNNNNNNNNNNNNNNN",
"NNNNNNNNNNNNMMMMMN3347hmMMMMMMNNNNNNNNNNNNNNNNNNNNNNNNNNNN",
"NNNNNNNNNNNNNMMMMMMMMMMMMMMMNNNNNNNNNNNNNNNNNNNNNNNNNNNNNN",
"NNNNNNNNNNNNNNMMMMMMMMMMMNNNNNNNNNNNNNNNNNNNNNNNNNNNNNNNNN",
"NNNNNNNNNNNNNNNMMMMMzkNNNNNNNNNNNNNNNNNNNNNNNNNNNNNNNNNNNN",
"NNNNNNNNNNNNNNNNNNNNNNNNNNNNNNNNNNNNNNNNNNNNNNNNNNNNNNNNNN",
"NNNNNNNNNNNNNNNNNNNNNNNNNNNNNNNNNNNNNNNNNNNNNNNNNNNNNNNNNN",
"NNNNNNNNNNNNNNNNN    NNNNN     NNN    NNNNNN  NNNN  NNNN  ",
"     NNN     NN   NN  NNN  NNN NN  NNN  NNN    NNN   NNN  ",
"  NN  N  NNN  N  NNNN  N  NNNNNN  NNNN  NNN    NNN    NN  ",
"  NN  N  NNN  N  NNNN  N  NNNNNN  NNNNN NN  NN  NN  N  N  ",
"     NN      NN  NNNN  N  NNNNNN  NNNNN NN  NN  NN  N     ",
"  NNNNN      NN  NNNN  N  NNNNNN  NNNN  NN       N  NN    ",
"  NNNNN  NN  NNN  NN  NNN  NNN NN  NNN  N  NNNN  N  NNN   ",
"  NNNNN  NNN  NNN    NNNNN     NNN    NNN  NNNN  N  NNN   "
};
