/* XPM */
static char *cutNormal_xpm[] = {
/* columns rows colors chars-per-pixel */
"50 50 172 2 ",
"   c #000004",
".  c #00030B",
"X  c #03090F",
"o  c #050B12",
"O  c #090E14",
"+  c #0C1117",
"@  c #0E1318",
"#  c #11151A",
"$  c #15191C",
"%  c #191C1E",
"&  c #1C1E21",
"*  c #1E2022",
"=  c #232425",
"-  c #252628",
";  c #272828",
":  c #292929",
">  c #312F2E",
",  c #31302F",
"<  c #363431",
"1  c #393633",
"2  c #3D3A36",
"3  c #3F3B38",
"4  c #423D39",
"5  c #46413C",
"6  c #49433E",
"7  c #55483E",
"8  c #664D37",
"9  c #69513D",
"0  c #4D4740",
"q  c #534B43",
"w  c #594E45",
"e  c #504F4D",
"r  c #5A5147",
"t  c #5E544A",
"y  c #595957",
"u  c #585958",
"i  c #6E5640",
"p  c #60544B",
"a  c #63594E",
"s  c #695A4F",
"d  c #755B45",
"f  c #6A5D52",
"g  c #665B50",
"h  c #7D634B",
"j  c #6E6154",
"k  c #6D655B",
"l  c #716456",
"z  c #7F6750",
"x  c #746659",
"c  c #75685A",
"v  c #7B6C5C",
"b  c #7C6F61",
"n  c #746B60",
"m  c #7F7263",
"M  c #78736B",
"N  c #81654D",
"B  c #846B53",
"V  c #896E55",
"C  c #816F5A",
"Z  c #887056",
"A  c #84725D",
"S  c #8B735A",
"D  c #92765C",
"F  c #827261",
"G  c #897461",
"H  c #8C7965",
"J  c #8D7B69",
"K  c #84786A",
"L  c #927D66",
"P  c #9A7D62",
"I  c #917D6A",
"U  c #968067",
"Y  c #95816B",
"T  c #9C856D",
"R  c #988774",
"E  c #9F907E",
"W  c #A68567",
"Q  c #AD8768",
"!  c #A0886E",
"~  c #A4876A",
"^  c #A58C72",
"/  c #A88F74",
"(  c #AA9176",
")  c #A6927C",
"_  c #AC9379",
"`  c #BD9776",
"'  c #B49A7E",
"]  c #B19577",
"[  c #C09F7D",
"{  c #9E9683",
"}  c #A99C8C",
"|  c #A89784",
" . c #B59C81",
".. c #B99E82",
"X. c #AA9E90",
"o. c #94A19F",
"O. c #BCA184",
"+. c #BEA78A",
"@. c #B4A186",
"#. c #B0A496",
"$. c #97A6A5",
"%. c #98A6A5",
"&. c #9AA8A7",
"*. c #99AAA9",
"=. c #C1A486",
"-. c #C3A689",
";. c #C6A98A",
":. c #CBAD8D",
">. c #CFB18F",
",. c #D0B08F",
"<. c #CBAE90",
"1. c #CEB192",
"2. c #D4B493",
"3. c #D9B997",
"4. c #D7B998",
"5. c #DBBB99",
"6. c #E2B68C",
"7. c #E1BF9C",
"8. c #E1BB94",
"9. c #E4C29E",
"0. c #E6C4A0",
"q. c #E9C6A3",
"w. c #E4C9A5",
"e. c #EDC9A3",
"r. c #ECCBAA",
"t. c #F2CCA5",
"y. c #F3CFA9",
"u. c #EFD3AC",
"i. c #F5D2AC",
"p. c #FAD5AE",
"a. c #FDD8AF",
"s. c #E9CEB3",
"d. c #EED2B3",
"f. c #E9D1BB",
"g. c #F3D5B5",
"h. c #FAD6B1",
"j. c #FCDAB4",
"k. c #F3D6B8",
"l. c #F6D9BA",
"z. c #FBDCBB",
"x. c #F5DBB2",
"c. c #FFE1B6",
"v. c #FFE4BA",
"b. c #FFE9BE",
"n. c #B7D9DE",
"m. c #BADCE2",
"M. c #BEE1E7",
"N. c #BFE2E8",
"B. c #EBDEC2",
"V. c #FBDFC1",
"C. c #FCE2C4",
"Z. c #FFECC4",
"A. c #FCE3C8",
"S. c #FFEBCB",
"D. c #FFF2C4",
"F. c #FFF5C9",
"G. c #FFFCCC",
"H. c #FFEED4",
"J. c #FFF3D2",
"K. c #FFFFD2",
"L. c #FFFFDC",
"P. c #C6E8ED",
"I. c #CDECED",
"U. c #C0E3E8",
"Y. c #CEEFF2",
"T. c #CFF0F3",
"R. c #D5F3F4",
"E. c #DEFDFD",
"W. c #E0FFFF",
"Q. c #EAFFFF",
"!. c #F5FFFF",
"~. c #F8FFFF",
/* pixels */
"W.W.W.W.W.W.W.W.W.W.W.W.W.W.W.W.W.W.W.W.Q.W.W.W.W.W.W.W.W.W.W.W.W.W.W.W.W.W.W.W.W.W.W.W.W.W.W.W.W.E.",
"W.W.W.W.W.W.W.W.W.W.W.W.W.W.W.W.W.W.W.W.E.E.W.W.W.W.W.W.W.W.W.W.W.W.W.W.W.W.W.W.W.W.E.W.W.E.W.W.W.W.",
"W.W.E.W.Q.Q.Q.Q.Q.Q.Q.Q.Q.Q.Q.Q.Q.Q.Q.Q.Q.Q.Q.Q.Q.!.Q.Q.Q.Q.Q.Q.Q.Q.Q.Q.Q.Q.Q.Q.Q.Q.Q.Q.Q.Q.Q.E.W.W.",
"W.W.W.W.R.I.I.I.I.I.I.P.I.I.I.I.I.I.I.I.I.I.I.P.P.I.P.I.I.I.I.I.I.I.I.I.I.I.I.I.I.I.Y.I.I.I.E.W.W.W.",
"W.W.Q.R.u e u u u u u u u u u u y y u u u u e u u u u u y u u u u u u u u u u u u u y y y 4 $.~.W.W.",
"W.W.Q.m.{ B.f.f.B.B.f.f.f.f.f.f.f.f.B.B.f.f.B.B.B.s.B.B.s.f.f.f.f.f.f.f.f.f.f.s.s.r.q.9.8.Q o.!.W.W.",
"W.W.Q.n.#.L.H.H.H.H.H.H.H.H.H.H.H.H.H.H.A.H.H.H.A.H.H.H.H.H.H.H.H.H.H.H.H.H.H.S.Z.v.z.i.y.[ %.!.W.W.",
"W.W.Q.m.X.H.A.A.A.A.A.A.A.A.A.A.V.V.A.V.A.A.A.A.A.A.A.A.A.V.A.V.A.A.A.A.C.C.V.v.l.h.t.7.5.W %.!.W.W.",
"W.W.Q.m.X.J.A.A.V.A.V.A.V.V.V.V.C.V.C.C.V.S.S.S.A.A.A.A.H.A.H.A.S.S.S.S.S.S.C.z.p.y.9.2.,.D $.!.W.W.",
"W.W.Q.m.X.F.V.V.A.V.V.V.V.V.V.z.z.z.z.C.J.C.s.g.f.V.k.k.l.l.l.l.l.l.l.k.g.s.j.Z.p.9.5.;.=.D %.!.W.W.",
"W.W.Q.m.} S.C.V.V.z.z.z.z.z.z.z.z.l.C.Z.) 0 > > < 1 1 4 4 3 4 3 3 4 2 < , > 4 ' a.7.,.O.' V $.!.W.W.",
"W.W.Q.n.} S.z.V.z.z.z.l.j.h.h.j.j.j.F.F . + & * & $ & % $ % % % % % % % & & O # O.e.:.' ] N $.!.W.W.",
"W.W.Q.m.} S.z.z.l.j.j.j.h.h.h.h.h.F. .X * : : : - : : : : : : : : : : : : : : o F y.=.' ( N $.!.W.W.",
"W.W.Q.m.} Z.z.z.j.j.h.l.h.h.h.p.v.h., # : : : : : : : : : : : : : : ; : : ; : + F e.O._ / N $.~.W.W.",
"W.W.Q.m.} S.z.z.z.j.h.h.h.h.h.p.F.F o : : : : : : : : : : : : : : : : : ; - : + A e.O._ ! N $.!.W.W.",
"W.W.Q.m.} Z.z.z.j.l.h.h.h.h.p.Z.4.& & : : : & * : : : : - : : : : : : : - % - + A e.O._ / N $.!.W.W.",
"W.W.Q.m.} Z.V.j.j.l.h.h.h.p.j.v.q O : : : * 5 < = - : : : : - : : : : * 2 G = O A e.O.( ! N $.!.W.W.",
"W.W.Q.m.} S.z.z.j.j.j.h.p.p.F._ X + X % : @ @.H O : : : : : : : : ; : O k D.6 . F q.O._ / h $.!.W.W.",
"W.W.Q.m.} S.z.z.z.j.h.h.h.v.y.: o g R 5 + * 0.e.% = : : : : : : : : = $ -.K.I   A e.O.( / h $.!.W.W.",
"W.W.Q.m.} Z.z.l.z.h.h.p.j.D.c   l D.K.i.< & 0.G.j o : : : : : : ; : @ q c.b.:.o v e.O._ / h $.!.W.W.",
"W.W.Q.m.} Z.z.z.j.g.h.h.D.<.+ O <.G.p.G.F $ y.D.5.& = : - : : : : ; O _ D.a.q.% l q.O.( / h $.!.W.W.",
"W.W.Q.m.} S.z.z.z.h.h.c.v.4 O # b G.K.c.2 : i.c.Z.c o : : : : : : $ 2 i.c.j.t.> j e.O._ ! N $.!.W.W.",
"W.W.Q.m.} Z.z.z.z.z.h.F.T o : - & v | w o 5 i.c.b.9.& & : : : ; : o Y D.p.p.i.< j q.O._ ( h $.!.W.W.",
"W.W.Q.m.} Z.z.z.j.h.Z.w.= % : : - O o # & < i.j.p.D.v X : : : : & ; q.v.p.a.t.: j e.O.( ( h $.!.W.W.",
"W.E.Q.m.} Z.z.l.h.z.D.f o : : : : ; ; : * : 5.c.p.b.0.= & : : : o c Z.a.p.j.9.$ v 9.O._ / h $.!.W.W.",
"W.W.Q.m.} Z.z.z.z.F.O.O - : : : : : : : - @  .D.p.p.D.F o : : = % 4.b.p.p.v.' . C e.O._ ^ h $.!.W.W.",
"W.W.Q.m.} A.V.j.v.c.6 + : - : - ; : : : : O c D.p.p.v.e.- & : + t b.a.p.a.v.a . F e.O.( / h $.!.W.W.",
"W.W.Q.m.} Z.V.z.C.i.% X & & % = : : ; : : * : e.b.p.p.D.H o - + O.D.p.p.D.>.$ o A e.O.( / h %.!.W.W.",
"W.W.Q.m.} S.z.z.z.v.) 6 5 1 2 < - : : : : : + v D.h.p.v.r.: o 6 c.j.p.b.j.2 # @ m q.O.( / h $.!.W.W.",
"W.W.Q.m.} Z.z.z.j.j.Z.z.i.r.b.H O : ; : : : = + ' D.a.p.D.J   ^ D.i.v.b.p O : + A q.O._ / h $.!.W.W.",
"W.W.Q.m.} Z.z.z.j.g.j.j.c.c.G.J X : : : : : % . % +.v.p.v.9.5 9.b.D.w.1   % : + A e.O.( / h %.!.W.W.",
"W.W.Q.m.} Z.z.z.z.j.h.h.h.h.D.H O : : : : @ < ) <.1.p.p.b.c.q.j.i.@.l j v 2 + O F e.O._ ^ h $.!.W.E.",
"W.W.Q.m.} S.z.z.j.h.j.h.h.p.D.H O : : : $ 1 u.L.G.F.j.r.Y 4.D.q.t T v.L.G.u.f . A q.O._ ^ h $.!.W.W.",
"W.E.Q.m.} Z.z.z.j.l.h.h.h.p.D.H X : : = $ :.K.^ 0 ^ v.v.J >.D.e.4.D.e.) u.D.j.1 s e.O._ / h $.!.W.W.",
"W.W.Q.m.} Z.z.z.z.l.h.h.h.h.F.G . * * + 2 D.O.. . X ' Z.c.j.y.j.D.1.= . 5 0.D.Y j 9.O._ / h $.!.W.W.",
"W.W.Q.m.} Z.z.z.j.h.h.h.p.h.D.J @ , , * t G.G . :   b D.D.O.p v.D.f . ; . Y D. .G 7.O._ ! h $.!.W.W.",
"W.W.Q.m.} Z.z.z.j.h.h.p.p.i.p.e.9.q.9.9.q.v.1.= . = 1.D.h.1 . >.K.H . O O ' Z.( v 5.O.( ( h $.!.W.W.",
"W.W.Q.m.} Z.j.j.h.p.p.i.y.t.e.i.j.a.a.j.p.e.c.2.H 2.v.b.c O # 2 x.c.c 1 Y p.v.f t 9.' ( ! N $.!.W.W.",
"W.W.Q.m.} C.j.j.a.i.e.e.q.0.0.0.9.9.q.9.9.9.9.c.G.D.p.L # = : + w j.D.p.c.c...+ G 3.] ^ ~ h $.~.E.W.",
"W.W.Q.m.| v.a.i.e.0.9.9.5.5.5.5.5.5.5.5.5.9.;.6 g l 1 . O @ @ @ . : Y -.' k O 5 :.O.( T T d $.!.W.W.",
"W.W.Q.m.| c.y.q.9.5.2.1.>.:.:.:.:.:.:.:.:.2.;.a w t a c v v v v v a s A v r c ;.O.( R U U h o.!.W.W.",
"W.W.Q.m.) a.9.5.1.;.-.O.....' ....' ' O.' ' O.,.,.2.,.2.,.2.2.2.2.2.>.:.;.,.:.' / T U D U 9 $.!.W.W.",
"W.W.Q.U.) t.2.;.O.' _ ( ^ ^ ^ ^ ^ ^ ! ^ ^ ! ^ ^ ! / ^ ^ ^ ! ^ ^ ! ^ ! ^ ! ! T T U H H S S 9 $.!.W.W.",
"W.W.Q.U.R 5.;.' _ ^ T T U L L L L L L L U L U H L U L L L L L L H U L L U L H H S A v v A 8 $.!.W.W.",
"W.W.Q.U.R 2.[ ] ~ U D S S S Z Z Z Z Z Z Z Z Z Z Z Z Z Z Z Z Z Z Z Z Z Z Z Z B B z h h h B 8 o.!.W.W.",
"W.W.Q.Y.M J H m b n n k k k k k k k k k k k k k k k k k k k k k k k k k k k k k k k k k k 7 &.!.W.W.",
"W.W.W.Q.Y.M.P.P.Y.I.I.Y.Y.Y.T.T.Y.Y.Y.Y.T.Y.Y.Y.Y.Y.T.Y.Y.Y.Y.Y.T.Y.T.T.Y.Y.Y.Y.T.T.T.T.Y.I.E.W.W.W.",
"W.W.E.E.Q.Q.Q.Q.Q.Q.Q.Q.Q.Q.Q.Q.Q.Q.Q.Q.Q.Q.Q.Q.Q.Q.Q.Q.Q.Q.Q.Q.Q.Q.Q.Q.Q.Q.Q.Q.Q.Q.Q.Q.Q.Q.Q.W.W.W.",
"W.W.E.W.W.W.W.W.W.W.W.W.W.W.W.W.W.W.W.W.W.W.W.W.W.E.W.W.W.W.W.W.E.W.W.W.W.W.W.W.W.W.W.W.W.W.W.W.W.W.",
"W.W.W.W.W.W.W.W.W.W.W.W.W.W.W.W.W.W.W.W.W.W.W.W.W.W.W.W.W.W.W.W.W.W.W.W.E.W.W.W.W.W.W.W.W.W.W.W.W.W."
};
