/* XPM */
static char *playDisabled_xpm[] = {
/* columns rows colors chars-per-pixel */
"50 50 249 2 ",
"   c #3F3B3B",
".  c gray31",
"X  c #524E4E",
"o  c #585959",
"O  c #585A5A",
"+  c #5B5E5E",
"@  c #645D5D",
"#  c #6A6565",
"$  c #696B6B",
"%  c #6E6868",
"&  c #6A6C6C",
"*  c #6B6D6D",
"=  c #6D6F6F",
"-  c #706B6B",
";  c #726D6D",
":  c #736E6E",
">  c #746F6F",
",  c #6F7070",
"<  c #767171",
"1  c #737474",
"2  c #737676",
"3  c #7B7676",
"4  c #797979",
"5  c #797B7B",
"6  c gray48",
"7  c #7C7C7C",
"8  c gray49",
"9  c #7F7D7D",
"0  c #7F7E7E",
"q  c gray50",
"w  c #807E7E",
"e  c #817F7F",
"r  c #837E7E",
"t  c #808080",
"y  c #818181",
"u  c #828181",
"i  c gray51",
"p  c #838383",
"a  c #848484",
"s  c gray52",
"d  c #868585",
"f  c #878585",
"g  c #858686",
"h  c #868686",
"j  c #878686",
"k  c gray53",
"l  c #888787",
"z  c #888888",
"x  c #888989",
"c  c #898989",
"v  c gray54",
"b  c #8A8B8B",
"n  c #8B8B8B",
"m  c #8F8A8A",
"M  c #8B8C8C",
"N  c gray55",
"B  c #8D8D8D",
"V  c #8D8E8E",
"C  c #8E8E8E",
"Z  c gray56",
"A  c #908F8F",
"S  c #909090",
"D  c gray57",
"F  c #929292",
"G  c #939292",
"H  c #939393",
"J  c #939494",
"K  c gray58",
"L  c #949595",
"P  c #959595",
"I  c #959696",
"U  c gray59",
"Y  c #969797",
"T  c #979797",
"R  c #9D9595",
"E  c #989898",
"W  c #989999",
"Q  c gray60",
"!  c #999A9A",
"~  c #9A9A9A",
"^  c #9A9B9B",
"/  c #9B9B9B",
"(  c #9D9B9B",
")  c #9B9C9C",
"_  c #9B9D9D",
"`  c gray61",
"'  c #9C9D9D",
"]  c #9D9D9D",
"[  c #9D9E9E",
"{  c #9D9F9F",
"}  c gray62",
"|  c #9E9F9F",
" . c #9F9F9F",
".. c #93A2A2",
"X. c #94A2A2",
"o. c #97A7A7",
"O. c #9EA0A0",
"+. c #9FA0A0",
"@. c #99A8A8",
"#. c #98A9A9",
"$. c #99AAAA",
"%. c #A0A0A0",
"&. c #A1A2A2",
"*. c #A2A2A2",
"=. c gray64",
"-. c #A7A1A1",
";. c #A3A4A4",
":. c #A4A5A5",
">. c #A5A5A5",
",. c #A5A6A6",
"<. c gray65",
"1. c #A7A7A7",
"2. c gray66",
"3. c #A8A9A9",
"4. c #A9A9A9",
"5. c #AAAAAA",
"6. c gray67",
"7. c #ACABAB",
"8. c #ADABAB",
"9. c #ACACAC",
"0. c gray68",
"q. c #AEADAD",
"w. c #AEAEAE",
"e. c #AFAFAF",
"r. c gray69",
"t. c #B1B1B1",
"y. c #B2B2B2",
"u. c gray70",
"i. c #B4B4B4",
"p. c gray71",
"a. c #B6B6B6",
"s. c #B6B7B7",
"d. c #B7B7B7",
"f. c gray72",
"g. c #B9B9B9",
"h. c gray73",
"j. c #BBBBBB",
"k. c #BCBCBC",
"l. c gray74",
"z. c gray",
"x. c gray75",
"c. c #BFC0C0",
"v. c #BBD8D8",
"b. c #BDDBDB",
"n. c #BEDBDB",
"m. c #BEDCDC",
"M. c #BFDCDC",
"N. c #C0C0C0",
"B. c #C1C1C1",
"V. c gray76",
"C. c #C3C3C3",
"Z. c gray77",
"A. c #C5C5C5",
"S. c #C6C6C6",
"D. c gray78",
"F. c #C8C8C8",
"G. c gray79",
"H. c #CACACA",
"J. c #CBCBCB",
"K. c gray80",
"L. c #CDCDCD",
"P. c #CECECE",
"I. c gray81",
"U. c #D0CCCC",
"Y. c #D0CECE",
"T. c #C0DDDD",
"R. c #C0DEDE",
"E. c #C2DFDF",
"W. c #D0D0D0",
"Q. c #D0D1D1",
"!. c gray82",
"~. c #D3D1D1",
"^. c #D1D2D2",
"/. c #D2D2D2",
"(. c LightGray",
"). c gray83",
"_. c #D5D5D5",
"`. c #D6D4D4",
"'. c gray84",
"]. c #D7D7D7",
"[. c #D8D6D6",
"{. c #D9D7D7",
"}. c #D8D8D8",
"|. c gray85",
" X c #DBD9D9",
".X c #DADADA",
"XX c gray86",
"oX c gainsboro",
"OX c #DDDDDD",
"+X c gray87",
"@X c #DFDFDF",
"#X c #C9E6E6",
"$X c #CBE9E9",
"%X c #CCE9E9",
"&X c #CDEAEA",
"*X c #CEEBEB",
"=X c #CEECEC",
"-X c #CFECEC",
";X c #CFEDED",
":X c #D4F1F1",
">X c #D7F5F5",
",X c #DCFAFA",
"<X c #DEFFFF",
"1X c #DFFFFF",
"2X c gray88",
"3X c #E1E1E1",
"4X c #E2E2E2",
"5X c gray89",
"6X c #E4E4E4",
"7X c gray90",
"8X c #E6E6E6",
"9X c #E7E7E7",
"0X c #E8E4E4",
"qX c gray91",
"wX c #E9E9E9",
"eX c #EAE8E8",
"rX c #EAEAEA",
"tX c gray92",
"yX c #ECECEC",
"uX c #EFEDED",
"iX c #EFEFEF",
"pX c #F1EFEF",
"aX c LightCyan",
"sX c #E1FFFF",
"dX c #E2FFFF",
"fX c #E3FFFF",
"gX c #E5FFFF",
"hX c #E9FFFF",
"jX c #EAFFFF",
"kX c #EBFFFF",
"lX c gray94",
"zX c #F1F1F1",
"xX c gray95",
"cX c #F3F3F3",
"vX c #F4F2F2",
"bX c #F5F3F3",
"nX c #F4F4F4",
"mX c gray96",
"MX c #F6F4F4",
"NX c #F7F5F5",
"BX c #F9F7F7",
"VX c #F2FFFF",
"CX c #F3FFFF",
"ZX c #F4FFFF",
"AX c #F5FFFF",
"SX c #F6FFFF",
"DX c #F7FFFF",
"FX c #F8FFFF",
"GX c white",
/* pixels */
"aXaXaXaXaXaXaXaXaXaXaXaXaXaXaXaXaXaXaXaXaXaXaXaXaXaXaXaXaXaXaXaXaXaXaXaXaXaXaXaXaXaXaXaXaXaXaXaXaXaX",
"aXaXaXaXaXaXaXaXaXaXaXaXaXaXaXaXaXaXaXaXaXaXaXaXaXaXaXaXaXaXaXaXaXaXaXaXaXaXaXaXaXaXaXaXaXaXaXaXaXaX",
"aXaX1XsXhXjXjXjXjXjXjXjXjXjXjXjXjXjXjXjXjXjXjXjXjXjXjXjXjXjXjXjXjXjXjXjXjXjXjXjXjXjXjXjXjXkXgX<XaXaX",
"aXaXaXsX:X%X*X*X*X*X*X*X*X*X*X*X*X*X*X*X*X*X*X*X*X*X*X*X*X*X*X*X*X*X*X*X*X*X*X*X=X=X=X-X=X-X,XdXaXaX",
"aXaXjX>X+ . o o o o o o o o o o o o o o o o o o o o o o o o o o o o o o o o o o o o o o O   #.FXaXaX",
"aXaXkXn.G 0X{.{.{.{.{.{.{.{.{.{.{.{.{.{.{.{.{.{.{.{.{.{.{.{.{.{.{.{.{.{.{.{.{.{.[.`.~.Y.~.R X.ZXaXaX",
"aXaXjXv.,.GXcXnXnXmXmXnXnXnXnXnXnXnXnXnXnXnXnXnXnXnXnXnXnXnXnXnXnXnXnXnXnXnXnXcXxXiXtX9X3X-.@.VXaXaX",
"aXaXjXb.+.BXqXqXqXwXwXqXqXqXqXqXqXqXqXqXqXqXqXqXqXqXqXqXqXqXqXqXqXqXqXqXqXqXqX9X6X3XOXQ.A.m o.CXaXaX",
"aXaXjXb.O.NX8X9X9X8X8X8X7X7X7X7X7X7X7X7X7X7X7X7X7X7X7X7X7X7X7X7X7X7X7X7X7X7X7X5X2XOX!.c.p.r o.AXaXaX",
"aXaXjXb.O.MX7X6X7X6X4X4X5X8X9X9X9X9X9X9X9X9X9X9X9X9X9X9X9X9X9X9X9X9X9X9X9X7X3X@XoX(.V.y.4.3 o.AXaXaX",
"aXaXjXn.| bX6X5X4X3X+X5XqXoX|..X.X.X.X.X.X.X.X.X.X.X.X.X.X.X.X.X.X.X.X.X|.4X7XoX_.S.a.2.&.< o.AXaXaX",
"aXaXjXn.| bX5X4X3X@X4X3Xy.H F K K K K K K K K K K K K K K K K K K K K H D ] K.2XK.x.r.*.' > o.SXaXaX",
"aXaXjXn.| bX5X4X2X@X7Xy.t a y p p p p p p p p p p p p p p p p p p p p i i i D J.L.h.6. ./ : o.SXaXaX",
"aXaXjXn.| bX5X4X2X4X|.H s =.N.k.j.j.j.j.j.j.x.C.S.S.Z.N.j.h.j.j.j.j.j.z.p.F p r.W.f.5.} ~ : o.SXaXaX",
"aXaXjXn.| bX5X4X2X4X].F y N.zX6X6X6X6X5X9XiX6X!.A.A.L.@XiXrX5X6X6X6X6XwX4X~ t w.W.f.5.} ~ : o.SXaXaX",
"aXaXjXn.| bX5X4X2X4X}.K p k.6X|.|.|.}.@X2Xg.T c p i k H r.XX4X}.|.|.|.OX}.~ y r.W.f.5.} ~ : o.SXaXaX",
"aXaXjXn.| bX5X4X2X4X}.K p j.6X|.|.}.@X+X<.i t k H K v y y Q _.4X}.|.|.OX}.~ y r.W.f.5.} ~ : o.SXaXaX",
"aXaXjXn.| bX5X4X2X4X}.K p j.6X|.|..X4X5.y h ] F.}._.G.1.z y ~ oX+X|.|.OX}.~ y r.W.f.5.} ~ : o.SXaXaX",
"aXaXjXn.| bX5X4X2X4X}.K p j.6X|.|.5XZ.h a <.4X+X2X9X6X7Xi.z y i.6X|.|.OX}.~ y r.W.f.5.} ~ : o.SXaXaX",
"aXaXjXn.| bX5X4X2X4X}.K p j.6X|.XX2X>.t E .XiXe.P /.8X4X6X>.t U }.OX|.OX}.~ y r.W.f.5.} ~ : o.SXaXaX",
"aXaXjXn.| bX5X4X2X4X}.K p j.6X|.+X'.P t p.9X7Xi.4 B h.+XwXC.k n F.3X|.OX}.~ y r.W.f.5.} ~ : o.SXaXaX",
"aXaXjXn.| bX5X4X2X4X}.K p j.6X|.@XI.Z s N.7X7Xp.h n 7 / OX).S h N.4X|.OX}.~ y r.W.f.5.} ~ : o.SXaXaX",
"aXaXjXn.| bX5X4X2X4X}.K p j.6X|.@X!.S p z.8X7Xa.y s P h.3XI.B z V.4X|.OX}.~ y r.W.f.5.} ~ : o.SXaXaX",
"aXaXjXn.| bX5X4X2X4X}.K p j.6X|.oX.X/ q 5.7XqX0.8 t..X7XwXf.p Z I.@X|.OX}.~ y r.W.f.5.} ~ : o.SXaXaX",
"aXaXjXn.| bX5X4X2X4X}.K p j.6X|.|.6Xt.y n D.lXC.B.7X2X8X'.K t %.2XXX|.OX}.~ y r.W.f.5.} ~ : o.SXaXaX",
"aXaXjXn.| bX5X4X2X4X}.K p j.6X|.|.2X).S i D Z.qXiX9X5XW.~ a h S.5X|.|.OX}.~ y r.W.f.5.} ~ : o.SXaXaX",
"aXaXjXn.| bX5X4X2X4X}.K p j.6X|.|.|.6XZ.k y v >.f.g.6.Z i p p.5X.X|.|.OX}.~ y r.W.f.5.} ~ : o.SXaXaX",
"aXaXjXn.| bX5X4X2X4X}.K p j.6X|.|.|..X6XA.H i q t t q t N f.5XOX}.|.|.OX}.~ y r.W.f.5.} ~ : o.SXaXaX",
"aXaXjXn.| bX5X4X2X4X}.K p k.8XXXXXXX.XoX8X}.d.*.E T  .t./.9X@XXXoXoXoX2XXX~ y r.W.f.5.} ~ : o.SXaXaX",
"aXaXjXn.| bX5X4X2X4X}.K i x.yX@X@X2X@X+X+X6XwX3XXX|.+X9X6XoXXXoXXX.X.X+X}.~ y r.W.f.5.} ~ : o.SXaXaX",
"aXaXjXn.| bX5X4X2X4X}.K c } 5.>.>.>.=.*.*.*.%.=.>.=.%.} ] / / ` ~ E Q Q U F k r.W.f.5.} ~ : o.SXaXaX",
"aXaXjXn.| bX5X4X2X4X}.K B n k c z n F N v n N N N C C C Z D D D F K H K U F k r.W.f.5.} ~ : o.SXaXaX",
"aXaXjXn.| bX5X4X2X4X}.K a i.@XoX+X_.B.|.+X+X@X@X@X2X2X2X2X3X3X3X3X4X4X8X.XQ y r.W.f.5.} ~ : o.SXaXaX",
"aXaXjXn.| bX5X4X2X4X}.K i V.OXV.H.f.D j.G.Z.Z.Z.Z.Z.Z.Z.Z.C.C.C.C.C.V.F.}.] y r.W.f.5.} ~ : o.SXaXaX",
"aXaXjXn.| bX5X4X2X4X}.K s V.w.6 p h C h a a a a a a a a a a a a a a y s Z.=.y r.W.f.5.} ~ : o.SXaXaX",
"aXaXjXn.| bX5X4X2X4X}.H p V.oXN.G.i.k f.G.C.C.C.C.C.C.C.C.C.C.C.C.C.B.G..X} t r.W.f.5.} ~ : o.SXaXaX",
"aXaXjXn.| bX5X3X2X4X].F p i.9X5X8X].a..X7X3X3X3X3X3X3X3X3X3X3X3X3X3X4X8X).U y w.!.f.5.} ~ : o.SXaXaX",
"aXaXjXn.| bX5X2X@X@X@X} p D ~ / Q ] <.` Q ~ ~ ~ ~ ~ ~ ~ ~ ~ ~ ~ ~ ~ ~ ` U N k g.K.s.3.] ^ : o.SXaXaX",
"aXaXjXn.{ vX4X2X+XXX2XD.D s i p p p p p p p p p p p p p p p p p p p p i p z 2.K.x.u.<.' ! : o.SXaXaX",
"aXaXjXn.{ vX3X+XoX'.P.^.C.6.5.6.6.6.6.6.6.6.6.6.6.6.6.6.6.6.6.6.6.6.6.6.4.i.G.V.a.0.*.~ E ; o.SXaXaX",
"aXaXjXm.[ pX+XoX/.D.x.j.l.B.V.B.B.B.B.B.B.B.B.B.B.B.B.B.B.B.B.B.B.B.B.V.V.N.d.t.7.:.' I Y ; o.SXaXaX",
"aXaXjXm.' uX.XI.B.p.q.3.<.>.>.>.>.>.>.>.>.>.>.>.>.>.>.>.>.>.>.>.>.>.>.>.>.>.;.&.[ ! L D H - o.SXaXaX",
"aXaXjXM._ eXL.k.w.=.) T U P P P P P P P P P P P P P P P P P P P P P P P P P K H D Z N M Z % o.SXaXaX",
"aXaXjXR.W  Xj.9.] J V b c c c c c c c c c c c c c c c c c c c c c c c c c c x l j h g h M # o.SXaXaX",
"aXaXkXT.A U.8.( A f u w 0 0 0 0 0 0 0 0 0 0 0 0 0 0 0 0 0 0 0 0 0 0 0 0 0 0 9 9 9 0 0 e d @ ..DXaXaX",
"aXaXjX;X2 i 5 1 , * & $ $ $ $ $ $ $ $ $ $ $ $ $ $ $ $ $ $ $ $ $ $ $ $ $ $ $ $ $ $ & & * = X $.DXaXaX",
"aXaXaXfX-XE.#X$X&X=X-X;X;X;X;X;X;X;X;X;X;X;X;X;X;X;X;X;X;X;X;X;X;X;X;X;X;X;X;X;X;X-X-X-X*X*X,XdXaXaX",
"aXaX1XsXhXjXjXjXjXjXjXjXjXjXjXjXjXjXjXjXjXjXjXjXjXjXjXjXjXjXjXjXjXjXjXjXjXjXjXjXjXjXjXjXjXkXgX<XaXaX",
"aXaXaXaXaXaXaXaXaXaXaXaXaXaXaXaXaXaXaXaXaXaXaXaXaXaXaXaXaXaXaXaXaXaXaXaXaXaXaXaXaXaXaXaXaXaXaXaXaXaX",
"aXaXaXaXaXaXaXaXaXaXaXaXaXaXaXaXaXaXaXaXaXaXaXaXaXaXaXaXaXaXaXaXaXaXaXaXaXaXaXaXaXaXaXaXaXaXaXaXaXaX"
};
