/* XPM */
static char *playPressed_xpm[] = {
/* columns rows colors chars-per-pixel */
"50 50 143 2 ",
"   c #000001",
".  c #01050B",
"X  c #03090E",
"o  c #070B11",
"O  c #0A0E13",
"+  c #0E1115",
"@  c #101317",
"#  c #131519",
"$  c #16191C",
"%  c #191C1E",
"&  c #1F2022",
"*  c #252526",
"=  c #272728",
"-  c #272929",
";  c #2C2C2C",
":  c #33302F",
">  c #343231",
",  c #393534",
"<  c #3D3A37",
"1  c #443F3B",
"2  c #543F31",
"3  c #46423E",
"4  c #49443F",
"5  c #4A4745",
"6  c #4E4843",
"7  c #524D47",
"8  c #544E48",
"9  c #5C554E",
"0  c #515251",
"q  c #5E5850",
"w  c #585A5A",
"e  c #665445",
"r  c #6B5747",
"t  c #6B5D4F",
"y  c #645C54",
"u  c #6B5F53",
"i  c #676157",
"p  c #6A6157",
"a  c #67635C",
"s  c #69635B",
"d  c #756455",
"f  c #796656",
"g  c #7A6957",
"h  c #776658",
"j  c #72695E",
"k  c #7D6C5A",
"l  c #656561",
"z  c #756B60",
"x  c #7C6F62",
"c  c #7D7164",
"v  c #76716B",
"b  c #79746E",
"n  c #856F5A",
"m  c #827464",
"M  c #877866",
"N  c #827669",
"B  c #86796A",
"V  c #8B7C6B",
"C  c #877C70",
"Z  c #8B7F72",
"A  c #8E806F",
"S  c #91816F",
"D  c #8F8276",
"F  c #928474",
"G  c #988775",
"H  c #968877",
"J  c #9B8A76",
"K  c #9E8D7A",
"L  c #A18F7D",
"P  c #A3917E",
"I  c #9C8F81",
"U  c #9F9181",
"Y  c #A39484",
"T  c #A99682",
"R  c #AE9B86",
"E  c #A29688",
"W  c #A6998A",
"Q  c #AA9B8C",
"!  c #B19D87",
"~  c #B39F89",
"^  c #92A09F",
"/  c #B4A08B",
"(  c #BAA48E",
")  c #B3A493",
"_  c #BCA790",
"`  c #BCA994",
"'  c #B7A998",
"]  c #BCAB98",
"[  c #97A6A5",
"{  c #98A7A6",
"}  c #99AAAA",
"|  c #C3AD96",
" . c #C5AF98",
".. c #C6B29A",
"X. c #CEB69D",
"o. c #D1B99F",
"O. c #C5B4A1",
"+. c #C8B6A3",
"@. c #CAB9A5",
"#. c #D3BBA1",
"$. c #D8BFA5",
"%. c #D1BDA8",
"&. c #D7C0A6",
"*. c #DBC1A7",
"=. c #D5C1AC",
"-. c #DEC5AA",
";. c #DBC7B2",
":. c #DDC9B4",
">. c #E2C7AB",
",. c #E3C9AD",
"<. c #E3CCB4",
"1. c #E9CEB1",
"2. c #E6D2B6",
"3. c #ECD2B5",
"4. c #E7D0B9",
"5. c #E9D1B9",
"6. c #F2D6B8",
"7. c #F5D9BB",
"8. c #FBDDBF",
"9. c #F5DDC4",
"0. c #FDDFC1",
"q. c #F4E4C3",
"w. c #FEE4C4",
"e. c #FDE5CA",
"r. c #FFEBCA",
"t. c #FFF1CF",
"y. c #FFF5D4",
"u. c #FFF9D6",
"i. c #FFF4D8",
"p. c #FFFEDC",
"a. c #CAE9EC",
"s. c #CFEFF2",
"d. c #D0EFF2",
"f. c #D5F3F5",
"g. c #D8F6F6",
"h. c #DEFDFD",
"j. c #FFFFE3",
"k. c #FFFFEB",
"l. c #E0FFFF",
"z. c #EAFFFF",
"x. c #FFFFF1",
"c. c #F5FFFF",
"v. c #F9FFFF",
/* pixels */
"l.l.l.l.l.l.l.l.l.l.l.l.l.l.l.l.l.l.l.l.l.l.l.l.l.l.l.l.l.l.l.l.l.l.l.l.l.l.l.l.l.l.l.l.l.l.l.l.l.l.",
"l.l.l.l.l.l.l.l.l.l.l.l.l.l.l.l.l.l.l.l.l.l.l.l.l.l.l.l.l.l.l.l.l.l.l.l.l.l.l.l.l.l.l.l.l.l.l.l.l.l.",
"l.l.h.l.z.z.z.z.z.z.z.z.z.z.z.z.z.z.z.z.z.z.z.z.z.z.z.z.z.z.z.z.z.z.z.z.z.z.z.z.z.z.z.z.z.z.z.h.l.l.",
"l.l.l.l.g.f.f.f.f.f.f.f.f.f.f.f.f.f.f.f.f.f.g.g.f.f.f.f.f.g.f.f.f.f.f.g.f.f.f.f.f.f.f.f.f.f.g.l.l.l.",
"l.l.z.f.w 5 0 0 0 0 0 0 0 0 0 0 0 0 0 0 0 0 0 0 0 0 0 0 0 0 0 0 0 0 0 0 0 0 0 0 0 0 0 0 0 , } v.l.l.",
"l.l.z.s.9 e t u t t t t t t t t t t t t t t t t t t t t t t t t t t t t t t t t t t t u d 2 ^ v.l.l.",
"l.l.z.s.a f k x k m m m m m n m m m m M m m m m m n m m m m m m m m c n m c n n n c k m M r [ v.l.l.",
"l.l.z.f.a d k x m M M M A A V V V V V V V V V V V A S V V V V V M A A A A A S S V M B m V t { c.l.l.",
"l.l.z.f.s f c m V F J J L J L L J L L P J P J P P K L L J L L L L L L J L L K J G G S D F d [ c.l.h.",
"l.l.z.s.a g m V G P T ! ~ / / / / / / / / / / / / / / / / / / / / / / / / / | P R T L H K h { c.l.l.",
"l.l.z.s.a k M S P ! ( |  .X.o.o.o.o.o.o.o.o.#.#.o.o.o.o.o.o.o.o.o.o.o.o.o..... .| ( R Y U h [ c.l.l.",
"l.l.z.s.a k M G P ( ..X.,.3.o.X.o.o.X.o.o.o.X.X.o.X.o.o.o.X.o.o.o.o.o.X.>.6.>.*.#.X.' W U h [ c.l.l.",
"l.l.z.s.s k M G ! | o.1.>.t ; - ; ; ; : ; ; ; ; ; ; ; ; ; ; ; ; ; ; ; - < / w.3.-.@.` W Y h [ c.l.l.",
"l.l.z.s.s k V J ! | *.7.d   + @ @ @ @ @ + + # # $ $ # + @ @ @ @ @ @ # + X % #.e.<.%.] Q Y h [ c.l.l.",
"l.l.z.s.s k V J !  .,.*.; + B +.` ` _ _ ` | #.>.&.#.-.&. ._ | _ ` `  .` 3   D i.<.%.] R Y h [ c.l.l.",
"l.l.z.s.a k V J P ..>.*.- + #.j.t.t.t.t.p.j.6.W V B L -.p.p.t.t.y.t.y.p.s   Z i.<.%.] Q Y h [ c.l.l.",
"l.l.z.s.s k V J ! | >.-.; @ | t.0.8.8.t.r.c &         + q 2.u.8.8.8.r.r.y   F u.<.%.] Q Y h [ c.l.l.",
"l.l.z.s.s k V J R | >.*.; @ ` t.8.8.r.r.9   . 1 c N 6 +   > 2.y.8.8.w.r.y   D i.<.%.] W Y h [ c.l.l.",
"l.l.z.s.s k V G ! | >.*.; # ` y.8.8.u.M   @ F r.k.p.r./ *   8 r.w.8.8.r.y   F y.<.%.] Q Y h [ c.l.l.",
"l.l.z.s.s k V J ! | >.*.; @ | t.8.t.,.* . V k...H y.u.j.| @ . ( y.8.w.r.y   D y.<.%.` Q Y h [ c.l.l.",
"l.l.z.a.s k V J !  .,.*.; # | t.8.u.P . : 8.j.H   q 2.p.y.y   j y.w.w.r.y   D i.<.%.] Q Y g [ c.h.l.",
"l.l.z.f.s k M J R | >.*.; @ ` y.0.u.B   p t.u.R + X # D j.K   8 w.w.w.r.y   D i.<.%.` Q Y h [ c.l.l.",
"l.l.z.s.s k V J ! | >.*.; @ | t.0.u.N   s t.u.W O X $ Z j.L   8 w.w.w.r.y   F u.<.%.] Q Y h [ c.l.l.",
"l.h.z.s.s n M J ! | >.*.; @ ` t.0.u.P   , w.j.H   i 2.p.u.s   d y.8.w.r.y   D y.<.%.] Q Y h [ c.l.l.",
"l.l.z.s.s k V G ! | >.*.; @ ` y.w.r.>.& . F k...T u.u.j...$ . ~ u.8.w.r.y   F i.<.%.` Q Y h [ c.l.l.",
"l.l.z.s.s k V J ! | >.*.; @ | t.8.0.y.M   $ H y.j.p.t.` ;   6 r.w.8.w.r.y   D u.<.%.] W Y h [ c.l.l.",
"l.l.z.s.s k V G ! | >.*.; @ | t.8.8.r.q.8   X 6 B Z 9 @   ; ,.y.7.8.w.r.y   F i.<.%.] Q Y h [ c.l.l.",
"l.l.z.s.s k V J ~ | >.*.; @ | y.8.8.8.y.q.z #         o 7 <.u.7.8.8.w.r.y   D y.<.%.] W Y h [ c.l.l.",
"l.h.z.s.s k V J R | >.*.; @ X.p.r.r.r.r.u.j.,.J c c F @.p.j.r.t.y.t.u.p.s   D i.<.%. .W Y h [ c.l.l.",
"l.h.z.s.s k V J ! | >.*.; # ~ q.3.1.,.,.,.,.7.w.3.,.8.7.*.o.#.o.X.X.X.@.7   F i.<.%.] Q Y h [ c.l.l.",
"l.l.z.s.s k V J R  .>.*.> & $ @ # @ # + + o X + + o X X X o X X X X . X * X F u.<.%.] Q Y h [ c.l.l.",
"l.l.z.f.s k M J R  .>.*.> $ q N c c Z V B B D V D F F D H K J J L P P L 4 . F i.<.%.` Q Y d [ c.l.l.",
"l.l.z.s.s k V J ! | >.*.; @ $.j.y.p.L ~ k.y.u.u.u.p.u.p.u.u.p.u.u.y.p.j.p   F i.<.%.] Q Y d { c.l.l.",
"l.l.z.s.s k M J !  .>.*.; % ` y $ - # % - = * = = * * * * * * * * * @ W N   D y.<.%.` Q Y g [ c.l.l.",
"l.l.z.s.s k V J ! | ,.*.; $ ..Y s x * : N z z z z z j j z z j z z j p #.c   D i.<.@.] Q Y h [ c.l.l.",
"l.l.z.s.s k V J R | ,.&.= O  .k.j.k.K ) x.p.j.p.p.j.p.p.p.j.p.j.p.p.k.p.9   Z i.<.=.] Q Y h [ c.l.l.",
"l.l.z.s.s k V G ! ..>.3.< . 5 s y y z z y y y y y y y y y a y y y y s y *   E i.<.%.] R Y h [ c.l.l.",
"l.l.z.s.s k V G R | *.e.` $                   .                         . y e.9.<.%.` W Y h [ c.l.l.",
"l.l.z.s.s k V G R | $.1.t.%.Z Z D D D D D D Z D D D D D F D D D D D D C Y 9.e.4.:.@.' W Y h [ c.l.l.",
"l.l.z.d.a k M F T | $.,.5.e.i.i.i.i.i.i.i.i.i.j.i.i.i.i.i.i.i.i.i.i.i.i.i.9.4.<.=.+.' W U h [ c.l.l.",
"l.l.z.d.a k M G P ( +.=.-.:.:.:.:.:.:.:.:.:.:.:.:.:.:.:.:.:.:.:.:.:.:.:.:.:.:.$.@. .) Y I h { c.l.l.",
"l.l.z.d.a g m V P / ] O.@.@.@.@.@.@.@.@.@.@.@.@.@.@.@.@.@.@.@.@.@.@.@.@.@.+.+.O.] ' Q U I h [ c.l.l.",
"l.l.z.d.a k M V K W ) ' ' ' ' ' ' ' ' ] ' ' ' ' ' ' ' ' ' ' ' ' ' ' ' ' ' ' ' ) ) Q E I I d [ c.l.l.",
"l.l.z.d.a k B F K E W W Q Q Q Q Q Q Q Q Q Q Q Q Q Q Q Q Q Q Q Q Q Q Q Q Q Q Q W E E U I I h [ c.l.l.",
"l.l.z.a.u n V H K U Y Y E E Y Y Y Y Y Y Y Y Y Y W E E E Y Y Y Y W E E E Y Y Y Y U Y I K Y f ^ v.l.l.",
"l.l.z.f.l s v b b b b b b b b b b b b b b b b v b b b b b b b b b b b b b b b b b b b b b 9 } c.l.l.",
"l.l.l.l.f.a.a.a.a.a.a.a.a.a.a.a.a.a.a.a.a.a.a.a.a.a.a.a.a.a.a.a.a.a.a.a.a.a.a.a.a.a.a.a.a.a.h.z.l.l.",
"l.h.h.z.z.z.z.z.z.z.z.z.z.z.z.z.z.z.z.z.z.z.z.z.z.z.z.z.z.z.z.z.z.z.z.z.z.z.z.z.z.z.z.z.z.z.l.h.l.l.",
"l.l.l.l.l.l.l.l.l.l.l.l.l.l.l.l.l.l.l.l.l.l.l.l.l.l.l.l.l.l.l.l.l.l.l.l.l.l.l.l.l.l.l.l.l.l.l.l.l.l.",
"l.l.l.l.l.l.l.h.l.l.l.l.l.l.l.l.l.l.l.l.l.l.l.l.l.l.l.l.l.l.l.l.l.l.l.l.l.l.l.l.h.l.l.l.l.l.l.l.l.l."
};
