/* XPM */
static char *spyNormal_xpm[] = {
/* columns rows colors chars-per-pixel */
"50 50 169 2 ",
"   c #000004",
".  c #00020B",
"X  c #01090F",
"o  c #040B11",
"O  c #0A0F14",
"+  c #0C1116",
"@  c #0F1318",
"#  c #12151A",
"$  c #16191C",
"%  c #191C1E",
"&  c #1C1E21",
"*  c #242526",
"=  c #272828",
"-  c #2A2929",
";  c #302F2D",
":  c #33312F",
">  c #343230",
",  c #3B3734",
"<  c #3E3A36",
"1  c #443B37",
"2  c #443D3A",
"3  c #4B433D",
"4  c #55483E",
"5  c #664F3B",
"6  c #664A33",
"7  c #69513D",
"8  c #4D4640",
"9  c #4F4B43",
"0  c #544B43",
"q  c #504F4D",
"w  c #5B5047",
"e  c #5B5249",
"r  c #595957",
"t  c #585958",
"y  c #6E5640",
"u  c #61564B",
"i  c #63584E",
"p  c #755B45",
"a  c #675C50",
"s  c #6C5F53",
"d  c #7D634B",
"f  c #6D6154",
"g  c #6D655B",
"h  c #716456",
"j  c #7F6750",
"k  c #746759",
"l  c #746A5C",
"z  c #7C6C5C",
"x  c #786E62",
"c  c #746B60",
"v  c #7E7162",
"b  c #78736B",
"n  c #81654D",
"m  c #846B53",
"M  c #896E55",
"N  c #816F5A",
"B  c #887056",
"V  c #85735D",
"C  c #8B735A",
"Z  c #907359",
"A  c #93795E",
"S  c #817161",
"D  c #897764",
"F  c #8D7A64",
"G  c #84786A",
"H  c #8C7B69",
"J  c #927D66",
"K  c #9A7D62",
"L  c #8F806C",
"P  c #968067",
"I  c #95826D",
"U  c #9C856D",
"Y  c #978471",
"T  c #988772",
"R  c #9C8974",
"E  c #9A8B7A",
"W  c #9F907E",
"Q  c #A68567",
"!  c #A4876A",
"~  c #AD8768",
"^  c #A0886E",
"/  c #A58C72",
"(  c #A88F74",
")  c #A48F78",
"_  c #AB9176",
"`  c #A6927A",
"'  c #AC9479",
"]  c #BD9776",
"[  c #B1977C",
"{  c #B49A7E",
"}  c #B19273",
"|  c #C09F7D",
" . c #9C9084",
".. c #AC9983",
"X. c #A99C8C",
"o. c #A69582",
"O. c #B79D81",
"+. c #B99E82",
"@. c #AA9E90",
"#. c #94A19F",
"$. c #BCA084",
"%. c #BDA589",
"&. c #B0A496",
"*. c #97A6A5",
"=. c #98A6A5",
"-. c #9AA8A7",
";. c #99AAA9",
":. c #C1A587",
">. c #C2A78A",
",. c #C6AA8B",
"<. c #CBAD8D",
"1. c #CFB090",
"2. c #D3B494",
"3. c #D9B696",
"4. c #D9B997",
"5. c #DBBB99",
"6. c #D2BA98",
"7. c #E2B68C",
"8. c #E2BF9B",
"9. c #E1BB94",
"0. c #E4C29E",
"q. c #DBC4A0",
"w. c #E5C4A0",
"e. c #E9C6A3",
"r. c #EDCAA5",
"t. c #EDCDAB",
"y. c #F1CCA6",
"u. c #F3CFA9",
"i. c #EED2AC",
"p. c #F5D2AB",
"a. c #FAD4AD",
"s. c #E9CEB3",
"d. c #E9D1BB",
"f. c #F6D4B0",
"g. c #FAD6B1",
"h. c #F6D9B1",
"j. c #FCDAB4",
"k. c #FBDCBB",
"l. c #FEE1B6",
"z. c #FFE5BB",
"x. c #FFE9BE",
"c. c #B7D9DE",
"v. c #BADCE2",
"b. c #BEE1E7",
"n. c #BFE2E8",
"m. c #EBDEC2",
"M. c #FBDFC1",
"N. c #FBE1C4",
"B. c #FFECC3",
"V. c #FCE3C8",
"C. c #FFECCA",
"Z. c #FFF2C5",
"A. c #FFF5C9",
"S. c #FFF9CA",
"D. c #FFEED4",
"F. c #FFF2D2",
"G. c #FFFFD4",
"H. c #FFFEDF",
"J. c #C0E3E8",
"K. c #C6E8ED",
"L. c #CDECED",
"P. c #CEEFF2",
"I. c #CFF0F3",
"U. c #D5F3F4",
"Y. c #DEFDFD",
"T. c #E0FFFF",
"R. c #EAFFFF",
"E. c #F5FFFF",
"W. c #F8FFFF",
/* pixels */
"T.T.T.T.T.T.T.T.T.T.T.T.T.T.T.T.T.T.T.T.T.T.T.T.T.T.T.T.T.T.T.T.T.T.T.T.T.T.T.T.T.T.T.T.T.T.T.T.T.Y.",
"T.T.T.T.T.T.T.T.T.T.T.T.T.T.T.T.T.T.T.T.T.T.T.T.T.T.T.T.T.T.T.T.T.T.T.T.Y.T.T.T.T.T.T.T.Y.Y.T.T.T.T.",
"T.T.Y.T.R.R.R.R.R.R.R.R.R.R.R.R.R.R.R.R.R.R.R.E.R.R.R.R.R.R.R.R.R.R.R.R.R.R.R.R.R.R.R.R.R.R.R.Y.T.T.",
"T.T.T.T.U.L.L.L.L.L.K.K.L.L.L.L.L.L.L.L.L.L.K.K.L.L.L.L.L.L.L.L.L.L.L.L.L.L.L.L.L.L.L.L.L.L.Y.T.T.T.",
"T.T.R.U.t q r r t t t t t t t t r r t t t t q t t t t t r t t t t t t t t t r r r r r r r 1 *.E.T.T.",
"T.T.R.v. .m.d.d.m.m.d.d.d.d.d.d.d.d.d.m.d.d.m.m.m.s.m.m.s.d.d.d.d.d.d.d.d.d.d.s.s.t.e.0.8.~ *.E.T.T.",
"T.T.R.c.&.H.F.D.D.D.D.D.D.D.D.D.D.D.D.D.D.D.D.D.V.D.D.D.D.D.D.D.D.D.D.D.D.D.D.C.V.z.j.a.y.] -.E.T.T.",
"T.T.R.v.@.D.V.V.V.V.V.V.V.V.V.V.M.M.V.V.M.M.V.V.V.V.V.V.V.V.M.M.V.V.V.V.V.N.N.k.k.a.u.8.4.Q =.E.T.T.",
"T.T.R.v.@.F.V.V.V.V.M.N.M.M.M.N.M.M.M.M.N.V.M.N.M.M.M.M.M.M.M.M.M.M.V.M.M.M.k.k.j.u.8.2.<.A =.E.T.T.",
"T.T.R.v.@.C.N.M.M.M.M.M.M.k.M.k.M.M.k.k.k.k.k.k.M.M.k.M.M.M.M.M.k.k.M.k.M.k.k.g.p.0.3.,.:.Z *.E.T.T.",
"T.T.R.v.X.C.M.M.k.k.k.k.k.k.k.k.k.k.k.k.k.k.k.k.M.g.k.j.g.k.k.j.k.k.k.k.k.j.g.p.y.9.1.:.{ M =.E.T.T.",
"T.T.R.c.X.C.M.M.k.k.k.k.j.j.j.j.j.j.j.j.g.j.k.z.M.M.M.k.k.k.g.j.h.g.j.j.j.g.p.u.0.3.,.{ } m =.E.T.T.",
"T.T.R.v.X.C.M.k.k.k.g.k.f.j.g.g.f.g.j.z.Z.Z.k.p.i.u.p.j.V.C.z.j.f.g.g.g.a.a.p.r.0.2.:.[ _ n =.E.T.T.",
"T.T.R.v.X.C.k.k.k.j.k.g.g.f.a.g.g.z.C.t...z e 1 ; - > 8 h ) w.C.B.g.g.a.g.a.y.e.5.1.$.' ( n =.E.T.T.",
"T.T.R.v.X.B.k.k.j.g.g.g.g.a.a.j.Z.w.z : o     X + + o     . = h q.Z.l.a.a.p.y.0.4.1.$.' ( d =.E.T.T.",
"T.T.R.v.X.B.k.k.k.j.g.g.g.a.z.x.T =   . - e H ` +.%.[ I f : .   & P z.z.p.p.y.0.4.1.$.' / d =.E.T.T.",
"T.T.R.v.X.B.k.k.k.j.g.g.p.x.h.i .   : I q.l.S.G.G.G.G.S.x.r.) ,   . w h.x.y.r.0.5.1.$._ / d =.E.T.T.",
"T.Y.R.v.X.C.k.k.j.j.g.a.B.p.3   O l i.A.z.Z.j.O.H D ` p.A.z.Z.h.v +   3 i.z.r.w.5.1.$._ _ d *.E.T.T.",
"T.T.R.v.X.B.k.k.j.j.g.B.l.3   # ` Z.z.a.x.6.2 @ o o O > $.Z.g.z.A.' $   3 j.j.0.5.<.$.' / d *.E.T.T.",
"T.T.R.v.X.C.k.k.k.g.j.Z.f   @ $.S.j.p.B.6.$ O * = - = + o { B.a.g.S.%.@   k l.e.5.<.$.' / d *.E.T.T.",
"T.T.R.v.X.C.k.k.k.g.A.[ X o / S.g.a.j.j.3 X - - - - - - @ = e.z.a.g.S.( o o ' l.4.<.$._ ( d *.E.T.T.",
"T.T.R.v.X.B.k.k.g.N.t.> . k C.j.a.a.Z.$.+ * = - - - - = - o I Z.a.a.j.x.f . > 8.0.<.| ' ( d *.E.T.T.",
"T.T.R.v.X.B.k.k.k.A.T   - u.x.a.a.g.Z.D o - - - - - - - - + s z.j.g.p.x.r.= . F g.<.%.' / d *.E.T.T.",
"T.T.R.v.X.C.k.k.j.C.,.@ # >.Z.a.a.g.x.V o - - - = - - - - # e l.j.a.a.A.$.@ # O.y.<.| ' ( d *.E.T.T.",
"T.T.R.v.X.B.M.k.k.j.B.s   > f.x.a.a.Z.I o - - - - - - - - o l x.a.a.Z.r.-   f l.5.<.+.' / d *.E.T.T.",
"T.Y.R.v.X.B.k.k.j.j.B.w.* . u B.z.a.z.4.% & - - - - - - * + $.Z.p.x.l.3 . - e.a.5.<.$.' ( d *.E.T.T.",
"T.T.R.v.X.B.k.k.j.j.g.A.' o . z Z.z.a.B.N . = - = - - - . w z.g.B.l.e   @ :.z.0.5.<.$.' ( d *.E.T.T.",
"T.T.R.v.X.V.k.k.k.j.g.j.Z.D . X f j.Z.x.j.u + - - - - + 2 i.Z.A.q.3 . o ` B.u.0.5.<.+.' ( d =.E.T.T.",
"T.T.R.v.X.C.k.k.j.j.g.g.l.x.V X   1 %.z.S.Z.k @ - - @ a l.S.p.Y =   + ` Z.a.y.0.5.<.:.' / d =.E.T.T.",
"T.T.R.v.X.B.k.k.k.h.j.f.p.l.Z.R $   + 9 O.G.R o - - o I G.) - .   : <.A.j.u.y.0.5.<.{ ' ( d =.E.T.T.",
"T.T.R.v.X.C.k.k.j.j.g.g.g.a.j.A.6.e +   e S.i @ - - % 0 S.k   * S p.B.a.p.p.y.0.5.<.:.' ( d *.E.T.T.",
"T.T.R.v.X.B.k.k.k.j.g.g.g.a.a.a.x.z.%.4 $.x., & = - & - p.6.z 8.Z.l.a.a.a.p.y.0.5.1.{ ' / d *.E.T.T.",
"T.T.R.v.X.B.k.k.j.j.f.g.g.a.a.a.a.j.x.x.z.4.= & - - = % %.Z.x.x.a.a.a.a.a.p.r.0.5.1.$.' ( d =.E.T.T.",
"T.T.R.v.X.C.k.k.j.j.j.g.g.a.g.a.a.a.a.l.x.[ @ = = - = o I Z.j.a.a.a.a.a.p.p.y.0.5.1.| ' ^ n *.E.T.T.",
"T.T.R.v.X.B.k.k.k.g.g.j.g.a.a.a.a.a.a.a.Z.F o - - - - + f z.j.a.a.a.a.a.a.u.i.0.5.<.{ ' ( d *.E.T.T.",
"T.Y.R.v.X.C.k.k.j.j.g.f.g.a.a.a.a.a.a.j.z.e X & & % % + : a.l.a.a.a.a.a.a.u.r.0.5.<.%.' / d =.E.T.Y.",
"T.T.R.v.X.B.k.k.j.g.g.a.a.p.p.a.p.p.p.j.p.3 = : : : > ; : 2.l.p.p.p.p.p.p.u.r.8.2.<.$._ / d =.E.T.T.",
"T.T.R.v.X.B.j.j.g.a.a.u.u.r.y.y.u.u.y.y.r.0.0.0.0.e.0.0.0.r.u.u.y.y.y.u.u.0.0.9.1.,.{ ( ^ n =.E.T.T.",
"T.T.R.v.X.N.j.g.a.p.r.r.r.0.w.0.0.0.0.0.0.u.u.u.p.u.u.u.u.0.0.0.0.0.0.0.0.0.5.2.<.:.[ / ! d =.E.T.T.",
"T.T.R.v.X.l.g.p.r.e.0.0.5.5.5.5.5.5.8.5.5.5.5.5.5.5.5.5.5.5.5.5.5.5.8.5.5.4.1.<.:.{ ' U P p =.E.T.T.",
"T.T.R.v...l.u.e.0.5.2.1.1.1.<.<.<.<.<.<.<.<.1.<.<.<.<.<.<.<.<.<.<.1.<.1.<.,.:.$.{ ' ^ P P d *.E.T.T.",
"T.T.R.v.` a.0.4.1.,.:.$.$.{ { { O.O.O.O.{ O.{ { { $.{ { O.O.O.O.{ { { { { { [ ' / U P F F 7 =.E.T.T.",
"T.T.R.J.` y.2.,.%.{ ' _ / / ( ^ / ! / / / / R / / ^ / / / / / ! ( ^ ^ / / ! U U P J D B V 7 =.W.T.T.",
"T.T.R.J.E 5.,.{ ' ^ U U P J P P J J J J F P J J F P J J J F J J P P J L P F F D C V z z N 5 *.W.T.T.",
"T.T.R.b.Y 7.{ } ! K A C C C B B B B B B B B B B B B B B C M B B B B B B B B m m j d d d m 6 #.W.T.T.",
"T.T.R.P.b H G G x c l g g g g g g g g g g g g g g g g g g g g g g g g g g g g g g g g g g 4 -.W.T.T.",
"T.T.T.R.P.b.K.K.P.P.P.P.P.L.I.I.P.P.P.P.I.P.P.P.I.P.I.I.P.P.P.P.I.L.I.I.P.P.I.P.I.I.I.I.I.L.Y.T.T.T.",
"T.T.Y.Y.R.R.R.R.R.R.R.R.R.R.R.R.R.R.R.R.R.R.R.R.R.R.R.R.R.R.R.R.R.R.R.R.R.R.R.R.R.R.R.R.R.R.R.Y.T.T.",
"T.T.T.T.T.T.T.T.T.T.T.T.T.T.T.T.T.T.T.T.T.T.T.T.T.T.T.T.T.T.T.T.Y.Y.T.T.T.T.T.T.T.T.T.T.T.T.T.T.T.T.",
"T.T.T.T.T.T.T.T.T.T.T.T.T.T.Y.T.T.T.T.T.T.T.T.T.T.T.T.T.T.T.T.T.Y.Y.T.T.T.T.Y.T.T.T.T.T.T.T.T.T.T.T."
};
