/* XPM */
static char *spyPressed_xpm[] = {
/* columns rows colors chars-per-pixel */
"50 50 144 2 ",
"   c #000002",
".  c #01050B",
"X  c #05090F",
"o  c #060B10",
"O  c #0A0E13",
"+  c #0E1116",
"@  c #101317",
"#  c #121518",
"$  c #16191C",
"%  c #1A1C1E",
"&  c #1E1F21",
"*  c #1E2021",
"=  c #242425",
"-  c #2A2929",
";  c #302E2D",
":  c #353331",
">  c #3A3634",
",  c #3A3836",
"<  c #3E3C39",
"1  c #423E3B",
"2  c #543F31",
"3  c #45413D",
"4  c #4A4642",
"5  c #524B45",
"6  c #554F48",
"7  c #565049",
"8  c #5B534D",
"9  c #515251",
"0  c #5E5851",
"q  c #585A5A",
"w  c #665445",
"e  c #6B5747",
"r  c #64574F",
"t  c #6B5D4F",
"y  c #655C53",
"u  c #6C5E50",
"i  c #6C6056",
"p  c #67635C",
"a  c #68635B",
"s  c #756455",
"d  c #796656",
"f  c #7A6957",
"g  c #776658",
"h  c #746A5F",
"j  c #7D6C5A",
"k  c #656561",
"l  c #766C60",
"z  c #7C6E62",
"x  c #7E7163",
"c  c #76716B",
"v  c #79746E",
"b  c #856F5A",
"n  c #827464",
"m  c #877866",
"M  c #857669",
"N  c #867A6B",
"B  c #8B7C6B",
"V  c #8C7E70",
"C  c #8E806F",
"Z  c #91816F",
"A  c #8E8171",
"S  c #938474",
"D  c #988775",
"F  c #9B8A76",
"G  c #9E8D7B",
"H  c #A18F7C",
"J  c #A2917E",
"K  c #9D8F81",
"L  c #9F9181",
"P  c #A39484",
"I  c #A99682",
"U  c #A79986",
"Y  c #AF9C86",
"T  c #A29688",
"R  c #A6998A",
"E  c #AA9B8C",
"W  c #B19D87",
"Q  c #B29E8A",
"!  c #92A09F",
"~  c #B4A08A",
"^  c #BAA58F",
"/  c #B4A493",
"(  c #BBA690",
")  c #BBA995",
"_  c #B7A998",
"`  c #BCAB98",
"'  c #97A6A5",
"]  c #98A7A6",
"[  c #99AAAA",
"{  c #C4AE96",
"}  c #C6AF98",
"|  c #C7B097",
" . c #C7B29A",
".. c #C8B199",
"X. c #D0B89F",
"o. c #C5B4A1",
"O. c #C8B6A3",
"+. c #CBB9A5",
"@. c #D6BDA3",
"#. c #D8BEA4",
"$. c #D1BDA8",
"%. c #D2C1A7",
"&. c #DAC1A6",
"*. c #D5C1AC",
"=. c #DCC4A9",
"-. c #DFC8AD",
";. c #DBC7B2",
":. c #DDC9B4",
">. c #E1C7AB",
",. c #E4CAAD",
"<. c #E3CCB3",
"1. c #E9CEB2",
"2. c #E5D0B5",
"3. c #EDD2B5",
"4. c #E7D2BB",
"5. c #EDD6BD",
"6. c #EAD9BB",
"7. c #F0D4B7",
"8. c #F3D6B9",
"9. c #F5DABB",
"0. c #FBDDBE",
"q. c #F5DCC2",
"w. c #FBDFC1",
"e. c #F4E0C1",
"r. c #FCE2C4",
"t. c #FFE8C7",
"y. c #FCE6C9",
"u. c #FFEDCB",
"i. c #FFF1CE",
"p. c #FFF5D2",
"a. c #FFF9D6",
"s. c #FFFEDB",
"d. c #CAE9EC",
"f. c #CFEFF2",
"g. c #D0EFF2",
"h. c #D5F3F5",
"j. c #D8F6F6",
"k. c #DEFDFD",
"l. c #FFFFE3",
"z. c #FFFFE9",
"x. c #E0FFFF",
"c. c #EAFFFF",
"v. c #F5FFFF",
"b. c #F9FFFF",
/* pixels */
"x.x.x.x.x.x.x.x.x.x.x.x.x.k.x.x.x.x.x.x.x.x.x.x.x.x.x.x.x.x.x.x.x.x.x.x.x.x.x.x.x.x.x.x.x.x.x.x.x.x.",
"x.x.x.x.x.x.x.x.x.x.x.x.x.x.x.x.x.x.x.x.x.x.x.x.x.x.x.x.x.x.x.x.x.k.x.x.x.x.x.x.x.x.x.x.k.k.x.x.x.x.",
"x.x.k.x.c.c.c.c.c.c.c.c.c.c.c.c.c.c.c.c.c.c.c.c.c.c.c.c.c.c.c.c.c.c.c.c.c.c.c.c.c.c.c.c.c.c.c.k.x.x.",
"x.x.x.x.j.h.h.h.h.h.h.h.h.h.h.h.h.h.h.h.h.h.h.h.h.h.h.h.h.h.h.h.h.h.h.h.h.h.h.h.h.h.h.h.h.h.k.x.x.x.",
"x.x.c.h.q 4 9 9 7 9 9 9 9 9 9 7 9 9 9 9 9 9 7 9 9 9 9 9 9 9 9 9 7 9 9 9 9 9 9 9 9 9 9 9 9 : [ b.x.x.",
"x.x.c.f.8 w u u t t u t u u u t t t t t t t t t t t t t t t t t t t u t t t t t u t t t s 2 ! b.x.x.",
"x.x.c.h.a d l j z z n n x n b n n m n n n n n n n n n n n m n n n n n n n n b n n z z n m e ' v.x.x.",
"x.x.c.g.a d l x n m m m C C B B B B B B B B B Z Z B B B B B B B B B C C m C C B B m m m B t ' b.x.x.",
"x.x.c.h.p d n n B S D F H H H H F H H H G G G G H H H H H H F H G G H F H H G F D D S C D s ' v.x.x.",
"x.x.c.f.a f n B D J I W ~ ~ ~ ~ ~ ~ ~ ~ ~ ~ ~ ~ ~ ~ ~ ~ ~ ~ ~ ~ ~ ~ ~ ~ ~ ~ ~ ~ Y I H F G g ] v.x.x.",
"x.x.c.f.a j n Z J W ^ { | ......| | ......| | | ....| ..| | | | | ..| | | ....| { ^ E P K g ' v.x.x.",
"x.x.c.f.a j m S J ^ ..X.&.X.&.X.@.@.@.@.&.X.&.&.X.&.X.&.&.@.@.@.&.@.@.&.@.&.>.>.@.| / R L g ' v.x.x.",
"x.x.c.f.p j B D W { X.&.>.,.,.,.1.,.,.,.,.,.3.3.8.8.7.3.1.,.,.,.,.,.,.,.1.3.3.3.;.+.) E T g ' v.x.x.",
"x.x.c.f.p j B F Y { X.>.1.7.7.7.7.7.7.0.i.i.0.3.1.,.2.9.t.i.0.7.3.8.8.8.8.9.9.5.<.$.) E L g ' v.x.x.",
"x.x.c.f.p f B F Y { X.,.3.8.9.9.9.t.a.0.( M 7 , - - : 5 l W 8.a.t.9.9.9.0.w.w.5.<.$.) E P g ' v.x.x.",
"x.x.c.f.p b B F W { #.,.3.9.9.0.p.r.G 3 X     + $ % $       : S w.a.w.0.0.r.q.5.<.$.{ E P g ' v.x.x.",
"x.x.c.f.a j B F Y { @.,.3.9.r.s.X.3     - h P } =.>. .E M >     1  .s.r.0.r.q.5.<.$.` E P g ' v.x.x.",
"x.x.c.h.a j B F Y { @.,.3.w.a.U +   ; G 6.p.l.z.a.p.l.l.s.0.U :   O P s.y.w.w.5.<.$.` E P g ' v.x.x.",
"x.x.c.d.a j B F Y { @.>.8.p.L .   y 6.s.i.s.-.n 6 6 h +.a.i.s.9.y   . P s.y.0.8.<.$.` E P g ' v.x.x.",
"x.x.c.g.a j m F Y { @.,.i.~ X   m a.i.0.a.~ * . @ # X @ F p.r.p.s.M   . ^ s.q.5.<.$.) E P g ' v.x.x.",
"x.k.c.g.p j B F W { @.0.=.*   n s.u.0.p.X.@ + - - - - $ X Q a.0.t.s.n   & <.p.5.<.$.) E T d ' v.x.x.",
"x.x.c.f.p j m G Y { #.0.8   6 i.i.9.r.i.8 X - - - - - - + , 0.y.9.u.i.5   y i.q.<.$.` E P g ' v.x.x.",
"x.x.c.f.p j B F W { 7.H X - 3.i.9.0.u.,.= * - - - - - - = $ | p.0.0.a.1.; . Q p.<.$.` E T g ' v.x.x.",
"x.x.c.f.p b m F Y { 8.S   < y.u.0.0.i. .* = - - - - - - - @ U a.w.0.i.y.,   L p.<.$.` E P g ' v.x.x.",
"x.x.c.f.p j B F W { &.3.3   B s.w.0.u.#.= * - - - - - - = $ ( p.0.r.a.x   4 y.q.<.$.` E P g ' v.x.x.",
"x.x.c.f.p j B F W | X.r.W . + | s.0.y.y.3 @ - - - - - - $ - 3.t.r.s.~ . X  .s.5.<.$.) E P g ' v.x.x.",
"x.x.c.f.p b B F W | X.1.u.h   = =.s.w.p.E . * - = - - = . B a.t.s.` @   A s.w.9.<.$.` E P g ' v.x.x.",
"x.x.c.f.p j m F W ..X.>.r.r.5   =  .s.p.p.n O = - - - X r u.s.a.J @   i p.u.q.5.<.$._ E L g ' v.x.x.",
"x.x.c.f.p j B F I ..X.,.3.i.e.3   @ A 6.l.s.B $ = - $ x a.s.%.y .   a i.i.w.q.4.<.$.` E P g ' v.x.x.",
"x.k.c.f.p j B F W { #.,.3.9.p.t.a     ; B s.| + = - O ( l.i +   # S p.u.w.r.q.q.<.$.` E P g ' v.x.x.",
"x.x.c.f.p j m G Y { X.,.3.9.9.i.p.~ 1   @ a.A o - - O x a.-   0 %.a.y.0.w.w.q.8.<.$.` E P g ' v.x.x.",
"x.x.c.f.p b m F W ..#.,.3.9.0.0.r.a.r.F L u.0 @ - - $ 4 y.{ ^ p.p.0.0.w.w.w.q.9.<.$.) E P g ' v.x.x.",
"x.x.c.f.a b B F Y { @.,.3.0.0.0.0.0.y.a.a.9.: % - - * - >.s.p.r.0.0.0.w.w.w.q.q.<.$.` E P g ' v.x.x.",
"x.x.c.f.a f B F Y { @.,.3.9.0.0.w.w.0.0.i.@.= = - - = $ ^ a.0.0.0.0.0.0.w.r.q.6.<.$.) E P f ' v.x.x.",
"x.x.c.f.p j B F Y { @.>.3.9.9.0.w.w.w.w.a.Y + = - - - X V s.w.w.0.0.0.w.q.w.q.q.<.$._ E P g ' v.x.x.",
"x.x.c.f.p j B F Y { @.,.8.0.0.0.w.w.w.w.s.a   X X X X   4 u.y.w.w.w.0.r.q.q.q.:.<.$.` E P g ' v.x.x.",
"x.x.c.f.p j m F W { #.1.9.r.w.r.q.q.w.y.y.E v V S S S V K w.w.q.r.r.q.r.r.r.q.q.<.$.) E P g ' v.x.x.",
"x.x.c.f.p j B F W { #.1.9.w.r.w.q.q.q.q.q.p.z.z.s.l.l.l.s.w.q.q.w.r.r.w.q.y.q.q.<.$.) E P g ' v.x.x.",
"x.x.c.f.a j m D Y { &.1.q.q.q.q.q.q.q.q.q.q.q.q.q.e.q.q.q.q.q.q.q.q.q.q.q.q.q.q.;.+._ E P g ' v.x.x.",
"x.x.c.g.a j B S I { @.<.4.4.4.4.q.:.q.4.q.q.q.q.4.4.q.4.q.4.4.q.5.4.q.4.q.q.:.;.*.O./ R L g ' v.x.x.",
"x.x.c.g.a f m S J ( O.*.;.;.:.:.:.:.:.:.:.:.:.:.:.:.:.:.:.:.:.:.:.:.:.:.:.:.:.$.+.} / T L g ' v.x.x.",
"x.x.c.g.a f n Z H ~ ` o.+.+.+.+.+.+.+.+.+.+.+.+.+.+.+.+.+.+.+.+.+.+.+.+.+.O.O.o.` / E L K g ' v.x.x.",
"x.x.c.f.a j m B G R / / _ _ _ _ _ _ _ ` _ _ _ _ _ _ _ _ _ _ _ _ _ _ _ _ _ _ _ / / E T K K g ' v.k.x.",
"x.x.c.f.a j M S K T R R E E E E E E E E E E E E E E E E E E E E E E E E E E E E R T L K K g ' v.x.x.",
"x.x.c.d.y b Z D G L P P R T P U P P P P P P P P T T T T P P P P T T T T P P P P P P K G L f ! b.x.x.",
"x.x.c.h.k a c v v v v c v v v v v v v v v v v c v v v v v v v v v v v v v v v v c v v c v 8 [ v.x.x.",
"x.x.x.x.h.d.d.d.d.d.d.d.d.d.d.d.d.d.d.d.d.d.d.d.d.d.d.d.d.d.d.d.d.d.d.d.d.d.d.d.d.d.d.d.d.d.k.x.x.x.",
"x.x.x.x.c.c.c.c.c.c.c.c.c.c.c.c.c.c.c.c.c.c.c.c.c.c.c.c.c.c.c.c.c.c.c.c.c.c.c.c.c.c.c.c.c.c.c.x.x.x.",
"x.x.x.x.x.x.x.x.x.x.x.x.x.x.x.x.x.x.x.x.x.x.x.x.x.x.x.x.x.x.x.x.x.x.x.x.x.x.x.x.x.x.x.x.x.x.x.x.x.x.",
"x.x.x.x.x.x.x.x.x.x.x.x.x.x.x.x.x.x.x.x.x.x.x.x.x.x.x.x.x.x.x.x.x.x.x.x.x.x.x.x.x.x.x.x.x.x.x.x.x.x."
};
