/* XPM */
static char *addActivitySMDisabled_xpm[] = {
/* columns rows colors chars-per-pixel */
"30 30 203 2 ",
"   c #6A6262",
".  c #686565",
"X  c #6F6B6B",
"o  c #706A6A",
"O  c #706B6B",
"+  c #706C6C",
"@  c #716D6D",
"#  c #726E6E",
"$  c gray45",
"%  c #747474",
"&  c #797575",
"*  c #7B7B7B",
"=  c #7C7C7C",
"-  c #7E7E7E",
";  c #7E7F7F",
":  c #7F8181",
">  c #7D8585",
",  c #808181",
"<  c #818181",
"1  c #808282",
"2  c gray51",
"3  c #838383",
"4  c #868383",
"5  c #848484",
"6  c #848585",
"7  c gray52",
"8  c #868686",
"9  c gray53",
"0  c #898686",
"q  c #838C8C",
"w  c #888888",
"e  c #898989",
"r  c gray54",
"t  c #8B8B8B",
"y  c #8C8989",
"u  c gray55",
"i  c #8D8D8D",
"p  c #8E8F8F",
"a  c gray56",
"s  c #918C8C",
"d  c #908D8D",
"f  c #918D8D",
"g  c #918E8E",
"h  c #918F8F",
"j  c #8B9494",
"k  c #8B9696",
"l  c #8B9797",
"z  c #8B9898",
"x  c #909090",
"c  c gray57",
"v  c #929292",
"b  c #969393",
"n  c #939494",
"m  c gray58",
"M  c gray59",
"N  c #979999",
"B  c #919D9D",
"V  c #929C9C",
"C  c #919E9E",
"Z  c #929E9E",
"A  c #939F9F",
"S  c #989999",
"D  c gray60",
"F  c #9A9A9A",
"G  c #9B9A9A",
"H  c #9A9C9C",
"J  c gray61",
"K  c gray62",
"L  c #9F9F9F",
"P  c #95A2A2",
"I  c #96A2A2",
"U  c gray63",
"Y  c #A3A0A0",
"T  c #A2A2A2",
"R  c #A4A4A4",
"E  c #A5A6A6",
"W  c gray65",
"Q  c #A7A7A7",
"!  c #ACA1A1",
"~  c #A0A9A9",
"^  c #A3ABAB",
"/  c gray66",
"(  c #AAAAAA",
")  c #AAABAB",
"_  c gray67",
"`  c #ACACAC",
"'  c gray68",
"]  c #AEAEAE",
"[  c #AFAFAF",
"{  c #B0AFAF",
"}  c #AABDBD",
"|  c #B1B0B0",
" . c #B4B4B4",
".. c gray71",
"X. c #B6B6B6",
"o. c #B7B7B7",
"O. c #BEB5B5",
"+. c #B0BCBC",
"@. c #B1BCBC",
"#. c #B1BDBD",
"$. c #B2BEBE",
"%. c gray72",
"&. c #C4BABA",
"*. c #B5C1C1",
"=. c #B1C4C4",
"-. c #C0C0C0",
";. c #C0C1C1",
":. c #C1C1C1",
">. c gray76",
",. c #C3C3C3",
"<. c gray77",
"1. c #C5C5C5",
"2. c #C6C6C6",
"3. c gray78",
"4. c #C9C4C4",
"5. c #CAC5C5",
"6. c #CBC6C6",
"7. c #CCC7C7",
"8. c #C8C8C8",
"9. c #C8C9C9",
"0. c gray79",
"q. c #CACACA",
"w. c #CBCBCB",
"e. c #CEC9C9",
"r. c gray80",
"t. c #CECECE",
"y. c gray81",
"u. c #D2CFCF",
"i. c #D0D0D0",
"p. c gray82",
"a. c #D2D2D2",
"s. c LightGray",
"d. c #D5D5D5",
"f. c gray84",
"g. c #D7D7D7",
"h. c #DBD6D6",
"j. c #D8D8D8",
"k. c gray85",
"l. c gray86",
"z. c gainsboro",
"x. c #DCDDDD",
"c. c #DDDDDD",
"v. c gray87",
"b. c #DFDFDF",
"n. c #E1DCDC",
"m. c #E3DEDE",
"M. c #E4DFDF",
"N. c #D9EAEA",
"B. c #D8ECEC",
"V. c #DFF2F2",
"C. c #DCFBFB",
"Z. c #DFFCFC",
"A. c #DFFDFD",
"S. c #DDFFFF",
"D. c #DEFFFF",
"F. c #DFFFFF",
"G. c gray88",
"H. c #E1E1E1",
"J. c #E2E2E2",
"K. c gray89",
"L. c #E3E4E4",
"P. c #E4E4E4",
"I. c #E4E5E5",
"U. c gray90",
"Y. c #E6E6E6",
"T. c #E7E7E7",
"R. c gray91",
"E. c #E9E9E9",
"W. c #EAEAEA",
"Q. c gray92",
"!. c #EEEFEF",
"~. c #EFEFEF",
"^. c #E1F3F3",
"/. c #E2F4F4",
"(. c #E4F4F4",
"). c #E6FBFB",
"_. c LightCyan",
"`. c #E1FFFF",
"'. c #E2FFFF",
"]. c #E3FFFF",
"[. c #E4FCFC",
"{. c #E7FDFD",
"}. c #E4FFFF",
"|. c #E5FFFF",
" X c #E6FFFF",
".X c #E9FFFF",
"XX c #EAFFFF",
"oX c #EBFFFF",
"OX c #ECFFFF",
"+X c #EDFFFF",
"@X c #EFFFFF",
"#X c #F1F1F1",
"$X c #F3F3F3",
"%X c #F6F2F2",
"&X c #F4F4F4",
"*X c #F6F6F6",
"=X c gray97",
"-X c azure",
";X c #F1FFFF",
":X c #F2FFFF",
">X c #F8F8F8",
",X c #F9F9F9",
"<X c white",
/* pixels */
"_._.`.].'.'.'.'.'.'.'.'.'.'.'.'.'.'.'.'.'.'.'.'.'.'.].'._._.",
"_.S.OX@X+X+X+X+X+X+X+X+X+X+X+X+X+X+X+X+X+X+X+X+X+X+X-X:XF.D.",
"`.@X} > l k k k k k k k k k k k k k k k k k k k l z q B {. X",
"}.[.~ &.e.7.7.7.7.7.6.5.5.5.5.5.5.5.5.6.7.7.7.7.5.4.O.0 N.XX",
"|.C.*.%X,X=X=X*X*X&X>X<X<X<X<X<X<X<X<X=X&X*X*X*X$X!.u.N B..X",
"}.Z.#.M.Y.P.J.H.K.Q.E.q.:.<.<.<.<.-.t.Q.E.K.H.H.z.9.Y 6 V..X",
"}.Z.@.M.I.H.c.H.P.T...* 9 9 9 9 w 7 - -.T.K.J.l.y. .b 1 ^..X",
"}.Z.@.M.P.v.b.b.R 2 $ ' &XT.Y.Y.E.#XU % 5 R G.k.,._ f : ^..X",
"}.Z.@.M.P.c.U.0.- o.J w ' / Q Q / _ 7 R %.- 0.c.-.( g : ^..X",
"}.Z.@.M.P.v.U.3.8 v.J.L M F F D F M R R.c.9 3.z.:._ g : ^..X",
"}.Z.@.M.P.v.U.8.9 q.E.Y.P.J.W.#XK.K.Y.T.q.w 8.z.:._ g : ^..X",
"}.Z.@.M.P.v.U.8.9 r.H.k.l.b.a.3.c.z.k.H.r.w 8.z.:._ g : ^..X",
"}.Z.@.M.P.v.U.8.9 r.J.j.g.T.[ < v.c.g.J.r.w 8.z.:._ g : ^..X",
"}.Z.@.M.P.v.U.8.9 r.H.c.J.#X%.e T.R.H.K.w.w 8.z.:._ g : ^..X",
"}.Z.@.M.P.v.U.8.9 r.P.p.w.k.[ u p.i.r.H.t.w 8.z.:._ g : ^..X",
"}.Z.@.M.P.v.U.8.9 t.~.R = w i c e 7 3 g.f.9 8.z.:._ g : ^..X",
"}.Z.@.M.P.v.U.8.9 r.U.t.1.s.` i r.w.3.H.t.w 8.z.:._ g : ^..X",
"}.Z.@.M.P.v.U.8.9 r.H.v.K.#X%.r R.R.J.K.w.w 8.z.:._ g : ^..X",
"}.Z.@.M.P.v.U.8.9 r.J.j.g.T.[ < v.v.g.J.r.w 8.z.:._ g : ^..X",
"}.Z.@.M.P.v.U.8.9 r.J.j.k.v.t.-.l.l.j.J.r.w 8.z.:._ g : ^..X",
"}.Z.@.M.P.v.U.8.9 r.J.j.k.g.b.U.j.j.j.J.r.w 8.z.:._ g : ^..X",
"}.Z.@.M.P.v.Y.8.9 p.E.v.b.b.b.v.b.b.v.E.p.w 0.c.>._ g : ^..X",
"}.Z.@.M.P.v.R.3.5 q.v.d.f.f.f.f.f.f.d.v.q.7 2.z.;.) h , ^..X",
"}.Z.+.m.L.l.j.0.v t a a a a a a a a a a t v 0.w.%.E d : ^..X",
"}.A.+.n.x.3.o.X.{ U T T T T T T T T T T U | o.] W H y : ^..X",
"}.A.$.h.>.E S m F K K K K K K K K K K K K G m n x p 4 ; /..X",
"}. X^ ! s & @ O O X X X X X X X X X X X X X + O o #   . (.oX",
"`.oX=.V I Z B B B B B B B B B B B B B B B B B B C A j P ). X",
"_.D.XX.X+X-X;X;X;X;X;X;X;X;X;X;X;X;X;X;X;X;X;X;X;X;X:X:X_.D.",
"_.F.`.}.].'.'.'.'.'.'.'.'.'.'.'.'.'.'.'.'.'.'.'.'.'.].'._._."
};
