/* XPM */
static char *addActivitySMNormal_xpm[] = {
/* columns rows colors chars-per-pixel */
"30 30 159 2 ",
"   c #000001",
".  c #0A0403",
"X  c #0D0B0B",
"o  c #141311",
"O  c #191512",
"+  c #2C251F",
"@  c #322B27",
"#  c #322E29",
"$  c #403C33",
"%  c #463F38",
"&  c #4D4035",
"*  c #57493E",
"=  c #644328",
"-  c #6D543D",
";  c #70573F",
":  c #554D41",
">  c #5B4D41",
",  c #5C5145",
"<  c #685749",
"1  c #635A4E",
"2  c #755B42",
"3  c #795D44",
"4  c #645E50",
"5  c #7B6046",
"6  c #7B634A",
"7  c #6A6352",
"8  c #706957",
"9  c #7C6F5C",
"0  c #7E715E",
"q  c #7C7264",
"w  c #81654B",
"e  c #8B6F54",
"r  c #86735E",
"t  c #88755F",
"y  c #95785B",
"u  c #897661",
"i  c #817A66",
"p  c #827768",
"a  c #857A6B",
"s  c #8A7D6E",
"d  c #9C7E60",
"f  c #947F69",
"g  c #8E836C",
"h  c #9F8163",
"j  c #92866E",
"k  c #9C866E",
"l  c #978F7A",
"z  c #928474",
"x  c #A28264",
"c  c #AD8C6D",
"v  c #BB8960",
"b  c #A18A70",
"n  c #AA9277",
"m  c #AE9579",
"M  c #AC987D",
"N  c #B0977C",
"B  c #B69C7F",
"V  c #BC9978",
"C  c #D3A178",
"Z  c #7E8583",
"A  c #858B89",
"S  c #8C9089",
"D  c #979280",
"F  c #9F9986",
"G  c #8C9695",
"H  c #8E9896",
"J  c #939A94",
"K  c #9A9A90",
"L  c #919C9B",
"P  c #A79682",
"I  c #B69D81",
"U  c #B89D80",
"Y  c #97A09C",
"T  c #9DA19B",
"R  c #BDA285",
"E  c #BEA78A",
"W  c #BDAA8D",
"Q  c #A5A398",
"!  c #B0A993",
"~  c #B8AF97",
"^  c #BCB091",
"/  c #A2A8A1",
"(  c #B5BAAF",
")  c #B4B5AB",
"_  c #AABCBC",
"`  c #B4BAB1",
"'  c #C2A587",
"]  c #C4A788",
"[  c #C6AC8C",
"{  c #CBAD8E",
"}  c #CDB08F",
"|  c #C6B091",
" . c #CAB493",
".. c #CEB897",
"X. c #CBB89B",
"o. c #D5B594",
"O. c #D7B897",
"+. c #DAB896",
"@. c #D6BC9C",
"#. c #DCBA99",
"$. c #E1B48C",
"%. c #E8BE93",
"&. c #D7BDA7",
"*. c #D8BFA6",
"=. c #D7BEA8",
"-. c #B8C0B7",
";. c #D4C09D",
":. c #DFC09D",
">. c #E6C29F",
",. c #F4CB9D",
"<. c #C9C1A1",
"1. c #DCC4A0",
"2. c #D8C1AB",
"3. c #DACBAC",
"4. c #E5C5A2",
"5. c #EAC6A1",
"6. c #EFCCA6",
"7. c #E3CDA9",
"8. c #F9CFAA",
"9. c #F7D5AC",
"0. c #F9D3AC",
"q. c #EADEB5",
"w. c #F5D7B3",
"e. c #FAD7B4",
"r. c #F3DCB5",
"t. c #FEDBB3",
"y. c #FAD7B8",
"u. c #F5DDB9",
"i. c #FEDDBC",
"p. c #FFE1B7",
"a. c #FFE2B9",
"s. c #FDEABF",
"d. c #B3C3C1",
"f. c #FBDEC2",
"g. c #FFE1C3",
"h. c #FFEDC2",
"j. c #F3E7CD",
"k. c #F4E9CE",
"l. c #FFEDCD",
"z. c #F3EBC1",
"x. c #FFF2C6",
"c. c #FFF4CA",
"v. c #FFFCCD",
"b. c #FFEED1",
"n. c #FFF1D4",
"m. c #FFFFD1",
"M. c #FFF5D9",
"N. c #FFFFDE",
"B. c #D6EEF3",
"V. c #DCF3F7",
"C. c #DFF5F8",
"Z. c #DCFEFF",
"A. c #FFFFE3",
"S. c #FFFFEE",
"D. c #E3F6FA",
"F. c #E3FFFF",
"G. c #EBFFFF",
"H. c #FFFFF1",
"J. c #F0FFFF",
/* pixels */
"F.F.F.F.F.F.F.F.F.F.F.F.F.F.F.F.F.F.F.F.F.F.F.F.F.F.F.F.Z.F.",
"Z.Z.G.G.G.G.G.G.G.G.G.G.G.G.G.J.G.G.G.G.G.G.G.G.J.G.J.J.F.Z.",
"F.J._ Z H G G G G G G G G G G G G G G G G G G G G J A L F.G.",
"F.F./ X.2.2.2.2.2.2.2.&.&.&.&.&.&.&.=.2.2.2.2.&.@.+.C f B.G.",
"F.Z.` n.M.M.n.n.b.l.M.H.H.H.H.H.H.H.S.n.b.n.l.l.h.t.%.P B.G.",
"F.Z.` y.g.f.f.u.g.l.l.! D P F F F D ~ b.l.g.y.e.8.#.V z V.G.",
"F.Z.` w.g.i.y.g.h.j.q   O O o o O O   l k.h.s.9.4.{ c s V.G.",
"F.Z.` w.f.i.a.g.: .   4 A.v.c.c.v.A.%   . : a.0.#.' x s C.F.",
"F.Z.` w.i.e.c.W   i # o 7 , , , , 1 . : i   ' a.o.R d a D.F.",
"F.Z.` w.i.e.c.R   u.s.% + # @ @ # + * v.a.  R a.o.R x a C.G.",
"F.Z.` w.i.e.x.E   [ m.v.x.x.m.N.x.s.x.v.^   R a.o.R h a C.G.",
"G.Z.` w.i.e.c.E    .h.0.t.a.;.W i.p.0.s. .  R a.o.U h a D.F.",
"F.Z.` w.i.e.c.'    .h.0.0.v.0 . q.p.8.h. .  R p.o.R h a C.G.",
"F.Z.` w.i.e.x.E    .s.a.s.N.g O v.v.s.x.|   ' p.o.R h a D.F.",
"F.Z.` w.i.e.x.E    .x.#. .3.8 O X.;. .s...  R p.o.R h a C.G.",
"F.Z.` w.i.e.x.E   ..N.*   . X o       7.7.  R i.o.R h a C.G.",
"G.Z.` w.i.e.x.'    .x.O.R <.7 O ^ | R s...  E a.o.R h a C.G.",
"F.Z.` w.i.e.c.E    .s.a.h.N.j O v.m.h.x.[   R p.o.U h a C.G.",
"F.Z.` w.i.e.c.E    .h.9.9.v.9 . q.a.8.h. .  ' a.o.R h a C.G.",
"F.Z.` w.i.e.x.E    .x.0.0.a.o.M t.t.0.h. .  R a.o.R h a C.F.",
"F.Z.( w.i.e.x.'    .h.0.0.0.a.x.0.0.0.x. .  E i.o.R d a C.G.",
"F.Z.( w.i.e.c.E   ;.v.p.a.a.p.p.a.a.p.v.@.  R p.o.R x a C.G.",
"F.Z.( w.i.e.h.I   E q.4.4.4.4.4.4.4.4.q.E   N t.} U y a C.G.",
"F.Z.( 8.t.6.9.O.O X O o o o o o o o o o X O o.>.] N y p D.F.",
"F.Z.( ,.5.O.{ O.U r r t t t t t t t t t r B o.B m k e p D.G.",
"F.F.) $.{ U n b U [ ] ] ] ' ] ] ] ] ] ] [ B k k f t 3 q D.G.",
"F.F.Q v x e w 5 3 2 2 2 2 2 2 2 2 2 2 ; 2 3 3 2 ; ; = < D.G.",
"F.G.d.K Q J J J J J J J J J J J J J J J J J J J J J S L F.F.",
"F.Z.G.F.G.G.G.J.J.J.G.J.J.J.G.J.J.J.G.J.J.J.G.J.J.J.J.J.F.Z.",
"F.Z.F.F.F.F.F.F.F.F.F.F.F.F.F.F.F.F.F.F.F.F.F.F.F.F.F.F.F.F."
};
