/* XPM */
static char *addActivitySMMouseOver_xpm[] = {
/* columns rows colors chars-per-pixel */
"30 30 168 2 ",
"   c #000001",
".  c #0A0403",
"X  c #0D0B0B",
"o  c #141311",
"O  c #191512",
"+  c #2C251F",
"@  c #322B27",
"#  c #322E29",
"$  c #463F38",
"%  c #403C33",
"&  c #4D4035",
"*  c #57493E",
"=  c #554D41",
"-  c #5B4D41",
";  c #5C5145",
":  c #635A4E",
">  c #645E50",
",  c #715B53",
"<  c #6F6F5A",
"1  c #6A6352",
"2  c #706957",
"3  c #7C6F5C",
"4  c #75755E",
"5  c #7E715E",
"6  c #577E60",
"7  c #7B7962",
"8  c #797162",
"9  c #8D4B4B",
"0  c #81584F",
"q  c #8B5E56",
"w  c #875B53",
"e  c #8C6257",
"r  c #8F6258",
"t  c #97695E",
"y  c #92645A",
"u  c #86735E",
"i  c #88755F",
"p  c #817A66",
"a  c #937F67",
"s  c #997261",
"d  c #A47768",
"f  c #578C66",
"g  c #5B8963",
"h  c #5D9064",
"j  c #549266",
"k  c #608862",
"l  c #629368",
"z  c #67986B",
"x  c #72936C",
"c  c #7D9C74",
"v  c #54AD70",
"b  c #5DB474",
"n  c #78A07E",
"m  c #7FAD7B",
"M  c #7FB07E",
"N  c #39E377",
"B  c #3BE57B",
"V  c #3DEA7B",
"C  c #8B846C",
"Z  c #9C866D",
"A  c #92866E",
"S  c #978F7A",
"D  c #9D8173",
"F  c #9C9578",
"G  c #AC816E",
"H  c #AF8370",
"J  c #A08970",
"K  c #B98676",
"L  c #B78A77",
"P  c #AE9579",
"I  c #AB957A",
"U  c #B0977C",
"Y  c #B69C7F",
"T  c #7CB182",
"R  c #3EEA80",
"E  c #3EF083",
"W  c #48E782",
"Q  c #4AE984",
"!  c #45E581",
"~  c #57E585",
"^  c #58E786",
"/  c #59E987",
"(  c #57EE89",
")  c #5BE988",
"_  c #55EC87",
"`  c #4BF385",
"'  c #4AF689",
"]  c #4FF98C",
"[  c #41F285",
"{  c #52F187",
"}  c #56F289",
"|  c #52F98C",
" . c #979280",
".. c #9F9986",
"X. c #B69D81",
"o. c #B89C80",
"O. c #BDA285",
"+. c #BEA78A",
"@. c #BDAA8D",
"#. c #B0A993",
"$. c #B8AF97",
"%. c #BCB091",
"&. c #CC9C86",
"*. c #EC938B",
"=. c #C4A787",
"-. c #C2A688",
";. c #C6AC8C",
":. c #CBAD8D",
">. c #CDB08F",
",. c #C6B091",
"<. c #CAB493",
"1. c #CEB897",
"2. c #C9BB9B",
"3. c #D5B594",
"4. c #D7B897",
"5. c #D9B997",
"6. c #D5BC9A",
"7. c #DCBA99",
"8. c #F7A99B",
"9. c #F4BAA4",
"0. c #D4C09D",
"q. c #DFC09D",
"w. c #E6C29F",
"e. c #C9C1A1",
"r. c #DBC8A6",
"t. c #E5C5A2",
"y. c #EFCCA6",
"u. c #E3CDA9",
"i. c #EBC6A1",
"p. c #F9CFAA",
"a. c #F5C1A1",
"s. c #F7D5AE",
"d. c #F9D3AC",
"f. c #FFD8AF",
"g. c #EEC0B3",
"h. c #EEC4BC",
"j. c #FFCFB1",
"k. c #EADEB5",
"l. c #FAD7B4",
"z. c #F1DEB6",
"x. c #FEDBB3",
"c. c #FAD7B8",
"v. c #F4DFB8",
"b. c #FEDDBC",
"n. c #FFE1B7",
"m. c #FFE2B9",
"M. c #FDEABF",
"N. c #F4BEC4",
"B. c #F0C8C1",
"V. c #FFDBC6",
"C. c #FFDECB",
"Z. c #FFE1C2",
"A. c #FFEDC2",
"S. c #F3E7CD",
"D. c #FFECCD",
"F. c #F4EAC8",
"G. c #FFF2C6",
"H. c #FFF4CA",
"J. c #FFFCCD",
"K. c #FFEED1",
"L. c #FFF1D4",
"P. c #FFFFD1",
"I. c #FFF4D8",
"U. c #FFFFDE",
"Y. c #FFF2E1",
"T. c #FFFFE3",
"R. c #FFFFEE",
"E. c #FFFFF1",
/* pixels */
"~ ~ ~ / / ~ / ~ ~ / / ~ / ~ / ~ ~ ~ ^ ~ ~ ~ ~ ~ / / / ~ ~ ~ ",
"~ ~ } ` Q [ ` ` ` ` ` ` ` ` ` ` ' ' ' ' ' ' ` ` ` ` ' ] ~ ~ ",
"/ } v 6 f f f f f f f f f f f f f f f f f f f f f f g f / / ",
"/ V n N.B.B.B.B.h.h.h.h.h.h.h.h.B.9.h.B.N.h.h.h.g.9.8.D B ( ",
"/ N T Y.I.I.K.L.L.D.I.E.E.E.E.E.E.E.E.K.K.L.L.D.A.x.9.F N / ",
") B T C.Z.V.V.v.Z.K.D.#.S ........ .$.H.D.Z.c.l.p.6.&.a ! ( ",
") B T C.Z.b.c.m.A.S.8   O O o o o o   S S.A.m.d.w.:.L x W ( ",
") B T V.m.b.Z.M.= .   > T.H.H.H.P.T.&   . = m.d.5.+.L 7 W ( ",
"/ B T V.b.l.H.@.  p % X > ; ; ; ; : . = 7   -.m.3.O.G 7 Q ( ",
") B T V.b.l.H.O.  v.F.& + # @ @ @ + - J.m.  O.m.3.O.H 7 Q ( ",
") B T V.b.l.G.+.  ;.P.H.G.G.J.U.G.G.H.J.@.  +.m.3.O.H 7 Q _ ",
") B T V.b.l.H.+.  <.A.d.f.m.q.@.x.n.d.M.<.  O.m.3.O.H 7 Q ( ",
") B T V.b.l.H.-.  <.A.d.d.J.5 . k.m.p.A.<.  O.n.3.O.H 4 Q _ ",
") B T V.b.l.G.+.  <.A.m.M.U.C o H.J.M.G.,.  -.n.3.Y H 7 Q ( ",
"/ B T V.b.l.G.+.  <.G.7.<.r.2 O 2.0.<.M.1.  -.n.3.O.H 7 Q ( ",
") B T V.b.l.G.+.  1.U.=   . X o       u.u.  O.n.3.O.H 7 Q ( ",
") B T V.b.l.H.+.  <.G.5.O.e.2 O %.,.O.M.1.  O.m.3.O.H 7 Q ( ",
") B T V.b.l.H.-.  <.M.m.A.T.A O J.P.M.G.,.  -.m.3.Y H 4 Q ( ",
") B T V.b.l.G.+.  <.M.d.d.J.3   k.m.p.A.<.  O.m.3.O.H 7 Q ( ",
") B T V.b.l.G.+.  <.G.d.d.n.3.I x.x.d.A.<.  O.m.3.O.H 7 Q ( ",
") N T V.b.l.H.-.  <.G.d.d.d.m.G.d.d.d.G.<.  +.m.3.O.G 7 Q ( ",
") B T V.b.l.G.+.  0.J.n.m.m.n.n.m.n.n.J.6.  -.b.3.O.H 7 Q } ",
") B T V.b.d.G.X.  +.k.t.t.t.t.t.t.t.t.k.+.  P x.>.Y G 7 Q ( ",
") B T b.f.y.s.4.O X O o o o o o o o o o X O 3.w.-.P d 4 Q ( ",
"/ B  .z.w.5.:.5.Y u u i i i i i i i i i u Y 3.Y P J t 4 Q _ ",
") R M a.;.Y P J Y =.=.=.=.=.=.=.=.=.=.=.;.Y Z Z a u e 4 _ ( ",
"/ E c *.K d t y e e q q q q q q q q e q q q e e w 0 9 , ` ( ",
"~ ` b x z l l h h h h k h h h h h h h h h h h h h h k j _ _ ",
"~ ^ { [ ` ] ] ] | ] | ] ] ] ] ] ] ] | ] ] ] ] ] | | ] | ^ ~ ",
"~ ~ ~ ) / ~ / ~ ~ ~ ~ / ~ / ~ / ~ ~ ~ / ~ / ~ / ^ ^ ^ ^ ~ ~ "
};
