/* XPM */
static char *addActivitySMPressed_xpm[] = {
/* columns rows colors chars-per-pixel */
"30 30 139 2 ",
"   c #010102",
".  c #0D0C0C",
"X  c #100F0B",
"o  c #141211",
"O  c #191716",
"+  c #1C1816",
"@  c #171A18",
"#  c #1F1C1A",
"$  c #231E1B",
"%  c #28211D",
"&  c #292421",
"*  c #2E2A27",
"=  c #2E2A28",
"-  c #342F2C",
";  c #3C3631",
":  c #3E3933",
">  c #452C1D",
",  c #553D2C",
"<  c #423C35",
"1  c #453E38",
"2  c #474139",
"3  c #4A443C",
"4  c #50443C",
"5  c #5D4C3D",
"6  c #634631",
"7  c #4D4740",
"8  c #4F4A43",
"9  c #544D44",
"0  c #5D5247",
"q  c #5D534A",
"w  c #6C5745",
"e  c #6D5847",
"r  c #655A4F",
"t  c #6F5A48",
"y  c #665C52",
"u  c #6A695D",
"i  c #75695F",
"p  c #756F6E",
"a  c #75706E",
"s  c #767E7E",
"d  c #876D5C",
"f  c #86705C",
"g  c #827363",
"h  c #897565",
"j  c #877867",
"k  c #837F6E",
"l  c #8E7E6C",
"z  c #917F6F",
"x  c #817C73",
"c  c #917F70",
"v  c #8F806D",
"b  c #91806F",
"n  c #848170",
"m  c #948272",
"M  c #9A8775",
"N  c #9A8A76",
"B  c #938E7C",
"V  c #9D8D7B",
"C  c #9E917D",
"Z  c #A4937E",
"A  c #7B8383",
"S  c #818683",
"D  c #858A84",
"F  c #848F8F",
"G  c #84908F",
"H  c #8B908B",
"J  c #859190",
"K  c #8C9897",
"L  c #909894",
"P  c #A59581",
"I  c #A99681",
"U  c #A69887",
"Y  c #AC9A85",
"T  c #A6988A",
"R  c #B19D87",
"E  c #B49F89",
"W  c #9AA29F",
"Q  c #ADA18C",
"!  c #B3A28F",
"~  c #BDA78F",
"^  c #AFA192",
"/  c #B4A695",
"(  c #BDA790",
")  c #BEA891",
"_  c #B7A998",
"`  c #BBAC9A",
"'  c #9BA4A1",
"]  c #AABDBC",
"[  c #C4AF97",
"{  c #CDB69C",
"}  c #D0B69D",
"|  c #D1B99E",
" . c #C6B4A0",
".. c #CDB9A4",
"X. c #D4BBA1",
"o. c #D5BFAC",
"O. c #DAC2A7",
"+. c #D5C2AC",
"@. c #DEC4A9",
"#. c #DCCAAD",
"$. c #D0C3B4",
"%. c #D8C5B0",
"&. c #DFC9B2",
"*. c #E6CAAD",
"=. c #E2CCB2",
"-. c #E9CEB2",
";. c #E4D1B4",
":. c #ECD2B4",
">. c #E8D3BC",
",. c #EEDDBE",
"<. c #F0D5B7",
"1. c #FAD6B7",
"2. c #F5DBBD",
"3. c #FCDBBC",
"4. c #D9CEC3",
"5. c #F5DDC2",
"6. c #FCDFC0",
"7. c #EFE4C7",
"8. c #FEE3C3",
"9. c #F5E2CA",
"0. c #F9E4CC",
"q. c #F7E8CD",
"w. c #FEECCB",
"e. c #FFF1CF",
"r. c #F8EBD1",
"t. c #F3F1D6",
"y. c #FFF5D3",
"u. c #FFF9D6",
"i. c #FFFEDB",
"p. c #DDFFFF",
"a. c #FFFFE2",
"s. c #FFFFEB",
"d. c #E0F4F6",
"f. c #E2F7F9",
"g. c #E2FFFF",
"h. c #EBFFFF",
"j. c #FFFFF1",
"k. c #F4FFFF",
"l. c #FEFFFE",
/* pixels */
"g.g.p.g.g.g.g.p.g.g.g.g.g.g.g.g.g.g.g.g.g.g.g.g.g.g.g.g.g.p.",
"p.p.h.l.k.l.k.l.l.k.k.k.l.k.k.k.k.l.k.k.k.l.l.k.k.k.l.k.g.p.",
"g.k.] s F F F F F F F F F F F F G F G G F F F F J J A K h.g.",
"g.k.S > 5 5 5 5 5 5 5 5 5 5 5 5 5 5 5 5 5 5 5 5 5 5 , q f.h.",
"g.k.L e g j z z v b z l z l v l l l l b l z z l l j d k d.h.",
"g.h.L w l N Z Y Y I I { | { | { | | [ I Z Y Y Y P N z x d.h.",
"g.k.K e b R [ { | :.2.N 0 r r y r q I 3.:.| } | { / M x d.h.",
"g.k.L t N ~ X.-.3.#.m   & - * * - @ . I @.3.<.<.+.` M x d.h.",
"p.k.L t M ~ O.y.C X   + 8.e.8.6.u.;.    . C i.2.=.` M x d.h.",
"g.k.L t N [ @.u.; 3 $.. o @ O O @ . + 4.1 : s.5.=.[ M x d.h.",
"g.k.L t N ( O.u.2 4 l.+.Z Z Y Q Z Z ;.l.3 2 a.5.&.` M x d.h.",
"g.h.L t N ( @.u.2 1 i.u.i.i.i.i.i.i.y.u.1 2 a.5.=.` M a d.h.",
"g.k.K e M ( O.u.3 1 i.6.1.u.C 3 0.8.3.i.1 3 a.5.&.` M x d.g.",
"g.k.L t M [ @.u.3 1 i.8.w.j.n o i.i.w.i.1 1 a.5.&.` M x d.h.",
"g.k.L e N ( O.u.3 1 i.8.:.t.k & 9.,.5.i.1 3 a.5.=.` M x d.h.",
"g.k.L t N ( @.u.3 1 l.T   X o o X   < j.7 3 a.5.=.` M x d.h.",
"g.h.L t N ) O.u.3 1 s.=.Y ` y % ^ Q ` i.2 3 a.5.&.` M x d.h.",
"g.k.L t N ) @.u.3 1 u.w.u.l.B % s.s.u.i.1 3 a.5.=.` M x d.h.",
"g.h.L t N ) O.u.3 1 i.6.2.i.n $ w.8.6.i.1 3 a.5.=.` M x d.h.",
"g.k.L e N ) @.u.3 1 i.8.3.8.:.O.8.6.6.i.1 3 a.5.=.` M x d.g.",
"p.k.L t N ) @.u.3 1 i.3.2.1.8.r.1.2.3.i.1 3 a.5.=.` M x p.h.",
"g.k.L t N ) @.u.< 9 l.a.a.a.a.a.a.a.a.l.3 : s.5.=.` M x d.h.",
"g.k.K t N ) *.a.9   p u u u u u u u u a   9 s.5.=.` M x d.f.",
"p.k.L w M ) @.q.+.0 < 1 1 1 1 1 1 1 2 : q %.q.>.+.) m x d.h.",
"g.k.K w b E ..o.>.0.9.9.0.5.0.0.9.9.9.9.0.>.o.o. .^ m x d.h.",
"g.k.L e b U / ` _ ` _ ` ` ` _ ` ` ` ` ` ` _ ` / ^ T m x d.h.",
"g.k.D 6 h z m m c m m m m m m m m m m m m m m m c c d i d.h.",
"g.h.] H ' W W W ' W ' ' W W W W ' W W W W W W W W ' L ' g.g.",
"g.p.h.k.h.h.k.h.h.h.h.h.k.h.h.h.h.h.h.h.k.h.h.h.k.h.h.k.g.p.",
"p.g.g.g.g.g.g.g.g.g.g.g.g.g.g.g.g.g.g.g.g.g.g.g.g.g.g.g.g.g."
};
