/* XPM */
static char *branchSegmentSMNormal_xpm[] = {
/* columns rows colors chars-per-pixel */
"30 30 156 2 ",
"   c #000000",
".  c #0B0606",
"X  c #080708",
"o  c #080A0A",
"O  c #140C0A",
"+  c #100F10",
"@  c #171311",
"#  c #1A1513",
"$  c #1E1816",
"%  c #1D1A19",
"&  c #211A16",
"*  c #221C19",
"=  c #23211E",
"-  c #29221E",
";  c #242522",
":  c #2C2923",
">  c #332E28",
",  c #363129",
"<  c #39332B",
"1  c #473E34",
"2  c #493F35",
"3  c #4D4539",
"4  c #4E483F",
"5  c #524B3E",
"6  c #644328",
"7  c #6D543D",
"8  c #70573F",
"9  c #5C5144",
"0  c #5F594B",
"q  c #795E44",
"w  c #755B42",
"e  c #685749",
"r  c #7B634A",
"t  c #6C6251",
"y  c #716D5A",
"u  c #7D7265",
"i  c #81654B",
"p  c #8B6F54",
"a  c #95785B",
"s  c #837260",
"d  c #897661",
"f  c #827768",
"g  c #857A6B",
"h  c #8A7D6E",
"j  c #9C7E60",
"k  c #947F69",
"l  c #9F8163",
"z  c #9D866E",
"x  c #928474",
"c  c #9F9278",
"v  c #A28264",
"b  c #AD8C6D",
"n  c #BB8960",
"m  c #A38B71",
"M  c #A39479",
"N  c #AC9479",
"B  c #B79D7F",
"V  c #BC9978",
"C  c #D3A178",
"Z  c #7E8583",
"A  c #858B89",
"S  c #8C9089",
"D  c #8C9695",
"F  c #8E9896",
"G  c #939A94",
"H  c #9A9A90",
"J  c #919C9B",
"K  c #A79682",
"L  c #A69C81",
"P  c #AD9E82",
"I  c #B79D81",
"U  c #BA9F82",
"Y  c #97A09C",
"T  c #9DA19B",
"R  c #AEA084",
"E  c #BCA184",
"W  c #BBAD8F",
"Q  c #A5A398",
"!  c #A2A8A1",
"~  c #B5BAAF",
"^  c #B4B5AB",
"/  c #AABCBC",
"(  c #B4BAB1",
")  c #C2A587",
"_  c #C2A688",
"`  c #C5A98A",
"'  c #CBAE8E",
"]  c #C5B594",
"[  c #CCB291",
"{  c #C9B997",
"}  c #CDB59B",
"|  c #C5B999",
" . c #CCB998",
".. c #D6B696",
"X. c #DCB994",
"o. c #D6BD9E",
"O. c #DDBC9A",
"+. c #E1B48C",
"@. c #E8BE93",
"#. c #E0BE9C",
"$. c #D8BFA6",
"%. c #B8C0B7",
"&. c #D3C09D",
"*. c #DEC39F",
"=. c #E1C19D",
"-. c #F4CB9D",
";. c #CCC1A4",
":. c #D6C4A0",
">. c #DCC5A2",
",. c #D9CBA7",
"<. c #D8C1AA",
"1. c #DACDAA",
"2. c #E7C5A1",
"3. c #EAC6A2",
"4. c #ECCAA4",
"5. c #F1CDA6",
"6. c #F2CEA8",
"7. c #F9CEA8",
"8. c #ECD1AC",
"9. c #F6D1AB",
"0. c #FAD4AD",
"q. c #E7D8B0",
"w. c #EBDAB2",
"e. c #F5D7B3",
"r. c #FAD6B2",
"t. c #F4D9B5",
"y. c #FCDAB5",
"u. c #F5DABA",
"i. c #FDDDBC",
"p. c #E9E0BB",
"a. c #F4E0B6",
"s. c #F5E1BB",
"d. c #FEE5BB",
"f. c #FEE8BE",
"g. c #B3C3C1",
"h. c #FBDEC2",
"j. c #FEE3C3",
"k. c #FFEDC2",
"l. c #FFEDCB",
"z. c #FFF1C5",
"x. c #FFF4C9",
"c. c #FFF9CC",
"v. c #FFEFD3",
"b. c #FFF1D4",
"n. c #FFFED2",
"m. c #FFF4D9",
"M. c #FFFFDC",
"N. c #D6EEF3",
"B. c #DCF3F7",
"V. c #DFF5F8",
"C. c #DCFEFF",
"Z. c #FFFFE4",
"A. c #E3F6FA",
"S. c #E3FFFF",
"D. c #EBFFFF",
"F. c #F0FFFF",
/* pixels */
"S.S.S.S.S.S.S.S.S.S.S.S.S.S.S.S.S.S.S.S.S.S.S.S.S.S.S.S.S.C.",
"C.C.D.D.D.D.D.D.D.D.D.D.D.D.D.F.D.D.D.D.D.D.D.D.D.F.D.F.S.C.",
"S.D./ Z J D D D D D D D D D D D D D D D D D D D D F A J D.S.",
"S.S.! } <.<.<.$.<.<.<.<.$.<.<.<.<.<.<.<.<.<.<.$.o.X.C k N.D.",
"S.C.( b.m.m.v.v.b.v.v.v.v.v.b.v.v.b.b.v.b.b.v.x.j.y.@.M N.D.",
"S.C.( u.j.h.h.h.i.i.j.n.l.u.i.h.i.i.h.i.i.i.i.y.7.O.V x B.S.",
"S.C.( e.h.i.i.y.y.l.j.;.u.x.y.u.y.u.r.u.y.u.y.0.=.' b x B.S.",
"D.C.( e.h.i.y.r.k.1.:   & | l.0.0.i.k.d.0.r.r.4.=._ v h A.D.",
"S.C.( e.i.y.r.y.f.,   ;   # w.y.d.j.o.8.z.0.7.3...E l g V.D.",
"S.C.( e.i.y.0.f.3.  X P ;   [ n.w.9   @ R z.0.3...E l g V.S.",
"S.C.( e.d.y.r.y.k.1   %   $ s.c.9   %     o.f.3...E l g V.D.",
"D.C.( e.i.y.r.0.d.q.3   < ,.z.d.%   M 9   M c.=...E l g V.D.",
"S.C.( e.i.y.r.r.7.n.:.  R M.7.x.t   *   . >.d.3...E v g V.D.",
"S.C.( e.i.y.r.0.0.k.`   M x.7.d.f.t   o W z.9.3...E l g A.S.",
"S.C.( e.i.y.r.r.0.k._   c n.d.d.Z.s.  y Z.0.9.3...E l g V.D.",
"S.C.( e.i.y.r.0.0.z._   R c.&.] M =    .k.0.9.3...E l g V.D.",
"D.C.( e.i.r.r.r.0.k.'   , O       X M c.r.r.9.3...E l g V.D.",
"S.C.( e.i.r.r.r.5.n.*.  + 0 s N ] t.z.0.0.0.9.3...E l g V.D.",
"S.C.( e.i.y.r.0.d.q.3   ; p.M.z.z.d.7.0.0.0.9.3...E l g V.D.",
"S.C.( e.i.r.r.y.f.3   %   * a.y.0.0.0.0.r.r.9.3...E l g V.S.",
"S.C.~ e.i.y.r.j.3.  X P ;   { z.0.0.0.0.0.0.0.-...E v g V.D.",
"S.C.~ e.i.y.0.d.d.,   :   # w.y.0.0.r.0.0.0.9.2...E l g V.S.",
"S.C.~ e.y.y.0.5.d.*.:   & [ d.4.5.5.5.5.5.6.4.*.' B a g V.D.",
"S.C.~ 0.y.7.=.#.O.0.4.` 2.r.#.#.O.*.#.#.#.O....._ B a f V.D.",
"D.C.~ -.3...' ` ` _ [ #.[ ) ` ` ` ` ` ` ` ` _ I N z p u A.D.",
"S.C.^ +.' I N b m m m m m m m m m m m m m m m z l d r u A.D.",
"S.S.Q n v p i q q q q q q q q q q q q q q q w w w 7 6 0 A.D.",
"S.D.%.H ! H G G G G G G G G G G G G G H G G G H F G S Y D.S.",
"C.C.D.S.D.D.F.D.F.F.D.F.F.F.D.F.D.F.D.F.F.F.D.F.F.F.F.F.S.C.",
"C.S.S.S.S.S.S.S.S.S.S.S.S.S.S.S.S.S.S.S.S.S.S.S.S.S.S.S.C.S."
};
