/* XPM */
static char *branchSegmentSMPressed_xpm[] = {
/* columns rows colors chars-per-pixel */
"30 30 138 2 ",
"   c #000000",
".  c #090507",
"X  c #0A0B0C",
"o  c #100E0C",
"O  c #171411",
"+  c #191616",
"@  c #1C1B19",
"#  c #201E1B",
"$  c #25221E",
"%  c #29221C",
"&  c #2A2723",
"*  c #2B2824",
"=  c #302923",
"-  c #332E29",
";  c #3E352F",
":  c #3E3932",
">  c #452C1D",
",  c #553D2C",
"<  c #403C35",
"1  c #44413A",
"2  c #4B443D",
"3  c #5D4C3D",
"4  c #634631",
"5  c #554D43",
"6  c #5A5046",
"7  c #5C5349",
"8  c #6C5745",
"9  c #6D5847",
"0  c #635A4E",
"q  c #6F5A48",
"w  c #6B6457",
"e  c #716559",
"r  c #75695E",
"t  c #766F62",
"y  c #7E7365",
"u  c #767E7E",
"i  c #876D5C",
"p  c #86705C",
"a  c #827363",
"s  c #897565",
"d  c #877867",
"f  c #8E7E6C",
"g  c #917F6F",
"h  c #817C73",
"j  c #917F70",
"k  c #8F806D",
"l  c #91806F",
"z  c #8F8A7A",
"x  c #948272",
"c  c #9A8775",
"v  c #9A8A76",
"b  c #938778",
"n  c #9C8C7A",
"m  c #A6937E",
"M  c #7B8383",
"N  c #818683",
"B  c #858A84",
"V  c #848F8F",
"C  c #84908F",
"Z  c #8B908B",
"A  c #859190",
"S  c #8C9897",
"D  c #909894",
"F  c #A89580",
"G  c #A59B87",
"H  c #AD9A85",
"J  c #A39B8C",
"K  c #B19D87",
"L  c #B49F89",
"P  c #9AA29F",
"I  c #AFA08F",
"U  c #B3A38E",
"Y  c #BDA78F",
"T  c #AFA192",
"R  c #B5A797",
"E  c #BDA790",
"W  c #B4A893",
"Q  c #BEA992",
"!  c #B7A999",
"~  c #BDAC99",
"^  c #B9B098",
"/  c #9BA4A1",
"(  c #AABDBC",
")  c #C5AF96",
"_  c #C2B198",
"`  c #CDB59C",
"'  c #D0B79D",
"]  c #D0B99F",
"[  c #C6B4A0",
"{  c #CCBBA4",
"}  c #D5BBA1",
"|  c #CBC0A6",
" . c #CCC5AB",
".. c #DCC2A7",
"X. c #D5C3AC",
"o. c #DDC4AA",
"O. c #D1C8AE",
"+. c #D7C4B0",
"@. c #D8C5B0",
"#. c #DFC9B2",
"$. c #DBD3B7",
"%. c #E0C7AB",
"&. c #E6CAAE",
"*. c #E4CBB1",
"=. c #E9CEB1",
"-. c #E1D2B5",
";. c #EED2B5",
":. c #EDD5BB",
">. c #E3D8BA",
",. c #F0D5B7",
"<. c #F2D6B9",
"1. c #F5D9BC",
"2. c #FBDCBD",
"3. c #F3DBC1",
"4. c #FBDFC1",
"5. c #E7E1C2",
"6. c #EEE6C6",
"7. c #F0E0C5",
"8. c #FDE2C4",
"9. c #F8E8C7",
"0. c #FEE5C9",
"q. c #F7E9CB",
"w. c #FFEBCB",
"e. c #FFF1CE",
"r. c #F7F1D1",
"t. c #FFF4D3",
"y. c #FFF9D6",
"u. c #FFFDDB",
"i. c #DDFFFF",
"p. c #FFFEE3",
"a. c #FFFFEB",
"s. c #E0F4F6",
"d. c #E2F7F9",
"f. c #E2FFFF",
"g. c #EBFFFF",
"h. c #FFFFF4",
"j. c #F4FFFF",
"k. c #FCFFFF",
/* pixels */
"f.f.i.f.f.f.f.f.f.f.f.f.f.f.f.f.f.f.f.f.f.f.f.f.f.f.f.f.f.f.",
"i.i.g.k.k.j.j.j.j.k.j.k.j.k.k.j.j.k.j.k.j.j.j.k.k.j.k.j.i.i.",
"f.g.( u V V V A V V V C V V V V V V C C V V V V C A M S g.g.",
"f.k.N > 3 3 3 3 3 3 3 3 3 3 3 3 3 3 3 3 3 3 3 3 3 3 , 7 d.g.",
"f.j.D 9 a d f k k f g g k f f f l f l f k k l f f d i h d.g.",
"f.j.D 8 f v F H H H H F H H H H H H H H H H H H m v g h i.g.",
"f.j.D 9 x H ) ` ` ` ] ;.=.` ` ` ` ` ' ` ` ` ] ] ` W x h s.g.",
"f.g.D q v Y } =.&.;.w.Q ` w.;.&.=.&.&.&.&.=.,.<.o.~ c h s.d.",
"f.g.D q v Q ..;.2.e.0     f t.1.1.e.u.w.<.2.8.1.#.~ c h s.g.",
"f.j.D q v Q ..,.u.H   2 -   { y.y.{ v $.y.2.0.3.#.) c h s.g.",
"f.j.D 9 v ) ..,.u.c   e 5   _ h.I     o  .y.8.1.#.~ c h s.g.",
"f.j.D 9 v Y ..,.w.6.;     7 y.q.. X y   2 y.8.1.*.~ x h s.g.",
"f.j.D 9 v Q ..,.1.y.t.+ : p.t.9.o . w   5 p.0.3.#.~ x h s.d.",
"f.g.D 9 v Y ..;.2.8.p.* 7 a.2.y.^ O   # @.t.4.3.#.~ c h i.g.",
"f.j.D q v ) ..,.2.0.t.# 2 p.e.e.k.J   X.a.2.4.3.#.~ c h s.g.",
"i.j.D q v Q ..,.2.0.y.# 7 a.>. .I + $ u.0.2.4.3.*._ c h s.g.",
"f.j.D q v Q ..,.2.0.y.< @ %       = $.t.2.2.0.1.#.~ c h s.g.",
"f.g.D q v Y ..,.2.w.a.:   w b U O.e.y.2.2.2.0.1.*.~ c h i.g.",
"f.j.S q v Y ..,.2.y.t     W h.y.t.0.2.2.2.4.8.1.#.! c h s.g.",
"f.j.D 9 v Q ..,.u.U   : -   X.t.2.2.2.2.4.8.8.3.*.~ c h s.d.",
"i.j.D q v Q ..,.p.x   r 7   ~ u.2.2.4.4.4.4.8.1.#.~ c h i.g.",
"f.j.D q v Q ..,.w.5.*     1 r.0.2.8.4.4.4.4.8.7.*.~ c h s.g.",
"f.j.D q v Q &.2.3.y.3.h z t.t.3.8.8.3.0.8.8.0.3.*.! c h s.d.",
"i.j.D 9 x Q %.1.3.3.w.p.p.0.3.3.3.3.3.7.3.3.3.:.o.R c h s.g.",
"f.j.S 8 g L { o.@.@.+.X.} @.@.@.+.+.+.+.@.@.@.} [ T j h s.g.",
"f.j.D 9 g G R ! ! ! ! ! ! ! ! ! ! ! ! ! ! ! ! R R J x h s.g.",
"f.j.B 4 s g x x x c x x x x x x x j x x x x j x j j i t s.g.",
"f.g.( Z / P P P / D / / P P P P / / / / P P / P / / D P d.f.",
"f.i.g.j.g.g.j.g.g.g.j.g.g.g.j.g.g.g.g.g.g.g.j.g.j.g.j.g.f.i.",
"i.f.f.f.f.f.f.f.f.f.f.f.f.f.f.f.f.f.f.f.f.f.f.f.f.f.f.f.f.f."
};
