/* XPM */
static char *branchSegmentSMMouseOver_xpm[] = {
/* columns rows colors chars-per-pixel */
"30 30 169 2 ",
"   c #000000",
".  c #0B0606",
"X  c #080708",
"o  c #080A0A",
"O  c #140C0A",
"+  c #100F10",
"@  c #171311",
"#  c #1A1513",
"$  c #1E1816",
"%  c #1D1A19",
"&  c #211A16",
"*  c #221C19",
"=  c #23211E",
"-  c #29221E",
";  c #242522",
":  c #2C2923",
">  c #332E28",
",  c #363129",
"<  c #39332B",
"1  c #473E34",
"2  c #493F35",
"3  c #4D4539",
"4  c #4E483F",
"5  c #524B3E",
"6  c #5F594B",
"7  c #5C5144",
"8  c #715B53",
"9  c #6C6251",
"0  c #6F6F5A",
"q  c #716D5A",
"w  c #75755E",
"e  c #577E60",
"r  c #7B7962",
"t  c #8D4B4B",
"y  c #81584F",
"u  c #8C5F56",
"i  c #875B53",
"p  c #8B6657",
"a  c #8F6158",
"s  c #97695E",
"d  c #916459",
"f  c #87765F",
"g  c #837260",
"h  c #947F67",
"j  c #997261",
"k  c #A47768",
"l  c #578C66",
"z  c #5B8963",
"x  c #5D9064",
"c  c #549266",
"v  c #608862",
"b  c #629368",
"n  c #67986B",
"m  c #72936C",
"M  c #7D9C74",
"N  c #54AD70",
"B  c #5DB474",
"V  c #78A07E",
"C  c #7FAD7B",
"Z  c #7FB07E",
"A  c #39E377",
"S  c #3BE57B",
"D  c #3DEA7B",
"F  c #87846B",
"G  c #9C866D",
"H  c #9D8173",
"J  c #9E9378",
"K  c #A0896F",
"L  c #AC816E",
"P  c #AF8370",
"I  c #A28B71",
"U  c #B98676",
"Y  c #B78A77",
"T  c #AC957A",
"R  c #A79378",
"E  c #B69D7F",
"W  c #7CB182",
"Q  c #3EEA80",
"!  c #3EF083",
"~  c #48E782",
"^  c #4AE984",
"/  c #45E581",
"(  c #57E585",
")  c #58E786",
"_  c #59E987",
"`  c #57EE89",
"'  c #5BE988",
"]  c #55EC87",
"[  c #4BF385",
"{  c #4AF689",
"}  c #4FF98C",
"|  c #41F285",
" . c #52F187",
".. c #56F289",
"X. c #52F98C",
"o. c #AD9E82",
"O. c #A69C81",
"+. c #BA9F82",
"@. c #AEA084",
"#. c #BBA183",
"$. c #BBAD8F",
"%. c #CC9C86",
"&. c #EC938B",
"*. c #C2A587",
"=. c #C2A688",
"-. c #C5A98A",
";. c #CAAE8E",
":. c #C5B594",
">. c #CCB291",
",. c #C9B997",
"<. c #CCB998",
"1. c #C5B999",
"2. c #D6B696",
"3. c #DABA97",
"4. c #D5BF9D",
"5. c #DDBC9A",
"6. c #F7A99B",
"7. c #E0BE9C",
"8. c #F4BAA4",
"9. c #DEC39F",
"0. c #D3C09D",
"q. c #E1C19D",
"w. c #CCC1A4",
"e. c #D6C4A0",
"r. c #DCC5A2",
"t. c #D9CBA7",
"y. c #DACDAA",
"u. c #E7C5A1",
"i. c #EAC6A2",
"p. c #ECCAA4",
"a. c #F1CDA6",
"s. c #F2CEA8",
"d. c #F9CEA8",
"f. c #F5C1A1",
"g. c #ECD1AC",
"h. c #F6D1AB",
"j. c #FAD4AD",
"k. c #FFD8AF",
"l. c #EEC0B3",
"z. c #EEC5BE",
"x. c #FFCFB1",
"c. c #E7D8B0",
"v. c #EBDAB2",
"b. c #FAD6B2",
"n. c #FCDAB5",
"m. c #FDDDBC",
"M. c #F2DCB4",
"N. c #E9E0BB",
"B. c #F4E0B6",
"V. c #F5E1BB",
"C. c #FEE5BB",
"Z. c #FEE8BE",
"A. c #F4BEC4",
"S. c #F0C8C1",
"D. c #FFDBC6",
"F. c #FFDECB",
"G. c #FEE3C3",
"H. c #FFEDC2",
"J. c #FFECCA",
"K. c #FFF1C5",
"L. c #FFF4C9",
"P. c #FFF9CC",
"I. c #FFEFD3",
"U. c #FFF1D4",
"Y. c #FFFED2",
"T. c #FFF4D8",
"R. c #FFFFDC",
"E. c #FFF2E1",
"W. c #FFFFE4",
/* pixels */
"( ( ( _ _ ( _ ( _ ( ( _ ( _ ( _ ( _ ( _ ( _ ( ( _ _ _ ( ( ( ",
"( ( ..[ [ | [ [ [ [ [ [ [ [ [ [ [ | [ [ [ [ [ [ [ [ [ X.( ( ",
"_ ..N e l l l l l l l l l l l l l l l l l l l l l l z c _ _ ",
"_ D V A.S.z.z.z.z.z.z.z.z.z.z.z.z.z.z.z.z.z.z.z.z.8.6.h S ` ",
"_ A W E.T.T.U.I.I.I.I.I.I.I.I.I.I.I.U.U.U.U.I.L.H.b.f.J A ] ",
"' S W F.G.D.D.m.m.m.G.Y.J.m.m.D.m.m.D.m.m.D.m.b.h.3.%.F / ` ",
"' S W F.G.m.m.m.b.J.G.w.m.L.b.M.n.m.m.n.M.n.n.j.q.;.Y F ^ ` ",
"' S W D.m.m.n.j.J.y.:   $ 1.J.b.j.n.G.C.b.b.k.a.7.*.U r ^ ] ",
"' S W D.C.n.b.n.Z.,   ;   # v.n.C.G.4.g.K.j.h.i.2.#.P r ^ ` ",
"' S W D.m.n.j.Z.i.  X o.;   ,.Y.c.7   @ @.K.d.i.2.#.P r ^ ` ",
"' S W D.m.n.b.n.H.1   %   $ B.P.7   %     0.Z.i.2.#.L r ^ ` ",
"' S W D.m.n.b.j.C.c.3   < t.L.n.%   R 7   R P.q.2.#.L r ^ ` ",
"' S W D.m.n.b.b.d.Y.4.  @.R.d.L.9   =   . r.C.i.2.#.P r ^ _ ",
"' S W D.m.n.b.j.j.K.-.  R P.d.B.Z.9   o $.K.d.i.3.#.P r ^ ` ",
"' S W D.m.n.b.j.j.H.-.  J Y.C.C.W.V.  q W.h.h.i.2.#.P r ^ ` ",
"' S W D.m.n.n.j.j.H.=.  @.Y.0.:.R =   <.H.j.h.i.2.+.P r ^ ` ",
"' S W D.m.n.n.j.h.K.-.  , O       . O.P.j.j.h.p.2.#.P r ^ ..",
"_ S W D.m.n.b.b.d.Y.r.  @ 6 g T :.M.K.j.h.j.h.i.2.#.P w ^ ..",
"' S W D.m.n.b.j.C.c.3   = N.R.K.K.C.h.j.j.j.h.i.2.#.P r ^ ` ",
"' S W D.m.n.b.b.Z.3   %   * B.n.h.j.j.j.j.j.h.p.3.#.P r ^ ` ",
"_ S W D.m.n.b.G.i.  X @.;   ,.Z.j.j.j.j.j.b.h.p.3.E P r ^ ` ",
"' A W D.m.n.b.n.C.,   :   # v.C.j.j.j.j.j.j.h.i.3.E P r ^ ` ",
"' S Z D.C.n.j.d.C.9.:   & >.C.a.s.a.a.a.a.s.p.q.2.E P w ^ ] ",
"' S Z m.k.a.q.q.5.j.p.-.u.b.7.q.7.9.7.7.7.5.3.2.=.T k w ^ ` ",
"_ D W x.i.2.;.;.-.*.>.7.2.*.=.-.-.-.-.=.=.-.=.E T G j w ^ ` ",
"_ / C 8.-.E T I K K I K K K K I K I I I K K K K G f p 0  .` ",
"_ Q M &.U k s d a a d a a a a a a a a a a a a a i 8 t 8 [ ` ",
"_  .B m n b b x x x b v x x x x x x x b x x x x x x v x _ _ ",
"( ( ..| { { } } X.} } } } } X.} } } X.} } } } } X.X.X.X.) ( ",
"( ( ( ' _ ( _ ( ( ( _ _ ( ( ( _ ( ( ) ) ) ) ) ) ) ) ) ) ( ( "
};
