/* XPM */
static char *clearSegmentSMMouseOver_xpm[] = {
/* columns rows colors chars-per-pixel */
"30 30 175 2 ",
"   c #010000",
".  c #0C0706",
"X  c #19110B",
"o  c #131010",
"O  c #191412",
"+  c #1C1A15",
"@  c #231D18",
"#  c #211A14",
"$  c #27231F",
"%  c #342E27",
"&  c #332D28",
"*  c #343029",
"=  c #3B3C32",
"-  c #463D33",
";  c #494235",
":  c #464238",
">  c #4C473B",
",  c #51463B",
"<  c #5F584A",
"1  c #575346",
"2  c #675E4E",
"3  c #715B53",
"4  c #6F6F5A",
"5  c #666352",
"6  c #7B6956",
"7  c #766A58",
"8  c #726555",
"9  c #75755E",
"0  c #7E715D",
"q  c #577E60",
"w  c #7B7962",
"e  c #797566",
"r  c #8D4B4B",
"t  c #81584F",
"y  c #8A5D55",
"u  c #8F6158",
"i  c #8B6657",
"p  c #97695E",
"a  c #916459",
"s  c #87765F",
"d  c #8B7A65",
"f  c #8D7E69",
"g  c #947F67",
"h  c #997261",
"j  c #A47768",
"k  c #578C66",
"l  c #5B8963",
"z  c #5D9064",
"x  c #549266",
"c  c #608862",
"v  c #67986B",
"b  c #629368",
"n  c #72936C",
"m  c #7D9C74",
"M  c #54AD70",
"N  c #5DB474",
"B  c #78A07E",
"V  c #7FAD7B",
"C  c #7FB07E",
"Z  c #39E377",
"A  c #3BE57B",
"S  c #3DEA7B",
"D  c #87856C",
"F  c #8B836B",
"G  c #9C866D",
"H  c #92856E",
"J  c #9D8173",
"K  c #9D957A",
"L  c #A0896F",
"P  c #AC816E",
"I  c #AF8370",
"U  c #A28B71",
"Y  c #B98676",
"T  c #B78A77",
"R  c #AD967A",
"E  c #AB9277",
"W  c #B0977D",
"Q  c #B59C7F",
"!  c #7CB182",
"~  c #3EEA80",
"^  c #3EF083",
"/  c #48E782",
"(  c #4AE984",
")  c #45E581",
"_  c #57E585",
"`  c #58E786",
"'  c #59E987",
"]  c #57EE89",
"[  c #5BE988",
"{  c #55EC87",
"}  c #4BF385",
"|  c #4AF689",
" . c #4FF98C",
".. c #41F285",
"X. c #52F187",
"o. c #56F289",
"O. c #52F98C",
"+. c #A89F82",
"@. c #A29C80",
"#. c #BB9F83",
"$. c #BBA183",
"%. c #B7A88A",
"&. c #BBA88A",
"*. c #B8AF9C",
"=. c #B4A991",
"-. c #BFBD9D",
";. c #CC9C86",
":. c #EC938B",
">. c #C3A687",
",. c #C2A688",
"<. c #C5A98A",
"1. c #CAAE8E",
"2. c #C0AF90",
"3. c #CEB391",
"4. c #C6B496",
"5. c #D5B695",
"6. c #D7B896",
"7. c #DDBC9A",
"8. c #E0BF9C",
"9. c #F7A99B",
"0. c #F4BAA4",
"q. c #DFC19E",
"w. c #E8C19F",
"e. c #D5C5A3",
"r. c #D5CBA6",
"t. c #D9C6A3",
"y. c #DED4AD",
"u. c #C8C4B0",
"i. c #D6D3B9",
"p. c #E6C4A0",
"a. c #EAC7A3",
"s. c #EDCAA4",
"d. c #E0CCA8",
"f. c #EBCDA8",
"g. c #F2CDA6",
"h. c #FACCA5",
"j. c #F2CDA8",
"k. c #FACFA9",
"l. c #F5C1A1",
"z. c #E9D4AF",
"x. c #F6D1AB",
"c. c #FAD4AD",
"v. c #FFD9AF",
"b. c #EEC0B3",
"n. c #EEC5BE",
"m. c #FFCFB1",
"M. c #E4D6B0",
"N. c #FAD7B2",
"B. c #FCDAB5",
"V. c #FDDDBC",
"C. c #F6DAB1",
"Z. c #EFE2BD",
"A. c #FDE0B6",
"S. c #F6E2BA",
"D. c #FEE5BB",
"F. c #FFE9BF",
"G. c #F4BEC4",
"H. c #F0C8C1",
"J. c #FFDBC6",
"K. c #FFDECB",
"L. c #FFE3C4",
"P. c #FEEDC3",
"I. c #FFECCB",
"U. c #FFF3C6",
"Y. c #FFF4C9",
"T. c #FFFBCD",
"R. c #FFEFD1",
"E. c #FFF0D4",
"W. c #FFFED3",
"Q. c #FFF4D8",
"!. c #FFFEDA",
"~. c #FFF2E1",
"^. c #FFFFE4",
"/. c #FFFFEA",
"(. c ivory",
/* pixels */
"_ _ _ ' ' ' _ ' _ ' _ _ ' _ ' _ _ _ _ ' _ ' _ _ [ ' ' _ _ _ ",
"_ _ o.} } } } } } } } } } } } } } ..} } } } } } } } } O._ _ ",
"' o.M q k k k k k k k k k k k k k k k k k k k k k k l x { ' ",
"' S B G.H.n.n.n.n.n.n.n.n.n.n.n.n.n.n.H.n.n.n.n.n.0.9.g A o.",
"' Z ! ~.Q.Q.E.E.E.R.R.R.E.E.E.E.R.R.Q.R.E.E.E.I.P.B.l.K A ] ",
"[ A ! K.L.J.J.J.V.V.J.V.V.V.J.V.V.V.J.V.V.L.!.D.g.7.;.D ) ] ",
"[ A ! K.L.V.V.B.C.V.V.V.C.V.C.B.V.B.B.N.Y.S.f q.g.1.T d / ] ",
"[ A ! J.V.V.C.C.N.N.N.N.N.N.N.C.N.B.j.I.Y.>   , B.>.T w / ] ",
"[ A ! J.V.N.N.N.N.x.c.c.c.c.c.c.c.x.P.U.;   O <.a.$.I w ( ] ",
"[ Z ! J.V.N.N.v.c.N.N.c.c.x.A.F.h.P.P.-   O r.P.5.#.I w ( ] ",
"[ A ! J.V.B.N.N.c.c.c.c.x.A.x.f.!.P.-   O y.T.w.5.$.I w ( ' ",
"[ A ! J.V.V.N.x.N.c.c.x.v.W.> O u.,   @ y.T.g.a.5.$.I w / ] ",
"[ A ! J.V.B.C.v.c.x.B.U.^.2.        % y.T.x.c.a.5.$.I w ( ] ",
"[ A ! J.V.B.N.c.v.T.P.&.e   : *.    e.^.h.c.x.a.5.$.P w ( ] ",
"' A ! J.V.B.c.B.U.+.@       : (.e.  + e.D.c.x.a.5.$.I w ( { ",
"[ A ! J.V.B.N.T.F   # @.Z.d   ; 2   * t.D.c.x.a.5.$.I w ( ] ",
"[ A ! J.V.B.P.d.  - /.^.D.!.d     K T.D.x.v.x.a.6.$.I w ( o.",
"[ A ! J.V.N.W.7   U.i.- W W.F.. 5 ^.B.x.v.x.x.a.5.$.I w ( ] ",
"[ A ! J.V.B.P.& $ 8 X D S.T.%.  R U.x.c.c.c.x.a.5.$.I w ( ] ",
"[ A ! J.B.P.z.o   . r.W.U.!.%   S.D.v.c.c.c.x.a.5.$.I w ( ] ",
"[ Z ! J.V.Y.4.  1 !./.P.M.<   H T.c.c.c.c.c.x.s.5.$.I w ( ] ",
"[ A ! J.V.E.U   =.4.7 =     0 U.B.c.c.c.c.c.x.a.5.$.I w ( ] ",
"[ A ! J.A.T.7         O 2 3.U.c.s.j.g.g.g.j.s.8.3.Q P w ( ] ",
"[ A ! V.B.C.W 6 d $.6.g.B.B.8.8.q.w.8.8.8.8.6.5.>.R j w ( ] ",
"[ ~ C m.w.5.8.g.w.w.q.1.>.>.<.<.>.<.<.<.<.<.>.#.R G h 9 ( ] ",
"[ S K 0.1.Q E L L G L G U U U U G U U L U U L G g s i 4 { o.",
"{ ^ B :.Y j p a u u a a u u u u u u a a u u u u y t r 3 ( o.",
"` } N v v b b b z z z z z z z z z z z z z z z z z z l z { { ",
"_ ` X...} | | | | | | O. . .|  .| O.| O. . .|  .| O. .O._ _ ",
"` ` ` ` [ _ _ [ [ [ _ [ ' [ ' _ _ [ _ [ ' [ _ ' ' [ ' _ _ _ "
};
