/* XPM */
static char *clearSegmentSMNormal_xpm[] = {
/* columns rows colors chars-per-pixel */
"30 30 164 2 ",
"   c #010000",
".  c #0C0706",
"X  c #19110B",
"o  c #131010",
"O  c #191412",
"+  c #1C1A15",
"@  c #211A14",
"#  c #231D18",
"$  c #27231F",
"%  c #342E27",
"&  c #332D28",
"*  c #343029",
"=  c #3B3C32",
"-  c #463D33",
";  c #494235",
":  c #464238",
">  c #4C473B",
",  c #51463B",
"<  c #644328",
"1  c #6D543D",
"2  c #70573F",
"3  c #575346",
"4  c #5F584A",
"5  c #685749",
"6  c #6B5F4E",
"7  c #625D4E",
"8  c #795E44",
"9  c #755B42",
"0  c #7B634A",
"q  c #666352",
"w  c #7B6956",
"e  c #766A58",
"r  c #726555",
"t  c #7E715D",
"y  c #7C7365",
"u  c #81654B",
"i  c #8B6F54",
"p  c #95785B",
"a  c #897661",
"s  c #8B7A65",
"d  c #827768",
"f  c #857A6B",
"g  c #8B7D6C",
"h  c #9C7E60",
"j  c #947F69",
"k  c #86856D",
"l  c #8B836B",
"z  c #9F8163",
"x  c #9D866E",
"c  c #92856E",
"v  c #928474",
"b  c #9D947B",
"n  c #A28264",
"m  c #AD8C6D",
"M  c #BB8960",
"N  c #A38B71",
"B  c #AD957A",
"V  c #B0977D",
"C  c #B59C7F",
"Z  c #BC9978",
"A  c #D3A178",
"S  c #7E8583",
"D  c #858B89",
"F  c #8C9089",
"G  c #8C9695",
"H  c #8E9896",
"J  c #939A94",
"K  c #9A9A90",
"L  c #919C9B",
"P  c #A79682",
"I  c #A29C80",
"U  c #A89F82",
"Y  c #B79D81",
"T  c #BB9F83",
"R  c #97A09C",
"E  c #9DA19B",
"W  c #BCA184",
"Q  c #B7A88A",
"!  c #BBA88A",
"~  c #A5A398",
"^  c #B4A991",
"/  c #B8AF9C",
"(  c #BFBD9D",
")  c #A2A8A1",
"_  c #B5BAAF",
"`  c #B4B5AB",
"'  c #AABCBC",
"]  c #B4BAB1",
"[  c #C3A687",
"{  c #C3A688",
"}  c #C5A98A",
"|  c #CCAE8E",
" . c #C0AF90",
".. c #C6B496",
"X. c #CEB391",
"o. c #CDB59B",
"O. c #D5B695",
"+. c #D7B896",
"@. c #D7BB9F",
"#. c #DDBC9A",
"$. c #DCB994",
"%. c #E1B48C",
"&. c #E8BE93",
"*. c #E0BF9C",
"=. c #D8BFA6",
"-. c #B8C0B7",
";. c #DFC19E",
":. c #E8C19F",
">. c #F4CB9D",
",. c #D5C5A3",
"<. c #D9C6A3",
"1. c #D5CBA6",
"2. c #D8C1AA",
"3. c #DED4AD",
"4. c #C8C4B0",
"5. c #D6D3B9",
"6. c #E6C4A0",
"7. c #EAC7A3",
"8. c #EDCAA4",
"9. c #E0CCA8",
"0. c #EBCDA8",
"q. c #F2CDA6",
"w. c #FACCA5",
"e. c #F2CDA8",
"r. c #FACFA9",
"t. c #E9D4AF",
"y. c #F6D1AB",
"u. c #FAD4AD",
"i. c #E4D6B0",
"p. c #F5D7B3",
"a. c #FAD7B2",
"s. c #F5D9B4",
"d. c #FCDAB5",
"f. c #FDDDBC",
"g. c #F5DABA",
"h. c #EFE2BD",
"j. c #FDE0B6",
"k. c #F6E2BA",
"l. c #FEE5BB",
"z. c #FFE9BF",
"x. c #B3C3C1",
"c. c #FBDEC2",
"v. c #FFE3C5",
"b. c #FEEDC3",
"n. c #FFEDCD",
"m. c #FFF3C6",
"M. c #FFF4C9",
"N. c #FFFBCD",
"B. c #FFEFD2",
"V. c #FFF1D4",
"C. c #FFFED3",
"Z. c #FFF4D9",
"A. c #FFFEDA",
"S. c #D6EEF3",
"D. c #DCF3F7",
"F. c #DFF5F8",
"G. c #DCFEFF",
"H. c #FFFFE4",
"J. c #FFFFEA",
"K. c #E3F6FA",
"L. c #E3FFFF",
"P. c #EBFFFF",
"I. c ivory",
"U. c #F0FFFF",
/* pixels */
"L.L.L.L.L.L.L.L.L.L.L.L.L.L.L.L.L.L.L.L.L.L.L.L.L.L.L.L.L.G.",
"G.G.P.P.P.P.P.P.P.P.P.P.P.P.P.P.P.P.P.P.P.P.P.P.P.U.P.U.L.G.",
"L.P.' S L G G G G G G G G G G G G G G G G G G G G J D L P.L.",
"L.L.) o.2.2.2.2.2.2.2.2.2.2.2.2.2.2.2.2.2.2.2.=.=.$.A j S.P.",
"L.G.] V.Z.Z.B.B.V.V.B.B.V.V.V.V.V.V.V.V.V.V.V.n.v.d.&.P S.P.",
"L.G.] g.v.c.c.f.f.c.g.f.f.f.f.f.f.f.g.c.g.v.A.l.q.$.Z v D.L.",
"L.G.] p.v.f.f.f.f.d.d.f.d.f.f.s.f.d.d.a.M.k.g :.q.| m l D.L.",
"P.G.] p.f.f.a.a.a.p.a.a.a.a.a.a.a.p.r.n.M.>   > j.} n g K.P.",
"L.G.] p.f.d.a.a.a.u.a.u.u.u.u.u.u.y.b.m.;   O } 7.W h f K.P.",
"L.G.] p.f.d.a.a.u.u.u.u.u.y.l.l.w.b.b.-   O 1.b.O.W n f F.L.",
"P.G.] p.f.d.a.u.u.u.u.u.y.j.y.0.A.b.-   O 3.N.:.O.T z f F.P.",
"L.G.] p.f.d.a.u.u.u.u.u.u.C.> O 4.,   # 3.N.w.7.O.W z f K.L.",
"L.G.] p.f.d.a.a.u.y.j.m.H...        % 3.N.r.y.7.O.W z f F.P.",
"L.G.] p.f.a.a.u.u.N.b.! y   : /     <.H.w.u.y.7.O.W z f K.L.",
"L.G.] p.l.d.u.d.M.U +       - I.,.  + ,.l.u.y.7.+.W z f F.P.",
"L.G.] p.f.d.a.N.l   @ I h.s   ; 7   * <.l.u.y.7.+.W z f F.P.",
"P.G.] p.f.a.b.9.  - J.H.l.A.s     b N.z.r.u.y.8.+.W z f F.P.",
"L.G.] p.f.a.C.e   m.5.- V C.z.. q H.a.u.u.u.y.8.O.W z f F.P.",
"L.G._ p.f.f.b.& $ r X k k.N.Q   B m.y.u.u.u.y.7.O.W z f F.P.",
"L.G._ p.f.v.t.o   . 1.C.m.A.%   k.l.u.u.u.u.y.7.O.W z f F.L.",
"L.G._ s.f.M...  3 A.J.b.i.4   c N.y.u.u.u.u.y.8.O.W n f K.L.",
"L.G.] s.f.M.N   ^ ..e =     t m.d.u.u.u.u.u.y.6.O.[ z f F.P.",
"L.G.] p.l.N.e         O 6 X.m.y.q.q.t.q.e.e.8.:.X.C p f F.P.",
"L.G._ r.a.s.V w s T +.e.j.a.*.*.:.*.#.:.#.#.#.X.[ V p d K.L.",
"P.G._ >.7.O.#.8.6.*.#.| [ [ } } [ [ } } } } [ C B x i y K.P.",
"L.G.` %.| T B N N N N N N N N N N N N N N N N x z a 0 y K.P.",
"L.L.~ M n i u 8 8 8 9 8 8 8 8 8 2 0 0 2 8 8 8 2 1 1 < 5 K.P.",
"L.P.-.K ~ J J J J J J J J J J J J J J K J J J J J J F R P.L.",
"G.L.L.L.P.P.U.U.U.U.P.U.U.U.P.U.U.U.U.U.P.U.U.U.U.U.U.U.L.G.",
"L.G.L.L.L.L.L.L.L.L.L.L.L.L.L.L.L.L.L.L.L.L.L.L.L.L.L.L.G.L."
};
