/* XPM */
static char *copySegmentSMMouseOver_xpm[] = {
/* columns rows colors chars-per-pixel */
"30 30 162 2 ",
"   c #000001",
".  c #0C0B0C",
"X  c #100D0E",
"o  c #0F1011",
"O  c #1E1C1A",
"+  c #1A1615",
"@  c #211D1B",
"#  c #25211C",
"$  c #2D241F",
"%  c #232320",
"&  c #322C25",
"*  c #3A342C",
"=  c #3D3A31",
"-  c #453D33",
";  c #493F35",
":  c #4A4136",
">  c #474539",
",  c #4B453A",
"<  c #4D493E",
"1  c #554B3F",
"2  c #564D44",
"3  c #605649",
"4  c #665C4B",
"5  c #715B53",
"6  c #6F6352",
"7  c #6F6F5A",
"8  c #716454",
"9  c #766B5B",
"0  c #786D5A",
"q  c #746B57",
"w  c #75755E",
"e  c #7E725E",
"r  c #577E60",
"t  c #7B7962",
"y  c #8D4B4B",
"u  c #81584F",
"i  c #8C5F56",
"p  c #875B53",
"a  c #8E6157",
"s  c #8F6158",
"d  c #97695E",
"f  c #916459",
"g  c #81755F",
"h  c #807965",
"j  c #867D69",
"k  c #947F67",
"l  c #907F68",
"z  c #997261",
"x  c #A47768",
"c  c #578C66",
"v  c #5B8963",
"b  c #5D9064",
"n  c #549266",
"m  c #608862",
"M  c #629368",
"N  c #67986B",
"B  c #72936C",
"V  c #7D9C74",
"C  c #54AD70",
"Z  c #5DB474",
"A  c #78A07E",
"S  c #7FAD7B",
"D  c #7FB07E",
"F  c #39E377",
"G  c #3BE57B",
"H  c #3DEA7B",
"J  c #8A836B",
"K  c #93856D",
"L  c #9C866D",
"P  c #9D8B73",
"I  c #9D8173",
"U  c #9F9176",
"Y  c #9B947A",
"T  c #A0896F",
"R  c #AC816E",
"E  c #AF8370",
"W  c #A28B71",
"Q  c #B98676",
"!  c #B78A77",
"~  c #A99176",
"^  c #AC957A",
"/  c #A2937A",
"(  c #B2997C",
")  c #7CB182",
"_  c #3EEA80",
"`  c #3EF083",
"'  c #48E782",
"]  c #4AE984",
"[  c #45E581",
"{  c #57E585",
"}  c #58E786",
"|  c #59E987",
" . c #57EE89",
".. c #5BE988",
"X. c #55EC87",
"o. c #4BF385",
"O. c #4AF689",
"+. c #4FF98C",
"@. c #41F285",
"#. c #52F187",
"$. c #56F289",
"%. c #52F98C",
"&. c #9F9181",
"*. c #A69A81",
"=. c #AC9E84",
"-. c #B79D81",
";. c #BA9F82",
":. c #B5A487",
">. c #BBA183",
",. c #CC9C86",
"<. c #EC938B",
"1. c #C1A587",
"2. c #C2A688",
"3. c #C6A98A",
"4. c #CBAD8D",
"5. c #CFB291",
"6. c #D5B594",
"7. c #DAB997",
"8. c #DCBB99",
"9. c #F7A99B",
"0. c #E0BE9B",
"q. c #F4BAA4",
"w. c #E4C19E",
"e. c #DBCBB3",
"r. c #E6C4A0",
"t. c #EEC9A5",
"y. c #EBC6A1",
"u. c #F5CCA7",
"i. c #F4CFA9",
"p. c #F5C1A1",
"a. c #ECD3AD",
"s. c #FAD5AE",
"d. c #FFD8AF",
"f. c #F4D4AE",
"g. c #EEC0B3",
"h. c #EEC5BD",
"j. c #FFCFB1",
"k. c #EDD5B7",
"l. c #FDD7B2",
"z. c #FEDBB4",
"x. c #F0DCBC",
"c. c #FEDCBB",
"v. c #FDE5BC",
"b. c #FFE9BF",
"n. c #F4BEC4",
"m. c #F0C8C1",
"M. c #FFDBC6",
"N. c #FFDECB",
"B. c #FEE2C2",
"V. c #FFEBC2",
"C. c #FFEDCC",
"Z. c #FFF3C6",
"A. c #FFF6C9",
"S. c #FFFACC",
"D. c #FFEFD2",
"F. c #FFF0D4",
"G. c #FFFED3",
"H. c #FFF5D9",
"J. c #FFFFDB",
"K. c #FFF2E1",
"L. c #FFFFE2",
"P. c #FFFFED",
/* pixels */
"{ { { | { | X.{ { { { { | { | { { { { { | { { | { | | { { { ",
"{ { $.o.o.o.o.o.o.o.o.o.o.o.o.o.o.o.o.o.o.o.o.o.o.o.O.%.{ { ",
"| $.C r c c c c c c c c c c c c c c c c c c c c c n v n | | ",
"| H A n.m.h.h.h.h.m.h.h.h.h.h.h.h.h.h.h.m.h.h.h.h.q.9.x G  .",
"| F ) K.H.H.F.F.D.D.F.D.H.L.L.L.L.J.L.L.D.D.D.C.V.z.q.U G | ",
"..G ) N.B.M.M.c.M.c.c.C.A.k.k.k.k.k.k.x.H.M.c.c.i.7.,.l [  .",
"..G ) N.B.c.c.c.x.l.B.x.<   . . . . + . j G.v.i.w.4.! B '  .",
"..G ) M.c.c.x.l.l.d.G.K   Y *.P / *.% $   t G.u.8.1.! t ]  .",
"..G ) M.c.x.s.v.A.Z.P.t $ J.S.A.S.J.* &.e.  l v.6.>.E t ]  .",
"..G ) M.c.l.v.a.3 - 2 # & v.z.s.d.b.& o 9 . & z.8.-.E t '  .",
"..G ) M.c.z.A.;   2 , O & v.z.s.s.b.>.> > # * z.8.>.E t ]  .",
"..G ) M.c.c.b.X q J.L.J @ v.v.s.l.i.V.Z.J.e + z.8.>.E t '  .",
"..G ) M.c.c.b.@ 8 A.S.g # v.v.s.s.s.s.s.A.8 O l.8.-.E t ]  .",
"..G ) M.c.c.V.@ 6 Z.A.g # v.z.s.s.s.s.s.Z.8 @ d.8.>.E t '  .",
"..G ) M.c.z.b.O 6 Z.A.e # v.v.s.s.l.s.s.S.6 O z.8.>.E t ]  .",
"..G ) M.c.v.b.# 6 Z.Z.g # v.z.s.s.s.s.s.Z.8 O z.8.>.E t ]  .",
"..G ) M.c.c.V.@ 6 Z.S.g # v.z.s.s.s.s.s.Z.8 O d.8.>.R t '  .",
"| G ) M.c.c.B.@ 6 Z.S.e # v.v.s.s.d.s.s.A.q O z.7.>.E t ]  .",
"..G ) M.c.c.V.@ 6 Z.S.q @ S.S.Z.V.Z.V.Z.J.0 . d.8.>.E t ]  .",
"..G ) M.c.c.b.@ 6 Z.Z.:.  = < - - 3 1 - 2   : v.7.>.E t ]  .",
"{ G ) M.c.z.V.@ 5 Z.s.v.P - : < ,   O 2 - 4 a.f.7.>.E t ]  .",
"..G ) M.c.v.v.+ t L.V.Z.J.J.J.L.P.& j L.V.A.z.w.7.>.E t ]  .",
"..G ) M.z.z.V.@ & =.P P P W T ^ U   K Z.u.i.t.w.5.( R t ]  .",
"..G ) c.z.t.l.-.O   . . . . . .   : r.t.8.w.8.5.1.^ x t ]  .",
"..H ) l.w.7.4.w.4.1.1.1.1.1.1.1.>.8.6.>.3.3.2.-.^ T z w ]  .",
"{ [ Y q.4.( ~ W ^ ( ^ ( ( ^ ( ( ( ~ W W W W W L k g a q X.$.",
" .H A <.Q x d f a a a a a a a a i i s s s s s s p u y 5 ] $.",
"| o.Z N N M M b M b b m b b b b b b b b b b b b b b m n X.X.",
"{ } #.@.o.+.+.+.+.+.+.+.+.+.+.+.%.%.+.+.+.+.+.+.+.%.+.%.{ { ",
"{ { { ..| { | { } } } } } } } } ..{ { { { | { | | | | | { { "
};
