/* XPM */
static char *copySegmentSMPressed_xpm[] = {
/* columns rows colors chars-per-pixel */
"30 30 139 2 ",
"   c #010001",
".  c #0D0707",
"X  c #090708",
"o  c #0C0B0B",
"O  c #110D0B",
"+  c #14110E",
"@  c #151312",
"#  c #1A1615",
"$  c #1D1815",
"%  c #1C1A19",
"&  c #241A11",
"*  c #211C1B",
"=  c #24211E",
"-  c #2A2522",
";  c #2D2925",
":  c #2E2D29",
">  c #3C3733",
",  c #452C1D",
"<  c #553D2C",
"1  c #5D4C3D",
"2  c #634631",
"3  c #534D44",
"4  c #5F5349",
"5  c #6C5745",
"6  c #6D5847",
"7  c #6F5A48",
"8  c #666256",
"9  c #75695F",
"0  c #766D61",
"q  c #7A6E64",
"w  c #7E7468",
"e  c #767E7E",
"r  c #876D5C",
"t  c #86705C",
"y  c #827363",
"u  c #897565",
"i  c #877867",
"p  c #8D7D6C",
"a  c #917F6F",
"s  c #817C73",
"d  c #917F70",
"f  c #8F806D",
"g  c #91806F",
"h  c #948272",
"j  c #9A8775",
"k  c #9A8A76",
"l  c #928D7D",
"z  c #9C8C7A",
"x  c #A6937E",
"c  c #7B8383",
"v  c #818683",
"b  c #858A84",
"n  c #848F8F",
"m  c #84908F",
"M  c #8B908B",
"N  c #969382",
"B  c #9E9687",
"V  c #859190",
"C  c #8C9897",
"Z  c #909894",
"A  c #A99681",
"S  c #A69887",
"D  c #AD9A85",
"F  c #A6988A",
"G  c #B29C87",
"H  c #B39F89",
"J  c #9AA29F",
"K  c #ADA38F",
"L  c #B6A28C",
"P  c #BBA68F",
"I  c #AFA192",
"U  c #B5A797",
"Y  c #BDA790",
"T  c #BBAB95",
"R  c #B7A998",
"E  c #BCAC99",
"W  c #BEB19B",
"Q  c #9BA4A1",
"!  c #BEB9A7",
"~  c #AABDBC",
"^  c #C3AD95",
"/  c #C0AD98",
"(  c #CDB59C",
")  c #C6B4A0",
"_  c #CDBBA4",
"`  c #D4BBA1",
"'  c #D9BEA4",
"]  c #CDC1A7",
"[  c #D5C2AC",
"{  c #DBC5AB",
"}  c #D5CAAD",
"|  c #DACAAE",
" . c #CEC5B2",
".. c #D7C5B0",
"X. c #DDC7B0",
"o. c #D4CDB6",
"O. c #DFC9B2",
"+. c #D9D1BB",
"@. c #E3C7AC",
"#. c #E6CAAE",
"$. c #E2CDB3",
"%. c #EBCFB3",
"&. c #E4D4B7",
"*. c #EDD2B5",
"=. c #E6D7B9",
"-. c #EDD5BA",
";. c #E7D9BF",
":. c #ECDBBD",
">. c #F0D5B7",
",. c #F2D7BE",
"<. c #F4DABD",
"1. c #FADDBE",
"2. c #CDC7C0",
"3. c #D7D3C3",
"4. c #EBD6C0",
"5. c #EED9C2",
"6. c #F2DBC1",
"7. c #FBDEC2",
"8. c #EEE1C4",
"9. c #F5E0C0",
"0. c #FEE4C5",
"q. c #FAE8C7",
"w. c #FDE7CD",
"e. c #FFECCB",
"r. c #FFF2CF",
"t. c #FEECD1",
"y. c #FFF4D2",
"u. c #FFFBD7",
"i. c #FFF7D8",
"p. c #FFFCDB",
"a. c #DDFFFF",
"s. c #FFFFE3",
"d. c #FFFFED",
"f. c #E0F4F6",
"g. c #E2F7F9",
"h. c #E2FFFF",
"j. c #EBFFFF",
"k. c #F4FFFF",
"l. c #FDFFFD",
/* pixels */
"h.h.a.h.h.h.h.h.h.h.h.h.h.h.h.h.h.h.h.h.h.h.h.h.h.h.h.h.h.a.",
"a.a.j.l.k.k.k.l.k.l.k.l.k.k.k.l.k.k.k.l.k.l.l.k.k.k.l.k.a.h.",
"h.k.~ e n n n n n n n m n n n n n n n n n n n n V V c C j.h.",
"h.k.v , 1 1 1 1 1 1 1 1 1 1 1 1 1 1 1 1 1 1 1 1 1 1 < 4 g.j.",
"h.k.Z 6 y i p g f g a g f p p p p p p p p g g p p i r s g.j.",
"a.k.Z 5 p k x G D G x x H ^ ^ ^ ^ ^ ^ P A D D D x z a s f.j.",
"h.j.Z 6 h G ^ ( ( ( ( ' #.L G L H L ^ ( %.( ( ` ( U h s f.j.",
"h.k.Z 7 k P [ #.#.#.%.1.3 . $ @ $ # o   P u.*.*.{ R j s f.j.",
"h.k.Z 7 k ^ { *.1.r.s._   K +.] o.W = 3 + W p.<.$.E j s f.h.",
"h.k.C 7 k Y ' 1.r.} 3.B O :.s.e.s.-.X  .9   ;.r.X.E j s f.j.",
"h.j.Z 7 k Y #.q.1 . & O O &.y.1.e.9.= O -   ( p.X.E j s f.j.",
"h.k.Z 7 k Y 1.L   K o.b O { y.1.1.0.-.! E @ W i.@.E j s f.j.",
"h.j.Z 7 k Y 1.L % q.l.] O { y.1.1.1.e.s.e.% U i.X.E j s f.j.",
"h.k.Z 7 k Y 1.L % *.p.W O { y.1.0.1.1.e.*.# Y i.X.E j s f.j.",
"a.k.Z 7 k Y 1.L % *.s.T o { y.1.1.1.7.e.-.# E i.@.E j s f.j.",
"h.k.Z 7 k Y 1.L % *.s.W O { y.1.7.1.1.e.-.# E i.X./ j s f.h.",
"h.k.Z 7 k Y 1.L % *.s.E o } r.1.1.1.1.e.*.# T i.X.E j s f.j.",
"h.j.Z 7 k Y 1.L % *.s.R o &.u.0.0.0.0.y.9.% T i.$.E j s f.j.",
"h.k.Z 6 k Y 1.L % *.s.T   | p.0.e.e.0.u.5.  Y i.X.E j s f.j.",
"h.k.Z 5 k Y 1.L % *.y.8.;   * @ $ > = $ X % 8.t.O.E j s f.j.",
"a.k.Z 7 k Y 1.L % 5.r.y.5.h h N w   8 N i &.i.,.@.E j s f.j.",
"h.k.Z 7 k Y 1.G o q.p.e.s.d.d.l.r.  [ l.p.y.7.<.$.E j s f.j.",
"h.k.C 7 k Y 1.:.# o : - - - ; : X = 5.i.7.7.q.6.$.E j s f.j.",
"a.k.Z 6 j Y { e...0 q w w w y q q O.t.5.5.6.6.-.[ Y h s f.h.",
"h.k.C 5 f H _ ' 5.t.t.w.w.w.w.w.t.4.[ ..X.....' ) I h s f.j.",
"h.k.Z 5 f F U R R R R R R R R R R R R R R R R R I F h s f.j.",
"h.k.b 2 i d h g d d d h d h h j h h h h h h h h d d r 0 f.j.",
"h.j.~ M Q I J J Q Q Q Q J Q Q Z J J Q Q J J J J Q Q Z Q h.h.",
"h.a.j.k.j.j.j.j.j.j.k.j.j.j.j.k.j.j.j.j.k.j.j.j.j.k.j.k.h.a.",
"h.h.h.h.h.h.h.h.h.h.h.h.h.h.h.h.h.h.h.h.h.h.h.h.h.h.h.h.h.a."
};
