/* XPM */
static char *copySegmentSMDisabled_xpm[] = {
/* columns rows colors chars-per-pixel */
"30 30 210 2 ",
"   c #6A6262",
".  c #686565",
"X  c #706A6A",
"o  c #706B6B",
"O  c #706C6C",
"+  c #716D6D",
"@  c #726E6E",
"#  c #797575",
"$  c gray48",
"%  c #7B7B7B",
"&  c #7E7E7E",
"*  c #7E7F7F",
"=  c gray50",
"-  c #7F8181",
";  c #7D8585",
":  c #808181",
">  c #808282",
",  c gray51",
"<  c #868383",
"1  c #838484",
"2  c #848585",
"3  c gray52",
"4  c #898686",
"5  c #838C8C",
"6  c #888888",
"7  c #898989",
"8  c #8C8989",
"9  c gray55",
"0  c #8D8D8D",
"q  c #8E8E8E",
"w  c #8F8E8E",
"e  c #8E8F8F",
"r  c gray56",
"t  c #918C8C",
"y  c #908D8D",
"u  c #918D8D",
"i  c #918E8E",
"p  c #918F8F",
"a  c #8B9494",
"s  c #8B9696",
"d  c #8B9797",
"f  c #8B9898",
"g  c #909090",
"h  c gray57",
"j  c #939393",
"k  c #969393",
"l  c gray58",
"z  c #949595",
"x  c #959595",
"c  c gray59",
"v  c #979797",
"b  c #979999",
"n  c #919D9D",
"m  c #929C9C",
"M  c #919E9E",
"N  c #929E9E",
"B  c #939F9F",
"V  c #989898",
"C  c #989999",
"Z  c gray60",
"A  c #9A9A9A",
"S  c #9B9B9B",
"D  c #9A9C9C",
"F  c gray61",
"G  c #9D9D9D",
"H  c gray62",
"J  c #9F9F9F",
"K  c #95A2A2",
"L  c #96A2A2",
"P  c #A0A0A0",
"I  c gray63",
"U  c #A3A0A0",
"Y  c #A2A2A2",
"T  c gray64",
"R  c #A5A6A6",
"E  c gray65",
"W  c #A7A7A7",
"Q  c #ACA1A1",
"!  c #A0A9A9",
"~  c #A3ABAB",
"^  c #AAAAAA",
"/  c #AAABAB",
"(  c gray67",
")  c #AEAEAE",
"_  c #AFAFAF",
"`  c #AABDBD",
"'  c gray69",
"]  c #B1B1B1",
"[  c #B2B1B1",
"{  c #B2B2B2",
"}  c #B2B3B3",
"|  c gray70",
" . c #B4B4B4",
".. c gray71",
"X. c #B6B6B6",
"o. c #B6B7B7",
"O. c #BEB5B5",
"+. c #B0BCBC",
"@. c #B1BCBC",
"#. c #B1BDBD",
"$. c #B2BEBE",
"%. c gray72",
"&. c #B9B9B9",
"*. c gray73",
"=. c #BABBBB",
"-. c #BCBCBC",
";. c gray",
":. c gray75",
">. c #C4BABA",
",. c #B5C1C1",
"<. c #B1C4C4",
"1. c #C0C0C0",
"2. c #C1C1C1",
"3. c gray76",
"4. c #C3C3C3",
"5. c gray77",
"6. c #C5C5C5",
"7. c #C6C6C6",
"8. c #C7C6C6",
"9. c #C9C4C4",
"0. c #CAC5C5",
"q. c #CBC6C6",
"w. c #CCC7C7",
"e. c #C8C8C8",
"r. c #C8C9C9",
"t. c #CBCBCB",
"y. c #CEC9C9",
"u. c gray80",
"i. c #CDCECE",
"p. c gray81",
"a. c #D2CFCF",
"s. c #D2D2D2",
"d. c gray84",
"f. c #DBD6D6",
"g. c #D8D8D8",
"h. c gray85",
"j. c #DADADA",
"k. c gray86",
"l. c #DCDBDB",
"z. c gainsboro",
"x. c #DCDDDD",
"c. c #DDDDDD",
"v. c gray87",
"b. c #DFDFDF",
"n. c #E1DCDC",
"m. c #E3DEDE",
"M. c #E4DFDF",
"N. c #D9EAEA",
"B. c #D8ECEC",
"V. c #DFF2F2",
"C. c #DCFBFB",
"Z. c #DFFCFC",
"A. c #DFFDFD",
"S. c #DDFFFF",
"D. c #DEFFFF",
"F. c #DFFFFF",
"G. c gray88",
"H. c #E1E1E1",
"J. c #E2E2E2",
"K. c gray89",
"L. c #E3E4E4",
"P. c #E4E4E4",
"I. c #E4E5E5",
"U. c gray90",
"Y. c #E6E5E5",
"T. c #E6E6E6",
"R. c #E7E7E7",
"E. c gray91",
"W. c #E9E9E9",
"Q. c #EAEAEA",
"!. c #ECECEC",
"~. c gray93",
"^. c #EEEFEF",
"/. c #EFEFEF",
"(. c #E1F3F3",
"). c #E2F4F4",
"_. c #E4F4F4",
"`. c #E6FBFB",
"'. c LightCyan",
"]. c #E1FFFF",
"[. c #E2FFFF",
"{. c #E3FFFF",
"}. c #E4FCFC",
"|. c #E7FDFD",
" X c #E4FFFF",
".X c #E5FFFF",
"XX c #E6FFFF",
"oX c #E9FFFF",
"OX c #EAFFFF",
"+X c #EBFFFF",
"@X c #ECFFFF",
"#X c #EDFFFF",
"$X c #EFFFFF",
"%X c gray94",
"&X c #F1F1F1",
"*X c gray95",
"=X c #F3F3F3",
"-X c #F6F2F2",
";X c gray96",
":X c #F5F6F6",
">X c #F6F6F6",
",X c gray97",
"<X c azure",
"1X c #F1FFFF",
"2X c #F2FFFF",
"3X c #F8F9F9",
"4X c #F9F9F9",
"5X c gray98",
"6X c gray99",
"7X c #FDFDFD",
/* pixels */
"'.'.].{.[.[.[.[.[.[.[.[.[.[.[.[.[.[.[.[.[.[.[.[.[.[.{.[.'.'.",
"'.S.@X$X#X#X#X#X#X#X#X#X#X#X#X#X#X#X#X#X#X#X#X#X#X#X<X2XF.D.",
"].$X` ; d s s s s s s s s s s s s s s s s s s s d f 5 n |.XX",
" X}.! >.y.w.w.w.w.w.w.w.q.q.q.q.q.q.q.q.q.w.w.w.0.9.O.4 N.OX",
".XC.,.-X4X,X,X>X>X>X>X:X3X7X6X6X6X6X6X6X,X;X>X>X=X^.a.b B.oX",
" XZ.#.M.T.P.J.J.J.J.G.T.Q.v.v.b.b.v.v.K.~.P.G.H.z.r.U 2 V.oX",
" XZ.@.M.I.H.v.v.c.z.H.b.T 3 0 0 0 9 l 7 X./.H.k.p. .k > (.oX",
" XZ.@.M.P.b.k.h.j.h.E.%.& :.3.;.:.5.x h $ ' /.d.4.( u - (.oX",
" XZ.@.M.P.v.g.c.T.U.;XX.r ~.W.P.R.~.l 3.v.% %.c.1.^ i - (.oX",
" XZ.@.M.P.v.G.h.E A I h V b.z.g.j.J.c 3 _ 6 Z k.4./ i - (.oX",
" XZ.@.M.P.b.U.I , I P r Z G.c.h.h.G.7.S H j J j.4./ i - (.oX",
" XZ.@.M.P.G.H.q | &X=X&.q G.c.h.h.g.H.U.*X .l j.4./ i - (.oX",
" XZ.@.M.P.G.J.l _ U.T.{ r G.c.h.h.h.g.h.U._ c j.4./ i - (.oX",
" XZ.@.M.P.G.J.l ) U.T.{ r G.c.h.h.h.h.h.U._ c j.4./ i - (.oX",
" XZ.@.M.P.G.J.l ) U.T.{ r G.c.h.h.h.h.h.U._ c j.4./ i - (.oX",
" XZ.@.M.P.G.J.l ) U.T.{ r G.c.h.h.h.h.h.U._ c j.4./ i - (.oX",
" XZ.@.M.P.G.J.l ) U.T.{ r G.c.h.h.h.h.h.U._ c j.4./ i - (.oX",
" XZ.@.M.P.G.J.l ) U.T.{ g H.c.h.h.h.h.h.U.' c j.4./ i - (.oX",
" XZ.@.M.P.G.J.l ) P.R.) 0 !.E.P.P.J.K.P.*X| r h.4./ i - (.oX",
" XZ.@.M.P.G.J.l ) P.U.6.= Z J F F ^ T A I , Y c.3.( i - (.oX",
" XZ.@.M.P.G.J.l ) P.h.G.-.v G J P 3 h T A W j.g.2.( i - (.oX",
" XZ.@.M.P.G.J.h ..*XK.P./.*X%X;X5Xg X.,XU.R.b.s.4.( i - (.oX",
" XZ.@.M.L.G.Y.x v e.1.:.:.1.1.4.2.1 =.R.g.h.h.s.2./ p : (.oX",
" XZ.+.m.L.l.h.:.w 0 g r r r r r 6 J i.p.t.u.u.7.%.R y - (.oX",
" XA.+.n.x.8.o.*.X.] { | | | | { ] *...' { [ } _ E D 8 - (.oX",
" XA.$.f.3.R C z V Z Z Z Z Z Z Z Z v l x x x x l g e < * ).oX",
" XXX~ Q t # + o O o o o o o o o o O O O O O O o X @   . _.+X",
"].+X<.m L N n n n n n n n n n n n n n n n n n n M B a K `.XX",
"'.D.OXoX#X<X1X1X1X1X1X1X1X1X1X1X1X1X1X1X1X1X1X1X1X1X2X2X'.D.",
"'.F.]. X{.[.[.[.[.[.[.[.[.[.[.[.[.[.[.[.[.[.[.[.[.[.{.[.'.'."
};
