/* XPM */
static char *cutSegmentSMPressed_xpm[] = {
/* columns rows colors chars-per-pixel */
"30 30 132 2 ",
"   c #000000",
".  c #080200",
"X  c #09090B",
"o  c #161312",
"O  c #191512",
"+  c #25211D",
"@  c #28241F",
"#  c #2B2823",
"$  c #3C362F",
"%  c #3D382F",
"&  c #3F3C35",
"*  c #452C1D",
"=  c #553D2C",
"-  c #433D34",
";  c #464036",
":  c #474239",
">  c #484339",
",  c #5D4C3D",
"<  c #634631",
"1  c #5F5349",
"2  c #5E5B51",
"3  c #6C5745",
"4  c #6D5847",
"5  c #645B4F",
"6  c #6F5A48",
"7  c #615A51",
"8  c #75695F",
"9  c #777163",
"0  c #787365",
"q  c #767E7E",
"w  c #876D5C",
"e  c #86705C",
"r  c #827363",
"t  c #897565",
"y  c #877867",
"u  c #8E7E6C",
"i  c #917F6F",
"p  c #817C73",
"a  c #917F70",
"s  c #8F806D",
"d  c #91806F",
"f  c #948272",
"g  c #9A8775",
"h  c #9A8A76",
"j  c #968F7E",
"k  c #9C8C7A",
"l  c #A5937F",
"z  c #7B8383",
"x  c #818683",
"c  c #858A84",
"v  c #848F8F",
"b  c #84908F",
"n  c #8B908B",
"m  c #979184",
"M  c #9A9581",
"N  c #9E9C87",
"B  c #859190",
"V  c #8C9897",
"C  c #909894",
"Z  c #A89580",
"A  c #A69887",
"S  c #AD9A85",
"D  c #A49B8A",
"F  c #AA9E8B",
"G  c #B19D87",
"H  c #B49F89",
"J  c #A69E91",
"K  c #9AA29F",
"L  c #AEA08D",
"P  c #B3A48F",
"I  c #BDA78F",
"U  c #AFA192",
"Y  c #B5A795",
"T  c #BDA790",
"R  c #BEA992",
"E  c #B7A999",
"W  c #BDAC99",
"Q  c #9BA4A1",
"!  c #AABDBC",
"~  c #C5AF96",
"^  c #CEB59C",
"/  c #D0B99F",
"(  c #C6B4A0",
")  c #CCBDA4",
"_  c #D5BCA2",
"`  c #C2BEB8",
"'  c #DCC1A7",
"]  c #D5C1AD",
"[  c #DDC4AA",
"{  c #DFCAAE",
"}  c #D8C5B0",
"|  c #DFC9B2",
" . c #D6D1B5",
".. c #DFD7B9",
"X. c #E0C7AB",
"o. c #E6CBAE",
"O. c #E5CBB1",
"+. c #EBCDB0",
"@. c #E6D0B4",
"#. c #EED2B5",
"$. c #E2D7BB",
"%. c #EAD3BD",
"&. c #E2DBBE",
"*. c #F2D4B7",
"=. c #F4D6B9",
"-. c #FAD7B9",
";. c #F4D9BD",
":. c #FBDBBD",
">. c #FFE0BF",
",. c #F2DAC1",
"<. c #FBDFC1",
"1. c #ECE1C2",
"2. c #FCE1C4",
"3. c #FFE8C7",
"4. c #FEE6C9",
"5. c #F4E8CF",
"6. c #FEEDCC",
"7. c #FFF0CE",
"8. c #F7F4D5",
"9. c #FFF4D3",
"0. c #FFFAD7",
"q. c #F5F0DD",
"w. c #FFFCDB",
"e. c #DDFFFF",
"r. c #FFFFE4",
"t. c #FFFFEC",
"y. c #E0F4F6",
"u. c #E2F7F9",
"i. c #E2FFFF",
"p. c #EBFFFF",
"a. c #F4FFFF",
"s. c #FDFFFF",
/* pixels */
"i.i.e.i.i.i.i.i.i.i.i.i.i.i.i.i.i.i.i.i.i.i.i.i.i.i.i.i.i.i.",
"e.e.p.s.s.a.a.a.a.s.s.a.a.a.a.s.s.a.a.a.a.s.s.a.a.a.s.a.e.i.",
"i.a.! q v v b b v v v b v v v v b v v v v v v v b B z V p.i.",
"i.a.x * , , , , , , , , , , , , , , , , , , , , , , = 1 y.p.",
"i.a.C 4 r y u d s u u u s u s u s s u d s s u u u y w p y.p.",
"i.p.C 3 u h Z S S S S S S S S S S S S S S S S S l h u p e.p.",
"i.a.V 4 d G ~ ^ ^ ^ ^ ^ ^ ^ ^ ^ ^ ^ ^ / ^ ^ / _ ^ Y f p y.p.",
"i.a.C 6 h I _ o.O.o.#.<.=.o.o.+.o.+.o.o.o.O.#.=.[ W g p y.p.",
"i.a.C 6 h ~ [ #.=.6.9.o.2.9.=.:.:.:.=.9.w.2.>.,.O.W g p y.i.",
"i.a.V 6 g R ' #.6.1.>   + ) 0.:.-.2.r.P 5 o.9.;.| W g p y.p.",
"i.p.C 6 h I ' :.9.% X J &   ..6.2.t.D   o &.9.;.| E g p y.p.",
"i.a.C 4 h R _ 6.+.  F s.5.  l w.t.M   $ 8.7.>.,.O.W g p y.p.",
"i.p.C 6 h R ' :.8.+ # ] 7   &.s.j   & w.0.-.2.;.| W g p y.p.",
"i.a.C 6 h R ' #.8. .o   .   9 m   ; w.9.-.2.2.,.| W g p y.p.",
"e.a.C 6 h R ' =.;.9.7. .q.L     2 r.7.-.:.>.2.,.| W g p y.p.",
"i.a.C 6 h R ' #.-.9.7. .q.L     2 r.7.-.:.2.2.,.| W g p y.u.",
"i.a.C 4 g R ' *.9. .o   .   0 m   - w.9.-.<.<.,.| E g p y.p.",
"i.p.C 6 h R ' :.6.# # ` 2   &.s.j   & w.9.:.2.,.O.W g p e.p.",
"i.a.V 6 h R ' 3.+.  F s.5.  Z w.t.M   % 8.7.<.,.| W g p y.p.",
"i.a.C 4 h R ' -.9.$ X J -   ..6.>.t.N   o 1.9.;.| W g p y.p.",
"e.a.C 6 h R ' #.6.1.-   + ) 0.<.:.<.r.Y 7 X.9.,.| W g p e.p.",
"i.a.C 6 h R ' =.<.9.w.@.4.0.<.<.<.<.:.r.w.6.<.,.| W g p y.p.",
"i.a.V 6 h I o.>.<.<.4.q.6.<.<.<.<.4.<.<.<.4.4.,.} ~ f p y.p.",
"e.a.V 4 f I { ;.,.,.,.,.,.,.,.,.,.,.,.,.,.,.,.%.] T g p y.p.",
"i.a.V 3 d H ) } } } } } } } } } } } } } } } } _ ( U a p y.p.",
"i.a.C 4 i S Y E E E E E E E E E E E E E E E W Y U J f p y.p.",
"i.a.j , t i f d f a f f f f f f f a a a f f a f a a w 8 y.p.",
"i.p.! c Q K K K Q K K Q K K K K Q K K Q K K Q K Q Q C Q u.i.",
"e.e.p.a.p.p.p.p.p.p.p.p.p.p.p.p.p.p.p.p.p.p.p.p.a.p.a.a.e.e.",
"i.i.i.i.i.i.i.i.i.i.i.p.i.i.i.p.i.i.i.p.p.i.i.i.i.i.i.i.i.e."
};
