/* XPM */
static char *cutSegmentSMDisabled_xpm[] = {
/* columns rows colors chars-per-pixel */
"30 30 206 2 ",
"   c #6A6262",
".  c #686565",
"X  c #6C6C6C",
"o  c #6D6D6D",
"O  c #6F6F6F",
"+  c #706A6A",
"@  c #706B6B",
"#  c #706C6C",
"$  c #716D6D",
"%  c #726E6E",
"&  c gray44",
"*  c #767676",
"=  c #777777",
"-  c #797575",
";  c gray47",
":  c #797979",
">  c gray48",
",  c #7B7B7B",
"<  c #7C7C7C",
"1  c gray49",
"2  c #7E7F7F",
"3  c #7F8181",
"4  c #7D8585",
"5  c #808080",
"6  c #808181",
"7  c #808282",
"8  c gray51",
"9  c #868383",
"0  c #848585",
"q  c #898686",
"w  c #838C8C",
"e  c #888888",
"r  c #898989",
"t  c #8C8989",
"y  c gray55",
"u  c #8D8D8D",
"i  c #8E8F8F",
"p  c #918C8C",
"a  c #908D8D",
"s  c #918D8D",
"d  c #918E8E",
"f  c #918F8F",
"g  c #8B9494",
"h  c #8B9696",
"j  c #8B9797",
"k  c #8B9898",
"l  c #909090",
"z  c gray57",
"x  c #929292",
"c  c #939393",
"v  c #969393",
"b  c gray58",
"n  c #959595",
"m  c #979999",
"M  c #919D9D",
"N  c #929C9C",
"B  c #919E9E",
"V  c #929E9E",
"C  c #939F9F",
"Z  c #989999",
"A  c #9A9C9C",
"S  c #9D9D9D",
"D  c gray62",
"F  c #9F9F9F",
"G  c #95A2A2",
"H  c #96A2A2",
"J  c gray63",
"K  c #A3A0A0",
"L  c #A2A2A2",
"P  c gray64",
"I  c #A5A6A6",
"U  c gray65",
"Y  c #ACA1A1",
"T  c #A0A9A9",
"R  c #A3ABAB",
"E  c gray66",
"W  c #A9A9A9",
"Q  c #AAAAAA",
"!  c #AAABAB",
"~  c gray67",
"^  c #ACACAC",
"/  c gray68",
"(  c #AEAEAE",
")  c #AFAFAF",
"_  c #AABDBD",
"`  c #B2B1B1",
"'  c #B2B2B2",
"]  c #B2B3B3",
"[  c #B4B4B4",
"{  c gray71",
"}  c #B6B6B6",
"|  c #B7B7B7",
" . c #BEB5B5",
".. c #B7B8B8",
"X. c #B0BCBC",
"o. c #B1BCBC",
"O. c #B1BDBD",
"+. c #B2BEBE",
"@. c gray72",
"#. c #B9B9B9",
"$. c gray73",
"%. c #BCBCBC",
"&. c gray74",
"*. c gray75",
"=. c #C4BABA",
"-. c #B5C1C1",
";. c #B1C4C4",
":. c #C0C0C0",
">. c #C1C1C1",
",. c gray76",
"<. c #C3C3C3",
"1. c #C5C5C5",
"2. c #C6C6C6",
"3. c #C7C6C6",
"4. c #C9C4C4",
"5. c #CAC5C5",
"6. c #CCC7C7",
"7. c #C8C8C8",
"8. c #C8C9C9",
"9. c #CBCBCB",
"0. c #CEC9C9",
"q. c #CCCBCB",
"w. c gray80",
"e. c #CDCCCC",
"r. c #CCCDCD",
"t. c gray81",
"y. c #D2CFCF",
"u. c #D0D0D0",
"i. c gray82",
"p. c #D2D2D2",
"a. c LightGray",
"s. c gray83",
"d. c #D5D5D5",
"f. c gray84",
"g. c #D7D7D7",
"h. c #DBD6D6",
"j. c #D7D8D8",
"k. c #D8D8D8",
"l. c #D8D9D9",
"z. c gray85",
"x. c #DAD9D9",
"c. c #DADADA",
"v. c gray86",
"b. c gainsboro",
"n. c #DCDDDD",
"m. c #DDDDDD",
"M. c gray87",
"N. c #DEDFDF",
"B. c #DFDFDF",
"V. c #E1DCDC",
"C. c #E3DEDE",
"Z. c #E4DFDF",
"A. c #D9EAEA",
"S. c #D8ECEC",
"D. c #DFF2F2",
"F. c #DCFBFB",
"G. c #DFFCFC",
"H. c #DFFDFD",
"J. c #DDFFFF",
"K. c #DEFFFF",
"L. c #DFFFFF",
"P. c gray88",
"I. c #E1E1E1",
"U. c #E2E2E2",
"Y. c gray89",
"T. c #E3E4E4",
"R. c #E4E4E4",
"E. c #E4E5E5",
"W. c gray90",
"Q. c #E6E6E6",
"!. c #E7E7E7",
"~. c gray91",
"^. c #EAEAEA",
"/. c gray92",
"(. c #ECECEC",
"). c gray93",
"_. c #EEEFEF",
"`. c #E1F3F3",
"'. c #E2F4F4",
"]. c #E4F4F4",
"[. c #E6FBFB",
"{. c LightCyan",
"}. c #E1FFFF",
"|. c #E2FFFF",
" X c #E3FFFF",
".X c #E4FCFC",
"XX c #E7FDFD",
"oX c #E4FFFF",
"OX c #E5FFFF",
"+X c #E6FFFF",
"@X c #E9FFFF",
"#X c #EAFFFF",
"$X c #EBFFFF",
"%X c #ECFFFF",
"&X c #EDFFFF",
"*X c #EFFFFF",
"=X c gray94",
"-X c #F3F3F3",
";X c #F6F2F2",
":X c #F6F6F6",
">X c gray97",
",X c azure",
"<X c #F1FFFF",
"1X c #F2FFFF",
"2X c #F9F9F9",
"3X c #FEFEFE",
/* pixels */
"{.{.}. X|.|.|.|.|.|.|.|.|.|.|.|.|.|.|.|.|.|.|.|.|.|. X|.{.{.",
"{.J.%X*X&X&X&X&X&X&X&X&X&X&X&X&X&X&X&X&X&X&X&X&X&X&X,X1XL.K.",
"}.*X_ 4 j h h h h h h h h h h h h h h h h h h h j k w M XX+X",
"oX.XT =.0.6.6.6.6.6.6.6.6.6.6.6.6.6.6.6.6.6.6.6.5.4. .q A.#X",
"OXF.-.;X2X>X>X:X:X:X:X:X:X:X:X:X:X:X:X:X:X:X:X:X-X_.y.m S.@X",
"oXG.O.Z.Q.R.U.U.U.U.U.U.U.U.U.U.U.U.U.U.U.U.U.I.b.8.K 0 D.@X",
"oXG.o.Z.E.I.M.M.m.b.b.M.b.b.m.m.m.m.m.m.b.b.m.m.t.[ v 7 `.@X",
"oXG.o.Z.R.B.v.c.g.P.~.!.W.c.k.z.z.z.z.z.U.B.z.d.<.~ s 3 `.@X",
"oXG.o.Z.R.M.c.g.I.v.^ S >.W.v.k.z.k.c.R.p.i.v.p.>.Q d 3 `.@X",
"oXG.o.Z.R.B.c.B.v.z , u ; [ W.z.g.v./.&.= D W.d.,.~ d 3 `.@X",
"oXG.o.Z.R.M.c.~.Q , g.-X( * u.P.v.(.$.o y f.P.p.,.~ d 3 `.@X",
"oXG.o.Z.R.M.v.~.D e =X3X7.> w.W.(.| & l I.Q.k.p.,.~ d 3 `.@X",
"oXG.o.Z.R.M.c.W.2.> J :.e e P.-X{ & c U.R.g.c.p.,.~ d 3 `.@X",
"oXG.o.Z.R.B.v.k.Q.*.5 < x 8 E #.& c Y.W.f.z.c.p.,.~ d 3 `.@X",
"oXG.o.Z.R.B.v.k.z.R.B.v.^.$.5 , P !.U.g.z.z.c.p.,.~ d 3 `.@X",
"oXG.o.Z.R.B.v.k.z.R.B.v.^.$.5 , L !.U.g.z.z.c.p.,.~ d 3 `.@X",
"oXG.o.Z.R.B.v.z.W.*.5 1 c 8 W #.& c Y.W.f.z.c.p.,.~ d 3 `.@X",
"oXG.o.Z.R.M.c.W.1.: J :.e r P.-X[ O c U.R.g.c.p.,.~ d 3 `.@X",
"oXG.o.Z.R.M.v.~.D e =X3X7.> w.R.(.} & l I.Q.g.p.,.~ d 3 `.@X",
"oXG.o.Z.R.M.c.~.Q < g.-X( = u.P.v.).$.X u f.P.p.,.~ d 3 `.@X",
"oXG.o.Z.R.B.z.B.v.z < u ; [ R.z.g.v.^.%.* F Q.d.,.~ d 3 `.@X",
"oXG.o.Z.R.B.b.k.U.m./ D ,.Q.b.z.c.z.v.W.a.a.b.s.<.~ d 3 `.@X",
"oXG.o.Z.R.B.m.z.g.B.~.!.W.x.j.z.z.z.k.l.U.N.k.i.>.! f 6 `.@X",
"oXG.X.C.T.b.p.w.w.9.9.e.9.q.w.w.w.w.w.w.9.9.r.2.@.I a 3 `.@X",
"oXH.X.V.n.3...' ` ` ` ` ` ` ` ` ` ` ` ` ` ` ] ) U A t 3 `.@X",
"oXH.+.h.,.I Z n n n n n n n n n n n n n n n n b l i 9 2 '.@X",
"oX+XR Y p - $ @ # # # # # # # # # # # # # # # @ + %   . ].$X",
"}.$X;.N H V M M M M M M M M M M M M M M M M M M B C g G [.+X",
"{.K.#X@X&X,X<X<X<X<X<X<X<X<X<X<X<X<X<X<X<X<X<X<X<X<X1X1X{.K.",
"{.L.}.oX X|.|.|.|.|.|.|.|.|.|.|.|.|.|.|.|.|.|.|.|.|. X|.{.{."
};
