/* XPM */
static char *cutSegmentSMMouseOver_xpm[] = {
/* columns rows colors chars-per-pixel */
"30 30 155 2 ",
"   c #010000",
".  c #0F100E",
"X  c #10110F",
"o  c #161515",
"O  c #211C17",
"+  c #241C18",
"@  c #2E2922",
"#  c #332A22",
"$  c #473B32",
"%  c #4A3F35",
"&  c #4B4438",
"*  c #514C3E",
"=  c #645A4A",
"-  c #6B5E4F",
";  c #715B53",
":  c #6C6252",
">  c #6F6F5A",
",  c #746756",
"<  c #766856",
"1  c #76735E",
"2  c #7B735F",
"3  c #577E60",
"4  c #7B7460",
"5  c #7B7962",
"6  c #8D4B4B",
"7  c #81584F",
"8  c #875B53",
"9  c #8C5F56",
"0  c #8B6657",
"q  c #8F6158",
"w  c #916459",
"e  c #97695E",
"r  c #87765F",
"t  c #827965",
"y  c #827A68",
"u  c #887C68",
"i  c #997261",
"p  c #947F67",
"a  c #A47768",
"s  c #578C66",
"d  c #5C8F64",
"f  c #598362",
"g  c #5D9064",
"h  c #549266",
"j  c #608862",
"k  c #629368",
"l  c #67986B",
"z  c #72936C",
"x  c #7D9C74",
"c  c #54AD70",
"v  c #5DB474",
"b  c #78A07E",
"n  c #7FAD7B",
"m  c #7FB07E",
"M  c #39E377",
"N  c #3BE57B",
"B  c #3DEA7B",
"V  c #87846B",
"C  c #92856E",
"Z  c #9C866D",
"A  c #968B73",
"S  c #968D78",
"D  c #9D8173",
"F  c #9C9578",
"G  c #AC816E",
"H  c #AF8370",
"J  c #A28B71",
"K  c #B98676",
"L  c #B78A77",
"P  c #AB9277",
"I  c #AD9579",
"U  c #AA997F",
"Y  c #B69D7F",
"T  c #7CB182",
"R  c #3EEA80",
"E  c #3EF083",
"W  c #48E782",
"Q  c #4AE984",
"!  c #45E581",
"~  c #57E585",
"^  c #58E786",
"/  c #55EC87",
"(  c #59E987",
")  c #57EE89",
"_  c #5BE988",
"`  c #4BF385",
"'  c #4AF689",
"]  c #4FF98C",
"[  c #41F285",
"{  c #52F187",
"}  c #56F289",
"|  c #52F98C",
" . c #BA9F82",
".. c #B4A486",
"X. c #BBA183",
"o. c #B7A789",
"O. c #B8A789",
"+. c #CC9C86",
"@. c #EC938B",
"#. c #C2A687",
"$. c #C2A688",
"%. c #C5A989",
"&. c #CBAE8E",
"*. c #C6B393",
"=. c #CFB291",
"-. c #D6B796",
";. c #DABA97",
":. c #D2BD9B",
">. c #DEBD9B",
",. c #F7A99B",
"<. c #E0BE9C",
"1. c #F4BAA4",
"2. c #DBC19E",
"3. c #E2C19D",
"4. c #D7C7A4",
"5. c #D6CCA7",
"6. c #D6CDA8",
"7. c #E7C5A1",
"8. c #EAC7A3",
"9. c #EBC8A3",
"0. c #F5C1A1",
"q. c #F2CCA6",
"w. c #F1CDA8",
"e. c #F9CFA9",
"r. c #F6D1AB",
"t. c #FAD4AD",
"y. c #FFD8AF",
"u. c #EEC0B3",
"i. c #EEC5BE",
"p. c #FFCFB1",
"a. c #EDDAB3",
"s. c #FAD6B1",
"d. c #F1D8B0",
"f. c #FCD9B4",
"g. c #FDDDBC",
"h. c #EEE4BB",
"j. c #FDE4BB",
"k. c #FFE9BD",
"l. c #F4BEC4",
"z. c #F0C8C1",
"x. c #FFDBC6",
"c. c #FFDECB",
"v. c #FFE2C3",
"b. c #FEEBC1",
"n. c #FFEDCC",
"m. c #FFF3C6",
"M. c #FFF5C9",
"N. c #FFFBCE",
"B. c #FFF0D4",
"V. c #FFFED4",
"C. c #FFF4D8",
"Z. c #FFFFDB",
"A. c #FFF2E1",
"S. c #FFFFE4",
"D. c #FFFFFB",
/* pixels */
"~ ~ ~ ( ( ~ ( ~ ( ~ ~ ( ~ ( ~ ( ~ ~ ~ ~ ( ~ ~ ( ( ~ ( ( ~ ~ ",
"~ ~ } ` ` [ ` ` ` ` ` ` ` ` ` ` ` [ ` ` ` ` ` ` ` ` ` | ~ ~ ",
"( } c 3 s s s s s s s s s s s s s s s h s s s s s h f h ( ( ",
"( B b l.z.i.i.i.i.i.i.i.i.i.i.i.i.i.i.i.i.i.i.i.u.1.,.D N } ",
"( M T A.C.C.B.B.B.B.B.B.B.B.B.B.B.B.B.B.B.B.B.M.b.s.0.F ! ) ",
"_ N T c.v.x.x.g.g.g.x.g.g.x.g.g.g.g.x.g.x.g.g.s.r.;.+.V ! ) ",
"_ N T c.v.g.g.g.s.s.f.g.f.s.f.f.g.f.f.f.s.s.s.y.7.&.L 5 ! ) ",
"_ N T x.j.g.s.s.d.v.V.V.M.f.d.f.s.s.s.s.m.v.t.q.>.#.L 5 Q ) ",
"( N T x.g.f.s.t.b.d., $ U m.f.t.y.r.y.m.2.2.t.9.-.X.H 5 Q ) ",
"_ N T x.g.f.s.j.a.@   o   1 m.t.t.s.V.A   $ m.q.-. .H 5 Q ) ",
"_ N T x.g.f.s.N.-   4.S.:   :.k.s.Z.u   o 6.j.9.-.X.H 5 W ) ",
"_ N T x.g.f.f.N.$ . Z.D.O.  *.M.V.t   # h.M.q.9.-.X.H 5 Q ) ",
"_ N T x.g.f.s.M...  & S     j.S.4   # h.m.e.r.8.-.X.H 5 W ) ",
"_ N T x.g.f.s.t.M.A     +   = y   # b.M.e.s.r.8.-.X.H 5 Q ) ",
"( N T x.g.f.s.t.s.m.j.a.V.C     * M.b.e.s.t.r.8.-.X.H 5 Q ) ",
"_ N T x.g.f.s.t.t.m.j.a.V.C     * M.b.r.t.t.r.8.-.X.H 5 W ) ",
"_ N T x.g.f.s.s.m.A     +   = y   # k.M.r.t.r.8.-.X.H 5 W } ",
"_ N T x.g.f.s.M...  & S     j.S.4   # h.m.e.r.8.-.X.H 5 Q ) ",
"_ N T x.g.f.f.N.% X Z.D.O.  *.m.Z.t   # h.M.q.9.-.X.H 5 Q ) ",
"_ N T x.g.f.s.N.-   4.Z.,   :.k.s.Z.u   + 6.j.7.-.X.H 5 Q ) ",
"_ N T x.g.f.s.j.a.@   o   1 M.t.r.f.V.C   $ M.q.-.X.H 5 Q ) ",
"_ M T x.g.f.t.t.k.d.< $ U M.f.r.t.r.y.m.2.2.t.7.-.X.H 5 Q ) ",
"_ N T x.g.s.t.r.q.y.m.M.k.r.q.q.r.q.q.q.j.f.9.3.=.Y G 5 Q ) ",
"_ N m g.y.q.7.3.<.>.<.3.>.<.<.>.>.3.<.<.<.>.;.-.$.I a 4 Q ) ",
"( B m s.3.;.=.&.$.%.%.%.%.%.%.%.%.%.%.%.%.%.#.Y I J e 1 Q } ",
"( ! F 1.&.Y P J J J J J J J J J J J J J J J J Z p r 0 > / } ",
"/ E b @.K a e w q w q q q q q q q q q q w 9 q 9 8 7 6 ; Q } ",
"( ` v l l k g g g g j d d g g g g g g g d g g g g g d g ) / ",
"~ ~ { [ ` ] ] ] ] ] ] | ] ] ] ] ] ] ] ] ] ] ] ] ] | ] | ~ ~ ",
"~ ~ ~ _ ( ~ ( ~ ( ~ ( ~ ( ~ ( ~ ( ~ ( ~ ( ~ ( ~ ~ ( ~ ( ~ ~ "
};
