/* XPM */
static char *endSegmentSMPressed_xpm[] = {
/* columns rows colors chars-per-pixel */
"30 30 126 2 ",
"   c #000101",
".  c #040609",
"X  c #07080A",
"o  c #0B0A0B",
"O  c #0E0F10",
"+  c #121111",
"@  c #1A1716",
"#  c #2F2B25",
"$  c #2F2D28",
"%  c #38312B",
"&  c #3F3A34",
"*  c #452C1D",
"=  c #553D2C",
"-  c #413D35",
";  c #5D4C3D",
":  c #634631",
">  c #514D43",
",  c #5E5449",
"<  c #6C5745",
"1  c #6D5847",
"2  c #6F5A48",
"3  c #68635A",
"4  c #6C695C",
"5  c #746B5F",
"6  c #767E7E",
"7  c #876D5C",
"8  c #86705C",
"9  c #827363",
"0  c #897565",
"q  c #877867",
"w  c #8E7E6C",
"e  c #917F6F",
"r  c #817C73",
"t  c #897D70",
"y  c #917F70",
"u  c #8F806D",
"i  c #91806F",
"p  c #8E8173",
"a  c #948272",
"s  c #9A8775",
"d  c #9A8A76",
"f  c #948C79",
"g  c #9C8C7A",
"h  c #9A917E",
"j  c #A5927E",
"k  c #7B8383",
"l  c #818683",
"z  c #858A84",
"x  c #848F8F",
"c  c #84908F",
"v  c #8B908B",
"b  c #9F9580",
"n  c #859190",
"m  c #8C9897",
"M  c #909894",
"N  c #A49786",
"B  c #A99682",
"V  c #A69887",
"C  c #AD9A85",
"Z  c #A6988A",
"A  c #B19D87",
"S  c #B49F89",
"D  c #9AA29F",
"F  c #AFA08F",
"G  c #B3A28F",
"H  c #BBA58E",
"J  c #AFA192",
"K  c #ABA993",
"L  c #AFAA9B",
"P  c #B5A797",
"I  c #BDA790",
"U  c #BEA991",
"Y  c #B7A999",
"T  c #BCAC99",
"R  c #B9B19A",
"E  c #9BA4A1",
"W  c #AABDBC",
"Q  c #C4AD94",
"!  c #C6B097",
"~  c #C7B19A",
"^  c #CDB59C",
"/  c #D1B79D",
"(  c #C6B4A0",
")  c #CBB9A3",
"_  c #D6BDA3",
"`  c #DBC2A7",
"'  c #D4C1AC",
"]  c #DEC5AA",
"[  c #DAC9AE",
"{  c #D7C5B0",
"}  c #D9C5B0",
"|  c #DFC9B2",
" . c #D6D1B7",
".. c #E6CCAF",
"X. c #E4CDB2",
"o. c #E4D3B6",
"O. c #EDD2B5",
"+. c #EBD5BE",
"@. c #E7D8BE",
"#. c #F0D5B7",
"$. c #F0D7BF",
"%. c #F5DABC",
"&. c #FBDDBE",
"*. c #FFE1BF",
"=. c #F3DAC1",
"-. c #FBDFC0",
";. c #FCE1C4",
":. c #FDE4C8",
">. c #F1ECCE",
",. c #FCEBCE",
"<. c #F2F0CF",
"1. c #FFF1CF",
"2. c #FFEAD0",
"3. c #F6F0D1",
"4. c #FFF4D3",
"5. c #FFFBD7",
"6. c #FFFCDB",
"7. c #DDFFFF",
"8. c #FFFEE3",
"9. c #FFFFEC",
"0. c #E0F4F6",
"q. c #E2F7F9",
"w. c #E2FFFF",
"e. c #EBFFFF",
"r. c #F4FFFF",
"t. c #FAFFFF",
/* pixels */
"w.w.7.w.7.w.w.7.w.w.7.w.7.7.w.w.w.w.w.w.w.w.w.w.w.w.w.7.w.7.",
"7.7.r.t.t.t.t.t.r.t.t.t.t.t.t.t.r.r.t.t.r.t.r.t.t.r.t.t.7.w.",
"w.e.W 6 c x x x x x x c x x x x c x x v x x x x c c k m e.w.",
"w.t.k * ; ; ; ; ; ; ; ; ; ; ; ; ; ; ; ; ; ; ; ; ; ; = , q.e.",
"w.r.M 1 9 q w w w i w i u w u w i e w w w w w w w q 7 r 0.e.",
"w.r.M < w d B C C C C C C C C C C C G Q ! H B C j d e r 0.e.",
"w.r.M 1 a A ! ^ ^ ^ / ^ ^ ^ ^ ^ ! / ` Q H _ ] / ~ G s r 0.e.",
"w.e.M 2 d H _ ................X.O.&., . . % %.;.[ T s r 0.e.",
"7.r.M 2 d Q ] #.%.&.%.%.%.%.%.%.,.X.o   X   ( 5.| T s r 0.e.",
"w.r.M 2 d U ` #.&.&.&.-.;.&.&.&.2.X.+ . +   ~ 5.} Q s r 0.q.",
"w.r.M 2 d U ` #.&.-.&.&.&.&.&.&.4.6.@       [ 5.X.T s r 0.e.",
"w.e.m 2 d U ` #.&.&.&.-.&.&.&.:.4.L N 3 , b 4.=.X.T a r 7.e.",
"w.r.m 1 d U ` #.&.&.&.&.&.&.&.9.4   @.9.6.6.-.=.} T s r 0.e.",
"w.r.M 2 d U ` #.&.&.&.&.&.&.9.h   f 6.*.-.-.-.=.X.Y s r 0.e.",
"7.r.M 2 d U ] #.&.&.&.&.&.8.R   5 9.-.&.-.-.-.=.X.T s r 0.e.",
"w.r.M 2 d U ` O.&.&.&.&.8. .  > 9.;.&.-.-.-.-.=.} T s r 0.e.",
"w.r.M 2 d U ` #.&.&.&.4.>.  # 6.1.&.&.-.&.&.;.%.| T s r 7.q.",
"w.e.M 1 d U ` O.4.6.8.3.o + >.4.%.&.&.-.-.;.;.=.X.T s r 0.e.",
"w.r.M 1 d U ` ;.[ j K ) - ' 6.%.&.&.&.&.&.*.;.=.| T s r 0.e.",
"w.r.M 1 d U #.X.+     & 8.5.&.&.&.&.&.-.&.;.;.=.| T s r 0.e.",
"w.r.M 2 d U *.U   o . o +.4.-.-.-.-.-.-.&.&.;.%.| T s r 0.e.",
"w.r.M 2 d H *.Q   + . o X.2.-.-.-.-.-.-.;.;.:.=.X.T s r 0.e.",
"w.e.M 1 d U &.o.X     $ 2.2.-.:.-.:.-.:.:.:.:.=.| T a r 0.e.",
"w.r.M 1 a U ` ,.) t p | ,.$.=.=.=.=.=.=.=.=.=.+.' I s r 7.e.",
"w.r.m < i G ^ ' =.2.2.=._ { { { { { { { } } } _ ( J a r 0.e.",
"w.r.M 1 t C P T Y Y P P Y T Y Y Y Y Y Y Y Y T P J Z a r 0.e.",
"w.t.z : 0 y i a a y a a a a a a a y y a a a y a y y 7 5 0.e.",
"w.e.W v E E D D E D E E D D D D E D D E D D E D E E M E q.w.",
"7.7.e.r.e.e.r.e.e.e.e.e.e.e.e.e.e.e.r.e.e.e.r.e.e.e.r.r.7.7.",
"7.w.w.w.w.w.w.w.w.w.w.w.w.w.w.e.w.w.w.w.w.w.w.w.w.w.w.w.7.w."
};
