/* XPM */
static char *endSegmentSMMouseOver_xpm[] = {
/* columns rows colors chars-per-pixel */
"30 30 160 2 ",
"   c #000000",
".  c #000408",
"X  c #0B0908",
"o  c #100F10",
"O  c #151515",
"+  c #191716",
"@  c #1B1B1A",
"#  c #1C1A16",
"$  c #241E1A",
"%  c #2C2724",
"&  c #37322A",
"*  c #3C352D",
"=  c #443D33",
"-  c #4B4035",
";  c #4D483D",
":  c #53473C",
">  c #514B3E",
",  c #584D41",
"<  c #5D594B",
"1  c #615747",
"2  c #635B4C",
"3  c #6B5C4D",
"4  c #715B53",
"5  c #6F6F5A",
"6  c #786856",
"7  c #736D5B",
"8  c #75755E",
"9  c #79735E",
"0  c #577E60",
"q  c #7B7962",
"w  c #8D4B4B",
"e  c #81584F",
"r  c #875B53",
"t  c #8C5F56",
"y  c #8B6657",
"u  c #8F6158",
"i  c #916459",
"p  c #97695E",
"a  c #87765F",
"s  c #827763",
"d  c #897C66",
"f  c #997261",
"g  c #947F67",
"h  c #A47768",
"j  c #578C66",
"k  c #5C8F64",
"l  c #598362",
"z  c #5D9064",
"x  c #549266",
"c  c #608862",
"v  c #629368",
"b  c #67986B",
"n  c #72936C",
"m  c #7D9C74",
"M  c #54AD70",
"N  c #5DB474",
"B  c #78A07E",
"V  c #7FAD7B",
"C  c #7FB07E",
"Z  c #39E377",
"A  c #3BE57B",
"S  c #3DEA7B",
"D  c #87846B",
"F  c #9C866D",
"G  c #978971",
"H  c #9D8874",
"J  c #9C9578",
"K  c #AC816E",
"L  c #AF8370",
"P  c #A28B71",
"I  c #B98676",
"U  c #B78A77",
"Y  c #AB9277",
"T  c #AD9579",
"R  c #A5947A",
"E  c #B69D7F",
"W  c #7CB182",
"Q  c #3EEA80",
"!  c #3EF083",
"~  c #45E581",
"^  c #48E782",
"/  c #4AE984",
"(  c #57E585",
")  c #58E786",
"_  c #55EC87",
"`  c #59E987",
"'  c #57EE89",
"]  c #5BE988",
"[  c #41F285",
"{  c #4BF385",
"}  c #4AF689",
"|  c #4FF98C",
" . c #52F187",
".. c #56F289",
"X. c #52F98C",
"o. c #BA9F82",
"O. c #B3A387",
"+. c #BBA183",
"@. c #B5A689",
"#. c #BCA98B",
"$. c #B7B394",
"%. c #CC9C86",
"&. c #EC938B",
"*. c #C3A687",
"=. c #C2A688",
"-. c #C5A989",
";. c #CAAC8D",
":. c #CFB290",
">. c #CEB999",
",. c #C4B292",
"<. c #D5B695",
"1. c #D8B796",
"2. c #D7B897",
"3. c #DABA97",
"4. c #D3BF9D",
"5. c #DDBD9A",
"6. c #F7A99B",
"7. c #E0BE9C",
"8. c #F4BAA4",
"9. c #E5C29E",
"0. c #C5C3A5",
"q. c #D1C7A3",
"w. c #E6C4A0",
"e. c #EAC7A3",
"r. c #EECCA6",
"t. c #E2CBAB",
"y. c #F5C1A1",
"u. c #F1CEA7",
"i. c #F2CDA8",
"p. c #F9CFA9",
"a. c #F6D2AB",
"s. c #FAD5AE",
"d. c #FFD8AF",
"f. c #EEC0B3",
"g. c #EEC5BE",
"h. c #FFCFB1",
"j. c #EBDFB7",
"k. c #FBD7B2",
"l. c #FBDAB5",
"z. c #FDDDBC",
"x. c #ECE2B9",
"c. c #FFE4BA",
"v. c #FFEABF",
"b. c #F4BEC4",
"n. c #F0C8C1",
"m. c #FFDBC6",
"M. c #FFDECB",
"N. c #FFE3C3",
"B. c #FFEDC2",
"V. c #FFECCA",
"C. c #FFF2C6",
"Z. c #FFF5C8",
"A. c #FFFACD",
"S. c #FFEFD1",
"D. c #FFF1D4",
"F. c #FFFFD3",
"G. c #FFF4D8",
"H. c #FFFDDA",
"J. c #FFF2E1",
"K. c #FFFFE1",
/* pixels */
"( ( ( ` ( ( ` ( ` ( ` ( ` ( ( ` ( ( ( ( ( ` ( ( ` ` ` ( ( ( ",
"( ( ..{ { [ { { { { { { { { { { { { } { { { { { { { } X.( ( ",
"` ..M 0 j j j x j j j j j j j j j j j j j j j j j j l x ` ` ",
"` S B b.n.g.g.g.g.g.g.g.g.g.g.g.g.g.g.n.g.g.g.g.8.8.6.H ~ ..",
"` Z W J.G.G.D.D.D.S.S.S.D.D.D.D.S.S.S.D.D.D.D.V.V.l.y.J ~ _ ",
"] A W M.N.m.m.z.m.z.m.z.z.m.z.z.z.z.V.H.G.F.V.k.a.4.%.D ~ _ ",
"] A W M.N.z.z.z.k.z.j.z.l.z.k.l.l.N.t.2 ; < 4.c.9.;.U q ^ ' ",
"] A W m.z.z.k.k.k.k.k.k.k.k.k.k.l.A.2       * c.7.*.U q ^ ..",
"` A W m.z.l.k.k.a.k.s.s.s.s.s.s.l.C.>   @   & s.5.+.L q ^ ' ",
"] A W m.z.l.k.a.k.a.s.s.s.s.s.s.s.Z.:   O   % l.5.o.L q / ' ",
"] A W m.z.l.k.k.k.s.s.s.s.s.l.a.l.H.R       6 l.2.+.L q / ' ",
"] A W m.z.l.k.s.a.s.s.s.s.s.a.c.A.3 G 0.Y #.c.u.<.+.L q ^ ' ",
"] A W m.z.l.l.s.s.s.s.s.s.p.d.F.7   H H.C.C.k.w.<.+.L q / ' ",
"] A W m.z.l.k.k.s.s.s.s.s.s.F.G   s F.s.s.s.i.e.2.o.L q / ' ",
"` A W m.c.l.k.s.s.s.s.s.a.F.@.  1 F.l.s.s.s.a.e.<.+.L q ^ ' ",
"] A W m.z.l.k.d.s.s.s.a.A.q.  = F.c.a.s.s.s.a.e.<.+.L q / ' ",
"] A W m.z.l.k.s.a.s.p.B.x.  $ C.v.p.s.s.s.s.a.r.3.+.L q / ' ",
"] A W m.z.z.k.s.B.Z.F.x.X X j.C.p.s.s.s.s.s.a.r.<.+.L q / ' ",
"] A W m.z.l.k.v.<.Y $.>.& ,.A.p.s.s.s.s.s.s.a.w.<.+.K q / ' ",
"] A W m.z.k.Z.o.      > F.B.a.s.s.s.s.s.s.a.a.r.<.+.L q / ' ",
"( A W m.z.k.F.7   O   O a.c.s.s.s.s.s.s.s.s.a.r.<.+.L q / ' ",
"] A W m.z.k.F.9   @ . + r.c.a.s.s.s.s.s.s.s.a.9.<.+.L q / ' ",
"] A W m.z.k.C.d       + a.l.u.u.u.u.u.u.u.u.r.9.:.E K q / ' ",
"] A W z.s.r.i.7.3 - : T a.9.7.7.9.5.7.7.5.5.3.<.*.T h q / ' ",
"] A O.j.9.3.;.<.9.9.w.5.*.*.-.-.*.-.-.-.-.-.*.E T F f 8 / ' ",
"] S V 7.;.E Y P P P P P P P P P P P P P P P P F g a y 7 _ ..",
"` ! m &.I h p i u u i u u u u u u u u u u u u t r e w 4 / ..",
"( / N n b v v z k z z z z z z k z z z z k z z k k k k z _ ' ",
"( ) ..[ { } | | | X.| | | | | | | | | | | | | | | X.| X.( ( ",
"( ( ( ] ] ( ( ` ` ( ` ( ` ( ` ( ` ( ` ( ( ( ` ` ( ` ( ` ( ( "
};
