/* XPM */
static char *endSegmentSMNormal_xpm[]  = {
/* columns rows colors chars-per-pixel */
"30 30 148 2 ",
"   c #000000",
".  c #000408",
"X  c #0B0908",
"o  c #100F10",
"O  c #151515",
"+  c #191716",
"@  c #1C1A16",
"#  c #1B1B1A",
"$  c #241E1A",
"%  c #2C2724",
"&  c #37322A",
"*  c #3C352D",
"=  c #443D33",
"-  c #4B4035",
";  c #4D483D",
":  c #53473C",
">  c #514B3E",
",  c #644328",
"<  c #6D543D",
"1  c #70573F",
"2  c #584D41",
"3  c #5D594B",
"4  c #615747",
"5  c #685749",
"6  c #635B4C",
"7  c #6B5C4D",
"8  c #755B42",
"9  c #795E44",
"0  c #7B634A",
"q  c #786856",
"w  c #736D5B",
"e  c #79735E",
"r  c #7D7265",
"t  c #81654B",
"y  c #8B6F54",
"u  c #95785B",
"i  c #827763",
"p  c #897661",
"a  c #897C66",
"s  c #827768",
"d  c #857A6B",
"f  c #8A7D6E",
"g  c #9C7E60",
"h  c #947F69",
"j  c #9F8163",
"k  c #9D866E",
"l  c #928474",
"z  c #978971",
"x  c #9C8E75",
"c  c #A28264",
"v  c #AD8C6D",
"b  c #BB8960",
"n  c #A38B71",
"m  c #AB9277",
"M  c #A5947A",
"N  c #AD9479",
"B  c #B79D7F",
"V  c #BC9978",
"C  c #D3A178",
"Z  c #7E8583",
"A  c #858B89",
"S  c #8C9089",
"D  c #8C9695",
"F  c #8E9896",
"G  c #939A94",
"H  c #9A9A90",
"J  c #919C9B",
"K  c #A79682",
"L  c #B79D81",
"P  c #BA9F82",
"I  c #97A09C",
"U  c #9DA19B",
"Y  c #B3A387",
"T  c #BCA184",
"R  c #B5A689",
"E  c #BCA98B",
"W  c #A5A398",
"Q  c #B7B394",
"!  c #A2A8A1",
"~  c #B4B5AB",
"^  c #B5BAAF",
"/  c #AABCBC",
"(  c #B4BAB1",
")  c #C2A687",
"_  c #C2A688",
"`  c #C5A989",
"'  c #CBAD8D",
"]  c #C4B292",
"[  c #CFB290",
"{  c #CDB59B",
"}  c #CEB999",
"|  c #D5B695",
" . c #D8B796",
".. c #D7B897",
"X. c #DCB994",
"o. c #D5BD9E",
"O. c #DDBC9A",
"+. c #E1B48C",
"@. c #E8BE93",
"#. c #E0BE9C",
"$. c #D8BFA6",
"%. c #B8C0B7",
"&. c #E5C29E",
"*. c #F4CB9D",
"=. c #C5C3A5",
"-. c #D1C7A3",
";. c #D8C1AA",
":. c #E6C4A0",
">. c #EAC7A3",
",. c #EECCA6",
"<. c #E2CBAB",
"1. c #F1CEA7",
"2. c #F2CDA8",
"3. c #F9CFA9",
"4. c #F6D2AB",
"5. c #FAD5AE",
"6. c #EBDFB7",
"7. c #F5D7B3",
"8. c #FBD7B2",
"9. c #F5D8B5",
"0. c #FCDAB5",
"q. c #F5DABA",
"w. c #FDDDBC",
"e. c #ECE2B9",
"r. c #FFE4BA",
"t. c #FFEABF",
"y. c #B3C3C1",
"u. c #FBDEC2",
"i. c #FFE3C4",
"p. c #FFEDC2",
"a. c #FFEDCB",
"s. c #FFF2C6",
"d. c #FFF5C8",
"f. c #FFFACD",
"g. c #FFEFD2",
"h. c #FFF1D4",
"j. c #FFFFD3",
"k. c #FFF4D9",
"l. c #FFFDDA",
"z. c #D6EEF3",
"x. c #DCF3F7",
"c. c #DFF5F8",
"v. c #DCFEFF",
"b. c #FFFFE1",
"n. c #E3F6FA",
"m. c #E3FFFF",
"M. c #EBFFFF",
"N. c #F0FFFF",
/* pixels */
"m.m.m.m.m.m.m.m.m.m.m.m.m.m.m.m.m.m.m.m.m.m.m.m.m.m.m.m.m.v.",
"v.v.M.M.M.M.M.M.M.M.N.M.M.M.M.M.M.M.M.M.M.M.M.M.M.N.N.N.m.v.",
"m.M./ Z F D D D D D D D D D F D D D D D D D D D D D A J M.m.",
"m.m.! { ;.;.;.;.;.;.;.;.;.$.;.;.;.$.;.;.;.;.;.$.$.X.C h z.M.",
"m.v.( g.k.k.h.h.g.g.g.g.h.h.h.h.h.g.g.h.h.h.h.a.t.0.@.K z.M.",
"m.v.( q.i.u.u.u.u.w.u.w.w.w.u.w.w.w.a.l.k.j.a.5.4.X.V l x.M.",
"m.v.( 9.u.w.w.0.0.0.w.0.0.0.0.0.9.i.<.6 ; 3 o.t.&.' v f x.m.",
"M.v.( 9.u.w.8.8.9.9.8.9.9.8.8.9.0.f.6       * r.#.) c f n.M.",
"m.v.( 7.w.0.8.8.8.5.5.5.5.5.5.5.0.s.>   #   & 5.O.T j d c.M.",
"m.v.( 7.w.7.0.5.5.5.5.5.5.5.5.5.5.d.:   O   % 8.O.P j d c.m.",
"M.v.( 7.w.0.8.5.5.5.5.8.5.5.8.5.0.l.M       q r. .T j d c.M.",
"m.v.( 9.w.0.8.5.5.5.5.5.5.5.5.0.f.7 z =.m E 0.2.| T j d c.M.",
"m.v.( 7.w.0.8.5.5.5.5.5.5.5.5.j.w   x l.s.s.8.:.| T j d c.M.",
"m.v.( 7.w.0.0.5.5.5.5.5.5.5.j.z   i j.5.4.5.4.>...T j d n.m.",
"m.v.( 7.w.0.0.5.5.8.5.5.4.j.R   4 j.0.5.5.5.4.>.| T j d c.M.",
"m.v.( 7.w.0.0.5.5.5.5.3.f.-.  = f.r.4.5.5.5.4.>...T j d c.M.",
"M.v.( 7.w.0.8.5.5.5.3.p.6.  $ s.t.3.8.5.5.5.4.>.| T j d c.M.",
"m.v.( 7.w.9.8.5.p.s.j.e.X X 6.s.3.5.5.5.5.5.4.>...T j d c.M.",
"m.v.( 9.w.9.8.t.} m Q } & ] f.3.5.5.5.5.5.5.4.>.| T j d c.M.",
"m.v.( 8.w.8.s.Y       2 j.s.3.5.5.5.5.5.8.5.4.>.| T j d c.m.",
"m.v.^ 7.w.8.j.w   O   O 5.r.5.5.5.8.5.5.5.5.4.*.| T c d c.M.",
"m.v.( 7.w.0.f.e   # . + ,.r.4.5.5.5.5.5.5.5.4.:.| P j d c.M.",
"M.v.^ 7.w.5.s.a       @ 4.8.2.2.1.1.1.1.1.1.,.#.| L g d c.M.",
"m.v.^ 4.8.1.,.:.5 - > N 4.#.#.#.#.#.O.O.&.O...| _ m u i n.m.",
"m.v.^ *.>...' | :.&.:.O.) ) ` ` ` ` ` ` ` ` ) B N k y i n.M.",
"m.m.~ +.' P m n n n n n n n n n n n n n n n n k h p 0 r n.M.",
"m.m.W b c y t 9 9 9 0 9 9 9 9 9 1 0 0 1 9 9 9 8 8 < , 5 n.M.",
"m.M.y.H W G G G G G G G G G G G H G G G G G G G G G S J m.m.",
"m.v.M.m.M.M.M.N.M.N.M.N.N.N.M.N.N.N.M.N.N.N.M.N.N.N.N.N.v.v.",
"m.v.m.m.m.m.m.m.m.m.m.m.m.m.m.m.m.m.m.m.m.m.m.m.m.m.m.m.m.m."
};
