/* XPM */
static char *FFwdSMPressed_xpm[] = {
/* columns rows colors chars-per-pixel */
"30 30 128 2 ",
"   c #010101",
".  c #080605",
"X  c #1A140F",
"o  c #141212",
"O  c #1B1713",
"+  c #1F1813",
"@  c #1D1919",
"#  c #201B18",
"$  c #27211E",
"%  c #2A211E",
"&  c #382F2A",
"*  c #35302A",
"=  c #39342D",
"-  c #452C1D",
";  c #553D2C",
":  c #413932",
">  c #50473F",
",  c #5D4C3D",
"<  c #634631",
"1  c #524F46",
"2  c #545148",
"3  c #5D554A",
"4  c #5D594D",
"5  c #6C5745",
"6  c #6D5847",
"7  c #605A4D",
"8  c #6F5A48",
"9  c #646255",
"0  c #69685B",
"q  c #75695F",
"w  c #767262",
"e  c #767E7E",
"r  c #876D5C",
"t  c #86705C",
"y  c #827363",
"u  c #897565",
"i  c #877867",
"p  c #8E7E6C",
"a  c #917F6F",
"s  c #817C73",
"d  c #917F70",
"f  c #8F806D",
"g  c #91806F",
"h  c #948272",
"j  c #9A8775",
"k  c #9A8A76",
"l  c #958E7C",
"z  c #9C8C7A",
"x  c #A6937E",
"c  c #7B8383",
"v  c #818683",
"b  c #858A84",
"n  c #848F8F",
"m  c #968E81",
"M  c #84908F",
"N  c #8B908B",
"B  c #969280",
"V  c #9C9683",
"C  c #859190",
"Z  c #8C9897",
"A  c #909894",
"S  c #A89580",
"D  c #A69887",
"F  c #AD9A85",
"G  c #A59D8A",
"H  c #B19D87",
"J  c #B49F89",
"K  c #9AA29F",
"L  c #AFA08F",
"P  c #B3A28F",
"I  c #BDA78F",
"U  c #AFA192",
"Y  c #B5A797",
"T  c #BDA790",
"R  c #B1AA92",
"E  c #BEA992",
"W  c #B7A999",
"Q  c #BDAC99",
"!  c #9BA4A1",
"~  c #B5B3A3",
"^  c #AABDBC",
"/  c #C3AE96",
"(  c #CEB59C",
")  c #D0B99F",
"_  c #C6B4A0",
"`  c #CDB9A4",
"'  c #D5BCA2",
"]  c #DBBEA4",
"[  c #CBC4AA",
"{  c #D2C0A6",
"}  c #DBC1A6",
"|  c #D5C1AD",
" . c #DDC3AA",
".. c #D8C5B0",
"X. c #DFCAB2",
"o. c #D6D5BB",
"O. c #DBDABF",
"+. c #E0C7AB",
"@. c #E6CBAF",
"#. c #E5CBB1",
"$. c #EFD2B5",
"%. c #EAD3BD",
"&. c #F3D6B9",
"*. c #F5D9BC",
"=. c #FBDCBD",
"-. c #F2DAC1",
";. c #FCDFC0",
":. c #E3E2C5",
">. c #E8E6CA",
",. c #F3E5C4",
"<. c #FDE2C4",
"1. c #FDE4C8",
"2. c #FDECCB",
"3. c #ECEAD1",
"4. c #FFF5D4",
"5. c #FFF9D6",
"6. c #FFFDDB",
"7. c #DDFFFF",
"8. c #F6F5E2",
"9. c #FFFEE1",
"0. c #FFFFEA",
"q. c #E0F4F6",
"w. c #E2F7F9",
"e. c #E2FFFF",
"r. c #EBFFFF",
"t. c #FFFFF7",
"y. c #F4FFFF",
"u. c #FCFFFD",
/* pixels */
"e.e.7.e.e.e.e.e.e.e.e.e.e.e.e.e.e.e.e.e.e.e.e.e.e.e.e.e.e.7.",
"7.7.r.u.y.y.u.y.y.u.u.y.y.u.y.y.u.y.y.u.y.y.y.u.y.u.u.y.7.e.",
"e.r.^ e M n n M n n n M n n n n M n n n n n n n n N c Z r.r.",
"e.u.v - , , , , , , , , , , , , , , , , , , , , , 1 ; 3 w.r.",
"e.y.A 6 y i p f f p a a g a p f f f p g f f f f i p r s w.r.",
"e.y.A 5 p k S F F F F H F F F F F F F F F F F F x k a s q.r.",
"e.y.A 6 h F / ( ( ( ( ( ( ( ( ( ) ( ( ( ( ( ) ' ( Y h s 7.r.",
"e.r.A 8 j I } @.@.@.@.@.@.@.@.@.@.@.@.@.@.@.$.&. .Q j s q.w.",
"7.y.A 8 k E  .$.*.=.*.*.*.=.*.=.=.*.*.*.*.=.<.*.#.Q j s q.w.",
"e.y.A 8 k E } $.<.4.5.;.=.=.<.4.5.<.=.=.;.;.1.-.X.Q j s q.r.",
"e.y.A 8 k E } 1.{ = R 0.;.1.<.> w 0.2.*.;.;.<.*.X.Q j s q.r.",
"e.r.A 8 k E } 6.L     l 0.5.#.    4 6.5.=.=.<.*.X.Q j s q.r.",
"e.y.Z 6 k E } 4.D = V   9 t.-.@ l O * 3.9.=.;.-.X.Q j s q.r.",
"e.y.A 8 k E } 4.V # u.~   7 2.o X.8.+   o.5.;.-.X.Q j s q.r.",
"e.y.A 6 j E ] 5.V # ,.0.>.$ O o / 0.0.2   ` 6.-.#.Q j s q.r.",
"e.y.A 8 j T ] 5.V # ,.0.:.$ @ o / 0.6.2 . [ 5.-.X.Q j s q.r.",
"e.r.A 6 k / ) 4.V % t.~   9 2.o X.8.X . O.5.=.-.X.Q j s q.r.",
"e.y.A 8 k I } 4.V * m   0 t.-.@ l o = 3.6.=.<.*.X.Q j s 7.r.",
"e.r.A 8 k E ] 5.L     B 0.5.@.    4 6.4.=.=.<.-.X.Q j s q.r.",
"e.y.A 8 k E } 2.' : R t.=.<.<.> w 0.2.=.=.<.<.-.X.Q j s q.w.",
"7.y.A 8 k E } $.1.6.4.;.=.;.;.4.5.<.*.;.=.;.<.*.X.Q j s q.r.",
"e.y.A 8 k E  .&.;.;.;.;.;.;.;.1.<.;.;.;.<.<.1.-.#.Q j s q.r.",
"e.y.A 8 k E +.;.1.1.;.;.1.;.;.;.<.1.<.<.1.1.1.-.X.Q h s q.r.",
"7.y.Z 6 j I +.*.-.-.-.-.-.-.-.-.-.-.-.-.-.-.-.%.| T j s 7.r.",
"e.y.Z 5 d H ` ................................] _ U h s q.r.",
"e.y.A 6 d G Y W W W W W W W W W Y W W W W W Q Y U D h s q.r.",
"e.y.l , i d h g h d h h h h h h h d h h h h h d d d r q q.r.",
"e.r.^ b ! U K K ! ! ! ! K K K K ! K K ! K K ! K ! ! A ! w.e.",
"e.7.r.y.r.r.r.r.r.r.r.r.r.r.r.r.r.r.r.r.r.y.r.r.r.r.y.y.7.7.",
"e.7.e.e.e.e.e.e.e.e.e.e.e.e.r.e.e.e.e.e.e.e.e.e.e.e.e.e.7.e."
};
