/* XPM */
static char *FFwdSMMouseOver_xpm[] = {
/* columns rows colors chars-per-pixel */
"30 30 170 2 ",
"   c #010000",
".  c #080304",
"X  c #0F0A07",
"o  c #0F0D0C",
"O  c #14100D",
"+  c #1C1A17",
"@  c #231E1A",
"#  c #241C17",
"$  c #27211B",
"%  c #2D251F",
"&  c #2C2723",
"*  c #2E2B26",
"=  c #322B26",
"-  c #322E29",
";  c #3A332C",
":  c #3E382F",
">  c #37352C",
",  c #433B31",
"<  c #494137",
"1  c #4C433A",
"2  c #4E4C3E",
"3  c #52473A",
"4  c #50483E",
"5  c #544F41",
"6  c #5F5347",
"7  c #5E5748",
"8  c #605347",
"9  c #645A4B",
"0  c #715B53",
"q  c #6F6F5A",
"w  c #696154",
"e  c #726755",
"r  c #796E5C",
"t  c #75755E",
"y  c #7E735F",
"u  c #577E60",
"i  c #7B7962",
"p  c #7E7662",
"a  c #8D4B4B",
"s  c #81584F",
"d  c #8C5F56",
"f  c #875B53",
"g  c #8B6657",
"h  c #8F6158",
"j  c #97695E",
"k  c #916459",
"l  c #87765F",
"z  c #8A7C68",
"x  c #947F67",
"c  c #997261",
"v  c #A47768",
"b  c #578C66",
"n  c #5B8963",
"m  c #5D9064",
"M  c #549266",
"N  c #608862",
"B  c #629368",
"V  c #67986B",
"C  c #72936C",
"Z  c #7D9C74",
"A  c #54AD70",
"S  c #5DB474",
"D  c #78A07E",
"F  c #7FAD7B",
"G  c #7FB07E",
"H  c #39E377",
"J  c #3BE57B",
"K  c #3DEA7B",
"L  c #87836B",
"P  c #8E816B",
"I  c #9C866D",
"U  c #968F76",
"Y  c #9D8173",
"T  c #9B9479",
"R  c #AC816E",
"E  c #AF8370",
"W  c #A28B71",
"Q  c #B98676",
"!  c #B78A77",
"~  c #A5947B",
"^  c #AD9579",
"/  c #A1987D",
"(  c #AB9277",
")  c #B69D7F",
"_  c #7CB182",
"`  c #3EEA80",
"'  c #3EF083",
"]  c #48E782",
"[  c #4AE984",
"{  c #45E581",
"}  c #57E585",
"|  c #58E786",
" . c #59E987",
".. c #57EE89",
"X. c #5BE988",
"o. c #55EC87",
"O. c #4BF385",
"+. c #4AF689",
"@. c #4FF98C",
"#. c #41F285",
"$. c #52F187",
"%. c #56F289",
"&. c #52F98C",
"*. c #A99E83",
"=. c #BA9F82",
"-. c #A3A185",
";. c #BBA283",
":. c #BAA588",
">. c #B5A88A",
",. c #B1AB90",
"<. c #BAB191",
"1. c #CC9C86",
"2. c #EC938B",
"3. c #C2A687",
"4. c #C2A688",
"5. c #C5A989",
"6. c #CBAE8E",
"7. c #CFB290",
"8. c #D6B796",
"9. c #D4B997",
"0. c #DABA97",
"q. c #DDBC9A",
"w. c #F7A99B",
"e. c #E0BE9C",
"r. c #F4BAA4",
"t. c #E2C09D",
"y. c #D4CAA7",
"u. c #D3CEAA",
"i. c #DDCFB5",
"p. c #E7C5A1",
"a. c #EAC7A2",
"s. c #ECCAA4",
"d. c #F1CDA7",
"f. c #F4CEA8",
"g. c #F5C1A1",
"h. c #E9D0AA",
"j. c #E4D0AA",
"k. c #F5D1AB",
"l. c #FAD4AD",
"z. c #FFD8AF",
"x. c #EEC0B3",
"c. c #EEC5BE",
"v. c #FFCFB1",
"b. c #EADCB3",
"n. c #EBDFBA",
"m. c #FAD7B2",
"M. c #FBDAB5",
"N. c #FDDDBC",
"B. c #E5E4BE",
"V. c #F6E7BE",
"C. c #FEE4BA",
"Z. c #FFEABE",
"A. c #F3EABF",
"S. c #F4BEC4",
"D. c #F0C8C1",
"F. c #FFDBC6",
"G. c #FFDECB",
"H. c #FFE2C3",
"J. c #FFECC1",
"K. c #FFEDCC",
"L. c #FFF2C5",
"P. c #FFF7CA",
"I. c #FFFACC",
"U. c #FFF0D4",
"Y. c #FFFFD3",
"T. c #FFF4D8",
"R. c #FFFFD8",
"E. c #FFF2E1",
"W. c #FFFFEC",
"Q. c #FFFFF2",
/* pixels */
"} } }  . .}  .}  .} }  .}  .}  .} } } | | | } } } | | | } } ",
"} } %.O.O.#.O.O.O.O.O.O.O.O.O.O.O.O.O.O.O.O.O.O.O.O.+.&.} } ",
" .%.A u b b b b b b b b b b b b b b b b b b b b b b n M o.| ",
" .K D S.D.c.c.c.c.c.c.c.c.c.c.c.c.c.c.D.D.c.c.c.x.r.w.Y J ..",
" .H _ E.T.T.U.U.U.U.U.U.U.U.U.U.U.U.U.U.U.U.U.K.J.M.g.T H  .",
"X.J _ G.H.F.F.N.N.n.F.N.N.F.N.N.N.F.N.n.N.N.N.m.k.0.1.L ] %.",
"X.J _ G.H.N.N.N.N.M.N.m.M.M.M.N.N.m.M.M.M.N.M.z.t.6.! L ] ..",
"X.J _ F.C.N.m.m.m.l.m.M.M.m.m.k.m.m.m.m.m.m.m.d.e.3.! i ] ..",
"X.J _ F.N.N.m.l.M.Z.l.l.l.l.l.C.C.k.z.z.l.z.l.a.9.;.E i [ ..",
"X.H _ F.N.M.m.m.h.j.L.m.l.l.M.h.b.J.k.k.l.l.k.a.9.;.E i ] ..",
"X.J _ F.N.m.m.P.l X T R.M.z.Z., O y.Y.l.k.l.f.a.9.=.E i [ ..",
"X.J _ F.N.M.M.I.6     L Y.H.l.&   . <.R.z.l.k.a.8.=.E i [ ..",
"X.J _ F.N.M.M.P.1 1 *.  7 R.L.@ z w   T R.M.f.a.8.=.E p ] ..",
"X.J _ F.N.M.M.P.1 > Q.-.  3 I.= P W.e   p Y.l.p.8.:.E i [ ..",
"X.J _ F.C.M.m.I.1 & L.R.y.@ & + z I.I.*.  5 J.d.8.=.E i [ ..",
"X.H _ G.N.M.m.I.1 - Z.L.Y.>   O P L.Y.B.  $ J.k.8.;.E i ] ..",
"X.J _ F.N.M.m.P.1 = W.B.O . u.; y W.>.  , V.C.t.8.;.E i ] ..",
"X.J _ F.C.M.M.I.< 4 i.. # B.Y.$ ~ ,.  2 I.Z.f.s.8.;.E i ] ..",
"X.J _ F.N.M.M.P.8 +   : V.I.z.- &   q R.C.k.k.a.8.;.E i ] ..",
"X.J _ F.N.m.m.Y.9   9 I.Z.z.C.+   U R.M.k.z.k.a.8.;.E i [ ..",
"X.J _ F.N.M.m.C.9.~ L.C.l.z.C.:.:.I.m.k.l.l.k.a.8.;.E i [ ..",
"X.H _ F.N.M.m.l.C.L.z.k.k.k.k.J.J.l.l.l.l.z.k.a.9.;.E i [ ..",
"X.J _ F.N.m.l.f.d.d.d.d.f.d.d.d.d.d.d.d.d.d.d.e.7.;.v i [ ..",
"X.J G N.z.d.p.t.e.e.e.e.e.e.e.e.e.e.e.e.e.e.q.7.5.^ v i [ ..",
" .K _ m.t.0.7.5.5.5.5.5.5.5.5.5.5.5.5.5.5.5.3.=.^ I c t [ %.",
" .{ T r.5.) ( W W W W W W W W W W W W W W W W I x l g q o.%.",
" .' D 2.Q v j k h h k k h h h h h h h h h h h h f s a 0 [ %.",
"| O.S V V B B m m m m m m m m m m m m m m m m m m m N M  ...",
"| | $.#.O.+.@.@.&.&.&.@.@.@.@.@.@.+.&.&.@.@.@.@.&.&.@.&.} } ",
"} | | | X.} | | } } } } | | | | | } | | | | | |  .}  .} } } "
};
