/* XPM */
static char *FFwdSMNormal_xpm[] = {
/* columns rows colors chars-per-pixel */
"30 30 161 2 ",
"   c #010000",
".  c #080304",
"X  c #0F0A07",
"o  c #0F0D0C",
"O  c #14100D",
"+  c #1C1A17",
"@  c #241C17",
"#  c #231E1A",
"$  c #27211B",
"%  c #2D251F",
"&  c #2C2723",
"*  c #2E2B26",
"=  c #322B26",
"-  c #322E29",
";  c #37352C",
":  c #3A332C",
">  c #3E382F",
",  c #433B31",
"<  c #494137",
"1  c #4C433A",
"2  c #4E4C3E",
"3  c #52473A",
"4  c #50483E",
"5  c #644328",
"6  c #6D543D",
"7  c #70573F",
"8  c #544F41",
"9  c #5F5347",
"0  c #5E5748",
"q  c #605347",
"w  c #685749",
"e  c #645A4B",
"r  c #795E44",
"t  c #755B42",
"y  c #7B634A",
"u  c #696154",
"i  c #726755",
"p  c #7E6E5B",
"a  c #736E5C",
"s  c #7E735F",
"d  c #7D7364",
"f  c #81654B",
"g  c #8B6F54",
"h  c #95785B",
"j  c #897661",
"k  c #867963",
"l  c #827768",
"z  c #857A6B",
"x  c #8B7E6D",
"c  c #9C7E60",
"v  c #947F69",
"b  c #87816A",
"n  c #8E816B",
"m  c #9F8163",
"M  c #9D866E",
"N  c #968F76",
"B  c #928474",
"V  c #9A937A",
"C  c #A28264",
"Z  c #AD8C6D",
"A  c #BB8960",
"S  c #A38B71",
"D  c #A5947B",
"F  c #AD9479",
"G  c #A1987D",
"H  c #B79D7F",
"J  c #BC9978",
"K  c #D3A178",
"L  c #7E8583",
"P  c #858B89",
"I  c #8C9089",
"U  c #8C9695",
"Y  c #8E9896",
"T  c #939A94",
"R  c #9A9A90",
"E  c #919C9B",
"W  c #A79682",
"Q  c #A69D82",
"!  c #AC9F84",
"~  c #B79D81",
"^  c #BA9F82",
"/  c #97A09C",
"(  c #9DA19B",
")  c #A3A185",
"_  c #BCA184",
"`  c #BAA588",
"'  c #B5A88A",
"]  c #A5A398",
"[  c #B1AB90",
"{  c #BAB191",
"}  c #A2A8A1",
"|  c #B5BAAF",
" . c #B4B5AB",
".. c #AABCBC",
"X. c #B4BAB1",
"o. c #C2A687",
"O. c #C2A688",
"+. c #C5A989",
"@. c #CBAE8E",
"#. c #CFB290",
"$. c #CDB59B",
"%. c #D6B796",
"&. c #D4B997",
"*. c #D7BB9F",
"=. c #DCBC9A",
"-. c #DCB994",
";. c #E1B48C",
":. c #E8BE93",
">. c #E0BE9C",
",. c #D8BFA6",
"<. c #B8C0B7",
"1. c #E2C09D",
"2. c #F4CB9D",
"3. c #D4CAA7",
"4. c #D8C1AA",
"5. c #D3CEAA",
"6. c #DDCFB5",
"7. c #E7C5A1",
"8. c #EAC7A2",
"9. c #ECCAA4",
"0. c #F1CDA7",
"q. c #F4CEA8",
"w. c #E4D0AA",
"e. c #E9D0AA",
"r. c #F5D2AB",
"t. c #FAD4AD",
"y. c #EADCB3",
"u. c #EBDFBA",
"i. c #F5D7B3",
"p. c #FAD7B2",
"a. c #F5D8B5",
"s. c #FCDAB5",
"d. c #FDDDBD",
"f. c #F5DABA",
"g. c #E5E4BE",
"h. c #F6E7BE",
"j. c #FEE4BA",
"k. c #F3EABF",
"l. c #FFEABE",
"z. c #B3C3C1",
"x. c #FBDEC2",
"c. c #FFE2C4",
"v. c #FFECC1",
"b. c #FFEECE",
"n. c #FFF2C5",
"m. c #FFF7CA",
"M. c #FFFACC",
"N. c #FFF1D4",
"B. c #FFFFD3",
"V. c #FFF4D9",
"C. c #FFFFD8",
"Z. c #D6EEF3",
"A. c #DCF3F7",
"S. c #DFF5F8",
"D. c #DCFEFF",
"F. c #FFFFEC",
"G. c #E3F6FA",
"H. c #E3FFFF",
"J. c #EBFFFF",
"K. c #FFFFF2",
"L. c #F0FFFF",
/* pixels */
"H.H.H.H.H.H.H.H.H.H.H.H.H.H.H.H.H.H.H.H.H.H.H.H.H.H.H.H.H.D.",
"D.D.J.J.J.J.J.J.J.J.J.J.J.J.J.J.J.J.J.J.J.J.J.J.J.L.L.L.D.H.",
"H.J...L E U U U U U U U U U Y U U U U U U U U U U U P E H.H.",
"H.H.} $.4.4.4.,.4.4.4.4.4.4.4.,.,.,.,.,.4.4.4.,.,.-.K v Z.J.",
"H.D.X.N.V.N.N.N.N.N.N.N.N.N.N.N.N.N.N.N.N.N.N.m.l.s.:.W Z.J.",
"H.D.X.f.c.x.x.x.d.d.x.x.d.d.d.x.x.x.d.x.d.x.d.s.r.-.J B A.J.",
"H.D.X.a.c.d.s.s.f.s.s.s.s.s.s.s.f.s.s.s.s.s.s.t.8.@.Z x A.J.",
"J.D.X.a.x.d.s.s.p.p.p.p.s.p.a.s.p.p.p.p.p.s.t.9.=.o.C z S.J.",
"H.D.X.i.d.s.s.r.s.j.t.t.t.p.r.j.j.r.t.t.t.t.t.8.%._ m z S.J.",
"H.D.X.i.d.p.p.p.i.w.n.t.t.t.s.e.y.n.t.t.t.t.t.8.%._ m z S.J.",
"J.D.X.i.d.s.p.m.p X G C.s.t.l., O 3.B.r.t.t.t.8.%._ m z S.J.",
"H.D.X.a.d.s.s.M.9     b B.v.t.&     { C.t.t.r.8.%._ m z G.H.",
"H.D.X.i.d.s.s.M.1 1 Q   9 C.n.# n u   V C.s.q.8.%._ C z S.H.",
"H.D.X.i.d.s.p.M.< : K.)   3 M.= n F.i   d B.t.8.%._ m z S.J.",
"H.D.X.i.d.s.s.M.1 * n.B.3.# & + k M.M.!   2 v.0.%._ m z S.J.",
"J.D.X.i.d.s.p.M.1 - v.n.B.;   O n n.B.g.  % h.r.%._ m z S.J.",
"H.D.X.i.d.s.p.m.1 = F.g.O . 5.: s F.'   , h.s.8.%._ m z S.J.",
"H.D.X.i.d.s.s.M.< 4 6.  @ g.B.@ G [   2 M.v.q.8.%._ m z S.J.",
"H.D.X.a.d.s.p.m.q +   > h.M.p.= %   a B.l.r.r.9.%._ m z S.J.",
"H.D.X.p.d.s.s.M.e   e M.l.p.j.$   N C.s.q.t.r.8.%._ m z S.H.",
"H.D.| i.d.s.p.j.&.D n.l.t.t.j._ ` M.s.t.t.t.t.9.%._ C z G.H.",
"H.D.| i.d.s.p.t.l.n.t.r.t.r.r.v.n.r.r.t.t.t.r.8.%.~ m z S.J.",
"H.D.| i.d.p.t.q.0.0.0.0.0.0.0.0.0.0.q.q.0.q.9.>.%.H h z S.J.",
"H.D.| t.p.0.7.1.>.>.>.>.>.>.>.>.>.>.>.>.=.>.-.%.+.F h l G.H.",
"J.D.| 2.8.%.#.+.+.+.+.+.+.+.+.+.+.+.+.+.+.+.o.H F M g d G.J.",
"H.D. .;.@.~ F S S S S S S S S S S S S S S S S M m k y d G.J.",
"H.H.] A C g f r r r r r r r r r r r r r r r r 7 t 6 5 w G.J.",
"H.J.<.R ] T T T T T T T T T T T T T T T T T T T Y T I E J.H.",
"D.D.J.H.J.J.L.L.L.L.J.L.L.L.J.L.L.J.L.L.L.J.L.L.L.L.L.L.H.D.",
"D.H.H.H.H.H.H.H.H.H.H.H.H.H.H.H.H.H.H.H.H.H.H.H.H.H.H.H.D.H."
};
