/* XPM */
static char *FRewSMDisabled_xpm[] = {
/* columns rows colors chars-per-pixel */
"30 30 208 2 ",
"   c #6A6262",
".  c #686565",
"X  c gray42",
"o  c #6F6F6F",
"O  c #706A6A",
"+  c #706B6B",
"@  c #706C6C",
"#  c #716D6D",
"$  c #726E6E",
"%  c gray44",
"&  c #717171",
"*  c #727272",
"=  c gray45",
"-  c #797575",
";  c gray47",
":  c gray48",
">  c #7B7B7B",
",  c gray49",
"<  c #7E7F7F",
"1  c #7F8181",
"2  c #7D8585",
"3  c #808080",
"4  c #808181",
"5  c #818181",
"6  c #808282",
"7  c gray51",
"8  c #838383",
"9  c #868383",
"0  c #848484",
"q  c #848585",
"w  c gray53",
"e  c #898686",
"r  c #838C8C",
"t  c #888888",
"y  c gray54",
"u  c #8B8B8B",
"i  c #8C8989",
"p  c gray55",
"a  c #8D8D8D",
"s  c #8E8E8E",
"d  c #8E8F8F",
"f  c gray56",
"g  c #918C8C",
"h  c #908D8D",
"j  c #918D8D",
"k  c #918E8E",
"l  c #918F8F",
"z  c #8B9494",
"x  c #8B9696",
"c  c #8B9797",
"v  c #8B9898",
"b  c #909090",
"n  c gray57",
"m  c #929292",
"M  c #969393",
"N  c gray58",
"B  c #959595",
"V  c gray59",
"C  c #979999",
"Z  c #919D9D",
"A  c #929C9C",
"S  c #919E9E",
"D  c #929E9E",
"F  c #939F9F",
"G  c #989999",
"H  c gray60",
"J  c #9A9A9A",
"K  c #9A9C9C",
"L  c #95A2A2",
"P  c #96A2A2",
"I  c #A3A0A0",
"U  c gray64",
"Y  c #A4A4A4",
"T  c #A5A6A6",
"R  c gray65",
"E  c #A7A7A7",
"W  c #ACA1A1",
"Q  c #A0A9A9",
"!  c #A3ABAB",
"~  c #AAAAAA",
"^  c #AAABAB",
"/  c gray67",
"(  c gray68",
")  c #AEAEAE",
"_  c #AFAFAF",
"`  c #AABDBD",
"'  c #B2B1B1",
"]  c #B2B2B2",
"[  c #B2B3B3",
"{  c gray70",
"}  c #B4B4B4",
"|  c #B7B7B7",
" . c #BEB5B5",
".. c #B7B8B8",
"X. c #B0BCBC",
"o. c #B1BCBC",
"O. c #B1BDBD",
"+. c #B2BEBE",
"@. c gray72",
"#. c #BCBCBC",
"$. c gray74",
"%. c gray",
"&. c #C4BABA",
"*. c #B5C1C1",
"=. c #B1C4C4",
"-. c #C0C0C0",
";. c #C1C1C1",
":. c gray76",
">. c #C3C3C3",
",. c gray77",
"<. c #C5C5C5",
"1. c #C6C6C6",
"2. c #C7C6C6",
"3. c gray78",
"4. c #C9C4C4",
"5. c #CAC5C5",
"6. c #CCC7C7",
"7. c #C8C8C8",
"8. c #C8C9C9",
"9. c gray79",
"0. c #CACACA",
"q. c #CBCBCB",
"w. c #CEC9C9",
"e. c gray80",
"r. c #CDCDCD",
"t. c #CECECE",
"y. c gray81",
"u. c #D2CFCF",
"i. c #D0D0D0",
"p. c gray82",
"a. c #D2D2D2",
"s. c LightGray",
"d. c gray83",
"f. c #D5D5D5",
"g. c #D5D6D6",
"h. c gray84",
"j. c #D7D7D7",
"k. c #DBD6D6",
"l. c #D8D8D8",
"z. c gray85",
"x. c #DADADA",
"c. c gray86",
"v. c gainsboro",
"b. c #DCDDDD",
"n. c #DDDDDD",
"m. c gray87",
"M. c #DFDFDF",
"N. c #E1DCDC",
"B. c #E3DEDE",
"V. c #E4DFDF",
"C. c #D9EAEA",
"Z. c #D8ECEC",
"A. c #DFF2F2",
"S. c #DCFBFB",
"D. c #DFFCFC",
"F. c #DFFDFD",
"G. c #DDFFFF",
"H. c #DEFFFF",
"J. c #DFFFFF",
"K. c gray88",
"L. c #E1E1E1",
"P. c #E2E2E2",
"I. c gray89",
"U. c #E3E4E4",
"Y. c #E4E4E4",
"T. c #E4E5E5",
"R. c gray90",
"E. c #E6E6E6",
"W. c #E7E7E7",
"Q. c gray91",
"!. c #E9E9E9",
"~. c #EAEAEA",
"^. c gray92",
"/. c #ECECEC",
"(. c gray93",
"). c #EEEFEF",
"_. c #EFEFEF",
"`. c #E1F3F3",
"'. c #E2F4F4",
"]. c #E4F4F4",
"[. c #E6FBFB",
"{. c LightCyan",
"}. c #E1FFFF",
"|. c #E2FFFF",
" X c #E3FFFF",
".X c #E4FCFC",
"XX c #E7FDFD",
"oX c #E4FFFF",
"OX c #E5FFFF",
"+X c #E6FFFF",
"@X c #E9FFFF",
"#X c #EAFFFF",
"$X c #EBFFFF",
"%X c #ECFFFF",
"&X c #EDFFFF",
"*X c #EFFFFF",
"=X c gray95",
"-X c #F3F3F3",
";X c #F6F2F2",
":X c gray96",
">X c #F6F6F6",
",X c gray97",
"<X c azure",
"1X c #F1FFFF",
"2X c #F2FFFF",
"3X c #F9F9F9",
"4X c #FBFBFB",
"5X c gray99",
/* pixels */
"{.{.}. X|.|.|.|.|.|.|.|.|.|.|.|.|.|.|.|.|.|.|.|.|.|. X|.{.{.",
"{.G.%X*X&X&X&X&X&X&X&X&X&X&X&X&X&X&X&X&X&X&X&X&X&X&X<X2XJ.H.",
"}.*X` 2 c x x x x x x x x x x x x x x x x x x x c v r Z XX+X",
"oX.XQ &.w.6.6.6.6.6.6.6.6.6.6.6.6.6.6.6.6.6.6.6.5.4. .e C.#X",
"OXS.*.;X3X,X,X>X>X>X>X>X>X>X>X>X>X>X>X>X>X>X>X>X-X).u.C Z.@X",
"oXD.O.V.E.Y.P.P.P.P.P.P.P.P.P.P.P.P.P.P.P.P.P.L.v.8.I q A.@X",
"oXD.o.V.T.L.m.m.n.n.n.n.n.n.n.n.n.n.n.n.n.n.n.n.y.} M 6 `.@X",
"oXD.o.V.Y.M.c.x.z.z.z.z.z.z.z.z.z.z.z.z.z.z.c.g.>./ j 1 `.@X",
"oXD.o.V.Y.m.x.z.z.z.z.z.j.c.K.z.l.z.z.j.m.M.z.a.;.~ k 1 `.@X",
"oXD.o.V.Y.M.c.z.z.z.z.j.M.K.h.c.l.z.j.P.n.l.c.p.:./ k 1 `.@X",
"oXD.o.V.Y.M.c.z.z.z.h.Y.E.J 0 s.K.j.~.c.w V I.f.:./ k 1 `.@X",
"oXD.o.V.Y.M.c.z.z.j.W.M.n : t 7.Y.~.y.3 > N K.j.:./ k 1 `.@X",
"oXD.o.V.Y.M.c.l.l.~.j.3 a e.f q.,X;.* E #.f M.j.:./ k 1 `.@X",
"oXD.o.V.Y.M.c.l.Q.r.& s /.x.t x.-.X R 4X$.y K.j.:./ k 1 `.@X",
"oXD.o.V.Y.m.x.Y.$.> ~ Q.~.e.m H 8 %.~.~.{ p K.j.:./ k 1 `.@X",
"oXD.o.V.Y.m.x.W.) % <.=XP.t.m 8 7 c.^.Y.} p K.j.:./ k 1 `.@X",
"oXD.o.V.Y.M.x.x.R.{ X ( :Xs.u a.Y * <.5X| u K.j.:./ k 1 `.@X",
"oXD.o.V.Y.M.c.j.v./.$.% ~ c.u i.:XU o 3.,.p M.j.:./ k 1 `.@X",
"oXD.o.V.Y.M.c.z.l.z.(.9., s b 1.Q.~.] ; f V M.j.:./ k 1 `.@X",
"oXD.o.V.Y.M.c.z.z.l.j.^.h.5 : y.L.x._.:.= s I.j.:./ k 1 `.@X",
"oXD.o.V.Y.M.c.z.z.z.z.j.E.d.-.x.x.l.x.!.0.,.m.a.:./ k 1 `.@X",
"oXD.o.V.Y.M.c.x.x.x.x.x.j.K.E.x.z.x.z.l.Y.Y.z.s.>./ k 1 `.@X",
"oXD.o.V.Y.M.n.z.z.z.z.z.z.l.l.z.z.z.z.z.l.l.z.a.;.^ l 4 `.@X",
"oXD.X.B.U.v.a.e.e.e.e.e.e.e.e.e.e.e.e.e.e.e.e.1.@.T h 1 `.@X",
"oXF.X.N.b.2...] ' ' ' ' ' ' ' ' ' ' ' ' ' ' [ _ R K i 1 `.@X",
"oXF.+.k.:.T G B B B B B B B B B B B B B B B B N b d 9 < '.@X",
"oX+X! W g - # + @ @ @ @ @ @ @ @ @ @ @ @ @ @ @ + O $   . ].$X",
"}.$X=.A P D Z Z Z Z Z Z Z Z Z Z Z Z Z Z Z Z Z Z S F z L [.+X",
"{.H.#X@X&X<X1X1X1X1X1X1X1X1X1X1X1X1X1X1X1X1X1X1X1X1X2X2X{.H.",
"{.J.}.oX X|.|.|.|.|.|.|.|.|.|.|.|.|.|.|.|.|.|.|.|.|. X|.{.{."
};
