/* XPM */
static char *FRewSMPressed_xpm[] = {
/* columns rows colors chars-per-pixel */
"30 30 134 2 ",
"   c #010101",
".  c #080705",
"X  c #1A140F",
"o  c #141212",
"O  c #1B1713",
"+  c #1F1813",
"@  c #1D1919",
"#  c #201A18",
"$  c #27211E",
"%  c #2A211E",
"&  c #382E29",
"*  c #35302A",
"=  c #39342D",
"-  c #452C1D",
";  c #553D2C",
":  c #413832",
">  c #50473F",
",  c #5D4C3D",
"<  c #634631",
"1  c #534F46",
"2  c #555148",
"3  c #5D554A",
"4  c #5D594D",
"5  c #6C5745",
"6  c #6D5847",
"7  c #605A4D",
"8  c #6F5A48",
"9  c #646255",
"0  c #69685B",
"q  c #75695F",
"w  c #767262",
"e  c #767E7E",
"r  c #876D5C",
"t  c #86705C",
"y  c #827363",
"u  c #897565",
"i  c #877867",
"p  c #8E7E6C",
"a  c #917F6F",
"s  c #817C73",
"d  c #917F70",
"f  c #8F806D",
"g  c #91806F",
"h  c #948272",
"j  c #9A8775",
"k  c #9A8A76",
"l  c #958E7C",
"z  c #9C8C7A",
"x  c #A6937E",
"c  c #7B8383",
"v  c #818683",
"b  c #858A84",
"n  c #848F8F",
"m  c #968E81",
"M  c #84908F",
"N  c #8B908B",
"B  c #969280",
"V  c #9B9584",
"C  c #9C9884",
"Z  c #859190",
"A  c #8C9897",
"S  c #909894",
"D  c #A89580",
"F  c #A69887",
"G  c #AD9A85",
"H  c #A49C8B",
"J  c #B19D87",
"K  c #B49F89",
"L  c #9AA29F",
"P  c #AFA08F",
"I  c #B3A28F",
"U  c #BDA78F",
"Y  c #AFA192",
"T  c #B5A797",
"R  c #BDA790",
"E  c #B1AA92",
"W  c #BEA992",
"Q  c #B7A999",
"!  c #BDAC99",
"~  c #9BA4A1",
"^  c #B5B3A3",
"/  c #AABDBC",
"(  c #C3AE96",
")  c #CEB59C",
"_  c #D0B99F",
"`  c #C6B4A0",
"'  c #CDB9A4",
"]  c #D5BCA2",
"[  c #DBBFA5",
"{  c #CBC2A7",
"}  c #CCC5A9",
"|  c #D1C1A7",
" . c #DCC2A7",
".. c #D3C1AB",
"X. c #DDC4AA",
"o. c #D8C5B0",
"O. c #DFCAB2",
"+. c #D6D5BB",
"@. c #E0C7AB",
"#. c #E6CBAF",
"$. c #E5CBB1",
"%. c #EFCFB3",
"&. c #F0CFB2",
"*. c #EFD4B6",
"=. c #EAD3BD",
"-. c #F0D5B7",
";. c #F3D7BC",
":. c #F5D9BC",
">. c #FADCBD",
",. c #DBDAC0",
"<. c #F2DAC1",
"1. c #FCDEC0",
"2. c #E3E2C5",
"3. c #E8E6CA",
"4. c #F3E5C4",
"5. c #FDE2C4",
"6. c #FFE8C6",
"7. c #FDE4C8",
"8. c #FEEDCD",
"9. c #ECEAD1",
"0. c #FFF5D5",
"q. c #FFF9D6",
"w. c #FFFFDE",
"e. c #DDFFFF",
"r. c #F6F5E2",
"t. c #FFFFE3",
"y. c #FFFFEA",
"u. c #E0F4F6",
"i. c #E2F7F9",
"p. c #E2FFFF",
"a. c #EBFFFF",
"s. c #FFFFF7",
"d. c #F4FFFF",
"f. c #FCFFFD",
/* pixels */
"p.p.e.p.p.p.p.p.p.p.p.p.p.p.p.p.p.p.p.p.p.p.p.p.p.p.p.p.p.p.",
"e.e.a.f.d.d.f.d.f.d.f.d.d.d.d.f.d.f.d.f.f.d.d.d.f.d.f.d.e.e.",
"p.a./ e M n n n n n n Z n n n n M M M M n n n n n N c A a.a.",
"p.f.v - , , , , , , , , , , , , , , , , , , , , , 1 ; 3 i.a.",
"p.d.S 6 y i p f p p a a g p f p g a p g a p a p i i r s i.a.",
"p.d.S 5 p k D G G G G J G G G G G J x J G G G G D z i s u.a.",
"p.d.S 6 h G ( ) ) ) _ ) ) ) ) ) ) ) ) ) ) ) _ _ ) T j s u.a.",
"p.a.S 8 j U  .#.#.#.#.#.#.#.#.$.#.#.#.#.#.#.-.;.X.! j s u.a.",
"p.d.S 8 j (  .*.:.>.:.:.>.>.>.:.>.:.:.:.>.>.5.<.$.! j s e.a.",
"p.d.S 8 k U  .-.>.>.>.>.1.q.0.5.>.1.>.0.0.6.1.<.O.W j s u.a.",
"p.a.A 8 k U  .-.>.>.>.8.y.w > 5.5.1.y.E = { 0.:.O.! j s u.i.",
"p.d.S 8 k W  .*.1.>.0.w.3     #.q.y.B     P y.;.O.! j s u.a.",
"p.a.S 8 k W  .*.>.w.9.* O l @ 4.s.9   V & V t.;.O.! j s u.a.",
"p.d.S 8 k W  .*.0.+.  + r.O.o 8.7   ^ s.# V t.;.$.Q j s u.a.",
"p.d.S 6 k W  .8.{   1 t.y.( o O % 3.y.4.# F t.;.$.! j s u.a.",
"p.d.S 8 j U  .8.} . 1 t.y.W o @ # 2.s.4.# C t.<.O.! j s u.a.",
"p.a.S 8 k U  .-.0.+.. O 0.O.o 8.9   ^ s.% V t.;.O.Q j s u.a.",
"p.d.S 8 k U  .-.;.w.9.= o m @ <.s.0   m & V t.;.$.! j s e.a.",
"p.a.S 8 k (  .-.>.>.0.w.4     @.q.y.V     H y.;.O.! j s u.a.",
"p.d.S 6 k U  .-.>.1.>.8.y.w > 5.5.1.y.E : | 0.:.O.! j s u.i.",
"p.a.S 8 k U  .*.<.1.1.>.5.q.0.1.>.>.>.0.0.6.>.<.O.! j s u.a.",
"p.d.S 8 k U  .-.7.1.1.5.1.5.5.1.5.>.5.1.5.5.7.<.$.! j s u.a.",
"p.d.S 8 j W #.>.1.1.7.1.5.5.1.7.5.5.5.7.5.7.7.<.$.Q j s u.a.",
"p.d.A 6 j U @.:.<.<.<.<.<.<.<.<.<.<.<.<.<.<.<.=...R h s e.a.",
"p.a.S 5 a K ' X.o.o.o.o.o.o.o.o.o.o.o.o.o.o.o...` J h s u.a.",
"p.d.S 6 a F T Q Q Q Q Q Q Q Q Q Q Q Q Q Q Q Q T T F h s u.a.",
"p.d.b < u a h h d h h h h h h h h h h h h h h h h d r q u.a.",
"p.a./ N ~ ~ L L ~ ~ ~ ~ L L L L ~ ~ S ~ L L L L ~ ~ S ~ i.p.",
"p.e.a.d.a.a.a.d.a.a.a.a.a.a.d.a.a.a.d.a.a.a.d.a.a.a.a.d.p.e.",
"p.p.p.p.p.p.p.p.p.p.p.p.p.p.p.p.p.p.p.p.p.p.p.p.p.p.p.p.e.p."
};
