/* XPM */
static char *FRewSMMouseOver_xpm[] = {
/* columns rows colors chars-per-pixel */
"30 30 166 2 ",
"   c #000000",
".  c #0A0404",
"X  c #0D0909",
"o  c #130D0B",
"O  c #161414",
"+  c #191512",
"@  c #1E1915",
"#  c #211B17",
"$  c #241E1A",
"%  c #25221D",
"&  c #2C251F",
"*  c #332B24",
"=  c #382E27",
"-  c #373029",
";  c #4D4438",
":  c #5C5447",
">  c #605848",
",  c #715B53",
"<  c #676151",
"1  c #6D6452",
"2  c #6F6F5A",
"3  c #776C5A",
"4  c #726655",
"5  c #75755E",
"6  c #577E60",
"7  c #7E7561",
"8  c #7B7962",
"9  c #8D4B4B",
"0  c #81584F",
"q  c #8C5F56",
"w  c #875B53",
"e  c #8B6657",
"r  c #8F6158",
"t  c #97695E",
"y  c #916459",
"u  c #87765F",
"i  c #877862",
"p  c #887B65",
"a  c #997261",
"s  c #947F67",
"d  c #A47768",
"f  c #578C66",
"g  c #5B8963",
"h  c #5D9064",
"j  c #549266",
"k  c #608862",
"l  c #629368",
"z  c #67986B",
"x  c #72936C",
"c  c #7D9C74",
"v  c #54AD70",
"b  c #5DB474",
"n  c #78A07E",
"m  c #7FAD7B",
"M  c #7FB07E",
"N  c #39E377",
"B  c #3BE57B",
"V  c #3DEA7B",
"C  c #8B836B",
"Z  c #9C866D",
"A  c #8F8470",
"S  c #958E76",
"D  c #9D8F76",
"F  c #918F7C",
"G  c #9D8173",
"H  c #9B967A",
"J  c #9F987C",
"K  c #AC816E",
"L  c #AF8370",
"P  c #A28B71",
"I  c #B98676",
"U  c #B78A77",
"Y  c #AC9478",
"T  c #A89379",
"R  c #B69D7F",
"E  c #7CB182",
"W  c #3EEA80",
"Q  c #3EF083",
"!  c #48E782",
"~  c #4AE984",
"^  c #45E581",
"/  c #57E585",
"(  c #58E786",
")  c #55EC87",
"_  c #59E987",
"`  c #57EE89",
"'  c #5BE988",
"]  c #4BF385",
"[  c #4AF689",
"{  c #4FF98C",
"}  c #41F285",
"|  c #52F187",
" . c #56F289",
".. c #52F98C",
"X. c #A49E80",
"o. c #AA9E83",
"O. c #B99F83",
"+. c #A9A58B",
"@. c #BBA283",
"#. c #BAA789",
"$. c #B7AC8D",
"%. c #BBB493",
"&. c #CC9C86",
"*. c #EC938B",
"=. c #C2A687",
"-. c #C2A688",
";. c #C5A989",
":. c #CBAE8E",
">. c #C3B190",
",. c #CFB290",
"<. c #CEB998",
"1. c #D6B795",
"2. c #DABA97",
"3. c #D1BE9D",
"4. c #DDBC9A",
"5. c #F7A99B",
"6. c #E0BE9C",
"7. c #F4BAA4",
"8. c #DBC29F",
"9. c #E2C09D",
"0. c #D0CAA6",
"q. c #D4CFA9",
"w. c #DCC6A2",
"e. c #E5C4A0",
"r. c #EAC6A2",
"t. c #E4CFA9",
"y. c #EDCBA5",
"u. c #F1CDA7",
"i. c #F6CEA9",
"p. c #FACFA9",
"a. c #F5C1A1",
"s. c #E1D2AD",
"d. c #F6D2AC",
"f. c #FAD4AD",
"g. c #FFD8AF",
"h. c #EEC0B3",
"j. c #EEC5BE",
"k. c #FFCFB1",
"l. c #E5D6B1",
"z. c #EBD6B1",
"x. c #E7DBB3",
"c. c #FAD7B2",
"v. c #F4DFB6",
"b. c #FBDAB5",
"n. c #FDDDBC",
"m. c #F6E1B8",
"M. c #FFE4BB",
"N. c #FEE9BE",
"B. c #F4BEC4",
"V. c #F0C8C1",
"C. c #FFDBC6",
"Z. c #FFDECB",
"A. c #FFE2C3",
"S. c #FFEEC2",
"D. c #FFEDCC",
"F. c #FFF3C6",
"G. c #FFF6C9",
"H. c #FFFACD",
"J. c #FFF0D4",
"K. c #FFFFD3",
"L. c #FFF4D8",
"P. c #FFFFDC",
"I. c #FFF2E1",
"U. c #FFFFE6",
"Y. c #FFFFEB",
"T. c #FFFFF5",
/* pixels */
"/ / / _ / / / _ / _ / ( ( ( ( ( / / ( ( ( ( / / / _ _ / ( / ",
"/ /  .] ] } ] ] ] ] ] ] ] ] ] ] ] } ] ] ] ] ] ] ] ] [ ../ / ",
"_  .v 6 j f f f f f f f f f f f f f f f f f f f f f g f _ _ ",
"_ V n B.V.j.j.j.j.j.j.j.j.j.j.V.j.j.j.V.V.j.j.j.h.7.5.G B ` ",
"_ N E I.L.L.J.J.J.J.J.J.J.J.J.J.J.J.J.J.J.J.G.D.S.b.a.H N ` ",
"' B E Z.A.C.C.n.v.C.n.n.n.n.n.C.n.n.C.v.n.C.n.b.i.2.&.C ^ ` ",
"' B E Z.A.n.n.n.n.c.n.b.n.b.b.b.n.b.c.n.b.b.b.f.9.:.U C ! ` ",
"' B E C.M.n.c.c.c.c.c.c.d.c.c.c.c.c.c.c.c.c.f.u.8.=.U 5 ~ ` ",
"_ B E C.n.b.c.c.d.c.f.c.d.b.N.f.d.f.f.d.M.M.d.r.1.@.L 8 ! ` ",
"' B E C.n.b.c.f.d.c.f.i.M.M.t.b.f.f.f.N.z.t.f.e.1.@.L 8 ~ ` ",
"' B E C.n.b.c.c.c.f.p.F.G.; X 8.N.f.K.l.+ = N.d.1.@.L 8 ! ` ",
"' B E C.n.b.c.f.d.d.H.x.%     #.F.H.%..   & m.f.1.@.L 8 ~ ` ",
"' B E C.n.b.c.f.f.H.q.X # $.+ >.T.J   : A & v.d.1.@.L 8 ~ ` ",
"' B E C.n.b.c.f.H.%.  * K.z.. z.F   1 T.D @ m.d.1.@.K 8 ~ ` ",
"_ B E C.n.b.c.G.D   1 F.K.1.+ -   T H.K.i @ v.d.1.@.L 8 ! ` ",
"' B E C.n.b.c.H.4   o.U.S.2.O .   l.K.F.p @ v.f.1.@.L 8 ~ ` ",
"' B E C.n.c.c.b.F.5   3 U.e.X 8.:   +.T.C @ m.d.1.@.K 8 ~ ` ",
"' B E Z.n.b.c.d.n.K.D   < s.O <.U.:   +.T % v.d.1.@.L 8 ~ ` ",
"' B E C.n.b.c.f.d.c.K.$.  $ O @.H.H.8   & * v.f.2.@.K 8 ~ ` ",
"' B E C.n.b.b.f.f.f.f.K.0.    <.N.b.P.H   O N.d.1.@.L 8 ! ` ",
"' N E C.n.b.c.f.g.f.f.f.G.w.Y b.g.f.b.H.$.O.b.y.1.@.L 8 ~ ` ",
"' N E C.n.b.b.f.f.f.f.f.p.M.F.f.d.f.d.d.F.S.p.9.1.@.L 8 ~ ` ",
"' B E C.n.g.f.i.u.u.u.u.u.u.u.u.u.u.u.u.u.u.y.9.,.R K 8 ~  .",
"' B M n.g.u.r.9.6.6.6.6.6.6.6.6.6.6.6.6.6.4.2.1.;.Y d 5 ~ ` ",
"' V E c.r.1.:.:.;.;.;.;.;.;.;.;.;.;.;.;.;.;.=.R Y Z a 5 ~  .",
"' W F 7.:.R Y P P P P P P P P P P P P P P P P Z s u e 2 ) ` ",
"_ V m *.I d t y r r r r r r r r r r r r r r r r w 0 9 , ~ | ",
"_ | b z z l h h h h h h h h h h h h h h h h h h h h k h ) ( ",
"/ / | } ] { { { ..[ ....{ { { { ..{ ..{ { { { { { { { ../ ( ",
"/ / / ' _ / / _ / / _ / _ / _ / / / ( ( ( ( ( ( _ _ ( ( ( ( "
};
