/* XPM */
static char *pasteSegmentSMDisabled_xpm[] = {
/* columns rows colors chars-per-pixel */
"30 30 205 2 ",
"   c #6A6262",
".  c #686565",
"X  c #706A6A",
"o  c #706B6B",
"O  c #706C6C",
"+  c #716D6D",
"@  c #726E6E",
"#  c #797575",
"$  c #7B7B7B",
"%  c #7C7C7C",
"&  c gray49",
"*  c #7E7F7F",
"=  c gray50",
"-  c #7F8181",
";  c #7D8585",
":  c #808080",
">  c #808181",
",  c #808282",
"<  c gray51",
"1  c #838383",
"2  c #868383",
"3  c #848484",
"4  c #848585",
"5  c gray52",
"6  c #858686",
"7  c #868686",
"8  c #868787",
"9  c gray53",
"0  c #898686",
"q  c #878888",
"w  c #838C8C",
"e  c #888888",
"r  c #898989",
"t  c gray54",
"y  c #8B8B8B",
"u  c #8C8989",
"i  c gray55",
"p  c #8D8D8D",
"a  c #8E8E8E",
"s  c #8E8F8F",
"d  c gray56",
"f  c #918C8C",
"g  c #908D8D",
"h  c #918D8D",
"j  c #918E8E",
"k  c #918F8F",
"l  c #8F9090",
"z  c #8B9494",
"x  c #8B9696",
"c  c #8B9797",
"v  c #8B9898",
"b  c #909090",
"n  c gray57",
"m  c #929292",
"M  c #939393",
"N  c #969393",
"B  c gray58",
"V  c #949595",
"C  c #959595",
"Z  c gray59",
"A  c #979797",
"S  c #979999",
"D  c #919D9D",
"F  c #929C9C",
"G  c #919E9E",
"H  c #929E9E",
"J  c #939F9F",
"K  c #989898",
"L  c #989999",
"P  c gray60",
"I  c #9A9A9A",
"U  c #9B9B9B",
"Y  c #9A9C9C",
"T  c gray61",
"R  c #9D9D9D",
"E  c #9E9D9D",
"W  c #95A2A2",
"Q  c #96A2A2",
"!  c gray63",
"~  c #A3A0A0",
"^  c #A4A4A4",
"/  c #A5A6A6",
"(  c gray65",
")  c #ACA1A1",
"_  c #A0A9A9",
"`  c #A3ABAB",
"'  c #AAAAAA",
"]  c #AAABAB",
"[  c gray67",
"{  c #AEAEAE",
"}  c #AFAFAF",
"|  c #AABDBD",
" . c #B1B1B1",
".. c #B2B1B1",
"X. c #B2B3B3",
"o. c #B4B4B4",
"O. c #B7B6B6",
"+. c #B7B7B7",
"@. c #BEB5B5",
"#. c #B7B8B8",
"$. c #B0BCBC",
"%. c #B1BCBC",
"&. c #B1BDBD",
"*. c #B2BEBE",
"=. c gray72",
"-. c #BAB9B9",
";. c #BBBABA",
":. c #C4BABA",
">. c #B5C1C1",
",. c #B1C4C4",
"<. c #C1C1C1",
"1. c gray76",
"2. c #C3C3C3",
"3. c #C6C6C6",
"4. c #C7C6C6",
"5. c gray78",
"6. c #C9C4C4",
"7. c #CAC5C5",
"8. c #CCC7C7",
"9. c #C8C8C8",
"0. c #C8C9C9",
"q. c #CBCBCB",
"w. c #CEC9C9",
"e. c #CBCCCC",
"r. c gray80",
"t. c #CDCDCD",
"y. c #CECDCD",
"u. c gray81",
"i. c #D2CFCF",
"p. c gray82",
"a. c #D1D2D2",
"s. c #D2D2D2",
"d. c LightGray",
"f. c gray83",
"g. c #D5D5D5",
"h. c #D5D6D6",
"j. c gray84",
"k. c #D7D7D7",
"l. c #DBD6D6",
"z. c #D8D8D8",
"x. c gray85",
"c. c #DADADA",
"v. c gray86",
"b. c gainsboro",
"n. c #DCDDDD",
"m. c #DDDDDD",
"M. c gray87",
"N. c #DFDFDF",
"B. c #E1DCDC",
"V. c #E3DEDE",
"C. c #E4DFDF",
"Z. c #D9EAEA",
"A. c #D8ECEC",
"S. c #DFF2F2",
"D. c #DCFBFB",
"F. c #DFFCFC",
"G. c #DFFDFD",
"H. c #DDFFFF",
"J. c #DEFFFF",
"K. c #DFFFFF",
"L. c gray88",
"P. c #E1E1E1",
"I. c #E2E2E2",
"U. c gray89",
"Y. c #E3E4E4",
"T. c #E4E4E4",
"R. c #E4E5E5",
"E. c gray90",
"W. c #E6E6E6",
"Q. c #E7E7E7",
"!. c gray91",
"~. c #E9E9E9",
"^. c #EAEAEA",
"/. c gray92",
"(. c #ECECEC",
"). c #EEEFEF",
"_. c #E1F3F3",
"`. c #E2F4F4",
"'. c #E4F4F4",
"]. c #E6FBFB",
"[. c LightCyan",
"{. c #E1FFFF",
"}. c #E2FFFF",
"|. c #E3FFFF",
" X c #E4FCFC",
".X c #E7FDFD",
"XX c #E4FFFF",
"oX c #E5FFFF",
"OX c #E6FFFF",
"+X c #E9FFFF",
"@X c #EAFFFF",
"#X c #EBFFFF",
"$X c #ECFFFF",
"%X c #EDFFFF",
"&X c #EFFFFF",
"*X c #F3F3F3",
"=X c #F6F2F2",
"-X c gray96",
";X c #F5F6F6",
":X c #F6F6F6",
">X c gray97",
",X c azure",
"<X c #F1FFFF",
"1X c #F2FFFF",
"2X c #F9F9F9",
/* pixels */
"[.[.{.|.}.}.}.}.}.}.}.}.}.}.}.}.}.}.}.}.}.}.}.}.}.}.|.}.[.[.",
"[.H.$X&X%X%X%X%X%X%X%X%X%X%X%X%X%X%X%X%X%X%X%X%X%X%X,X1XK.J.",
"{.&X| ; c x x x x x x x x x x x x x x x x x x x c v w D .XOX",
"XX X_ :.w.8.8.8.8.8.8.8.8.8.8.8.8.8.8.8.8.8.8.8.7.6.@.0 Z.@X",
"oXD.>.=X2X>X>X:X:X:X:X:X:X-X-X-X-X;X:X:X:X:X:X:X*X).i.S A.+X",
"XXF.&.C.W.T.I.I.I.I.I.P.!.(.^.^./.~.T.W.P.I.I.P.b.0.~ 4 S.+X",
"XXF.%.C.R.P.M.M.m.m.b.N.v.g.k.k.j.z.c.N.E.v.m.m.u.o.N , _.+X",
"XXF.%.C.T.N.v.c.x.x.m.v.Z : t t < Z q.n d.!.x.h.2.[ h - _.+X",
"XXF.%.C.T.N.c.k.m.I.!.g.a 7 p p 5 P s.$ < p.I.p.<.' j - _.+X",
"XXF.%.C.T.N.c.c.x.s.x.j.C y m m r R v.! e ^ I.f.1.[ j - _.+X",
"XXF.%.C.T.M.M.I.U % y p.R t m n p b r.M.k.s.z.f.1.[ j - _.+X",
"XXF.%.C.T.M.N.L.n = p p.R t m n m d p A a T L.k.1.[ j - _.+X",
"XXF.%.C.T.M.N.L.A 3 m p.T t m n n m a i 3 B P.k.1.[ j - _.+X",
"XXF.%.C.T.M.N.L.A 3 m p.T t m n n n n M t K L.k.1.[ j - _.+X",
"XXF.%.C.T.M.N.L.A 3 m p.T t m n n n n m r K L.k.1.[ j - _.+X",
"XXF.%.C.T.M.N.L.A 3 m p.T t m n n n n m r K L.k.1.[ j - _.+X",
"XXF.%.C.T.M.N.L.A 3 m p.T t m n n n n m r K L.k.1.[ j - _.+X",
"XXF.%.C.T.M.N.L.A 3 m p.T t m n n n n m r K L.k.1.[ j - _.+X",
"XXF.%.C.T.M.N.L.A 3 M s.C 5 p i i i i p 3 n L.k.1.[ j - _.+X",
"XXF.%.C.T.M.N.L.A 3 p M.' 7 n n n b y y < T U.j.1.[ j - _.+X",
"XXF.%.C.T.M.N.L.A r 9 { b.d.d.d.s.d.f.f.d.x.v.s.1.[ j - _.+X",
"XXF.%.C.T.M.L.P.m 5 a 1 m R I U B E L.Q.I.M.c.d.2.[ j - _.+X",
"XXF.%.C.T.N.L.I.U 4 l a q 6 8 9 & M c.b.z.z.x.s.<.] k > _.+X",
"XXF.$.V.Y.b.a.t.q.3.5.5.9.9.9.9.5.e.y.q.r.r.r.3.=./ g - _.+X",
"XXG.$.B.n.4.#. .O.;.-.-.-.-.-.-.;.+. .......X.} ( Y u - _.+X",
"XXG.*.l.1./ L C V B B B B B B B B B C C C C C B b s 2 * `.+X",
"XXOX` ) f # + o O O O O O O O O O O O O O O O o X @   . '.#X",
"{.#X,.F Q H D D D D D D D D D D D D D D D D D D G J z W ].OX",
"[.J.@X+X%X,X<X<X<X<X<X<X<X<X<X<X<X<X<X<X<X<X<X<X<X<X1X1X[.J.",
"[.K.{.XX|.}.}.}.}.}.}.}.}.}.}.}.}.}.}.}.}.}.}.}.}.}.|.}.[.[."
};
