/* XPM */
static char *pasteSegmentSMPressed_xpm[] = {
/* columns rows colors chars-per-pixel */
"30 30 132 2 ",
"   c #010004",
".  c #040309",
"X  c #080309",
"o  c #0E0D0E",
"O  c #1D1816",
"+  c #1D1A1B",
"@  c #201D1E",
"#  c #231F20",
"$  c #262222",
"%  c #2B2626",
"&  c #3F3C36",
"*  c #452C1D",
"=  c #553D2C",
"-  c #4C433B",
";  c #5D4C3D",
":  c #634631",
">  c #4D4940",
",  c #514E47",
"<  c #594D46",
"1  c #5C5249",
"2  c #6C5745",
"3  c #6D5847",
"4  c #61544B",
"5  c #61584D",
"6  c #6F5A48",
"7  c #605951",
"8  c #6F6B5E",
"9  c #71665A",
"0  c #74695F",
"q  c #7A6D61",
"w  c #7E7265",
"e  c #7F7769",
"r  c #7D796D",
"t  c #767E7E",
"y  c #876D5C",
"u  c #86705C",
"i  c #827365",
"p  c #897565",
"a  c #877867",
"s  c #857769",
"d  c #847C6E",
"f  c #8E7E6C",
"g  c #917F6F",
"h  c #827C73",
"j  c #917F70",
"k  c #8F806D",
"l  c #91806F",
"z  c #868173",
"x  c #888275",
"c  c #8D8879",
"v  c #948272",
"b  c #9A8775",
"n  c #9A8A76",
"m  c #968E7E",
"M  c #9C8E7C",
"N  c #A6937E",
"B  c #7B8383",
"V  c #818683",
"C  c #858A84",
"Z  c #848F8F",
"A  c #84908F",
"S  c #8B908B",
"D  c #859190",
"F  c #8C9897",
"G  c #909894",
"H  c #A89681",
"J  c #A69887",
"K  c #AD9984",
"L  c #A6988A",
"P  c #AD9F8A",
"I  c #B19D87",
"U  c #B49F89",
"Y  c #9AA29F",
"T  c #A6A08C",
"R  c #AEA38F",
"E  c #B5A18D",
"W  c #BCA68F",
"Q  c #AEA692",
"!  c #AEA891",
"~  c #B1A792",
"^  c #BEA791",
"/  c #BCAA92",
"(  c #B7A999",
")  c #BDAC99",
"_  c #9BA4A1",
"`  c #BEB6A0",
"'  c #AABDBC",
"]  c #C5AF96",
"[  c #C2B59E",
"{  c #CCB49B",
"}  c #D2B99E",
"|  c #C6B4A0",
" . c #C6BAA1",
".. c #CCBBA3",
"X. c #D5BCA2",
"o. c #DBBEA4",
"O. c #CFC3A8",
"+. c #DCC2A6",
"@. c #D7C1AD",
"#. c #DDC5AB",
"$. c #DBCAAE",
"%. c #D7C5B0",
"&. c #D8C5B0",
"*. c #DFC9B2",
"=. c #E3C7AB",
"-. c #E4CAAE",
";. c #E4CBB1",
":. c #EED2B5",
">. c #E3D6B9",
",. c #EAD3BD",
"<. c #E2D9BA",
"1. c #ECD8BE",
"2. c #F2D6BC",
"3. c #F4D9BC",
"4. c #FBDCBE",
"5. c #F3DBC1",
"6. c #FDE3C5",
"7. c #FFE8C7",
"8. c #FCE2C8",
"9. c #FFEBCB",
"0. c #FFEFD3",
"q. c #FFF5D3",
"w. c #FFF9D6",
"e. c #FFFDDD",
"r. c #DDFFFF",
"t. c #FFFFE1",
"y. c #E0F4F6",
"u. c #E2F7F9",
"i. c #E2FFFF",
"p. c #EBFFFF",
"a. c #F4FFFF",
"s. c #FAFFFF",
/* pixels */
"i.i.r.i.r.i.i.r.i.i.r.i.i.i.i.i.i.i.i.i.i.r.r.i.i.r.i.r.i.r.",
"r.r.a.s.s.s.s.s.a.s.s.s.s.a.a.s.s.s.s.a.s.s.a.s.s.s.s.s.r.i.",
"i.p.' t A Z Z Z Z Z Z Z Z Z Z Z A Z Z A Z Z Z Z A D B F p.p.",
"i.s.B * ; ; ; ; ; ; ; ; ; ; ; ; ; ; ; ; ; ; ; ; ; ; = 1 u.p.",
"i.a.G 3 i a f k f k l l k k k f l k k l g g f f f a y h u.p.",
"i.a.G 2 f n H I K K K K H H H H H H K H K K K K N n g h y.p.",
"i.a.G 3 l I ] { { } { { -.3.2.2.3.=.+.-.] } } X.{ ~ v h r.p.",
"i.p.G 6 n ^ X.-.-.-.-.2.W i i a i E ^ { 7.=.:.2.$.) b h y.u.",
"r.a.G 6 b ] +.:.3.4.4.w.-   .     9 M o <.q.4.5.;.) b h y.p.",
"i.a.G 6 b / +.:.6.w.w.e.,   % %   d [   O <.q.3.*.) b h y.p.",
"i.a.G 6 n / +.6.$.5 - O.0   % $   7 0.} E -.9.5.*.) b h y.p.",
"i.p.G 6 n W o.w.T     E s   $ $ + + 1 q 5 ..q.3.*.) v s r.p.",
"i.a.G 2 n / +.w.! .   ) w   $ $ $ @ .     L t.2.*.) b h y.p.",
"i.a.G 6 n / } w.!     / w   $ # # # $ @ . Q t.2.*.) b h y.p.",
"i.a.G 2 n ^ o.q.! X   ( w   $ $ # # @ @ X Q t.2.*.) b h y.u.",
"i.a.G 6 n ^ o.q.~ X   / w   $ @ # @ $ @ . Q t.5.*.) b h r.p.",
"i.p.G 3 n W } w.! X   / w   $ $ @ # # + . ! t.3.*.) b h u.p.",
"i.a.G 6 n ] +.q.R X   / w   % $ $ $ $ $ . ! t.2.*.) b h y.i.",
"i.p.G 6 b ] } w.! X    .9   . .     .     L t.5.*.) b h y.p.",
"i.a.G 3 b ^ o.q.! X   M >.8 w s d q 1 < 1 $.0.5.*.) b h y.p.",
"i.p.G 6 n / o.q.R . + O m ` ( ) T ..e.q.w.7.4.3.*.) n h y.p.",
"i.a.G 6 n / +.w.!                 & t.7.6.6.6.6.*.) b h y.p.",
"i.a.G 6 n / =.7.5.c d x z d h h r [ q.5.8.8.6.5.*.( b r y.p.",
"i.a.G 6 v W -.:.5.t.t.t.e.e.t.t.t.0.,.5.5.5.5.,.o.( b r y.p.",
"i.a.F 2 l U ..&.&.o.%.o.o.&.o.%.o.%.%.%.&.&.&.o.| R j h y.p.",
"i.a.G 2 g J ~ ) ( ( ( ( ( ( ( ( ( ( ( ( ( ( ) ~ Q L j h y.p.",
"i.s.C : p v l v j j c j j v b b v b v v v v v v j j y q y.p.",
"i.p.' S _ Y Y Y _ Y _ _ Y Y Y G _ G _ _ Y Y Y Y _ _ G _ p.i.",
"r.r.p.a.p.p.p.a.p.p.p.p.p.p.p.p.p.p.p.p.a.p.p.p.a.p.p.a.r.r.",
"r.i.i.i.i.i.i.i.i.p.i.i.i.i.i.p.i.i.i.i.i.i.i.i.p.i.i.r.r.i."
};
