/* XPM */
static char *pasteSegmentSMNormal_xpm[] = {
/* columns rows colors chars-per-pixel */
"30 30 151 2 ",
"   c #000004",
".  c #0A0507",
"X  c #02020A",
"o  c #0A0709",
"O  c #070808",
"+  c #0C0809",
"@  c #0C0B10",
"#  c #110E12",
"$  c #141216",
"%  c #1A1414",
"&  c #171518",
"*  c #1A1519",
"=  c #1C181A",
"-  c #241E1D",
";  c #24211F",
":  c #29231E",
">  c #231F20",
",  c #252121",
"<  c #292222",
"1  c #2B2A29",
"2  c #352E2B",
"3  c #342B25",
"4  c #3B332E",
"5  c #373531",
"6  c #393732",
"7  c #3D3D38",
"8  c #423D36",
"9  c #4B3F36",
"0  c #423E38",
"q  c #4B4036",
"w  c #494138",
"e  c #644328",
"r  c #6D543D",
"t  c #70573F",
"y  c #584C42",
"u  c #655648",
"i  c #685749",
"p  c #755B42",
"a  c #795E44",
"s  c #7B634A",
"d  c #6A6252",
"f  c #746859",
"g  c #7D7265",
"h  c #81654B",
"j  c #8B6F54",
"k  c #95785B",
"l  c #897661",
"z  c #827768",
"x  c #857A6B",
"c  c #8A7D6E",
"v  c #9C7E60",
"b  c #947F69",
"n  c #9F8163",
"m  c #9D866E",
"M  c #928474",
"N  c #A28264",
"B  c #AD8C6D",
"V  c #BB8960",
"C  c #A28A71",
"Z  c #AD9479",
"A  c #B79D7F",
"S  c #BC9978",
"D  c #D3A178",
"F  c #7E8583",
"G  c #858B89",
"H  c #8C9089",
"J  c #8C9695",
"K  c #8E9896",
"L  c #939A94",
"P  c #9A9A90",
"I  c #919C9B",
"U  c #A79682",
"Y  c #B79D81",
"T  c #BA9F82",
"R  c #97A09C",
"E  c #9DA19B",
"W  c #BCA184",
"Q  c #A5A398",
"!  c #A2A8A1",
"~  c #B5BAAF",
"^  c #B4B5AB",
"/  c #AABCBC",
"(  c #B4BAB1",
")  c #C2A687",
"_  c #C3A688",
"`  c #C5A989",
"'  c #CBAE8E",
"]  c #C5B396",
"[  c #CDB291",
"{  c #CDB59B",
"}  c #D5B695",
"|  c #DCB994",
" . c #D7BB9F",
".. c #DDBC99",
"X. c #E1B48C",
"o. c #E8BE93",
"O. c #E0BE9C",
"+. c #D8BFA6",
"@. c #B8C0B7",
"#. c #D5C29F",
"$. c #D8C39F",
"%. c #E1C09D",
"&. c #F4CB9D",
"*. c #CAC4A0",
"=. c #D3C6A4",
"-. c #D9C5A1",
";. c #D4C8A6",
":. c #DBC8A4",
">. c #D8C1AA",
",. c #D6CAA9",
"<. c #DACBAC",
"1. c #DED3AD",
"2. c #E7C4A0",
"3. c #E9C6A1",
"4. c #EDCAA5",
"5. c #EECFA9",
"6. c #F1CCA6",
"7. c #F4CFAA",
"8. c #F6D2AC",
"9. c #FAD4AD",
"0. c #EBD4B3",
"q. c #EDDFB6",
"w. c #E7DBB9",
"e. c #F5D7B3",
"r. c #FAD6B2",
"t. c #F4DAB4",
"y. c #FBD9B5",
"u. c #F4DDBB",
"i. c #FDDDBC",
"p. c #FCE1B7",
"a. c #FDE4BB",
"s. c #FFEABE",
"d. c #B3C3C1",
"f. c #FBDEC2",
"g. c #FFE2C3",
"h. c #FFEBC3",
"j. c #FFEDCC",
"k. c #FFF6C7",
"l. c #FFF2CF",
"z. c #FFFBCD",
"x. c #FFEFD3",
"c. c #FFF1D4",
"v. c #FFF4D9",
"b. c #D6EEF3",
"n. c #DCF3F7",
"m. c #DFF5F8",
"M. c #DCFEFF",
"N. c #E3F6FA",
"B. c #E3FFFF",
"V. c #EBFFFF",
"C. c #F0FFFF",
/* pixels */
"B.B.B.B.B.B.B.B.B.B.B.B.B.B.B.B.B.B.B.B.B.B.B.B.B.B.B.B.B.M.",
"M.M.V.V.V.V.V.V.V.V.V.V.V.V.C.V.V.V.V.V.V.V.C.V.V.V.C.C.B.M.",
"B.V./ F K J J J J J J J J J J J J J J J J J J J J J G I V.B.",
"B.B.! { >.>.>.>.>.>.>.>.>.>.>.>.>.>.>.+.>.>.>.+.+.| D b b.V.",
"B.M.( x.v.v.c.x.x.x.c.c.x.x.x.x.c.x.c.x.c.x.l.j.s.y.o.U b.V.",
"B.M.( u.g.f.f.i.i.f.i.i.j.l.l.l.c.j.g.h.i.i.i.y.9.| S M n.V.",
"B.M.( e.g.i.i.i.u.i.y.i.0.=.,.,.,.<.0.u.j.e.y.9.%.' B c n.B.",
"V.M.( e.f.i.r.r.r.8.i.y.6 . % # o 4 ] 3 ;.z.9.6.O.) N c m.V.",
"B.M.( e.i.y.r.8.i.s.k.8.= X & & X 5 -.  O *.a.3.} W n x m.V.",
"B.M.( e.i.y.r.r.8.#.1.5.3 # , , @ 0 t.y : u s.6.} W n x m.V.",
"V.M.( e.a.i.a.h.w   - $.w @ , , & > ] w.;.#.7.3.} W n x m.V.",
"B.M.( e.i.r.a.a.;   % $.7 @ , , , = = 1 ; w p.8.} W n x m.V.",
"B.M.( r.i.i.a.a.4   > $.0 # , > > ; & & X , a.8.} W N x m.B.",
"B.M.( e.i.y.a.a.2   < $.0 @ , > > > , , @ 2 a.8.} W N x m.V.",
"B.M.( e.i.y.a.a.2   > -.0 # > > ; ; ; , @ 2 a.8.} W n x m.V.",
"B.M.( e.i.y.a.a.2   > -.8 # , > ; ; ; , @ 2 a.9.} W n x m.V.",
"B.M.( e.i.r.a.a.2   < $.8 # > > > > > > @ 2 p.8.} W N x m.V.",
"V.M.( e.i.y.a.a.2   , -.0 @ > > > > > < @ 4 p.8.} W N x N.B.",
"B.M.( e.i.y.a.g.2   < -.1 X $ $ $ $ $ *   ; a.8.} W n x m.B.",
"B.M.( e.a.y.a.a.2   - q.d % > - > - $ $ o 9 s.7.} W n x m.V.",
"B.M.~ t.i.r.a.a.2 + @ f t.;.-.-.-.-.:.-.;.e.9.3.} W N x m.V.",
"B.M.~ t.i.i.a.a., X *   , 7 5 5 1 0 a.k.s.p.7.3.} W n x m.V.",
"V.M.~ t.i.y.i.a.8 o & $ X X   X   : 8.r.6.6.4.%.[ T k x m.V.",
"B.M.~ 9.9.6.3.%...[ [ } [ } } } [ ..2...O.....} W A k z m.V.",
"B.M.~ &.3.} [ ` } O.| | | ......O.} ) ) ` ` _ T Z m j g N.V.",
"B.B.^ X.' T Z C C C C C m C C C C C C C C C C m b l s g N.V.",
"B.B.Q V N j h a a a a a a a a a a a a a a a a p t r e i N.V.",
"B.B.@.P Q L L L L L L L L L L L L L L P L L L L L L H R B.B.",
"B.M.V.B.V.V.V.C.V.C.C.C.V.C.C.C.C.C.V.C.C.C.V.C.C.C.C.C.B.M.",
"M.B.B.B.B.B.B.B.B.B.B.B.B.B.B.B.B.B.B.B.B.B.B.B.B.B.B.B.B.M."
};
