/* XPM */
static char *pasteSegmentSMMouseOver_xpm[] = {
/* columns rows colors chars-per-pixel */
"30 30 167 2 ",
"   c #000004",
".  c #02020A",
"X  c #0A0709",
"o  c #070808",
"O  c #0C0809",
"+  c #0A0507",
"@  c #0C0B10",
"#  c #110E12",
"$  c #141216",
"%  c #1A1414",
"&  c #171518",
"*  c #1A1519",
"=  c #1C181A",
"-  c #241E1D",
";  c #24211F",
":  c #29231E",
">  c #231F20",
",  c #252121",
"<  c #292222",
"1  c #2B2A29",
"2  c #352E2B",
"3  c #342B25",
"4  c #3B332E",
"5  c #373531",
"6  c #393732",
"7  c #3D3D38",
"8  c #423D36",
"9  c #4B3F36",
"0  c #423E38",
"q  c #4B4036",
"w  c #494138",
"e  c #584C42",
"r  c #715B53",
"t  c #655648",
"y  c #6F6F5A",
"u  c #6A6252",
"i  c #75755E",
"p  c #746859",
"a  c #577E60",
"s  c #7B7962",
"d  c #8D4B4B",
"f  c #81584F",
"g  c #8C5F56",
"h  c #875B53",
"j  c #8B6657",
"k  c #8F6158",
"l  c #97695E",
"z  c #916459",
"x  c #87765F",
"c  c #947F67",
"v  c #997261",
"b  c #A47768",
"n  c #578C66",
"m  c #5B8963",
"M  c #5D9064",
"N  c #549266",
"B  c #608862",
"V  c #629368",
"C  c #67986B",
"Z  c #72936C",
"A  c #7D9C74",
"S  c #54AD70",
"D  c #5DB474",
"F  c #78A07E",
"G  c #7FAD7B",
"H  c #7FB07E",
"J  c #39E377",
"K  c #3BE57B",
"L  c #3DEA7B",
"P  c #87846B",
"I  c #9C866D",
"U  c #9D8173",
"Y  c #9C9578",
"T  c #A0896F",
"R  c #AC816E",
"E  c #AF8370",
"W  c #A18B71",
"Q  c #B98676",
"!  c #B78A77",
"~  c #AD9579",
"^  c #AB9277",
"/  c #B69D7F",
"(  c #7CB182",
")  c #3EEA80",
"_  c #3EF083",
"`  c #48E782",
"'  c #4AE984",
"]  c #45E581",
"[  c #57E585",
"{  c #58E786",
"}  c #59E987",
"|  c #57EE89",
" . c #5BE988",
".. c #55EC87",
"X. c #4BF385",
"o. c #4AF689",
"O. c #4FF98C",
"+. c #41F285",
"@. c #52F187",
"#. c #56F289",
"$. c #52F98C",
"%. c #BA9F82",
"&. c #BBA183",
"*. c #CC9C86",
"=. c #EC938B",
"-. c #C2A687",
";. c #C3A688",
":. c #C5A989",
">. c #CBAD8E",
",. c #CDB291",
"<. c #C5B396",
"1. c #D5B695",
"2. c #DABA97",
"3. c #DDBC99",
"4. c #F7A99B",
"5. c #E0BE9C",
"6. c #F4BAA4",
"7. c #D5C29F",
"8. c #D8C39F",
"9. c #E1C09D",
"0. c #CAC4A0",
"q. c #D3C6A4",
"w. c #D9C5A1",
"e. c #D4C8A6",
"r. c #DBC8A4",
"t. c #D6CAA9",
"y. c #DACBAC",
"u. c #DED3AD",
"i. c #E7C4A0",
"p. c #E9C6A1",
"a. c #EDCAA5",
"s. c #EECFA9",
"d. c #F1CCA6",
"f. c #F4CFAA",
"g. c #F5C1A1",
"h. c #F6D2AC",
"j. c #FAD4AD",
"k. c #FFD8AF",
"l. c #EEC0B3",
"z. c #EEC5BE",
"x. c #FFCFB1",
"c. c #EBD4B3",
"v. c #EDDFB6",
"b. c #E7DBB9",
"n. c #F2D6B0",
"m. c #FAD6B2",
"M. c #F4DCB3",
"N. c #FBD9B5",
"B. c #FDDDBC",
"V. c #F3DFBB",
"C. c #FCE1B7",
"Z. c #FDE4BB",
"A. c #FFEABE",
"S. c #F4BEC4",
"D. c #F0C8C1",
"F. c #FFDBC6",
"G. c #FFDECB",
"H. c #FFE2C3",
"J. c #FFEBC3",
"K. c #FFEDCB",
"L. c #FFF6C7",
"P. c #FFF2CF",
"I. c #FFFBCD",
"U. c #FFEFD2",
"Y. c #FFF1D3",
"T. c #FFF4D8",
"R. c #FFF2E1",
/* pixels */
"[ [ [ } [ [ { [ { { { { { { { { [ [ [ } [ } [ [ [ { { { [ [ ",
"[ [ #.X.X.+.X.X.X.X.X.X.X.X.X.X.X.X.X.X.X.X.X.X.X.X.o.$.[ [ ",
"} #.S a n n n N n n n n n n n n n n n n n n n n n n m N | { ",
"} L F S.D.z.z.z.z.z.z.z.z.z.z.z.z.z.z.D.z.D.z.z.l.6.4.U K | ",
"} J ( R.T.T.Y.U.Y.U.U.U.Y.Y.U.U.Y.Y.Y.U.Y.Y.P.P.J.N.g.Y K } ",
" .K ( G.H.F.F.F.F.V.F.B.K.Y.P.P.Y.K.H.J.N.F.N.k.h.2.*.P ] } ",
" .K ( G.H.B.B.N.N.N.N.B.c.e.t.t.t.y.c.V.K.N.N.k.9.>.! P ` | ",
" .K ( F.Z.B.N.N.m.m.Z.N.4 + % # O 2 <.3 e.I.j.f.5.-.! i ` #.",
" .K ( F.Z.N.m.j.C.A.L.s.= . * & . 5 w.+ o 0.Z.9.1.&.E s ' | ",
" .J ( F.B.N.j.m.h.q.u.s.3 $ , , @ 7 M.w : t A.a.1.&.E s ' | ",
" .K ( F.B.N.B.J.w   - 8.0 # , , & ; <.b.y.7.f.a.1.&.E s ` | ",
" .K ( G.B.N.Z.Z.;   % 8.0 # > > , = & 2 ; q C.h.1.&.E s ' | ",
" .K ( F.B.N.Z.Z.4   > 8.8 # , > > , & & . < Z.h.1.&.E s ` | ",
" .K ( G.F.N.Z.A.2   < 8.8 @ > > > > , , O 2 Z.h.1.&.E s ' | ",
" .K ( F.B.N.Z.Z.2   > w.0 # , > > > > , @ 5 C.h.1.&.E s ` | ",
" .J ( F.B.N.Z.A.3   > w.8 # , > > > > , @ 2 Z.m.1.&.E s ' | ",
" .K ( F.Z.N.Z.A.2   < 8.8 @ > > > > > > @ 2 Z.f.1.&.E s ` | ",
" .K ( F.B.N.B.Z.2   < w.0 # > > > > > > @ 4 Z.h.1.&.E s ' | ",
" .K ( F.B.N.Z.A.2   < w.1   $ $ $ $ $ &   - Z.h.2.&.R s ' | ",
" .K ( F.B.N.Z.Z.2   = v.u % > > > > % % O 9 A.f.1.&.E s ' | ",
"} K ( F.B.N.Z.H.2 @ X p M.e.w.w.w.w.r.r.e.h.j.p.2.&.R s ' | ",
" .K ( F.B.N.A.Z.> . * . , 7 5 5 < 0 Z.L.A.Z.f.p.2.&.E s ' | ",
" .K ( F.B.k.m.Z.8 + & $ . .   .   < h.m.d.d.s.5.,./ R s ' | ",
" .K ( N.k.f.p.9.5.,.,.,.1.1.1.1.,.9.i.3.5.3.2.1.;.~ b s ' | ",
"} K %.b.p.2.>.:.1.3.3.3.3.3.3.3.3.1.:.:.:.:.;.%.~ I v i ' | ",
" .) G 5.>./ ^ W W T W T W I I W T T W T W W W I c x j y ' | ",
"{ _ A =.Q b l z k g k k k k k k z g z z k k k k h f d r X.| ",
"[ X.D Z C V M M M M M M M M M M M M M M M M M M M M m M | { ",
"[ [ #.+.o.o.O.O.$.O.O.O.O.O.O.$.$.o.$.$.O.O.O.O.O.$.O.$.[ [ ",
"[ [ [  .{ { { { [ [ } { { [ } { [ [ { { { [ { { } } } [ [ [ "
};
