/* XPM */
static char *pauseSMNormal_xpm[] = {
/* columns rows colors chars-per-pixel */
"30 30 153 2 ",
"   c #020001",
".  c #0F0B0C",
"X  c #120F0D",
"o  c #11110F",
"O  c #151211",
"+  c #1B1513",
"@  c #1D1A16",
"#  c #1C1B18",
"$  c #201814",
"%  c #241E1A",
"&  c #27221D",
"*  c #2C2723",
"=  c #2E2A24",
"-  c #342E26",
";  c #352F29",
":  c #382F2A",
">  c #32312A",
",  c #3B332C",
"<  c #3F3730",
"1  c #453C33",
"2  c #4B4037",
"3  c #4F453B",
"4  c #50453B",
"5  c #53493D",
"6  c #644328",
"7  c #6D543D",
"8  c #70573F",
"9  c #574D42",
"0  c #555144",
"q  c #615547",
"w  c #685749",
"e  c #63594B",
"r  c #755B42",
"t  c #795E44",
"y  c #7B634A",
"u  c #6C6253",
"i  c #736655",
"p  c #766856",
"a  c #736858",
"s  c #786958",
"d  c #7D7265",
"f  c #81654B",
"g  c #8B6F54",
"h  c #95785B",
"j  c #827460",
"k  c #897661",
"l  c #867863",
"z  c #827768",
"x  c #857A6B",
"c  c #8A7D6E",
"v  c #9C7E60",
"b  c #947F69",
"n  c #8A846C",
"m  c #9F8163",
"M  c #9D866E",
"N  c #898671",
"B  c #948870",
"V  c #9C8971",
"C  c #928474",
"Z  c #A28264",
"A  c #AD8C6D",
"S  c #BB8960",
"D  c #A38B71",
"F  c #AD9479",
"G  c #B49C7F",
"H  c #BC9978",
"J  c #D3A178",
"K  c #7E8583",
"L  c #858B89",
"P  c #8C9089",
"I  c #8C9695",
"U  c #8E9896",
"Y  c #939A94",
"T  c #9A9A90",
"R  c #919C9B",
"E  c #A79682",
"W  c #B59E83",
"Q  c #BA9F82",
"!  c #97A09C",
"~  c #9DA19B",
"^  c #BCA184",
"/  c #B8A588",
"(  c #BDAB8D",
")  c #A5A398",
"_  c #A2A8A1",
"`  c #B5BAAF",
"'  c #B4B5AB",
"]  c #AABCBC",
"[  c #B4BAB1",
"{  c #C2A687",
"}  c #C2A688",
"|  c #C5A889",
" . c #CBAE8E",
".. c #CFB594",
"X. c #CDB59B",
"o. c #C6B999",
"O. c #CABD9A",
"+. c #D6B795",
"@. c #DCB994",
"#. c #D7BB9F",
"$. c #DDBC9A",
"%. c #E1B48C",
"&. c #E8BE93",
"*. c #E0BF9C",
"=. c #D8BFA6",
"-. c #B8C0B7",
";. c #CFC19E",
":. c #D0C09E",
">. c #E2C19D",
",. c #F4CB9D",
"<. c #D5C6A2",
"1. c #DFC8A3",
"2. c #D8C1AA",
"3. c #E7C5A1",
"4. c #EAC6A2",
"5. c #EDCAA5",
"6. c #F2CBA5",
"7. c #E1D1AB",
"8. c #F7D3AC",
"9. c #F9D3AD",
"0. c #EED8B1",
"q. c #F5D7B3",
"w. c #FAD6B1",
"e. c #F4DDB5",
"r. c #FBD9B4",
"t. c #F5DABA",
"y. c #FDDDBC",
"u. c #FCE0B7",
"i. c #F6E5BB",
"p. c #FEE4BA",
"a. c #FEEABF",
"s. c #B3C3C1",
"d. c #FBDEC2",
"f. c #FFE2C4",
"g. c #FFEDC2",
"h. c #FFEECE",
"j. c #FFF4C7",
"k. c #FFF6C9",
"l. c #FFFACD",
"z. c #FFF1D4",
"x. c #FFFED1",
"c. c #FFF4D9",
"v. c #FFFFDC",
"b. c #D6EEF3",
"n. c #DCF3F7",
"m. c #DFF5F8",
"M. c #DCFEFF",
"N. c #FFFFE3",
"B. c #FFFFE9",
"V. c #E3F6FA",
"C. c #E3FFFF",
"Z. c #EBFFFF",
"A. c #F0FFFF",
/* pixels */
"C.C.C.C.C.C.C.C.C.C.C.C.C.C.C.C.C.C.C.C.C.C.C.C.C.C.C.C.C.M.",
"M.M.Z.Z.Z.Z.Z.Z.Z.Z.Z.Z.Z.A.Z.Z.Z.Z.Z.Z.Z.Z.Z.Z.Z.Z.A.A.C.M.",
"C.Z.] K R I I I I I I I I I I I I I I I I I I I I I L R C.C.",
"C.C._ X.2.2.2.=.2.2.2.2.2.2.2.2.2.2.2.2.2.2.2.=.#.$.J b b.Z.",
"C.M.[ h.c.c.z.z.z.z.z.z.h.z.z.z.z.z.z.z.z.z.h.j.a.w.&.E b.Z.",
"C.M.[ t.f.d.d.d.d.y.d.d.d.y.d.y.y.d.y.d.d.d.y.r.9.$.H C n.Z.",
"C.M.[ t.f.y.r.r.r.r.r.r.r.r.r.r.r.r.y.r.y.r.w.w.>. .A c n.Z.",
"Z.M.[ q.d.y.r.w.y.x.x.l.x.h.w.w.f.x.l.l.x.g.9.5.*.{ Z c m.Z.",
"C.M.[ q.y.r.w.p.q.p < 2 2 / p.u.3.0 2 1 9 o.p.4.+.^ Z x m.Z.",
"Z.M.[ q.y.r.w.l.i   = , o   7.x.<   , ,   * a.8.+.^ m x m.C.",
"C.M.[ q.y.r.r.l.< * v.N.o.  O.l.  u N.N.n o e.9.+.^ m x m.Z.",
"C.M.[ q.y.r.w.l.3 = k.l.(   ;.l.O e l.l.k @ e.9.+.^ m z m.Z.",
"C.M.[ w.y.r.r.l.3 * j.j./   ;.l.O e j.k.d @ i.8.+.^ Z x m.Z.",
"C.M.[ q.y.r.r.l.3 * a.j./   ;.l.O e j.l.j @ e.8.+.^ m x V.C.",
"C.M.[ q.y.r.w.l.4 * g.j./   ;.l.o w j.k.j @ e.8.+.^ m x m.Z.",
"C.M.[ q.p.r.w.l.3 * j.j./   ;.l.o e j.k.j @ u.8.+.^ m x m.Z.",
"C.M.[ q.y.r.r.l.3 * g.j./   ;.l.+ 0 j.k.j @ u.8.+.^ m x m.Z.",
"Z.M.[ q.y.r.w.l.3 * j.j./   ;.l.@ e j.k.j @ i.8.+.^ m x m.Z.",
"C.M.[ q.y.r.r.l.4 * g.j./   ;.l.@ e j.j.j @ e.8.+.^ m x m.Z.",
"C.M.[ q.y.r.w.l.1 ; v.B.#.  O.l.. a B.B.B o e.8.+.^ m x m.C.",
"C.M.` q.y.r.r.x.5   n n 0   <.x.@ @ N N > o i.9.+.^ Z x m.Z.",
"C.M.[ q.y.r.9.g...- + @ + p p.a.G & + + & V a.5.+.^ Z x m.Z.",
"C.M.` q.p.w.9.6.u.p.0.e.e.a.8.6.p.e.e.0.e.p.5.*. .^ h x m.Z.",
"Z.M.` 9.w.6.4.>.$.4.5.5.5.>.*.$.>.5.5.5.6.*.$. .| F h z V.C.",
"C.M.` ,.4.+. . .| | | | | | | | | | | | | | { G F D g d V.Z.",
"C.C.' %. .Q F D D D D D D D D D D D D D D D D M b k y d V.Z.",
"C.C.) S Z g f t t t t t t t t t t t t t t t t r 8 7 6 w V.Z.",
"C.Z.s.T ) Y Y Y Y Y Y Y Y Y Y Y Y Y Y Y Y Y Y Y Y Y P R C.C.",
"M.C.C.C.Z.Z.A.A.Z.A.Z.A.A.A.Z.A.Z.A.Z.A.A.A.Z.A.A.A.A.A.C.M.",
"C.M.C.C.C.C.C.C.C.C.C.C.C.C.C.C.C.C.C.C.C.C.C.C.C.C.C.C.C.C."
};
