/* XPM */
static char *playSMPressed_xpm[] = {
/* columns rows colors chars-per-pixel */
"30 30 134 2 ",
"   c #030101",
".  c #140F0C",
"X  c #17110E",
"o  c #1D1412",
"O  c #251B16",
"+  c #251E1A",
"@  c #22221E",
"#  c #2E2B26",
"$  c #342E29",
"%  c #35322B",
"&  c #3A3730",
"*  c #452C1D",
"=  c #553D2C",
"-  c #47423C",
";  c #5D4C3D",
":  c #634631",
">  c #4D4B43",
",  c #545045",
"<  c #5F5349",
"1  c #6C5745",
"2  c #6D5847",
"3  c #6F5A48",
"4  c #625F53",
"5  c #676357",
"6  c #73695D",
"7  c #736A62",
"8  c #7F7F70",
"9  c #767E7E",
"0  c #876D5C",
"q  c #86705C",
"w  c #827363",
"e  c #897565",
"r  c #877867",
"t  c #8E7E6C",
"y  c #917F6F",
"u  c #817C73",
"i  c #917F70",
"p  c #8F806D",
"a  c #91806F",
"s  c #848376",
"d  c #948272",
"f  c #9A8775",
"g  c #9A8A76",
"h  c #9C8C7A",
"j  c #A6937E",
"k  c #7B8383",
"l  c #818683",
"z  c #858A84",
"x  c #848F8F",
"c  c #84908F",
"v  c #8B908B",
"b  c #969580",
"n  c #9E9783",
"m  c #859190",
"M  c #8C9897",
"N  c #909894",
"B  c #A89580",
"V  c #A69887",
"C  c #AD9A85",
"Z  c #A6988A",
"A  c #B19D87",
"S  c #B49F89",
"D  c #9AA29F",
"F  c #AFA08F",
"G  c #B3A28F",
"H  c #BDA78F",
"J  c #A5A693",
"K  c #AFA192",
"L  c #B5A797",
"P  c #BDA790",
"I  c #BEA992",
"U  c #B6AA99",
"Y  c #BDAC99",
"T  c #B4B19C",
"R  c #9BA4A1",
"E  c #BDB8A0",
"W  c #AABDBC",
"Q  c #C5AF96",
"!  c #CEB59C",
"~  c #D0B99F",
"^  c #C6B4A0",
"/  c #C3BCA4",
"(  c #CDB9A4",
")  c #D5BCA2",
"_  c #CCC6AB",
"`  c #CFCCAF",
"'  c #DCC2A7",
"]  c #D5C1AD",
"[  c #DDC4AA",
"{  c #D5CAAC",
"}  c #D8CDAF",
"|  c #D8C5B0",
" . c #DECAB2",
".. c #D1D0B3",
"X. c #DAD6BE",
"o. c #E0C7AB",
"O. c #E6CBAF",
"+. c #E5CBB1",
"@. c #EBCDB0",
"#. c #EFD3B6",
"$. c #E0D5B8",
"%. c #EAD3BD",
"&. c #E1D9BB",
"*. c #F1D3B5",
"=. c #F3D6B9",
"-. c #F5D9BC",
";. c #FBDCBD",
":. c #FFE0BF",
">. c #F3DAC1",
",. c #FBDFC1",
"<. c #E1DED0",
"1. c #E9E3C3",
"2. c #F3E4C4",
"3. c #FCE1C4",
"4. c #FFE8C7",
"5. c #F1E5CC",
"6. c #FDE4C8",
"7. c #F7EFCE",
"8. c #FEECCB",
"9. c #FFF0CE",
"0. c #FDEED1",
"q. c #FFF4D2",
"w. c #FFFAD7",
"e. c #FFFCDC",
"r. c #DDFFFF",
"t. c #FFFEE3",
"y. c #FFFFEA",
"u. c #E0F4F6",
"i. c #E2F7F9",
"p. c #E2FFFF",
"a. c #EBFFFF",
"s. c #FFFFF1",
"d. c #F4FFFF",
"f. c #FAFFFF",
/* pixels */
"p.p.r.p.r.p.p.r.p.p.r.p.p.r.p.p.r.p.p.r.p.p.p.p.p.p.r.p.p.r.",
"r.r.d.f.f.f.f.f.f.f.f.f.f.f.d.f.f.f.f.f.d.f.d.f.f.d.f.f.p.r.",
"p.a.W 9 c x x c k c c c x x x x x x x m x x x x m m k M a.p.",
"p.f.k * ; ; ; ; < ; ; ; ; ; ; ; ; ; ; ; ; ; ; ; ; ; = < i.a.",
"p.d.N 2 w r t a p t y a p t p t p p t p t t t t r r 0 u u.a.",
"p.d.N 1 t g j C C C C C C C C C C C C C C C C C B h y u u.a.",
"p.d.N 2 d C Q ~ ! ! ! ! ! ! ! ! ! ! ! ! ! ! ) ~ ! L d u u.a.",
"p.a.N 3 g H ) +.O.O.@.@.O.+.O.O.@.O.O.O.@.+.*.=.{ Y f u u.a.",
"p.d.N 3 g Q ' #.=.;.q.w.8.=.-.-.-.-.-.-.-.;.3.-. .Y f u r.a.",
"p.d.N 3 g I ' #.3.8.6 , &.t.4.;.,.;.;.,.;.3.4.>.| Q f u u.a.",
"p.a.N 2 g H ' *.q.{   @   s w.e.;.;.,.,.;.:.3.>.+.Y f u u.i.",
"p.d.M 3 g I ' *.q.T @ 5.J X @ T t.q.-.-.;.3.3.-.+.Y f u u.a.",
"p.a.N 2 g I ' *.q./ o } s.7.5   > X.t.8.,.,.,.>. .Y f u u.a.",
"p.d.N 3 g I ' *.q./ o } 8.8.y...&   8 e.6.,.,.>. .Y f u u.a.",
"p.d.N 3 g I ' *.q./ o } 8.;.;.w.e.U # # 1.8.,.>. .Y d u u.i.",
"p.d.N 3 g I ' *.q./ o  .8.;.;.3.y.t.-   $.0.,.>. .Q f u r.a.",
"r.d.N 3 g H ' *.q./ o  .8.,.e.t.s   % &.9.;.3.>. .Y f u u.a.",
"p.a.N 3 g H ' *.q./ o { t.t.T @ . b e.w.;.;.4.>.+.Y f u i.i.",
"p.d.M 3 g I ' *.q.E O 0.<.>   5 7.t.3.;.;.,.3.-. .Y f u u.a.",
"p.d.N 2 g H ' *.w.E . 7   % { y.8.-.;.;.;.,.3.>. .Q f u u.a.",
"p.a.N 3 g I ' *.6.5.$ . n t.w.,.,.,.,.,.3.;.3.>. .Y d u u.a.",
"p.d.N 3 g I ' -.,.6.3.2.t.,.,.,.,.,.,.,.3.:.4.>.+.Y f u u.a.",
"p.d.N 3 g I o.:.,.,.0.0.,.,.,.,.,.6.2.,.3.6.6.>. .Y d u u.a.",
"p.d.M 2 f H [ -.>.>.>.>.>.>.>.>.>.>.>.>.>.>.>.%.] P f u r.a.",
"p.a.N 1 y S ) | | | | | | | | | | | | | | | | ) ^ K d u u.a.",
"p.d.N 2 y V L U U U U U U U U U U U U U Y U U L K Z d u u.a.",
"p.f.z : e y d d i d i d d d d d d i i i d d d i i i 0 7 u.a.",
"p.a.W v R R D D R D D R D D D D R D D R D D R D R R N R i.p.",
"p.r.a.d.a.a.a.a.a.d.a.a.a.d.a.a.d.a.a.a.d.a.a.a.d.a.d.d.r.r.",
"p.r.p.p.p.p.p.p.p.p.p.p.p.p.p.p.p.p.p.p.p.p.p.p.p.p.p.p.r.p."
};
