/* XPM */
static char *playSMNormal_xpm[] = {
/* columns rows colors chars-per-pixel */
"30 30 147 2 ",
"   c #020103",
".  c #0B0605",
"X  c #0D0807",
"o  c #050608",
"O  c #15100E",
"+  c #141210",
"@  c #241D1A",
"#  c #24211C",
"$  c #28231D",
"%  c #2F2F27",
"&  c #312D27",
"*  c #3A352D",
"=  c #433D32",
"-  c #484339",
";  c #554B3D",
":  c #644328",
">  c #6D543D",
",  c #70573F",
"<  c #505042",
"1  c #5C5647",
"2  c #5D5C4C",
"3  c #755B42",
"4  c #795E44",
"5  c #685749",
"6  c #64604F",
"7  c #7B634A",
"8  c #796A57",
"9  c #7A705C",
"0  c #7D7265",
"q  c #81654B",
"w  c #8B6F54",
"e  c #95785B",
"r  c #897661",
"t  c #867964",
"y  c #827768",
"u  c #857A6B",
"i  c #8A7D6E",
"p  c #9C7E60",
"a  c #947F69",
"s  c #87836D",
"d  c #88816A",
"f  c #9F8163",
"g  c #9D866E",
"h  c #958A73",
"j  c #9B8A72",
"k  c #928474",
"l  c #939177",
"z  c #9C957B",
"x  c #A28264",
"c  c #AD8C6D",
"v  c #BB8960",
"b  c #A38B71",
"n  c #A5947A",
"m  c #AC9479",
"M  c #B79D7F",
"N  c #BC9978",
"B  c #D3A178",
"V  c #7E8583",
"C  c #858B89",
"Z  c #8C9089",
"A  c #8C9695",
"S  c #8E9896",
"D  c #939A94",
"F  c #9A9A90",
"G  c #919C9B",
"H  c #A79682",
"J  c #A09E82",
"K  c #A59D89",
"L  c #B59E83",
"P  c #BA9F82",
"I  c #97A09C",
"U  c #9DA19B",
"Y  c #BCA184",
"T  c #B5AD8D",
"R  c #A5A398",
"E  c #A2A8A1",
"W  c #B4B5AB",
"Q  c #B5BAAF",
"!  c #AABCBC",
"~  c #B4BAB1",
"^  c #C2A687",
"/  c #C2A688",
"(  c #C5A989",
")  c #CBAE8E",
"_  c #C0AC90",
"`  c #CFB290",
"'  c #CDB59B",
"]  c #C0B999",
"[  c #CAB999",
"{  c #D6B796",
"}  c #DCB994",
"|  c #D7BB9F",
" . c #DDBC9A",
".. c #E1B48C",
"X. c #E8BE93",
"o. c #E0BE9C",
"O. c #D8BFA6",
"+. c #B8C0B7",
"@. c #CAC09E",
"#. c #E4C29E",
"$. c #F4CB9D",
"%. c #D8C1AA",
"&. c #DECEA9",
"*. c #DDD5AE",
"=. c #E7C6A1",
"-. c #EAC7A3",
";. c #EACBA6",
":. c #F1CDA6",
">. c #F5CEA8",
",. c #FACFAA",
"<. c #F5D1AB",
"1. c #FAD4AD",
"2. c #E2D7B5",
"3. c #E7DDB5",
"4. c #E9DEB5",
"5. c #F5D7B3",
"6. c #FAD6B1",
"7. c #F5DBB5",
"8. c #FCDAB5",
"9. c #F5DABA",
"0. c #FDDDBD",
"q. c #EFE5BC",
"w. c #FEE0B7",
"e. c #F4E5BB",
"r. c #FFE6BC",
"t. c #B3C3C1",
"y. c #FBDEC2",
"u. c #E9E7C4",
"i. c #FFE2C4",
"p. c #FFEDC2",
"a. c #FFEECE",
"s. c #FFF3C6",
"d. c #FFF5CA",
"f. c #FFFBCD",
"g. c #FFF1D4",
"h. c #FFFFD3",
"j. c #FFF4D9",
"k. c #FFFFDC",
"l. c #D6EEF3",
"z. c #DCF3F7",
"x. c #DFF5F8",
"c. c #DCFEFF",
"v. c #FFFFE8",
"b. c #E3F6FA",
"n. c #E3FFFF",
"m. c #EBFFFF",
"M. c #F0FFFF",
/* pixels */
"n.n.n.n.n.n.n.n.n.n.n.n.n.n.n.n.n.n.n.n.n.n.n.n.n.n.n.n.n.c.",
"c.c.m.m.m.m.m.m.m.m.m.m.m.m.M.m.m.m.m.m.m.m.m.m.m.m.M.M.n.c.",
"n.m.! V S A A A A A A A A A A A A A A A A A A A A D C G m.n.",
"n.n.E ' %.%.%.O.%.%.%.%.%.%.%.%.%.%.%.%.%.%.%.O.O.} B a l.m.",
"n.c.~ a.j.j.g.g.g.g.g.g.g.g.g.g.g.g.g.g.g.g.g.s.i.8.X.H l.m.",
"n.c.~ 9.i.y.y.0.0.0.y.0.0.0.0.0.9.0.y.0.0.0.0.8.,.} N k z.m.",
"n.c.~ 9.i.0.0.0.9.6.0.6.6.0.0.7.0.8.8.0.0.6.8.1.#.) c s z.n.",
"m.c.~ 5.y.8.8.6.6.a.h.p.6.1.6.6.6.6.6.6.6.6.1.>. .^ x i x.m.",
"n.c.~ 5.8.0.6.6.r.m ; [ h.r.,.<.1.1.1.1.1.6.1.-.{ Y x u b.n.",
"n.c.~ 5.0.8.6.r.<.+     6 q.h.8.1.1.1.6.6.1.<.-.{ Y f u x.m.",
"m.c.~ 5.0.8.6.r.=.  L K     l f.d.1.1.1.1.6.<.-.{ Y f u x.m.",
"n.c.~ 5.0.8.6.r.;.  n v.3.2   # ] f.p.<.1.1.<.-.{ Y f y x.m.",
"n.c.~ 6.0.8.6.r.;.  j s.w.h.@.&   < *.f.w.1.<.-.{ Y f u z.m.",
"n.c.~ 5.0.8.6.r.;.o j s.<.1.s.f.J X   d s.w.>.-.{ Y f u b.n.",
"n.c.~ 5.r.6.6.r.;.o j s.1.1.<.8.f.e.h   * 7.6.-.{ Y f u x.m.",
"n.c.~ 5.0.8.1.r.;.o j s.1.1.1.1.r.h.3.O   5.w.-.{ Y f u b.m.",
"n.c.~ 5.0.6.6.r.;.  j d.1.,.w.h.3.1   = &.r.,.-.{ Y f u x.m.",
"m.c.~ 5.0.8.6.r.;.o j s.1.f.r.u   O z f.p.<.<.-.{ Y f u b.n.",
"n.c.~ 5.0.8.6.r.;.o j k.d.T @   9 e.f.6.<.1.<.-.{ Y f u x.n.",
"n.c.~ 5.0.8.6.r.;.  ( u.=   - &.h.r.<.1.1.1.<.-.{ Y f u x.m.",
"n.c.Q 5.0.8.6.r.;.o % X $ T f.p.<.1.5.1.1.6.<.-.{ Y f u x.m.",
"n.c.~ 5.0.8.6.8.r.8 + t p.f.1.<.1.1.1.1.1.1.<.-.{ Y f u x.m.",
"n.c.Q 5.8.6.1.>.<.w.7.p.6.:.:.:.:.:.>.>.:.>.:.o.{ M e u x.n.",
"n.c.Q 1.8.:.=.#.o.#.;.o. .o.o.o. .#. .#. . .} { ( m e y b.m.",
"m.c.Q $.-.{ ) ) ( ( ( ( ( ( ( ( ( ( ( ( ( ( ^ M m g w 0 b.m.",
"n.c.W ..) P m b b b b b b b b b b b b b b b b g f r 7 0 b.m.",
"n.n.R v x w q 4 4 4 4 4 3 4 4 4 7 3 7 3 3 7 4 , , > : 5 b.m.",
"n.m.+.F R D D D D D D D D D D D D D D D D D F D D S Z I n.n.",
"c.n.n.n.m.m.M.M.M.m.M.M.M.m.M.M.M.M.m.M.M.M.m.M.m.M.M.M.n.c.",
"n.c.n.n.n.n.n.n.n.n.n.n.n.n.n.n.n.n.n.n.n.n.n.n.n.n.n.n.n.n."
};
