/* XPM */
static char *playSMMouseOver_xpm[] = {
/* columns rows colors chars-per-pixel */
"30 30 159 2 ",
"   c #020103",
".  c #0D0807",
"X  c #050608",
"o  c #0B0605",
"O  c #15100E",
"+  c #141210",
"@  c #241D1A",
"#  c #28231D",
"$  c #24211C",
"%  c #2F2F27",
"&  c #312D27",
"*  c #3A352D",
"=  c #433D32",
"-  c #484339",
";  c #554B3D",
":  c #505042",
">  c #5C5647",
",  c #5D5C4C",
"<  c #715B53",
"1  c #64604F",
"2  c #6F6F5A",
"3  c #75755E",
"4  c #7A705C",
"5  c #796A57",
"6  c #577E60",
"7  c #7B7962",
"8  c #8D4B4B",
"9  c #81584F",
"0  c #875B53",
"q  c #8C5F56",
"w  c #8B6657",
"e  c #8F6158",
"r  c #97695E",
"t  c #916459",
"y  c #87765F",
"u  c #867964",
"i  c #997261",
"p  c #947F67",
"a  c #A47768",
"s  c #578C66",
"d  c #5B8963",
"f  c #5D9064",
"g  c #549266",
"h  c #608862",
"j  c #629368",
"k  c #67986B",
"l  c #72936C",
"z  c #7D9C74",
"x  c #54AD70",
"c  c #5DB474",
"v  c #78A07E",
"b  c #7FAD7B",
"n  c #7FB07E",
"m  c #39E377",
"M  c #3BE57B",
"N  c #3DEA7B",
"B  c #87846C",
"V  c #88816A",
"C  c #9C866D",
"Z  c #9B8A72",
"A  c #998673",
"S  c #939177",
"D  c #9C957A",
"F  c #AC816E",
"G  c #AF8370",
"H  c #A28B71",
"J  c #B98676",
"K  c #B78A77",
"L  c #AB9277",
"P  c #AC9579",
"I  c #A5947A",
"U  c #B69D7F",
"Y  c #7CB182",
"T  c #3EEA80",
"R  c #3EF083",
"E  c #48E782",
"W  c #4AE984",
"Q  c #45E581",
"!  c #57E585",
"~  c #58E786",
"^  c #55EC87",
"/  c #59E987",
"(  c #57EE89",
")  c #5BE988",
"_  c #4BF385",
"`  c #4AF689",
"'  c #4FF98C",
"]  c #41F285",
"[  c #52F187",
"{  c #56F289",
"}  c #52F98C",
"|  c #A09E82",
" . c #A59D89",
".. c #B39F85",
"X. c #BA9F82",
"o. c #BBA183",
"O. c #B5AD8D",
"+. c #CC9C86",
"@. c #EC938B",
"#. c #C2A687",
"$. c #C2A688",
"%. c #C5A989",
"&. c #CBAE8E",
"*. c #C0AC90",
"=. c #CFB290",
"-. c #C0B999",
";. c #CAB999",
":. c #D6B796",
">. c #DABA97",
",. c #DDBC9A",
"<. c #F7A99B",
"1. c #E0BE9C",
"2. c #F4BAA4",
"3. c #CAC09E",
"4. c #E4C29E",
"5. c #DECEA9",
"6. c #DDD5AE",
"7. c #E7C6A1",
"8. c #EAC7A3",
"9. c #EACBA6",
"0. c #F5C1A1",
"q. c #F1CDA6",
"w. c #F5CEA8",
"e. c #FACFAA",
"r. c #F5D1AB",
"t. c #FAD4AD",
"y. c #FFD8AF",
"u. c #EEC0B3",
"i. c #EEC5BE",
"p. c #FFCFB1",
"a. c #E2D7B5",
"s. c #E7DDB5",
"d. c #E9DEB5",
"f. c #F2D7B1",
"g. c #FAD6B1",
"h. c #F6DEB6",
"j. c #FBDAB5",
"k. c #FDDDBC",
"l. c #EFE5BC",
"z. c #FEE0B7",
"x. c #FFE6BC",
"c. c #F4E5BB",
"v. c #F4BEC4",
"b. c #F0C8C1",
"n. c #FFDBC6",
"m. c #FFDECB",
"M. c #E9E7C4",
"N. c #FFE2C3",
"B. c #FFEDC2",
"V. c #FFEDCC",
"C. c #FFF3C6",
"Z. c #FFF5CA",
"A. c #FFFBCD",
"S. c #FFF0D4",
"D. c #FFFFD3",
"F. c #FFF4D8",
"G. c #FFFFDC",
"H. c #FFF2E1",
"J. c #FFFFE8",
/* pixels */
"! ! ! / ! ! / ! / ! ! / ! / ! ~ ! ! ! ~ ~ ~ ! ! ! / / ! ! ! ",
"! ! { _ _ _ _ _ _ _ _ _ _ _ _ _ _ _ _ _ _ _ _ _ _ _ ` ' ! ! ",
"/ { x 6 s s s s s s s s s s s s s s s s s s s s s s d g / / ",
"/ N v v.b.i.i.i.i.i.i.i.i.i.i.b.i.i.i.b.b.i.i.i.i.2.<.p M { ",
"/ m Y H.F.F.S.S.S.S.S.S.S.S.S.S.S.S.S.S.S.S.S.V.B.j.0.D M ^ ",
") M Y m.N.n.n.k.k.k.k.n.k.k.k.n.k.k.k.k.k.k.k.j.e.>.+.B Q ( ",
") M Y m.N.k.k.k.j.j.k.g.j.g.h.h.j.k.j.j.j.k.j.t.4.&.K u E ( ",
") M Y n.x.k.g.f.f.V.D.B.g.g.g.g.g.j.g.g.f.g.t.q.,.#.K 7 E ( ",
") M Y n.k.k.g.g.x.I ; ;.D.x.e.r.t.t.t.t.t.y.t.8.:.o.F 7 W ( ",
") m Y n.k.j.g.x.f.+     1 l.A.j.t.t.t.g.t.t.r.8.:.o.G 7 W ( ",
") M Y n.k.j.g.x.7.  .. .    S A.Z.t.t.t.g.t.r.8.:.o.G 7 W ( ",
") M Y n.k.g.g.x.8.  I J.s.,   $ -.A.B.r.t.t.r.9.:.o.G 7 W ( ",
") M Y n.k.j.g.x.9.  Z C.x.A.3.%   : 6.A.z.t.r.8.:.o.G 7 E ( ",
") M Y n.k.j.g.x.9.X Z C.e.t.C.D.| o   B C.z.w.8.:.o.G 7 W ( ",
"/ M Y n.k.g.g.x.9.X Z C.t.t.r.j.A.x.Z   * h.j.8.:.o.G 7 W ( ",
") M Y n.x.j.t.x.9.X Z C.t.t.t.e.x.D.a.O   f.j.8.:.o.G 7 W ( ",
") M Y n.k.g.g.x.9.X Z Z.r.e.z.D.s.>   = 5.x.e.8.:.o.G 7 E ( ",
") M Y m.k.j.g.x.9.  Z C.t.A.x.V   O D A.B.r.r.8.:.o.G 7 E ( ",
") M Y n.x.j.g.x.9.X Z G.Z.O.@   4 c.A.g.r.t.r.8.:.o.G 7 W ( ",
") M Y n.k.j.g.x.9.  %.M.=   - 5.D.x.r.t.t.t.r.8.>.o.G 7 W ( ",
") M Y n.k.j.g.x.9.X & . # O.A.C.r.t.g.t.t.y.r.8.>.o.G 7 W ( ",
") m Y n.k.j.g.j.x.5 O u B.A.t.r.t.t.t.t.t.t.r.8.>.U G 3 W ( ",
") M Y n.j.j.t.w.w.x.h.B.y.8.q.q.r.q.q.q.q.q.9.4.=.U G 7 W [ ",
") M Y k.y.q.4.4.1.4.9.1.,.4.1.,.1.1.1.1.1.,.>.:.%.P a 3 W ( ",
") M | d.4.>.&.&.%.%.%.%.%.%.%.%.%.%.%.%.#.%.#.U P C i 3 W ( ",
") M n 2.&.U L H H H H H H H H H H H H H H H H C C y w 2 ^ ( ",
") R z @.J a r t e e e e e e e e e e e e e e e e 0 < 8 < W { ",
"~ _ c l k j f f f f f f f f f f f f f f f f f f h f h f ^ ^ ",
"! ~ [ ] _ ` ' ' } } } ' ' ' ' ' ' ' ' ' ' ' ' ' } } ' } ~ ! ",
"~ ! ~ ~ ) ! ) ! ! ! ! ! ! ) ! / ) ! ~ ! ~ ~ ~ ~ ~ ~ ~ ~ ! ~ "
};
