/* XPM */
static char *Free_Converter_com_switch_panel_85383334[] = {
/* columns rows colors chars-per-pixel */
"50 50 148 2 ",
"   c #414545",
".  c #424646",
"X  c #434747",
"o  c #444848",
"O  c #454949",
"+  c #464A4A",
"@  c #474B4B",
"#  c #484C4C",
"$  c #4B4F4F",
"%  c #505454",
"&  c #535757",
"*  c #545757",
"=  c #555959",
"-  c #565959",
";  c #575A5A",
":  c #575B5B",
">  c #585C5C",
",  c #5A5D5D",
"<  c #5A5E5E",
"1  c #5B5F5F",
"2  c #5D6161",
"3  c #5E6161",
"4  c #606363",
"5  c #616464",
"6  c #636666",
"7  c #636767",
"8  c #646767",
"9  c #666969",
"0  c #686C6C",
"q  c #696C6C",
"w  c #6B6E6E",
"e  c #6B6F6F",
"r  c #6C6F6F",
"t  c #6E7171",
"y  c #6F7272",
"u  c #717474",
"i  c #737676",
"p  c #747777",
"a  c #767979",
"s  c #777A7A",
"d  c #787B7B",
"f  c #797C7C",
"g  c #7A7C7C",
"h  c #7A7D7D",
"j  c #7C7F7F",
"k  c #7D8080",
"l  c #7E8181",
"z  c #7F8282",
"x  c #808282",
"c  c #818484",
"v  c #828484",
"b  c #838686",
"n  c #848787",
"m  c #858787",
"M  c #868888",
"N  c #868989",
"B  c #888A8A",
"V  c #8C8E8E",
"C  c #8C8F8F",
"Z  c #929595",
"A  c #939595",
"S  c #949696",
"D  c #949797",
"F  c #959797",
"G  c #969898",
"H  c #979999",
"J  c #979A9A",
"K  c #989A9A",
"L  c #999B9B",
"P  c #9A9C9C",
"I  c #9A9D9D",
"U  c #9B9D9D",
"Y  c #9C9E9E",
"T  c #9D9F9F",
"R  c #9EA0A0",
"E  c #9FA1A1",
"W  c #A1A3A3",
"Q  c #A3A5A5",
"!  c #A5A7A7",
"~  c #A6A7A7",
"^  c #A6A8A8",
"/  c #A7A9A9",
"(  c #A8AAAA",
")  c #A9AAAA",
"_  c #AAACAC",
"`  c #ABADAD",
"'  c #ACADAD",
"]  c #ACAEAE",
"[  c #AFB1B1",
"{  c #B0B2B2",
"}  c #B1B2B2",
"|  c #B2B3B3",
" . c #B2B4B4",
".. c #B3B5B5",
"X. c #B4B5B5",
"o. c #B5B7B7",
"O. c #B6B8B8",
"+. c #B7B8B8",
"@. c #B8BABA",
"#. c #BEC0C0",
"$. c #C1C2C2",
"%. c #C6C7C7",
"&. c #C6C8C8",
"*. c #C8C9C9",
"=. c #C9CACA",
"-. c #CBCCCC",
";. c #CCCDCD",
":. c #CECFCF",
">. c #CFD0D0",
",. c #D1D2D2",
"<. c #D2D3D3",
"1. c #D3D4D4",
"2. c #D4D5D5",
"3. c #D5D5D5",
"4. c #D8D8D8",
"5. c #D8D9D9",
"6. c #D9DADA",
"7. c #DADBDB",
"8. c #DCDDDD",
"9. c #DDDDDD",
"0. c gray88",
"q. c #E0E1E1",
"w. c #E2E3E3",
"e. c gray89",
"r. c #E7E8E8",
"t. c #E9E9E9",
"y. c #E9EAEA",
"u. c #EAEBEB",
"i. c #ECEDED",
"p. c gray93",
"a. c #EEEEEE",
"s. c #EFEFEF",
"d. c gray94",
"f. c #F1F1F1",
"g. c gray95",
"h. c #F2F3F3",
"j. c #F3F3F3",
"k. c #F4F4F4",
"l. c #F5F6F6",
"z. c #F6F6F6",
"x. c gray97",
"c. c #F8F8F8",
"v. c #F9F9F9",
"b. c gray98",
"n. c #FBFBFB",
"m. c #FDFDFD",
"M. c #FEFEFE",
"N. c white",
/* pixels */
"N.N.N.N.N.N.N.N.N.N.N.N.N.N.N.N.N.N.N.N.N.N.N.N.N.N.N.N.N.N.N.N.N.N.N.N.N.N.N.N.N.N.N.N.N.N.N.N.N.N.",
"N.N.N.N.N.N.N.N.N.N.N.N.N.N.N.N.N.N.N.N.N.N.N.N.N.N.N.N.N.N.N.N.N.N.N.N.N.N.N.N.N.N.N.N.N.N.N.N.N.N.",
"N.N.N.N.N.N.N.N.N.N.N.N.N.N.N.N.N.N.N.N.N.N.N.N.N.N.N.N.N.N.N.N.N.N.N.N.N.N.N.N.N.N.N.N.N.N.N.N.N.N.",
"N.N.N.N.N.N.N.N.N.N.N.N.N.N.N.N.N.N.N.N.N.N.N.N.N.N.N.N.N.N.N.N.N.N.N.N.N.N.N.N.N.N.N.N.N.N.N.N.N.N.",
"N.N.N.N.N.N.N.N.N.N.N.N.N.N.N.N.N.N.N.N.N.N.N.N.N.N.N.N.N.N.N.N.N.N.N.N.N.N.N.N.N.N.N.N.N.N.N.N.N.N.",
"N.N.N.N.N.N.N.N.N.N.N.N.N.N.N.N.N.N.N.N.N.N.N.N.N.N.N.N.N.N.N.N.N.N.N.N.N.N.N.N.N.N.N.N.N.N.N.N.N.N.",
"N.N.N.N.N.N.N.N.N.N.N.N.N.N.N.N.N.N.N.N.N.N.N.N.N.N.N.N.N.N.N.N.N.N.N.N.N.N.N.N.N.N.N.N.N.N.N.N.N.N.",
"N.N.N.N.N.N.N.N.N.N.N.N.N.N.N.N.N.N.N.N.m.[ 0.N.N.N.N.N.N.N.N.N.N.N.N.n.e.8.g.N.N.N.N.N.N.N.N.N.N.N.",
"N.N.N.N.N.N.N.N.N.N.N.N.N.N.N.N.N.N.N.N.N.7 - e.N.N.N.N.N.N.N.N.N.N.:.b 6 2 i ] c.N.N.N.N.N.N.N.N.N.",
"N.N.N.N.N.N.N.N.N.N.N.N.N.N.N.N.N.N.N.N.N.s     L M.N.N.N.N.N.N.M.c             % 4.N.N.N.N.N.N.N.N.",
"N.N.N.N.N.N.N.N.N.N.N.N.N.N.N.M.h.s.d.z.n.u       & =.N.N.N.N.N.g                 o 7.N.N.N.N.N.N.N.",
"N.N.N.N.N.N.N.N.N.N.N.N.N.7.m ; O + # # # X           g w.N.N.+.      d >.9.W O     y y.N.N.N.N.N.N.",
"N.N.N.N.N.N.N.N.N.N.N.N.^                               < b.N.q     n N.N.N.N.=.      ) N.N.N.N.N.N.",
"N.N.N.N.N.N.N.N.N.N.N.@.        O # # O . .           k r.N.p.O     w.N.N.N.N.N.f     s N.N.N.N.N.N.",
"N.N.N.N.N.N.N.N.N.N.c.=     3 ;.h.j.g.s.a.t       : :.N.N.N.q.    $ z.N.N.N.N.N.P     p N.N.N.N.N.N.",
"N.N.N.N.N.N.N.N.N.N.+.    $ y.N.N.N.N.N.N.d     E N.N.N.N.N.f.#     ,.N.N.N.N.N.w     z N.N.N.N.N.N.",
"N.N.N.N.N.N.N.N.N.N.Z     A N.N.N.N.N.N.N.8 1 r.N.N.N.N.N.N.N.d     0 n.N.N.N.(       O.N.N.N.N.N.N.",
"N.N.N.N.N.N.N.N.N.N.x     ] N.N.N.N.N.N.n.6.b.N.N.N.N.N.N.N.N.*.      ; Q  .a       c x.N.N.N.N.N.N.",
"N.N.N.N.N.N.N.N.N.N.z     | N.N.N.N.N.N.N.N.N.N.N.N.N.N.N.N.N.N.I                 3 k.N.N.N.N.N.N.N.",
"N.N.N.N.N.N.N.N.N.N.x     { N.N.N.N.N.N.N.N.N.N.N.N.N.N.N.N.N.N.N.[ .           f k.N.N.N.N.N.N.N.N.",
"N.N.N.N.N.N.N.N.N.N.x     { N.N.N.N.N.N.N.N.N.N.N.N.N.N.N.N.N.N.N.N.f.[ V N Y 5.N.N.N.N.N.N.N.N.N.N.",
"N.N.N.N.N.N.N.N.N.N.x     { N.N.N.N.N.N.N.N.N.N.N.N.N.N.N.N.N.N.N.N.N.N.N.N.N.N.N.N.N.N.N.N.N.N.N.N.",
"N.N.N.N.N.N.N.N.N.N.x     { N.N.N.N.N.N.N.N.N.N.N.N.N.N.N.N.N.N.N.N.N.N.N.N.N.N.N.N.N.N.N.N.N.N.N.N.",
"N.N.N.N.N.N.N.N.N.N.x     { N.N.N.N.N.N.N.N.N.N.N.N.N.N.N.N.N.N.N.N.N.N.N.N.N.N.N.N.N.N.N.N.N.N.N.N.",
"N.N.N.N.N.N.N.N.N.N.l     ] N.N.N.N.N.N.N.N.N.N.N.N.N.N.N.N.N.N.N.N.N.N.$.s d #.N.N.N.N.N.N.N.N.N.N.",
"N.N.N.N.N.N.N.N.N.N.x     [ N.N.N.N.N.N.N.N.N.N.N.N.N.N.N.N.N.N.N.N.N.N.P     S N.N.N.N.N.N.N.N.N.N.",
"N.N.N.N.N.N.N.N.N.N.u.8.8.h.N.N.N.N.N.N.N.N.N.N.N.N.N.N.N.N.N.N.N.N.N.N.I     F N.N.N.N.N.N.N.N.N.N.",
"N.N.N.N.N.N.N.N.N.N.N.N.N.N.N.N.N.N.N.N.N.N.N.N.N.N.N.N.N.N.N.N.N.N.N.N.I     F N.N.N.N.N.N.N.N.N.N.",
"N.N.N.N.N.N.N.N.N.N.N.N.N.N.N.N.N.N.N.N.N.N.N.N.N.N.N.N.N.N.N.N.N.N.N.N.I     F N.N.N.N.N.N.N.N.N.N.",
"N.N.N.N.N.N.N.N.N.N.N.N.N.N.N.N.N.N.N.N.N.N.N.N.N.N.N.N.N.N.N.N.N.N.N.N.I     F N.N.N.N.N.N.N.N.N.N.",
"N.N.N.N.N.N.N.N.N.N.2.J v N ` a.N.N.N.N.N.N.N.N.N.N.N.N.N.N.N.N.N.N.N.N.I     F N.N.N.N.N.N.N.N.N.N.",
"N.N.N.N.N.N.N.N.g.p             ` N.N.N.N.N.N.N.N.N.N.N.N.N.N.N.N.N.N.N.U     F N.N.N.N.N.N.N.N.N.N.",
"N.N.N.N.N.N.N.f.<                 H N.N.N.N.N.N.N.N.N.N.M.N.N.N.N.N.N.N.R     D N.N.N.N.N.N.N.N.N.N.",
"N.N.N.N.N.N.l.l       h +.( ,       &.N.N.N.N.N.N.N.N.' U N.N.N.N.N.N.N.A     Y N.N.N.N.N.N.N.N.N.N.",
"N.N.N.N.N.N.o.      ' N.N.N.M.e     s N.N.N.N.N.N.i.s   B N.N.N.N.N.N.N.3     X.N.N.N.N.N.N.N.N.N.N.",
"N.N.N.N.N.N.l     r N.N.N.N.N.1.    # d.N.N.N.N./ .     A N.N.N.N.N.N.L     O u.N.N.N.N.N.N.N.N.N.N.",
"N.N.N.N.N.N.p     P N.N.N.N.N.z.$     0.N.N.3.2         4 J G Y T L 8       Z N.N.N.N.N.N.N.N.N.N.N.",
"N.N.N.N.N.N.s     s N.N.N.N.N.q.    + v.M.t                               q m.N.N.N.N.N.N.N.N.N.N.N.",
"N.N.N.N.N.N._       %.N.N.N.N.c     w N.l.q                             C n.N.N.N.N.N.N.N.N.N.N.N.N.",
"N.N.N.N.N.N.u.u     o T 5.-.p       @.N.N.N.>.>         7 ! Y I K U ..t.N.N.N.N.N.N.N.N.N.N.N.N.N.N.",
"N.N.N.N.N.N.N.9.@                 j N.N.N.N.N.N.W       D N.N.N.N.N.N.N.N.N.N.N.N.N.N.N.N.N.N.N.N.N.",
"N.N.N.N.N.N.N.N.9.*             M N.N.N.N.N.N.N.N.t.u   B N.N.N.N.N.N.N.N.N.N.N.N.N.N.N.N.N.N.N.N.N.",
"N.N.N.N.N.N.N.N.N.b.} s 5 9 B <.N.N.N.N.N.N.N.N.N.N.N.~ K N.N.N.N.N.N.N.N.N.N.N.N.N.N.N.N.N.N.N.N.N.",
"N.N.N.N.N.N.N.N.N.N.N.N.N.N.N.N.N.N.N.N.N.N.N.N.N.N.N.N.N.N.N.N.N.N.N.N.N.N.N.N.N.N.N.N.N.N.N.N.N.N.",
"N.N.N.N.N.N.N.N.N.N.N.N.N.N.N.N.N.N.N.N.N.N.N.N.N.N.N.N.N.N.N.N.N.N.N.N.N.N.N.N.N.N.N.N.N.N.N.N.N.N.",
"N.N.N.N.N.N.N.N.N.N.N.N.N.N.N.N.N.N.N.N.N.N.N.N.N.N.N.N.N.N.N.N.N.N.N.N.N.N.N.N.N.N.N.N.N.N.N.N.N.N.",
"N.N.N.N.N.N.N.N.N.N.N.N.N.N.N.N.N.N.N.N.N.N.N.N.N.N.N.N.N.N.N.N.N.N.N.N.N.N.N.N.N.N.N.N.N.N.N.N.N.N.",
"N.N.N.N.N.N.N.N.N.N.N.N.N.N.N.N.N.N.N.N.N.N.N.N.N.N.N.N.N.N.N.N.N.N.N.N.N.N.N.N.N.N.N.N.N.N.N.N.N.N.",
"N.N.N.N.N.N.N.N.N.N.N.N.N.N.N.N.N.N.N.N.N.N.N.N.N.N.N.N.N.N.N.N.N.N.N.N.N.N.N.N.N.N.N.N.N.N.N.N.N.N.",
"N.N.N.N.N.N.N.N.N.N.N.N.N.N.N.N.N.N.N.N.N.N.N.N.N.N.N.N.N.N.N.N.N.N.N.N.N.N.N.N.N.N.N.N.N.N.N.N.N.N."
};
