/* XPM */
static char *SFwdSMPressed_xpm[] = {
/* columns rows colors chars-per-pixel */
"30 30 118 2 ",
"   c black",
".  c #0B0606",
"X  c #0E0D0B",
"o  c #11100E",
"O  c #141310",
"+  c #1C1A16",
"@  c #36312A",
"#  c #3A3630",
"$  c #452C1D",
"%  c #553D2C",
"&  c #454238",
"*  c #49473E",
"=  c #5D4C3D",
"-  c #634631",
";  c #524E43",
":  c #53504A",
">  c #5F5349",
",  c #6C5745",
"<  c #6D5847",
"1  c #6F5A48",
"2  c #635D51",
"3  c #75695F",
"4  c #767E7E",
"5  c #876D5C",
"6  c #86705C",
"7  c #827363",
"8  c #897565",
"9  c #877867",
"0  c #8E7E6C",
"q  c #917F6F",
"w  c #817C73",
"e  c #917F70",
"r  c #8F806D",
"t  c #91806F",
"y  c #948272",
"u  c #9A8775",
"i  c #9A8A76",
"p  c #9B8D7A",
"a  c #A6937E",
"s  c #7B8383",
"d  c #818683",
"f  c #858A84",
"g  c #848F8F",
"h  c #84908F",
"j  c #8B908B",
"k  c #9F9B86",
"l  c #859190",
"z  c #8C9897",
"x  c #909894",
"c  c #A89580",
"v  c #A69887",
"b  c #AD9A85",
"n  c #A6988A",
"m  c #B19D87",
"M  c #B49F89",
"N  c #9AA29F",
"B  c #ADA38F",
"V  c #B3A28F",
"C  c #BDA78F",
"Z  c #AFA192",
"A  c #B5A797",
"S  c #BDA790",
"D  c #B2AC96",
"F  c #BEA992",
"G  c #B7A999",
"H  c #BDAC99",
"J  c #B7B49C",
"K  c #9BA4A1",
"L  c #AABDBC",
"P  c #C5AF96",
"I  c #CEB59C",
"U  c #D0B99F",
"Y  c #C6B4A0",
"T  c #CDBCA4",
"R  c #D5BCA2",
"E  c #DCC2A7",
"W  c #D5C1AD",
"Q  c #DDC4AA",
"!  c #DDCAAD",
"~  c #CECBB0",
"^  c #D8C5B0",
"/  c #DFC9B2",
"(  c #D7D5BD",
")  c #DAD5B9",
"_  c #DAD9BF",
"`  c #E0C7AB",
"'  c #E7CBAF",
"]  c #E5CBB1",
"[  c #EACDB0",
"{  c #EFD3B6",
"}  c #EAD3BD",
"|  c #F1D5B7",
" . c #F4D5B8",
".. c #F5DABC",
"X. c #FBDDBE",
"o. c #DCDDC1",
"O. c #F3DAC1",
"+. c #FBDFC0",
"@. c #E4E0C5",
"#. c #EAE2C2",
"$. c #E8E6CB",
"%. c #EBE8CB",
"&. c #FCE1C4",
"*. c #FDE4C8",
"=. c #FFECCB",
"-. c #FFF0CE",
";. c #FFF4D3",
":. c #FFFDDC",
">. c #DDFFFF",
",. c #FFFFE1",
"<. c #FFFFEB",
"1. c #E0F4F6",
"2. c #E2F7F9",
"3. c #E2FFFF",
"4. c #EBFFFF",
"5. c #FFFFF1",
"6. c #F4FFFF",
"7. c #FAFFFF",
/* pixels */
"3.3.>.3.>.3.3.>.3.3.>.3.3.>.3.3.3.3.3.3.>.3.>.3.3.>.3.>.3.>.",
">.>.6.7.7.7.7.7.7.7.7.7.7.7.6.7.7.7.7.6.7.7.6.7.7.7.7.7.>.3.",
"3.4.L 4 h g g h s h h h g g g g h g g g g g g g l l s z 4.3.",
"3.7.s $ = = = = > = = = = = = = = = = = = = = = = = % > 2.4.",
"3.6.x < 7 9 0 t 0 t 0 r r 0 r 0 r r 0 r 0 r r 0 9 9 5 w 1.4.",
"3.6.x , 0 i a b b b b b b b b b b b b b b b b b c p 0 w 1.4.",
"3.6.x < y b P U I I I I I I I I I I I I I I U U I A u w 1.4.",
"3.4.x 1 i C R ] ' [ ' [ [ ] ' ' ' [ ] ' ' [ {  .W H u w 1.4.",
"3.4.x 1 i F E { .... .&.:.=. ...X.........X.&.X./ P u w >.4.",
"3.6.x 1 i F E | X.X.=.! 2 ! :.X.X.X.X.X.X.+.&.O./ H u w 1.4.",
"3.6.x 1 i F E | X.X.;.~   X $.:.X.X.X.X.+.+.&.O./ H u w 1.2.",
"3.6.x 1 i F E | X.&.X.;.) . o _ :.X.+.X.X.+.&.O./ H u w 1.4.",
"3.6.x < i F E | X.+.X.X.:.( X X o.,.X.X.+.+.*.O./ H u w 1.4.",
"3.4.x 1 i F E | X.X.X.X.X.,.@..   _ :...+.+.*.O./ H u w 1.4.",
"3.6.x < i F E | X.+.X.X.X.X.:.%.# O J ;.X.+.+.O.` H u w 1.4.",
"3.6.x 1 i F E  .X.X.X.X.X...=.<.:   p :.X.+.+.O./ H u w 1.4.",
"3.4.x 1 i F E | X.X.+.X.X.=.,.;   k :.X.X.X.&.../ G u w 1.4.",
"3.6.x 1 i F E | X.X.+...-.,.*   Z <.&.X.+.&.&.O.] H u w >.4.",
"3.4.x 1 i F E | X.+...;.:.&   Z <.X.X.X.X.+.&.O./ H u w 1.4.",
"3.6.x < i F E | X.X.=.#.@   D <.X.X.X.+.X.&.&.O./ H u w 1.2.",
"3.6.x 1 i F E | +.+.;.T + Z <.+.X.X.X.O.+.+.&.../ H u w >.4.",
"3.4.x 1 i F E  .+.*.+.*.*.;.+.+.+.&.&.&.&.+.*.O.] H u w 1.4.",
"3.6.x 1 i F ' X.*.O.+.+.=.*.+.*.&.&.&.&.*.*.*.O.] G u w 1.2.",
">.6.x 1 y C ! ..O.O.O.O.O.O.O.O.O.O.O.O.O.O.O.} W S u w 1.4.",
"3.6.x , q M T W ^ ^ ^ ^ ^ ^ ^ ^ ^ ^ ^ ^ ^ ^ ^ R Y Z y w 1.4.",
"3.6.z , q v A G G G G G G G G G G G G G G G G A A n y w 1.4.",
"3.7.f - 8 q y y y y y y y y y y y y y y y y y y e e 5 3 2.4.",
"3.4.L j K K N N N N N K N N N N N N N K N N N N K K x K 2.3.",
">.>.4.6.4.4.6.4.4.4.4.4.4.4.4.4.4.4.4.4.4.4.6.4.4.4.6.6.>.>.",
">.3.3.3.3.3.3.3.3.3.4.3.3.3.4.3.3.3.3.3.3.3.3.3.3.3.3.3.>.3."
};
