/* XPM */
static char *SFwdSMNormal_xpm[] = {
/* columns rows colors chars-per-pixel */
"30 30 118 2 ",
"   c black",
".  c #352D25",
"X  c #3C3229",
"o  c #40372E",
"O  c #40382E",
"+  c #473C32",
"@  c #644328",
"#  c #6D543D",
"$  c #70573F",
"%  c #5E5B4B",
"&  c #685749",
"*  c #625A4A",
"=  c #755B42",
"-  c #795E44",
";  c #7B634A",
":  c #7D735F",
">  c #7D7265",
",  c #81654B",
"<  c #8B6F54",
"1  c #95785B",
"2  c #897661",
"3  c #837D67",
"4  c #827768",
"5  c #857A6B",
"6  c #8A7D6E",
"7  c #9C7E60",
"8  c #947F69",
"9  c #8A816B",
"0  c #9F8163",
"q  c #90866E",
"w  c #9D866E",
"e  c #928572",
"r  c #9E8B72",
"t  c #9B937A",
"y  c #A28264",
"u  c #AD8C6D",
"i  c #BB8960",
"p  c #A38B71",
"a  c #AD9479",
"s  c #B79D7F",
"d  c #BC9978",
"f  c #D3A178",
"g  c #7E8583",
"h  c #858B89",
"j  c #8C9089",
"k  c #8C9695",
"l  c #8E9896",
"z  c #939A94",
"x  c #9A9A90",
"c  c #919C9B",
"v  c #A79682",
"b  c #B79D81",
"n  c #BA9F82",
"m  c #97A09C",
"M  c #9DA19B",
"N  c #BCA184",
"B  c #A5A398",
"V  c #A2A8A1",
"C  c #B4B5AB",
"Z  c #B5BAAF",
"A  c #AABCBC",
"S  c #B4BAB1",
"D  c #C2A687",
"F  c #C2A688",
"G  c #C5A989",
"H  c #CBAE8E",
"J  c #CFB290",
"K  c #CDB59B",
"L  c #D6B796",
"P  c #DCB994",
"I  c #D7BB9F",
"U  c #DEBD9B",
"Y  c #E1B48C",
"T  c #E8BE93",
"R  c #E0BE9C",
"E  c #D8BFA6",
"W  c #B8C0B7",
"Q  c #E2C09D",
"!  c #F4CB9D",
"~  c #D8C1AA",
"^  c #E7C5A1",
"/  c #EAC7A3",
"(  c #ECCAA4",
")  c #F1CDA6",
"_  c #F2CEA8",
"`  c #F9CEA9",
"'  c #F6D1AB",
"]  c #FAD5AE",
"[  c #EADDB5",
"{  c #F5D7B3",
"}  c #FAD7B2",
"|  c #F5D8B5",
" . c #FCDAB4",
".. c #F5DABA",
"X. c #FDDDBD",
"o. c #FEE5BB",
"O. c #F5EABF",
"+. c #FFE8BD",
"@. c #B3C3C1",
"#. c #FBDEC2",
"$. c #FFE2C4",
"%. c #FEEEC3",
"&. c #FFEECE",
"*. c #FEF2C5",
"=. c #FFF6C9",
"-. c #FFFDCF",
";. c #FFF1D4",
":. c #FFFFD3",
">. c #FFF4D9",
",. c #FFFFD8",
"<. c #D6EEF3",
"1. c #DCF3F7",
"2. c #DFF5F8",
"3. c #DCFEFF",
"4. c #E3F6FA",
"5. c #E3FFFF",
"6. c #EBFFFF",
"7. c #F0FFFF",
/* pixels */
"5.5.5.5.5.5.5.5.5.5.5.5.5.5.5.5.5.5.5.5.5.5.5.5.5.5.5.5.5.3.",
"3.3.6.6.6.6.6.6.6.6.6.6.6.6.6.6.6.6.6.6.6.6.6.6.7.6.7.7.5.3.",
"5.6.A g c k k k k k k k k k k k k k k k k k k k k l h c 6.5.",
"5.5.V K ~ ~ ~ E ~ ~ ~ ~ ~ ~ ~ ~ ~ ~ ~ ~ ~ ~ E E I P f 8 <.6.",
"5.3.S ;.>.;.;.;.;.;.;.;.;.;.;.;.;.;.;.;.;.;.;.&.%. .T v <.6.",
"5.3.S ..$.#.#.#.#.X.#.#.X.X.X.X.#.#...#.X.X.X. .' P d e 1.6.",
"5.3.S | $.X. . . ... . . . . . . . . . . . . .] ^ H u 6 1.5.",
"6.3.S | #.X. . .} } ' &.=.} } |  . .| } } } ] ) P F y 6 2.6.",
"5.3.S { X. .} } ] } o.r r :.} ] ] ] ] ] ] ] ' ( L N y 5 2.6.",
"5.3.S { X. .} ] ]  .*..   t :.} ] ] ] ] ] ] ' / L N 0 5 2.5.",
"6.3.S | X. .} ] ] ] o.[ .   q :. .' ] ] ] ] ] / L N 0 5 2.6.",
"5.3.S | X. .} } ] ] ` *.%.X   9 :. .] ] ] ] ' ( L N 0 4 2.6.",
"5.3.S { X. .} ] ] ] ] ' %.%.X   3 :. .' ] ] ' / L N 0 5 2.6.",
"5.3.S { X. .} } ] ] ] ] _ %.=.+   : :. .] ] ' / L N 0 5 4.5.",
"5.3.S { X. . . .] ] ] ] ] ` +.:.%   * *. .] ' / L N 0 5 2.6.",
"5.3.S { o. .] ] ] ] ] ] ] ` o.:.%   * *. .] ' / L N 0 5 4.5.",
"6.3.S { X.} } } ] ] ] ] ` *.=.+   : :.] ] ] ' ( L N 0 5 2.6.",
"5.3.S { X.} } } ] ] ] ` *.*.O   3 :. .] ] ] ' ( L N 0 5 4.5.",
"5.3.S { X.} } } ] ] ` *.O.X   9 ,. .] ] ] ] ' ^ L N 0 5 2.6.",
"5.3.S } X.} } ] ] ] o.[ .   q ,. .' ] ] ] ] ' / L N 0 5 2.6.",
"5.3.Z { X. .} ] ]  .=..   t :. .] ] ] ] ] ] ' ( L N 0 5 2.6.",
"5.3.Z { X.X.} ] ] ] o.p r -.] ' ] ] ] ] ] ] ' / L N 0 5 2.6.",
"5.3.Z {  . .] ' ) ) ) o.%._ ) ) _ _ _ ) _ _ ) R J b 7 5 2.6.",
"5.3.Z ]  .) ^ R R R U R R R R R R R R R U U P L D a 1 4 2.6.",
"5.3.Z ! / L J G G G G G G G G G G G G G G G D s a w < 4 4.6.",
"5.5.C Y H n a p p p p p p p p p p p p p p p p w 8 2 ; : 4.6.",
"5.5.B i y < , - - - - - - - - - $ ; ; $ - - - = = # @ & 4.6.",
"5.6.@.x M x z z z z z z z z z z x z z z z z z z z z j c 5.5.",
"5.3.6.5.6.6.6.7.7.7.7.6.7.7.7.6.7.7.6.7.7.7.6.7.7.7.7.7.5.3.",
"3.5.5.5.5.5.5.5.5.5.5.5.5.5.5.5.5.5.5.5.5.5.5.5.5.5.5.5.5.3."
};
