/* XPM */
static char *SRewSMPressed_xpm[]  = {
/* columns rows colors chars-per-pixel */
"30 30 115 2 ",
"   c #010101",
".  c #0B0605",
"X  c #0D0D0B",
"o  c #100D0B",
"O  c #181412",
"+  c #2E2A24",
"@  c #34302A",
"#  c #452C1D",
"$  c #553D2C",
"%  c #4C463C",
"&  c #5D4C3D",
"*  c #634631",
"=  c #564F45",
"-  c #5F5349",
";  c #5E584D",
":  c #6C5745",
">  c #6D5847",
",  c #6F5A48",
"<  c #756A5D",
"1  c #767E7E",
"2  c #876D5C",
"3  c #86705C",
"4  c #827363",
"5  c #897565",
"6  c #877867",
"7  c #8E7E6C",
"8  c #917F6F",
"9  c #817C73",
"0  c #917F70",
"q  c #8F806D",
"w  c #91806F",
"e  c #948272",
"r  c #9A8775",
"t  c #9A8A76",
"y  c #938B78",
"u  c #9C8C7A",
"i  c #A6937E",
"p  c #7B8383",
"a  c #818683",
"s  c #858A84",
"d  c #848F8F",
"f  c #84908F",
"g  c #8B908B",
"h  c #859190",
"j  c #8C9897",
"k  c #909894",
"l  c #A89580",
"z  c #A69887",
"x  c #AD9A85",
"c  c #A39B89",
"v  c #B19D87",
"b  c #B49F89",
"n  c #9AA29F",
"m  c #A5A38E",
"M  c #AFA08F",
"N  c #B3A28F",
"B  c #BDA78F",
"V  c #AFA192",
"C  c #B5A797",
"Z  c #BDA790",
"A  c #BEA992",
"S  c #B7A999",
"D  c #BDAC99",
"F  c #9BA4A1",
"G  c #BCB6A0",
"H  c #AABDBC",
"J  c #C5AF96",
"K  c #CEB59C",
"L  c #D0B99F",
"P  c #C6B4A0",
"I  c #C3BDA4",
"U  c #CDB9A4",
"Y  c #D5BCA2",
"T  c #DCC2A7",
"R  c #D5C1AD",
"E  c #DDC4AA",
"W  c #D8C5B0",
"Q  c #D5CDB0",
"!  c #DFC9B2",
"~  c #D9D6BC",
"^  c #D9D8BE",
"/  c #E0C7AB",
"(  c #E6CBAF",
")  c #E9CCAF",
"_  c #E5CBB1",
"`  c #EFD3B6",
"'  c #EAD3BD",
"]  c #E0D9BE",
"[  c #F0D5B7",
"{  c #F3D5B8",
"}  c #F5D9BC",
"|  c #FBDDBE",
" . c #DBDCC0",
".. c #E6DDC0",
"X. c #F3DAC1",
"o. c #FBDFC0",
"O. c #E6E0C4",
"+. c #E8E4C9",
"@. c #FCE1C4",
"#. c #FEE5C9",
"$. c #FFECCD",
"%. c #FFF0CF",
"&. c #FFEFD0",
"*. c #FEF3D2",
"=. c #FFFAD7",
"-. c #FFFEDD",
";. c #DDFFFF",
":. c #FFFFE2",
">. c #FFFFEC",
",. c #E0F4F6",
"<. c #E2F7F9",
"1. c #E2FFFF",
"2. c #EBFFFF",
"3. c #F4FFFF",
"4. c #FAFFFF",
/* pixels */
"1.1.;.1.1.1.;.;.1.1.;.1.1.;.1.1.;.1.1.;.1.1.;.1.1.1.1.;.1.;.",
";.;.3.4.4.4.4.4.4.4.4.3.4.4.3.4.4.4.4.4.4.4.4.4.4.3.4.4.;.1.",
"1.2.H 1 f d d f d d d f d d d d f d d d p f f f f h p j 2.2.",
"1.4.p # & & & & & & & & & & & & & & & & - & & & & & $ - <.2.",
"1.3.k > 4 6 7 w w 7 q q q 7 q 7 w q 7 w q q q q 6 6 3 9 <.2.",
"1.3.k : 7 t i x x x x x x x x x x x x x x x x x i u 7 9 ;.2.",
"1.3.k > e x J L K K K K K K K K K K K K K K L L K C e 9 ,.2.",
"1.2.k , t B Y _ _ ( ) ( ) ) _ ( ( ) ) ( ( ( { { E D t 9 ,.<.",
"1.2.k , t A T ` } } } } } } } { | -.$.{ } } @.} ! D r 9 ,.2.",
"1.3.k , t A T ` | o.o.| o.o.| %.=.< x %.o.o.#.X.! J r 9 ,.2.",
"1.3.k , t A T { | | o.o.| } $.:.;   y -.| o.@.} ! D r 9 ,.2.",
"1.3.k , t A T ` | o.o.| | *.-.=   c :.| o.o.@.} ! D e 9 ,.2.",
"1.3.k > t A T ` | | | } %.:.%   m :.o.| | o.@.X.! D r 9 ,.<.",
"1.2.k > t A T { | | | *.-.%   m >.| | o.o.o.@.X.! D r 9 ;.2.",
"1.3.k , t A T { | | $.^ @   I :.| | | @.| @.@.X._ D r 9 ,.2.",
";.3.k , t A T { | | *.Q   O =.-.} o.| | | | @.X.! D r 9 ,.2.",
"1.3.k , t A T [ | o.} *.~ . o ..>.| | | | o.@.X.! D r 9 ,.2.",
"1.2.k , t A T [ | o.o.} :. .X o ~ :.| | | | @.} ! D r 9 ;.2.",
"1.3.j , t A T [ o.o.o.o.} :.~ o . ~ -.| | o.@.X.! D r 9 ,.2.",
"1.3.k > t A T [ X.o.o.o.| | -...X   G *.| @.@.X.! D r 9 ,.<.",
"1.2.k , t A T ` o.o.o.o.| | | :...+ 6 -.| | @.} ! D r 9 ;.2.",
"1.3.k , t A T { o.o.o.o.o.o.o.o.*.$.#.o.@.@.#.X._ D r 9 ,.2.",
"1.3.k , t A ( o.#.o.o.o.@.@.o.o.o.&.#.@.@.#.#.X.! D r 9 ,.<.",
"1.3.k > e A T } X.X.X.X.X.X.X.X.X.X.X.X.X.X.X.' R Z r 9 ,.2.",
"1.3.j : 8 b U E W W W W W W W W W W W W W W W Y P V r 9 ,.2.",
"1.3.k > 0 x C S S S S S S S S S C S S S S S S S V c 0 9 ,.2.",
"1.4.s * 5 0 e e 0 e e e e e e e e 0 e e r r e 0 0 0 2 < ,.2.",
"1.2.H g F n n n F F F F n n n n F n n F k n F n F F k F <.1.",
";.;.2.3.2.2.2.2.2.2.2.2.2.3.2.2.2.2.2.2.2.2.2.2.3.2.3.2.1.;.",
"1.;.1.1.1.1.1.1.1.1.1.1.1.1.1.1.1.1.1.1.1.1.1.2.1.1.1.1.1.1."
};
