/* XPM */
static char *SRewSMMouseOver_xpm[] = {
/* columns rows colors chars-per-pixel */
"30 30 133 2 ",
"   c black",
".  c #352D25",
"X  c #3C3229",
"o  c #40372E",
"O  c #40382E",
"+  c #473C32",
"@  c #5E5B4B",
"#  c #625A4A",
"$  c #715B53",
"%  c #6F6F5A",
"&  c #75755E",
"*  c #7D735F",
"=  c #577E60",
"-  c #7B7962",
";  c #8D4B4B",
":  c #81584F",
">  c #875B53",
",  c #8C5F56",
"<  c #8B6657",
"1  c #8F6158",
"2  c #916459",
"3  c #97695E",
"4  c #87765F",
"5  c #837D67",
"6  c #997261",
"7  c #947F67",
"8  c #A37366",
"9  c #A47A69",
"0  c #598362",
"q  c #578C66",
"w  c #5C8F64",
"e  c #549266",
"r  c #5D9064",
"t  c #608862",
"y  c #629368",
"u  c #67986B",
"i  c #72936C",
"p  c #7D9C74",
"a  c #54AD70",
"s  c #5DB474",
"d  c #78A07E",
"f  c #7FAD7B",
"g  c #7FB07E",
"h  c #39E377",
"j  c #3BE57B",
"k  c #3DEA7B",
"l  c #87846B",
"z  c #8A816B",
"x  c #90866E",
"c  c #9C866D",
"v  c #928670",
"b  c #9D8173",
"n  c #9E8B72",
"m  c #9B9379",
"M  c #AC816E",
"N  c #AF8370",
"B  c #A28B71",
"V  c #B28673",
"C  c #B98676",
"Z  c #BC8E7A",
"A  c #AB9277",
"S  c #AD9579",
"D  c #B69D7F",
"F  c #7CB182",
"G  c #3EEA80",
"H  c #3EF083",
"J  c #45E581",
"K  c #48E782",
"L  c #4AE984",
"P  c #57E585",
"I  c #58E786",
"U  c #55EC87",
"Y  c #59E987",
"T  c #57EE89",
"R  c #5BE988",
"E  c #41F285",
"W  c #4BF385",
"Q  c #4AF689",
"!  c #4FF98C",
"~  c #52F187",
"^  c #56F289",
"/  c #52F98C",
"(  c #BA9F82",
")  c #BBA183",
"_  c #CC9C86",
"`  c #EC938B",
"'  c #C2A687",
"]  c #C2A688",
"[  c #C5A989",
"{  c #CBAE8E",
"}  c #CFB290",
"|  c #D6B796",
" . c #DABA97",
".. c #DEBD9B",
"X. c #F7A99B",
"o. c #E0BE9C",
"O. c #F4BAA4",
"+. c #E2C09D",
"@. c #E7C5A1",
"#. c #EAC7A3",
"$. c #ECCAA4",
"%. c #F5C1A1",
"&. c #F1CDA6",
"*. c #F2CEA8",
"=. c #F9CEA9",
"-. c #F6D1AB",
";. c #FAD5AE",
":. c #FFD8AF",
">. c #EEC0B3",
",. c #EEC5BE",
"<. c #FFCFB1",
"1. c #EADDB5",
"2. c #FAD7B2",
"3. c #FCDAB4",
"4. c #FDDDBC",
"5. c #FEE5BB",
"6. c #F5EABF",
"7. c #FFE8BD",
"8. c #F4BEC4",
"9. c #F0C8C1",
"0. c #FFDBC6",
"q. c #FFDECB",
"w. c #FFE2C3",
"e. c #FEEEC3",
"r. c #FFEDCC",
"t. c #FEF2C5",
"y. c #FFF6C9",
"u. c #FFFDCF",
"i. c #FFF0D4",
"p. c #FFFFD3",
"a. c #FFF4D8",
"s. c #FFFFD8",
"d. c #FFF2E1",
/* pixels */
"P P P Y P Y P Y P Y P Y P P Y P P P Y P Y P P I I I I I P P ",
"P P ^ W W E W W W W W W W W W W W E W W W W W W W W Q / P P ",
"Y ^ a = q q q q q q q q q q q q q q q e q q q q q e 0 e T I ",
"Y k d 8.9.,.,.,.,.,.,.,.,.,.,.,.,.,.,.,.,.,.,.,.>.O.X.b j ^ ",
"Y h F d.a.a.i.i.i.i.i.i.i.i.i.i.i.i.i.i.i.i.y.r.e.3.%.m h U ",
"R j F q.w.0.0.4.4.4.6.0.4.0.4.4.4.4.0.4.4.0.4.3.=. ._ l J R ",
"R j F q.w.4.4.4.2.4.3.3.2.4.3.3.4.2.2.4.3.3.3.;.+.{ Z l J R ",
"R j F 0.5.4.2.2.2.2.2.2.2.2.2.2.;.i.t.-.2.2.:.&...' V - L ^ ",
"R j F 0.4.3.2.2.-.-.;.;.;.;.;.2.p.n n 5.2.;.-.$.| ) N - K T ",
"R h F 0.4.2.2.;.2.2.;.;.;.;.3.p.m   . t.3.;.-.#.| ) N - L T ",
"R j F 0.4.3.2.2.2.;.;.;.-.3.p.x   . 1.5.;.;.-.#.| ) N - L T ",
"R j F q.4.3.2.;.-.2.;.-.3.s.z   X 6.t.-.;.;.-.$.| ) N - K T ",
"R j F 0.4.3.2.2.;.;.;.3.p.5   O t.e.=.;.2.-.-.#.| ) N - L T ",
"R j F 0.4.3.3.;.;.;.:.p.*   + y.e.=.;.;.;.2.-.#.| ) N - K T ",
"Y j F 0.4.3.2.;.;.3.t.#   @ p.5.=.;.;.;.;.;.-.#.| ) N - L T ",
"R j F 0.5.3.2.;.;.:.t.#   @ u.5.-.;.;.2.;.;.-.#.| ) N - L T ",
"R j F 0.4.3.3.2.;.;.:.p.*   + y.e.=.;.;.;.;.-.$.| ) N - L T ",
"R j F 0.4.3.2.;.;.;.;.3.p.5   O t.e.=.;.;.;.-.#.| ) N - L T ",
"R j F 0.4.3.2.;.;.;.;.;.3.p.z   X e.e.*.;.;.-.#.| ) M - L T ",
"R j F 0.4.3.2.2.;.;.;.;.-.3.s.v   . 1.5.;.;.-.$.| ) N - K T ",
"R j F 0.4.3.2.2.;.;.;.;.;.-.3.p.m   . t.3.2.-.#.| ) N - L T ",
"R h F 0.4.3.2.;.;.;.;.;.;.;.;.;.u.n n 5.;.;.-.#.| ) N - L T ",
"R j F 0.3.3.;.-.&.&.&.&.*.&.&.&.&.e.7.&.&.*.$.+.} ( 9 - L T ",
"R j F 4.:.*.+.o.+...+.o.+.+.o...o.o...o..... .| ] S 9 - L T ",
"R k g 2.+. .} { [ [ [ [ [ [ [ [ [ [ [ [ [ [ ' D S c 6 & L ^ ",
"R G m O.{ D S B B B B B B B B B B B B B B B B c 7 4 < % ~ R ",
"R H d ` C 8 3 2 1 1 1 1 1 1 1 1 1 1 1 1 1 1 1 1 > : ; $ W T ",
"Y W s u u y r r r r w w r r r r w r r w r r r r w w w r U I ",
"P P ~ E W ! ! ! / ! ! ! / ! ! ! ! ! / ! ! ! ! ! / / ! / P P ",
"P P P Y I I I I P P I I P Y P Y I P I I P Y I I Y P Y P P P "
};
