/* XPM */
static char *startSegmentSMDisabled_xpm[] = {
/* columns rows colors chars-per-pixel */
"30 30 210 2 ",
"   c #676767",
".  c #6A6262",
"X  c #686565",
"o  c #6F6B6B",
"O  c #6D6D6D",
"+  c gray43",
"@  c #6F6F6F",
"#  c #706A6A",
"$  c #706B6B",
"%  c #706C6C",
"&  c #716D6D",
"*  c #726E6E",
"=  c #797575",
"-  c #797979",
";  c gray48",
":  c #7B7B7B",
">  c #7C7C7C",
",  c gray49",
"<  c #7E7F7F",
"1  c gray50",
"2  c #7F8181",
"3  c #7D8585",
"4  c #808080",
"5  c #808181",
"6  c #818181",
"7  c #808282",
"8  c gray51",
"9  c #838383",
"0  c #868383",
"q  c #848585",
"w  c gray52",
"e  c #868686",
"r  c #898686",
"t  c #838C8C",
"y  c #888888",
"u  c gray54",
"i  c #8C8989",
"p  c gray55",
"a  c #8E8F8F",
"s  c #918C8C",
"d  c #908D8D",
"f  c #918D8D",
"g  c #918E8E",
"h  c #918F8F",
"j  c #8B9494",
"k  c #8B9696",
"l  c #8B9797",
"z  c #8B9898",
"x  c #909090",
"c  c #929292",
"v  c #939393",
"b  c #969393",
"n  c gray58",
"m  c #959595",
"M  c gray59",
"N  c #979898",
"B  c #979999",
"V  c #919D9D",
"C  c #929C9C",
"Z  c #919E9E",
"A  c #929E9E",
"S  c #939F9F",
"D  c #989898",
"F  c gray60",
"G  c #9A9A9A",
"H  c #9A9C9C",
"J  c gray61",
"K  c #9D9D9D",
"L  c gray62",
"P  c #9F9F9F",
"I  c #95A2A2",
"U  c #96A2A2",
"Y  c #A0A0A0",
"T  c #A3A0A0",
"R  c gray64",
"E  c #A4A4A4",
"W  c #A5A6A6",
"Q  c gray65",
"!  c #A7A7A7",
"~  c #ACA1A1",
"^  c #A0A9A9",
"/  c #A3ABAB",
"(  c #A9A9A9",
")  c #AAAAAA",
"_  c #AAABAB",
"`  c gray67",
"'  c #AFAFAF",
"]  c #AABDBD",
"[  c #B2B1B1",
"{  c #B2B2B2",
"}  c #B2B3B3",
"|  c gray70",
" . c gray71",
".. c #B6B6B6",
"X. c #B7B7B7",
"o. c #BEB5B5",
"O. c #B0BCBC",
"+. c #B1BCBC",
"@. c #B1BDBD",
"#. c #B2BEBE",
"$. c gray72",
"%. c #BBBBBB",
"&. c #BCBCBC",
"*. c #C4BABA",
"=. c #B5C1C1",
"-. c #B1C4C4",
";. c #C0C0C0",
":. c #C1C1C1",
">. c gray76",
",. c #C3C3C3",
"<. c gray77",
"1. c #C5C5C5",
"2. c #C6C6C6",
"3. c gray78",
"4. c #C9C4C4",
"5. c #CAC5C5",
"6. c #CBC6C6",
"7. c #CCC7C7",
"8. c #C8C9C9",
"9. c #CACACA",
"0. c #CBCBCB",
"q. c #CEC9C9",
"w. c #CCCBCB",
"e. c gray80",
"r. c #CDCDCD",
"t. c gray81",
"y. c #D2CFCF",
"u. c #D0D0D0",
"i. c #D2D2D2",
"p. c LightGray",
"a. c #D3D4D4",
"s. c gray83",
"d. c #D5D5D5",
"f. c #D7D7D7",
"g. c #DBD6D6",
"h. c #D8D8D8",
"j. c gray85",
"k. c #D9DADA",
"l. c #DADADA",
"z. c gray86",
"x. c #DCDBDB",
"c. c gainsboro",
"v. c #DDDDDD",
"b. c gray87",
"n. c #DFDFDF",
"m. c #E1DCDC",
"M. c #E3DEDE",
"N. c #E4DFDF",
"B. c #D9EAEA",
"V. c #D8ECEC",
"C. c #DFF2F2",
"Z. c #DCFBFB",
"A. c #DFFCFC",
"S. c #DFFDFD",
"D. c #DDFFFF",
"F. c #DEFFFF",
"G. c #DFFFFF",
"H. c gray88",
"J. c #E1E1E1",
"K. c #E2E2E2",
"L. c gray89",
"P. c #E4E4E4",
"I. c #E5E4E4",
"U. c #E4E5E5",
"Y. c gray90",
"T. c #E6E6E6",
"R. c #E7E7E7",
"E. c gray91",
"W. c #E9E9E9",
"Q. c #EAEAEA",
"!. c gray92",
"~. c #ECECEC",
"^. c gray93",
"/. c #EEEEEE",
"(. c #EEEFEF",
"). c #EFEFEF",
"_. c #E1F3F3",
"`. c #E2F4F4",
"'. c #E4F4F4",
"]. c #E6FBFB",
"[. c LightCyan",
"{. c #E1FFFF",
"}. c #E2FFFF",
"|. c #E3FFFF",
" X c #E4FCFC",
".X c #E7FDFD",
"XX c #E4FFFF",
"oX c #E5FFFF",
"OX c #E6FFFF",
"+X c #E9FFFF",
"@X c #EAFFFF",
"#X c #EBFFFF",
"$X c #ECFFFF",
"%X c #EDFFFF",
"&X c #EFFFFF",
"*X c gray94",
"=X c #F4F3F3",
"-X c #F6F2F2",
";X c gray96",
":X c #F6F6F6",
">X c gray97",
",X c azure",
"<X c #F1FFFF",
"1X c #F2FFFF",
"2X c #F8F8F8",
"3X c #F9F9F9",
"4X c #FBFBFB",
"5X c #FDFDFD",
"6X c #FDFEFE",
"7X c white",
/* pixels */
"[.[.{.|.}.}.}.}.}.}.}.}.}.}.}.}.}.}.}.}.}.}.}.}.}.}.|.}.[.[.",
"[.D.$X&X%X%X%X%X%X%X%X%X%X%X%X%X%X%X%X%X%X%X%X%X%X%X,X1XG.F.",
"{.&X] 3 l k k k k k k k k k k k k k k k k k k k l z t V .XOX",
"XX X^ *.q.7.7.7.7.7.7.7.7.7.7.7.7.7.7.6.6.6.6.7.5.4.o.r B.@X",
"oXZ.=.-X3X>X>X:X:X:X:X:X:X:X:X:X:X:X:X4X6X5X2X;X=X(.y.B V.+X",
"XXA.@.N.T.P.K.K.K.K.K.K.K.K.K.K.K.H.W.Y.v.H.!.L.x.8.T q C.+X",
"XXA.+.N.U.J.b.b.v.v.v.v.v.v.v.v.v.P.u.x 4 8 { P.u.| b 7 _.+X",
"XXA.+.N.P.n.z.l.j.j.j.j.j.j.j.j.l.R.Y 1 &.P : t.0.) f 2 _.+X",
"XXA.+.N.P.b.l.j.j.j.j.j.j.j.j.j.l.Y.J v 7Xt.> 9.9.( g 2 _.+X",
"XXA.+.N.P.n.z.j.j.j.j.j.j.j.j.j.j.W.Y w p.' > 0.0.) g 2 _.+X",
"XXA.+.N.P.n.z.j.j.j.j.j.j.j.j.f.c.*X3., ; - P h.1._ g 2 _.+X",
"XXA.+.N.P.n.z.j.j.j.j.j.j.j.f.H.P.m ..v.>.3.v.f.:.` g 2 _.+X",
"XXA.+.N.P.n.z.j.j.j.j.j.j.f.v.Q.P O >./.L.P.b.u.>.` g 2 _.+X",
"XXA.+.N.P.n.z.j.j.j.j.j.h.z.^.`   ;.!.f.h.h.l.i.>.` g 2 _.+X",
"XXA.+.N.P.n.z.j.j.j.j.j.l.^.X.O | ~.l.h.j.j.l.i.>.` g 2 _.+X",
"XXA.+.N.P.n.z.j.j.j.j.h.!.<.@ Q ^.c.h.j.j.j.l.i.>.` g 2 _.+X",
"XXA.+.N.P.n.z.j.j.j.f.Q.t.+ F Q.n.h.j.j.j.j.l.i.>.` g 2 _.+X",
"XXA.+.N.P.n.l.j.b.b.Y.r.; p Y.J.f.j.j.j.j.j.l.i.>.` g 2 _.+X",
"XXA.+.N.P.b.c.K.l.h.).! 4 b.P.f.j.j.j.j.j.j.l.i.>.` g 2 _.+X",
"XXA.+.N.P.n.L. .w 6 M 9.H.K.f.j.j.j.j.j.j.j.l.i.>.` g 2 _.+X",
"XXA.+.N.P.R.d.> G | > ) ^.h.j.j.j.j.j.j.j.j.l.i.>.` g 2 _.+X",
"XXA.+.N.P.E.i.; r.7Xc K T.z.l.l.l.l.l.l.l.l.z.p.,.` g 2 _.+X",
"XXA.+.N.K.E.s.:  .j.u P I.k.j.j.j.j.j.j.j.j.j.i.:._ h 5 _.+X",
"XXA.O.M.L.n.s.G 9 e y X.a.w.e.e.e.e.e.e.e.e.e.2.$.W d 2 _.+X",
"XXS.O.m.c.1.%. .E R ` $.{ [ [ [ [ [ [ [ [ [ } ' Q H i 2 _.+X",
"XXS.#.g.>.W N D L L J m n m m m m m m m m m m n x a 0 < `.+X",
"XXOX/ ~ s = & o o o o % % % % % % % % % % % % $ # * . X '.#X",
"{.#X-.C U A V V V V V V V V V V V V V V V V V V Z S j I ].OX",
"[.F.@X+X%X,X<X<X<X<X<X<X<X<X<X<X<X<X<X<X<X<X<X<X<X<X1X1X[.F.",
"[.G.{.XX|.}.}.}.}.}.}.}.}.}.}.}.}.}.}.}.}.}.}.}.}.}.|.}.[.[."
};
