/* XPM */
static char *startSegmentSMNormal_xpm[] = {
/* columns rows colors chars-per-pixel */
"30 30 151 2 ",
"   c #010001",
".  c #0A0609",
"X  c #110C0B",
"o  c #130F13",
"O  c #2E2623",
"+  c #302523",
"@  c #3E332C",
"#  c #3D3632",
"$  c #453D35",
"%  c #4C453B",
"&  c #50483F",
"*  c #644328",
"=  c #6D543D",
"-  c #70573F",
";  c #4E4B40",
":  c #685749",
">  c #645B4E",
",  c #695B4E",
"<  c #755B43",
"1  c #795E44",
"2  c #685E50",
"3  c #7B634A",
"4  c #6A6151",
"5  c #776B5E",
"6  c #7B6D5C",
"7  c #7D7265",
"8  c #81654B",
"9  c #8B6F54",
"0  c #95785B",
"q  c #837465",
"w  c #897661",
"e  c #837865",
"r  c #887967",
"t  c #827768",
"y  c #857A6B",
"u  c #8A7D6E",
"i  c #917D67",
"p  c #9C7E60",
"a  c #947F69",
"s  c #8D806B",
"d  c #9F8163",
"f  c #9D866E",
"g  c #8D8477",
"h  c #9D8671",
"j  c #928474",
"k  c #A28264",
"l  c #AD8C6D",
"z  c #BB8960",
"x  c #A38B71",
"c  c #AE9579",
"v  c #A3937B",
"b  c #B59B7D",
"n  c #BC9978",
"m  c #D3A178",
"M  c #7E8583",
"N  c #858B89",
"B  c #8C9089",
"V  c #8C9695",
"C  c #8E9896",
"Z  c #939A94",
"A  c #9A9A90",
"S  c #919C9B",
"D  c #A79682",
"F  c #AD9C81",
"G  c #B59D82",
"H  c #BB9F83",
"J  c #97A09C",
"K  c #9DA19B",
"L  c #ADA085",
"P  c #BCA184",
"I  c #B8A78A",
"U  c #BBA88A",
"Y  c #A5A398",
"T  c #A2A8A1",
"R  c #B5BAAF",
"E  c #B4B5AB",
"W  c #AABCBC",
"Q  c #B4BAB1",
"!  c #C2A687",
"~  c #C2A688",
"^  c #C5A989",
"/  c #CAAD8D",
"(  c #C0AF91",
")  c #C6B594",
"_  c #CEB492",
"`  c #CDB59B",
"'  c #C7B999",
"]  c #CEBB9F",
"[  c #D5B695",
"{  c #DAB995",
"}  c #D5BD9C",
"|  c #DDBC9A",
" . c #E1B48C",
".. c #E8BE93",
"X. c #E0BE9C",
"o. c #D8BFA6",
"O. c #D7BFA9",
"+. c #B8C0B7",
"@. c #F4CB9D",
"#. c #C7C1A2",
"$. c #D0C3A0",
"%. c #D7C0AA",
"&. c #D8C1AB",
"*. c #D9CAA8",
"=. c #DDD2AD",
"-. c #D9D5B6",
";. c #E6C3A0",
":. c #EAC7A3",
">. c #EDCBA5",
",. c #F2CEA7",
"<. c #F4CEA9",
"1. c #F9CFA9",
"2. c #EDD5AD",
"3. c #F6D2AB",
"4. c #FAD5AE",
"5. c #E8D0B4",
"6. c #EBDDB5",
"7. c #ECD5B8",
"8. c #F5D7B3",
"9. c #FAD7B2",
"0. c #F5D9B4",
"q. c #FCDAB5",
"w. c #F5DABA",
"e. c #FDDDBC",
"r. c #EEE2B9",
"t. c #FFE1B7",
"y. c #FEE4B9",
"u. c #FFEBBE",
"i. c #B3C3C1",
"p. c #FBDEC2",
"a. c #FDE1C3",
"s. c #FFEDC3",
"d. c #FFEDCD",
"f. c #FFF1C5",
"g. c #FFF1CD",
"h. c #FFFCCE",
"j. c #FFEFD3",
"k. c #FFF1D4",
"l. c #FFFFD4",
"z. c #FFF4D9",
"x. c #FFFEDB",
"c. c #D6EEF3",
"v. c #DCF3F7",
"b. c #DFF5F8",
"n. c #DCFEFF",
"m. c #FFFFE2",
"M. c #E3F6FA",
"N. c #E3FFFF",
"B. c #EBFFFF",
"V. c #F0FFFF",
"C. c #FFFFFF",
/* pixels */
"N.N.N.N.N.N.N.N.N.N.N.N.N.N.N.N.N.N.N.N.N.N.N.N.N.N.N.N.n.N.",
"n.n.B.B.B.B.B.B.B.B.B.B.B.V.B.B.B.B.B.B.B.B.B.B.B.B.V.V.N.n.",
"N.B.W M C C V V V V V V V V V V V V V V V V V V V Z N S B.N.",
"N.N.T ` &.&.&.&.&.&.&.&.&.&.&.&.%.%.%.O.O.&.&.o.} { m a c.B.",
"N.n.Q k.z.z.k.j.j.j.k.j.k.k.k.k.k.j.j.x.m.m.k.d.a.q.;.v c.B.",
"N.n.Q w.a.p.p.p.p.e.p.p.e.e.e.e.e.e.j.a.5.7.g.y.1.| n j v.B.",
"N.n.Q 8.a.e.e.q.w.q.e.q.q.q.q.q.q.s.] O   . 5 y.:./ l s v.N.",
"B.n.Q 8.p.e.9.9.9.9.9.9.9.9.9.8.q.h.&   g &   } 3.P k u b.B.",
"N.n.Q 8.e.q.9.9.9.4.4.4.4.4.4.4.4.f.% O C.'   _ >.P k y b.B.",
"N.n.Q 8.e.9.9.4.4.4.9.4.4.4.9.4.4.h.% . #.6   _ >.H d y b.N.",
"N.n.Q 8.e.e.9.9.4.4.4.4.4.4.4.3.q.l.I .     % 3.| P d y b.B.",
"B.n.Q 8.e.q.9.4.4.4.4.4.4.4.3.u.u.$ u -.G I 8.3.[ P d t b.B.",
"N.n.R 8.e.q.9.4.4.4.4.4.4.4.q.h.%   F l.s.f.q.;.[ P d t b.B.",
"N.n.Q 8.e.q.9.9.4.4.4.4.3.q.l.4   v h.3.3.4.3.:.[ P d y M.N.",
"N.n.R 8.e.q.q.4.4.4.4.4.4.l.s   e l.4.4.4.4.3.:.[ P d y b.B.",
"N.n.Q 8.y.9.9.9.4.4.4.3.l.L   > l.q.4.4.4.4.4.:.[ P d y M.B.",
"N.n.Q 8.e.q.9.9.4.4.1.h.'   $ h.y.1.4.4.4.4.3.:.[ P d y b.B.",
"N.n.Q 8.e.q.9.9.t.y.s.'   O s.u.1.4.4.4.9.4.3.:.[ P d y M.N.",
"B.n.R 8.e.9.9.s.8.2.x.2 X r.f.1.4.4.4.4.4.4.3.:.[ P k y b.N.",
"N.n.R 8.y.q.a.r .   @ U r.u.3.4.9.4.4.4.4.4.3.:.[ P d y b.B.",
"N.n.R 8.e.d.*.  # q   2 l.4.4.4.4.9.4.4.4.4.3.:.[ P d y M.N.",
"N.n.Q 8.e.s.$.  ) C.O $ f.4.4.4.4.3.4.4.4.4.3.:.[ P d y b.B.",
"N.n.Q 8.q.f.}   r -.o $ u.<.,.,.,.,.,.,.,.,.>.;.[ b 0 y b.B.",
"N.n.R 4.4.4.>.#       h 4.X.X.| ;.| | ;.| | { _ ^ c 0 e M.N.",
"N.n.R @.:.[ | / i w x { ^ ^ ^ ^ ! ^ ^ ^ ^ ^ ^ b c h 9 7 M.B.",
"N.N.E  ./ H x b ^ ^ P x x x x x x x x x x x x f d w 3 7 M.B.",
"N.N.Y z k 9 8 1 < < < 1 1 1 1 1 - 3 3 - 1 1 1 - < = * : M.B.",
"N.B.i.A K A Z Z Z Z Z Z Z Z Z Z A Z Z Z Z Z Z Z V Z B J B.N.",
"N.n.B.N.B.B.B.V.V.V.B.V.V.V.B.V.V.V.B.V.V.V.B.V.B.V.V.V.N.n.",
"n.N.N.N.N.N.N.N.N.N.N.N.N.N.N.N.N.N.N.N.N.N.N.N.N.N.N.N.n.N."
};
