/* XPM */
static char *startSegmentSMPressed_xpm[] = {
/* columns rows colors chars-per-pixel */
"30 30 124 2 ",
"   c #020102",
".  c #080303",
"X  c #0D0C0C",
"o  c #262321",
"O  c #292222",
"+  c #3A3533",
"@  c #3F3F37",
"#  c #452C1D",
"$  c #553D2C",
"%  c #403A35",
"&  c #5D4C3D",
"*  c #634631",
"=  c #504E45",
"-  c #5E5349",
";  c #5F5A4F",
":  c #6C5745",
">  c #6D5847",
",  c #62584F",
"<  c #6F5A48",
"1  c #675E55",
"2  c #726A5F",
"3  c #756D60",
"4  c #767E7E",
"5  c #876D5C",
"6  c #86705C",
"7  c #827363",
"8  c #897565",
"9  c #877867",
"0  c #827C6D",
"q  c #8E7E6C",
"w  c #917F6F",
"e  c #817C73",
"r  c #917F70",
"t  c #8F806D",
"y  c #91806F",
"u  c #8A8477",
"i  c #8B8279",
"p  c #948272",
"a  c #9A8775",
"s  c #9A8A76",
"d  c #9C8C7A",
"f  c #99907E",
"g  c #A6937E",
"h  c #7B8383",
"j  c #818683",
"k  c #858A84",
"l  c #848F8F",
"z  c #84908F",
"x  c #8B908B",
"c  c #859190",
"v  c #8C9897",
"b  c #909894",
"n  c #A99681",
"m  c #A69887",
"M  c #AD9A85",
"N  c #A59A89",
"B  c #AD9E89",
"V  c #B19D87",
"C  c #B39E89",
"Z  c #9AA29F",
"A  c #AFA08F",
"S  c #B5A38F",
"D  c #BAA48D",
"F  c #AFA192",
"G  c #B5A795",
"H  c #BDA791",
"J  c #BEA991",
"K  c #B7A999",
"L  c #BCAC99",
"P  c #BAB29B",
"I  c #9BA4A1",
"U  c #BAAEA0",
"Y  c #AABDBC",
"T  c #C5AF96",
"R  c #C4B099",
"E  c #CDB59C",
"W  c #D1B79E",
"Q  c #C6B4A0",
"!  c #CDB9A4",
"~  c #C5BCA9",
"^  c #D6BDA3",
"/  c #D9BFA5",
"(  c #CCC4AC",
")  c #D5C1A7",
"_  c #DCC2A7",
"`  c #D5C1AD",
"'  c #DDC4A9",
"]  c #D9C5B0",
"[  c #D4C8B4",
"{  c #DFC9B2",
"}  c #E6CCAF",
"|  c #E4CBB1",
" . c #E7D3B7",
".. c #EED2B5",
"X. c #E3D0B9",
"o. c #EAD3BD",
"O. c #E6DBBE",
"+. c #F0D5B7",
"@. c #F0D7BF",
"#. c #F5D9BC",
"$. c #FBDDBE",
"%. c #EFDEC6",
"&. c #F3DAC1",
"*. c #FCDFC0",
"=. c #F5E0C7",
"-. c #FCE2C4",
";. c #F7E3C8",
":. c #FDE5CA",
">. c #F0E8C8",
",. c #FFEBCA",
"<. c #FFF1CF",
"1. c #FFF5D4",
"2. c #FFF9D7",
"3. c #FFFCD9",
"4. c #DDFFFF",
"5. c #FFFFE5",
"6. c #FFFFEA",
"7. c #E0F4F6",
"8. c #E2F7F9",
"9. c #E2FFFF",
"0. c #EBFFFF",
"q. c ivory",
"w. c #F4FFFF",
"e. c #FAFFFF",
/* pixels */
"9.9.4.9.4.9.9.9.9.9.4.9.9.4.9.9.9.4.9.4.9.9.4.9.9.9.9.4.9.4.",
"4.4.w.e.e.e.e.w.w.e.e.e.e.w.e.e.e.e.e.e.e.e.e.w.e.w.e.e.4.9.",
"9.0.Y 4 z l l z l l l l l l l l z l l l l l l l z z h v 0.9.",
"9.e.h # & & & & & & & & & & & & & & & & & & & & & & $ - 8.0.",
"9.w.b > 7 9 q q y q t y t q t q w w q q q q t q q 9 5 0 8.0.",
"9.w.b : q s n M M M M M M M M M M n V T T S n M g s w e 7.0.",
"9.w.b > p V T E E E W E E W E E T ^ ' D C / ' E E F a 0 7.0.",
"9.0.b < s D / } } } } } } | } | ..$.1 .   + #.-.' L s 4 7.0.",
"9.0.b < s J ' ..#.#.#.#.#.#.#.#.,.}   u K   R 2.{ J a 4 7.0.",
"9.w.b < s J _ +.$.$.-.$.$.$.*.$.<.}   [ 5.  J 2.' T a e 7.0.",
"9.w.b < s J _ +.$.$.$.$.$.$.$.$.1.5.o X o   { 1.{ L a e 7.0.",
"9.w.b < s J _ +.$.$.$.$.*.$.#.<.:.e S 2 - G 1.&.| L a e 7.0.",
"9.w.b > s J ' +.$.$.$.$.$.$.,.3.@   >.6.3.2.*.&.{ L a e 7.0.",
"9.0.b > s J _ +.$.$.$.$.$.-.6.;   ( 1.$.*.*.*.&.{ L a e 7.0.",
"4.w.b < s J ' ..$.$.$.$.$.6.0   K 6.#.*.*.*.*.&.| L a e 7.8.",
"9.w.b < s J _ ..$.-.$.$.6.N   f 6.$.$.*.*.*.*.&.{ L a e 4.0.",
"9.w.b < s J _ +.$.-.$.3.P   3 6.-.$.*.$.*.*.-.#.{ L r e 7.0.",
"9.0.b < s J _ +.1.3.6.O.  = 5.-.$.$.$.*.$.*.-.&.| L a e 7.0.",
"9.w.v < a T _ -.G - 3 B u <.,.$.$.$.$.$.$.*.-.&.{ L a e 7.0.",
"9.w.b > s J #.)   o X O 5.<.#.$.$.$.$.$.$.-.-.&.{ T a e 7.0.",
"9.0.b < s D $.V . 6.[   | <.*.*.*.*.*.*.$.$.-.#.{ L a e 7.0.",
"9.w.b < s D *.J   U i    .<.*.;.*.*.*.*.-.-.-.&.| L a 4 7.0.",
"9.w.b < s J +.-.% . . 1 1.:.*.*.;.*.*.*.-.:.,.&.| L p e 7.0.",
"9.w.v > a D ' :.:.~ ~ :.%.&.&.&.&.%.&.%.&.&.&.o./ G a 0 4.0.",
"9.w.v : w C ! ` X.&.%.{ ` ] ] ] ] ] ] ] ] ] ] / Q F r e 7.0.",
"9.w.b : w m G K K K K K K K K K K K K K K K K K F N p e 7.0.",
"4.e.u * 8 w p p p p p p p p p p r r r r p p p r r r 5 3 7.0.",
"9.0.Y x I I Z Z Z Z I I Z Z Z Z I I I I Z Z I Z I I b I 8.9.",
"4.4.0.w.0.0.0.w.0.0.0.0.0.0.w.0.0.0.0.0.0.w.0.0.w.0.0.w.9.4.",
"4.9.9.9.9.9.9.9.9.9.9.9.9.9.9.9.0.9.9.9.9.9.9.9.9.9.9.9.4.9."
};
