/* XPM */
static char *startSegmentSMMouseOver_xpm[] = {
/* columns rows colors chars-per-pixel */
"30 30 161 2 ",
"   c #010001",
".  c #0A0609",
"X  c #110C0B",
"o  c #130F13",
"O  c #2E2623",
"+  c #302523",
"@  c #3E332C",
"#  c #3D3632",
"$  c #453D35",
"%  c #4C453B",
"&  c #50483F",
"*  c #4E4B40",
"=  c #675B4E",
"-  c #685E50",
";  c #715B53",
":  c #6A6151",
">  c #6F6F5A",
",  c #776B5E",
"<  c #7B6D5C",
"1  c #75755E",
"2  c #577E60",
"3  c #7B7962",
"4  c #8D4B4B",
"5  c #81584F",
"6  c #8C5F56",
"7  c #875B53",
"8  c #8B6657",
"9  c #8F6158",
"0  c #906358",
"q  c #98695F",
"w  c #87765F",
"e  c #837465",
"r  c #897560",
"t  c #837865",
"y  c #887967",
"u  c #997261",
"i  c #937E67",
"p  c #A47768",
"a  c #578C66",
"s  c #5B8963",
"d  c #5D9064",
"f  c #549266",
"g  c #608862",
"h  c #629368",
"j  c #67986B",
"k  c #72936C",
"l  c #7D9C74",
"z  c #54AD70",
"x  c #5DB474",
"c  c #78A07E",
"v  c #7FAD7B",
"b  c #7FB07E",
"n  c #39E377",
"m  c #3BE57B",
"M  c #3DEA7B",
"N  c #8D806B",
"B  c #87846B",
"V  c #9C866D",
"C  c #8D8477",
"Z  c #9D8472",
"A  c #9C9578",
"S  c #A08A6F",
"D  c #AC816E",
"F  c #AF8370",
"G  c #A38B71",
"H  c #B98676",
"J  c #B78A77",
"K  c #AD9579",
"L  c #A3937B",
"P  c #B49B7E",
"I  c #7CB182",
"U  c #3EEA80",
"Y  c #3EF083",
"T  c #48E782",
"R  c #4AE984",
"E  c #45E581",
"W  c #57E585",
"Q  c #58E786",
"!  c #55EC87",
"~  c #59E987",
"^  c #57EE89",
"/  c #5BE988",
"(  c #4BF385",
")  c #4AF689",
"_  c #4FF98C",
"`  c #41F285",
"'  c #52F187",
"]  c #56F289",
"[  c #52F98C",
"{  c #AD9C81",
"}  c #BA9F82",
"|  c #B29C82",
" . c #ADA085",
".. c #BBA183",
"X. c #B8A78A",
"o. c #BBA88A",
"O. c #CC9C86",
"+. c #EC938B",
"@. c #C2A687",
"#. c #C2A688",
"$. c #C5A989",
"%. c #C9AD8D",
"&. c #C0AF91",
"*. c #CEB492",
"=. c #C7B999",
"-. c #CEBB9F",
";. c #C6B594",
":. c #D5B695",
">. c #D8B896",
",. c #D4BE9B",
"<. c #DDBC9A",
"1. c #F7A99B",
"2. c #E0BE9C",
"3. c #F4BAA4",
"4. c #C7C1A2",
"5. c #D0C3A0",
"6. c #D9CAA8",
"7. c #DDD2AD",
"8. c #D9D5B6",
"9. c #E6C3A0",
"0. c #EAC7A3",
"q. c #EDCBA5",
"w. c #F5C1A1",
"e. c #F2CEA7",
"r. c #F4CEA9",
"t. c #F9CFA9",
"y. c #EDD5AD",
"u. c #F6D1AB",
"i. c #FAD5AE",
"p. c #EEC0B3",
"a. c #EEC5BE",
"s. c #FFCFB1",
"d. c #E8D0B4",
"f. c #ECD5B8",
"g. c #EBDDB5",
"h. c #FAD7B2",
"j. c #FCDAB5",
"k. c #FDDDBC",
"l. c #F4DAB1",
"z. c #EEE2B9",
"x. c #FFE1B7",
"c. c #FEE4B9",
"v. c #FFEBBE",
"b. c #F4BEC4",
"n. c #F0C8C1",
"m. c #FFDBC6",
"M. c #FFDECB",
"N. c #FDE1C3",
"B. c #FFEDC3",
"V. c #FFEBCA",
"C. c #FFF1C5",
"Z. c #FFF1CD",
"A. c #FFFCCE",
"S. c #FFEFD2",
"D. c #FFF0D4",
"F. c #FFFFD4",
"G. c #FFF4D8",
"H. c #FFFEDB",
"J. c #FFF2E1",
"K. c #FFFFE2",
"L. c #FFFFFF",
/* pixels */
"W W W ~ W ~ W ~ W ~ W W ~ W ~ W W Q Q Q Q ~ W W W ~ ~ ~ W W ",
"W W ] ( ( ` ( ( ( ( ( ( ( ( ( ( ( ( ( ( ( ( ( ( ( ( ( _ W W ",
"~ ] z 2 a a a a a a a a a a a a a a a a a a a a a a s f ~ ~ ",
"~ M c b.n.a.n.a.a.a.a.a.a.a.a.n.a.a.a.a.a.a.a.a.a.3.1.i m ^ ",
"~ n I J.G.G.D.D.D.D.D.S.S.D.D.D.S.S.S.K.K.K.D.V.B.h.w.A m ~ ",
"/ m I M.N.m.k.m.k.k.k.m.m.k.k.k.k.k.V.N.d.f.Z.c.r.<.O.B E ^ ",
"/ m I M.N.k.k.k.l.k.k.h.k.l.l.k.k.B.-.+   . , c.0.%.J B T ^ ",
"/ m I m.c.k.h.h.h.h.h.h.h.h.h.h.h.A.&   C *   ,.r...J 3 T ^ ",
"~ m I m.k.j.h.h.h.u.i.i.i.i.i.h.i.C.% O L.=.  *.q.} F 3 R ^ ",
"/ m I m.k.h.h.i.i.h.i.i.i.i.i.i.i.A.% . 4.<   *.q.} F 3 R ^ ",
"/ m I m.k.j.h.h.i.i.i.i.i.i.i.u.j.H.X..     % u.<...F 3 T ^ ",
"/ m I m.k.j.h.i.i.i.h.i.i.i.t.v.v.$ i 8.| o.h.u.:...F 3 R ^ ",
"/ m I m.k.j.h.i.i.i.i.i.i.u.j.F.%   { F.C.C.j.9.:...F 3 R ~ ",
"/ m I M.k.j.h.h.i.i.i.i.i.h.F.:   L A.u.u.u.u.0.:...F 3 R ^ ",
"/ m I m.k.j.h.i.i.i.i.i.i.F.N   t F.i.i.i.i.u.0.:...F 3 R ^ ",
"/ n I m.c.j.h.h.i.i.i.u.F. .  = F.j.i.i.i.i.u.0.:...F 3 R ^ ",
"/ m I m.k.j.h.h.i.i.t.A.=.  $ A.c.u.i.i.i.i.u.q.:...F 3 R ] ",
"/ m I m.k.j.h.i.c.c.B.=.  O B.v.t.i.i.i.i.i.u.q.:...F 3 R ^ ",
"/ m I m.k.h.j.B.l.y.H.- X g.C.u.i.i.i.i.i.i.u.0.:...F 3 R ^ ",
"/ m I m.k.j.v.y .   @ o.z.v.u.i.i.i.i.i.i.i.u.0.:...F 3 R ^ ",
"/ m I m.k.B.6.  # e   - F.i.i.i.i.i.i.i.i.i.u.q.:...F 3 R ^ ",
"/ n I m.k.B.5.  ;.L.O $ C.i.i.i.i.u.i.i.u.i.u.0.:...F 3 R ^ ",
"/ m I m.k.C.,.  e 7.o % v.u.e.e.e.e.e.e.e.e.q.2.*.P D 3 R ^ ",
"/ m I k.i.u.e.#       Z i.<.2.2.2.2.2.2.2.<.>.:.$.K p 3 R ^ ",
"~ m  .y.0.:.<.%.i w G <.%.@.$.$.$.$.$.$.$.$.@.} K V u 1 R ^ ",
"/ U b 2.%.| G P @.$.O.S S S S G G G G G G G S V i w 8 > R ^ ",
"~ Y l +.H p q 0 6 6 7 9 9 9 9 9 9 9 9 9 9 9 9 6 6 5 4 ; ( ^ ",
"~ ' x k j h h d d d d d d d d d d d d d d d d d d d s d ^ Q ",
"W W ' ` ) ) ) [ _ _ _ _ _ _ _ _ _ _ _ _ _ _ _ _ _ _ _ [ W W ",
"W W Q ~ Q Q Q Q W W W ~ Q Q Q Q W ~ W ~ ~ W ~ W ~ W ~ W W W "
};
