/* XPM */
static char *stopSMDisabled_xpm[] = {
/* columns rows colors chars-per-pixel */
"30 30 168 2 ",
"   c #6A6262",
".  c #686565",
"X  c #706A6A",
"o  c #706B6B",
"O  c #706C6C",
"+  c #716D6D",
"@  c #726E6E",
"#  c #797575",
"$  c #7E7F7F",
"%  c #7F8181",
"&  c #7D8585",
"*  c #808181",
"=  c #808282",
"-  c #838383",
";  c #868383",
":  c #848585",
">  c gray52",
",  c #868686",
"<  c gray53",
"1  c #898686",
"2  c #838C8C",
"3  c #888888",
"4  c #898989",
"5  c #8C8989",
"6  c #8E8F8F",
"7  c #918C8C",
"8  c #908D8D",
"9  c #918D8D",
"0  c #918E8E",
"q  c #918F8F",
"w  c #8B9494",
"e  c #8B9696",
"r  c #8B9797",
"t  c #8B9898",
"y  c #909090",
"u  c #969393",
"i  c gray58",
"p  c #959595",
"a  c #979999",
"s  c #919D9D",
"d  c #929C9C",
"f  c #919E9E",
"g  c #929E9E",
"h  c #939F9F",
"j  c #989898",
"k  c #989999",
"l  c #9A9A9A",
"z  c #9B9B9B",
"x  c #9A9C9C",
"c  c #9D9D9D",
"v  c gray62",
"b  c #95A2A2",
"n  c #96A2A2",
"m  c #A3A0A0",
"M  c #A5A6A6",
"N  c gray65",
"B  c #ACA1A1",
"V  c #A0A9A9",
"C  c #A3ABAB",
"Z  c #AAAAAA",
"A  c #AAABAB",
"S  c gray67",
"D  c #AEAEAE",
"F  c #AFAFAF",
"G  c #AABDBD",
"H  c #B2B1B1",
"J  c #B2B2B2",
"K  c #B2B3B3",
"L  c #B4B4B4",
"P  c gray71",
"I  c #B6B6B6",
"U  c #B7B7B7",
"Y  c #BEB5B5",
"T  c #B7B8B8",
"R  c #B0BCBC",
"E  c #B1BCBC",
"W  c #B1BDBD",
"Q  c #B2BEBE",
"!  c gray72",
"~  c #BCBCBC",
"^  c gray74",
"/  c #C4BABA",
"(  c #B5C1C1",
")  c #B1C4C4",
"_  c #C0C0C0",
"`  c #C1C1C1",
"'  c gray76",
"]  c #C3C3C3",
"[  c #C6C6C6",
"{  c #C7C6C6",
"}  c #C9C4C4",
"|  c #CAC5C5",
" . c #CCC7C7",
".. c #C8C9C9",
"X. c #CBCBCB",
"o. c #CEC9C9",
"O. c #CCCBCB",
"+. c gray80",
"@. c gray81",
"#. c #D2CFCF",
"$. c #D2D2D2",
"%. c LightGray",
"&. c #D5D5D5",
"*. c #D5D6D6",
"=. c gray84",
"-. c #D7D7D7",
";. c #DBD6D6",
":. c #D8D8D8",
">. c gray85",
",. c #DADADA",
"<. c gray86",
"1. c gainsboro",
"2. c #DCDDDD",
"3. c #DDDDDD",
"4. c gray87",
"5. c #DFDFDF",
"6. c #E1DCDC",
"7. c #E3DEDE",
"8. c #E4DFDF",
"9. c #D9EAEA",
"0. c #D8ECEC",
"q. c #DFF2F2",
"w. c #DCFBFB",
"e. c #DFFCFC",
"r. c #DFFDFD",
"t. c #DDFFFF",
"y. c #DEFFFF",
"u. c #DFFFFF",
"i. c gray88",
"p. c #E1E1E1",
"a. c #E2E2E2",
"s. c gray89",
"d. c #E3E4E4",
"f. c #E4E4E4",
"g. c #E4E5E5",
"h. c gray90",
"j. c #E6E6E6",
"k. c #E7E7E7",
"l. c #EEEFEF",
"z. c #E1F3F3",
"x. c #E2F4F4",
"c. c #E4F4F4",
"v. c #E6FBFB",
"b. c LightCyan",
"n. c #E1FFFF",
"m. c #E2FFFF",
"M. c #E3FFFF",
"N. c #E4FCFC",
"B. c #E7FDFD",
"V. c #E4FFFF",
"C. c #E5FFFF",
"Z. c #E6FFFF",
"A. c #E9FFFF",
"S. c #EAFFFF",
"D. c #EBFFFF",
"F. c #ECFFFF",
"G. c #EDFFFF",
"H. c #EFFFFF",
"J. c #F1F1F1",
"K. c #F3F3F3",
"L. c #F6F2F2",
"P. c #F4F4F4",
"I. c #F6F6F6",
"U. c gray97",
"Y. c azure",
"T. c #F1FFFF",
"R. c #F2FFFF",
"E. c #F9F9F9",
/* pixels */
"b.b.n.M.m.m.m.m.m.m.m.m.m.m.m.m.m.m.m.m.m.m.m.m.m.m.M.m.b.b.",
"b.t.F.H.G.G.G.G.G.G.G.G.G.G.G.G.G.G.G.G.G.G.G.G.G.G.Y.R.u.y.",
"n.H.G & r e e e e e e e e e e e e e e e e e e e r t 2 s B.Z.",
"V.N.V / o. . . . . . . . . . . . . . . . . . . .| } Y 1 9.S.",
"C.w.( L.E.U.U.I.I.I.I.I.I.I.I.I.I.I.I.I.I.I.I.I.K.l.#.a 0.A.",
"V.e.W 8.j.f.a.a.a.a.a.a.a.a.a.a.a.a.a.a.a.a.a.p.1...m : q.A.",
"V.e.E 8.g.p.4.4.3.3.3.3.3.3.3.3.3.3.3.3.3.3.3.3.@.L u = z.A.",
"V.e.E 8.f.5.<.,.>.>.,.,.,.,.,.,.,.,.,.,.>.>.<.*.] S 9 % z.A.",
"V.e.E 8.f.4.,.:.:.a.j.h.h.h.h.h.h.h.h.j.a.:.>.$.` Z 0 % z.A.",
"V.e.E 8.f.5.<.>.i.` j j z z z z z z j j ` i.,.$.' S 0 % z.A.",
"V.e.E 8.f.5.,.5.>.4 < v l l l l l l v < 3 ,.i.$.' S 0 % z.A.",
"V.e.E 8.f.5.,.5.&.> ~ J.a.s.s.s.s.a.J.~ > =.i.$.' S 0 % z.A.",
"V.e.E 8.f.5.,.5.=.3 P k.>.,.,.,.,.>.k.P 3 -.i.$.' S 0 % z.A.",
"V.e.E 8.f.5.,.5.=.3 P j.:.>.>.>.>.:.j.P 3 -.i.$.' S 0 % z.A.",
"V.e.E 8.f.5.,.5.=.3 P j.:.>.>.>.>.:.j.P 3 -.i.$.' S 0 % z.A.",
"V.e.E 8.f.5.,.5.=.3 P j.:.>.>.>.>.:.j.P 3 -.i.$.' S 0 % z.A.",
"V.e.E 8.f.5.,.5.=.3 P j.:.>.>.>.>.:.j.P 3 -.i.$.' S 0 % z.A.",
"V.e.E 8.f.5.,.5.=.3 L h.-.:.:.:.:.-.h.L 3 -.i.$.' S 0 % z.A.",
"V.e.E 8.f.5.,.5.&., ^ P.f.h.h.h.h.f.P.^ , -.i.$.' S 0 % z.A.",
"V.e.E 8.f.5.,.5.=.- c _ I U U U U I _ c - -.i.$.' S 0 % z.A.",
"V.e.E 8.f.5.<.,.i.D > < 4 4 4 4 4 4 < > F 5.<.$.' S 0 % z.A.",
"V.e.E 8.f.5.1.>.1.i.-.-.:.:.:.:.:.:.-.-.p.1.,.%.] S 0 % z.A.",
"V.e.E 8.f.5.3.>.:.,.5.5.5.5.5.5.5.5.5.5.,.:.>.$.` A q * z.A.",
"V.e.R 7.d.1.$.+.+.O.X.X.X.X.X.X.X.X.X.X.O.+.+.[ ! M 8 % z.A.",
"V.r.R 6.2.{ T J H H H H H H H H H H H H H H K F N x 5 % z.A.",
"V.r.Q ;.' M k p p p p p p p p p p p p p p p p i y 6 ; $ x.A.",
"V.Z.C B 7 # + o O O O O O O O O O O O O O O O o X @   . c.D.",
"n.D.) d n g s s s s s s s s s s s s s s s s s s f h w b v.Z.",
"b.y.S.A.G.Y.T.T.T.T.T.T.T.T.T.T.T.T.T.T.T.T.T.T.T.T.R.R.b.y.",
"b.u.n.V.M.m.m.m.m.m.m.m.m.m.m.m.m.m.m.m.m.m.m.m.m.m.M.m.b.b."
};
