/* XPM */
static char *stopSMNormal_xpm[] = {
/* columns rows colors chars-per-pixel */
"30 30 119 2 ",
"   c #050204",
".  c #131210",
"X  c #3F382F",
"o  c #42372E",
"O  c #42382F",
"+  c #403D33",
"@  c #454136",
"#  c #48453A",
"$  c #644328",
"%  c #6D543D",
"&  c #70573F",
"*  c #685749",
"=  c #755B42",
"-  c #795E44",
";  c #7B634A",
":  c #726655",
">  c #7D7265",
",  c #81654B",
"<  c #8B6F54",
"1  c #95785B",
"2  c #897661",
"3  c #847963",
"4  c #8B7D66",
"5  c #827768",
"6  c #857A6B",
"7  c #8B7E6A",
"8  c #9C7E60",
"9  c #947F69",
"0  c #9F8163",
"q  c #90876E",
"w  c #9D866E",
"e  c #928474",
"r  c #958A73",
"t  c #978E79",
"y  c #A28264",
"u  c #AD8C6D",
"i  c #BB8960",
"p  c #A38B71",
"a  c #AD9479",
"s  c #AC987D",
"d  c #B79D7F",
"f  c #BC9978",
"g  c #D3A178",
"h  c #7E8583",
"j  c #858B89",
"k  c #8C9089",
"l  c #8C9695",
"z  c #8E9896",
"x  c #939A94",
"c  c #9A9A90",
"v  c #919C9B",
"b  c #A79682",
"n  c #B79D81",
"m  c #BA9F82",
"M  c #97A09C",
"N  c #9DA19B",
"B  c #BCA184",
"V  c #A5A398",
"C  c #A2A8A1",
"Z  c #B4B5AB",
"A  c #B5BAAF",
"S  c #AABCBC",
"D  c #B4BAB1",
"F  c #C2A687",
"G  c #C2A688",
"H  c #C5A989",
"J  c #CBAE8E",
"K  c #CFB290",
"L  c #CDB59B",
"P  c #D6B796",
"I  c #DCB994",
"U  c #D7BB9F",
"Y  c #DEBD9A",
"T  c #E1B48C",
"R  c #E8BE93",
"E  c #E0BF9C",
"W  c #D8BFA6",
"Q  c #B8C0B7",
"!  c #E2C09D",
"~  c #F4CB9D",
"^  c #D8C1AA",
"/  c #E7C5A1",
"(  c #E9C6A2",
")  c #EBCBA6",
"_  c #ECCDA9",
"`  c #F0CCA6",
"'  c #F5CFA9",
"]  c #FACFA9",
"[  c #F3D3AB",
"{  c #FAD4AD",
"}  c #F5D7B3",
"|  c #FAD6B1",
" . c #F5D8B5",
".. c #FCDAB5",
"X. c #F5DABA",
"o. c #FDDDBD",
"O. c #FFE0B7",
"+. c #FFE4BB",
"@. c #FFEABE",
"#. c #B3C3C1",
"$. c #FBDEC2",
"%. c #FFE2C4",
"&. c #FFECC1",
"*. c #FFEECE",
"=. c #FFF2C6",
"-. c #FFF6C9",
";. c #FFF8CB",
":. c #FFF1D4",
">. c #FFF4D9",
",. c #FFFFDF",
"<. c #D6EEF3",
"1. c #DCF3F7",
"2. c #DFF5F8",
"3. c #DCFEFF",
"4. c #FFFFE7",
"5. c #E3F6FA",
"6. c #E3FFFF",
"7. c #EBFFFF",
"8. c #F0FFFF",
/* pixels */
"6.6.6.6.6.6.6.6.6.6.6.6.6.6.6.6.6.6.6.6.6.6.6.6.6.6.6.6.6.6.",
"3.3.7.7.7.7.7.7.7.7.7.7.7.7.7.8.7.7.7.7.7.7.7.7.7.7.8.8.3.6.",
"6.7.S h z l l l l l l l l l l l l l l l l l l l l z j v 6.6.",
"6.6.C L ^ ^ ^ W ^ ^ ^ ^ ^ ^ ^ ^ ^ W W W ^ ^ ^ W U I g 9 <.7.",
"6.3.D :.>.:.>.:.:.:.:.:.:.:.:.:.:.:.:.:.:.:.:.*.&.| R b <.7.",
"6.3.D X.%.$.$.$.o.o.o.$.o.o.o.o.$.o.o.o.o.o.o...{ Y f e 1.7.",
"6.3.D  .%.o.....X.......X...........| o.......{ ! J u 7 1.7.",
"7.3.D  .$.o...| | | ....................|  .{ ` Y F y 6 2.7.",
"6.3.D } $...| { { %.=.=.=.-.-.-.=.=.=.=.&.{ [ ( P B 0 6 2.7.",
"6.3.D } $.| | | @.s @ X X X X X + + X @ s +.{ ( P B 0 6 2.6.",
"7.3.D } o...| +.[   . @ o + + O O O # .   [ +./ P B 0 6 2.7.",
"6.3.D } o...| +.)   q ,.@.&.&.&.&.@.,.q   / +./ P B 0 6 2.7.",
"6.3.D } o...| +._   3 ;.{ ..{ { { { ;.3   _ O.( P B 0 6 2.7.",
"6.3.D } o...| @._   3 -.] { { { { { -.3   ) +.( P B 0 6 5.6.",
"6.3.D } o...| @._   3 -.{ { ..{ { { ;.3   ` O.( P B 0 6 2.7.",
"6.3.D } o.| | +._   3 -.{ { { { { { -.6   _ +.( P B 0 6 2.7.",
"7.3.D  .o.| | +.)   3 -.{ { { { { { -.3   _ +.( P B 0 6 2.7.",
"6.3.A } o...| %.)   3 =.' { { [ { ] =.3   _ O.( P B 0 6 2.7.",
"6.3.A } $.| | @.)   r 4.=.=.=.=.=.=.4.r   ) O.( P B 8 6 2.7.",
"6.3.A  .o.| { @.)   @ t 4 q 4 q 4 4 t @   _ +.( P B y 6 2.6.",
"6.3.A } o...| ..+.:                     : +.| ( P B y 6 2.7.",
"6.3.A } o...| { ..+./ ) _ _ ` _ ` _ ) ! +.| ' ) P m y 6 2.7.",
"6.3.A } o.| { [ ) { O...O...| ..O...O.O.{ ` ) ! K m 1 6 2.7.",
"6.3.A ] ..` ( E Y Y R E Y ! E Y Y ! Y Y Y Y Y K H s 1 5 5.6.",
"6.3.A ~ ( P P H H H H H H H H H H H H H H H F d a w < > 5.7.",
"6.6.Z T J m a p p p p p p p p p p p p p p p p w 0 3 ; > 5.7.",
"6.6.V i y < , - - - - - - - - - - - - - - - - & % % $ * 5.7.",
"6.7.#.c N c x x x x x x x x x x x x x x x x x c x x k M 6.6.",
"6.3.7.6.7.7.7.8.7.8.7.8.8.8.7.8.7.8.7.8.8.8.8.7.8.8.8.8.6.3.",
"3.6.6.6.6.6.6.6.6.6.6.6.6.6.6.6.6.6.6.6.6.6.6.6.6.6.6.6.6.3."
};
