/* XPM */
static char *stopSMPressed_xpm[] = {
/* columns rows colors chars-per-pixel */
"30 30 107 2 ",
"   c #040304",
".  c #0B0505",
"X  c #0F0807",
"o  c #070508",
"O  c #080708",
"+  c #0D0C0D",
"@  c #120F0D",
"#  c #452C1D",
"$  c #553D2C",
"%  c #5D4C3D",
"&  c #634631",
"*  c #5F5349",
"=  c #6C5745",
"-  c #6D5847",
";  c #6F5A48",
":  c #766B5E",
">  c #796D5F",
",  c #7C6F61",
"<  c #767E7E",
"1  c #876D5C",
"2  c #86705C",
"3  c #827566",
"4  c #897565",
"5  c #877867",
"6  c #847769",
"7  c #857868",
"8  c #8E7E6C",
"9  c #917F6F",
"0  c #817C73",
"q  c #917F70",
"w  c #8F806D",
"e  c #91806F",
"r  c #948272",
"t  c #9A8775",
"y  c #9A8A76",
"u  c #9C8C7A",
"i  c #A6937E",
"p  c #7B8383",
"a  c #818683",
"s  c #858A84",
"d  c #848F8F",
"f  c #84908F",
"g  c #8B908B",
"h  c #859190",
"j  c #8C9897",
"k  c #909894",
"l  c #A89580",
"z  c #A69887",
"x  c #AD9A85",
"c  c #A6988A",
"v  c #AE9E88",
"b  c #B19D87",
"n  c #B49F89",
"m  c #9AA29F",
"M  c #AFA08F",
"N  c #B3A28F",
"B  c #BDA78F",
"V  c #AFA192",
"C  c #B5A797",
"Z  c #BDA790",
"A  c #BEA992",
"S  c #B7A999",
"D  c #BDAC99",
"F  c #9BA4A1",
"G  c #AABDBC",
"H  c #C5AF96",
"J  c #C0B79E",
"K  c #CEB59C",
"L  c #D0B99F",
"P  c #C6B4A0",
"I  c #C3BCA5",
"U  c #CABAA2",
"Y  c #D5BCA2",
"T  c #CCC4AA",
"R  c #DCC2A7",
"E  c #D5C1AD",
"W  c #DDC4AA",
"Q  c #D8C5B0",
"!  c #DFC9B2",
"~  c #E0C7AB",
"^  c #E6CAAE",
"/  c #E5CBB1",
"(  c #EFD4B6",
")  c #EAD3BD",
"_  c #E6D9BB",
"`  c #F0D4B6",
"'  c #F1D5B8",
"]  c #F4D8BB",
"[  c #FBDDBE",
"{  c #F3DAC1",
"}  c #FCDEC1",
"|  c #F7E3C2",
" . c #FDE2C5",
".. c #FFE8C7",
"X. c #FDE4C8",
"o. c #FFEBCA",
"O. c #FFF0CF",
"+. c #FFF4D2",
"@. c #FFFFDC",
"#. c #DDFFFF",
"$. c LightYellow",
"%. c #E0F4F6",
"&. c #E2F7F9",
"*. c #E2FFFF",
"=. c #EBFFFF",
"-. c #F4FFFF",
";. c #FAFFFF",
/* pixels */
"*.*.#.*.*.*.#.#.*.*.#.*.*.#.*.*.#.*.*.#.*.*.#.*.*.*.#.*.*.*.",
"#.#.-.;.;.;.;.;.;.;.;.-.;.;.-.;.;.;.;.;.;.;.;.;.;.-.;.;.#.*.",
"*.=.G < f d d d d d d f d d d d d d d d p h h h h h p j =.*.",
"*.;.p # % % % % % % % % % % % % % % % % % % % % % % $ * %.=.",
"*.-.k - 3 5 8 e e 8 8 9 w 8 w 8 9 9 8 9 8 8 8 8 7 7 1 0 &.=.",
"*.-.k = 5 y i x x x x x x x x x x x x x x x x x i u 8 0 %.=.",
"*.-.k - r b H L K K K K K K K K K K K L K K L Y K C r 0 %.=.",
"*.=.k ; y A Y ^ / ^ ^ ^ ^ ^ ^ ^ ^ ^ ^ ^ ^ / ( ` W D y 0 #.=.",
"#.-.k ; y A R ( ] ] o.O.O.O.O.O.O.O.+.o.] [  .[ ! D t 0 %.*.",
"*.-.k ; y A R ` [ o._ I T T T T T T I _ o.[  .{ ! D t 0 %.=.",
"*.-.k ; y A R ` +.U @   X X X . . X   @ U +. .{ ! D t 0 %.=.",
"*.=.k ; y A R ` @.,   I I J J J J I J   , @. .{ ~ D t 0 %.=.",
"*.-.j - y A R ` @.3 o @.@.+.+.+.+.@.@.o 6 @.X.{ ! D t 0 %.=.",
"*.-.k ; y A R ( @.5   | o.] [ | ] ..| o 6 @.} { ! D t 0 %.=.",
"#.-.k ; y A R ( @.5 o | o.[ [ } [ o.| o 6 @.} { / D t 0 %.=.",
"*.-.k ; y A R ( @.5 o | o.[ [ [ [ o.| o 7 @.} { ! D t 0 %.=.",
"*.-.k ; y A R ` @.7 o | ..] [ [ [ ..|   3 @.| ] ! D t 0 %.=.",
"*.=.k - y A R ` @.6 o o.O... .o...O.o.o 5 @. .{ ! D t 0 #.=.",
"*.-.k - y A R ` @.>   o.O.o...X...O.O.  > $. .] ! D t 0 %.=.",
"*.-.k - y A R ( @.z     @ + + + + + o   x @. .{ ! H t 0 %.&.",
"#.-.k ; y A R ` } O.M , 3 6 6 6 6 6 , v o. . .] ! D t 0 %.=.",
"*.-.k ; y A R ] { } $.$.@.@.$.$.@.$.$.$. .[ ..{ / D t < %.=.",
"*.-.j ; y A ~ [ X.X.} } } } } } } } { } X.X.X.{ ! D t 0 %.=.",
"#.-.k - t A ~ ] { { { { { { { { { { { { { { { ) Y Z t 0 %.*.",
"*.-.j = 9 n U Q Q Q Q Q Q Q Q Q Q Q Q Q Q Q Q Y P C r 0 %.=.",
"*.-.k - q x C S S S S S S S S S S S S S S S S C V c r 0 %.=.",
"*.-.r % 4 9 r r r r r r r r r r r q q r r r r q q q 1 , %.=.",
"#.=.G g F m m m m m m F m m m m F m F F m m F m F F k m *.*.",
"*.#.=.-.=.=.=.=.=.=.-.=.=.=.-.=.=.=.=.=.=.=.-.=.=.=.=.-.*.#.",
"*.#.*.*.*.*.*.*.*.*.*.*.*.*.*.*.*.*.*.*.*.*.*.*.*.*.*.*.#.*."
};
