/* XPM */
static char *cutMouseOver_xpm[] = {
/* columns rows colors chars-per-pixel */
"50 50 178 2 ",
"   c #000004",
".  c #00030B",
"X  c #03090F",
"o  c #050B12",
"O  c #090E14",
"+  c #0C1117",
"@  c #0E1318",
"#  c #11151A",
"$  c #15191C",
"%  c #191C1E",
"&  c #1C1E21",
"*  c #1E2022",
"=  c #232425",
"-  c #272828",
";  c #292929",
":  c #252628",
">  c #312F2E",
",  c #31302F",
"<  c #363431",
"1  c #393633",
"2  c #3D3A36",
"3  c #3F3B38",
"4  c #423D39",
"5  c #46413C",
"6  c #49433E",
"7  c #4F3D46",
"8  c #4D4740",
"9  c #534B43",
"0  c #594E45",
"q  c #514F4F",
"w  c #5E544A",
"e  c #5A5147",
"r  c #4E5B51",
"t  c #525752",
"y  c #525852",
"u  c #644B4C",
"i  c #60544B",
"p  c #63594E",
"a  c #695A4F",
"s  c #6A5D52",
"d  c #665B50",
"f  c #7E5450",
"g  c #666455",
"h  c #6D6254",
"j  c #6C6959",
"k  c #716456",
"l  c #746659",
"z  c #75695A",
"x  c #7B6C5C",
"c  c #6A715F",
"v  c #7F6F60",
"b  c #777260",
"n  c #7E7462",
"m  c #885151",
"M  c #855A55",
"N  c #856756",
"B  c #816F5A",
"V  c #8C6C5A",
"C  c #8E615B",
"Z  c #92655E",
"A  c #84725D",
"S  c #88755F",
"D  c #91715E",
"F  c #956760",
"G  c #966861",
"H  c #9A6B64",
"J  c #827261",
"K  c #897461",
"L  c #8C7965",
"P  c #8E7B69",
"I  c #957561",
"U  c #927D66",
"Y  c #917D6A",
"T  c #9C7A66",
"R  c #A07169",
"E  c #A8776E",
"W  c #539968",
"Q  c #549567",
"!  c #37C46E",
"~  c #38C36C",
"^  c #39C671",
"/  c #3DC974",
"(  c #44CF79",
")  c #4BD47C",
"_  c #46D17A",
"`  c #51D97E",
"'  c #968067",
"]  c #95816B",
"[  c #9C856D",
"{  c #9A8572",
"}  c #998F78",
"|  c #948A74",
" . c #A0886E",
".. c #A3816B",
"X. c #A58C72",
"o. c #AB8C73",
"O. c #B98579",
"+. c #AA9176",
"@. c #A4937C",
"#. c #AC9379",
"$. c #B49A7E",
"%. c #B6957B",
"&. c #55DC81",
"*. c #57E585",
"=. c #58E786",
"-. c #57EA87",
";. c #58EF89",
":. c #5BE887",
">. c #58F089",
",. c #54FC8D",
"<. c #59FD8F",
"1. c #9F9683",
"2. c #A29A86",
"3. c #A29C89",
"4. c #B59C81",
"5. c #B99E82",
"6. c #BCA184",
"7. c #B9A488",
"8. c #A9A290",
"9. c #CF8E86",
"0. c #D49C8B",
"q. c #C1A486",
"w. c #C3A689",
"e. c #C6A98A",
"r. c #CBAD8D",
"t. c #C9A185",
"y. c #CFB18F",
"u. c #D0B08F",
"i. c #CBAE90",
"p. c #CEB192",
"a. c #D4B493",
"s. c #D9B997",
"d. c #D7B998",
"f. c #DBBB99",
"g. c #E1BF9C",
"h. c #EBBD9D",
"j. c #F4BA9C",
"k. c #E3C29E",
"l. c #E6C4A0",
"z. c #EAC5A2",
"x. c #E4C9A5",
"c. c #EDC9A3",
"v. c #EFCDA8",
"b. c #F2CDA6",
"n. c #F3CEA9",
"m. c #FBCAA7",
"M. c #EFD3AC",
"N. c #F5D2AC",
"B. c #FAD5AE",
"V. c #FDD8AF",
"C. c #F1CDB7",
"Z. c #EED2B3",
"A. c #F3D5B5",
"S. c #FAD6B1",
"D. c #FCDAB4",
"F. c #F3D4BA",
"G. c #F6D9BA",
"H. c #FBDCBB",
"J. c #F5DBB2",
"K. c #FFE1B7",
"L. c #FFE4BA",
"P. c #FFE9BE",
"I. c #F2D3C2",
"U. c #FBDFC1",
"Y. c #FCE2C4",
"T. c #FFEEC2",
"R. c #FCE3C8",
"E. c #FFECCD",
"W. c #FFF2C4",
"Q. c #FFF5C9",
"!. c #FFFCCC",
"~. c #FFEED4",
"^. c #F5E1D2",
"/. c #FFF4D4",
"(. c #FFFFD2",
"). c #FFF3DA",
"_. c #FFFFDA",
"`. c #FFFFE7",
/* pixels */
"*.*.*.*.*.*.*.*.*.*.*.*.*.*.=.=.*.*.*.*.*.*.*.*.*.*.=.` ;.=.` :.*.*.*.*.*.*.*.*.*.*.*.*.*.*.*.*.*.*.",
"*.*.*.*.*.*.*.*.*.*.*.*.*.*.:.` *.*.*.*.*.*.*.*.*.*.:.` =.=.=.-.*.*.*.*.*.*.*.*.*.*.*.*.*.*.*.*.*.*.",
"*.*.*.*.;.;.;.;.;.;.;.;.;.;.;.-.;.-.>.>.;.;.;.;.;.-.-.;.;.;.>.>.;.;.;.;.;.;.;.=.;.-.;.;.-.>.-.*.*.*.",
"*.*.*.=.` _ ) ) ) ) ) ) _ ) ) ) ) ) ) ) ) _ ) ) ) ) ) ) ) ) ) ) _ ) ) ) ) ) ) ) ) ) ) ) ) ) *.*.*.*.",
"*.*.-.&.r q y y y y y y y t t t t t t t t t t t t t t t t t t t t y y y t t t t t t t t t 7 W <.*.*.",
"*.*.;.~ 1.U.I.I.I.I.I.I.I.I.I.I.F.G.I.I.I.I.I.I.I.I.I.I.G.F.I.I.I.I.I.I.I.I.I.F.C.n.m.z.z.9.Q ,.*.=.",
"*.*.;.~ 8.`.).~.).~.~.~.~.~.~.~.~.~.~.~.~.~.~.~.~.~.~.~.~.~.~.~.~.~.~.~.~.~.~.E.E.L.D.B.b.0.W ,.*.*.",
"*.*.;.^ 3.).R.^.^.R.R.R.R.R.R.R.R.R.R.R.R.R.R.R.R.R.R.R.R.R.R.R.R.R.R.R.Y.Y.Y.H.D.S.N.f.s.O.W <.*.*.",
"*.*.;.! 3.).R.R.R.R.U.R.U.U.U.U.U.R.U.Y.U.T.E.E.E.E.E.E.E.E.E.E.E.E.E.E.E.E.Y.H.V.n.k.u.e.O.W ,.*.*.",
"*.*.;.! 2./.Y.U.U.U.U.H.U.H.U.U.H.H.H.L./.Y.Z.C.A.A.F.G.A.G.H.A.G.G.A.A.A.Z.K.T.B.k.f.e.q.E W ,.*.*.",
"*.*.;.! 3.~.U.U.H.H.H.H.H.H.H.H.H.G.Y.E.2.6 > > < 1 1 3 4 2 2 3 3 3 2 < , ; 4 $.V.k.y.6.$.R W ,.*.*.",
"*.*.;.! 2.~.U.U.H.H.H.H.D.D.S.D.D.D.T.J . + & & & % & $ % % % % % % % * % * O # 6.c.e.$.%.H W ,.*.*.",
"*.*.;.! 2.~.H.H.H.G.G.D.S.S.S.S.S.Q.4.X = ; ; ; - ; ; ; - ; ; ; ; ; ; ; ; ; ; o v n.q.%.+.Z W <.*.*.",
"*.*.;.! 2.E.H.H.H.D.D.S.S.S.S.S.L.A., # ; ; ; ; ; ; ; - - - ; ; ; - ; - ; ; - O A v.6.#.+.Z W <.*.*.",
"*.*.;.! 2.~.H.H.D.D.D.S.S.B.S.B.Q.K o ; ; ; ; - ; ; ; ; - ; - ; ; ; ; - - ; - + A b.6.#.+.Z W ,.*.*.",
"*.*.;.! 2.E.H.H.G.D.S.S.S.B.N.T.d.$ & ; ; ; & = ; ; ; ; ; ; ; ; ; ; ; - - % - @ A k.6.#.+.Z W ,.*.*.",
"*.*.;.! 2.~.H.H.H.D.S.S.S.B.D.L.9 O ; ; ; * 5 > = ; ; ; ; ; ; ; ; ; ; * 2 J = O n c.5.#.X.Z W ,.*.*.",
"*.*.;.! 2.E.H.H.D.D.D.S.S.B.W.#.o + o % ; @ 6.L O ; ; ; ; - ; - ; ; ; O k T.8   A z.6.#.+.Z W ,.*.*.",
"*.*.;.! 2.E.H.H.H.S.S.S.S.P.N.; o d | 4 @ * k.v.& * ; ; - ; ; ; ; ; - @ e._.Y   B c.6.#.+.Z W ,.*.*.",
"*.*.;.! 2.E.H.G.D.A.S.S.B.W.l   l W.(.N.< % l.!.h o ; ; ; ; ; - ; ; @ 9 K.P.r.X x c.5.#.+.Z W ,.*.*.",
"*.*.;.! 2.E.H.H.H.D.D.S.Q.i.O o r.!.B.!.J $ n.W.f.& = ; ; ; ; ; ; - O #.W.D.z.% l c.q.#.X.Z W ,.*.*.",
"*.*.;.! 2.E.U.H.D.D.S.H.K.4 + # v !.(.D.2 ; N.K.T.z o ; ; - ; - ; $ 2 B.D.B.N.> s c.5.#.o.Z W ,.*.*.",
"*.*.;.! 2.E.U.D.D.D.S.Q.{ X ; : & x 2.0 o 5 B.D.T.g.& & - ; ; ; ; o ] W.B.V.N.< h c.5.#.+.Z W ,.*.*.",
"*.=.;.! 2.~.H.H.G.D.T.x.= % ; ; = + o # & < n.K.S.T.v o ; ; ; - * ; k.L.B.V.N.; k c.5.#.o.Z W <.*.*.",
"*.*.;.! 2.E.H.H.D.H.T.s o ; ; ; ; - - ; * ; f.K.B.L.z.= & ; ; ; o x T.B.B.D.k.# l c.6.#.X.F W ,.*.*.",
"*.*.;.! 2.~.H.H.G.Q.7.O : ; ; ; ; ; ; - : @ 4.W.B.S.W.J o ; ; = % a.P.B.B.P.$.. x z.6.#.X.F W ,.*.*.",
"*.*.;.! 2.E.H.H.L.L.6 O ; - ; - ; ; ; ; ; O l W.B.B.L.c.; & ; + i P.V.B.V.P.p   A c.6.#.+.G W ,.*.*.",
"*.*.;.! 2.~.H.H.Y.n.% X % & % = ; - ; ; ; * ; c.P.B.B.W.L o = + 5.W.B.B.W.r.$ o A c.6.#.X.G W ,.*.*.",
"*.*.;.! 2.E.H.H.H.L.@.6 4 < 2 < : ; ; ; ; ; + x W.D.B.L.x.; o 6 D.K.N.P.D.2 @ @ n z.6.#.X.H W ,.*.*.",
"*.*.;.! 2.E.H.H.D.D.T.H.N.M.P.L O ; ; ; ; ; = + $.W.B.B.W.P   X.W.B.P.P.w O ; + A z.6.#.X.F W ,.*.*.",
"*.*.;.! 2.E.H.H.H.S.D.H.K.K.!.Y X ; ; ; ; ; % . % 7.L.B.L.k.5 l.P.W.x.1   % ; @ A b.6.#.X.F W ,.*.*.",
"*.*.>.! 2.~.H.H.D.D.S.S.S.S.W.L o ; ; - ; @ < @.y.p.B.B.P.L.z.D.M.7.h s v 2 @ O A k.6.#.X.F W ,.*.*.",
"*.*.;.! 2.E.H.H.H.D.S.S.S.B.W.L O ; ; ; # 2 M._.!.Q.D.v.] d.W.x.p { K._.!.v.h   J z.6.#.X.Z W ,.*.*.",
"*.*.>.! 2.E.H.H.D.A.S.S.S.S.W.L X ; ; = $ r.(.{ 9 X.L.K.P y.T.c.a.W.x.#.n.W.D.1 s c.6.#.+.Z W ,.*.*.",
"*.*.;.! 2.~.H.H.H.D.S.S.S.B.Q.K . * % + 2 W.6.X X X 4.T.K.D.n.K.W.p.- X 4 l.W.] h k.6.#.+.Z W ,.*.*.",
"*.*.;.! 2.E.H.H.D.D.S.S.S.S.W.P @ , , * w !.K . ;   x W.W.6.i L.W.s . = X ] W.$.J k.6.#.+.Z W ,.*.*.",
"*.*.>.! 2.~.H.D.D.S.V.B.N.N.B.c.k.z.k.k.k.L.p.= . = p.W.S.1 . r._.L . O o 4.T.@.x k.$.#.X.Z W <.*.*.",
"*.*.>.! 2.E.H.D.S.B.B.n.n.n.v.N.D.V.V.K.V.n.D.a.L i.L.P.x o # 2 J.K.z 1 ] B.L.s w k.$.#. .Z W <.*.*.",
"*.*.>.! 2.E.S.D.B.N.v.c.c.k.k.k.k.k.k.k.k.k.k.K.!.T.B.Y @ = ; + 0 D.W.B.K.K.5.+ S a.%. . .Z W ,.*.*.",
"*.*.;.! 2.L.B.N.v.l.k.k.f.f.f.f.f.f.f.f.f.z.e.6 d l 1 . o # # @   ; ] w.$.k + 5 y.6.+. .' Z W ,.*.*.",
"*.*.;.^ 2.H.n.z.k.d.a.u.y.y.r.r.r.r.r.r.r.a.e.a 0 e p l x x x z x p p A x e x e.6.+. .[ ' C W ,.*.*.",
"*.=.;.^ @.D.k.d.a.e.w.6.6.$.6.$.4.4.5.$.5.$.$.a.a.a.a.a.a.a.a.a.a.a.u.r.r.u.e.%.X.[ ' S S C W ,.*.*.",
"*.*.;./ } m.p.r.6.$.#.+.X. .X. .X. .X.X.X.X. .X. .X.X. . .X.X.X.X. . .X. . .[ [ ' L S A B M W ,.*.*.",
"*.*.;./ | h.t.4.#.X.[ ] ' ' P ' U U U U U U U U U U U U U U U P U U U U U U L L S S B x B f W <.*.*.",
"*.*.;./ | j.q.4.o...T I I D I S J K S D D D D D D D D D D D D D D D D D K I K V V N N N V m Q ,.*.*.",
"*.*.;.) c P n b z j g g g g g g g g h g g g g g g g g g g g g g g g g g g g g g g g p g g u W <.*.*.",
"*.*.*.=.&.^ / &.&./ ) &.&.) ) ) _ &.&.&.&._ &.) ) ) ` ) &.) ) ) &.) ` ) &./ _ &.) &.` ` ) ) ` :.*.*.",
"*.*.*.=.>.>.-.>.>.>.;.;.;.;.>.>.-.-.-.-.>.>.;.>.>.;.>.>.;.;.;.;.-.>.>.>.>.>.>.>.-.>.>.>.>.>.;.=.*.*.",
"*.*.*.*.*.*.*.*.*.*.*.*.*.*.*.*.*.*.*.*.*.*.*.*.*.*.*.*.*.*.*.*.*.*.*.*.*.*.*.*.*.*.*.*.*.*.*.*.*.*.",
"=.*.*.*.*.*.*.*.*.*.*.*.*.*.*.*.*.*.*.*.*.*.*.*.*.*.*.*.=.*.*.*.*.*.*.*.*.*.*.*.*.*.*.*.*.*.*.*.*.*."
};
