/* XPM */
static char *playMouseOver_xpm[] = {
/* columns rows colors chars-per-pixel */
"50 50 178 2 ",
"   c #000003",
".  c #00040C",
"X  c #03080F",
"o  c #050B11",
"O  c #080E14",
"+  c #0C1116",
"@  c #0E1318",
"#  c #111016",
"$  c #12161A",
"%  c #16191D",
"&  c #191C1E",
"*  c #1B1D20",
"=  c #1F2123",
"-  c #222324",
";  c #272728",
":  c #282728",
">  c #272828",
",  c #2C2B2B",
"<  c #312F2E",
"1  c #32302F",
"2  c #353331",
"3  c #393532",
"4  c #3D3936",
"5  c #413C37",
"6  c #443E39",
"7  c #46413C",
"8  c #4B453F",
"9  c #51443E",
"0  c #4F3D46",
"q  c #4F4841",
"w  c #544C45",
"e  c #514F4F",
"r  c #5C544A",
"t  c #4E5B51",
"y  c #525752",
"u  c #525852",
"i  c #644B4C",
"p  c #63594E",
"a  c #6A5E52",
"s  c #7E5450",
"d  c #666455",
"f  c #6B6455",
"g  c #6C6959",
"h  c #706457",
"j  c #726658",
"k  c #7C6C5C",
"l  c #716D5C",
"z  c #6A715F",
"x  c #777260",
"c  c #7E7462",
"v  c #885151",
"b  c #855A55",
"n  c #856756",
"m  c #826E5B",
"M  c #8C6C5A",
"N  c #8E615B",
"B  c #92655E",
"V  c #84725D",
"C  c #88755F",
"Z  c #91715E",
"A  c #956760",
"S  c #966861",
"D  c #9A6B64",
"F  c #847462",
"G  c #897560",
"H  c #8D7963",
"J  c #867768",
"K  c #8E7C6A",
"L  c #957561",
"P  c #927D66",
"I  c #917E6B",
"U  c #9C7A66",
"Y  c #A07169",
"T  c #A8776E",
"R  c #559668",
"E  c #539968",
"W  c #539466",
"Q  c #37C46E",
"!  c #38C36C",
"~  c #39C671",
"^  c #3DC974",
"/  c #44CF79",
"(  c #4BD47C",
")  c #46D17A",
"_  c #51D97E",
"`  c #968067",
"'  c #95806A",
"]  c #9B856D",
"[  c #978772",
"{  c #9A8671",
"}  c #958A74",
"|  c #9D8A74",
" . c #998F78",
".. c #A0886E",
"X. c #A3816B",
"o. c #A48C73",
"O. c #AB8C73",
"+. c #A48E78",
"@. c #B98579",
"#. c #AB9176",
"$. c #AC9379",
"%. c #A0947C",
"&. c #B1977B",
"*. c #B49A7E",
"=. c #BA937B",
"-. c #55DC81",
";. c #57E585",
":. c #58E786",
">. c #57EA87",
",. c #5BE887",
"<. c #58EF89",
"1. c #58F089",
"2. c #54FC8D",
"3. c #59FD8F",
"4. c #9E9085",
"5. c #A29A86",
"6. c #A29C89",
"7. c #B69D81",
"8. c #B99F82",
"9. c #BCA185",
"0. c #BDA489",
"q. c #A9A290",
"w. c #CF8E86",
"e. c #D49C8B",
"r. c #C1A487",
"t. c #C2A68A",
"y. c #C4AA8C",
"u. c #CCAE8E",
"i. c #C9A185",
"p. c #C4AF91",
"a. c #CFB091",
"s. c #C6B193",
"d. c #D4B494",
"f. c #D5BD9B",
"g. c #DDBC9A",
"h. c #D9B996",
"j. c #E1BF9D",
"k. c #EBBD9D",
"l. c #F4BA9C",
"z. c #E4C29E",
"x. c #DDC4A1",
"c. c #E4C3A1",
"v. c #EAC7A1",
"b. c #EBCAA5",
"n. c #EECEAC",
"m. c #F1CDA7",
"M. c #F1CFAB",
"N. c #FBCAA7",
"B. c #F6D2AB",
"V. c #FAD5AE",
"C. c #FED8AF",
"Z. c #F1CDB7",
"A. c #EED0B0",
"S. c #F1D1B1",
"D. c #FCD7B0",
"F. c #F4DDB4",
"G. c #FDDBB4",
"H. c #FBDCBB",
"J. c #F2D1BD",
"K. c #FFE1B7",
"L. c #FFE5BC",
"P. c #FFEABE",
"I. c #F2D3C2",
"U. c #FBDFC1",
"Y. c #FCE1C4",
"T. c #FFECC4",
"R. c #FCE3C8",
"E. c #FFEDCE",
"W. c #FFF2C4",
"Q. c #FFF6C9",
"!. c #FFFBCC",
"~. c #FFEED4",
"^. c #F5E1D2",
"/. c #FFF1D5",
"(. c #FFFFD5",
"). c #FFF3DA",
"_. c #FFFFD9",
"`. c #FFFFE7",
/* pixels */
";.;.;.;.;.;.;.;.;.;.;.;.;.;.;.;.;.;.;.;.,.>.:.;.;.;.<.,._ _ <.,.;.;.;.;.;.;.:.:.:.>.:.:.;.;.;.;.;.;.",
";.;.;.;.;.;.;.;.;.;.;.;.;.;.;.;.;.;.;.;._ :.:.;.;.;._ <.<.,._ ,.;.;.;.;.;.;.,._ _ >._ :.;.;.;.;.;.;.",
";.;.;.;.<.<.<.<.>.<.<.<.<.>.<.<.>.>.<.<.>.<.<.<.<.<.<._ <.<.1.1.<.<.<.<.<.>.<.>.<.<.1.1.<.<.>.;.;.;.",
";.;.;.:._ ) ( ( ( ( ( ( ( ( ) ( ( ( ( ( ( ) ( ( ( ( ( ( ( ( ( _ ( ( ) ( ( ( ( ( ( ( ( _ ( ( ;.;.;.;.",
";.;.<.-.t e y y u u u u y y y y u u y y y y y y y y y y u u u u y y y y y y y y u y u y y 0 E 3.;.;.",
";.;.<.! 4.^.I.I.I.I.I.I.I.I.I.I.J.J.I.J.I.I.I.I.I.I.I.I.J.J.I.J.I.J.I.I.I.I.I.J.Z.M.N.v.k.w.R 2.;.;.",
";.;.<.! q.`.~./.).~./.~./.~.~.~././.~.~././.~.~./.~.E.~.~./././.~.~.~.~.~.~.~.E.T.Y.K.B.M.e.E 2.;.;.",
";.;.<.Q 6.).R.R.R.R.R.R.R.R.R.R.R.R.R.R.R.R.R.R.R.R.R.R.R.R.R.R.R.R.R.R.R.R.U.H.G.D.m.j.h.@.E 3.;.;.",
";.;.<.! 4.).R.R.R.Y.Y.Y.Y.U.Y.Y.Y.R.U.U.Y.R.U.U.Y.Y.Y.Y.Y.Y.U.Y.R.Y.U.Y.Y.H.H.H.C.B.z.d.u.@.R 2.;.;.",
";.;.<.! 6./.R.Y.L.U.U.U.Y.T.T.R.T.R.R.T.T.R.R.T.R.T.R.T.R.T.R.T.R.T.T.R.T.Y.G.V.B.z.h.u.9.T E 2.;.;.",
";.;.<.! 5./.U.Y.Y.H.H.Y.Q.J.A.B.S.S.S.S.S.S.A.S.B.S.S.S.S.S.S.S.S.S.S.S.A.L.T.B.z.z.a.*.*.Y E 2.;.;.",
";.;.<.! 5./.H.Y.H.H.Y.L.J , , 1 < < < < < < 2 , , 2 < < < < < < 1 , 1 < , 8 a.L.z.h.y.*.&.D E 2.;.;.",
";.;.1.! 4./.H.H.H.H.T.J . o . . . X X . . X X o . o . . . X . o . . X X X . > f.m.d.r.&.#.B E 2.;.;.",
";.;.1.Q 5./.H.H.G.L.V., o r 5.+.+.+.+.+.+.+.$.0.y.y.0.7.+.+.+.+.+.+.+.%.' , . K C.a.*.&.#.D E 3.;.;.",
";.;.<.Q 5.E.H.H.H.Y.n., . 7._.W.W.T.W.T.Q._.T.c.0.0.f.L._.!.T.W.W.W.W.Q.T.7   F C.a.r.&...B E 2.;.;.",
";.;.<.Q 5.E.H.H.G.L.n.< X +.T.V.V.V.B.L.P.| 3 $ X X @ , F V.P.B.V.V.V.G.B.7   C C.a.*.#.#.B E 2.;.;.",
";.;.<.Q 5.E.H.H.G.Y.M.< . +.W.V.V.V.K.K.p . . + , 1 % . . 5 b.P.B.V.V.K.B.7 . G V.u.8.$.O.Z R 2.;.;.",
";.;.<.Q 5.E.H.H.H.L.M.< X o.W.V.V.C.P.j . O 9 y.B.m.p.a + . 6 F.K.V.V.G.B.6 . G V.u.8.$.#.B E 2.;.;.",
";.;.<.! 5.E.H.H.G.L.M.< . +.W.V.V.P.0.O o p P.H.L.Q.W.W.I + . P W.V.V.G.B.6 . G V.u.8.&.O.B E 2.;.;.",
";.;.>.! 5.~.H.H.H.L.B., X +.P.V.D.L.p . 4 D.(.F 3 x.W.P.T.p . 3 V.K.V.K.B.6 . F V.a.8.$.#.B E 2.;.;.",
";.;.<.Q 5.E.H.H.F.L.M.< . +.W.V.K.m.2 . I Q.Q.K   - | K.!.9.+ % u.P.V.G.B.6 . J V.a.9.O.#.B E 2.;.;.",
";.;.1.Q 5.E.H.H.H.L.n.< X +.T.V.L.j.- o *.W.W.I O &   7 F.b.- + *.P.V.G.B.6 . F V.u.9.$.#.B E 2.;.;.",
";.;.<.Q 5.~.H.H.H.L.M.< X +.W.V.K.z.> o $.W.W.' . X 2 | P.g.= @ 8.P.V.G.B.6 . G V.u.9.$.O.B E 2.;.;.",
";.;.1.Q 5.E.H.H.G.L.M.< X | W.V.G.C.7   f W.!.k   F S.W.!.| . - j.L.V.G.B.6 . F V.u.9.O.O.B E 3.;.;.",
";.;.1.Q 5.E.H.H.G.L.M.< o +.P.V.V.W.F . & y.(.9.9.W.L.W.m.1   w L.C.V.K.B.7 . G C.u.*.$.#.B E 2.;.;.",
";.;.1.Q 5.~.H.H.J.L.M.1 X | T.V.V.L.b.> . > 9.Q.(.Q.T.f.7 X + y.P.V.V.K.B.5 . G V.a.r.#.#.B E 2.;.;.",
";.;.1.Q 5.E.H.H.G.L.n.< X +.T.V.V.V.T.0.+ . % p [ } j - . X I T.C.V.V.G.B.7   J V.u.r.&...B E 2.;.;.",
";.;.1.Q 5.E.H.H.H.L.B.1 X +.T.V.V.B.D.W.0.< .   .   . . = | P.G.V.V.V.G.B.7 . F V.u.*.&.#.B E 2.;.;.",
";.;.1.Q 5.E.H.H.G.L.B.1 o +.Q.D.D.C.D.G.Q.B.[ r 4 4 w J x.Q.L.D.G.K.G.P.C.7 . G V.u.9.#.#.B E 2.;.;.",
";.;.<.Q 4.~.H.H.J.L.n., . *.!.K.L.L.L.K.K.P.!.P.C.V.K.Q.W.D.G.G.G.C.C.K.B.6 . C V.u.r.#.#.B R 2.;.;.",
";.;.<.Q 5.E.H.H.G.L.B.1 $ q j p p p r r r r w r p r w w 9 7 7 7 7 4 5 5 3 , O C C.u.*.&.o.B E 2.;.;.",
";.;.1.Q 5.E.H.H.H.L.n.1 - & # $ $ & , & % & * * & - - - - > , > , 1 1 1 1 , O C V.u.r.#.#.B E 2.;.;.",
";.;.<.Q 5.E.H.H.G.L.M.1 o K L.G.K.b.7.V.L.G.L.K.L.L.L.L.L.T.L.P.P.T.P.W.V.5 . G V.u.r.#.O.B E 3.;.;.",
";.;.1.Q 5.E.H.H.H.L.n.< . 7.F.9.p.| , +.p.0.0.9.0.9.9.0.9.9.9.9.9.9.7.p.B.8   J V.u.9.#.o.B E 2.;.;.",
";.;.<.Q 5.E.H.H.H.H.n.2 o 7.m   o + = O X o o o o o X X o o o o o O . O 0.r . J V.u.9.#.#.S E 2.;.;.",
";.;.<.Q 5.E.H.H.G.L.n., o 7.F.7.0.K @ ] y.0.9.9.9.9.9.9.9.9.8.8.8.8.7.y.V.9 . F V.u.r.#.O.B E 2.;.;.",
";.;.<.Q 6.E.H.H.G.L.M.: X K Q.P.T.n.I V.P.K.P.L.P.L.L.L.L.L.L.L.L.L.L.W.v.2 . k V.u.*.$...Z R 2.:.;.",
";.;.<.Q 5.E.H.G.G.G.D.q X > 6 6 5 q p 8 7 6 5 7 7 4 6 6 7 5 6 5 6 6 5 8 3 * O +.z.u.*.#.o.B R 2.;.;.",
";.;.1.Q 5.T.G.D.B.M.G.y.; X . . . . . . . . . . . . . . . . . . . . . . . + f c.a.r.&.....B E 2.;.;.",
";.;.<.Q 5.Y.V.B.m.v.c.B.u.F k m m c V V c V F G c V m F V c m F F k F k k { g.d.r.*.#.] ] N E 3.;.;.",
";.;.<.~ 5.L.m.v.j.h.d.a.g.v.m.z.v.v.v.v.v.v.b.z.b.z.v.v.v.v.v.v.m.z.m.z.z.j.y.8.*.#.o.` ` n W 2.;.;.",
";.;.<.~ +.D.c.g.d.y.r.0.*.8.*.*.8.*.*.*.*.9.*.*.*.9.*.*.*.7.7.*.*.*.*.*.*.*.&.#.O...` C ` b E 2.;.;.",
";.;.<.^  .N.d.y.0.*.$.#.#...O.O.o...o.o.o...o...O.....o.o.o.o.o.O.o...O.O...] ] ` P C V C s E 3.;.;.",
";.;.<.^ } k.t.7.#.o.] ` ` P P ` P P P I ` P ` P ` ` P P P P P K ` ` P P P P P J C V k k m v E 2.;.;.",
";.;.<.^ [ l.i.7.O.X.U H Z Z Z Z L M L M Z L G M Z Z Z Z Z Z Z Z C Z Z Z G L M M M n n n M v W 2.;.;.",
";.;.<.( z K c x l g d d d d d d d u d d d d d d d d d d d d d d d d d d d d d d d d d d d i E 2.;.;.",
";.;.;.,.) ^ / / ( -.) -.-.( _ ( -.-.) -.( ( ( -.( ( _ ( -.) ) -._ ( ( ( -./ ) -.( ( _ ( _ _ _ <.;.;.",
";.;.;.;.1.1.1.<.>.>.<.<.<.1.1.1.>.1.1.<.<.1.<.1.1.1.1.1.1.1.1.1.<.<.<.<.<.<.<.1.1.1.<.<.<.1.1._ ;.;.",
";.;.;.;.;.;.;.;.;.;.;.;.;.;.;.;.;.;.;.;.;.;.;.;.;.;.;.;.;.;.;.;.:.;.;.;.;.;.;.;.;.;.;.;.;.;.;.;.;.;.",
";.;.;.;.;.;.;.;.;.;.;.;.;.;.;.;.;.;.;.;.;.;.;.;.;.;.;.;.;.;.;.;.;.;.;.;.;.;.;.;.;.;.;.;.;.;.;.;.;.;."
};
