/* XPM */
static char *recorderNormal_xpm[] = {
/* columns rows colors chars-per-pixel */
"50 50 166 2 ",
"   c #000006",
".  c #00040C",
"X  c #030A11",
"o  c #090E14",
"O  c #0C1116",
"+  c #0F1318",
"@  c #11151A",
"#  c #161A1D",
"$  c #191C1F",
"%  c #201B1E",
"&  c #1B1E21",
"*  c #1E2022",
"=  c #242526",
"-  c #2C2B2A",
";  c #33312F",
":  c #343230",
">  c #393633",
",  c #3B3936",
"<  c #413D38",
"1  c #46413C",
"2  c #4B443E",
"3  c #55483E",
"4  c #664F3B",
"5  c #664A33",
"6  c #69513D",
"7  c #4D4740",
"8  c #4F4841",
"9  c #544D45",
"0  c #504F4D",
"q  c #5B5349",
"w  c #595957",
"e  c #585958",
"r  c #6E5640",
"t  c #61574C",
"y  c #655A4F",
"u  c #755B45",
"i  c #665D52",
"p  c #6B5F53",
"a  c #7D634B",
"s  c #6E6255",
"d  c #6D655B",
"f  c #7F6750",
"g  c #7C6C5C",
"h  c #73685C",
"j  c #7E705F",
"k  c #786E62",
"l  c #746B60",
"z  c #7B7369",
"x  c #81654D",
"c  c #846B53",
"v  c #896E55",
"b  c #816F5A",
"n  c #887056",
"m  c #84725D",
"M  c #8B735A",
"N  c #907359",
"B  c #93795E",
"V  c #827261",
"C  c #897560",
"Z  c #8C7A66",
"A  c #84786A",
"S  c #8E7C6A",
"D  c #927D66",
"F  c #9A7D62",
"G  c #927F6C",
"H  c #968067",
"J  c #96816A",
"K  c #9C856D",
"L  c #948371",
"P  c #9A8772",
"I  c #9D8B75",
"U  c #9A8B7A",
"Y  c #9F907E",
"T  c #A68567",
"R  c #A4876A",
"E  c #AD8768",
"W  c #A0886E",
"Q  c #A58C72",
"!  c #A88F74",
"~  c #AB9176",
"^  c #AD9479",
"/  c #A3907A",
"(  c #BD9776",
")  c #B1977B",
"_  c #B59A7E",
"`  c #B19273",
"'  c #C09F7D",
"]  c #9C9084",
"[  c #A99C8C",
"{  c #A69983",
"}  c #B69C81",
"|  c #B99E81",
" . c #AA9E90",
".. c #94A19F",
"X. c #AAA186",
"o. c #B6A084",
"O. c #BCA184",
"+. c #BEA589",
"@. c #B0A496",
"#. c #97A6A5",
"$. c #98A6A5",
"%. c #9AA8A7",
"&. c #99AAA9",
"*. c #C1A486",
"=. c #C2A688",
"-. c #C5A98B",
";. c #CBAD8E",
":. c #C4AD92",
">. c #CEB192",
",. c #D4B594",
"<. c #DABA97",
"1. c #D6B898",
"2. c #DBBB99",
"3. c #E2B68C",
"4. c #E2BF9C",
"5. c #E1BB94",
"6. c #E3C19E",
"7. c #E5C4A0",
"8. c #EAC7A1",
"9. c #EDCAA5",
"0. c #E8C9AC",
"q. c #F2CCA5",
"w. c #F2CEA8",
"e. c #E3D2AD",
"r. c #F4D1AB",
"t. c #FAD5AE",
"y. c #E9CEB3",
"u. c #E9D1BB",
"i. c #F7D6B1",
"p. c #FAD7B1",
"a. c #FDDAB4",
"s. c #FBDCBB",
"d. c #FFE0B6",
"f. c #FFE4BB",
"g. c #FFE9BE",
"h. c #F2E2B9",
"j. c #B7D9DE",
"k. c #BADCE2",
"l. c #BEE1E7",
"z. c #BFE2E8",
"x. c #EBDEC2",
"c. c #FBDFC1",
"v. c #FCE1C4",
"b. c #FFECC4",
"n. c #FCE3C8",
"m. c #FFECCA",
"M. c #FFF2C5",
"N. c #FFF3CA",
"B. c #FFFCCC",
"V. c #FFEED4",
"C. c #FFF2D2",
"Z. c #FFFED3",
"A. c #FFFFDC",
"S. c #C0E3E8",
"D. c #C6E8ED",
"F. c #CDECED",
"G. c #CEEFF2",
"H. c #CFF0F3",
"J. c #D5F3F4",
"K. c #DEFDFD",
"L. c #FFFFE3",
"P. c #E0FFFF",
"I. c #EAFFFF",
"U. c #FFFFF6",
"Y. c #F5FFFF",
"T. c #FCFFFE",
/* pixels */
"P.P.P.P.P.P.P.P.P.P.P.P.P.P.P.P.P.P.P.P.P.P.P.P.P.P.P.P.P.P.P.P.P.P.P.P.P.P.P.P.P.P.P.P.P.P.P.P.P.P.",
"P.P.P.P.P.P.P.P.P.P.P.P.P.P.P.P.P.P.P.P.P.P.P.P.P.P.P.I.P.P.P.P.P.K.P.P.P.P.P.P.P.P.P.P.P.P.P.P.P.P.",
"P.P.K.P.I.I.I.I.I.I.I.I.I.I.I.I.I.I.I.I.Y.I.I.Y.I.I.I.I.I.I.I.I.I.I.I.I.I.I.I.I.I.I.I.I.I.I.P.K.P.P.",
"P.P.P.P.J.F.F.F.F.F.D.D.F.F.F.F.F.F.F.F.F.D.D.D.D.F.F.F.F.F.F.D.F.F.F.F.F.F.F.F.F.F.G.F.F.F.K.P.P.P.",
"P.P.I.J.e 0 w w e e e e e e e e w w e e e e 0 e e e e e w w w w e e e e e e w w w e w e w < #.T.P.P.",
"P.P.I.k.] x.u.u.x.x.x.y.u.u.u.u.u.y.u.x.u.u.x.x.u.u.u.x.u.u.u.u.u.u.u.u.u.u.u.y.y.0.8.6.4.E ..Y.P.P.",
"P.P.I.j.@.L.C.V.V.V.V.V.V.V.V.V.V.V.V.V.n.V.V.V.V.V.V.V.V.V.V.V.V.V.V.V.V.V.V.m.n.f.a.t.w.' $.Y.P.P.",
"P.P.I.k. .V.n.n.n.n.n.n.n.c.n.n.c.n.n.n.n.n.n.n.n.c.n.n.n.n.c.c.v.n.n.n.n.v.v.s.a.a.w.2.2.T $.Y.P.P.",
"P.P.I.k. .C.n.n.v.n.v.v.c.c.c.c.c.c.c.c.c.v.c.v.c.c.c.c.c.c.c.c.c.c.c.v.v.c.s.s.p.w.6.,.;.B #.Y.P.P.",
"P.P.I.k. .m.v.v.c.c.c.c.s.c.c.c.c.s.c.c.c.s.c.s.c.c.s.c.c.c.c.c.s.s.n.n.s.s.a.t.t.6.<.-.*.N $.Y.P.P.",
"P.P.I.k.[ m.c.v.s.s.s.s.c.s.a.s.s.a.s.a.s.s.s.i.c.s.s.s.s.s.s.c.m.Z.b.p.s.s.a.r.q.2.>.O._ v $.Y.P.P.",
"P.P.I.j.[ m.c.s.s.s.s.s.a.a.i.a.a.i.s.i.a.i.s.a.i.p.p.c.m.N.n.r.:.G 7 1 r.d.t.w.6.<.;._ ` c $.Y.P.P.",
"P.P.I.k.[ m.s.s.s.s.a.i.i.i.p.p.i.a.p.i.i.p.a.d.g.N.b.t.>.P i > O   . O +.M.t.8.4.,.*.) ~ x $.Y.P.P.",
"P.P.I.k.[ b.s.s.s.i.a.a.a.p.p.t.i.p.p.s.f.b.b.a.2.Q h < @ . o $ - q , X C g.w.8.2.>.O.` ! x ..Y.P.P.",
"P.P.I.k.[ m.s.s.s.i.a.i.p.p.p.a.d.b.b.s.6.} k 7 & X O O = > & - ,.A.I   8 a.t.6.2.;.O.^ ~ x $.Y.P.P.",
"P.P.I.k.[ m.s.s.i.a.i.a.a.v.M.f.w.+.Z 9 - @ X X % = # 9 e.q.- X -.L.} O = 2.a.6.2.;.O.^ W a #.Y.P.P.",
"P.P.I.k.[ m.s.s.s.i.p.d.d.,.P y ; # .   X * = C e.S   q Z.B.q X 2 s - #   J f.8.<.;.O.^ ! a $.Y.P.P.",
"P.P.I.k.[ m.s.c.a.p.m.+., =     O * , P } - X 1.T.1.@ * h y - & .   O > 9 +.a.6.2.;.o.^ ! a $.Y.P.P.",
"P.P.I.k.[ n.c.i.s.i.N./ . # 9 P t . 9 Z.L.s   i ] t = $     @ ; q J -.r.g.d.8.8.<.;.O.^ ~ a $.Y.K.P.",
"P.P.I.j.[ m.s.a.s.a.d.w.; X *.U.6.o - -.X.7 & @     @ - 8 C o.8.f.M.g.d.a.r.9.6.2.;.' ^ W a #.Y.P.P.",
"P.P.I.k.[ b.s.s.i.i.s.g.i   g h.I = * & . . + * < g / 6.d.M.g.d.a.t.t.t.t.r.9.8.2.;.o.^ ! a $.Y.P.P.",
"P.P.I.k.[ b.s.s.s.a.p.m./ o - - O + o @ , s I ,.t.b.M.f.a.p.t.t.t.t.t.t.t.t.9.6.2.;.O.^ ! a $.Y.P.P.",
"P.P.I.k.[ m.s.s.s.a.a.g.1.= $ = 7 z _ 8.g.Z.Z.Z.B.g.b.M.b.g.g.M.b.g.b.g.g.g.t.6.2.;.o.^ ! a ..Y.P.P.",
"P.P.I.k.[ m.s.s.a.a.t.s.r.; = s I +.,.-.o.} ^ } ) ) ) ) _ } } } } } } o.o.^ >.q.<.;.O.^ ! a $.Y.P.P.",
"P.P.I.k.[ b.s.s.s.i.p.d.p.2 & = O X X X X X X X X X X X X X X X X X X o #   V f.2.;.O.~ ! a #.Y.P.P.",
"P.P.I.k.[ m.s.s.a.s.i.s.p.2 + ; 1 1 , < , < < < < < < < , < , 1 , 1 1 < = X Z d.2.;.O.^ ! a #.Y.P.P.",
"P.P.I.k.[ b.s.s.a.i.a.d.t.2   G g.t.t.t.t.t.t.t.i.t.t.t.t.t.t.t.t.r.d.p.9   Z d.2.;.O.~ Q a #.Y.P.P.",
"P.P.I.k.[ m.s.s.s.i.a.a.a.2   K B.d.a.d.a.d.a.d.d.a.d.a.d.a.d.d.d.d.d.d.9   Z d.2.;.O.~ ! a #.Y.P.P.",
"P.P.I.k.[ m.s.a.s.i.a.d.t.2   J M.t.t.t.t.t.p.t.t.t.t.t.t.t.t.t.t.t.a.a.9   Z d.2.;.O.~ ! a #.Y.P.P.",
"P.K.I.k.[ b.s.s.i.s.p.s.t.2   L M.t.t.t.t.t.t.t.t.t.t.t.t.t.t.t.t.t.d.a.9   Z d.2.;.O.^ ! a #.Y.P.P.",
"P.P.I.k.[ m.s.s.i.a.a.a.a.2   J M.t.t.t.t.t.t.t.t.p.t.t.t.t.t.t.t.t.a.a.9   Z d.2.;.O.~ ! a #.Y.P.P.",
"P.P.I.j.[ m.s.s.a.a.a.d.a.9   J M.t.t.t.t.t.t.t.t.t.t.t.t.t.t.t.t.t.a.a.q   Z d.2.;.O.^ Q a #.Y.P.P.",
"P.P.I.k.[ n.s.s.a.a.a.a.a.9   G M.t.t.t.t.t.t.t.p.t.t.t.t.t.t.t.t.t.d.p.9   S d.2.;.' ^ ! a #.Y.P.P.",
"P.P.I.k.[ b.s.s.s.i.a.d.a.3   G M.t.t.t.t.t.t.t.t.t.t.t.t.t.t.t.t.t.d.a.9   Z d.2.;.o.^ ! a #.Y.P.P.",
"P.P.I.k.[ m.s.s.a.a.i.s.a.2   G M.t.t.t.t.t.t.t.t.t.t.t.t.t.t.t.t.t.p.a.9   Z d.2.;.O.^ Q a #.Y.P.P.",
"P.P.I.k.[ m.s.s.a.i.i.s.a.9   K B.p.p.a.a.a.p.p.t.a.a.p.a.p.a.p.a.p.d.d.q   Z d.2.;.O.^ ! a #.Y.P.P.",
"P.P.I.k.[ m.s.a.a.a.p.d.t.3   V M.d.a.a.a.d.a.a.d.d.d.a.d.a.a.a.a.d.f.a.2   V a.<.;.O.~ Q x $.Y.P.P.",
"P.P.I.k.[ b.s.a.p.t.t.t.a.q . - t i y y y y y y y y y y y y y y y y s 9 = X H t.>.=._ Q W a $.Y.P.P.",
"P.P.I.k.{ b.i.p.t.r.9.9.a.+.= X .                         .             X , <.4.;.*.) Q W a $.Y.P.P.",
"P.P.I.k.[ d.p.t.9.8.6.2.<.9.-.V g V V V V m m z m m m j m m m z m m m j j ;.6.-.*._ ~ W H u $.Y.P.P.",
"P.P.I.k.{ d.w.8.2.2.,.,.;.;.<.8.8.8.8.8.8.8.8.8.8.8.q.6.8.8.8.8.8.8.8.8.6.,.*.O._ ~ W H H a ..Y.P.P.",
"P.P.I.l.{ t.6.2.,.-.=.O.| } o._ _ _ | _ _ o.' _ } ' _ o._ | _ _ _ o.' _ _ _ ) ~ Q W H Z Z 6 $.Y.P.P.",
"P.P.I.k./ q.,.-.O._ ^ ~ Q Q W Q Q Q Q Q Q W Q Q Q Q Q W Q Q Q Q Q Q W ! W Q K K H D C M M 6 $.T.P.P.",
"P.P.I.S.I 5.=.| ^ Q K J H H D D D D D D H D D D D D D D D D D D D D D D D D Z Z M m g g m 4 $.Y.P.P.",
"P.P.I.S.L 3.' ` R H B M M n n n n n n n n n n n n n n n n n n n n n n n n n v c f f f a c 5 ..Y.P.P.",
"P.P.I.G.z S A z k l h d d d d d d d d d d d d d d d d d d d d d d d d d d d d d d d d s d 3 %.Y.P.P.",
"P.P.P.P.G.l.D.D.F.G.G.G.G.G.J.G.G.G.G.G.J.F.G.G.G.G.H.H.G.G.G.G.H.F.H.H.G.G.G.G.G.H.G.G.G.G.K.P.P.P.",
"P.P.P.P.I.I.I.I.I.I.I.I.I.I.I.I.I.I.I.I.I.I.I.I.I.I.I.P.I.I.I.I.I.I.I.I.I.I.I.I.I.I.I.I.I.I.P.K.P.P.",
"P.P.P.P.P.P.P.P.P.P.P.P.P.P.P.P.P.P.P.P.P.P.P.P.P.P.P.P.P.P.P.P.K.P.P.P.P.P.P.P.P.P.P.P.P.P.P.P.P.P.",
"P.P.P.P.P.P.P.P.P.P.P.P.P.P.P.P.P.P.P.P.P.P.P.P.P.P.P.P.P.P.P.P.P.P.P.P.P.P.P.P.P.P.P.P.K.P.P.P.P.P."
};
