/* XPM */
static char *recorderMouseOver_xpm[] = {
/* columns rows colors chars-per-pixel */
"50 50 171 2 ",
"   c #000006",
".  c #00040C",
"X  c #030A11",
"o  c #090E14",
"O  c #0C1116",
"+  c #0F1318",
"@  c #11151A",
"#  c #161A1D",
"$  c #191C1F",
"%  c #201B1E",
"&  c #1B1E21",
"*  c #1E2022",
"=  c #242526",
"-  c #2C2B2A",
";  c #33312F",
":  c #343230",
">  c #393633",
",  c #3B3936",
"<  c #413D38",
"1  c #46413C",
"2  c #4B443E",
"3  c #4F3D46",
"4  c #4D4740",
"5  c #4F4841",
"6  c #544D45",
"7  c #514F4F",
"8  c #5B5349",
"9  c #4E5B51",
"0  c #525752",
"q  c #525852",
"w  c #644B4C",
"e  c #61574C",
"r  c #655A4F",
"t  c #665D52",
"y  c #6B5F53",
"u  c #7E5450",
"i  c #666455",
"p  c #6D6355",
"a  c #6C6959",
"s  c #7C6C5C",
"d  c #726A5B",
"f  c #6A715F",
"g  c #7E705F",
"h  c #777260",
"j  c #7D7764",
"k  c #885151",
"l  c #855A55",
"z  c #856756",
"x  c #816F5A",
"c  c #8C6C5A",
"v  c #8E615B",
"b  c #92655E",
"n  c #84725D",
"m  c #88755F",
"M  c #91715E",
"N  c #956760",
"B  c #966861",
"V  c #9A6B64",
"C  c #827261",
"Z  c #897560",
"A  c #8C7A66",
"S  c #8F7C6A",
"D  c #957561",
"F  c #927D66",
"G  c #927F6C",
"H  c #9C7A66",
"J  c #A07169",
"K  c #A8776E",
"L  c #559668",
"P  c #539968",
"I  c #539466",
"U  c #37C46E",
"Y  c #38C36C",
"T  c #39C671",
"R  c #3DC974",
"E  c #44CF79",
"W  c #4BD47C",
"Q  c #46D17A",
"!  c #51D97E",
"~  c #968067",
"^  c #96816A",
"/  c #9C856D",
"(  c #928170",
")  c #998672",
"_  c #9D8B75",
"`  c #998F78",
"'  c #938A74",
"]  c #A0886E",
"[  c #A3816B",
"{  c #A58C72",
"}  c #AB8C73",
"|  c #B98579",
" . c #AB9176",
".. c #A2927B",
"X. c #AD9479",
"o. c #B1977B",
"O. c #B59A7E",
"+. c #BA937B",
"@. c #55DC81",
"#. c #57E585",
"$. c #58E786",
"%. c #57EA87",
"&. c #5BE887",
"*. c #58EF89",
"=. c #58F089",
"-. c #54FC8D",
";. c #59FD8F",
":. c #9E9085",
">. c #A29A86",
",. c #A29C89",
"<. c #B69C81",
"1. c #B99E81",
"2. c #AAA186",
"3. c #B6A084",
"4. c #BCA184",
"5. c #BEA589",
"6. c #A9A290",
"7. c #CF8E86",
"8. c #D49C8B",
"9. c #C1A486",
"0. c #C2A688",
"q. c #C5A98B",
"w. c #CBAD8E",
"e. c #C9A185",
"r. c #C4AD92",
"t. c #CEB192",
"y. c #D4B594",
"u. c #DABA97",
"i. c #D6B898",
"p. c #DBBB99",
"a. c #E1BF9D",
"s. c #EBBD9D",
"d. c #F4BA9C",
"f. c #E2C19E",
"g. c #E5C4A0",
"h. c #EAC6A1",
"j. c #EDCAA5",
"k. c #F1CDA7",
"l. c #F2CDA9",
"z. c #FBCAA7",
"x. c #E3D2AD",
"c. c #F4D1AB",
"v. c #FAD5AE",
"b. c #F1CDB7",
"n. c #F7D6B1",
"m. c #FAD7B1",
"M. c #FDDAB4",
"N. c #FBDCBB",
"B. c #F2D1BD",
"V. c #FFE0B6",
"C. c #FFE4BB",
"Z. c #FFE9BE",
"A. c #F2E2B9",
"S. c #F2D3C2",
"D. c #FBDFC1",
"F. c #FCE1C4",
"G. c #FFECC1",
"H. c #FCE3C8",
"J. c #FFEDCE",
"K. c #FFF2C5",
"L. c #FFF3CA",
"P. c #FFFCCC",
"I. c #FFEED4",
"U. c #F5E1D2",
"Y. c #FFF1D5",
"T. c #FFFED3",
"R. c #FFF3DA",
"E. c #FFFFD9",
"W. c #FFFFE4",
"Q. c #FFFFF6",
"!. c #FFFFFC",
/* pixels */
"#.#.#.#.#.#.#.#.#.#.#.#.#.#.#.#.#.#.#.#.#.#.#.#.#.#.%.! *.&.&.%.#.#.#.#.#.#.$.$.$.%.$.$.#.#.#.#.#.#.",
"#.#.#.#.#.#.#.#.#.#.#.#.#.#.#.#.#.#.#.#.#.#.#.#.#.#.&.! &.! ! $.#.#.#.#.#.#.&.! ! %.#.#.#.#.#.#.#.#.",
"#.#.#.#.*.*.*.*.*.*.*.*.*.*.*.%.%.%.*.*.*.*.*.*.*.%.*.%.;.! ;.=.*.*.*.*.*.%.%.*.*.%.=.=.%.=.%.#.#.#.",
"#.#.#.$.! Q W W W W W W W Q W W W W W W W Q W W W W W W W W W W W W Q W W W W W W W W W W W #.%.#.#.",
"#.#.*.@.9 7 0 0 q q q q 0 0 0 0 0 0 q q q q q q q q q 0 8 9 0 q 0 q q q q q q 0 0 0 0 0 0 3 P ;.#.#.",
"#.#.*.Y :.U.S.S.S.S.S.S.S.S.S.S.B.B.S.B.S.S.B.S.S.S.S.S.N.S.S.S.S.B.S.S.S.S.B.B.b.l.l.h.s.7.L -.#.#.",
"#.#.*.Y 6.W.I.Y.R.I.I.I.I.I.I.I.Y.Y.I.I.Y.I.I.I.I.I.I.I.I.I.I.I.I.I.I.I.I.I.J.J.G.F.M.v.l.8.L -.#.#.",
"#.#.*.T ,.R.H.H.H.U.H.H.H.H.H.H.H.H.H.H.H.H.H.H.H.H.H.H.H.H.H.H.H.H.H.H.H.H.F.F.M.M.k.f.u.| L ;.#.#.",
"#.#.*.Y ,.E.H.H.H.H.D.F.D.D.D.D.D.D.D.D.H.D.H.D.D.F.D.D.D.D.D.H.D.D.H.F.F.N.N.N.M.z.f.y.w.| P -.#.#.",
"#.#.*.Y :.Y.H.F.D.D.D.D.D.N.D.D.D.N.D.N.N.N.N.D.N.N.N.D.D.D.N.N.N.N.F.H.N.N.n.m.v.f.u.q.4.K P -.#.#.",
"#.#.*.Y 2.Y.N.F.N.D.N.N.N.N.N.N.N.N.N.N.N.N.M.N.N.N.N.N.N.N.N.H.L.T.F.n.N.n.m.v.f.f.t.4.O.J P -.#.#.",
"#.#.*.Y :.J.F.F.N.N.N.n.M.M.m.M.m.m.m.N.m.m.n.M.n.n.M.C.G.L.G.c.r.( 6 1 c.C.v.c.f.u.q.O.o.V P -.#.#.",
"#.#.*.U :.Y.N.N.N.N.N.m.m.m.m.m.n.m.m.m.n.n.M.N.Z.J.G.m.t.) y > @   . O 5.Z.v.k.f.y.9.o. .M L -.#.#.",
"#.#.*.U >.Y.N.N.N.n.M.n.m.m.m.v.m.m.m.M.C.G.L.M.p...d < @ . o & - 8 , . A Z.k.f.a.w.9.X. .b L -.#.#.",
"#.#.*.U >.J.N.N.N.n.M.m.m.v.v.m.V.G.L.N.g.<.g 4 $ X o O = , & = y.E._   2 V.v.f.u.w.O.o.} b P -.#.#.",
"#.#.*.U >.J.N.N.n.N.m.m.N.Z.K.Z.k.5.A 6 = @ o . % = # 6 x.k.- o r.E.O.O = p.M.f.u.w.9. . .b P -.#.#.",
"#.#.*.U >.J.N.N.N.n.m.N.C.y.) r : # .   o & = C x.S   8 T.P.8 X 2 t - #   S Z.f.p.w.4. . .b L -.#.#.",
"#.#.*.U >.I.N.N.N.m.G.5., =     O * , ) <.- o y.!.i.@ * d t - $ .   @ , 8 4.M.f.p.w.4.o.{ V P ;.#.#.",
"#.#.=.U >.J.N.N.n.M.L. .  # 6 ) e . 6 E.W.p   t >.8 = $     + ; 8 ^ q.c.Z.C.j.f.p.w.4. .{ b P -.#.#.",
"#.#.=.U >.J.N.N.n.N.C.l.; X 9.Q.a.o - q.2.4 & @     @ - 5 Z 1.j.C.K.Z.V.v.c.k.f.p.w.4. .{ b P -.#.#.",
"#.#.=.U >.J.N.N.M.M.N.Z.t   s A.{ = = & . . O * < s X.f.M.K.G.V.m.v.v.v.v.c.k.f.p.w.O.o. .b P -.#.#.",
"#.#.*.U >.J.N.N.N.M.m.J...o - - O O o @ , y _ y.m.G.K.C.M.m.v.v.v.v.v.v.v.c.k.f.p.w.4.o. .b P -.#.#.",
"#.#.*.U >.J.N.N.N.n.m.Z.i.= $ = 4 j O.g.Z.T.E.T.L.K.Z.G.G.G.G.Z.G.G.G.Z.Z.Z.v.f.p.w.4. .} M P -.#.#.",
"#.#.=.U >.I.N.N.M.m.m.N.l.: = p ` 5.y.q.1.<.X.<.o.o.>.X.<.<.<.1.<.1.3.4.3.X.t.j.p.w.O.o.{ b P ;.#.#.",
"#.#.*.U ,.J.N.N.N.M.m.N.v.2 * = O o X . X X . X X X X X X X X X X X X o @   n C.u.w.O.X.{ b P -.#.#.",
"#.#.*.U >.J.N.N.N.n.m.V.v.2 + : 1 , 1 < < , 1 < 1 , < < , < < 1 , 1 1 < - . A V.u.w.9.X.X.b P -.#.#.",
"#.#.*.U >.J.N.N.N.n.m.N.m.2   ^ Z.v.v.v.c.v.v.v.c.c.v.v.v.v.v.c.v.c.M.M.6   A V.u.w.O.o.{ b P -.#.#.",
"#.#.*.U >.I.N.N.M.M.m.V.m.2   / P.V.M.V.V.V.V.V.V.V.V.M.M.M.V.V.V.V.C.V.8   A V.a.w.9.X. .b P -.#.#.",
"#.#.*.U >.J.N.N.N.n.m.V.v.2   ( K.v.v.v.v.v.M.v.v.v.v.v.v.v.v.v.v.v.V.M.6   A V.u.w.1.o.{ V P -.#.#.",
"#.#.*.U >.J.N.N.N.n.m.C.v.2   ( K.v.v.v.v.v.v.v.v.v.v.v.v.v.v.v.v.v.M.M.6   A V.u.w.1.X.{ B P -.#.#.",
"#.#.*.U >.J.N.N.N.n.v.V.M.2   ^ L.v.v.v.v.v.v.v.v.v.v.v.v.v.v.v.v.v.M.M.8   A V.u.w.1.o.{ B P -.#.#.",
"#.#.*.U >.J.N.N.M.M.m.V.V.2   ^ K.v.v.v.v.v.v.v.v.v.v.v.v.v.v.v.v.v.M.M.6   S M.p.w.1.X.{ N P -.#.#.",
"#.#.=.U >.J.N.N.N.m.m.C.m.6   F K.v.v.v.v.v.v.v.v.v.v.v.v.v.v.v.v.v.V.M.6   S V.p.w.1.X.{ V P -.#.#.",
"#.#.*.U >.J.N.N.N.m.m.V.m.6   G K.v.v.v.v.v.v.v.v.v.v.v.v.v.v.v.v.v.M.M.6   A C.p.w.4.X.{ b P -.#.#.",
"#.#.*.U >.J.N.N.N.N.m.N.m.6   F K.v.v.v.v.v.v.v.v.m.v.v.v.v.v.v.v.v.M.M.6   A V.p.w.4.X. .b P -.#.#.",
"#.#.=.U >.J.N.N.m.m.m.M.m.6   ) P.v.M.M.M.M.M.M.m.m.m.m.M.m.m.m.m.m.V.V.8   A V.p.w.4. .{ b P -.#.#.",
"#.#.*.U ,.J.N.N.M.m.m.M.v.6   n K.V.M.M.M.V.M.V.V.V.M.V.M.V.M.M.V.V.Z.m.2   Z M.u.w.O. .{ b P ;.#.#.",
"#.#.=.U >.J.N.M.n.v.v.v.M.8 . - 8 p r r r r r t r r r r r r t t r r p 6 = X F v.t.w.O. .} b P -.#.#.",
"#.#.*.U >.G.n.m.v.c.k.j.n.5.= X                                         X < i.a.w.4.o.] / b P -.#.#.",
"#.#.*.U >.F.m.v.j.h.f.p.p.j.q.C s C C C C n C Z n n n g n n C C n n n s n q.f.q.9.O. ./ / b P -.#.#.",
"#.#.=.T >.N.z.h.f.p.y.y.w.w.p.h.j.f.j.j.f.k.h.f.f.j.j.f.h.h.h.h.k.f.f.j.f.y.9.4.O. .{ ~ ~ z I -.#.#.",
"#.#.=.T ..M.g.p.t.w.0.4.1.O.O.O.O.O.O.O.O.O.O.4.O.O.O.4.O.1.O.1.O.4.O.1.O.O.o.X. .] ~ M ~ l P -.#.#.",
"#.#.%.R ` z.y.q.4.O.X. .{ { { { { { { {  .] ] ]  .{ ] ] { { { { } ] { ] { ] / / ~ F m x n l P -.#.#.",
"#.#.%.E ' s.0.<.X.{ / ^ ~ ~ F ~ F F A S F F ~ ~ ~ ~ F F F S F F ~ ~ F F F F A Z m n s s x u P -.#.#.",
"#.#.=.R ( d.e.<.} / H D M D m M M M M M m D M M M M M M D M M M M M M M Z m M c c z z z c k I -.#.#.",
"#.#.=.W f S j h d a a i i i i i i i i i i i i i i i i i i i i i i i i i i q p i i i i i i w P ;.#.#.",
"#.#.#.%.@.T E Q W Q Q @.@.W W ! @.Q W @.W W W W W W W ! W W W W W W W W @.@.@.W W @.W W ! W ! *.#.#.",
"#.#.#.#.*.*.*.*.*.*.*.*.%.*.*.*.*.*.*.*.*.*.=.=.=.=.=.=.*.=.=.*.=.=.=.=.%.%.%.*.*.*.*.*.*.=.*.#.#.#.",
"#.#.#.#.#.#.#.#.#.#.#.#.#.#.#.#.#.#.#.#.#.#.#.#.#.#.#.#.#.#.#.#.%.$.#.#.#.#.#.#.#.#.#.#.#.#.#.#.#.#.",
"#.#.#.#.#.#.#.#.#.#.#.#.#.#.#.#.#.#.#.#.#.#.#.#.#.#.#.#.#.#.#.#.#.$.#.#.#.#.#.#.#.#.#.#.#.#.$.#.#.#."
};
