/* XPM */
static char *recorderDisabled_xpm[] = {
/* columns rows colors chars-per-pixel */
"50 50 255 2 ",
"   c #3F3B3B",
".  c gray31",
"X  c #524E4E",
"o  c #585959",
"O  c #585A5A",
"+  c #5B5E5E",
"@  c #645D5D",
"#  c #6A6565",
"$  c #696B6B",
"%  c #6E6868",
"&  c #6A6C6C",
"*  c #6B6D6D",
"=  c #6D6F6F",
"-  c #706B6B",
";  c #726D6D",
":  c #736E6E",
">  c #746F6F",
",  c #6F7070",
"<  c #767171",
"1  c #737474",
"2  c #737676",
"3  c #7B7676",
"4  c #797979",
"5  c #797B7B",
"6  c #7B7B7B",
"7  c #7C7C7C",
"8  c gray49",
"9  c #7F7D7D",
"0  c #7E7E7E",
"q  c #7F7E7E",
"w  c gray50",
"e  c #807E7E",
"r  c #817F7F",
"t  c #837E7E",
"y  c #808080",
"u  c #818181",
"i  c #828181",
"p  c gray51",
"a  c #838383",
"s  c #848484",
"d  c gray52",
"f  c #868585",
"g  c #878585",
"h  c #858686",
"j  c #868686",
"k  c #878686",
"l  c gray53",
"z  c #888787",
"x  c #888888",
"c  c #888989",
"v  c #898989",
"b  c gray54",
"n  c #8A8B8B",
"m  c #8B8B8B",
"M  c #8F8A8A",
"N  c #8B8C8C",
"B  c gray55",
"V  c #8D8D8D",
"C  c #8D8E8E",
"Z  c #8E8E8E",
"A  c gray56",
"S  c #908F8F",
"D  c #909090",
"F  c gray57",
"G  c #929292",
"H  c #939292",
"J  c #939393",
"K  c #939494",
"L  c gray58",
"P  c #949595",
"I  c #959595",
"U  c #959696",
"Y  c gray59",
"T  c #969797",
"R  c #979797",
"E  c #9D9595",
"W  c #989898",
"Q  c #989999",
"!  c gray60",
"~  c #999A9A",
"^  c #9A9A9A",
"/  c #9A9B9B",
"(  c #9B9B9B",
")  c #9D9B9B",
"_  c #9B9C9C",
"`  c #9B9D9D",
"'  c gray61",
"]  c #9C9D9D",
"[  c #9D9D9D",
"{  c #9D9E9E",
"}  c #9D9F9F",
"|  c gray62",
" . c #9E9F9F",
".. c #9F9F9F",
"X. c #93A2A2",
"o. c #94A2A2",
"O. c #97A7A7",
"+. c #9EA0A0",
"@. c #9FA0A0",
"#. c #99A8A8",
"$. c #98A9A9",
"%. c #99AAAA",
"&. c #A0A0A0",
"*. c gray63",
"=. c #A1A2A2",
"-. c #A2A2A2",
";. c gray64",
":. c #A7A1A1",
">. c #A3A4A4",
",. c #A4A4A4",
"<. c #A4A5A5",
"1. c #A5A5A5",
"2. c #A5A6A6",
"3. c gray65",
"4. c #A7A7A7",
"5. c gray66",
"6. c #A8A9A9",
"7. c #A9A9A9",
"8. c #AAAAAA",
"9. c gray67",
"0. c #ACABAB",
"q. c #ADABAB",
"w. c #ACACAC",
"e. c gray68",
"r. c #AEADAD",
"t. c #AEAEAE",
"y. c #AFAFAF",
"u. c gray69",
"i. c #B1B1B1",
"p. c #B2B2B2",
"a. c gray70",
"s. c #B4B4B4",
"d. c gray71",
"f. c #B6B6B6",
"g. c #B6B7B7",
"h. c #B7B7B7",
"j. c gray72",
"k. c #B9B9B9",
"l. c gray73",
"z. c #BBBBBB",
"x. c #BBBCBC",
"c. c #BCBCBC",
"v. c gray74",
"b. c gray",
"n. c gray75",
"m. c #BFC0C0",
"M. c #BBD8D8",
"N. c #BDDBDB",
"B. c #BEDBDB",
"V. c #BEDCDC",
"C. c #BFDCDC",
"Z. c #C0C0C0",
"A. c #C1C1C1",
"S. c gray76",
"D. c #C2C3C3",
"F. c #C3C3C3",
"G. c gray77",
"H. c #C5C5C5",
"J. c #C6C6C6",
"K. c gray78",
"L. c #C8C8C8",
"P. c gray79",
"I. c #CACACA",
"U. c #CBCBCB",
"Y. c gray80",
"T. c #CDCDCD",
"R. c #CECECE",
"E. c gray81",
"W. c #D0CCCC",
"Q. c #D0CECE",
"!. c #C0DDDD",
"~. c #C0DEDE",
"^. c #C2DFDF",
"/. c #D0D0D0",
"(. c #D0D1D1",
"). c gray82",
"_. c #D3D1D1",
"`. c #D1D2D2",
"'. c #D2D2D2",
"]. c LightGray",
"[. c gray83",
"{. c #D5D5D5",
"}. c #D6D4D4",
"|. c gray84",
" X c #D7D7D7",
".X c #D8D6D6",
"XX c #D9D7D7",
"oX c #D8D8D8",
"OX c gray85",
"+X c #DBD9D9",
"@X c #DADADA",
"#X c gray86",
"$X c #DBDCDC",
"%X c gainsboro",
"&X c #DDDDDD",
"*X c gray87",
"=X c #DFDFDF",
"-X c #C9E6E6",
";X c #CBE9E9",
":X c #CCE9E9",
">X c #CDEAEA",
",X c #CEEBEB",
"<X c #CEECEC",
"1X c #CFECEC",
"2X c #CFEDED",
"3X c #D4F1F1",
"4X c #D7F5F5",
"5X c #DCFAFA",
"6X c #DEFFFF",
"7X c #DFFFFF",
"8X c gray88",
"9X c #E1E1E1",
"0X c #E2E2E2",
"qX c gray89",
"wX c #E4E4E4",
"eX c gray90",
"rX c #E6E6E6",
"tX c #E7E7E7",
"yX c #E8E4E4",
"uX c gray91",
"iX c #E9E9E9",
"pX c #EAE8E8",
"aX c #EAEAEA",
"sX c gray92",
"dX c #ECECEC",
"fX c #EFEDED",
"gX c #EFEFEF",
"hX c #F1EFEF",
"jX c LightCyan",
"kX c #E1FFFF",
"lX c #E2FFFF",
"zX c #E3FFFF",
"xX c #E5FFFF",
"cX c #E9FFFF",
"vX c #EAFFFF",
"bX c #EBFFFF",
"nX c gray94",
"mX c gray95",
"MX c #F3F3F3",
"NX c #F4F2F2",
"BX c #F5F3F3",
"VX c #F4F4F4",
"CX c gray96",
"ZX c #F6F4F4",
"AX c #F7F5F5",
"SX c gray97",
"DX c #F9F7F7",
"FX c #F2FFFF",
"GX c #F3FFFF",
"HX c #F4FFFF",
"JX c #F5FFFF",
"KX c #F6FFFF",
"LX c #F7FFFF",
"PX c #F8FFFF",
"IX c white",
/* pixels */
"jXjXjXjXjXjXjXjXjXjXjXjXjXjXjXjXjXjXjXjXjXjXjXjXjXjXjXjXjXjXjXjXjXjXjXjXjXjXjXjXjXjXjXjXjXjXjXjXjXjX",
"jXjXjXjXjXjXjXjXjXjXjXjXjXjXjXjXjXjXjXjXjXjXjXjXjXjXjXjXjXjXjXjXjXjXjXjXjXjXjXjXjXjXjXjXjXjXjXjXjXjX",
"jXjX7XkXcXvXvXvXvXvXvXvXvXvXvXvXvXvXvXvXvXvXvXvXvXvXvXvXvXvXvXvXvXvXvXvXvXvXvXvXvXvXvXvXvXbXxX6XjXjX",
"jXjXjXkX3X:X,X,X,X,X,X,X,X,X,X,X,X,X,X,X,X,X,X,X,X,X,X,X,X,X,X,X,X,X,X,X,X,X,X,X<X<X<X1X<X1X5XlXjXjX",
"jXjXvX4X+ . o o o o o o o o o o o o o o o o o o o o o o o o o o o o o o o o o o o o o o O   $.PXjXjX",
"jXjXbXB.H yXXXXXXXXXXXXXXXXXXXXXXXXXXXXXXXXXXXXXXXXXXXXXXXXXXXXXXXXXXXXXXXXXXXXX.X}._.Q._.E o.HXjXjX",
"jXjXvXM.2.IXMXVXVXCXCXVXVXVXVXVXVXVXVXVXVXVXVXVXVXVXVXVXVXVXVXVXVXVXVXVXVXVXVXMXmXgXsXtX9X:.#.FXjXjX",
"jXjXvXN.@.DXuXuXuXiXiXuXuXuXuXuXuXuXuXuXuXuXuXuXuXuXuXuXuXuXuXuXuXuXuXuXuXuXuXtXwX9X&X(.H.M O.GXjXjX",
"jXjXvXN.+.AXrXtXtXrXrXrXeXeXeXeXeXeXeXeXeXeXeXeXeXeXeXeXeXeXeXeXeXeXeXeXeXeXeXqX8X&X).m.d.t O.JXjXjX",
"jXjXvXN.+.ZXeXwXeXwX0X0X0X0X0X0X0X0X0X0X0X0X0X0X0X0X0X0X0X0X0X0X0X0XeXrX0X0X9X=X%X].S.p.7.3 O.JXjXjX",
"jXjXvXB. .BXwXqX0X9X=X=X=X*X*X*X*X*X*X*X*X*X*X*X*X*X*X*X*X*X8XqXuXsX0X&X8X*X&X%X{.J.f.5.=.< O.JXjXjX",
"jXjXvXB. .BXqX0X9X=X*X%X%X%X#X#X#X#X#X#X#X#X#X#X#X#X&X=XqXuXqXOXP.f...( oX8X#X XT.n.u.-.] > O.KXjXjX",
"jXjXvXB. .BXqX0X8X*X&X#X@X@X@X@X@X@X@X@X@XOX@X&X8XrX0XOXI.j.4.Y l 6 p l H.wXoX`.K.l.9...( : O.KXjXjX",
"jXjXvXB. .BXqX0X8X&X#X@XOXOXOXOXOXOXOX#X=XwXwX#XR.c.8.! v y j m G ;.W p p.wX|.E.H.j.8.| ^ : O.KXjXjX",
"jXjXvXB. .BXqX0X8X*X#X@XOXOXOX#X*XqXeX&X'.Z.y.' B s l l Z R B D U.nXl.0 | %XoXE.H.j.8.| ^ : O.KXjXjX",
"jXjXvXB. .BXqX0X8X*X#X@X%X9XeX8X{.H.a.&.D v d a m D b *.oX{.G s K.VXS.l A /.%XE.H.j.8.| ^ : O.KXjXjX",
"jXjXvXB. .BXqX0X8X*X@X=X&XY.j.3.I m p 8 d V A i.OXs.w -.dXuX;.a | 4.G b 7 d.0XE.H.j.8.| ^ : O.KXjXjX",
"jXjXvXB. .BXqX0X8X*XwXG.R A w 4 j V R k.Z.G s Y.IXY.v Z 9.3.G B p 6 x R -.H.%XE.H.j.8.| ^ : O.KXjXjX",
"jXjXvXB. .BXqX0X8X*XrXb.y B &.l.,.u *.gXSX7.w 1.A.,.A B w 7 x L ;.d.K. X0X8X].E.H.j.8.| ^ : O.KXjXjX",
"jXjXvXB. .BXqX0X8X*X8X|.J s H.IX/.j F J.G.| B v 8 0 x F | i.F.].*XeX0X&X#XOX{.E.H.j.8.| ^ : O.KXjXjX",
"jXjXvXB. .BXqX0X8X*X&X0X4.7 t.=Xl.D Z B u u x Z ^ e.b./.%XwXwX*X#XOXOXOXOXOX{.E.H.j.8.| ^ : O.KXjXjX",
"jXjXvXB. .BXqX0X8X*X#XrXz.j G F l l d v R 7.l.Y.@XqXeX=X%XOXOXOXOXOXOXOXOXOX{.E.H.j.8.| ^ : O.KXjXjX",
"jXjXvXB. .BXqX0X8X*X#X9XT.D m A [ y.Z.'.0XsXgXaXrXwXqXqXqX0X0X0X0XqX0X0X0XqXOXR.H.j.8.| ^ : O.KXjXjX",
"jXjXvXB. .BXqX0X8X*X#X*XoXL Z 7.z.H.U.K.F.Z.n.n.n.n.n.b.Z.S.A.A.A.A.S.F.F.Z.U.'.H.j.8.| ^ : O.KXjXjX",
"jXjXvXB. .BXqX0X8X*X#X*X@X( V D x d a a a a a a a a a a s d d d d s d d b y u.%XH.j.8.| ^ : O.KXjXjX",
"jXjXvXB. .BXqX0X8X*X#X&X@X| x L ^ ! ! ! ! ! ! ! ! ! ! ! ! ! ! ! ! ! ! ! F p p.#XH.j.8.| ^ : O.KXjXjX",
"jXjXvXB. .BXqX0X8X*X#X&X@X[ 0 d.wXoXoXoXoXoXoXoXoXoXoXoXoXoXoXoXoXoX#X@X*.0 a.#XH.j.8.| ^ : O.KXjXjX",
"jXjXvXB. .BXqX0X8X*X#X&X@X[ 8 h.iX&X&X&X&X&X&X&X&X&X&X&X&X&X&X&X&X&X8X=X-.0 a.#XH.j.8.| ^ : O.KXjXjX",
"jXjXvXB. .BXqX0X8X*X#X&X@X[ 0 d.eXOXOXOXOXOXOXOXOXOXOXOXOXOXOXOXOXOX%X#X*.0 a.#XH.j.8.| ^ : O.KXjXjX",
"jXjXvXB. .BXqX0X8X*X#X&X@X[ 0 d.eXOXOXOXOXOXOXOXOXOXOXOXOXOXOXOXOXOX%X#X*.0 a.#XH.j.8.| ^ : O.KXjXjX",
"jXjXvXB. .BXqX0X8X*X#X&X#X| 0 d.eXOXOXOXOXOXOXOXOXOXOXOXOXOXOXOXOXOX%X#X*.0 a.#XH.j.8.| ^ : O.KXjXjX",
"jXjXvXB. .BXqX0X8X*X#X&X#X| 0 d.eXOXOXOXOXOXOXOXOXOXOXOXOXOXOXOXOXOX%X#X*.0 a.#XH.j.8.| ^ : O.KXjXjX",
"jXjXvXB. .BXqX0X8X*X#X&X#X| 0 d.eXOXOXOXOXOXOXOXOXOXOXOXOXOXOXOXOXOX%X#X*.0 a.#XH.j.8.| ^ : O.KXjXjX",
"jXjXvXB. .BXqX0X8X*X#X&X#X| 0 d.eXOXOXOXOXOXOXOXOXOXOXOXOXOXOXOXOXOX%X#X*.0 a.#XH.j.8.| ^ : O.KXjXjX",
"jXjXvXB. .BXqX0X8X*X#X&X#X| 0 d.eXOXOXOXOXOXOXOXOXOXOXOXOXOXOXOXOXOX%X#X*.0 a.#XH.j.8.| ^ : O.KXjXjX",
"jXjXvXB. .BXqX0X8X*X#X&X#X| 8 j.iX#X#X#X#X#X#X#X#X#X#X#X#X#X#X#X#X#X*X*X;.8 a.#XH.j.8.| ^ : O.KXjXjX",
"jXjXvXB. .BXqX9X8X*X#X*X#X| 0 y.rX=X*X*X*X*X*X*X*X*X*X*X*X*X*X*X*X*X9X%X| 0 p.$XH.j.8.| ^ : O.KXjXjX",
"jXjXvXB. .BXqX8X=X&X#X%X*X;.p F ,.4.3.3.3.3.3.3.3.3.3.3.3.3.3.3.3.3.5.*.A s h. XF.g.6.[ / : O.KXjXjX",
"jXjXvXB.} NX0X8X*X%XOX[.OXD.D j w y y y y y y y y y y y y y y y y y y u d ^ U.U.b.a.3.] ~ : O.KXjXjX",
"jXjXvXB.} NX9X*X%X|.R.P.J.T.A.w.8.9.9.9.9.9.9.9.9.9.9.9.9.9.9.9.9.9.9.8.9.S.L.v.h.e.-.^ W ; O.KXjXjX",
"jXjXvXV.{ hX*X%X'.K.Z.x.j.h.v.A.S.A.A.A.A.A.A.A.A.A.A.A.A.A.A.A.A.A.A.S.S.c.d.i.0.<.] U T ; O.KXjXjX",
"jXjXvXV.] fX@XE.A.d.r.6.3.1.1.1.1.1.1.1.1.1.1.1.1.1.1.1.1.1.1.1.1.1.1.1.1.1.>.=.{ ~ P F J - O.KXjXjX",
"jXjXvXC.` pXT.c.t.;._ R Y I I I I I I I I I I I I I I I I I I I I I I I I I L J F A B N A % O.KXjXjX",
"jXjXvX~.Q +Xz.w.[ K C n v v v v v v v v v v v v v v v v v v v v v v v v v v c z k j h j N # O.KXjXjX",
"jXjXbX!.S W.q.) S g i e q q q q q q q q q q q q q q q q q q q q q q q q q q 9 9 9 q q r f @ X.LXjXjX",
"jXjXvX2X2 p 5 1 , * & $ $ $ $ $ $ $ $ $ $ $ $ $ $ $ $ $ $ $ $ $ $ $ $ $ $ $ $ $ $ & & * = X %.LXjXjX",
"jXjXjXzX1X^.-X;X>X<X1X2X2X2X2X2X2X2X2X2X2X2X2X2X2X2X2X2X2X2X2X2X2X2X2X2X2X2X2X2X2X1X1X1X,X,X5XlXjXjX",
"jXjX7XkXcXvXvXvXvXvXvXvXvXvXvXvXvXvXvXvXvXvXvXvXvXvXvXvXvXvXvXvXvXvXvXvXvXvXvXvXvXvXvXvXvXbXxX6XjXjX",
"jXjXjXjXjXjXjXjXjXjXjXjXjXjXjXjXjXjXjXjXjXjXjXjXjXjXjXjXjXjXjXjXjXjXjXjXjXjXjXjXjXjXjXjXjXjXjXjXjXjX",
"jXjXjXjXjXjXjXjXjXjXjXjXjXjXjXjXjXjXjXjXjXjXjXjXjXjXjXjXjXjXjXjXjXjXjXjXjXjXjXjXjXjXjXjXjXjXjXjXjXjX"
};
