/* XPM */
static char *spyDisabled_xpm[] = {
/* columns rows colors chars-per-pixel */
"50 50 255 2 ",
"   c #3F3B3B",
".  c gray31",
"X  c #524E4E",
"o  c #585959",
"O  c #585A5A",
"+  c #5B5E5E",
"@  c #645D5D",
"#  c #6A6565",
"$  c #696B6B",
"%  c #6E6868",
"&  c #6A6C6C",
"*  c #6B6D6D",
"=  c #6D6F6F",
"-  c #706B6B",
";  c #726D6D",
":  c #736E6E",
">  c #746F6F",
",  c #6F7070",
"<  c gray44",
"1  c #727272",
"2  c #767171",
"3  c #737474",
"4  c #737676",
"5  c #7B7676",
"6  c #797B7B",
"7  c #7C7C7C",
"8  c gray49",
"9  c #7F7D7D",
"0  c #7E7E7E",
"q  c #7F7E7E",
"w  c gray50",
"e  c #807E7E",
"r  c #817F7F",
"t  c #837E7E",
"y  c #808080",
"u  c #818181",
"i  c #828181",
"p  c gray51",
"a  c #838383",
"s  c #848484",
"d  c gray52",
"f  c #868585",
"g  c #878585",
"h  c #858686",
"j  c #868686",
"k  c #878686",
"l  c gray53",
"z  c #888787",
"x  c #888888",
"c  c #888989",
"v  c #898989",
"b  c gray54",
"n  c #8A8B8B",
"m  c #8B8B8B",
"M  c #8F8A8A",
"N  c #8B8C8C",
"B  c gray55",
"V  c #8D8D8D",
"C  c #8D8E8E",
"Z  c #8E8E8E",
"A  c gray56",
"S  c #908F8F",
"D  c #909090",
"F  c gray57",
"G  c #929292",
"H  c #939292",
"J  c #939393",
"K  c #939494",
"L  c gray58",
"P  c #949595",
"I  c #959595",
"U  c #959696",
"Y  c gray59",
"T  c #969797",
"R  c #979797",
"E  c #9D9595",
"W  c #989898",
"Q  c #989999",
"!  c gray60",
"~  c #999A9A",
"^  c #9A9A9A",
"/  c #9A9B9B",
"(  c #9B9B9B",
")  c #9D9B9B",
"_  c #9B9C9C",
"`  c #9B9D9D",
"'  c gray61",
"]  c #9C9D9D",
"[  c #9D9D9D",
"{  c #9D9E9E",
"}  c #9D9F9F",
"|  c gray62",
" . c #9E9F9F",
".. c #9F9F9F",
"X. c #93A2A2",
"o. c #94A2A2",
"O. c #97A7A7",
"+. c #9EA0A0",
"@. c #9FA0A0",
"#. c #99A8A8",
"$. c #98A9A9",
"%. c #99AAAA",
"&. c gray63",
"*. c #A1A2A2",
"=. c #A2A2A2",
"-. c gray64",
";. c #A7A1A1",
":. c #A3A4A4",
">. c #A4A4A4",
",. c #A4A5A5",
"<. c #A5A5A5",
"1. c #A5A6A6",
"2. c gray65",
"3. c #A7A7A7",
"4. c gray66",
"5. c #A8A9A9",
"6. c #A9A9A9",
"7. c #AAAAAA",
"8. c gray67",
"9. c #ACABAB",
"0. c #ADABAB",
"q. c #ACACAC",
"w. c gray68",
"e. c #AEADAD",
"r. c #AEAEAE",
"t. c #AFAFAF",
"y. c gray69",
"u. c #B1B1B1",
"i. c #B2B1B1",
"p. c #B2B2B2",
"a. c gray70",
"s. c gray71",
"d. c #B5B6B6",
"f. c #B6B6B6",
"g. c #B6B7B7",
"h. c #B7B7B7",
"j. c #B8B7B7",
"k. c gray72",
"l. c #B9B9B9",
"z. c gray73",
"x. c #BBBBBB",
"c. c #BBBCBC",
"v. c #BCBCBC",
"b. c gray74",
"n. c gray",
"m. c gray75",
"M. c #BFC0C0",
"N. c #BBD8D8",
"B. c #BDDBDB",
"V. c #BEDBDB",
"C. c #BEDCDC",
"Z. c #BFDCDC",
"A. c #C0C0C0",
"S. c #C1C1C1",
"D. c gray76",
"F. c #C3C3C3",
"G. c gray77",
"H. c #C5C4C4",
"J. c #C5C5C5",
"K. c #C6C6C6",
"L. c gray78",
"P. c #C8C8C8",
"I. c #CAC9C9",
"U. c #C9CACA",
"Y. c gray80",
"T. c #CDCDCD",
"R. c #CECECE",
"E. c gray81",
"W. c #D0CCCC",
"Q. c #D0CECE",
"!. c #C0DDDD",
"~. c #C0DEDE",
"^. c #C2DFDF",
"/. c #D0D0D0",
"(. c #D0D1D1",
"). c gray82",
"_. c #D3D1D1",
"`. c #D1D2D2",
"'. c #D2D2D2",
"]. c LightGray",
"[. c #D4D3D3",
"{. c gray83",
"}. c #D5D5D5",
"|. c #D6D4D4",
" X c #D5D6D6",
".X c gray84",
"XX c #D7D7D7",
"oX c #D8D6D6",
"OX c #D9D7D7",
"+X c #D8D8D8",
"@X c gray85",
"#X c #DBD9D9",
"$X c #DADADA",
"%X c gray86",
"&X c gainsboro",
"*X c #DDDDDD",
"=X c gray87",
"-X c #DFDFDF",
";X c #C9E6E6",
":X c #CBE9E9",
">X c #CCE9E9",
",X c #CDEAEA",
"<X c #CEEBEB",
"1X c #CEECEC",
"2X c #CFECEC",
"3X c #CFEDED",
"4X c #D4F1F1",
"5X c #D7F5F5",
"6X c #DCFAFA",
"7X c #DEFFFF",
"8X c #DFFFFF",
"9X c gray88",
"0X c #E1E1E1",
"qX c #E2E2E2",
"wX c gray89",
"eX c #E4E4E4",
"rX c gray90",
"tX c #E6E6E6",
"yX c #E7E7E7",
"uX c #E8E4E4",
"iX c gray91",
"pX c #E9E9E9",
"aX c #EAE8E8",
"sX c #EAEAEA",
"dX c gray92",
"fX c #ECECEC",
"gX c #EFEDED",
"hX c #EEEEEE",
"jX c #EFEFEF",
"kX c #F1EFEF",
"lX c LightCyan",
"zX c #E1FFFF",
"xX c #E2FFFF",
"cX c #E3FFFF",
"vX c #E5FFFF",
"bX c #E9FFFF",
"nX c #EAFFFF",
"mX c #EBFFFF",
"MX c gray95",
"NX c #F3F3F3",
"BX c #F4F2F2",
"VX c #F5F3F3",
"CX c #F4F4F4",
"ZX c gray96",
"AX c #F6F4F4",
"SX c #F7F5F5",
"DX c #F9F7F7",
"FX c #F2FFFF",
"GX c #F3FFFF",
"HX c #F4FFFF",
"JX c #F5FFFF",
"KX c #F6FFFF",
"LX c #F7FFFF",
"PX c #F8FFFF",
"IX c white",
/* pixels */
"lXlXlXlXlXlXlXlXlXlXlXlXlXlXlXlXlXlXlXlXlXlXlXlXlXlXlXlXlXlXlXlXlXlXlXlXlXlXlXlXlXlXlXlXlXlXlXlXlXlX",
"lXlXlXlXlXlXlXlXlXlXlXlXlXlXlXlXlXlXlXlXlXlXlXlXlXlXlXlXlXlXlXlXlXlXlXlXlXlXlXlXlXlXlXlXlXlXlXlXlXlX",
"lXlX8XzXbXnXnXnXnXnXnXnXnXnXnXnXnXnXnXnXnXnXnXnXnXnXnXnXnXnXnXnXnXnXnXnXnXnXnXnXnXnXnXnXnXmXvX7XlXlX",
"lXlXlXzX4X>X<X<X<X<X<X<X<X<X<X<X<X<X<X<X<X<X<X<X<X<X<X<X<X<X<X<X<X<X<X<X<X<X<X<X1X1X1X2X1X2X6XxXlXlX",
"lXlXnX5X+ . o o o o o o o o o o o o o o o o o o o o o o o o o o o o o o o o o o o o o o O   $.PXlXlX",
"lXlXmXV.H uXOXOXOXOXOXOXOXOXOXOXOXOXOXOXOXOXOXOXOXOXOXOXOXOXOXOXOXOXOXOXOXOXOXOXoX|._.Q._.E o.HXlXlX",
"lXlXnXN.1.IXNXCXCXZXZXCXCXCXCXCXCXCXCXCXCXCXCXCXCXCXCXCXCXCXCXCXCXCXCXCXCXCXCXNXMXjXdXyX0X;.#.FXlXlX",
"lXlXnXB.@.DXiXiXiXpXpXiXiXiXiXiXiXiXiXiXiXiXiXiXiXiXiXiXiXiXiXiXiXiXiXiXiXiXiXyXeX0X*X(.J.M O.GXlXlX",
"lXlXnXB.+.SXtXyXyXtXtXtXrXrXrXrXrXrXrXrXrXrXrXrXrXrXrXrXrXrXrXrXrXrXrXrXrXrXrXwX9X*X).M.s.t O.JXlXlX",
"lXlXnXB.+.AXrXeXrXeXqXqXqXqXqXqXqXqXqXqXqXqXqXqXqXqXqXqXqXqXqXqXqXqXqXqXqXqX0X-X&X].D.p.6.5 O.JXlXlX",
"lXlXnXV. .VXeXwXqX0X-X-X-X=X=X=X=X=X=X=X=X=X=X=X=X=X=X=X=X=X=X=X=X=X=X=X=X=X*X&X}.K.f.4.*.2 O.JXlXlX",
"lXlXnXV. .VXwXqX0X-X=X&X&X&X%X%X%X%X%X%X%X&X=X-X9X9X9X-X*X%X%X%X%X%X%X%X%X%X%XXXT.m.y.=.] > O.KXlXlX",
"lXlXnXV. .VXwXqX9X=X*X%X$X$X$X$X$X@X$X=XrXeX*X+X.X.XXX%XqXrX9X%X@X$X$X$X$X$X+X`.L.z.8...( : O.KXlXlX",
"lXlXnXV. .VXwXqX9X*X%X$X@X@X@X@X@X9XeX}.m.r.=.W J G I | 7.x.'.wX0X@X@X@X@X@X.XE.J.k.7.| ^ : O.KXlXlX",
"lXlXnXV. .VXwXqX9X=X%X$X@X@X+X&XrX].t.J a 7 8 p l l s 0 7 u D 7./.rX*X+X@X@X}.E.J.k.7.| ^ : O.KXlXlX",
"lXlXnXV. .VXwXqX9X=X%X$X@X+X0XqXk.A 8 y D >.a.b.F.G.m.f.4.J u 8 V f.0X0X+X@X}.E.J.k.7.| ^ : O.KXlXlX",
"lXlXnXV. .VXwXqX9X=X%X$X+XqX%X>.u 0 L h.'.=XiXhXhXhXhXsX0X}.x.R w y =.%XwX+X}.E.J.k.7.| ^ : O.KXlXlX",
"lXlXnXV. .VXwXqX9X=X%X@XwX@X^ 0 d w.+XtX9XrX&XS.a.p.n.+XrX9XtX%Xt.j 0 ^ @X0X{.E.J.k.7.| ^ : O.KXlXlX",
"lXlXnXV. .VXwXqX9X=X$X9X*X' 0 v b.tX0X@XeXY.^ l s s j I D.wX$X9XyXm.b 0 [ &X&XR.J.k.7.| ^ : O.KXlXlX",
"lXlXnXV. .VXwXqX9X=X=XeX6.0 v F.iX&X+XwXY.m j D F F D x d S.eX+X%XiXF.v 0 7.9X).J.k.7.| ^ : O.KXlXlX",
"lXlXnXV. .VXwXqX9X*XiXm.p a z.yX$X@X&X&X^ d G F F F F G v F {.-X+X$XyXz.s d n.$XH.k.7.| ^ : O.KXlXlX",
"lXlXnXV. .VXwXqX9XqX+XI y 7.eX&X@X@XwXD.l D F F F F F F F s h.eX@X@X&XeX6.y I T.I.k.7.| ^ : O.KXlXlX",
"lXlXnXV. .VXwXqX9XsXk.8 G XXwX+X@X@XrXp.s F F F F F F F F j 4.9X%X@X+XwX}.D u u./.k.7.| ^ : O.KXlXlX",
"lXlXnXV. .VXwXqX9XtXP.l v J.tX+X@X@XeXt.s F F F F F F F F x >.=X%X@X@XtXF.x b m.Y.k.7.| ^ : O.KXlXlX",
"lXlXnXV. .VXwXqX9X=XtX4.7 I @XqX+X@XrXh.s F F F F F F F F s q.wX@X+XwX}.F 0 7.@XJ.k.7.| ^ : O.KXlXlX",
"lXlXnXV. .VXwXqX9X*XeX].Z 0 >.wX-X+X9XR.B V F F F F F F A j D.wX+XqX=X[ 0 J ]..XG.k.7.| ^ : O.KXlXlX",
"lXlXnXV. .VXwXqX9X=X%XyXm.a u q.eX9X@XwXw.u A G F F F F p =.-X%XeX=X&.w l K.0XR.J.k.7.| ^ : O.KXlXlX",
"lXlXnXV. .VXwXqX9X=X%X&XrXu.u p 3.*XrX0X*X=.l F F F G l W XXyXtX'.( w d b.rX.XE.J.k.7.| ^ : O.KXlXlX",
"lXlXnXV. .VXwXqX9X=X%X@X=XqXt.p y ! J.9XiXwX8.x F F x 3.-XpX+Xh.Z 8 x n.rX%X{.E.J.k.7.| ^ : O.KXlXlX",
"lXlXnXV. .VXwXqX9X=X%X$X+X=XeXz.b 8 j ..S.fXl.s F F d f.hXv.F u 0 L P.tX%X+X}.E.J.k.7.| ^ : O.KXlXlX",
"lXlXnXV. .VXwXqX9X=X%X$X@X+X&XrXR.=.j < >.pX<.x F F b ..iX8.1 A y.@XeX@X+X@X}.E.J.k.7.| ^ : O.KXlXlX",
"lXlXnXV. .VXwXqX9X=X%X$X@X@X@X@XwX0XJ...D.9XR B F F V G @XY.w./.rX-X+X@X@X@X}.E.J.k.7.| ^ : O.KXlXlX",
"lXlXnXV. .VXwXqX9X=X%X$X@X@X@X@X+X%XwX0X0XY.A Z F F A m F.tXrX9X@X@X@X@X@X@X}.E.J.k.7.| ^ : O.KXlXlX",
"lXlXnXV. .VXwXqX9X=X%X$X@X@X@X@X@X@X@X%XtXm.x D F F F d f.tX@X@X@X@X@X@X@X@X}.E.J.k.7.| ^ : O.KXlXlX",
"lXlXnXV. .VXwXqX9X=X%X$X@X@X@X@X@X@X@X@XrXa.d F F F F l 4.9X$X@X@X@X@X@X@X@X}.E.J.k.7.| ^ : O.KXlXlX",
"lXlXnXV. .VXwXqX9X=X%X$X@X@X@X@X@X@X@X&X-X=.a V V V V j I +X*X@X@X@X@X@X@X@X}.E.J.k.7.| ^ : O.KXlXlX",
"lXlXnXV. .VXwX0X9X=X%X$X$X@X@X@X@X@X@X*X+X[ D I I I I G L R.-X@X@X@X@X@X@X@X.XE.J.k.7.| ^ : O.KXlXlX",
"lXlXnXV. .VXwX9X-X*X%X$X+XXXXXXXXXXXXXXX.X'.{.[.[.[.[.[.'.}.XXXXXXXXXXXXXXXX].T.F.g.5.[ / : O.KXlXlX",
"lXlXnXV.} BXqX9X=X&X@X{.).).).).).).).(.).}..X X X X X X X'.(.).).).).).)./.T.L.n.a.2.] ~ : O.KXlXlX",
"lXlXnXV.} BX0X=X&X.XR.U.L.K.K.K.K.K.K.K.K.K.K.K.K.K.K.K.K.K.K.K.K.K.K.K.K.K.F.n.h.w.=.^ W ; O.KXlXlX",
"lXlXnXC.{ kX=X&X'.L.A.c.l.j.j.j.j.j.j.j.j.j.j.j.j.j.j.j.j.j.j.j.j.j.j.j.j.k.d.i.9.,.] U T ; O.KXlXlX",
"lXlXnXC.] gX$XE.S.s.e.5.2.<.<.<.<.<.<.<.<.<.<.<.<.<.<.<.<.<.<.<.<.<.<.<.<.<.:.*.{ ~ P F J - O.KXlXlX",
"lXlXnXZ.` aXT.v.r.-._ R Y I I I I I I I I I I I I I I I I I I I I I I I I I L J F A B N A % O.KXlXlX",
"lXlXnX~.Q #Xx.q.[ K C n v v v v v v v v v v v v v v v v v v v v v v v v v v c z k j h j N # O.KXlXlX",
"lXlXmX!.S W.0.) S g i e q q q q q q q q q q q q q q q q q q q q q q q q q q 9 9 9 q q r f @ X.LXlXlX",
"lXlXnX3X4 p 6 3 , * & $ $ $ $ $ $ $ $ $ $ $ $ $ $ $ $ $ $ $ $ $ $ $ $ $ $ $ $ $ $ & & * = X %.LXlXlX",
"lXlXlXcX2X^.;X:X,X1X2X3X3X3X3X3X3X3X3X3X3X3X3X3X3X3X3X3X3X3X3X3X3X3X3X3X3X3X3X3X3X2X2X2X<X<X6XxXlXlX",
"lXlX8XzXbXnXnXnXnXnXnXnXnXnXnXnXnXnXnXnXnXnXnXnXnXnXnXnXnXnXnXnXnXnXnXnXnXnXnXnXnXnXnXnXnXmXvX7XlXlX",
"lXlXlXlXlXlXlXlXlXlXlXlXlXlXlXlXlXlXlXlXlXlXlXlXlXlXlXlXlXlXlXlXlXlXlXlXlXlXlXlXlXlXlXlXlXlXlXlXlXlX",
"lXlXlXlXlXlXlXlXlXlXlXlXlXlXlXlXlXlXlXlXlXlXlXlXlXlXlXlXlXlXlXlXlXlXlXlXlXlXlXlXlXlXlXlXlXlXlXlXlXlX"
};
