/* XPM */
static char *addActivityDisabled_xpm[] = {
/* columns rows colors chars-per-pixel */
"50 50 256 2 ",
"   c #3F3B3B",
".  c gray31",
"X  c #524E4E",
"o  c #585959",
"O  c #585A5A",
"+  c #5B5E5E",
"@  c #645D5D",
"#  c #6A6565",
"$  c #696B6B",
"%  c #6E6868",
"&  c #6A6C6C",
"*  c #6B6D6D",
"=  c #6D6D6D",
"-  c #6D6F6F",
";  c #706B6B",
":  c #726D6D",
">  c #736E6E",
",  c #746F6F",
"<  c #6F7070",
"1  c #767171",
"2  c #737474",
"3  c #737676",
"4  c #767676",
"5  c #777777",
"6  c #7B7676",
"7  c gray47",
"8  c #797979",
"9  c #797B7B",
"0  c gray48",
"q  c #7B7B7B",
"w  c #7C7C7C",
"e  c gray49",
"r  c #7F7D7D",
"t  c #7F7E7E",
"y  c gray50",
"u  c #807E7E",
"i  c #817F7F",
"p  c #837E7E",
"a  c #808080",
"s  c #818181",
"d  c #828181",
"f  c gray51",
"g  c #838383",
"h  c #848484",
"j  c gray52",
"k  c #868585",
"l  c #878585",
"z  c #858686",
"x  c #868686",
"c  c #878686",
"v  c gray53",
"b  c #888787",
"n  c #888888",
"m  c #888989",
"M  c #898989",
"N  c gray54",
"B  c #8A8B8B",
"V  c #8B8B8B",
"C  c #8F8A8A",
"Z  c #8B8C8C",
"A  c gray55",
"S  c #8D8D8D",
"D  c #8D8E8E",
"F  c #8E8E8E",
"G  c gray56",
"H  c #908F8F",
"J  c #909090",
"K  c gray57",
"L  c #929292",
"P  c #939292",
"I  c #939393",
"U  c #939494",
"Y  c gray58",
"T  c #949595",
"R  c #959595",
"E  c #959696",
"W  c gray59",
"Q  c #969797",
"!  c #979797",
"~  c #9D9595",
"^  c #989898",
"/  c #989999",
"(  c gray60",
")  c #999A9A",
"_  c #9A9A9A",
"`  c #9A9B9B",
"'  c #9B9B9B",
"]  c #9D9B9B",
"[  c #9B9C9C",
"{  c #9B9D9D",
"}  c #9C9D9D",
"|  c #9D9D9D",
" . c #9D9E9E",
".. c #9D9F9F",
"X. c gray62",
"o. c #9E9F9F",
"O. c #9F9F9F",
"+. c #93A2A2",
"@. c #94A2A2",
"#. c #97A7A7",
"$. c #9EA0A0",
"%. c #9FA0A0",
"&. c #99A8A8",
"*. c #98A9A9",
"=. c #99AAAA",
"-. c #A0A0A0",
";. c #A1A2A2",
":. c #A2A2A2",
">. c gray64",
",. c #A7A1A1",
"<. c #A3A4A4",
"1. c #A4A4A4",
"2. c #A4A5A5",
"3. c #A5A5A5",
"4. c #A5A6A6",
"5. c gray65",
"6. c #A7A6A6",
"7. c #A7A7A7",
"8. c gray66",
"9. c #A8A9A9",
"0. c #A9A9A9",
"q. c #AAAAAA",
"w. c gray67",
"e. c #ACABAB",
"r. c #ADABAB",
"t. c #ACACAC",
"y. c gray68",
"u. c #AEADAD",
"i. c #AEAEAE",
"p. c #AFAFAF",
"a. c gray69",
"s. c #B1B1B1",
"d. c #B2B1B1",
"f. c #B2B2B2",
"g. c gray70",
"h. c #B4B4B4",
"j. c gray71",
"k. c #B6B6B6",
"l. c #B6B7B7",
"z. c #B7B7B7",
"x. c gray72",
"c. c #B9B9B9",
"v. c gray73",
"b. c #BBBBBB",
"n. c #BCBCBC",
"m. c gray",
"M. c gray75",
"N. c #BFC0C0",
"B. c #BBD8D8",
"V. c #BDDBDB",
"C. c #BEDBDB",
"Z. c #BEDCDC",
"A. c #BFDCDC",
"S. c #C0C0C0",
"D. c #C1C1C1",
"F. c gray76",
"G. c #C3C3C3",
"H. c gray77",
"J. c #C5C5C5",
"K. c #C6C6C6",
"L. c gray78",
"P. c #C8C8C8",
"I. c gray79",
"U. c #CACACA",
"Y. c #CACBCB",
"T. c #CBCBCB",
"R. c gray80",
"E. c #CDCDCD",
"W. c #CECECE",
"Q. c gray81",
"!. c #D0CCCC",
"~. c #D0CECE",
"^. c #C0DDDD",
"/. c #C0DEDE",
"(. c #C2DFDF",
"). c #D0D0D0",
"_. c #D0D1D1",
"`. c gray82",
"'. c #D3D1D1",
"]. c #D1D2D2",
"[. c #D2D2D2",
"{. c LightGray",
"}. c gray83",
"|. c #D5D5D5",
" X c #D6D4D4",
".X c gray84",
"XX c #D7D7D7",
"oX c #D8D6D6",
"OX c #D9D7D7",
"+X c #D8D8D8",
"@X c gray85",
"#X c #DBD9D9",
"$X c #DADADA",
"%X c gray86",
"&X c gainsboro",
"*X c #DDDDDD",
"=X c gray87",
"-X c #DFDFDF",
";X c #C9E6E6",
":X c #CBE9E9",
">X c #CCE9E9",
",X c #CDEAEA",
"<X c #CEEBEB",
"1X c #CEECEC",
"2X c #CFECEC",
"3X c #CFEDED",
"4X c #D4F1F1",
"5X c #D7F5F5",
"6X c #DCFAFA",
"7X c #DEFFFF",
"8X c #DFFFFF",
"9X c gray88",
"0X c #E1E1E1",
"qX c #E2E2E2",
"wX c gray89",
"eX c #E4E4E4",
"rX c gray90",
"tX c #E6E6E6",
"yX c #E7E7E7",
"uX c #E8E4E4",
"iX c gray91",
"pX c #E9E9E9",
"aX c #EAE8E8",
"sX c #EAEAEA",
"dX c gray92",
"fX c gray93",
"gX c #EFEDED",
"hX c #EFEFEF",
"jX c #F1EFEF",
"kX c LightCyan",
"lX c #E1FFFF",
"zX c #E2FFFF",
"xX c #E3FFFF",
"cX c #E5FFFF",
"vX c #E9FFFF",
"bX c #EAFFFF",
"nX c #EBFFFF",
"mX c gray94",
"MX c #F1F1F1",
"NX c gray95",
"BX c #F3F3F3",
"VX c #F4F2F2",
"CX c #F5F3F3",
"ZX c #F4F4F4",
"AX c gray96",
"SX c #F6F4F4",
"DX c #F7F5F5",
"FX c #F9F7F7",
"GX c #F2FFFF",
"HX c #F3FFFF",
"JX c #F4FFFF",
"KX c #F5FFFF",
"LX c #F6FFFF",
"PX c #F7FFFF",
"IX c #F8FFFF",
"UX c white",
/* pixels */
"kXkXkXkXkXkXkXkXkXkXkXkXkXkXkXkXkXkXkXkXkXkXkXkXkXkXkXkXkXkXkXkXkXkXkXkXkXkXkXkXkXkXkXkXkXkXkXkXkXkX",
"kXkXkXkXkXkXkXkXkXkXkXkXkXkXkXkXkXkXkXkXkXkXkXkXkXkXkXkXkXkXkXkXkXkXkXkXkXkXkXkXkXkXkXkXkXkXkXkXkXkX",
"kXkX8XlXvXbXbXbXbXbXbXbXbXbXbXbXbXbXbXbXbXbXbXbXbXbXbXbXbXbXbXbXbXbXbXbXbXbXbXbXbXbXbXbXbXnXcX7XkXkX",
"kXkXkXlX4X>X<X<X<X<X<X<X<X<X<X<X<X<X<X<X<X<X<X<X<X<X<X<X<X<X<X<X<X<X<X<X<X<X<X<X1X1X1X2X1X2X6XzXkXkX",
"kXkXbX5X+ . o o o o o o o o o o o o o o o o o o o o o o o o o o o o o o o o o o o o o o O   *.IXkXkX",
"kXkXnXC.P uXOXOXOXOXOXOXOXOXOXOXOXOXOXOXOXOXOXOXOXOXOXOXOXOXOXOXOXOXOXOXOXOXOXOXoX X'.~.'.~ @.JXkXkX",
"kXkXbXB.4.UXBXZXZXAXAXZXZXZXZXZXZXZXZXZXZXZXZXZXZXZXZXZXZXZXZXZXZXZXZXZXZXZXZXBXNXhXdXyX0X,.&.GXkXkX",
"kXkXbXV.%.FXiXiXiXpXpXiXiXiXiXiXiXiXiXiXiXiXiXiXiXiXiXiXiXiXiXiXiXiXiXiXiXiXiXyXeX0X*X_.J.C #.HXkXkX",
"kXkXbXV.$.DXtXyXyXtXtXtXrXrXrXrXrXtXhXZXBXBXBXBXBXBXBXBXBXBXZXfXrXrXrXrXrXrXrXwX9X*X`.N.j.p #.KXkXkX",
"kXkXbXV.$.SXrXeXrXeXqXqXqXqXqXqXwXpXR.k.c.v.v.v.v.v.v.v.v.x.z.}.sX0XqXqXqXqX0X-X&X{.F.f.0.6 #.KXkXkX",
"kXkXbXC.o.CXeXwXqX0X-X-X=X-XeXiXMXH.h 0 5 8 8 8 8 8 8 8 7 5 w S {.mXyXeX-X=X*X&X|.K.k.8.;.1 #.KXkXkX",
"kXkXbXC.o.CXwXqX0X-X=X&X*XeX{.L.T.( g -.a.t.t.t.t.t.t.t.t.p.' y 3.).J.{.wX&X%XXXE.M.a.:.} , #.LXkXkX",
"kXkXbXC.o.CXwXqX9X=X*X%XqXD.A j h A v F.ZXyXyXyXyXyXyXyXiXMXf.x V h x A S.qX@X].L.v.w.O.' > #.LXkXkX",
"kXkXbXC.o.CXwXqX9X*X%X-X@XI h W W F v x.-X|.|.|.|.|.|.|..X&Xw.x J ^ R h Y @X$XQ.J.x.q.X._ > #.LXkXkX",
"kXkXbXC.o.CXwXqX9X=X%X-X|.J N P.yX>.a G K J J J J J J J J K F y h.dXK.N J }.$XQ.J.x.q.X._ > #.LXkXkX",
"kXkXbXC.o.CXwXqX9X=X%X-X.XL M U.fX).( M N V V V V V V V V N N >.@XsXU.M L |.$XQ.J.x.q.X._ > #.LXkXkX",
"kXkXbXC.o.CXwXqX9X=X%X-X.XL M L.9X9X%XT.U.T.T.T.T.T.T.T.T.U.E.=X=X9XL.M L |.$XQ.J.x.q.X._ > #.LXkXkX",
"kXkXbXC.o.CXwXqX9X=X%X-X.XL M L.0X@X&X9X9X9X9X9X9X9X9X9X9X9X9X%X+X0XL.M L |.$XQ.J.x.q.X._ > #.LXkXkX",
"kXkXbXC.o.CXwXqX9X=X%X-X.XL M L.0X@X@X@X@X@X@X+X9XiX=XXX@X@X@X@X@X0XL.M L |.$XQ.J.x.q.X._ > #.LXkXkX",
"kXkXbXC.o.CXwXqX9X=X%X-X.XL M L.0X@X@X@X@X@X$X=XK.y.T.=X@X@X@X@X@X0XL.M L |.$XQ.J.x.q.X._ > #.LXkXkX",
"kXkXbXC.o.CXwXqX9X=X%X-X.XL M L.0X@X@X@X@X@X%X0X>.= p.tX@X@X@X@X@X0XL.M L |.$XQ.J.x.q.X._ > #.LXkXkX",
"kXkXbXC.o.CXwXqX9X=X%X-X.XL M L.0X@X@X@X@X@X%X-X8.w f.eX@X@X@X@X@X0XL.M L |.$XQ.J.x.q.X._ > #.LXkXkX",
"kXkXbXC.o.CXwXqX9X=X%X-X.XL M L.0X@X@X@X@X@X%X-X0.w g.eX@X@X@X@X@X0XL.M L |.$XQ.J.x.q.X._ > #.LXkXkX",
"kXkXbXC.o.CXwXqX9X=X%X-X.XL M L.0X@X@X9X0X0XwXyXt.0 z.fX0X0X0X-X@X0XL.M L |.$XQ.J.x.q.X._ > #.LXkXkX",
"kXkXbXC.o.CXwXqX9X=X%X-X.XL M L.0X$X$XR.P.I.T.W.1.s w.[.I.I.L.W.$XqXL.M L |.$XQ.J.x.q.X._ > #.LXkXkX",
"kXkXbXC.o.CXwXqX9X=X%X-X.XL M L.0X9XW.N j N M M F I S n N N h K XXrXL.M L |.$XQ.J.x.q.X._ > #.LXkXkX",
"kXkXbXC.o.CXwXqX9X=X%X-X.XL M L.0X=X`.W G I Y Y L J L Y I I F | +XrXL.M L |.$XQ.J.x.q.X._ > #.LXkXkX",
"kXkXbXC.o.CXwXqX9X=X%X-X.XL M L.0X@X$X+X.X.X+X&X8.e f.0X.X.X.X@X$X0XL.M L |.$XQ.J.x.q.X._ > #.LXkXkX",
"kXkXbXC.o.CXwXqX9X=X%X-X.XL M L.0X@X@X*X=X*X-XeXq.q j.pX*X*X=X&X@X0XL.M L |.$XQ.J.x.q.X._ > #.LXkXkX",
"kXkXbXC.o.CXwXqX9X=X%X-X.XL M L.0X@X@X@X@X@X%X-X0.w g.eX@X@X@X@X@X0XL.M L |.$XQ.J.x.q.X._ > #.LXkXkX",
"kXkXbXC.o.CXwXqX9X=X%X-X.XL M L.0X@X@X@X@X@X%X-X7.8 s.eX@X@X@X@X@X0XL.M L |.$XQ.J.x.q.X._ > #.LXkXkX",
"kXkXbXC.o.CXwXqX9X=X%X-X.XL M L.0X@X@X@X@X@X$X9X0.4 g.rX@X@X@X@X@X0XL.M L |.$XQ.J.x.q.X._ > #.LXkXkX",
"kXkXbXC.o.CXwXqX9X=X%X-X.XL M L.0X@X@X@X@X@X@X&XQ.S.[.&X@X@X@X@X@X0XL.M L |.$XQ.J.x.q.X._ > #.LXkXkX",
"kXkXbXC.o.CXwXqX9X=X%X-X.XL M L.0X@X@X@X@X@X@X+X=XeX*X+X@X@X@X@X@X0XL.M L |.$XQ.J.x.q.X._ > #.LXkXkX",
"kXkXbXC.o.CXwXqX9X=X%X-X.XL M L.0X@X@X@X@X@X@X@X@X@X@X@X@X@X@X@X@X0XL.M L |.$XQ.J.x.q.X._ > #.LXkXkX",
"kXkXbXC.o.CXwXqX9X=X%X-X.XL M L.0X@X@X@X@X@X@X@X@X@X@X@X@X@X@X@X@X0XL.M L |.$XQ.J.x.q.X._ > #.LXkXkX",
"kXkXbXC.o.CXwX0X9X=X%X-X.XL M P.qX$X$X$X$X$X$X$X$X$X$X$X$X$X$X$X$XqXP.M L .X%XQ.J.x.q.X._ > #.LXkXkX",
"kXkXbXC.o.CXwX9X-X*X%X-X}.K M U.rX*X*X*X*X*X*X*X*X*X*X*X*X*X*X*X*XrXU.M K {.+XE.G.l.9.| ` > #.LXkXkX",
"kXkXbXC...VXqX9X=X&X@X@XQ.K N :.w.8.8.8.8.8.8.8.8.8.8.8.8.8.8.8.8.w.:.N L E.).L.m.g.5.} ) > #.LXkXkX",
"kXkXbXC...VX0X=X&X.XW.Y.T.0.M h s f f f f f f f f f f f f f f f f s h M 0.T.H.m.z.y.:._ ^ : #.LXkXkX",
"kXkXbXZ. .jX=X&X[.L.S.b.v.b.0.:.1.1.1.1.1.1.1.1.1.1.1.1.1.1.1.1.1.1.:.0.b.v.j.d.e.2.} E Q : #.LXkXkX",
"kXkXbXZ.} gX$XQ.D.j.u.9.5.6.t.u.y.y.y.y.y.y.y.y.y.y.y.y.y.y.y.y.y.y.u.t.6.3.<.;. .) T K I ; #.LXkXkX",
"kXkXbXA.{ aXE.n.i.>.[ ! W R R R R R R R R R R R R R R R R R R R R R R R R R Y I K G A Z G % #.LXkXkX",
"kXkXbX/./ #Xb.t.| U D B M M M M M M M M M M M M M M M M M M M M M M M M M M m b c x z x Z # #.LXkXkX",
"kXkXnX^.H !.r.] H l d u t t t t t t t t t t t t t t t t t t t t t t t t t t r r r t t i k @ +.PXkXkX",
"kXkXbX3X3 f 9 2 < * & $ $ $ $ $ $ $ $ $ $ $ $ $ $ $ $ $ $ $ $ $ $ $ $ $ $ $ $ $ $ & & * - X =.PXkXkX",
"kXkXkXxX2X(.;X:X,X1X2X3X3X3X3X3X3X3X3X3X3X3X3X3X3X3X3X3X3X3X3X3X3X3X3X3X3X3X3X3X3X2X2X2X<X<X6XzXkXkX",
"kXkX8XlXvXbXbXbXbXbXbXbXbXbXbXbXbXbXbXbXbXbXbXbXbXbXbXbXbXbXbXbXbXbXbXbXbXbXbXbXbXbXbXbXbXnXcX7XkXkX",
"kXkXkXkXkXkXkXkXkXkXkXkXkXkXkXkXkXkXkXkXkXkXkXkXkXkXkXkXkXkXkXkXkXkXkXkXkXkXkXkXkXkXkXkXkXkXkXkXkXkX",
"kXkXkXkXkXkXkXkXkXkXkXkXkXkXkXkXkXkXkXkXkXkXkXkXkXkXkXkXkXkXkXkXkXkXkXkXkXkXkXkXkXkXkXkXkXkXkXkXkXkX"
};
