/* XPM */
static char *addActivityNormal_xpm[] = {
/* columns rows colors chars-per-pixel */
"50 50 166 2 ",
"   c #000002",
".  c #020408",
"X  c #0B0C0D",
"o  c #0E1010",
"O  c #161615",
"+  c #181816",
"@  c #1D1B1A",
"#  c #211F1D",
"$  c #24211E",
"%  c #272522",
"&  c #2F2A26",
"*  c #302B26",
"=  c #342F2A",
"-  c #39332D",
";  c #403A38",
":  c #453E36",
">  c #4E453B",
",  c #55483E",
"<  c #664F3B",
"1  c #664A33",
"2  c #69513D",
"3  c #554A40",
"4  c #594E42",
"5  c #504F4D",
"6  c #5F5346",
"7  c #595957",
"8  c #585958",
"9  c #605447",
"0  c #6E5640",
"q  c #675B4D",
"w  c #695C4D",
"e  c #755B45",
"r  c #7D634B",
"t  c #6F6050",
"y  c #6D655B",
"u  c #736555",
"i  c #7F6750",
"p  c #7D6B57",
"a  c #72695E",
"s  c #7D6C59",
"d  c #746B60",
"f  c #786E62",
"g  c #7E7264",
"h  c #78736B",
"j  c #81654D",
"k  c #846B53",
"l  c #896E55",
"z  c #816F5B",
"x  c #887056",
"c  c #85725D",
"v  c #8B735A",
"b  c #907359",
"n  c #93795E",
"m  c #857463",
"M  c #897560",
"N  c #8E7963",
"B  c #867768",
"V  c #877969",
"C  c #8D7C6A",
"Z  c #927D66",
"A  c #9A7D62",
"S  c #917E69",
"D  c #968067",
"F  c #968068",
"G  c #9C856D",
"H  c #968471",
"J  c #9A8B7A",
"K  c #9F907E",
"L  c #A68567",
"P  c #A4876A",
"I  c #AD8768",
"U  c #A0886E",
"Y  c #A58C72",
"T  c #A88F74",
"R  c #AB9176",
"E  c #AC9378",
"W  c #BD9776",
"Q  c #B1977B",
"!  c #B49A7E",
"~  c #B19273",
"^  c #C09F7D",
"/  c #9C9084",
"(  c #A89580",
")  c #AA9986",
"_  c #A99C8C",
"`  c #A69582",
"'  c #B59D82",
"]  c #B99E81",
"[  c #AA9E90",
"{  c #94A19F",
"}  c #BCA183",
"|  c #BAA389",
" . c #B0A496",
".. c #BBA690",
"X. c #BDAB90",
"o. c #97A6A5",
"O. c #98A6A5",
"+. c #9AA8A7",
"@. c #99AAA9",
"#. c #C0A587",
"$. c #C1A588",
"%. c #C6AA8B",
"&. c #CBAD8E",
"*. c #CCAF90",
"=. c #CEB091",
"-. c #C2BA9B",
";. c #D4B594",
":. c #D5B897",
">. c #D8B895",
",. c #DBBB99",
"<. c #E2B68C",
"1. c #E2BF9C",
"2. c #E1BB94",
"3. c #D5BDA1",
"4. c #D4C39F",
"5. c #E4C29E",
"6. c #E5C3A0",
"7. c #EAC7A3",
"8. c #EDCBA6",
"9. c #EFCCA8",
"0. c #F1CCA5",
"q. c #F2CEA8",
"w. c #F5D2AB",
"e. c #FAD5AE",
"r. c #E9CEB3",
"t. c #E9D1BB",
"y. c #F6D6B1",
"u. c #FDD7B0",
"i. c #F7DEB6",
"p. c #FCDAB4",
"a. c #FBDCBC",
"s. c #FFE1B6",
"d. c #F7E4BB",
"f. c #FFE4BB",
"g. c #F7ECBF",
"h. c #FFEABE",
"j. c #B7D9DE",
"k. c #BADCE2",
"l. c #BEE1E7",
"z. c #BFE2E8",
"x. c #EBDEC2",
"c. c #FBDFC1",
"v. c #FCE1C4",
"b. c #FFEBC5",
"n. c #FCE3C8",
"m. c #FFEDCA",
"M. c #FFF4C6",
"N. c #FEF4CC",
"B. c #FFF9CD",
"V. c #FFEED4",
"C. c #FFF2D2",
"Z. c #FEFDD3",
"A. c #FFFFDE",
"S. c #C0E3E8",
"D. c #C6E8ED",
"F. c #CDECED",
"G. c #CEEFF2",
"H. c #CFF0F3",
"J. c #D5F3F4",
"K. c #DEFDFD",
"L. c #FFFFE1",
"P. c #FFFFEB",
"I. c #E0FFFF",
"U. c #EAFFFF",
"Y. c #F5FFFF",
"T. c #F8FFFF",
/* pixels */
"I.I.I.I.I.I.I.I.I.I.I.I.I.I.I.I.I.I.I.I.I.I.I.I.I.I.I.I.I.I.I.I.I.I.I.I.I.I.I.I.I.I.I.I.I.I.I.I.I.I.",
"I.I.I.I.I.I.I.I.I.K.I.I.I.I.I.I.I.I.I.I.K.I.I.I.I.I.I.I.I.I.I.I.I.I.I.I.I.I.I.I.I.I.I.I.I.I.I.I.I.I.",
"I.I.K.I.U.U.U.U.U.U.U.U.U.U.U.U.U.U.U.U.U.U.U.U.U.U.U.U.U.U.U.U.U.U.U.I.U.U.U.U.U.U.U.U.U.U.I.K.I.I.",
"I.I.I.I.J.F.F.F.F.F.D.G.F.F.F.F.F.F.F.F.F.F.F.F.F.F.F.F.F.F.F.F.F.F.F.F.F.F.F.F.F.F.G.F.F.F.K.I.I.I.",
"I.I.U.J.8 5 7 7 8 8 8 8 8 8 8 8 7 8 8 8 8 8 8 8 8 8 8 8 7 7 8 8 8 8 8 8 8 8 8 8 7 7 7 7 7 ; o.Y.I.I.",
"I.I.U.k./ x.t.t.t.x.t.t.t.t.t.t.t.t.t.t.t.t.t.t.t.t.t.t.t.t.t.t.t.t.t.t.t.t.t.r.r.9.7.5.1.I { Y.I.I.",
"I.I.U.j. .L.C.V.V.V.V.V.V.V.V.V.V.V.V.V.V.V.V.V.V.V.V.V.V.V.V.V.V.V.V.V.V.V.V.m.n.f.p.e.q.^ o.Y.I.I.",
"I.I.U.k.[ V.n.n.n.n.n.n.n.n.n.n.n.v.n.n.n.n.n.n.n.c.n.n.n.v.n.n.v.n.n.n.v.v.v.a.a.u.q.,.,.L O.T.I.I.",
"I.I.U.k.[ C.v.n.n.v.v.v.v.v.c.v.c.v.Z.A.L.A.L.A.L.L.A.A.L.A.L.C.c.c.v.v.v.c.a.a.e.q.5.;.&.n o.Y.I.I.",
"I.I.U.k.[ m.v.v.c.c.c.c.a.a.a.a.c.m...g B V V V V V V V V B m 3.C.a.a.a.a.a.p.u.w.7.:.%.#.v o.Y.I.I.",
"I.I.U.k._ m.v.c.c.a.a.a.a.a.m.N.L.(                           X 3.L.N.b.a.p.u.e.0.,.=.^ ! l o.T.I.I.",
"I.I.U.j._ m.c.a.a.a.a.p.p.m.6.| X.*   : u q q q q q q q w t =   3 -.' 6.b.u.e.9.5.>.&.! ~ k o.T.I.I.",
"I.I.U.k._ m.a.a.a.p.p.p.m.R X     .   ' P.B.B.B.B.Z.B.N.Z.L.s   .     X R h.w.7.1.;.#.Q R j o.T.I.I.",
"I.I.U.k._ b.a.a.p.p.p.f.y.@   # % X   S v.8.8.8.8.8.8.8.q.d.q   o % #   @ e.u.7.,.;.} E Y j o.T.I.I.",
"I.I.U.k._ b.a.a.a.p.y.f.8.o . $.B.>   o O O o O O o O o O O X   c Z.|   O 5.p.5.,.=.} E Y j o.Y.I.I.",
"I.I.U.k._ b.c.a.p.p.y.v.9.O   *.A.,.*     . .   . . . . .     > y.Z.&.  O 7.u.5.,.&.} E Y j o.Y.I.I.",
"I.K.U.k._ b.a.a.p.p.p.f.q.O   $.h.h.u.=.&.=.=.&.=.=.=.=.=.&.;.s.f.h.#.  O 8.u.6.,.*.} E T r o.Y.I.I.",
"I.K.U.k._ b.a.a.a.y.u.f.9.O   $.h.w.p.h.h.h.h.h.f.h.f.h.h.h.h.p.e.h.#.  O 7.u.6.>.&.} E Y r o.Y.I.I.",
"I.I.U.k._ b.a.a.p.p.y.f.9.O . $.h.e.e.e.e.e.e.w.h.B.s.w.e.e.e.e.e.h.$.  O 7.u.6.,.&.} R T r o.Y.I.I.",
"I.I.U.k._ b.a.a.a.y.p.f.9.@   $.h.e.e.e.e.e.e.s.} p =.f.e.e.e.e.e.b.$.  + 7.u.6.,.&.} E T r o.Y.I.I.",
"I.I.U.k._ b.a.a.a.p.y.c.9.O . $.h.e.e.e.e.e.p.h.>   u B.e.e.e.e.e.h.#.  + 7.u.6.,.&.} R T j o.Y.K.I.",
"I.I.U.k._ b.a.a.p.y.p.f.q.O   $.h.e.e.e.e.e.p.h.6   s M.e.e.e.e.e.h.#.  + 7.u.6.,.&.} E T r o.Y.I.I.",
"I.I.U.k._ n.a.a.a.p.p.a.9.O   $.h.e.e.e.e.e.p.h.6   c M.e.e.e.e.e.b.$.  + 7.u.6.,.&.} E Y r o.Y.I.I.",
"I.I.U.k._ m.a.a.p.p.u.f.q.O   $.h.e.e.h.b.h.h.B.q   N Z.h.h.b.f.e.h.$.  + 7.u.6.,.&.} R T r o.Y.I.I.",
"I.I.U.k._ b.a.a.a.y.p.f.9.O   $.h.u.u.;.| &.&.:.>   q 4.%.%.$.,.p.h.#.  O 8.u.6.,.&.} E T r o.Y.I.I.",
"I.I.U.k._ b.a.a.a.y.p.a.q.O   $.h.f.:.          X O X         O w.M.$.  O 7.u.6.,.&.} E T r o.Y.I.I.",
"I.I.U.k._ m.a.a.p.p.p.f.9.+   $.b.f.5.$ O + @ @ + O O @ @ @ X - e.M.$.  O 7.u.6.,.&.} R Y r o.Y.I.I.",
"I.I.U.k._ b.a.a.p.p.u.f.9.O . $.h.e.e.w.q.q.w.s.6   p g.q.q.q.w.e.b.$.  + 7.u.6.,.&.} R T r o.Y.I.I.",
"I.I.U.k._ b.a.a.p.y.p.f.9.+   $.h.e.e.s.s.s.h.M.q   M Z.f.s.f.p.e.b.#.  + 7.p.5.,.&.} E T r o.Y.I.I.",
"I.K.U.k._ b.a.a.a.p.y.c.9.+   $.h.e.e.e.e.e.p.f.6   s M.e.e.e.e.e.h.#.  + 7.e.7.>.&.} E T r o.Y.I.I.",
"I.I.U.k._ b.a.a.p.p.p.f.9.+   $.h.e.e.e.e.e.p.f.6   p M.u.e.e.e.e.h.%.  + 7.e.5.,.&.} R T r o.Y.I.I.",
"I.I.U.k._ b.a.a.p.i.u.f.9.+   $.h.e.e.e.e.e.u.h.6   c M.e.e.e.e.e.h.#.  + 7.p.5.,.&.} E Y r o.Y.I.I.",
"I.I.U.k._ b.a.a.a.y.p.f.9.O   $.h.e.e.e.e.e.e.p.,.E 5.p.e.e.e.e.e.h.#.  + 7.u.6.,.&.] Q T r o.Y.I.I.",
"I.I.U.k._ b.a.a.a.p.u.f.9.O   $.h.e.e.e.e.e.e.w.s.M.s.e.e.e.e.e.e.h.$.  + 7.u.6.,.&.} E T r o.Y.I.I.",
"I.I.U.k._ b.a.a.p.y.p.f.9.+   $.h.e.e.e.e.e.e.e.e.e.e.e.e.e.e.e.e.h.$.  + 7.u.6.,.&.} E T r o.Y.I.I.",
"I.I.U.k._ b.a.a.p.p.p.a.q.O   $.h.e.e.e.e.e.e.e.e.e.e.e.e.e.e.e.e.h.$.  + 7.e.5.>.&.} E Y r o.Y.I.I.",
"I.I.U.k._ b.a.p.p.u.p.s.9.O   $.h.e.e.e.e.e.e.e.e.e.e.e.e.e.e.e.e.h.$.  @ 6.e.5.:.&.] R Y r O.Y.I.I.",
"I.I.U.k._ b.a.a.u.e.e.p.6.O   %.M.p.p.s.p.s.p.p.p.p.s.p.s.p.s.p.p.M.%.  O ,.q.,.;.%.] T U j O.Y.I.I.",
"I.I.U.k._ f.p.u.e.w.9.e.,.O . > q 9 9 9 9 9 9 9 9 9 9 6 9 9 6 6 9 w >   O >.7.:.%.#.Q Y U e O.Y.I.I.",
"I.I.U.k.) f.u.w.9.6.5.6.0.w                                             w 7.;.%.#.! T U U e O.Y.I.I.",
"I.I.U.k.) s.q.7.4.,.;.=.>.>.c w w u w t t t t t u w t t t w u w u w q c :.;.} } ! T Y F D e o.Y.I.I.",
"I.I.U.k.E e.6.>.=.&.$.#.! #.;.>.>.:.>.>.>.>.>.,.>.>.>.>.,.>.>.>.>.:.>.;.] Q Q E T U Z N N 0 o.Y.I.I.",
"I.I.U.l./ 0.;.%.#.! Q T Y Y Y Y Y Y Y Y U Y Y U U Y Y Y U P Y Y U Y Y Y Y Y G G Z Z M c v 2 o.T.I.I.",
"I.I.U.S.J 2.%.' R U G F Z Z Z Z Z Z N Z Z Z Z Z Z Z Z Z Z F Z Z Z Z Z Z Z N N N v M s p c < o.T.I.I.",
"I.I.U.l.H <.^ ~ P A n v v v l l x x x x x x x x x x x x x x x x l x x x x x l k i r r r k 1 { Y.I.I.",
"I.I.U.G.h C B g f d a y y y y y y y y y y y y y y y y y y y y y y y y y y y y y y y y y y , +.Y.I.I.",
"I.I.I.I.G.l.D.D.G.G.F.G.G.H.H.H.G.G.G.G.J.G.G.G.H.G.G.G.G.G.G.G.G.G.H.G.G.G.G.G.G.G.H.H.H.H.K.I.I.I.",
"I.I.I.I.U.U.U.U.U.U.U.U.U.U.U.U.U.U.U.U.U.U.U.U.U.U.U.U.U.U.U.U.U.U.U.U.U.U.U.U.U.U.U.U.U.U.I.I.I.I.",
"I.I.I.I.I.I.I.I.I.I.I.I.I.I.I.I.I.I.I.I.I.I.I.I.I.I.I.I.I.I.I.I.I.I.I.I.I.I.I.I.I.I.I.I.I.I.I.I.I.I.",
"I.I.I.I.I.I.I.I.I.I.I.I.I.I.I.I.I.I.I.I.I.I.I.I.I.I.I.I.I.I.I.I.I.I.I.I.I.I.I.I.I.I.I.I.I.I.I.I.I.I."
};
