/* XPM */
static char *addActivityMouseOver_xpm[] = {
/* columns rows colors chars-per-pixel */
"50 50 174 2 ",
"   c #000002",
".  c #020408",
"X  c #0B0C0D",
"o  c #0E1010",
"O  c #161615",
"+  c #181816",
"@  c #1D1B1A",
"#  c #211F1D",
"$  c #24211E",
"%  c #272522",
"&  c #2F2A26",
"*  c #302B26",
"=  c #342F2A",
"-  c #39332D",
";  c #453E36",
":  c #4E453B",
">  c #4F3D46",
",  c #554A40",
"<  c #594E42",
"1  c #514F4F",
"2  c #5F5346",
"3  c #4E5B51",
"4  c #525752",
"5  c #525852",
"6  c #644B4C",
"7  c #605447",
"8  c #675B4D",
"9  c #695C4D",
"0  c #7E5450",
"q  c #666455",
"w  c #6F6051",
"e  c #6C6959",
"r  c #736555",
"t  c #7D6B57",
"y  c #7D6C59",
"u  c #716D5C",
"i  c #6A715F",
"p  c #777260",
"a  c #7E7463",
"s  c #815652",
"d  c #885151",
"f  c #8A5E59",
"g  c #855A55",
"h  c #856756",
"j  c #8E615B",
"k  c #816F5B",
"l  c #8C6C5A",
"z  c #92655E",
"x  c #85725D",
"c  c #88755F",
"v  c #91715E",
"b  c #956760",
"n  c #966861",
"m  c #9A6B64",
"M  c #857463",
"N  c #897560",
"B  c #8E7963",
"V  c #867768",
"C  c #877969",
"Z  c #8F7C6B",
"A  c #957561",
"S  c #927D66",
"D  c #917E69",
"F  c #9C7A66",
"G  c #A07169",
"H  c #A8776E",
"J  c #559668",
"K  c #539968",
"L  c #539466",
"P  c #37C46E",
"I  c #38C36C",
"U  c #39C671",
"Y  c #3DC974",
"T  c #44CF79",
"R  c #4BD47C",
"E  c #46D17A",
"W  c #51D97E",
"Q  c #968067",
"!  c #968068",
"~  c #9C856D",
"^  c #988472",
"/  c #998F78",
"(  c #938A74",
")  c #A0886E",
"_  c #A3816B",
"`  c #A58C72",
"'  c #AB8C73",
"]  c #B38075",
"[  c #BE8A7C",
"{  c #AB9176",
"}  c #AC9378",
"|  c #A0947C",
" . c #B1977B",
".. c #B49A7E",
"X. c #BA937B",
"o. c #55DC81",
"O. c #57E585",
"+. c #58E786",
"@. c #57EA87",
"#. c #5BE887",
"$. c #58EF89",
"%. c #58F089",
"&. c #54FC8D",
"*. c #59FD8F",
"=. c #9E9085",
"-. c #A89580",
";. c #A29A86",
":. c #A29C89",
">. c #B59D82",
",. c #B99E81",
"<. c #BCA183",
"1. c #BAA389",
"2. c #A9A290",
"3. c #BBA690",
"4. c #BDAB90",
"5. c #CF8E86",
"6. c #D49C8B",
"7. c #C0A587",
"8. c #C1A588",
"9. c #C6AA8B",
"0. c #CBAD8E",
"q. c #C9A185",
"w. c #CCAF90",
"e. c #CEB091",
"r. c #C2BA9B",
"t. c #D4B594",
"y. c #D5B897",
"u. c #D8B895",
"i. c #DBBB99",
"p. c #E1BF9C",
"a. c #EBBD9D",
"s. c #F4BA9C",
"d. c #D5BDA1",
"f. c #D4C39F",
"g. c #E3C29E",
"h. c #E5C3A0",
"j. c #EAC6A3",
"k. c #EDCBA6",
"l. c #EFCCA8",
"z. c #F1CDA7",
"x. c #FBCAA7",
"c. c #F2CEA9",
"v. c #F5D2AB",
"b. c #FAD5AE",
"n. c #F1CEB9",
"m. c #F1CBB4",
"M. c #F6D6B1",
"N. c #FDD7B0",
"B. c #F7DEB6",
"V. c #FCDAB4",
"C. c #FBDCBC",
"Z. c #F2D1BD",
"A. c #FFE1B7",
"S. c #F7E4BB",
"D. c #FFE4BB",
"F. c #F7ECBF",
"G. c #FFEABE",
"H. c #F2D3C2",
"J. c #FBDFC1",
"K. c #FCE1C4",
"L. c #FFECC3",
"P. c #FCE3C8",
"I. c #FFEDCE",
"U. c #FFF4C6",
"Y. c #FEF4CC",
"T. c #FFF9CD",
"R. c #FFEED4",
"E. c #F5E1D2",
"W. c #FFF2D4",
"Q. c #FEFDD3",
"!. c #FFF3DA",
"~. c #FFFFDE",
"^. c #FFFFE2",
"/. c #FFFFEB",
/* pixels */
"O.O.O.O.O.O.O.O.O.O.O.O.O.O.O.O.O.O.O.O.O.O.O.O.O.O.W %.#.#.#.@.O.O.O.O.O.O.@.+.W +.+.+.O.O.O.O.O.O.",
"O.O.O.O.O.O.O.O.O.O.O.O.O.O.O.O.O.O.O.O.O.O.O.O.O.O.#.W @.W %.W O.O.O.O.O.O.#.W #.@.#.W O.O.O.O.O.O.",
"O.O.O.O.$.$.$.$.$.$.$.@.$.$.$.$.$.@.$.$.@.$.$.$.$.@.%.@.#.%.%.%.@.$.$.$.$.@.%.@.%.%.%.%.@.%.@.O.O.O.",
"O.O.O.+.W E R R R E E o.R R R E R R R E R R E R R R R R R R R R R R E R R R R R R R R W R R O.O.O.O.",
"O.O.$.o.3 1 4 4 5 5 5 5 5 5 5 5 4 4 5 5 5 5 4 5 5 5 5 5 5 5 5 5 4 5 5 5 5 5 4 4 3 4 4 4 4 > K &.O.O.",
"O.O.$.I =.E.H.H.H.H.H.H.H.H.H.H.Z.Z.H.H.H.H.H.H.H.H.H.H.V.H.H.H.H.H.H.H.H.H.Z.Z.n.c.c.j.a.5.L &.O.O.",
"O.O.$.I 2./.R.W.!.R.R.R.R.R.R.R.W.R.R.R.R.R.R.R.R.R.R.R.R.R.R.R.R.R.R.R.R.R.R.I.P.D.A.b.x.6.K &.O.O.",
"O.O.$.P :.!.P.P.P.P.P.P.P.P.P.P.P.P.P.P.P.P.P.P.P.P.P.P.K.P.P.K.P.P.P.P.P.K.K.C.V.N.z.p.i.[ K &.O.O.",
"O.O.$.I :.!.K.K.P.K.K.K.K.K.J.K.C.K.!.~.^.~.~.~.~.^.~.~.~.^.^.W.J.J.K.K.K.J.C.C.N.v.g.t.0.] K &.O.O.",
"O.O.$.P :.W.K.K.J.J.J.J.C.C.C.C.K.Y.3.a V C C C C C C C C V V y.W.C.C.C.C.C.V.N.v.g.u.0.7.H K &.O.O.",
"O.O.$.P :.R.J.J.J.C.C.C.C.C.L.Y.^.}                           X d.^.Y.L.C.V.N.v.z.p.e.....G K &.O.O.",
"O.O.$.P ;.R.J.C.C.C.C.V.V.I.h.1.4.&   ; r 8 8 8 8 8 8 8 9 w =   , r.>.h.L.M.b.c.g.u.9... .m K &.O.O.",
"O.O.$.P ;.I.C.J.C.V.C.V.L.| X     .   >./.Y.T.Q.T.T.T.Y.Q.^.y   .     X } G.v.z.p.t.7. .{ z K &.O.O.",
"O.O.$.P :.I.C.C.C.V.V.D.M.@   # % X   D S.z.k.k.k.k.k.j.c.S.8   o % $   @ v.N.j.i.e... .{ z K *.O.O.",
"O.O.$.P ;.I.C.C.V.Z.V.D.k.o . 8.T.:   o O o o o O O o O O O X   x Q.1.  o j.N.g.i.e.7. .{ z K &.O.O.",
"O.O.$.P ;.I.C.C.V.V.M.D.z.O   0.~.i.*   . . . . . . . . .   . : M.Q.0.  + j.N.g.u.e...{ { z K &.O.O.",
"O.O.$.P ;.I.C.C.C.V.V.D.c.O . 8.G.G.N.e.0.e.e.e.e.e.e.e.e.0.t.A.D.G.8.  O j.N.g.i.0.<.} ' z K &.O.O.",
"O.O.$.P ;.I.C.C.V.V.M.D.k.O   8.G.v.V.G.G.G.G.G.D.G.D.G.G.G.G.N.b.G.8.  @ j.N.h.i.e.<.} { z K &.O.O.",
"O.O.$.P ;.I.C.C.V.V.V.A.l.O   8.G.b.b.b.b.b.b.v.G.T.D.v.b.b.b.b.b.G.8.  O j.N.h.u.0.<.{ { z K &.O.O.",
"O.O.$.U ;.I.C.C.V.V.V.A.k.@   8.G.b.b.b.b.b.b.D.<.t 0.D.b.b.b.b.b.L.8.  O j.N.g.i.0.<.} { z K &.O.O.",
"O.O.$.P ;.I.C.C.Z.M.V.D.l.O . 8.G.b.b.b.b.b.N.G.:   r U.b.b.b.b.b.L.8.  @ j.N.g.i.e.<.{ ' z K &.O.O.",
"O.O.$.P ;.I.C.C.C.V.M.D.c.O   8.G.b.b.b.b.b.N.D.2   y U.N.b.b.b.b.G.8.  O j.N.j.u.0.<.} { z K &.O.O.",
"O.O.$.P ;.I.J.Z.V.V.V.A.c.O . 8.G.b.b.b.b.b.V.G.2   x U.b.b.b.b.b.G.8.  + j.N.g.i.0.<.} { z K &.O.O.",
"O.O.$.P ;.R.C.C.V.V.V.D.k.O   7.G.b.b.G.L.G.U.T.9   B ~.G.G.G.D.b.G.8.  + j.N.h.u.e.<.} ` z K &.O.O.",
"O.O.$.P :.I.C.C.V.V.M.D.k.O   7.G.N.b.e.1.0.0.y.:   8 f.9.9.8.y.b.L.8.  O j.N.h.i.0.<.} ' b K &.O.O.",
"O.O.$.P ;.I.C.C.V.V.V.J.z.+ . 7.G.D.u..         X O X     .   O v.T.8.  @ j.N.h.i.0.<.} ` b K &.O.O.",
"O.O.$.U ;.I.C.C.V.V.V.D.l.O . 7.G.D.g.$ O @ @ @ + O O @ @ @ X - v.U.8.  O j.N.h.i.0.<.} { b K &.O.O.",
"O.O.$.P ;.I.C.C.C.V.M.D.l.O . 7.G.b.N.v.k.z.v.A.2   t F.c.c.z.v.b.G.8.. O j.N.g.i.0.<.} ` b K &.O.O.",
"O.O.$.P ;.I.C.C.C.M.M.D.l.+   8.G.b.b.D.D.A.G.U.8   c Q.A.A.A.A.b.G.8.  @ j.N.h.u.0.<.} ` n K &.O.O.",
"O.O.$.P ;.I.C.C.C.M.N.D.l.+   8.G.b.b.b.N.b.N.D.2   y U.N.b.b.b.b.G.8.  O j.N.h.i.0.<.} ` b K &.O.O.",
"O.O.$.P :.I.C.C.V.V.V.D.l.+   8.G.b.b.b.b.b.N.D.2   t U.b.b.b.b.b.L.8.  O j.N.h.u.0.<.} ` b K &.O.O.",
"O.O.$.P ;.I.C.C.C.V.M.D.l.+   8.G.b.b.b.b.b.N.G.2   x U.N.b.b.b.b.G.8.  + j.N.h.i.0.<.} ` b K &.O.O.",
"O.O.$.P ;.I.C.C.V.V.V.D.k.+ . 7.G.b.b.b.b.b.b.V.i. .g.A.b.b.b.b.b.G.8.  + j.N.h.u.0.,.} ' n K &.O.O.",
"O.O.$.P ;.I.C.C.V.V.V.D.k.O . 7.G.b.b.b.b.b.b.v.D.G.A.v.b.b.b.b.b.G.8.  O j.N.h.i.0.<.} { z K &.O.O.",
"O.O.$.P ;.I.C.V.V.V.V.D.k.O   7.G.b.b.b.b.b.b.b.b.b.b.b.b.b.b.b.b.G.8.  + j.N.g.i.0.<.} ' n K &.O.O.",
"O.O.$.P ;.R.C.C.C.M.M.C.z.O . 7.G.b.b.b.b.b.b.b.b.b.b.b.b.b.b.b.b.G.8.  + k.b.g.i.0.<.} ` z K &.O.O.",
"O.O.$.P =.Y.C.C.V.V.N.A.k.O   8.G.b.b.b.b.b.b.b.b.b.b.b.b.b.N.b.b.G.8.. O g.b.g.u.0...{ ` z K &.O.O.",
"O.O.$.P :.I.C.V.V.b.b.V.h.O . 9.U.V.V.A.A.V.V.V.A.N.A.V.A.V.V.V.A.U.9.  O p.c.i.t.9...{ ` z K &.O.O.",
"O.O.$.P ;.L.V.N.v.v.z.b.i.O   : 8 7 2 7 7 7 7 7 2 2 2 2 7 7 2 2 2 9 :   O u.j.t.0.<. .` ) z K *.O.O.",
"O.O.$.U ;.G.M.v.k.h.g.g.z.9                                             8 j.u.9.8...{ ~ ~ j K &.O.O.",
"O.O.$.U -.D.c.j.g.i.y.e.u.u.N 8 9 w w w w w r w w w w w w w w w r 9 8 x y.0.8.,...} ~ ! ! j K &.O.O.",
"O.O.$.U | N.h.i.t.9.8.<...<.u.u.y.y.u.u.u.t.u.u.t.u.t.u.t.t.y.y.u.u.u.t.,... .} ` ~ Q B S g K &.O.O.",
"O.O.$.Y / x.t.9.<...} { ` ` ` ) ` ` ` ` ' ) ` ) ' ) ` ` ' ) ` ` ) ` ) ` ` ` ^ ~ Q S c c c s K &.O.O.",
"O.O.$.Y ( a.8.>.{ ` ~ ! S S S S S S B Z S S S S S S S S S S S S S S S S S S B B c c t t k 0 K &.O.O.",
"O.O.$.Y ^ s.q.>.' _ F B A A v v v v v v v v v A v v v v N v v v v v v v N A l l l h h h l d L &.O.O.",
"O.O.$.R i Z a p u e q q q q q q q q q q q q q 5 q q q q q q q q q q q q q q q q q q q q q 6 K *.O.O.",
"O.O.O.#.o.U Y T E o.E o.o.R R o.o.E R o.R R R o.o.R W R o.T R o.o.R R W o.T T o.R o.R R R R O.+.O.O.",
"O.O.O.O.%.%.%.$.$.@.$.$.@.$.$.$.$.$.$.$.%.%.$.$.$.$.%.%.$.$.$.$.$.$.$.$.$.$.$.$.$.$.$.%.%.$.@.O.O.O.",
"O.O.O.O.O.O.O.O.O.O.O.O.O.O.O.O.O.O.O.O.O.O.O.O.O.O.O.O.O.O.O.O.O.O.O.O.O.O.O.O.O.O.O.O.O.O.O.O.O.O.",
"O.O.O.O.O.O.O.O.O.O.O.O.O.O.O.O.O.O.O.O.O.O.O.O.O.O.O.O.O.O.O.O.O.O.O.O.O.O.O.O.O.O.O.O.O.O.O.O.O.O."
};
