/* XPM */
static char *branchSegmentNormal_xpm[] = {
/* columns rows colors chars-per-pixel */
"50 50 159 2 ",
"   c #000001",
".  c #040609",
"X  c #06080B",
"o  c #0B0B0C",
"O  c #0E0F10",
"+  c #100F11",
"@  c #131414",
"#  c #191817",
"$  c #1B1A19",
"%  c #251F1D",
"&  c #24211E",
"*  c #2A2622",
"=  c #2D2925",
"-  c #332C27",
";  c #342E28",
":  c #3B342E",
">  c #3E3730",
",  c #473E36",
"<  c #403A38",
"1  c #4D4239",
"2  c #52473D",
"3  c #53483E",
"4  c #664A33",
"5  c #664F3B",
"6  c #69513D",
"7  c #504F4D",
"8  c #595957",
"9  c #585958",
"0  c #6E5640",
"q  c #625648",
"w  c #6C5E4F",
"e  c #615345",
"r  c #755B45",
"t  c #7D634B",
"y  c #6F6151",
"u  c #6D655B",
"i  c #736353",
"p  c #7C6753",
"a  c #72695E",
"s  c #7C6C5A",
"d  c #746B60",
"f  c #786E62",
"g  c #7E7366",
"h  c #78736B",
"j  c #81654D",
"k  c #846B53",
"l  c #896E55",
"z  c #816F5B",
"x  c #887056",
"c  c #84725E",
"v  c #8B735A",
"b  c #907359",
"n  c #93795E",
"m  c #897560",
"M  c #8D7964",
"N  c #84786A",
"B  c #8E7D6A",
"V  c #927D66",
"C  c #9A7D62",
"Z  c #937E68",
"A  c #8E816B",
"S  c #968067",
"D  c #95816A",
"F  c #9C856D",
"G  c #968471",
"H  c #9D8770",
"J  c #9A8B76",
"K  c #9F907E",
"L  c #A68567",
"P  c #A4876A",
"I  c #AD8768",
"U  c #A0886E",
"Y  c #A08770",
"T  c #A58C72",
"R  c #A88F74",
"E  c #AB9176",
"W  c #AC9378",
"Q  c #BD9776",
"!  c #B1977B",
"~  c #B59A7E",
"^  c #B19273",
"/  c #C09F7D",
"(  c #9C9084",
")  c #A69582",
"_  c #AA9986",
"`  c #A99C8C",
"'  c #B79D80",
"]  c #B99E81",
"[  c #AA9E90",
"{  c #94A19F",
"}  c #BCA183",
"|  c #BCA789",
" . c #B5A184",
".. c #B0A496",
"X. c #97A6A5",
"o. c #98A6A5",
"O. c #9AA8A7",
"+. c #99AAA9",
"@. c #C1A587",
"#. c #C2A688",
"$. c #C6A98A",
"%. c #CBAD8D",
"&. c #CFB090",
"*. c #D3B493",
"=. c #D9B997",
"-. c #D5BB99",
";. c #DABA98",
":. c #E2B68C",
">. c #E2BF9B",
",. c #E1BB94",
"<. c #E4C29E",
"1. c #DEC4A2",
"2. c #E5C3A0",
"3. c #E9C6A2",
"4. c #EECAA5",
"5. c #E8C9AC",
"6. c #F0CCA6",
"7. c #F2CEA8",
"8. c #EDD3AC",
"9. c #F5D1AA",
"0. c #FAD5AE",
"q. c #E9CEB3",
"w. c #E9D1BB",
"e. c #F3D7B0",
"r. c #FAD6B1",
"t. c #F5D9B2",
"y. c #FBD9B4",
"u. c #FBDCBB",
"i. c #FFE0B6",
"p. c #FFE4BA",
"a. c #FFE9BE",
"s. c #B7D9DE",
"d. c #BADCE2",
"f. c #BEE1E7",
"g. c #BFE2E8",
"h. c #EBDEC2",
"j. c #FBDFC1",
"k. c #FBE1C4",
"l. c #FFECC4",
"z. c #FCE3C8",
"x. c #FFECCA",
"c. c #FFF2C5",
"v. c #FFF6C9",
"b. c #FFFDCE",
"n. c #FFEED4",
"m. c #FFF2D2",
"M. c #FFFED6",
"N. c #FFFFDF",
"B. c #C0E3E8",
"V. c #C6E8ED",
"C. c #CDECED",
"Z. c #CEEFF2",
"A. c #CFF0F3",
"S. c #D5F3F4",
"D. c #DEFDFD",
"F. c #E0FFFF",
"G. c #EAFFFF",
"H. c #F5FFFF",
"J. c #F8FFFF",
/* pixels */
"F.F.F.F.F.F.F.F.F.F.F.F.F.F.F.F.F.F.F.F.F.F.F.F.F.F.F.F.F.F.F.F.F.F.F.F.F.F.F.F.F.F.F.F.F.F.F.F.F.F.",
"F.F.F.F.F.F.F.F.F.F.F.F.F.F.F.F.F.F.F.F.F.F.F.F.F.F.F.F.F.F.F.F.F.F.F.D.F.F.F.F.F.F.F.F.D.D.F.F.F.F.",
"F.F.D.F.G.G.G.G.G.G.G.G.G.G.G.G.G.G.G.G.G.G.G.H.G.G.G.G.G.G.G.G.G.G.G.G.G.G.G.G.G.G.G.G.G.G.G.F.F.F.",
"F.F.F.F.S.C.C.C.C.C.C.V.C.C.C.C.C.C.C.C.C.C.V.V.C.C.C.C.C.C.C.C.C.C.C.C.C.C.C.C.C.C.Z.C.C.C.D.F.F.F.",
"F.F.G.S.9 7 8 8 9 9 9 9 9 9 8 8 8 8 9 9 9 9 7 9 9 9 9 9 8 9 9 9 9 9 9 9 9 9 8 8 8 8 9 8 8 < X.H.F.F.",
"F.F.G.d.( h.w.w.h.h.w.w.w.w.w.w.w.w.w.h.w.w.h.h.w.q.h.h.q.w.w.w.w.w.w.w.w.w.w.w.q.5.3.<.,.I { H.F.F.",
"F.F.G.s...N.m.n.n.n.n.n.n.n.n.n.n.n.n.n.n.n.n.n.n.n.n.n.n.n.n.n.n.n.n.n.n.n.n.z.z.a.y.0.7./ o.H.F.F.",
"F.F.G.d.[ n.z.z.z.z.z.z.z.z.z.z.j.j.z.z.j.j.z.z.z.j.z.z.z.z.j.j.z.z.z.z.k.k.j.j.u.0.6.<.;.L o.H.F.F.",
"F.F.G.d.[ m.z.z.k.k.k.k.j.k.k.k.k.k.k.k.j.j.j.j.j.j.j.j.j.j.j.j.j.j.j.j.j.j.j.y.r.7.<.*.%.n o.H.F.F.",
"F.F.G.d.[ x.k.k.k.j.j.j.u.u.u.u.u.u.u.u.j.j.j.u.j.j.j.j.j.j.j.j.u.j.j.j.j.u.y.r.0.2.=.$.@.b o.H.F.F.",
"F.F.G.d.` x.k.j.u.u.u.u.u.u.y.u.u.x.M.M.m.k.u.y.j.j.r.j.u.u.r.u.y.u.u.u.y.y.y.0.4.;.*.} ~ l o.H.F.F.",
"F.F.G.s.` x.j.u.u.u.u.u.u.y.y.u.v.;.M f W i.c.r.9.u.u.9.r.r.u.r.y.t.y.y.y.r.r.4.<.=.$.~ ^ k o.H.F.F.",
"F.F.G.d.` x.u.u.u.u.y.y.y.e.y.l.G .       ; 1.l.r.r.r.r.r.r.r.r.y.r.r.r.r.0.7.4.>.*.@.! E j o.H.F.F.",
"F.F.G.d.` l.u.u.u.y.y.y.r.r.c.!   . o . O   = t.u.0.r.0.0.y.j.j.i.0.r.r.0.0.6.3.>.%.} ! T j o.H.F.F.",
"F.F.G.d.` x.u.u.y.y.t.r.r.u.i.<   @ $ & @ @   U c.0.0.0.l.k.>.*.0.c.y.0.0.0.6.2.=.*.} W T j o.H.F.F.",
"F.F.G.d.` x.u.u.y.y.r.r.r.u.4.@ X   D v.& X   i v.0.0.l.-.< O o & V a.i.9.7.6.2.=.%.] W T t X.H.F.F.",
"F.F.G.d._ x.u.y.y.y.t.r.0.i.7.% . o 3 D $ O   c v.0.a.-.O   X o .   p l.0.7.6.2.;.%.] W E t X.H.F.F.",
"F.F.G.d.` x.u.u.u.y.r.r.t.r.l.i   @ .   @ .   *.a.y.p.1   # X   @ o . $.a.9.4.2.;.%.} W T t X.H.F.F.",
"F.F.G.d.` x.u.u.y.y.y.0.0.0.i.8.-   + # .   D a.r.p.<.# X . i | # o   c v.7.6.2.;.%.} W T j X.H.F.F.",
"F.F.G.s.` x.u.u.y.y.y.r.r.0.0.k.9.i o X * ~ a.y.0.p.<.# X   M 8.$ X   c v.9.6.<.;.%.} W T t X.H.F.F.",
"F.F.G.d.` x.u.u.y.y.r.r.r.0.0.9.v.i.$   s M.y.0.0.y.i.:   @ + o @ o   ] l.0.4.2.;.%.} W T t o.H.F.F.",
"F.F.G.d._ x.u.u.u.y.y.r.r.0.0.r.p.3.$   i c.r.0.0.0.c.|     @ o O   2 p.r.7.6.2.;.%.} W T t o.H.F.F.",
"F.F.G.d.` x.j.u.u.y.r.r.r.0.0.r.p.3.$   i l.r.0.0.0.0.l.~ % o @ . e t.i.9.9.4.2.;.%.} W R t o.H.F.F.",
"F.F.G.d.` z.u.u.y.e.y.r.r.0.0.0.i.3.$   i c.r.r.0.0.0.0.b.4.@   q M.a.0.0.7.4.2.;.%.} W T j o.H.F.F.",
"F.F.G.d.` x.u.y.y.y.e.r.r.0.0.0.p.3.$   i c.0.0.0.y.y.i.M.&.o   Z b.0.0.0.9.6.2.;.%.} W T t X.H.F.F.",
"F.D.G.d.` x.u.u.u.y.y.r.r.0.0.r.i.3.$   p b.l.v.v.a.p.t. .&     &.a.0.0.0.7.4.2.;.%.} E R t X.H.F.F.",
"F.F.G.d._ x.u.u.y.y.y.r.r.0.0.0.p.3.$   s i.} H c w 3 =       p c.0.0.0.0.9.4.2.;.%.} W T t X.H.F.F.",
"F.F.G.d.` x.u.u.y.y.r.r.r.0.0.0.p.3.$ . * * .             . s a.u.0.0.0.0.7.6.<.;.%.} W R t o.H.F.F.",
"F.D.G.d.` x.u.y.y.y.y.r.0.0.0.0.p.3.& X o     X $ ; 3 y M *.c.i.0.0.0.0.0.9.4.2.;.%.} W R t o.H.F.F.",
"F.D.G.d.` x.u.u.y.y.r.r.t.0.0.0.c.y.$ . @ q H $.3.0.i.c.v.a.0.0.0.0.0.0.0.9.4.<.;.%.} W T t o.H.F.F.",
"F.F.G.d._ x.u.u.u.y.y.r.0.0.0.a.t.y o X X W N.c.i.i.y.y.0.0.0.0.r.0.0.0.0.7.6.3.;.%.} W R t X.H.F.F.",
"F.F.G.d.` x.u.u.y.t.y.0.t.0.p.9.;   + # o   M c.r.0.0.0.0.r.0.0.0.0.0.0.0.7.6.<.;.%.} W T t X.H.F.F.",
"F.F.G.d.` x.u.u.y.y.r.r.r.0.c.y   # .   @ X   *.a.0.0.0.0.0.0.0.0.0.0.0.0.7.6.<.;.&.} W U t o.H.F.F.",
"F.F.G.d.` l.u.u.u.y.r.r.r.u.9.& . X 2 B $ o   c v.0.0.0.0.0.e.0.0.0.0.0.0.9.4.<.;.&.} W E t X.H.F.F.",
"F.F.G.d.` x.u.u.y.y.t.r.r.p.4.@ X   D v.& .   i v.0.0.0.0.0.0.0.0.0.0.0.0.7.6.<.;.&.} W T t X.H.F.D.",
"F.F.G.d.` l.u.u.y.y.y.r.r.y.y.:   @ # & @ @   F c.0.0.0.0.0.0.0.0.0.0.0.e.9.4.<.;.$.} W T t o.H.F.F.",
"F.F.G.d.` x.u.y.y.t.0.0.0.0.a.W   . o X +   * 0.y.0.0.0.9.9.0.9.0.9.0.9.9.6.4.<.=.&.~ W T j o.H.F.F.",
"F.F.G.d._ l.u.y.y.0.0.0.7.6.7.p.V X       ; ;.p.6.4.6.6.4.4.6.7.4.4.6.7.6.3.<.;.*.$.~ E T t o.H.F.F.",
"F.F.G.d._ k.y.t.0.7.4.3.4.<.<.4.i.$.c i F 4.y.<.<.<.3.<.<.<.<.<.<.<.<.<.<.<.;.*.$.@.! U P r o.H.F.F.",
"F.F.G.d._ a.0.0.6.3.<.<.;.;.;.=.=.4.r.y.0.<.=.=.=.;.;.;.;.;.>.;.;.;.>.;.-.*.*.%.@.~ E H F r o.H.F.F.",
"F.F.G.d._ i.7.4.<.=.*.*.&.%.%.%.%.%.%.%.%.%.%.%.%.%.%.%.%.%.%.%.%.%.%.%.$.$.@.} ~ E U F S t X.H.F.F.",
"F.F.G.d.W 0.<.;.*.$.#.} } ~ ~ ~ ' ' ~ ' ' ' ' ~ ~ ] ~ ' ' ' ~ ' ~  .~ ~ ~ ~ ! W E F S M M 6 X.H.F.F.",
"F.F.G.f.K 4.*.$.} ~ W E T T T T T U T T T T T T T T T U T T T T U T T T T U H F S M v c v 6 o.H.F.F.",
"F.F.G.B.J ,.$.~ W T F D S S V S V V V V V V M V V V V V V V V V V S V V V V M M v c s s z 5 o.H.F.F.",
"F.F.G.f.G :.~ E P C n v x v x x x x x x x x x x x x x x x x x x x x x x x x k k p t t t k 4 { J.F.F.",
"F.F.G.Z.h B N N f d a u u u u u u u u u u u u u u u u u u u u u u u u u u u u u u u u u u 3 O.J.F.F.",
"F.F.F.G.C.f.V.V.Z.Z.Z.Z.Z.Z.A.A.Z.Z.Z.Z.A.Z.Z.Z.Z.Z.A.A.Z.Z.A.Z.Z.Z.A.A.Z.Z.A.Z.A.A.A.A.A.C.D.F.F.F.",
"F.F.D.D.G.G.G.G.G.G.G.G.G.G.G.G.G.G.G.G.G.G.G.G.G.G.G.G.G.G.G.G.G.G.G.G.G.G.G.G.G.G.G.G.G.G.G.D.F.F.",
"F.F.F.F.F.F.F.F.D.F.F.F.F.F.F.F.F.F.F.F.F.F.F.F.F.F.F.F.F.F.F.D.F.F.F.F.F.F.F.F.D.F.F.F.F.F.F.F.F.F.",
"F.F.F.F.F.F.F.F.F.F.F.F.F.F.F.F.F.F.F.F.F.F.F.F.F.F.F.F.F.F.F.F.F.F.F.F.F.F.F.F.F.F.F.F.F.F.F.F.F.F."
};
