/* XPM */
static char *branchSegmentPressed_xpm[] = {
/* columns rows colors chars-per-pixel */
"50 50 141 2 ",
"   c #010101",
".  c #060609",
"X  c #07090A",
"o  c #0A0B0C",
"O  c #17100E",
"+  c #0E0F10",
"@  c #0F1010",
"#  c #141414",
"$  c #1D1B1A",
"%  c #211F1D",
"&  c #25221E",
"*  c #252321",
"=  c #292825",
"-  c #302C27",
";  c #322E2A",
":  c #35302B",
">  c #3A3531",
",  c #3B3933",
"<  c #443C35",
"1  c #543F31",
"2  c #474039",
"3  c #4D463E",
"4  c #4C4744",
"5  c #504941",
"6  c #585047",
"7  c #5C544F",
"8  c #515251",
"9  c #585A5A",
"0  c #665445",
"q  c #6B5747",
"w  c #63584D",
"e  c #6B5D4F",
"r  c #645C53",
"t  c #6B5F53",
"y  c #6D6256",
"u  c #67635C",
"i  c #68635B",
"p  c #756455",
"a  c #796656",
"s  c #7A6957",
"d  c #776658",
"f  c #756A5E",
"g  c #7D6C5A",
"h  c #656561",
"j  c #7E6F61",
"k  c #7F7162",
"l  c #76716B",
"z  c #79746E",
"x  c #856F5A",
"c  c #827464",
"v  c #877866",
"b  c #867768",
"n  c #867869",
"m  c #8B7C6B",
"M  c #8E806F",
"N  c #91816F",
"B  c #948473",
"V  c #988775",
"C  c #9B8A76",
"Z  c #978A7A",
"A  c #9E8D7A",
"S  c #A18F7C",
"D  c #A4917D",
"F  c #9C8F81",
"G  c #9F9181",
"H  c #A39484",
"J  c #A99682",
"K  c #AF9C86",
"L  c #A29688",
"P  c #A6998A",
"I  c #AA9C8C",
"U  c #B19D87",
"Y  c #B39F89",
"T  c #92A09F",
"R  c #B4A08A",
"E  c #BAA58E",
"W  c #B3A493",
"Q  c #BCA791",
"!  c #BBA995",
"~  c #B7A998",
"^  c #BCAB98",
"/  c #BBB098",
"(  c #97A6A5",
")  c #98A7A6",
"_  c #99AAAA",
"`  c #C4AE96",
"'  c #C7B097",
"]  c #C7B19A",
"[  c #C8B098",
"{  c #D0B89F",
"}  c #C5B4A1",
"|  c #C8B6A3",
" . c #CBB9A5",
".. c #D6BDA3",
"X. c #D8BEA4",
"o. c #D1BDA8",
"O. c #DAC1A6",
"+. c #D5C1AC",
"@. c #DDC4AA",
"#. c #DFCBAF",
"$. c #DBC7B2",
"%. c #DDC9B4",
"&. c #E0C6AA",
"*. c #E4CAAD",
"=. c #E3CCB4",
"-. c #EACEB2",
";. c #E5D0B3",
":. c #EDD2B5",
">. c #E7D2BB",
",. c #EDD6BD",
"<. c #E5DCBE",
"1. c #EFDCBE",
"2. c #F0D4B7",
"3. c #F3D7B9",
"4. c #F6DABB",
"5. c #FBDDBF",
"6. c #F6DDC2",
"7. c #FBDFC1",
"8. c #F5E1C2",
"9. c #FCE1C3",
"0. c #FFE8C7",
"q. c #FDE5CA",
"w. c #FFEBCB",
"e. c #FFF1CF",
"r. c #FFEFD2",
"t. c #FFF5D2",
"y. c #FFF9D6",
"u. c #FFF5D9",
"i. c #FFFDDA",
"p. c #CAE9EC",
"a. c #CFEFF2",
"s. c #D0EFF2",
"d. c #D5F3F5",
"f. c #D8F6F6",
"g. c #DEFDFD",
"h. c #FFFFE2",
"j. c #FFFFEB",
"k. c #E0FFFF",
"l. c #EAFFFF",
"z. c #F5FFFF",
"x. c #FBFFFD",
/* pixels */
"k.k.k.k.k.k.k.k.k.k.k.k.k.k.k.k.k.k.k.k.k.k.k.k.k.k.k.k.k.k.k.k.k.k.k.k.k.k.k.k.k.k.k.k.k.k.k.k.k.k.",
"k.k.k.k.k.k.k.k.k.k.k.k.k.k.k.k.k.k.k.k.k.k.k.k.k.k.k.k.k.k.k.k.k.g.k.k.k.k.k.k.k.k.k.k.k.g.k.k.k.k.",
"k.k.g.k.l.l.l.l.l.l.l.l.l.l.l.l.l.l.l.l.l.l.l.l.l.l.l.l.l.l.l.l.l.l.l.l.l.l.l.l.l.l.l.l.l.l.l.g.k.k.",
"k.k.k.k.f.d.d.d.d.d.d.d.d.d.d.d.d.d.d.d.d.d.f.f.d.d.d.d.d.d.d.d.d.d.d.d.d.d.d.d.d.d.d.d.d.d.f.k.k.k.",
"k.k.l.f.9 4 8 8 8 8 8 8 8 8 8 8 8 8 8 8 8 8 8 8 8 8 8 8 8 8 8 8 8 8 8 8 8 8 8 8 8 8 8 8 8 > _ x.k.k.",
"k.k.l.s.7 0 e t e e e e e e e e e e e e e e e e e e e e e e e e e e e e e e e e e e e e p 1 T x.k.k.",
"k.k.l.a.i a f g j k c x c c c c c v c c c c c c c c v c c v c c c c k x c c x c c j k c v q ( z.k.k.",
"k.k.l.d.i a f k c v v m M m m m m m m m m m m m m m m m m m m m m M M M m M M m m v v c m t ( z.k.k.",
"k.k.l.d.i a k c m B V C A S A A A S S S A A A D S S S S A S A S S A A S A S C C V V M M B p ( z.k.k.",
"k.k.l.a.u s c m V D K U Y R R R R R R R R R R R R R R R Y R R U R R R R R R R R I J S A F p ) z.k.k.",
"k.k.l.a.i g v m D Y E ` ' ' ' ' ' ' ' ' ' ' ' ' ' ' ' ' [ [ ' ' ' ' ' ' ' [ [ [ ` E K H G d ( z.k.k.",
"k.g.l.a.i g v V J E [ ] ..O...O.O.{ &.*.*.O.{ O.......O.X.X.O.{ O...O.O.X.O.&.@.X.[ W P G d ( z.k.k.",
"k.k.l.a.i g m V K Q { O.*.*.*.*.*.9.5.O.@.9.5.*.*.*.*.-.*.*.*.*.*.*.*.*.=.-.2.;.#.o.! I H d ( z.k.k.",
"k.k.l.a.i g m C K ' { @.-.:.2.2.w.[ 2 O $ w -.0.2.2.2.2.2.2.2.3.:.2.2.2.3.5.5.2.=. .^ I H d ( z.k.k.",
"k.k.l.a.i g m C K ` ..*.:.2.4.e.{ X         - 4.0.4.4.4.4.9.0.9.5.4.4.4.5.9.6.,.=.o.^ I H d ( z.k.k.",
"k.k.l.a.i g m C K ' ..*.:.4.7.w.3   # o @ #   M y.5.4.5.y.w.2.9.y.9.5.5.9.5.7.,.=.o.^ J H d ( z.k.k.",
"k.k.l.a.i g m C U ` ..*.:.4.0.2.#   X O.C     5 t.9.9.y.Q 2 & : B w.0.5.7.7.6.,.=.o.~ K H d ( z.k.k.",
"k.k.l.a.i g m C U ` ..&.:.4.0.4.%   @ B t o   5 t.9.y.K           y t.0.7.7.6.,.=.o.^ I H d ( z.k.k.",
"k.k.l.d.i g m C K ` ..*.:.4.5.y.t   #     o   K i.w.4.%   # . o +   Q y.7.6.6.6.=.o.^ I H d ( z.k.k.",
"k.k.l.p.i g m C U ` ..*.2.4.4.w.1.<   # o   f t.9.t.Q     * #.w     k i.7.9.6.3.=.o.^ I G d ( z.k.k.",
"k.k.l.a.i g m C K ` ..*.2.4.5.5.e.e.p   o J y.0.5.t.[   . $ K 5 X   n i.9.9.6.3.=.o.^ I J d ( z.k.k.",
"k.k.l.a.i g v C K ` { *.:.4.4.5.5.h.`   $ 0.t.5.5.0.0.:   #   o     ..e.7.6.6.,.=.o.^ I H d ( z.k.k.",
"k.k.l.a.u g m C U ` ..*.:.4.5.5.5.y.K   # -.w.7.5.5.t. .O   # .   B t.7.7.9.6.1.=.o.~ I H d ( z.k.k.",
"k.k.l.a.y g m C U ` ..*.:.4.5.5.5.y.K   # -.w.7.5.5.5.y.<.3   # E i.0.7.7.7.6.3.=.o.^ I H d ( z.k.k.",
"k.k.l.a.i g m C U ` { *.2.4.5.5.5.y.K   # ;.w.7.5.5.9.0.x.m   2 i.w.5.5.7.9.6.,.=.o.^ I H d ( z.k.k.",
"k.g.l.a.i g m C U ` ..*.2.4.5.5.5.y.K   # 3.i.t.i.i.t.e.U #   d y.7.5.5.5.9.6.1.=.o.^ I H d ( z.k.k.",
"k.k.l.a.i g m V U ` ..*.:.4.5.5.5.y.U   $ 2.=.R A v y ,     # =.e.5.5.7.9.9.6.3.=.o.^ I H d ( z.k.k.",
"k.k.l.s.i g m C U ` ..*.:.4.4.5.5.y.U   # , #             = ..y.5.7.5.5.5.9.6.,.=.o.! I H d ( z.k.k.",
"k.k.l.a.i g v C K ` ..*.:.4.5.5.5.y.R   @     o = 3 y v U 9.y.7.5.5.5.5.7.7.6.6.=.o.! I H d ( z.k.k.",
"k.k.l.s.i g m C U ` { *.:.4.5.5.9.j.R     3 / @.5.0.t.i.y.0.5.7.5.5.5.7.7.6.6.3.=.o.^ I H d ( z.k.k.",
"k.k.l.s.u x m C K ` ..*.:.4.5.7.y.K * o X < 8.h.0.9.9.5.5.5.5.5.7.5.5.7.7.6.6.,.=.o.^ I H d ( z.k.k.",
"k.k.l.p.u g m C K ` ..*.:.4.5.t.W     o o   # ;.e.5.5.5.5.7.5.5.5.5.5.7.7.9.7.,.=.o.~ K H p ( z.k.k.",
"k.k.l.a.i g m C U ` ..*.2.4.9.0.>   # % % #   f i.5.5.5.5.5.5.5.5.5.7.5.9.9.6.,.=.o.^ K H d ( z.g.k.",
"k.k.l.a.i g m V U ` { *.2.4.0.2.#   X ;.J     4 0.0.5.5.5.5.7.5.7.5.5.7.6.9.6.,.=.o.^ I H d ( z.k.k.",
"k.k.l.a.i g m C U ` ..*.:.3.0.5.*   @ t 3 o   w t.9.5.7.5.7.6.6.7.5.5.7.6.9.6.6.=.o.^ I H d ( z.k.k.",
"k.k.l.a.i g v C K ` ..*.2.5.7.y.v   +         ` y.7.5.9.7.7.9.9.7.7.7.7.6.6.6.%.=.o.^ I G d ( z.k.k.",
"k.k.l.a.i g m C Y ` X.-.4.5.9.w.q.7       . Z h.9.9.6.9.9.9.6.6.7.9.9.6.9.9.6.6.=.+.! I H d ) z.k.k.",
"k.k.l.a.i g m V K ` X.;.5.5.9.6.r.u.! k n  .h.6.9.9.9.8.9.6.6.6.9.9.9.6.q.9.6.6.=. .^ I H d ( z.k.k.",
"k.k.l.a.i g v V K ` O.-.1.6.6.6.6.6.u.h.j.r.6.6.6.6.6.6.6.6.6.6.6.6.6.6.6.6.6.6.%. .! I H d ( z.k.k.",
"k.k.l.s.i g m B J ` ..*.>.,.,.>.>.6.>.>.6.>.6.6.,.,.>.,.6.6.%.6.,.,.,.,.6.>.%.%.+.] W P G d ( z.k.k.",
"k.k.l.s.i s n B D Q | +.$.%.%.%.%.%.%.%.%.%.%.%.%.%.%.%.%.%.%.%.%.%.%.%.%.%.%.o. .] W G G p ( z.k.k.",
"k.k.l.s.u s b m S R ~ }  . . . . . . . . . . . . . . . . . . . . . . . . . . .} ^ W I G G j ( z.k.k.",
"k.k.l.s.i g b m A P W ~ ~ ~ ~ ~ ~ ~ ~ ! ~ ~ ~ ~ ~ ~ ~ ~ ~ ~ ~ ~ ~ ~ ~ ~ ~ ~ ~ W W I P F F p ( z.k.k.",
"k.k.l.a.i g b B F G P I I I I I I I I I I I I I I I I I I I I I I I I I I I I P P G G F F p ( z.k.k.",
"k.k.l.p.t x m C A G H H L H H H H H H H H H H H L L L L H H H H L L L L J H H H H G F A G d ( z.k.k.",
"k.k.l.d.h i l z z z z z z z z z z z z z z z z z z z z z z z z z z z z z z z l z z z z z z 7 _ z.k.k.",
"k.k.k.k.d.p.p.p.p.p.p.p.p.p.p.p.p.p.p.p.p.p.p.p.p.p.p.p.p.p.p.p.p.p.p.p.p.p.p.p.p.p.p.p.p.p.g.k.k.k.",
"k.k.k.k.l.l.l.l.l.l.l.l.l.l.l.l.l.l.l.l.l.l.l.l.l.l.l.l.l.l.l.l.l.l.l.l.l.l.l.l.l.l.l.l.l.l.l.g.k.k.",
"k.k.k.k.k.k.k.k.k.k.k.k.k.k.k.k.k.k.k.k.k.k.k.k.k.k.k.k.k.k.k.k.g.k.k.g.k.k.k.k.k.k.k.k.k.k.k.k.k.k.",
"k.k.k.k.k.k.k.k.k.k.k.k.k.k.k.k.k.k.k.k.k.k.k.k.k.k.k.k.k.k.k.k.k.k.k.k.k.k.k.k.k.k.k.k.k.k.k.k.k.k."
};
