/* XPM */
static char *clearSegmentPressed_xpm[] = {
/* columns rows colors chars-per-pixel */
"50 50 148 2 ",
"   c #000001",
".  c #060709",
"X  c #070809",
"o  c #0B0B0C",
"O  c #100C0C",
"+  c #0F1012",
"@  c #151415",
"#  c #191413",
"$  c #1E1D1C",
"%  c #24201E",
"&  c #242321",
"*  c #2A2623",
"=  c #2D2A26",
"-  c #2F2C28",
";  c #322E2A",
":  c #34302C",
">  c #38332E",
",  c #393531",
"<  c #433932",
"1  c #483E37",
"2  c #453F38",
"3  c #543F31",
"4  c #4C443C",
"5  c #50453D",
"6  c #53483F",
"7  c #484747",
"8  c #534A42",
"9  c #584D43",
"0  c #5B5145",
"q  c #5C554D",
"w  c #515251",
"e  c #585A5A",
"r  c #665445",
"t  c #6B5747",
"y  c #665A4F",
"u  c #6B5D4F",
"i  c #645D53",
"p  c #6B5F52",
"a  c #67635C",
"s  c #68635B",
"d  c #756455",
"f  c #796656",
"g  c #7A6957",
"h  c #776658",
"j  c #74685B",
"k  c #7D6C5A",
"l  c #656561",
"z  c #766E60",
"x  c #7D6F61",
"c  c #7F7162",
"v  c #76716B",
"b  c #79746E",
"n  c #856F5A",
"m  c #827464",
"M  c #877866",
"N  c #847769",
"B  c #877868",
"V  c #8B7C6B",
"C  c #907E6E",
"Z  c #8F806F",
"A  c #91816F",
"S  c #8F8272",
"D  c #948473",
"F  c #988775",
"G  c #958977",
"H  c #9B8A76",
"J  c #9E8D7A",
"K  c #A18E7C",
"L  c #A5927E",
"P  c #9C8F81",
"I  c #9F9181",
"U  c #A39484",
"Y  c #A99682",
"T  c #AE9B86",
"R  c #A29688",
"E  c #A69989",
"W  c #AA9C8C",
"Q  c #B19D87",
"!  c #B49F89",
"~  c #92A09F",
"^  c #B4A08A",
"/  c #BBA68F",
"(  c #B3A493",
")  c #BBA691",
"_  c #BBAA96",
"`  c #B7A998",
"'  c #BCAB98",
"]  c #BBB59C",
"[  c #BFB89F",
"{  c #97A6A5",
"}  c #98A7A6",
"|  c #99AAAA",
" . c #C5AE96",
".. c #C7AF98",
"X. c #C7B097",
"o. c #C5B29B",
"O. c #C9B199",
"+. c #D0B89F",
"@. c #C5B4A1",
"#. c #C8B6A3",
"$. c #CAB9A6",
"%. c #D6BDA3",
"&. c #D9BEA4",
"*. c #D1BDA8",
"=. c #D3C1A7",
"-. c #DAC0A6",
";. c #D5C2AB",
":. c #DCC4A9",
">. c #D4C8AC",
",. c #DBC7B2",
"<. c #DDC9B4",
"1. c #E1C7AB",
"2. c #E4CAAD",
"3. c #E3CCB4",
"4. c #E9CEB1",
"5. c #EED3B6",
"6. c #E7D2BB",
"7. c #EDD6BD",
"8. c #EEDDBE",
"9. c #F0D4B7",
"0. c #F3D7BB",
"q. c #F6DABC",
"w. c #FBDDBF",
"e. c #F6DDC2",
"r. c #FBDFC1",
"t. c #F4E3C4",
"y. c #FCE2C4",
"u. c #FFE8C7",
"i. c #FEE5C9",
"p. c #FEECCB",
"a. c #FFF0CF",
"s. c #FFECD0",
"d. c #FFF4D2",
"f. c #FFF9D6",
"g. c #FFF5D8",
"h. c #FFFEDC",
"j. c #CAE9EC",
"k. c #CFEFF2",
"l. c #D0EFF2",
"z. c #D5F3F5",
"x. c #D8F6F6",
"c. c #DEFDFD",
"v. c #FFFFE2",
"b. c #FFFFEB",
"n. c #E0FFFF",
"m. c #EAFFFF",
"M. c #F5FFFF",
"N. c #FDFFFE",
/* pixels */
"n.n.n.n.n.n.n.n.n.n.n.n.n.n.n.n.n.n.n.n.n.n.n.n.n.n.n.n.n.n.n.n.n.n.n.n.n.n.n.n.n.n.n.n.n.n.n.n.n.n.",
"n.n.n.n.n.n.n.n.n.n.n.n.n.n.n.n.n.n.n.n.n.n.n.n.n.n.n.n.n.n.n.n.n.n.n.n.n.n.n.n.n.n.n.n.n.n.n.n.n.n.",
"n.n.c.n.m.m.m.m.m.m.m.m.m.m.m.m.m.m.m.m.m.m.m.m.m.m.m.m.m.m.m.m.m.m.m.m.m.m.m.m.m.m.m.m.m.m.m.n.n.n.",
"n.n.n.n.x.z.z.z.z.z.z.z.z.z.z.z.z.z.z.z.z.z.z.z.z.z.z.z.z.z.z.z.z.z.z.x.x.z.z.z.z.x.z.z.z.z.x.n.n.n.",
"n.c.m.z.e 7 w w w w w w w w w w w w w w w w w w w w w w w w w w w w w w w w w w w w w w w , | N.n.n.",
"n.n.m.z.q r u p u u u u u u u u u u u u u u u u u u u u u u u u u u u u u u u u u u u u d 3 ~ M.n.n.",
"n.n.m.k.a f k x x c m m n m m m m m m m m m m m m m m m m m m m m m m m m m m m m x m m M t { M.n.n.",
"n.n.m.k.a h k x m M M M Z Z V A V V V C V V V A V V V C V V C V V V V V V V V V M M m M V u { M.n.n.",
"n.n.m.z.s f c m V D F H K K K H K K H K J J K J K K K H K K H K K J K J H L K H F F D V D d { M.n.n.",
"n.n.m.k.a f m V G L T Q ^ ^ ^ ^ ^ ^ ^ ^ ^ ^ ^ ^ ^ ^ ^ ^ ^ ^ ^ ^ ^ ! ^ ^ ^ ^ ^ ^ Q Y K J J h } M.n.n.",
"n.n.m.k.s k M V L Q /  .O.O.O.O.X.X.X.X.X.X.X.O.X.X.X.X.X.X.X.X.X.O. .O.O.O.O.X. ./ W U I j { M.n.n.",
"n.n.m.k.s k M F Y / O.O.+.-.&.+.%.-.%.-.%.-.%.-.&.%.&.&.%.-.%.-.%.%.-.5.w.4.:.:.*.o.( R U h { M.n.n.",
"n.n.m.k.s k V F T  .+.-.2.2.2.2.2.2.2.2.2.2.2.2.2.2.2.2.2.2.2.2.2.5.u.D 0 ;.r.4.1.$.) W R h { M.n.n.",
"n.c.m.k.s k V H T  .%.:.4.5.9.9.9.9.9.9.9.9.9.9.9.9.9.5.9.9.9.9.q.f.F     = e.r.3.*._ W I d { M.n.n.",
"n.n.m.k.s k V H T  .+.2.5.0.0.q.q.q.q.q.q.q.q.q.w.q.q.q.q.q.q.y.h.A   o   > t.r.3.*. .W U f { M.n.n.",
"n.n.m.l.s k V H T  .&.2.5.0.q.w.w.w.w.w.q.w.w.w.w.w.w.w.w.w.u.f.S   .   < t.p.7.3.*.' E U j { M.n.n.",
"n.n.m.k.s k V H T X.+.2.5.q.q.w.w.w.w.w.w.r.w.w.w.w.w.w.w.u.h.D   .   < p.g.e.7.3.*._ W U f { M.n.n.",
"n.c.m.k.s n M H T X.&.2.5.q.w.w.w.w.w.y.w.w.w.w.p.d.w.q.u.h.V   .   1 p.f.w.r.7.3.*._ W R h { M.n.n.",
"n.n.m.k.s k V H T X.&.2.5.q.w.w.w.y.w.w.w.r.w.p.:.O.f.p.h.V   .   4 p.d.w.y.e.7.3.*.' W R f { M.n.n.",
"c.n.m.k.s k V H T X.+.2.5.q.w.w.w.w.w.w.w.w.u.d.>   %.b.N   X   5 p.d.w.r.r.e.7.3.*._ W I h { M.n.n.",
"n.n.m.l.s k M H T  .+.2.5.q.w.w.w.w.w.w.w.w.h.K     * i   .   8 p.d.w.w.r.r.t.7.3.*._ W U f { M.n.n.",
"n.n.m.k.s k V H T X.+.2.5.q.w.w.w.w.w.u.a.v.q.@         +   9 d.d.w.w.w.r.r.r.0.3.*. .W U h { M.n.n.",
"n.n.m.k.s g M H Q X.&.2.5.q.w.r.w.u.f.a.4.] 4   : ^ =     8 h.d.q.w.r.r.r.y.e.7.3.*.' W U h { M.n.n.",
"n.n.m.k.s n V H Q X.+.2.5.0.w.y.f.y.J 4 @       H N.:.%   * =.g.w.w.w.r.r.r.e.0.3.*._ W U h { M.n.n.",
"n.n.m.k.s k V H Q  .+.2.9.q.y.f.T *       @     , 3.N.%..     _ d.w.w.w.y.y.e.7.3.*._ W U h { M.n.n.",
"n.n.m.k.s k V H Q  .+.4.9.q.f.D     o i T 8.S     : E 8     #  .d.w.r.w.w.y.r.7.3.*.' W U h { M.n.n.",
"n.n.m.k.s k V H Q  .&.2.5.a.X.    4 >.h.v.f.h.V           z t.d.w.w.r.w.w.y.e.7.3.*.' E U h { M.n.n.",
"n.n.m.k.s g V H Q O.+.2.q.u.4   > a.h.f.u.0.u.h.V X . = $.h.p.w.w.w.w.w.r.y.e.0.3.*.' E U h { M.n.n.",
"n.c.m.k.s k V H T  .+.2.u.%.X   ! N.d.Y 4 -.p.a.p.$   T b.y.w.w.w.w.r.w.r.r.e.0.3.*. .E U h { M.n.n.",
"n.c.m.z.s k V H Q  .+.2.d.D   > d.o.:   G p.r.f.+..   &.d.w.w.w.w.w.w.w.r.r.e.7.3.*.' W U h { M.n.n.",
"n.n.m.j.s k M H Q  .+.4.u.q   4 q   O >.h.r.w.h.c   ; y.u.w.w.w.w.r.r.r.r.e.e.0.3.*.' W U h { M.n.n.",
"n.n.m.z.s k V H Q  .&.5.9.- .     5 t.h.w.w.g.w.$   M h.r.w.w.w.w.w.r.r.r.y.e.0.3.*._ W U d { M.n.n.",
"n.n.m.k.s k V H Q  .+.q.+.@     c f.a.w.u.h.h.u   o 4.d.w.w.w.w.w.r.w.w.r.i.e.0.3.*.' W U h { M.n.n.",
"n.n.m.k.s k V H T  .&.y.Q   o L b.f.f.h.u.o.8     C h.w.w.w.r.w.w.w.w.r.r.r.e.7.3.*.' W U f { M.n.n.",
"n.n.m.k.a g V H Q  .+.u.V   2 h.p.&.E x ,       s d.u.w.w.w.r.r.w.w.w.r.y.r.e.6.3.*.` W U h { M.n.n.",
"n.n.m.k.a k V H T  .&.u.j   = 8 & .         , E f.p.w.w.r.r.r.y.r.r.w.y.r.r.e.6.3.*.' W R h { M.n.n.",
"n.n.m.k.s k V H Q  .:.y.8         O $ 4 N ' t.b.u.r.e.r.r.e.e.e.y.y.r.r.y.i.e.e.3.*._ W U f { M.n.n.",
"n.n.m.k.s k V F T  .:.w.G p N V ( <.7.s.b.v.i.e.r.r.e.e.e.i.e.e.r.y.i.y.t.e.e.e.3.*._ W U f { M.n.n.",
"n.n.m.k.s k V F T  .&.4.y.h.v.v.g.s.s.e.e.e.e.e.e.e.e.e.e.e.e.e.e.e.e.e.e.e.e.6.,.$._ W U h { M.n.n.",
"n.n.m.k.s k M D Y  .%.3.6.e.6.6.6.6.e.6.e.6.e.e.e.6.6.e.e.6.e.6.6.7.6.7.e.6.6.,.;.#.( R I j { M.n.n.",
"n.n.m.l.s g M D L ) #.;.,.,.3.,.<.<.<.<.<.<.<.<.<.<.<.<.<.<.<.<.<.<.<.<.<.<.<.*.$...( U P h { M.n.n.",
"n.n.m.l.s g m S K ^ ' @.$.$.$.$.$.$.$.$.$.$.$.$.$.$.$.$.$.$.$.$.$.$.$.$.$.$.$.@.' ( W U P h { M.n.n.",
"n.n.m.l.s g m C J E ( ( ` ` ` ` ` ` ` ` ` ` ` ` ` ` ` ` ` ` ` ` ` ` ` ` ` ` ` ( ( W R P P h { M.n.n.",
"n.n.m.l.s k N D P R R W W W W W W W W W W W W W W W W W W W W W W W W W W W W E E R I P P h { M.n.n.",
"n.n.m.j.p n C F K I U U R R R U U U U U U U U U R R R R U U U U R R R U U U U Y I I K K I f ~ M.n.n.",
"n.n.m.z.l s v b b b b b b b b b b b N b b b b b b b b b b b b b b b b b b b b b b b b b b q | M.n.n.",
"n.n.n.n.z.j.j.j.j.j.j.j.j.j.j.j.j.j.j.j.j.j.j.j.j.j.j.j.j.j.j.j.j.j.j.j.j.j.j.j.j.j.j.j.j.j.n.n.n.n.",
"n.n.n.n.m.m.m.m.m.m.m.m.m.m.m.m.m.m.m.m.m.m.m.m.m.m.m.m.m.m.m.m.m.m.m.m.m.m.m.m.m.m.m.m.m.m.n.n.n.n.",
"n.n.n.n.n.n.n.n.n.n.n.n.n.n.n.n.n.n.n.n.n.n.n.n.n.n.n.n.n.n.n.n.n.n.n.n.n.n.n.n.n.n.n.n.n.n.n.n.n.n.",
"n.n.n.n.n.n.n.n.n.n.n.n.n.n.n.n.n.n.n.n.n.n.n.n.n.n.n.n.n.n.n.n.n.n.n.n.n.n.n.n.n.n.n.n.n.n.n.n.n.n."
};
