/* XPM */
static char *clearSegmentMouseOver_xpm[] = {
/* columns rows colors chars-per-pixel */
"50 50 175 2 ",
"   c #000001",
".  c #030609",
"X  c #06080B",
"o  c #0A0B0D",
"O  c #120D0E",
"+  c #0D0F10",
"@  c #110F10",
"#  c #131313",
"$  c #1A1717",
"%  c #1C1817",
"&  c #1C1A19",
"*  c #211D1B",
"=  c #23201D",
"-  c #2B221F",
";  c #2A2421",
":  c #2E2925",
">  c #302C27",
",  c #332E29",
"<  c #36302B",
"1  c #3B352E",
"2  c #453B32",
"3  c #4A3E36",
"4  c #4D443A",
"5  c #5A4B3F",
"6  c #52483C",
"7  c #4F3D46",
"8  c #564B40",
"9  c #5E4E42",
"0  c #514F4F",
"q  c #5D5145",
"w  c #4E5B51",
"e  c #525752",
"r  c #525852",
"t  c #644B4C",
"y  c #625346",
"u  c #635648",
"i  c #6A5B4D",
"p  c #685E50",
"a  c #7E5450",
"s  c #715F50",
"d  c #666455",
"f  c #6C6252",
"g  c #6C6959",
"h  c #736454",
"j  c #7C6B5A",
"k  c #716D5C",
"l  c #6A715F",
"z  c #7F715E",
"x  c #777260",
"c  c #7D7764",
"v  c #885151",
"b  c #855A55",
"n  c #856756",
"m  c #816E5B",
"M  c #8C6C5A",
"N  c #8E615B",
"B  c #92655E",
"V  c #85735D",
"C  c #88755F",
"Z  c #91715E",
"A  c #956760",
"S  c #966861",
"D  c #9A6B64",
"F  c #857562",
"G  c #897561",
"H  c #8E7962",
"J  c #8F7C6B",
"K  c #957561",
"L  c #927D66",
"P  c #927E68",
"I  c #9C7A66",
"U  c #A07169",
"Y  c #A8776E",
"T  c #559668",
"R  c #539968",
"E  c #539466",
"W  c #37C46E",
"Q  c #38C36C",
"!  c #39C671",
"~  c #3DC974",
"^  c #44CF79",
"/  c #4BD47C",
"(  c #46D17A",
")  c #51D97E",
"_  c #968067",
"`  c #95826A",
"'  c #9C856D",
"]  c #998F78",
"[  c #998973",
"{  c #A0886E",
"}  c #A3816B",
"|  c #A58C72",
" . c #AB8C73",
".. c #B98579",
"X. c #AB9176",
"o. c #A5937A",
"O. c #AC9378",
"+. c #B1977B",
"@. c #B49A7E",
"#. c #BA937B",
"$. c #55DC81",
"%. c #57E585",
"&. c #58E786",
"*. c #57EA87",
"=. c #5BE887",
"-. c #58EF89",
";. c #58F089",
":. c #54FC8D",
">. c #59FD8F",
",. c #9E9085",
"<. c #A29A86",
"1. c #A29C89",
"2. c #B79D80",
"3. c #B99E82",
"4. c #BCA083",
"5. c #B4A88A",
"6. c #A9A290",
"7. c #CF8E86",
"8. c #D49C8B",
"9. c #C1A587",
"0. c #C3A789",
"q. c #C5AA8B",
"w. c #CBAD8D",
"e. c #C9A185",
"r. c #CDB091",
"t. c #D3B494",
"y. c #D8B796",
"u. c #D3B897",
"i. c #D9B997",
"p. c #D5BA9A",
"a. c #DABA98",
"s. c #E1BF9D",
"d. c #EBBD9D",
"f. c #F4BA9C",
"g. c #DCC19F",
"h. c #E4C29E",
"j. c #DFC7A3",
"k. c #D1CAA6",
"l. c #E5C4A0",
"z. c #EBC5A2",
"x. c #E4CAA5",
"c. c #EFCBA6",
"v. c #E7CEA8",
"b. c #EBCFA9",
"n. c #F0CCA6",
"m. c #F3CEA9",
"M. c #FBCAA7",
"N. c #EED5AF",
"B. c #F5D1AB",
"V. c #FAD5AE",
"C. c #F1CDB7",
"Z. c #FAD6B1",
"A. c #FBD9B5",
"S. c #FBDCBB",
"D. c #F2D1BD",
"F. c #EEE1B8",
"G. c #FFE1B7",
"H. c #FFE4BB",
"J. c #FFE9BE",
"K. c #F2D3C2",
"L. c #FBDFC1",
"P. c #FBE1C4",
"I. c #FFECC2",
"U. c #FCE3C8",
"Y. c #FFEDCE",
"T. c #FFF3C6",
"R. c #FFF5C9",
"E. c #FFFACC",
"W. c #FFEED4",
"Q. c #F5E1D2",
"!. c #FFF1D5",
"~. c #FFFFD3",
"^. c #FFF3DA",
"/. c #FFFFD9",
"(. c #FFFFE4",
/* pixels */
"%.%.%.%.%.%.%.%.%.%.%.%.%.%.%.%.%.%.%.%.%.%.%.%.%.%.*.&.) &.&.&.%.%.%.%.%.%.&.&.) &.&.&.%.%.%.%.%.%.",
"%.%.%.%.%.%.%.%.%.%.%.%.%.%.%.%.%.%.%.%.%.%.%.%.%.%.=.) =.*.=.) %.%.%.%.%.%.=.) =.*.*.) %.%.%.%.%.%.",
"%.%.%.%.-.-.-.-.-.-.-.-.-.-.-.*.*.*.-.-.-.-.-.-.-.*.-.*.;.;.;.;.-.-.-.-.-.*.*.;.;.;.;.;.-.-.*.%.%.%.",
"%.%.%.&.) ( / / / / / / / ( / / / / / / ( ( / / / / / / / / / / / / ( / / / / / / / / ) / / %.*.%.%.",
"%.%.-.$.w 0 e e r r r r e e e w e e r r r r e r r r r r e r r r e r r r e e e e e e e e r 7 R >.%.%.",
"%.%.-.Q ,.Q.K.K.K.K.K.K.K.K.K.K.K.A.K.K.K.K.K.K.K.K.K.K.A.K.K.K.K.K.K.K.K.K.K.D.C.m.M.h.z.7.E :.%.%.",
"%.%.-.Q 6.(.W.!.^.W.W.W.W.W.W.W.W.W.W.W.W.W.W.W.W.W.W.W.W.W.W.W.W.W.W.W.W.W.W.Y.U.J.A.V.M.8.R :.%.%.",
"%.%.-.! 1.^.U.U.U.Q.U.U.U.U.U.U.P.U.U.U.U.U.U.U.U.U.P.U.U.U.U.P.U.U.U.U.U.P.L.S.A.A.m.s.i...R :.%.%.",
"%.%.-.Q 1.^.U.U.P.P.P.P.P.P.P.P.L.L.L.L.P.P.L.P.P.P.L.L.L.P.P.L.L.L.L.L.L.L.S.S.V.B.h.t.w...R :.%.%.",
"%.%.-.Q <.!.P.P.P.P.L.H.S.S.S.S.L.L.L.S.L.S.S.S.S.S.S.S.L.S.S.L.L.S.L.S.P.W.H.V.V.h.t.q.4.Y R :.%.%.",
"%.%.-.Q 1.!.L.L.S.S.S.S.S.S.S.S.S.S.S.A.S.S.S.A.S.S.S.S.A.S.S.S.S.S.A.U.I.p.A.H.h.h.r.9.@.U R :.%.%.",
"%.%.-.Q ,.W.L.L.S.S.S.S.A.A.A.A.A.A.A.A.A.Z.A.A.A.A.A.A.A.A.C.A.Z.Z.I.T.i   6 b.m.t.q.@.+.D R :.%.%.",
"%.%.-.W ,.!.H.S.S.S.A.A.A.Z.Z.Z.N.Z.Z.Z.A.Z.Z.A.Z.A.A.Z.Z.Z.Z.A.V.J.T.i   X   j G.r.9.@.X.B R :.%.%.",
"%.%.-.W <.!.S.S.S.A.A.Z.Z.Z.Z.Z.Z.Z.Z.Z.Z.V.V.Z.V.V.V.A.Z.Z.Z.V.J.T.u   #   o 4.B.r.@.+.X.S R >.%.%.",
"%.%.-.W <.Y.S.S.A.A.C.Z.Z.V.Z.V.V.V.Z.V.V.V.V.V.V.V.V.V.V.V.B.J.I.y   #   @ r.G.i.w.9.+.| B R :.%.%.",
"%.%.-.W <.Y.S.S.A.A.A.Z.Z.V.V.V.Z.V.V.V.A.V.V.V.V.V.V.V.V.B.J.I.y   #   # u.J.h.a.r.@.X.X.B R :.%.%.",
"%.%.-.W <.Y.S.S.A.Z.A.Z.V.V.V.V.V.V.V.V.V.V.V.V.A.G.V.V.V.J.J.q   #   # a.R.c.h.i.w.4.O.| B R :.%.%.",
"%.%.-.W <.!.S.S.A.A.A.V.A.V.V.V.V.V.V.V.V.V.V.A.V.V.H.B.J.J.9   #   $ g.R.B.m.h.i.w.4.O.X.S R >.%.%.",
"%.%.;.W <.Y.S.S.S.Z.V.A.V.V.A.V.V.V.V.Z.V.V.A.T.y - b.~.H.5   #   % l.R.B.m.c.h.a.w.4.O.| B R :.%.%.",
"%.%.;.W <.Y.S.S.S.A.A.V.A.V.V.V.V.V.V.V.V.B.R.9.    1 k.q   #   & l.R.V.V.B.n.h.a.w.4.O.X.B R :.%.%.",
"%.%.-.W <.Y.S.S.A.Z.A.Z.V.V.V.V.V.V.V.V.V.H.A.>   .   O . #   * x.T.V.V.V.m.c.l.a.w.4.O.| S R :.%.%.",
"%.%.;.W <.Y.S.S.S.Z.Z.Z.Z.V.V.V.Z.V.A.J.E.~.m   o - . X # X , v.T.V.V.V.V.m.c.l.a.w.4.O. .B R :.%.%.",
"%.%.-.W 1.Y.S.S.S.A.Z.Z.Z.V.V.V.H.R.G.t.[ f o   4 F.s   X . y./.B.V.Z.V.V.m.n.l.a.w.4.O.X.S R :.%.%.",
"%.%.-.W ,.Y.S.S.A.A.A.Z.V.B.A.T.B.P 1 o     o   +.(.J.i   . 1 b.J.V.V.V.V.m.n.l.a.w.4.O.| B R :.%.%.",
"%.%.-.W <.Y.S.S.S.Z.Z.Z.V.A.T.X.=       o # . X > a.(.T.< .   % x.G.V.V.V.B.n.l.a.w.4.O.| A R :.%.%.",
"%.%.-.W <.W.S.S.S.Z.A.Z.A.T.F       < V r.x.3     : 5.h $     , x.G.V.V.V.B.n.h.i.w.4.O.| B R :.%.%.",
"%.%.;.W <.Y.S.S.A.A.A.V.T.2.    $ | G.E.I.R.G.1   X .     @ ` H.G.V.V.V.V.B.v.h.a.r.4.O.X.B R :.%.%.",
"%.%.-.W <.Y.S.S.A.A.Z.S.H.>   # a.~.G.J.H.B.J.G.2   o . 5 j.E.A.V.V.Z.V.V.m.c.h.i.w.4.O.| A R :.%.%.",
"%.%.-.W <.Y.S.S.S.A.Z.Y.2.    z ~.I.R.4.' A.V.R.V.*   4 R.T.B.V.V.V.V.V.V.m.c.l.a.r.4.X.X.A R :.%.%.",
"%.%.-.W <.W.S.S.A.A.Z.R.h   # V.~.p.4 . ` H.V.H.c.%   G E.V.V.V.V.V.V.Z.V.B.m.h.a.w.4.O.| A R :.%.%.",
"%.%.;.W <.Y.S.S.A.A.H.A.,   u b.p     q.R.V.V.E.|     2.T.V.V.V.V.V.V.V.V.m.c.h.i.r.4.O.X.A R :.%.%.",
"%.%.;.W <.Y.S.S.A.Z.I.i.+ . < #   1 N.E.V.V.A.I.4   = m.G.V.V.V.V.V.V.V.V.B.m.l.i.w.4.X.| A R :.%.%.",
"%.%.;.W <.Y.S.S.S.A.R.o.  $     p H.T.V.V.V.E.w.    h R.V.V.V.V.V.V.V.V.V.B.n.h.i.w.9.O. .Z T :.%.%.",
"%.%.-.W <.Y.S.S.A.A.E.j   .   ` E.H.B.V.G.E.N.:   X a.J.V.V.V.V.V.V.Z.V.B.B.n.h.a.w.@.O. .B R :.%.%.",
"%.%.-.W <.Y.S.S.S.S.J.q   # 3.~.H.H.R.T.V.o.-     V R.V.V.V.V.V.V.V.V.V.V.B.n.h.a.w.4.O.X.B R :.%.%.",
"%.%.;.W <.Y.S.S.A.S.A.1   j (.J.B.y.' i -       q G.G.V.V.V.V.V.V.V.V.V.V.B.n.h.a.w.4.O. .B R :.%.%.",
"%.%.-.W <.W.S.A.S.H.m.*   4 x 6 : o         & L H.G.B.B.B.B.B.B.B.V.B.B.B.n.h.h.y.w.@.X. .Z T >.%.%.",
"%.%.;.W <.Y.S.A.Z.J.t.o             X = 8 ' z.J.V.c.n.n.n.n.n.n.n.n.n.n.B.h.h.s.t.w.@.X.{ B R :.%.%.",
"%.%.-.W <.Y.Z.A.V.H.0.+ # $ > u j V +.h.A.G.B.l.h.h.h.h.h.h.h.h.h.h.h.h.h.h.a.t.w.4.+.{ ' B R :.%.%.",
"%.%.-.W o.I.Z.B.c.z.i.4.w.t.i.m.V.V.m.h.g.a.a.i.a.a.g.a.a.a.h.a.a.a.g.a.g.t.t.q.9.@.X.' ' B R :.%.%.",
"&.&.;.W <.H.B.z.h.y.i.h.a.a.y.r.w.w.w.w.w.w.w.w.w.w.w.w.w.w.w.w.w.w.w.w.w.q.9.4.@.O.{ _ _ N R :.%.%.",
"&.&.;.W o.Z.l.i.t.q.0.4.4.2.2.@.@.@.2.2.2.@.@.@.2.2.@.2.@.2.2.2.2.2.@.@.@.@.+.X.X.' _ C L b R :.%.%.",
"%.%.-.! ] M.t.q.4.+.O.X.| | | | | | [ | | | | | | | | { | | | | | | | | | | ' ' _ L C V C a R :.%.%.",
"%.%.-.~ [ d.0.2.O.| [ _ L L L L L L L J L L L L L L L L L L L L L L L L L H J G C V j j m v R :.%.%.",
"%.%.-.! [ f.e.#.| Y I L K Z K Z Z Z Z Z Z Z Z G Z Z Z Z H G Z Z Z Z Z Z Z Z M M M M n j M v E :.%.%.",
"%.%.*.$.l J c x g g g d d d d d d d d d d d d d d d d d d r d d d d d d d d d d d r p d d y R >.%.%.",
"%.%.%.&./ ~ ^ ( / / $.( $./ / ) $.( ( $.$./ $.( ( $./ / ( $.$.$.$./ / / $./ / / / ) / $.) / %.&.%.%.",
"%.%.%.%.-.;.;.;.;.;.;.*.*.-.-.-.-.-.-.-.-.*.-.-.-.-.-.-.-.*.*.;.*.;.;.;.-.;.;.-.-.-.-.-.-.-.*.%.%.%.",
"%.%.%.%.%.%.%.%.%.%.%.%.%.%.%.%.%.%.%.%.%.%.%.%.%.%.%.%.%.%.%.%.%.%.%.%.%.%.%.%.%.%.%.%.%.%.%.%.%.%.",
"%.%.%.%.%.%.%.%.%.%.%.%.%.%.%.%.%.%.%.%.%.%.%.%.%.%.%.%.%.%.%.%.%.%.%.%.%.%.%.%.%.%.%.%.%.%.%.%.%.%."
};
