/* XPM */
static const char *clearSegmentDisabled_xpm[] = {
/* columns rows colors chars-per-pixel */
"50 50 52 1 ",
"  c #3F3B3B",
". c gray31",
"X c #524E4E",
"o c #585959",
"O c #645D5D",
"+ c #6A6565",
"@ c #696B6B",
"# c #736E6E",
"$ c #6F7070",
"% c #757575",
"& c #7B7676",
"* c #7F7E7E",
"= c #817E7E",
"- c #848484",
"; c #888787",
": c #8B8B8B",
"> c #908F8F",
", c #949494",
"< c #9D9595",
"1 c #9C9D9D",
"2 c #97A7A7",
"3 c #9EA0A0",
"4 c #99A9A9",
"5 c #A4A4A4",
"6 c #ABABAB",
"7 c #B4B4B4",
"8 c #B8B7B7",
"9 c #BABABA",
"0 c #BFC0C0",
"q c #BEDBDB",
"w c #C5C5C5",
"e c #CECECE",
"r c #D0CDCD",
"t c #C1DEDE",
"y c #D4D4D4",
"u c #D9D7D7",
"i c #D7D8D8",
"p c #DADADA",
"a c #C9E6E6",
"s c #CEECEC",
"d c #D6F3F3",
"f c #DEFDFD",
"g c #E3E3E3",
"h c #E8E4E4",
"j c #E9E9E9",
"k c #F1EFEF",
"l c #E0FFFF",
"z c #EAFFFF",
"x c #F4F3F3",
"c c #F9F7F7",
"v c #F6FFFF",
"b c #FCFFFF",
/* pixels */
"llllllllllllllflllllllllllllllllllllllllllllllllll",
"llllllllffllllllllllfflllllflllllllllllfllllllllll",
"llflzzzzzzzzzzzzzzzzzzzzzzzzzzzzzzzzzzzzzzzzzzzfll",
"llllssssssssssssasssssssssssssssasssssssssssssdlll",
"llzdo.ooooooooooooooooooooooooooooooooooooooo 2vll",
"lfzq,hupipiiiippuuuuuuuiuuuiuuuyipiiiiiiuyyer<2vll",
"llzq5bxxxxxxxxxxxxxxxxxxxxxxxxxxxxxxxxxxxjjhg52vll",
"llzq5cjjjjjjjhjjhjjjjjjjjhjjjjjhhjjjjhjjgggyw:2vll",
"llzq3chhjhjgghggggjgggjhghgjggjggjgggjjgguy97=2vll",
"llzq3xhghggggggggggggggggggggggggggggjgpuyw76&2vll",
"llzq3kgggggpgppppgpgpgpppgpggppgppgggepgiw865#2vll",
"lfzq3xgggpgpgpppppppppppppppppppppgg7-5py9651#2vll",
"llzq1xgggpgppppppppppppppppppppppph6-:*6i9611@2vll",
"llzq3xgggpppppiippppppipipiipppigg6->::we8611#2vll",
"llzq3xgggpppiipppiipppuupiipipipg5-:::eiw9611#2vll",
"llzq3xggpgpppppippippppuuipippgg6->:,egew961<#2vll",
"llzq1xggggppuuiiipipppipppppppg5->:>ygiew9611#2vll",
"llzq1xggpppppuuppiiiipiupppigg5-:;>ehppew9611#2vll",
"llzq3xgggppppppipipipppg6,ijg5->;,ygpiiew8611@2vll",
"llzq1xggggppppipipipppgw;-1i5->:,igippeew9611#2vll",
"llzq3xggpgppiipiuuppppp1:::>:,:,igipuuiew9611#2vll",
"llzq1xgggpppppipuuugjj7->,::>:1igppiuiiew8611#2vll",
"llzq1xgggppppippggpe96>-3g6-::ejppppupyew8611#4vll",
"llzq1xgggguppipjp73>;-::0xg6::1ipippppiew961,#2vll",
"llzq1xgggpppppg0,---:>::1exg3:-,ipupppyew8611#2vll",
"llzq3xgggppppg7---17ei3;:,w6>:-1egppppiew9611#2vll",
"llzq1xgggpppg0-;>9pjggp1-:::->9pppuipiiew9611#2vll",
"llzq3xggggppg1->ejpggpgp3:>:5ijppuupipyew861<#2vll",
"llzq3xgggppgw:-7jggw9ppgp,-5ggppipiiuuiew861,#2vll",
"llzq1xgggpph6-:pji5:9ppgi,*7jppppiipuiyew9611#2vll",
"llzq3xggpggp1-6i6-;wgppg9-:wgpipipppupiew9611#2vll",
"llzt3xgggpge::1>%1pjpppg5-,puipipippppiew9611#2vll",
"llzq1xhggph9:,;*6ggipijw:-7gppppiipippiew8611#2vll",
"llzq3xgggph7;::9ggpppgu,-:egppipipippuiew9611@2vlf",
"llzq3xggggg6-,wjgpggp01--7gpppuuuupiuuiew9611#2vll",
"llzq1kgggpu1*6xgpe961---5gpppuuupuuiuiyew8611#2vll",
"llzq1xggggp,;375,>---;,8gpipiiiupppppiiew861<#2vll",
"llzq3kgggge>::*---:159iguiipiiiiipppiiyew8611@2vll",
"llzq3xggpgw>,,15770epuiyeieieyyyeeieeeee97511#2vll",
"llzq3kgppie0wwweeieewwwwwwwwwwwwwwwwwww99651,#2vll",
"llzq1xgpyww09999988988888988888988898887653,1#4vll",
"llzq1juew765655655555555555555555555555311,>>@2vll",
"llzq1je96511,,,,,,,,,,,,,,,,,,,,,,,,,,,,>:::>@2vll",
"llzt1p961,::::::::::::::::::::::::;::::;;;:-:+2vll",
"llzt>e61:;-*****=***********=*******=***====;O2vll",
"llzs%-*%$@@@@@@@@@@@@@@@@@@@@@@@@@@@@@@@@@@@@X4vll",
"llllstaasssssssssssssssssssssssssssssssssssssaflll",
"llllzzzzzzzzzzzzzzzzzzzzzzzzzzzzzzzzzzzzzzzzzzzlll",
"llllllllllllllllllllllllllllllllflllllllllllllllll",
"llllllllllllllllllllllllllllllllllllllllflllllllll"
};
