/* XPM */
static const char *copySegmentNormal_xpm[] = {
/* columns rows colors chars-per-pixel */
"50 50 166 2 ",
"   c #000001",
".  c #030609",
"X  c #090708",
"o  c #05080A",
"O  c #151312",
"+  c #191817",
"@  c #1D1C1B",
"#  c #201E1C",
"$  c #26211E",
"%  c #262321",
"&  c #2A2623",
"*  c #332E28",
"=  c #3E3831",
"-  c #463D35",
";  c #403A38",
":  c #493D35",
">  c #494137",
",  c #4B4239",
"<  c #51473D",
"1  c #53493E",
"2  c #664F3B",
"3  c #664A33",
"4  c #69513D",
"5  c #564C41",
"6  c #5B4F43",
"7  c #504F4D",
"8  c #5C5044",
"9  c #595957",
"0  c #585958",
"q  c #605447",
"w  c #6E5640",
"e  c #615549",
"r  c #66594B",
"t  c #6A5C4E",
"y  c #755B45",
"u  c #6A5D50",
"i  c #7D634B",
"p  c #6D655B",
"a  c #7F6750",
"s  c #72695E",
"d  c #7E6C59",
"f  c #736555",
"g  c #746B60",
"h  c #786E62",
"j  c #7E7366",
"k  c #78736B",
"l  c #81654D",
"z  c #846B53",
"x  c #896E55",
"c  c #816F5A",
"v  c #887056",
"b  c #85735D",
"n  c #8B735A",
"m  c #907359",
"M  c #93795E",
"N  c #897560",
"B  c #8E7963",
"V  c #84786A",
"C  c #8D7C6A",
"Z  c #927D66",
"A  c #9A7D62",
"S  c #917D68",
"D  c #968067",
"F  c #96816A",
"G  c #9A846D",
"H  c #968471",
"J  c #9D8770",
"K  c #9F8D74",
"L  c #9A8B7A",
"P  c #9F947C",
"I  c #A68567",
"U  c #A4876A",
"Y  c #AD8768",
"T  c #A0886E",
"R  c #A58C72",
"E  c #A88F74",
"W  c #A38F7B",
"Q  c #AA9177",
"!  c #AC9378",
"~  c #BD9776",
"^  c #B1977B",
"/  c #B59A7E",
"(  c #B19273",
")  c #C09F7D",
"_  c #9C9084",
"`  c #AA9986",
"'  c #A99C8C",
"]  c #A69582",
"[  c #B79D80",
"{  c #B99E81",
"}  c #AA9E90",
"|  c #94A19F",
" . c #BCA083",
".. c #B7A288",
"X. c #B0A496",
"o. c #97A6A5",
"O. c #98A6A5",
"+. c #9AA8A7",
"@. c #99AAA9",
"#. c #C2A687",
"$. c #C2A789",
"%. c #C7AA8B",
"&. c #CBAD8E",
"*. c #CFB190",
"=. c #CFB998",
"-. c #D3B494",
";. c #D5B997",
":. c #D9B997",
">. c #D3B798",
",. c #DBBB99",
"<. c #E2B68C",
"1. c #E2BF9C",
"2. c #E1BB94",
"3. c #DFC09D",
"4. c #E3C19D",
"5. c #D1C2A1",
"6. c #DCC6A5",
"7. c #E6C4A0",
"8. c #E9C6A2",
"9. c #E6C9A5",
"0. c #EDCAA4",
"q. c #E8C9AC",
"w. c #F1CCA5",
"e. c #F2CEA8",
"r. c #F4D1AC",
"t. c #FAD5AE",
"y. c #E9CEB3",
"u. c #E9D1BB",
"i. c #F3D6B7",
"p. c #FAD7B1",
"a. c #F7DCB4",
"s. c #FCDAB4",
"d. c #F5D7B8",
"f. c #FBDCBB",
"g. c #FFE0B6",
"h. c #FFE4BA",
"j. c #FFE9BF",
"k. c #B7D9DE",
"l. c #BADCE2",
"z. c #BEE1E7",
"x. c #BFE2E8",
"c. c #EBDEC2",
"v. c #FBDFC1",
"b. c #FCE1C4",
"n. c #FFEBC4",
"m. c #FCE3C8",
"M. c #FFECCB",
"N. c #FFF3C6",
"B. c #FFF2CB",
"V. c #FFFACC",
"C. c #FFEED4",
"Z. c #FFF3D1",
"A. c #FFFFD4",
"S. c #FFFFDE",
"D. c #C0E3E8",
"F. c #C6E8ED",
"G. c #CDECED",
"H. c #CEEFF2",
"J. c #CFF0F3",
"K. c #D5F3F4",
"L. c #DEFDFD",
"P. c #FFFFE1",
"I. c #E0FFFF",
"U. c #EAFFFF",
"Y. c #F5FFFF",
"T. c #FCFFFF",
/* pixels */
"I.I.I.I.I.I.I.I.I.I.I.I.I.I.I.I.I.I.I.I.I.I.I.I.I.I.I.I.I.I.I.I.I.I.I.I.I.I.I.I.I.I.I.I.I.I.I.I.I.I.",
"I.I.I.I.I.I.I.I.I.I.I.I.I.I.I.I.I.I.I.I.I.I.I.I.I.I.I.I.I.I.I.I.I.I.I.I.I.I.I.I.I.I.I.I.I.I.I.I.I.I.",
"I.I.L.I.U.U.U.U.U.U.U.U.U.U.U.U.U.U.U.U.Y.U.U.U.U.U.U.U.U.U.U.U.U.U.U.I.U.U.U.U.U.U.U.U.U.U.I.L.I.I.",
"I.I.I.I.K.G.G.G.G.G.G.F.G.G.G.G.G.G.G.G.G.G.F.F.F.G.G.G.G.G.G.G.G.G.G.G.G.G.G.G.G.G.G.G.G.G.I.I.I.I.",
"I.I.U.K.0 7 9 9 0 0 0 0 0 0 9 9 9 9 0 0 0 0 0 0 0 0 0 0 9 0 0 0 9 9 9 9 0 0 0 9 9 9 9 9 9 ; o.Y.I.I.",
"I.I.U.l._ c.u.u.c.c.u.u.u.u.u.u.u.u.c.c.u.u.u.c.u.y.c.c.y.u.u.u.u.u.u.u.u.u.u.y.y.q.8.4.2.Y | Y.I.I.",
"I.I.U.k.X.P.Z.C.C.C.C.C.C.C.C.C.C.C.C.C.m.C.C.C.m.C.C.C.C.C.C.C.C.C.C.C.C.C.M.M.m.j.s.t.e.) O.Y.I.I.",
"I.I.U.l.} C.m.m.m.m.m.m.m.m.m.m.v.v.v.m.m.m.m.m.m.m.m.m.m.m.v.v.m.m.m.m.m.m.b.v.f.t.e.1.,.I O.Y.I.I.",
"I.I.U.l.} Z.m.m.v.m.v.m.b.b.b.b.v.b.b.v.b.M.M.M.m.C.M.M.M.C.M.M.M.m.b.v.v.v.f.s.p.e.4.-.&.M O.Y.I.I.",
"I.I.U.l.} B.v.m.v.v.v.v.f.f.f.f.f.f.f.b.Z.b.i.d.u.v.i.i.i.d.i.i.d.B.M.f.f.f.s.t.t.7.:.%.#.m o.Y.I.I.",
"I.I.U.l.' M.v.b.v.f.f.f.f.f.s.f.f.f.f.M.W & + @ @ # # # # @ % & # t h.B.f.d.s.t.0.2.*. ./ x O.Y.I.I.",
"I.I.U.k.' M.f.v.f.f.f.s.s.s.d.d.d.p.N...      . . .   .   .   .     ; f.n.p.t.e.7.:.%.{ ( l O.Y.I.I.",
"I.I.U.l.' M.f.f.f.s.s.s.p.p.p.p.p.s.N.t   e 5.>.*.=.-.-.>.6.8   5 $   - f.j.e.0.1.-.#.^ Q l O.Y.I.I.",
"I.I.U.l.' n.f.f.f.s.d.p.p.p.p.p.t.s.h.5   Q S.j.n.j.n.j.n.A.f   ^ 6.X   : a.a.8.,.*. .! E l O.Y.I.I.",
"I.I.U.l.' M.f.f.d.s.p.p.p.j.N.N.N.V.A.r   G N.t.t.t.t.t.p.n.u   J T.9.$   t s.0.,.*. .! E i O.Y.I.I.",
"I.I.U.l.' n.f.f.f.s.p.p.n.,.F G G J K =   G N.t.t.t.t.t.p.n.r   8 P ..8   # 8.e.,.*.{ ! R i O.Y.I.I.",
"I.I.U.l.' n.f.f.s.p.a.n.$.O           .   G N.t.t.t.t.t.t.N.d           . % 8.e.:.&. .! R i O.Y.I.I.",
"I.I.U.l.' n.f.f.f.s.f.f.*   * 5 < < 5 $   G N.t.t.t.t.t.t.h.9.t > < 5 > o % 8.e.,.&. .! E i O.Y.I.I.",
"I.I.U.l.' M.f.f.s.s.h.e.+   -.N.g.j.N.8   G N.t.t.t.t.t.t.t.g.n.g.g.N.4.o @ 8.e.,.&.{ ! E i o.Y.I.I.",
"I.I.U.l.' n.f.f.f.s.j.r.@ o 7.n.s.g.n.8   G N.t.t.t.t.t.t.t.t.p.g.g.j.4.o @ 8.e.,.&. .! E i o.Y.I.L.",
"I.I.U.l.' M.f.f.s.s.h.e.# . ,.h.p.s.j.1   G N.t.t.t.t.t.t.t.t.t.t.t.j.,.o @ 4.e.,.&. .! E i o.Y.I.I.",
"I.I.U.l.' n.f.f.d.s.h.r.# o ,.h.t.s.j.8   G N.t.t.t.t.t.t.t.t.t.t.t.h.,.o # 0.e.,.&.{ ! E i o.Y.I.I.",
"I.I.U.l.' n.f.s.d.s.h.r.@ . ,.j.t.t.h.8   G N.t.t.t.t.t.t.t.t.t.t.t.h.,.o @ 0.r.,.&. .! R i o.Y.I.I.",
"I.I.U.l.' M.f.f.f.s.b.r.@ . ,.h.t.s.h.2   G N.t.t.t.t.t.t.t.t.t.t.t.h.,.o @ 4.e.,.&. .! E i o.Y.I.I.",
"L.I.U.l.' n.f.f.s.s.h.r.@ o ,.h.t.s.h.8   F N.t.t.t.t.t.t.t.t.t.t.t.j.,.o @ 8.e.,.&. .! E i o.Y.I.I.",
"I.I.U.l.' n.f.f.d.s.h.r.@ o ,.j.t.s.h.8   G N.t.t.t.t.t.t.t.t.t.t.t.h.,.o @ 8.e.,.&. .! E i o.Y.I.I.",
"I.I.U.l.' n.v.d.s.s.h.r.@ . ,.h.t.s.h.8   G N.t.t.t.t.t.t.t.t.t.t.t.h.,.o @ 8.e.:.&. .! R i o.Y.I.I.",
"I.I.U.l.' M.f.f.f.d.h.r.@ o ,.h.t.s.h.8   G N.t.t.t.t.t.t.t.t.t.t.t.h.,.o @ 8.e.,.&.{ ! E i o.Y.I.I.",
"I.I.U.l.' n.f.f.d.s.h.r.@ o 3.h.t.t.h.2   G N.t.t.t.t.t.t.t.t.t.t.t.h.,.. @ 8.e.,.&. .! E i o.Y.I.I.",
"I.I.U.l.' n.f.f.s.s.h.r.@ . :.h.t.s.j.8   G N.t.t.t.t.p.t.t.t.t.t.t.j.,.. # 8.e.,.&. .! E i o.Y.I.I.",
"I.I.U.l.' n.v.f.s.s.g.r.@ o 3.g.t.s.h.1   R V.s.s.s.g.s.s.s.s.s.s.g.n.4.X @ 8.e.,.&. .! E i o.Y.I.I.",
"I.I.U.l.' M.f.d.d.a.j.r.@ o ,.h.t.g.j.8   D V.h.g.g.g.g.g.h.g.g.g.g.N.-.. + 8.e.,.&.{ ! R i o.Y.I.I.",
"I.I.U.l.' n.f.f.f.s.h.r.@ . ,.j.t.t.N.B   + < < < < < < < 5 < < < < 5 *   * t.0.,.*. .! R i o.Y.I.I.",
"I.I.U.l.' n.f.f.s.s.f.p.@ . ,.h.t.t.g.r.,                               O #.g.4.,.*. .! E i o.Y.I.I.",
"I.I.U.l.' M.f.f.d.s.f.r.# . ,.j.t.t.t.h.s.Q G G G G G W 8 o = W G G G G 4.j.r.4.,.&. .! R i o.Y.I.I.",
"I.I.U.l.' n.f.f.s.s.h.r.@ . ,.h.t.t.t.r.s.N.N.N.N.N.N.P.Q   r A.V.N.N.N.g.r.w.4.:.&. .! E i o.Y.I.I.",
"I.I.U.l.' n.f.s.s.s.h.e.@ . 0.N.h.h.g.h.g.h.h.h.h.g.h.A.R   8 h.t.r.r.r.r.w.4.4.;.%.) Q T l O.Y.I.I.",
"I.I.U.l.' n.f.s.a.p.s.w.+   S ;.%.%.%.%.%.%.%.%.%.%.&.=.8   t j.e.w.e.e.r.4.4.,.-.%./ Q R i O.Y.I.I.",
"I.I.U.l.' n.s.p.t.e.r.s.e     . . . . . . . . . . . .       ! s.4.4.4.8.4.4.,.-.&. .^ T G i O.Y.I.I.",
"I.I.U.l.` h.t.r.e.4.4.0.4.8 + + @ @ @ @ @ @ @ @ @ @ @ @ % B 0.,.,.,.,.,.,.:.*.&.#./ Q U G y O.Y.I.I.",
"I.I.U.l.` g.e.8.4.,.-.*.,.1.%.#.%.%.%.%.%.%.%.%.%.%.%.%.*.4.*.&.&.&.&.&.&.%.#. ./ Q K D D y +.Y.I.I.",
"I.I.U.l.! p.4.:.-.%.#. ./ #.#.#.#.#.#.#.#.$.#.#.#.#.#.#.#.{ / / / [ / [ / / ^ ! R J F B B 4 O.Y.I.I.",
"I.I.U.z.P w.-.%. ./ ^ E E R R R R T R R R R R T R R T R R R R R R R R T R T G G D Z N b n 4 O.Y.I.I.",
"I.I.U.z.L 2.%./ ! T G G Z Z Z Z Z Z Z Z Z Z Z Z Z B Z Z Z Z Z Z Z Z Z Z Z Z B B n b d d v 2 O.Y.I.I.",
"I.I.U.z.H <.) ( U A M n n n x v v v v v v v v v v v v v v v v v v v v v v x x z a a i i z 3 | Y.I.I.",
"I.I.U.H.k C V j h g s p f p p p p p p p p p p p p p p p p p p p p p p p p p p p p p p p p 1 @.Y.I.I.",
"I.I.I.I.H.z.F.F.H.H.H.H.H.H.H.H.H.H.H.H.J.H.H.H.H.H.J.J.H.H.H.H.H.H.J.J.J.H.H.J.J.J.H.J.H.G.L.I.I.I.",
"I.I.I.I.U.U.U.U.U.U.U.U.U.U.U.U.U.U.U.U.U.U.U.U.U.U.U.U.U.U.U.U.U.U.U.U.U.U.U.U.U.I.U.U.U.Y.I.I.I.I.",
"I.I.I.I.I.I.I.I.I.I.I.I.I.I.I.I.I.I.I.I.I.I.I.I.I.I.I.I.I.I.I.I.L.I.I.I.I.I.I.I.I.I.I.I.I.I.L.I.I.I.",
"I.I.I.I.I.I.I.I.I.I.I.I.I.I.I.I.I.I.I.I.I.I.I.I.I.I.I.I.I.I.I.I.I.I.I.I.I.I.I.I.I.I.I.I.I.I.I.I.I.I."
};
