/* XPM */
static const char *copySegmentMouseOver_xpm[] = {
/* columns rows colors chars-per-pixel */
"50 50 173 2 ",
"   c #000001",
".  c #030609",
"X  c #090708",
"o  c #05080A",
"O  c #151312",
"+  c #191817",
"@  c #1D1C1B",
"#  c #201E1C",
"$  c #26211E",
"%  c #262321",
"&  c #2A2623",
"*  c #332E28",
"=  c #3E3831",
"-  c #463D35",
";  c #493D35",
":  c #494137",
">  c #4B4239",
",  c #51473D",
"<  c #52493E",
"1  c #4F3D46",
"2  c #564C41",
"3  c #514F4F",
"4  c #5B4F43",
"5  c #5C5044",
"6  c #4E5B51",
"7  c #525752",
"8  c #525852",
"9  c #644B4C",
"0  c #605447",
"q  c #615549",
"w  c #66594B",
"e  c #6A5C4E",
"r  c #6A5D50",
"t  c #7E5450",
"y  c #666455",
"u  c #686656",
"i  c #6C6959",
"p  c #7E6C59",
"a  c #726959",
"s  c #6A715F",
"d  c #777260",
"f  c #7D7764",
"g  c #815652",
"h  c #885151",
"j  c #8A5E59",
"k  c #855A55",
"l  c #856756",
"z  c #816F5A",
"x  c #8C6C5A",
"c  c #8E615B",
"v  c #92655E",
"b  c #85735D",
"n  c #88755F",
"m  c #91715E",
"M  c #956760",
"N  c #966861",
"B  c #9A6B64",
"V  c #897560",
"C  c #8E7963",
"Z  c #8F7C6B",
"A  c #957561",
"S  c #927D66",
"D  c #917D68",
"F  c #9C7A66",
"G  c #A07169",
"H  c #A8776E",
"J  c #559668",
"K  c #539968",
"L  c #539466",
"P  c #37C46E",
"I  c #38C36C",
"U  c #39C671",
"Y  c #3DC974",
"T  c #44CF79",
"R  c #4BD47C",
"E  c #46D17A",
"W  c #51D97E",
"Q  c #968067",
"!  c #96816A",
"~  c #9A846D",
"^  c #9B8671",
"/  c #9F8D74",
"(  c #998F78",
")  c #938A74",
"_  c #9F967B",
"`  c #A0886E",
"'  c #A3816B",
"]  c #A58C72",
"[  c #AB8C73",
"{  c #A38F7B",
"}  c #B38075",
"|  c #BE8A7C",
" . c #AA9177",
".. c #AC9378",
"X. c #A0947C",
"o. c #B1977B",
"O. c #B59A7E",
"+. c #BA937B",
"@. c #55DC81",
"#. c #57E585",
"$. c #58E786",
"%. c #57EA87",
"&. c #5BE887",
"*. c #58EF89",
"=. c #58F089",
"-. c #54FC8D",
";. c #59FD8F",
":. c #9E9085",
">. c #A29A86",
",. c #A29C89",
"<. c #B79D80",
"1. c #B99E81",
"2. c #BCA083",
"3. c #B7A288",
"4. c #A9A290",
"5. c #CF8E86",
"6. c #D49C8B",
"7. c #C2A687",
"8. c #C2A789",
"9. c #C7AA8B",
"0. c #CBAD8E",
"q. c #C9A185",
"w. c #CFB190",
"e. c #CFB998",
"r. c #D3B494",
"t. c #D5B997",
"y. c #D9B997",
"u. c #D3B798",
"i. c #DBBB99",
"p. c #E1BF9C",
"a. c #EBBD9D",
"s. c #F4BA9C",
"d. c #DFC09D",
"f. c #E2C19E",
"g. c #DCC6A5",
"h. c #D1C2A1",
"j. c #E6C4A0",
"k. c #EAC6A2",
"l. c #E6C9A5",
"z. c #EDCAA4",
"x. c #F1CCA6",
"c. c #FBCAA7",
"v. c #F2CEA8",
"b. c #F4D1AC",
"n. c #FAD5AE",
"m. c #F1CEB9",
"M. c #F1CBB4",
"N. c #F3D6B7",
"B. c #FAD7B1",
"V. c #F7DCB4",
"C. c #FCDAB4",
"Z. c #F5D6B9",
"A. c #FBDCBB",
"S. c #FFE0B7",
"D. c #FFE4BA",
"F. c #FFE9BF",
"G. c #F2D3C2",
"H. c #FBDFC1",
"J. c #FCE1C4",
"K. c #FFEBC1",
"L. c #FCE3C8",
"P. c #FFECCD",
"I. c #FFF3C6",
"U. c #FFF2CB",
"Y. c #FFFACC",
"T. c #FFEED4",
"R. c #F5E1D2",
"E. c #FFF3D3",
"W. c #FFFFD4",
"Q. c #FFF3DA",
"!. c #FFFFDC",
"~. c #FFFFE4",
"^. c #FFFFFE",
/* pixels */
"#.#.#.#.#.#.#.#.#.#.#.#.#.#.#.#.#.#.#.#.#.#.#.#.#.#.&.#.#.#.#.#.#.#.#.#.#.#.#.#.#.#.#.#.$.#.#.#.#.#.",
"#.#.#.#.#.#.#.#.#.#.#.#.#.#.#.#.#.#.#.#.#.#.#.#.#.#.&.W #.#.#.#.#.#.#.#.#.#.#.#.#.#.#.#.$.$.#.#.#.#.",
"#.#.#.#.*.*.*.*.%.*.*.*.*.*.*.*.%.%.*.*.*.*.=.%.*.*.*.%.*.*.=.=.%.*.*.*.*.%.*.*.*.%.*.*.*.=.%.#.#.#.",
"#.#.#.$.W E R R R R R R R R E R R R R R E R R R R R R R R R E R R R R E R R R R R R R R R R @.$.#.#.",
"#.#.%.@.6 3 7 7 8 8 8 8 8 8 8 8 7 7 8 8 8 8 7 7 7 7 7 7 7 7 7 7 8 8 8 8 8 7 8 7 7 7 7 7 7 1 K -.#.#.",
"#.#.=.P :.R.G.G.G.G.G.G.G.G.G.G.G.Z.G.Z.G.G.G.G.G.G.G.G.Z.Z.G.G.G.Z.G.G.G.G.G.m.m.v.c.k.a.5.L -.#.#.",
"#.#.*.I 4.~.T.E.Q.T.T.T.T.T.T.T.T.T.T.T.T.T.T.T.T.T.T.T.T.T.T.T.T.T.T.T.T.T.P.P.L.F.C.n.v.6.K -.#.#.",
"#.#.*.U ,.Q.L.L.L.R.L.L.L.L.L.L.L.L.L.L.L.L.L.L.L.L.L.L.L.L.L.L.L.L.L.L.L.L.L.A.A.n.v.p.y.| K -.#.#.",
"#.#.%.P ,.Q.J.L.H.L.H.L.H.H.J.H.H.H.L.H.H.P.P.P.P.P.T.P.P.P.P.P.P.L.A.J.J.A.A.A.n.b.f.r.9.} K -.#.#.",
"#.#.=.P ,.E.H.J.J.H.H.H.A.A.H.A.A.A.A.D.U.J.Z.Z.Z.N.Z.Z.N.N.N.N.Z.E.P.A.A.A.C.B.n.f.y.0.7.H K -.#.#.",
"#.#.=.P ,.E.H.H.A.A.A.A.A.A.A.A.A.A.A.P.{ & @ @ # # # # # @ $ & @ r D.I.C.Z.B.n.z.p.w.O.O.G K -.#.#.",
"#.#.*.P >.T.A.J.A.A.A.Z.A.B.B.C.C.B.U.3.            .       . .     - A.I.B.n.v.f.y.9.O.o.B K -.#.#.",
"#.#.*.P >.T.A.A.A.A.Z.C.B.B.B.B.B.B.I.w   q h.u.w.e.u.u.u.g.5   4 $   - S.F.b.x.f.r.7.o...v K ;.#.#.",
"#.#.*.P >.P.A.A.A.C.A.B.B.B.B.B.B.A.F.2   ..!.K.K.F.F.F.K.W.a   ..g.X   : V.C.f.i.w.7.....v K ;.#.#.",
"#.#.*.P >.T.A.A.C.B.B.B.B.F.I.I.I.Y.W.w   ~ I.n.n.n.n.n.B.K.r   ^ ^.l.$   e S.f.y.w.O...] v K -.#.#.",
"#.#.*.P >.P.A.A.A.B.B.B.K.d.! ~ ~ ^ / =   ~ I.n.n.n.n.n.B.K.w   5 _ 3.5   # z.v.y.w.2... .v K -.#.#.",
"#.#.*.P >.P.A.A.A.C.B.K.9.O               ~ I.n.n.n.n.n.n.I.p           . & k.v.y.0.2. .] v K -.#.#.",
"#.#.*.P >.P.A.A.C.B.D.A.*   * 2 , < 2 %   ~ I.n.n.n.n.n.n.D.l.e : , 2 : . % j.v.i.w.2... .N K ;.#.#.",
"#.#.*.P >.P.A.A.A.B.D.v.+   t.I.S.F.I.5   ~ I.n.n.n.n.n.n.n.S.K.S.S.I.f.o @ k.v.y.0.2...] v K -.#.#.",
"#.#.*.P >.T.A.A.A.B.F.b.@ o f.K.C.D.K.5   ~ I.n.n.n.n.n.n.n.n.B.S.S.F.f.o @ k.v.i.0.2... .v K -.#.#.",
"#.#.*.P >.P.A.A.Z.B.D.N.# o i.D.n.C.F.< X ~ I.n.n.n.n.n.n.n.n.n.n.n.S.i.o @ f.v.i.0.2. .] N K -.#.#.",
"#.#.*.P >.P.H.A.C.C.D.v.@ o i.D.n.C.F.<   ~ I.n.n.n.n.n.n.n.n.n.n.n.F.i.o $ z.v.i.0.2...] N K -.#.#.",
"#.#.*.P >.P.A.A.A.B.D.v.@ o i.D.n.C.D.0   ~ I.n.n.n.n.n.n.n.n.n.n.n.D.i.o @ z.b.y.w.2... .v K -.#.#.",
"#.#.*.P >.T.A.A.B.A.A.B.@ o i.D.n.C.D.<   ~ I.n.n.n.n.n.n.n.n.n.n.n.F.i.o @ f.v.i.0.2. .] v K ;.#.#.",
"#.#.*.P >.T.A.A.C.C.D.b.@ o i.J.n.C.D.5   ! I.n.n.n.n.n.n.n.n.n.n.n.D.d.. @ z.v.i.0.2...] M K -.#.#.",
"#.#.=.P >.P.A.A.A.C.D.v.@ o i.D.n.C.D.5   ~ I.n.n.n.n.n.n.n.n.n.n.n.D.i.o @ f.v.i.0.2...] N K -.#.#.",
"#.#.*.P >.P.A.A.B.Z.D.v.# o i.D.n.C.D.5   ~ I.n.n.n.n.n.n.n.n.n.n.n.S.d.o @ f.v.i.0.2... .M K -.#.#.",
"#.#.*.P >.P.A.A.A.Z.D.B.@ . i.D.n.C.D.4   ~ I.n.n.n.n.n.n.n.n.n.n.n.F.i.o @ z.v.i.0.2...] M K -.#.#.",
"#.#.=.P >.T.A.A.A.B.D.b.@ . d.D.n.B.D.<   ~ I.n.n.n.n.n.n.n.n.n.n.n.F.i.o @ k.v.i.0.2...] N K -.#.#.",
"#.#.*.P >.P.A.A.V.C.D.b.@ X y.D.n.C.F.0   ~ I.n.n.n.n.n.n.n.n.n.n.n.D.i.o @ k.v.y.0.2...] M K -.#.#.",
"#.#.*.P >.P.A.A.C.C.D.b.@ X y.D.n.S.D.<   ] Y.S.S.C.C.C.S.C.C.C.C.C.F.f.o @ k.v.i.0.2... .M K -.#.#.",
"#.#.=.P >.P.A.A.V.V.D.b.@ . d.D.n.S.F.<   Q Y.S.S.S.S.S.S.S.S.S.S.D.I.r.. + j.v.i.0.2...] N K -.#.#.",
"#.#.*.P ,.P.A.A.A.B.J.v.@ o i.F.n.n.I.C   + < < , < , , < < < , , < 2 *   * n.z.i.w.2...] N K -.#.#.",
"#.#.*.P >.P.A.A.A.B.D.b.@ o i.D.n.n.C.b.>                               O 7.S.f.i.0.2...] v K -.#.#.",
"#.#.*.P >.P.A.A.C.B.D.b.@ o i.D.n.n.n.D.S. .! ~ ~ ~ ~ _ q . = / ~ ~ ! ~ f.F.v.f.i.0.2... .N K -.#.#.",
"#.#.=.P >.P.A.A.A.B.D.b.@ o i.D.n.n.n.n.C.I.I.I.I.I.I.~. .  w W.Y.I.I.I.S.v.x.f.i.0.2... .v K -.#.#.",
"#.#.=.U >.P.A.C.C.C.D.v.@ o k.Y.D.D.D.D.D.D.D.D.S.S.D.W.]   5 D.n.b.n.n.v.v.z.f.y.w.O...` m J ;.#.#.",
"#.#.%.P >.P.A.A.B.n.C.v.+   S u.9.8.8.9.9.9.8.8.9.9.0.e.5   e F.v.v.v.v.v.f.f.i.w.9.O. .` v K -.#.#.",
"#.#.*.P >.K.B.B.n.b.v.B.0     . . . . . . . . . . . .       ..C.f.f.f.f.f.f.i.r.0.7.o.` ` v K ;.#.#.",
"#.#.*.U >.K.B.b.z.k.f.z.f.5 + @ @ @ @ @ @ @ @ # @ # @ + & C z.i.i.i.i.i.i.y.w.0.7.o. .~ ~ c K -.#.#.",
"#.#.*.U >.D.v.k.f.i.r.w.i.f.9.9.8.9.9.9.9.9.9.9.9.9.9.8.w.f.w.9.0.0.0.0.9.9.8.1.O. .` ! Q j K -.#.#.",
"#.#.*.U { C.f.y.w.0.7.2.O.2.7.7.7.7.7.8.7.7.7.7.7.7.7.7.7.<.<.<.<.<.<.<.<.<.o...] ` S C S k K -.#.#.",
"#.#.*.Y ( c.r.9.2.O... .] ] ] ` ` ] / ] ] ] ] ` ] ] ] ` ] ] ] ] ] ` ] ` ] ` ^ ~ Q S n b n g K ;.#.#.",
"#.#.*.Y ) a.8.<...] ^ ! Q Q S Q S S S Z S S S S S S S S S S D C D D S S S S C V n b z p z t K -.#.#.",
"#.#.*.Y ) s.q.+.[ ' D A m m m m b m m m m n x A m m m m V A x A m m m m V m x V x l l l x h L -.#.#.",
"#.#.*.R s Z f d a i i y u u u u y y y y y u u 8 y y u y y y u y y y y y y y r y y r y u y 9 K ;.#.#.",
"#.#.#.&.@.U T T @.T E @.E @.R R E @.@.@.R @.@.@.E @.R R @.E @.R E @.R @.@.E E @.@.E R R W R W *.#.#.",
"#.#.#.#.*.*.*.*.*.*.*.=.=.=.%.=.*.*.%.%.%.%.*.*.=.=.=.%.=.%.%.*.%.*.*.%.=.=.=.*.=.=.*.*.*.=.*.#.#.#.",
"#.#.#.#.#.#.#.#.#.#.#.#.#.#.#.#.#.#.#.#.#.#.#.#.#.#.#.#.#.#.#.#.#.#.#.#.#.#.#.#.#.#.#.#.#.#.#.#.#.#.",
"#.#.#.#.#.#.#.#.#.#.#.#.#.#.#.#.#.#.#.#.#.#.#.#.#.#.#.#.#.#.#.#.#.#.#.#.#.#.#.#.#.#.#.#.#.#.#.#.#.#."
};
