/* XPM */
static const char *cutSegmentPressed_xpm[] = {
/* columns rows colors chars-per-pixel */
"50 50 135 2 ",
"   c #000001",
".  c #030608",
"X  c #0C0D0D",
"o  c #131414",
"O  c #1B1515",
"+  c #1E1C1B",
"@  c #231E1D",
"#  c #24211E",
"$  c #2B2522",
"%  c #2D2926",
"&  c #312B27",
"*  c #342E2A",
"=  c #37312D",
"-  c #39342F",
";  c #393433",
":  c #3E3833",
">  c #443D36",
",  c #4A3F39",
"<  c #543F31",
"1  c #49413A",
"2  c #484747",
"3  c #594E44",
"4  c #5E5047",
"5  c #5D534C",
"6  c #515251",
"7  c #585A5A",
"8  c #665445",
"9  c #6B5747",
"0  c #62564C",
"q  c #64594E",
"w  c #6B5D4F",
"e  c #665E55",
"r  c #6C5D51",
"t  c #6E6155",
"y  c #67635C",
"u  c #68635B",
"i  c #746356",
"p  c #796656",
"a  c #7A6957",
"s  c #776658",
"d  c #76695C",
"f  c #7D6C5A",
"g  c #656561",
"h  c #7D6F61",
"j  c #7F7263",
"k  c #76716B",
"l  c #79746E",
"z  c #856F5A",
"x  c #827464",
"c  c #877866",
"v  c #867768",
"b  c #867868",
"n  c #8B7C6B",
"m  c #8E806F",
"M  c #91816F",
"N  c #948372",
"B  c #998675",
"V  c #9B8A76",
"C  c #9E8E7A",
"Z  c #A18E7B",
"A  c #A3917E",
"S  c #9C8F81",
"D  c #9F9181",
"F  c #A39484",
"G  c #A99682",
"H  c #AF9C86",
"J  c #A29688",
"K  c #A6998A",
"L  c #AA9B8C",
"P  c #B19D87",
"I  c #B39F89",
"U  c #92A09F",
"Y  c #B4A08A",
"T  c #BBA68F",
"R  c #B4A493",
"E  c #BCA790",
"W  c #BAAA96",
"Q  c #B7A998",
"!  c #BCAB98",
"~  c #97A6A5",
"^  c #98A7A6",
"/  c #99AAAA",
"(  c #C5AE96",
")  c #C7B097",
"_  c #C7B29A",
"`  c #C8B199",
"'  c #D0B89F",
"]  c #C5B4A1",
"[  c #C8B6A3",
"{  c #CAB9A6",
"}  c #D6BDA3",
"|  c #D8BEA4",
" . c #D1BDA8",
".. c #DAC1A6",
"X. c #D5C1AC",
"o. c #DDC5AA",
"O. c #D2C8AC",
"+. c #DBC7B2",
"@. c #DDC9B4",
"#. c #DAD4B7",
"$. c #E1C7AB",
"%. c #E4CAAD",
"&. c #E3CCB4",
"*. c #EBCEB1",
"=. c #E5D3B6",
"-. c #EDD2B5",
";. c #E5D5BA",
":. c #EDD6BD",
">. c #EDDCBD",
",. c #F0D4B7",
"<. c #F3D7B9",
"1. c #F5DABC",
"2. c #FBDDBE",
"3. c #F6DDC2",
"4. c #FBDFC1",
"5. c #FCE1C4",
"6. c #FFE8C7",
"7. c #FFECCB",
"8. c #FFF1CF",
"9. c #FFEED0",
"0. c #FFF4D2",
"q. c #FFF9D6",
"w. c #FFFDDA",
"e. c #CAE9EC",
"r. c #CFEFF2",
"t. c #D0EFF2",
"y. c #D5F3F5",
"u. c #D8F6F6",
"i. c #DEFDFD",
"p. c #FFFFE2",
"a. c #FFFFEC",
"s. c #E0FFFF",
"d. c #EAFFFF",
"f. c #F5FFFF",
"g. c #F9FFFF",
/* pixels */
"s.s.s.s.s.s.s.s.s.s.s.s.s.s.s.s.s.s.s.s.s.s.s.s.s.s.s.s.s.s.s.s.s.s.s.s.s.s.s.s.s.s.s.s.s.s.s.s.s.s.",
"s.s.s.s.s.s.s.s.s.s.s.s.s.s.s.s.s.s.s.s.s.s.s.s.s.s.s.s.s.s.s.s.s.s.s.s.s.s.s.s.s.s.s.s.i.i.s.s.s.s.",
"s.s.i.s.d.d.d.d.d.d.d.d.d.d.d.d.d.d.d.d.d.d.d.d.d.d.d.d.d.d.d.d.d.d.d.d.d.d.d.d.d.d.d.d.d.d.d.i.s.s.",
"s.s.s.s.u.y.y.y.y.y.y.y.y.y.y.y.y.y.y.y.y.y.y.u.y.y.y.u.y.y.y.y.y.y.y.y.y.y.y.y.y.y.y.y.y.y.i.s.s.s.",
"s.s.d.y.7 2 6 6 6 6 6 6 6 6 6 6 6 6 6 6 6 6 6 6 6 6 6 6 6 6 6 6 6 6 6 6 6 6 6 6 6 6 6 6 6 : / g.s.s.",
"s.s.d.r.5 8 w r w w w w w w w w w w w w w w w w w w w w w w w w w w w w w w w w w w w q i < U g.s.s.",
"s.s.d.y.y s f h h j z x x x x x x c x x x x x c x x x x x x x x x x x x x x x x z j h x c 9 ~ f.s.s.",
"s.s.d.r.y s f h x c c n m n n n n n n n n n n n n n n M n n n n n n M n n n n n n c c c n w ~ g.s.s.",
"s.s.d.y.u a x x n N B V Z Z C C C Z Z Z C C Z C A Z Z Z Z Z C C Z Z C C C A C V B B N m B i ~ f.s.s.",
"s.s.d.r.u a x n B A H H Y Y Y Y Y Y Y Y Y Y Y Y Y Y Y Y Y Y Y Y Y Y Y Y Y Y Y Y H G Z V C s ~ f.s.s.",
"s.s.d.r.u a c M A I T ( ) ) ) ) ) ) ) ) ) ) ) ) ) ) ` ` ) ) ) ) ) ) ) ) ) ` ` ` ( E L F D i ~ f.s.s.",
"s.i.d.r.u a n M G T _ _ } | | | } } } } | } ....' ....' | | | | } | | ......o.o. ._ R K D d ~ f.s.s.",
"s.s.d.r.u f n B G ( ' ..$.%.%.%.%.%.%.%.%.%.%.%.%.%.%.%.%.%.%.%.%.%.%.%.%.-.-.-.o.{ W K F s ~ f.s.s.",
"s.s.d.r.u f n V H ( } $.*.-.,.,.,.<.2.6.2.,.,.,.,.,.<.<.,.,.,.,.,.,.,.,.<.2.1.<.&. .! H F s ~ f.s.s.",
"s.s.d.r.u f n V H ( } $.-.<.<.<.6.0.<.*.2.q.5.<.1.1.1.1.1.1.1.1.6.0.8.2.2.5.3.:.&. .! L F s ~ f.s.s.",
"s.s.d.r.u f n V H ) } $.-.<.1.0.>.a # X % M 7.7.2.2.2.2.2.2.1.8.6.Y ) 2.5.2.3.<.&. .! L F s ~ f.s.s.",
"s.s.d.r.u a n V P ( } $.-.<.7.>.=     .     q 9.6.2.2.4.2.2.q.1.1     A w.5.3.:.&. .! L F s ~ f.s.s.",
"s.s.d.r.u a n V H ( } %.-.2.q.i   o A O.v     Z w.2.4.2.2.w.>.*     , ;.7.5.4.:.&. .! L F s ~ f.s.s.",
"s.s.d.r.u z n V H ( } %.-.6.<.@   A a.w.p.i   1 7.5.2.2.w.>.%     3 0.8.2.4.3.:.&. .! L F s ~ f.s.s.",
"s.s.d.r.u f n V P ( } %.-.6.*.X   } w.2.a.A   : 5.6.2.w.;.$     3 0.0.2.4.5.3.<.&. .! L F s ~ f.s.s.",
"s.s.d.r.u a n V H ( } $.-.5.6.=   q q.p.1.;   v w.2.w.=.#     0 q.9.2.4.4.4.3.1.&. .! H F s ~ f.s.s.",
"s.s.d.r.u a n V H ( } %.-.2.q.G     1 j %     h w.p.&.@     q q.7.2.2.2.4.5.3.:.&. .! L F s ~ f.s.s.",
"s.s.d.r.u z n V P ) } $.,.<.2.0.n         .     B #.@     w w.8.2.2.4.4.4.5.3.:.&. .! L F s ~ f.s.s.",
"s.s.d.r.u a n B P ) } $.-.<.2.6.q.{ x t A T +   X O     s w.7.1.2.2.4.4.4.4.3.1.&. .! L F s ~ f.s.s.",
"s.i.d.r.u f n V P ( ' %.,.1.2.2.5.0.w.w.w.p.-.%   . . n p.6.2.4.2.4.2.2.4.5.3.:.&. .! L F s ~ f.s.s.",
"s.s.d.r.u f n V P ( } $.,.1.1.2.2.0.w.w.w.p.-.%   .   n p.7.1.4.2.4.2.5.2.5.4.:.&.} ! L F s ~ f.s.s.",
"s.s.d.r.u f n V P ( } %.,.1.2.6.q.} x t C R +   X O     t q.7.2.2.2.2.2.4.5.3.:.&. .! K F s ~ f.s.s.",
"s.s.d.t.u a n V P ( } %.-.<.2.0.n         .     V #.#     r w.7.2.2.4.2.4.5.3.<.&. .! K F s ~ f.s.s.",
"s.s.d.r.u f n V P ( ' $.,.1.q.G     1 j %     h p.w.@.@     q q.7.2.4.4.4.4.3.:.&. .! K F s ~ f.s.s.",
"s.s.d.t.u f n V H ( } %.-.5.6.-   q q.p.1.-   b w.4.w.=.@     0 q.7.2.2.4.4.3.:.&. .! L F s ~ f.s.s.",
"s.s.d.t.y z n V P ( } %.-.6.,.X   } p.2.a.F   : 6.6.2.w.-.#     4 q.9.2.4.4.3.3.&. .! L F s ~ f.s.s.",
"s.s.d.e.y a n V P ( } $.-.6.<.+   Z a.w.p.i   1 7.5.2.2.w.>.$     3 0.0.4.4.3.<.&.} ! L F s ~ f.s.s.",
"s.s.d.r.u f n V H ( | %.,.2.0.t   O F O.x     Z w.4.2.2.2.q.:.%     1 ;.7.3.3.:.&. .W L F s ~ f.s.s.",
"s.s.d.r.u f n V H ( ' %.-.<.8.1.=           0 7.6.2.4.2.4.2.w.1.>     G p.6.3.3.&. .! H F s ~ f.s.s.",
"s.s.d.r.u f n V H ( ' %.-.<.1.8.3.g + . & N 7.7.2.2.2.2.4.4.4.9.6.Y _ 5.5.3.3.@.&. .W L F s ~ f.s.s.",
"s.s.d.r.u f b V H ( ..%.,.2.4.2.9.q.3.3.5.w.6.4.2.4.4.4.4.4.4.3.6.q.0.5.3.3.3.3.&. .W L F s ~ f.s.s.",
"s.s.d.r.u f n V P ( | *.<.4.5.5.5.5.9.9.9.3.3.3.5.5.3.3.4.4.3.3.5.5.5.3.5.5.3.3.&. .! L F s ~ f.s.s.",
"s.s.d.r.u f n B P _ | *.2.5.5.5.3.3.5.5.3.3.3.3.4.5.3.3.6.3.3.3.5.4.3.3.5.5.3.3.&.} ! L F s ~ f.s.s.",
"s.s.d.r.u f n B H ( | *.:.3.1.3.3.3.3.3.3.3.3.3.3.3.3.3.3.3.3.3.3.3.3.3.3.3.3.;.+.{ W K F s ~ f.s.s.",
"s.s.d.t.u a n N F ( } &.=.3.;.;.@.3.@.3.3.3.3.3.3.;.;.3.3.3.3.@.3.;.3.&.3.3.@.@.X.[ R J F s ~ f.s.s.",
"s.s.d.t.u a v N G T [ X.+.@.@.@.&.@.@.@.@.@.@.@.@.@.@.@.@.@.@.@.@.@.@.@.@.@.@. .{ ( R J S s ~ f.s.s.",
"s.s.d.t.u a x N Z I ! ] { { { { { { { { { { { { { { { { { { { { { { { { { { { ] ! R L D S s ~ f.s.s.",
"s.s.d.r.u a x n C K R R Q Q Q Q Q Q Q W Q Q Q Q Q Q Q Q Q Q ! Q Q Q Q Q Q Q Q R R L J D S s ~ f.s.s.",
"s.s.d.r.y z v N S D K L L L L L L L L L L L L L L L L L L L L K L L L L L L L K K J D S S s ~ f.s.s.",
"s.s.d.e.e z n V Z D F F J J F F F F F F F F F F J J J J F F F F J J J J F F F F D F S C D p U g.s.s.",
"s.s.d.y.g u k l l l l l l l l l l l l l l l l l l l l l l l l l l l l l l l l l l l l k l 5 / g.s.s.",
"s.s.s.s.y.e.e.e.e.e.e.e.e.e.e.e.e.e.e.e.e.e.e.e.e.e.e.e.e.e.e.e.e.e.e.e.e.e.e.e.e.e.e.e.e.e.i.s.s.s.",
"s.s.s.s.d.d.d.d.d.d.d.d.d.d.d.d.d.d.d.d.d.d.d.d.d.d.d.d.d.d.d.d.d.d.d.d.d.d.d.d.d.d.d.d.d.d.d.i.s.s.",
"s.s.s.s.s.s.s.s.s.s.s.s.s.s.s.s.s.s.s.s.s.s.s.s.s.s.s.s.s.s.s.s.s.s.s.s.s.s.s.s.s.s.s.s.s.s.s.s.s.s.",
"s.s.s.s.s.s.s.s.s.s.s.s.s.s.s.s.s.s.s.s.s.s.s.s.s.s.s.s.s.s.s.s.s.s.s.s.s.s.s.s.s.s.s.s.s.s.s.s.s.s."
};
