/* XPM */
static const char *cutSegmentDisabled_xpm[] = {
/* columns rows colors chars-per-pixel */
"50 50 247 2 ",
"   c #3F3B3B",
".  c gray31",
"X  c #524E4E",
"o  c #585959",
"O  c #585A5A",
"+  c #5B5E5E",
"@  c #645D5D",
"#  c #6A6565",
"$  c #696B6B",
"%  c #6E6868",
"&  c #6A6C6C",
"*  c #6B6D6D",
"=  c #6D6F6F",
"-  c #706B6B",
";  c #726D6D",
":  c #736E6E",
">  c #746F6F",
",  c #6F7070",
"<  c #767171",
"1  c #737474",
"2  c #737676",
"3  c #7B7676",
"4  c #797B7B",
"5  c #7F7D7D",
"6  c #7E7E7E",
"7  c #7F7E7E",
"8  c #807E7E",
"9  c #817F7F",
"0  c #837E7E",
"q  c #808080",
"w  c #818181",
"e  c #828181",
"r  c gray51",
"t  c #838383",
"y  c #848484",
"u  c gray52",
"i  c #868585",
"p  c #878585",
"a  c #858686",
"s  c #868686",
"d  c #878686",
"f  c gray53",
"g  c #888787",
"h  c #888888",
"j  c #888989",
"k  c #898989",
"l  c gray54",
"z  c #8A8B8B",
"x  c #8B8B8B",
"c  c #8F8A8A",
"v  c #8B8C8C",
"b  c gray55",
"n  c #8D8D8D",
"m  c #8D8E8E",
"M  c #8E8E8E",
"N  c gray56",
"B  c #908F8F",
"V  c #909090",
"C  c gray57",
"Z  c #929292",
"A  c #939292",
"S  c #939393",
"D  c #939494",
"F  c gray58",
"G  c #949595",
"H  c #959595",
"J  c #959696",
"K  c gray59",
"L  c #969797",
"P  c #979797",
"I  c #9D9595",
"U  c #989898",
"Y  c #989999",
"T  c gray60",
"R  c #999A9A",
"E  c #9A9A9A",
"W  c #9A9B9B",
"Q  c #9B9B9B",
"!  c #9D9B9B",
"~  c #9B9C9C",
"^  c #9B9D9D",
"/  c gray61",
"(  c #9C9D9D",
")  c #9D9D9D",
"_  c #9D9E9E",
"`  c #9D9F9F",
"'  c gray62",
"]  c #9E9F9F",
"[  c #9F9F9F",
"{  c #93A2A2",
"}  c #94A2A2",
"|  c #97A7A7",
" . c #9EA0A0",
".. c #9FA0A0",
"X. c #99A8A8",
"o. c #98A9A9",
"O. c #99AAAA",
"+. c #A0A0A0",
"@. c gray63",
"#. c #A1A2A2",
"$. c #A2A2A2",
"%. c gray64",
"&. c #A7A1A1",
"*. c #A3A4A4",
"=. c #A4A4A4",
"-. c #A4A5A5",
";. c #A5A5A5",
":. c #A5A6A6",
">. c gray65",
",. c #A7A7A7",
"<. c gray66",
"1. c #A8A9A9",
"2. c #A9A9A9",
"3. c #AAAAAA",
"4. c gray67",
"5. c #ACABAB",
"6. c #ADABAB",
"7. c #ACACAC",
"8. c gray68",
"9. c #AEADAD",
"0. c #AEAEAE",
"q. c #AFAFAF",
"w. c gray69",
"e. c #B2B1B1",
"r. c #B2B2B2",
"t. c gray70",
"y. c gray71",
"u. c #B5B6B6",
"i. c #B6B6B6",
"p. c #B6B7B7",
"a. c #B7B7B7",
"s. c #B8B7B7",
"d. c gray72",
"f. c #B9B9B9",
"g. c gray73",
"h. c #BBBBBB",
"j. c #BBBCBC",
"k. c #BCBCBC",
"l. c gray",
"z. c gray75",
"x. c #BFC0C0",
"c. c #BBD8D8",
"v. c #BDDBDB",
"b. c #BEDBDB",
"n. c #BEDCDC",
"m. c #BFDCDC",
"M. c #C0C0C0",
"N. c #C1C1C1",
"B. c gray76",
"V. c #C3C3C3",
"C. c gray77",
"Z. c #C5C5C5",
"A. c #C6C6C6",
"S. c gray78",
"D. c gray79",
"F. c #C9CACA",
"G. c #CACACA",
"H. c #CBCBCB",
"J. c gray80",
"K. c #CDCDCD",
"L. c #CECECE",
"P. c gray81",
"I. c #D0CCCC",
"U. c #D0CECE",
"Y. c #C0DDDD",
"T. c #C0DEDE",
"R. c #C2DFDF",
"E. c #D0D0D0",
"W. c #D0D1D1",
"Q. c gray82",
"!. c #D3D1D1",
"~. c #D1D2D2",
"^. c #D2D2D2",
"/. c LightGray",
"(. c gray83",
"). c #D5D5D5",
"_. c #D6D4D4",
"`. c gray84",
"'. c #D7D6D6",
"]. c #D7D7D7",
"[. c #D8D6D6",
"{. c #D9D7D7",
"}. c #D8D8D8",
"|. c gray85",
" X c #DBD9D9",
".X c #DADADA",
"XX c gray86",
"oX c gainsboro",
"OX c #DDDDDD",
"+X c gray87",
"@X c #DFDFDF",
"#X c #C9E6E6",
"$X c #CBE9E9",
"%X c #CCE9E9",
"&X c #CDEAEA",
"*X c #CEEBEB",
"=X c #CEECEC",
"-X c #CFECEC",
";X c #CFEDED",
":X c #D4F1F1",
">X c #D7F5F5",
",X c #DCFAFA",
"<X c #DEFFFF",
"1X c #DFFFFF",
"2X c gray88",
"3X c #E1E1E1",
"4X c #E2E2E2",
"5X c gray89",
"6X c #E4E4E4",
"7X c gray90",
"8X c #E6E6E6",
"9X c #E7E7E7",
"0X c #E8E4E4",
"qX c gray91",
"wX c #E9E9E9",
"eX c #EAE8E8",
"rX c #EAEAEA",
"tX c gray92",
"yX c #ECECEC",
"uX c #EFEDED",
"iX c #EFEFEF",
"pX c #F1EFEF",
"aX c LightCyan",
"sX c #E1FFFF",
"dX c #E2FFFF",
"fX c #E3FFFF",
"gX c #E5FFFF",
"hX c #E9FFFF",
"jX c #EAFFFF",
"kX c #EBFFFF",
"lX c gray95",
"zX c #F3F3F3",
"xX c #F4F2F2",
"cX c #F5F3F3",
"vX c #F4F4F4",
"bX c gray96",
"nX c #F6F4F4",
"mX c #F7F5F5",
"MX c #F9F7F7",
"NX c #F2FFFF",
"BX c #F3FFFF",
"VX c #F4FFFF",
"CX c #F5FFFF",
"ZX c #F6FFFF",
"AX c #F7FFFF",
"SX c #F8FFFF",
"DX c white",
/* pixels */
"aXaXaXaXaXaXaXaXaXaXaXaXaXaXaXaXaXaXaXaXaXaXaXaXaXaXaXaXaXaXaXaXaXaXaXaXaXaXaXaXaXaXaXaXaXaXaXaXaXaX",
"aXaXaXaXaXaXaXaXaXaXaXaXaXaXaXaXaXaXaXaXaXaXaXaXaXaXaXaXaXaXaXaXaXaXaXaXaXaXaXaXaXaXaXaXaXaXaXaXaXaX",
"aXaX1XsXhXjXjXjXjXjXjXjXjXjXjXjXjXjXjXjXjXjXjXjXjXjXjXjXjXjXjXjXjXjXjXjXjXjXjXjXjXjXjXjXjXkXgX<XaXaX",
"aXaXaXsX:X%X*X*X*X*X*X*X*X*X*X*X*X*X*X*X*X*X*X*X*X*X*X*X*X*X*X*X*X*X*X*X*X*X*X*X=X=X=X-X=X-X,XdXaXaX",
"aXaXjX>X+ . o o o o o o o o o o o o o o o o o o o o o o o o o o o o o o o o o o o o o o O   o.SXaXaX",
"aXaXkXb.A 0X{.{.{.{.{.{.{.{.{.{.{.{.{.{.{.{.{.{.{.{.{.{.{.{.{.{.{.{.{.{.{.{.{.{.[._.!.U.!.I } VXaXaX",
"aXaXjXc.:.DXzXvXvXbXbXvXvXvXvXvXvXvXvXvXvXvXvXvXvXvXvXvXvXvXvXvXvXvXvXvXvXvXvXzXlXiXtX9X3X&.X.NXaXaX",
"aXaXjXv...MXqXqXqXwXwXqXqXqXqXqXqXqXqXqXqXqXqXqXqXqXqXqXqXqXqXqXqXqXqXqXqXqXqX9X6X3XOXW.Z.c | BXaXaX",
"aXaXjXv. .mX8X9X9X8X8X8X7X7X7X7X7X7X7X7X7X7X7X7X7X7X7X7X7X7X7X7X7X7X7X7X7X7X7X5X2XOXQ.x.y.0 | CXaXaX",
"aXaXjXv. .nX7X6X7X6X4X4X4X4X4X4X4X4X4X4X4X4X4X4X4X4X4X4X4X4X4X4X4X4X4X4X4X4X3X@XoX/.B.r.2.3 | CXaXaX",
"aXaXjXb.] cX6X5X4X3X@X@X@X+X+X+X+X+X+X+X+X+X+X+X+X+X+X+X+X+X+X+X+X+X+X+X+X+XOXoX).A.i.<.#.< | CXaXaX",
"aXaXjXb.] cX5X4X3X@X+XoXoXoXXXXXXXXXXXXXXXXXXXXXXXXXXXXXXXXXXXXXXXXXXXXXXXXXXX].K.z.w.$.( > | ZXaXaX",
"aXaXjXb.] cX5X4X2X+XOXXX.X.X.X.X.XOX@X+XXX|..X.X.X.X.X.X.X.X.X.X.X.X.X.X.X.X}.~.S.g.4.[ Q : | ZXaXaX",
"aXaXjXb.] cX5X4X2XOXXX.X|.|.}.XX6XoX(.`.2X4X|.}.|.|.|.|.|.|.|.|.}.oX4X@X|.|.`.P.Z.d.3.' E : | ZXaXaX",
"aXaXjXb.] cX5X4X2X+XXX.X|.}.+X2Xh./ Z F =.J.5X.X|.|.|.|.|.|.|.}.3XXXA.Q.OX}.).P.Z.d.3.' E : | ZXaXaX",
"aXaXjXb.] cX5X4X2X+XXX.X|.XX2X7.r q w w q l C.6X|.|.|.|.|.|.|.7XQ.E h s M.5X).P.Z.d.3.' E : | ZXaXaX",
"aXaXjXb.] cX5X4X2X+XXX.X|.6Xh.r f [ M.d.S t M Q.@X|.|.|.|.|.8XE.V u t S P.@X).P.Z.d.3.' E : | ZXaXaX",
"aXaXjXb.] cX5X4X2X+XXX.XOXXXQ q [ OXrXtXD.N q r.6X|.|.|.|.7XL.V h s T .X5X}.).P.Z.d.3.' E : | ZXaXaX",
"aXaXjXb.] cX5X4X2X+XXX.X+X(.C q l.tX}.XX5X%.6 ,.2XXX|.|.8XK.M h u Q XX5X}.|.).P.Z.d.3.' E : | ZXaXaX",
"aXaXjXb.] cX5X4X2X+XXX.X+X`.H q w.rX@X7XoXU q q.5X|.|.9XJ.n h u / XX5X}.|.|.).P.Z.d.3.' E : | ZXaXaX",
"aXaXjXb.] cX5X4X2X+XXX.XXX3X3.q M g.OX].,.f k D.9X}.8XH.b h u ) oX4X}.|.|.|.).P.Z.d.3.' E : | ZXaXaX",
"aXaXjXb.] cX5X4X2X+XXX.X|.2X/.C w h P C u M b 4.2XyXD.b h u [ OX4X}.|.|.|.|.).P.Z.d.3.' E : | ZXaXaX",
"aXaXjXb.] cX5X4X2X+XXX.X|.}.5XP./ f q t C n b s 0.D.M k y +.+X4X}.|.|.|.|.|.).P.Z.d.3.' E : | ZXaXaX",
"aXaXjXb.] cX5X4X2X+XXX.X|.|.}.4XOXC.a.g.(.V.x x b x n f @.+X4X}.|.|.|.|.|.|.).P.Z.d.3.' E : | ZXaXaX",
"aXaXjXb.] cX5X4X2X+XXX.X|.|.|.}.oX4X7X6X2X9XH.C b M k 4.6X2X}.|.|.|.|.|.|.|.).P.Z.d.3.' E : | ZXaXaX",
"aXaXjXb.] cX5X4X2X+XXX.X|.|.|.}.oX4X7X6X2X9XH.C b M k 3.5X2X}.|.|.|.|.|.|.|.).P.Z.d.3.' E : | ZXaXaX",
"aXaXjXb.] cX5X4X2X+XXX.X|.|.|.4XOXC.a.g.(.V.x x b x n f +.@X4X}.|.|.|.|.|.|.).P.Z.d.3.' E : | ZXaXaX",
"aXaXjXb.] cX5X4X2X+XXX.X|.}.5XP./ f q t Z M b s w.D.M k u +.+X4X}.|.|.|.|.|.).P.Z.d.3.' E : | ZXaXaX",
"aXaXjXb.] cX5X4X2X+XXX.X|.3X^.V w h K C u M b 4.3XtXD.b h y ' OX4X}.|.|.|.|.).P.Z.d.3.' E : | ZXaXaX",
"aXaXjXb.] cX5X4X2X+XXX.XXX4X2.q M g.OX].,.f l D.9X}.8XG.b h u ) oX4X}.|.|.|.).P.Z.d.3.' E : | ZXaXaX",
"aXaXjXb.] cX5X4X2X+XXX.X+X`.H q w.rX@X7XoXU q q.5X|.|.8XJ.b h u / oX4X}.|.|.).P.Z.d.3.' E : | ZXaXaX",
"aXaXjXb.] cX5X4X2X+XXX.X+X/.C q l.tX}.XX6X%.6 <.2X.X|.|.8XK.M h u Q XX5X}.|.).P.Z.d.3.' E : | ZXaXaX",
"aXaXjXb.] cX5X4X2X+XXX.XOXXXE w [ OXrXtXD.N q r.6X.X|.|.|.8XL.M h u E .X4X}.).P.Z.d.3.' E : | ZXaXaX",
"aXaXjXb.] cX5X4X2X+XXX.X|.5Xg.r f [ M.d.S t N ^.@X|.|.|.|.|.8XP.V s t S E.@X).P.Z.d.3.' E : | ZXaXaX",
"aXaXjXb.] cX5X4X2X+XXX.X|.oX2X7.r q r w q l C.5X|.|.|.|.|.|.|.7XE.T h f N.5X).P.Z.d.3.' E : | ZXaXaX",
"aXaXjXb.] cX5X4X2X+XXX.X|.}.@X3Xk.) C F ;.J.5X.X|.|.|.|.|.|.|.|.4X.XA./.+X|.).P.Z.d.3.' E : | ZXaXaX",
"aXaXjXb.] cX5X3X2X+XXX.X.X|.}.XX6XoX(.`.2X4X|.}.|.|.|.|.|.|.|.|.}.OX4X@X|.|.`.P.Z.d.3.' E : | ZXaXaX",
"aXaXjXb.] cX5X2X@XOXXX.X}.].].].]..XoXXX|.'.].].].].].].].].].].].].].].].]./.K.V.p.1.) W : | ZXaXaX",
"aXaXjXb.` xX4X2X+XoX|.(.Q.Q.Q.Q.Q.Q.Q.Q.Q.Q.Q.Q.Q.Q.Q.Q.Q.Q.Q.Q.Q.Q.Q.Q.Q.E.K.S.l.t.>.( R : | ZXaXaX",
"aXaXjXb.` xX3X+XoX`.L.F.S.A.A.A.A.A.A.A.A.A.A.A.A.A.A.A.A.A.A.A.A.A.A.A.A.A.V.l.a.8.$.E U ; | ZXaXaX",
"aXaXjXn._ pX+XoX^.S.M.j.f.s.s.s.s.s.s.s.s.s.s.s.s.s.s.s.s.s.s.s.s.s.s.s.s.d.u.e.5.-.( J L ; | ZXaXaX",
"aXaXjXn.( uX.XP.N.y.9.1.>.;.;.;.;.;.;.;.;.;.;.;.;.;.;.;.;.;.;.;.;.;.;.;.;.;.*.#._ R G C S - | ZXaXaX",
"aXaXjXm.^ eXK.k.0.%.~ P K H H H H H H H H H H H H H H H H H H H H H H H H H F S C N b v N % | ZXaXaX",
"aXaXjXT.Y  Xh.7.) D m z k k k k k k k k k k k k k k k k k k k k k k k k k k j g d s a s v # | ZXaXaX",
"aXaXkXY.B I.6.! B p e 8 7 7 7 7 7 7 7 7 7 7 7 7 7 7 7 7 7 7 7 7 7 7 7 7 7 7 5 5 5 7 7 9 i @ { AXaXaX",
"aXaXjX;X2 r 4 1 , * & $ $ $ $ $ $ $ $ $ $ $ $ $ $ $ $ $ $ $ $ $ $ $ $ $ $ $ $ $ $ & & * = X O.AXaXaX",
"aXaXaXfX-XR.#X$X&X=X-X;X;X;X;X;X;X;X;X;X;X;X;X;X;X;X;X;X;X;X;X;X;X;X;X;X;X;X;X;X;X-X-X-X*X*X,XdXaXaX",
"aXaX1XsXhXjXjXjXjXjXjXjXjXjXjXjXjXjXjXjXjXjXjXjXjXjXjXjXjXjXjXjXjXjXjXjXjXjXjXjXjXjXjXjXjXkXgX<XaXaX",
"aXaXaXaXaXaXaXaXaXaXaXaXaXaXaXaXaXaXaXaXaXaXaXaXaXaXaXaXaXaXaXaXaXaXaXaXaXaXaXaXaXaXaXaXaXaXaXaXaXaX",
"aXaXaXaXaXaXaXaXaXaXaXaXaXaXaXaXaXaXaXaXaXaXaXaXaXaXaXaXaXaXaXaXaXaXaXaXaXaXaXaXaXaXaXaXaXaXaXaXaXaX"
};
