/* XPM */
static const char *cutSegmentMouseOver_xpm[] = {
/* columns rows colors chars-per-pixel */
"50 50 170 2 ",
"   c #000101",
".  c #050709",
"X  c #080709",
"o  c #05080B",
"O  c #0C0C0D",
"+  c #100E0F",
"@  c #120F10",
"#  c #141313",
"$  c #181615",
"%  c #1C1A19",
"&  c #221E1B",
"*  c #22201D",
"=  c #232420",
"-  c #2C2823",
";  c #332B26",
":  c #332E29",
">  c #392F29",
",  c #3B332C",
"<  c #40362E",
"1  c #433931",
"2  c #4A3E34",
"3  c #4F4137",
"4  c #4D443C",
"5  c #53483D",
"6  c #4F3D46",
"7  c #5B4F43",
"8  c #514F4F",
"9  c #4E5B51",
"0  c #525752",
"q  c #525852",
"w  c #644B4C",
"e  c #645648",
"r  c #65594B",
"t  c #695B4C",
"y  c #7E5450",
"u  c #666455",
"i  c #686656",
"p  c #6C6959",
"a  c #756554",
"s  c #7E6C59",
"d  c #766A59",
"f  c #6A715F",
"g  c #777260",
"h  c #7D7764",
"j  c #815652",
"k  c #885151",
"l  c #8A5E59",
"z  c #855A55",
"x  c #856756",
"c  c #816F5A",
"v  c #8C6C5A",
"b  c #8E615B",
"n  c #92655E",
"m  c #85735D",
"M  c #88755F",
"N  c #91715E",
"B  c #956760",
"V  c #966861",
"C  c #9A6B64",
"Z  c #897560",
"A  c #8D7A64",
"S  c #8F7C6B",
"D  c #957561",
"F  c #927D66",
"G  c #9C7A66",
"H  c #A07169",
"J  c #A8776E",
"K  c #559668",
"L  c #539968",
"P  c #539466",
"I  c #37C46E",
"U  c #38C36C",
"Y  c #39C671",
"T  c #3DC974",
"R  c #44CF79",
"E  c #4BD47C",
"W  c #46D17A",
"Q  c #51D97E",
"!  c #968067",
"~  c #968068",
"^  c #9B856D",
"/  c #998F78",
"(  c #968773",
")  c #999278",
"_  c #A0886E",
"`  c #A3816B",
"'  c #A58C72",
"]  c #AB8C73",
"[  c #B38075",
"{  c #BE8A7C",
"}  c #AB9176",
"|  c #AC9378",
" . c #A0947C",
".. c #B1977B",
"X. c #B49A7E",
"o. c #BA937B",
"O. c #55DC81",
"+. c #57E585",
"@. c #58E786",
"#. c #57EA87",
"$. c #5BE887",
"%. c #58EF89",
"&. c #58F089",
"*. c #54FC8D",
"=. c #59FD8F",
"-. c #9E9085",
";. c #A29A86",
":. c #A29C89",
">. c #B79D80",
",. c #B99E81",
"<. c #BCA083",
"1. c #BBAA8C",
"2. c #A9A290",
"3. c #CF8E86",
"4. c #D49C8B",
"5. c #C1A586",
"6. c #C2A688",
"7. c #C5AA8B",
"8. c #CBAD8D",
"9. c #C9A185",
"0. c #CCAF90",
"q. c #CCB292",
"w. c #CFBA98",
"e. c #D3B494",
"r. c #D3B897",
"t. c #D9B997",
"y. c #D4BA99",
"u. c #DABA98",
"i. c #E1BF9C",
"p. c #EBBD9D",
"a. c #F4BA9C",
"s. c #DEC29E",
"d. c #E3C19E",
"f. c #E5C4A0",
"g. c #EBC5A3",
"h. c #EECBA6",
"j. c #E5CFA9",
"k. c #EFCDA9",
"l. c #F1CCA6",
"z. c #FBCAA7",
"x. c #F3CEA9",
"c. c #F5D1AA",
"v. c #FAD4AD",
"b. c #F1CEB9",
"n. c #F1CBB4",
"m. c #F0D7B0",
"M. c #FAD6B1",
"N. c #F5DBB3",
"B. c #FBD9B4",
"V. c #FBDCBB",
"C. c #F2D1BD",
"Z. c #F6E0B7",
"A. c #FEE0B7",
"S. c #FEE4BB",
"D. c #FFE9BE",
"F. c #F2D3C2",
"G. c #FBDFC1",
"H. c #FBE1C4",
"J. c #FFEDC1",
"K. c #FCE3C8",
"L. c #FFEDCE",
"P. c #FFF2C5",
"I. c #FFF6C9",
"U. c #FFF9CB",
"Y. c #FFEED4",
"T. c #F5E1D2",
"R. c #FFF1D5",
"E. c #FFFFD3",
"W. c #FFF3DA",
"Q. c #FFFFE7",
/* pixels */
"+.+.+.+.+.+.+.+.+.+.+.+.+.+.+.+.+.+.+.+.+.+.+.+.+.+.&.$.Q Q &.$.+.+.+.+.+.+.#.+.+.+.+.+.+.+.+.+.+.+.",
"+.+.+.+.+.+.+.+.+.@.+.+.+.+.+.+.+.+.+.+.+.+.+.+.+.+.Q %.&.$.Q $.+.+.+.+.+.+.$.Q +.+.+.+.+.+.+.+.+.+.",
"+.+.+.+.%.%.%.%.#.%.%.%.%.%.%.$.%.$.%.%.$.%.%.%.%.&.&.Q %.%.&.&.%.%.%.%.%.$.&.$.%.%.&.&.%.%.#.+.+.+.",
"+.+.+.@.Q W E E E E E W E W E E W E E E E E E W E W E E E E E Q E W E E E E E E W E E E E E +.+.+.+.",
"+.+.%.O.9 8 0 0 0 0 0 0 q q q q q q q q q q q q 0 0 0 0 0 q q q q q q q q q q q 9 0 0 q q 6 L =.+.+.",
"+.+.%.U -.T.F.F.F.F.F.F.F.F.F.F.C.C.F.C.F.F.F.F.F.F.F.F.C.C.G.C.C.F.F.F.F.F.C.b.b.x.z.g.d.3.P *.+.+.",
"+.+.%.U 2.Q.Y.R.W.W.Y.W.Y.Y.Y.Y.R.R.R.R.Y.Y.Y.Y.Y.Y.Y.Y.Y.Y.Y.Y.Y.Y.Y.Y.Y.Y.Y.L.K.D.A.c.z.4.L *.+.+.",
"+.+.%.I :.W.K.K.K.K.K.K.K.K.K.K.K.K.H.K.K.K.K.K.K.K.K.K.K.K.K.K.K.K.K.K.K.K.H.V.V.v.l.i.u.{ L *.+.+.",
"+.+.%.U :.W.K.K.H.K.H.H.H.G.H.H.H.G.G.G.H.H.H.H.G.H.G.G.G.H.G.H.G.G.G.G.G.G.V.V.v.c.d.e.8.[ L *.+.+.",
"+.+.%.U :.R.H.H.H.V.V.H.G.V.V.V.G.V.G.V.V.V.V.V.V.V.V.V.G.V.V.G.G.V.G.G.G.V.V.M.v.d.e.7.5.J L *.+.+.",
"+.+.%.U :.R.G.G.V.V.V.V.V.V.V.V.V.V.V.V.V.V.V.V.V.V.V.V.V.C.V.V.V.B.V.V.V.B.M.c.h.i.0.5.X.H L *.+.+.",
"+.+.%.U -.Y.G.V.V.V.V.V.B.B.M.B.B.B.B.N.B.M.B.B.B.B.B.B.M.B.B.B.B.B.B.B.B.M.c.x.d.e.7.X...C L *.+.+.",
"+.+.&.U -.R.S.G.V.V.B.B.B.M.M.M.M.A.S.S.V.M.M.M.M.M.M.M.M.M.M.M.M.M.M.M.v.v.c.l.d.e.5...| V L *.+.+.",
"+.+.&.I ;.R.V.V.V.B.B.B.M.M.v.V.J.V.k.k.D.J.M.v.M.M.M.M.M.M.M.M.v.A.J.D.v.v.l.d.i.8.5...} n L *.+.+.",
"+.+.%.I ;.L.V.V.B.B.M.M.M.c.S.D.^ , # % 5 q.P.M.v.M.v.v.v.v.v.v.D.B.5.s.A.c.l.d.u.e.X...} n L *.+.+.",
"+.+.%.I ;.L.V.V.V.N.M.M.M.B.S.r           . X.P.v.v.M.v.v.v.v.I.s.:     | D.l.d.u.0.X.} ' n L *.+.+.",
"+.+.&.I -.L.V.V.B.B.M.M.v.I.^     1 ) S %   O s.S.v.v.v.v.v.U.u.#     * w.A.h.f.u.8.,.| } n L *.+.+.",
"+.+.%.I :.Y.V.V.V.B.M.M.V.M.:   1 A.E.E.7.+   s I.v.v.v.v.U.r.@     ; c.P.l.l.f.u.8.<.| ' V L =.+.+.",
"+.+.%.I :.I.V.V.B.B.M.M.S.h.#   ' E.c.B.P.4   7 D.B.v.v.U.e.O     > m.P.c.c.h.f.u.8.<.| ' V L *.+.+.",
"+.+.%.I ;.L.V.V.V.B.B.v.A.x.*   a E.S.I.B.-   a P.v.v.U.q.O     , N.P.v.v.c.h.d.u.0.,.| ' n L *.+.+.",
"+.+.%.I :.L.V.V.B.B.B.M.B.J.e   O ^ Z.j.7     8.U.M.U.7.O     , N.J.v.v.v.c.h.f.u.8.5.| ] n L *.+.+.",
"+.+.&.I ;.L.V.V.B.B.M.M.v.D.f.#     * $   O . r J.E.7.X     1 A.J.v.v.v.v.x.h.f.u.8.,.| ' V L *.+.+.",
"+.+.%.I ;.L.V.V.C.B.B.M.M.v.J.y.,       $ o o   t 1.O     2 A.J.v.v.v.v.c.c.h.f.u.8.5.| ] V L *.+.+.",
"+.+.%.I ;.L.V.V.B.B.M.M.v.v.v.J.V.X.A ^ f.>.. . X . .   3 S.D.v.v.v.v.M.v.c.h.f.u.8.,.| ' V L =.+.+.",
"+.+.%.I ;.Y.V.V.C.B.N.M.v.v.v.v.V.D.I.P.D.U.8.$ . O   t I.S.v.v.v.v.M.v.v.c.h.f.u.8.<.| ' B L *.+.+.",
"+.+.&.I ;.L.V.V.B.B.M.M.M.v.v.v.B.J.I.I.D.U.8.# . O   e P.J.v.v.v.v.v.v.v.c.h.f.u.8.<.| ' B L *.+.+.",
"+.+.%.I ;.L.V.V.B.B.M.M.M.v.v.J.A.X.A ^ f.X.. . o . .   2 A.J.c.v.v.M.v.v.c.h.f.u.8.<.| } V L *.+.+.",
"+.+.%.I ;.L.V.V.V.B.B.M.M.v.J.r.,       $ O .   d 1.@     2 V.J.v.v.v.v.v.c.h.d.u.8.<.| ' B L *.+.+.",
"+.+.%.I ;.L.V.V.B.B.B.M.v.D.s.#     * $   O X t D.E.7.O     1 B.J.v.v.v.v.c.h.f.u.8.<.| ] V L *.+.+.",
"+.+.%.I ;.L.V.V.V.B.M.M.B.D.e   + ^ Z.j.7   . 7.U.v.U.7.O     < N.J.v.v.v.x.h.f.u.8.<.| ' V L *.+.+.",
"+.+.&.I ;.L.V.V.B.B.M.M.A.c.*   d U.D.I.B.-   a P.v.v.U.q.O     , N.J.v.c.c.h.f.u.8.<.| ' V L *.+.+.",
"+.+.&.I ;.Y.V.V.V.B.M.M.A.h.#   ' E.v.B.P.4   7 D.B.v.v.U.q.O     > N.P.c.c.h.f.u.8.<.| ' B L *.+.+.",
"+.+.&.I ;.L.V.V.B.B.M.M.V.B.:   < A.E.E.7.+   s I.v.v.v.v.U.r.@     > m.J.l.l.f.u.8.<.| } n L =.+.+.",
"+.+.%.I ;.L.V.V.V.B.N.M.v.P.^     2 ) A %   O s.D.v.v.v.v.v.U.y.@     & y.A.h.d.u.8.<.| ' n L =.+.+.",
"+.+.%.I ;.L.V.V.B.B.M.M.v.V.S.r             >.P.v.v.v.M.v.v.v.I.u.;     | D.c.d.u.8.<.| } n L *.+.+.",
"+.+.&.I ;.L.V.V.V.M.B.M.v.c.A.D._ , $ * 5 q.J.M.v.v.v.v.v.c.v.v.D.B.<.f.A.c.l.d.u.8.<.| ' n L *.+.+.",
"+.+.%.I ;.L.V.V.B.M.M.v.v.c.c.v.P.M.d.d.S.D.c.c.c.v.c.c.c.M.c.c.c.V.D.A.c.l.d.d.t.8.X.| ' C L *.+.+.",
"+.+.&.I ;.L.V.B.M.M.v.c.c.l.l.l.l.v.A.M.c.l.l.l.h.h.l.l.l.l.l.l.l.l.l.c.h.h.d.u.e.8.X.} _ n L *.+.+.",
"+.+.%.I ;.K.M.M.M.c.l.d.h.d.d.d.d.g.d.g.d.d.g.d.d.f.f.d.d.d.d.d.d.d.d.d.d.d.u.e.8.X..._ ^ n L *.+.+.",
"+.+.%.I ;.J.v.v.c.d.d.d.u.u.u.s.u.u.u.u.u.u.u.u.u.u.u.u.u.u.s.u.u.u.u.u.u.e.e.8.7.X.| ^ ^ b L =.+.+.",
"+.@.%.I ;.S.x.g.d.u.e.0.0.0.8.8.8.8.8.8.8.8.8.8.8.8.8.7.7.8.8.7.8.7.8.8.7.7.6.,.X.| _ ^ ! b L *.+.+.",
"+.@.%.Y  .M.f.u.0.8.7.X.<.X.<.X.,.X.X.X.X.,.X.,.,.,.,.X.,.>.>.>.,.>.,.,.,.>...| ' _ ! M M l L *.+.+.",
"+.+.%.T / z.e.7.X.X...} ' _ ' _ ' ' _ ' ' ' ' _ ' ' ' ' ' ' ' ' ' _ _ ' ' _ ^ ^ ! F M m M j L *.+.+.",
"+.+.%.T ( p.6.>...' ^ ^ ! ! ! ! F F F F F F F F F F F F F F F F F F F F F F F A M m c s c j L *.+.+.",
"+.+.%.T ( p.9.o.] ` G D N N N N Z V N M N M V Z v N N N D N N N N N N N v Z v v c x x x v k P *.+.+.",
"+.+.%.W f S h g d p p i i i i i u u i i u i i u u u i u u u u u u u u u u u u u u u u u u w L =.+.+.",
"+.+.@.$.O.Y W T W O.E E E Q E E O.W O.E E E O.W W O.E E O.W E E W O.E O.W O.O.E E E E Q Q E Q $.+.+.",
"+.+.+.@.&.&.&.%.%.%.&.&.&.%.%.%.%.%.#.%.%.%.%.%.&.%.%.%.%.%.%.%.%.%.%.#.%.%.%.&.&.&.&.&.&.&.$.@.+.+.",
"+.+.+.+.@.+.+.+.+.+.+.+.+.+.+.+.+.+.+.+.+.+.+.+.+.+.+.+.+.+.+.+.+.+.+.+.+.+.+.+.+.+.+.+.+.+.+.+.+.+.",
"+.+.+.+.+.+.+.+.+.+.+.+.+.+.+.+.+.+.+.+.+.+.+.+.+.+.+.+.+.+.+.+.+.+.+.+.+.+.+.+.+.+.+.+.+.+.+.+.+.+."
};
