/* XPM */
static const char *endSegmentNormal_xpm[] = {
/* columns rows colors chars-per-pixel */
"50 50 159 2 ",
"   c #000001",
".  c #040609",
"X  c #06090B",
"o  c #0E0C0D",
"O  c #100F10",
"+  c #0F1011",
"@  c #141414",
"#  c #1B1917",
"$  c #1C1B1A",
"%  c #201E1C",
"&  c #24211E",
"*  c #262320",
"=  c #282521",
"-  c #332C27",
";  c #342F2A",
":  c #3A322B",
">  c #3E3730",
",  c #423A32",
"<  c #403A38",
"1  c #4B4136",
"2  c #4E4238",
"3  c #55473D",
"4  c #55483E",
"5  c #664F3B",
"6  c #664A33",
"7  c #69513D",
"8  c #504F4D",
"9  c #5D5044",
"0  c #595957",
"q  c #585958",
"w  c #6E5640",
"e  c #69594B",
"r  c #755B45",
"t  c #6E5F50",
"y  c #7D634B",
"u  c #6D655B",
"i  c #736353",
"p  c #7F6750",
"a  c #796857",
"s  c #72695E",
"d  c #7E6C58",
"f  c #746B60",
"g  c #7B6F61",
"h  c #7E7366",
"j  c #78736B",
"k  c #81654D",
"l  c #846B53",
"z  c #896E55",
"x  c #816F5B",
"c  c #887056",
"v  c #85735D",
"b  c #8B735A",
"n  c #907359",
"m  c #93795E",
"M  c #857462",
"N  c #8A7662",
"B  c #8D7963",
"V  c #84786A",
"C  c #8E7C6A",
"Z  c #927D66",
"A  c #9A7D62",
"S  c #917D68",
"D  c #968067",
"F  c #968068",
"G  c #9C856D",
"H  c #968471",
"J  c #9A8D77",
"K  c #9F907E",
"L  c #A68567",
"P  c #A4876A",
"I  c #AD8768",
"U  c #A0886E",
"Y  c #A58C72",
"T  c #A88F74",
"R  c #AB9176",
"E  c #AC9378",
"W  c #BD9776",
"Q  c #B1977B",
"!  c #B59A7E",
"~  c #B19273",
"^  c #C09F7D",
"/  c #9C9084",
"(  c #A69582",
")  c #AA9986",
"_  c #A99C8C",
"`  c #B79D80",
"'  c #B99E82",
"]  c #AA9E90",
"[  c #94A19F",
"{  c #BCA083",
"}  c #BDA588",
"|  c #B0A496",
" . c #97A6A5",
".. c #98A6A5",
"X. c #9AA8A7",
"o. c #99AAA9",
"O. c #C1A587",
"+. c #C3A789",
"@. c #C5AA8B",
"#. c #CBAD8D",
"$. c #C8AF90",
"%. c #CFB090",
"&. c #D3B494",
"*. c #D9B997",
"=. c #D7BC9A",
"-. c #DBBA98",
";. c #E2B68C",
":. c #E2BF9B",
">. c #E1BB94",
",. c #DBC09D",
"<. c #E4C29E",
"1. c #E5C4A0",
"2. c #E9C6A3",
"3. c #E7CBA6",
"4. c #EECAA5",
"5. c #E9CCAA",
"6. c #F0CCA6",
"7. c #F2CFA9",
"8. c #ECD0AA",
"9. c #F5D1AA",
"0. c #FAD5AE",
"q. c #E9CEB3",
"w. c #ECD3B0",
"e. c #E9D1BB",
"r. c #F1D4B1",
"t. c #FAD6B1",
"y. c #F7DDB4",
"u. c #FBD9B4",
"i. c #FBDCBB",
"p. c #FFE1B6",
"a. c #FEE4BB",
"s. c #FFEABE",
"d. c #B7D9DE",
"f. c #BADCE2",
"g. c #BEE1E7",
"h. c #BFE2E8",
"j. c #EBDEC2",
"k. c #FBDFC1",
"l. c #FBE1C4",
"z. c #FFEBC4",
"x. c #FCE3C8",
"c. c #FFECCA",
"v. c #FFF2C5",
"b. c #FFF6C9",
"n. c #FFF9CB",
"m. c #FFEED4",
"M. c #FFF3D2",
"N. c #FFFFDA",
"B. c #C0E3E8",
"V. c #C6E8ED",
"C. c #CDECED",
"Z. c #CEEFF2",
"A. c #CFF0F3",
"S. c #D5F3F4",
"D. c #DEFDFD",
"F. c #E0FFFF",
"G. c #EAFFFF",
"H. c #F5FFFF",
"J. c #F8FFFF",
/* pixels */
"F.F.F.F.F.F.F.F.F.F.F.F.F.F.F.F.F.F.F.F.F.F.F.F.F.F.F.F.F.F.F.F.F.F.F.F.F.F.F.F.F.F.F.D.F.F.F.F.F.F.",
"F.F.F.F.F.F.F.F.F.F.F.F.F.F.F.F.F.F.F.F.F.F.F.F.F.F.F.F.F.F.F.F.F.F.F.F.F.F.F.F.F.F.F.F.F.D.F.F.F.F.",
"F.F.D.F.G.G.G.G.G.G.G.G.G.G.G.G.G.G.G.G.G.G.G.G.G.G.G.G.G.H.G.G.G.G.G.G.G.G.G.G.G.G.G.G.G.G.G.D.F.F.",
"F.F.F.F.S.C.C.C.C.C.C.V.C.C.C.C.C.C.C.C.C.C.C.Z.C.C.C.C.V.C.C.V.C.C.C.C.C.C.C.C.C.C.Z.C.C.C.D.F.F.F.",
"F.F.G.S.q 8 0 0 q q q 8 q q q q 0 0 q q q q 8 q 8 q q q 0 q q q q q q q q q 0 0 0 0 q q q , o.H.F.D.",
"F.F.G.f./ j.e.e.j.j.j.q.e.e.e.j.e.q.e.j.e.e.e.j.j.q.j.j.q.e.e.e.e.e.e.e.e.e.e.q.q.5.4.<.:.I [ H.F.F.",
"F.F.G.f.| N.M.m.m.m.m.m.m.m.m.m.m.m.m.m.x.m.m.m.m.m.m.m.m.m.m.m.m.m.m.m.m.m.m.c.x.a.u.0.7.W ..H.F.F.",
"F.F.G.f.] m.x.x.x.x.x.x.x.k.x.k.k.x.x.x.x.x.x.x.x.x.x.x.x.k.x.k.x.x.x.x.l.l.l.k.i.0.9.-.-.L ..H.F.F.",
"F.F.G.f.] m.x.x.x.x.k.l.k.k.k.k.k.k.k.k.l.k.k.k.k.k.k.l.l.k.k.k.k.k.k.l.l.k.i.u.t.7.:.&.%.m  .H.F.F.",
"D.F.G.f.] b.k.l.k.k.k.k.k.k.k.i.k.k.k.k.i.k.i.i.k.k.t.k.k.k.k.x.N.N.N.N.M.k.u.u.9.<.*.@.O.n  .H.F.F.",
"F.F.G.f._ c.l.l.i.i.i.i.i.i.i.u.u.i.i.u.i.i.i.i.k.k.k.k.i.u.k.e.C M V x ` z.u.9.6.:.%.O.! z  .H.F.F.",
"F.F.G.d._ c.i.i.i.i.i.i.u.u.u.u.u.u.u.y.u.t.u.u.9.t.t.t.t.k.r.;           C z.9.:.*.@.' ~ k  .H.F.F.",
"F.F.G.f._ c.i.i.i.i.u.u.u.r.t.t.r.t.u.t.t.t.u.t.u.t.t.t.t.b.G   O @ @ @   # 6.0.:.&.O.Q E k  .H.F.F.",
"F.F.G.f._ z.i.i.i.u.u.u.u.t.t.t.t.t.t.t.t.t.t.t.t.t.t.t.t.m.M   @ @ @ @ X # :.0.-.%.{ Q T k  .H.F.F.",
"F.F.G.f._ c.i.i.u.u.t.t.t.t.t.0.0.0.t.t.0.0.0.0.0.0.0.0.0.b.B   @ @ @ @ X % 1.9.-.%.{ E Y y  .H.F.F.",
"F.F.G.f._ c.i.i.u.u.t.t.t.t.9.t.0.0.t.9.0.0.0.0.0.0.0.0.0.b.N   @ @ @ @ X $ :.9.-.$.' E T k  .H.F.F.",
"F.F.G.f._ z.i.i.i.y.t.t.t.0.0.0.0.0.t.0.0.0.0.0.0.0.0.0.0.b.B   @ @ @ @ X @ <.9.-.#.{ E Y y  .H.F.F.",
"F.F.G.f._ c.i.i.u.t.u.t.t.0.0.0.0.0.0.0.t.0.0.0.0.0.0.0.0.n.1..           9 p.6.-.#.{ E T y  .H.F.F.",
"F.F.G.f._ z.i.i.u.u.t.t.t.0.0.0.0.0.0.0.0.0.0.0.0.0.0.u.s.#.r.$.3 > , , i 7.y.<.-.#.{ E T y  .H.F.F.",
"F.F.G.f._ z.i.u.i.u.t.t.t.0.0.0.0.0.0.0.0.0.0.0.0.0.t.b.Y   - v.s.t.t.p.v.u.<.<.*.#.{ E Y y  .H.F.D.",
"F.F.G.f._ z.i.i.u.i.r.t.t.0.0.0.0.0.0.0.0.0.0.0.0.0.b.}     , p.i.u.u.u.t.7.4.<.-.#.{ R Y y  .H.F.F.",
"F.F.G.f._ x.i.i.u.u.t.t.t.0.0.0.0.0.0.0.0.0.0.0.0.v.=.o   & 8.a.0.0.t.0.t.7.6.1.-.#.^ E T y  .H.F.F.",
"F.F.G.f._ c.i.i.u.u.u.t.t.0.0.0.t.0.0.0.t.0.0.0.v.5.%   + ,.v.0.0.0.0.0.0.7.6.1.-.%.{ E Y y  .H.F.F.",
"F.F.G.f._ x.k.i.i.u.t.t.t.0.0.0.0.0.0.0.0.0.0.a.p.:   . +.b.0.0.0.t.0.0.t.7.4.<.-.#.{ E T y ..H.F.F.",
"D.F.G.f._ c.i.u.i.t.t.t.t.t.0.0.0.t.0.0.t.0.a.s.3     T b.t.0.0.0.0.0.0.0.9.6.1.-.#.' E T y  .H.F.F.",
"F.F.G.f._ c.i.i.u.u.t.t.t.t.0.0.0.0.0.0.0.u.v.i     N b.u.0.0.0.0.0.0.0.0.9.4.1.-.#.{ E T y  .H.F.F.",
"F.F.G.f._ c.i.i.y.u.u.t.t.0.0.0.0.0.0.0.t.n.Z     e v.p.0.t.0.0.0.0.0.t.0.7.6.1.-.#.{ E Y y  .H.F.F.",
"F.F.G.f._ c.i.i.u.u.t.t.t.0.0.t.0.0.0.t.b.Q     2 s.a.0.0.0.0.0.0.0.0.0.0.7.6.1.-.#.' E T y  .H.F.F.",
"F.F.G.f._ c.i.u.u.u.u.t.t.0.0.0.0.0.0.v.#..   - y.s.0.0.0.0.0.0.0.0.0.0.0.7.6.1.-.#.O.E T y  .H.F.F.",
"F.F.G.f._ z.i.i.i.u.u.0.t.0.u.u.p.u.s.=.@   # 3.v.0.0.0.0.0.0.0.0.0.0.0.0.7.6.1.-.#.' E T y  .H.F.F.",
"F.F.G.f._ c.i.i.u.u.y.t.t.s.s.t.u.p.N.^   . &.v.9.0.0.0.0.0.0.0.0.0.0.t.0.7.6.1.-.#.' E T y  .H.F.F.",
"F.F.G.d._ c.i.i.u.u.t.t.s.{ 1 , , > d 9.J +.v.0.0.0.t.0.0.0.0.0.0.0.0.0.0.7.6.<.-.#.{ E Y y  .H.F.F.",
"F.F.G.f._ z.i.i.u.u.t.z.#.            i N.z.0.0.0.0.0.0.0.0.0.0.0.0.0.0.0.9.4.<.-.%.{ R Y y  .H.F.F.",
"F.F.G.f._ z.i.i.u.u.y.M.d   @ @ @ @   $ 0.p.0.0.0.0.0.0.0.0.0.0.0.0.0.0.9.9.4.<.*.#.{ E T y  .H.F.F.",
"F.F.G.f._ c.i.i.i.u.t.n.M   @ @ @ @ . & 5.p.0.0.0.0.0.0.0.0.0.0.0.0.0.0.0.7.6.<.-.#.{ E T y  .H.F.F.",
"F.F.G.f._ c.i.i.u.u.t.n.M   @ @ @ @ . = 6.p.0.0.0.0.0.0.0.0.0.0.0.0.0.0.0.9.4.<.-.%.{ E T y  .H.F.F.",
"F.F.G.f._ c.i.u.u.u.t.b.x   @ @ @ @ X $ 4.u.0.9.9.9.9.9.0.9.9.9.9.9.9.9.9.7.4.<.*.#.! E Y y  .H.F.F.",
"F.F.G.f._ z.i.u.t.t.0.z.M   @ @ @ @   = 7.0.6.7.6.4.6.6.6.4.6.7.6.6.7.9.4.4.<.-.&.@.! Y P y  .H.F.F.",
"F.F.G.f.) s.u.u.0.7.4.0.-.=           D t.<.<.<.1.<.1.1.1.<.2.<.<.<.<.<.<.<.-.&.#.{ Q Y U y  .J.F.F.",
"F.F.G.f.) a.t.9.7.<.<.:.7.$.a i a e Y 4.<.-.*.=.-.-.-.-.-.-.=.=.-.-.-.-.=.&.%.#.O.! E G G r  .H.F.F.",
"F.F.G.f.) p.7.2.<.=.&.%.#.=.6.6.4.6.<.%.#.#.#.#.#.#.#.#.#.#.#.#.#.#.#.#.#.@.} { ! E Y D D r ..H.F.F.",
"F.F.G.f.E 0.<.-.%.@.O.{ { ! ! ! ` ! ` ! { ! { ! ! ' ! ` ! ` ` ! ` ` ! ! ! ! Q E T G D B B 7  .H.F.F.",
"F.F.G.g.K 6.&.@.{ ! E R Y Y Y Y Y Y U Y U U Y U Y Y Y U Y Y Y Y Y Y Y Y Y Y G G A Z v v v 7  .J.F.F.",
"F.F.G.B.J >.@.! E Y G G D D Z Z Z Z Z Z D C D Z Z Z Z Z Z Z Z Z Z C Z Z Z B B B M v x d v 5  .J.F.F.",
"F.F.G.g.H ;.! ~ L D m b c b c c c c c c c c c c c c c c c c c c c c c c c c l l p p y y l 6 [ J.F.F.",
"F.F.G.Z.j C V V h f s u u u u u u u u u u u u u u u u u u u u u u u u u u u u u u u u u u 3 o.J.F.F.",
"F.F.F.F.C.g.V.V.C.Z.C.Z.Z.Z.A.A.Z.Z.Z.Z.A.Z.Z.Z.Z.Z.A.A.Z.Z.Z.Z.A.C.Z.Z.Z.Z.Z.Z.A.A.A.A.Z.C.D.F.F.F.",
"F.F.F.F.G.G.G.G.G.G.G.G.G.G.G.G.G.G.G.G.G.G.G.G.G.G.G.G.G.G.G.G.G.G.G.G.G.G.G.G.G.G.G.G.G.G.G.D.F.F.",
"F.F.F.F.F.F.F.F.F.F.F.F.F.F.F.F.F.F.F.F.F.F.F.F.F.F.F.F.F.F.F.F.F.F.F.F.F.F.F.F.F.F.F.F.F.F.F.F.F.F.",
"F.F.F.F.F.F.F.F.F.F.F.F.F.F.F.F.F.F.F.F.F.F.F.F.F.F.F.F.F.F.F.F.F.F.F.F.F.F.F.F.F.F.F.F.F.F.D.F.F.F."
};
