/* XPM */
static const char *endSegmentDisabled_xpm[] = {
/* columns rows colors chars-per-pixel */
"50 50 248 2 ",
"   c #3F3B3B",
".  c gray31",
"X  c #524E4E",
"o  c #585959",
"O  c #585A5A",
"+  c #5B5E5E",
"@  c #645D5D",
"#  c #6A6565",
"$  c #696B6B",
"%  c #6E6868",
"&  c #6A6C6C",
"*  c #6B6D6D",
"=  c #6D6F6F",
"-  c #706B6B",
";  c #726D6D",
":  c #736E6E",
">  c #746F6F",
",  c #6F7070",
"<  c #767171",
"1  c #737474",
"2  c #737676",
"3  c #7B7676",
"4  c #797979",
"5  c #797B7B",
"6  c #7C7C7C",
"7  c #7F7D7D",
"8  c #7E7E7E",
"9  c #7F7E7E",
"0  c gray50",
"q  c #807E7E",
"w  c #817F7F",
"e  c #837E7E",
"r  c #808080",
"t  c #818181",
"y  c #828181",
"u  c gray51",
"i  c #838383",
"p  c #848484",
"a  c gray52",
"s  c #868585",
"d  c #878585",
"f  c #858686",
"g  c #868686",
"h  c #878686",
"j  c gray53",
"k  c #888787",
"l  c #888888",
"z  c #888989",
"x  c #898989",
"c  c gray54",
"v  c #8A8B8B",
"b  c #8B8B8B",
"n  c #8F8A8A",
"m  c #8B8C8C",
"M  c gray55",
"N  c #8D8D8D",
"B  c #8D8E8E",
"V  c #8E8E8E",
"C  c gray56",
"Z  c #908F8F",
"A  c #909090",
"S  c gray57",
"D  c #929292",
"F  c #939292",
"G  c #939393",
"H  c #939494",
"J  c gray58",
"K  c #949595",
"L  c #959595",
"P  c #959696",
"I  c gray59",
"U  c #969797",
"Y  c #979797",
"T  c #9D9595",
"R  c #989898",
"E  c #989999",
"W  c gray60",
"Q  c #999A9A",
"!  c #9A9A9A",
"~  c #9A9B9B",
"^  c #9B9B9B",
"/  c #9D9B9B",
"(  c #9B9C9C",
")  c #9B9D9D",
"_  c gray61",
"`  c #9C9D9D",
"'  c #9D9D9D",
"]  c #9D9E9E",
"[  c #9D9F9F",
"{  c gray62",
"}  c #9E9F9F",
"|  c #9F9F9F",
" . c #93A2A2",
".. c #94A2A2",
"X. c #97A7A7",
"o. c #9EA0A0",
"O. c #9FA0A0",
"+. c #99A8A8",
"@. c #98A9A9",
"#. c #99AAAA",
"$. c #A0A0A0",
"%. c gray63",
"&. c #A1A2A2",
"*. c #A2A2A2",
"=. c gray64",
"-. c #A7A1A1",
";. c #A3A4A4",
":. c #A4A5A5",
">. c #A5A5A5",
",. c #A5A6A6",
"<. c gray65",
"1. c gray66",
"2. c #A8A9A9",
"3. c #A9A9A9",
"4. c #AAAAAA",
"5. c gray67",
"6. c #ACABAB",
"7. c #ADABAB",
"8. c #ACACAC",
"9. c gray68",
"0. c #AEADAD",
"q. c #AEAEAE",
"w. c gray69",
"e. c #B2B1B1",
"r. c #B2B2B2",
"t. c gray70",
"y. c #B4B4B4",
"u. c gray71",
"i. c #B5B6B6",
"p. c #B6B6B6",
"a. c #B6B7B7",
"s. c #B7B7B7",
"d. c #B8B7B7",
"f. c gray72",
"g. c gray73",
"h. c #BBBBBB",
"j. c #BBBCBC",
"k. c #BCBCBC",
"l. c gray",
"z. c gray75",
"x. c #BFC0C0",
"c. c #BBD8D8",
"v. c #BDDBDB",
"b. c #BEDBDB",
"n. c #BEDCDC",
"m. c #BFDCDC",
"M. c #C0C0C0",
"N. c #C1C1C1",
"B. c gray76",
"V. c #C3C3C3",
"C. c gray77",
"Z. c #C5C5C5",
"A. c #C6C6C6",
"S. c gray78",
"D. c #C8C8C8",
"F. c #C8C9C9",
"G. c gray79",
"H. c #CBCBCB",
"J. c gray80",
"K. c #CDCDCD",
"L. c #CECECE",
"P. c gray81",
"I. c #D0CCCC",
"U. c #D0CECE",
"Y. c #C0DDDD",
"T. c #C0DEDE",
"R. c #C2DFDF",
"E. c #D0D0D0",
"W. c #D0D1D1",
"Q. c gray82",
"!. c #D3D1D1",
"~. c #D1D2D2",
"^. c #D2D2D2",
"/. c LightGray",
"(. c gray83",
"). c #D5D5D5",
"_. c #D6D4D4",
"`. c gray84",
"'. c #D7D7D7",
"]. c #D8D6D6",
"[. c #D9D7D7",
"{. c #D8D8D8",
"}. c #D8D9D9",
"|. c gray85",
" X c #DBD9D9",
".X c #DADADA",
"XX c gray86",
"oX c gainsboro",
"OX c #DDDDDD",
"+X c gray87",
"@X c #DFDFDF",
"#X c #C9E6E6",
"$X c #CBE9E9",
"%X c #CCE9E9",
"&X c #CDEAEA",
"*X c #CEEBEB",
"=X c #CEECEC",
"-X c #CFECEC",
";X c #CFEDED",
":X c #D4F1F1",
">X c #D7F5F5",
",X c #DCFAFA",
"<X c #DEFFFF",
"1X c #DFFFFF",
"2X c gray88",
"3X c #E1E1E1",
"4X c #E2E2E2",
"5X c gray89",
"6X c #E4E4E4",
"7X c gray90",
"8X c #E6E6E6",
"9X c #E7E7E7",
"0X c #E8E4E4",
"qX c gray91",
"wX c #E9E9E9",
"eX c #EAE8E8",
"rX c gray92",
"tX c #ECECEC",
"yX c gray93",
"uX c #EFEDED",
"iX c #EFEFEF",
"pX c #F1EFEF",
"aX c LightCyan",
"sX c #E1FFFF",
"dX c #E2FFFF",
"fX c #E3FFFF",
"gX c #E5FFFF",
"hX c #E9FFFF",
"jX c #EAFFFF",
"kX c #EBFFFF",
"lX c gray94",
"zX c gray95",
"xX c #F3F3F3",
"cX c #F4F2F2",
"vX c #F5F3F3",
"bX c #F4F4F4",
"nX c gray96",
"mX c #F6F4F4",
"MX c #F7F5F5",
"NX c #F9F7F7",
"BX c #F2FFFF",
"VX c #F3FFFF",
"CX c #F4FFFF",
"ZX c #F5FFFF",
"AX c #F6FFFF",
"SX c #F7FFFF",
"DX c #F8FFFF",
"FX c white",
/* pixels */
"aXaXaXaXaXaXaXaXaXaXaXaXaXaXaXaXaXaXaXaXaXaXaXaXaXaXaXaXaXaXaXaXaXaXaXaXaXaXaXaXaXaXaXaXaXaXaXaXaXaX",
"aXaXaXaXaXaXaXaXaXaXaXaXaXaXaXaXaXaXaXaXaXaXaXaXaXaXaXaXaXaXaXaXaXaXaXaXaXaXaXaXaXaXaXaXaXaXaXaXaXaX",
"aXaX1XsXhXjXjXjXjXjXjXjXjXjXjXjXjXjXjXjXjXjXjXjXjXjXjXjXjXjXjXjXjXjXjXjXjXjXjXjXjXjXjXjXjXkXgX<XaXaX",
"aXaXaXsX:X%X*X*X*X*X*X*X*X*X*X*X*X*X*X*X*X*X*X*X*X*X*X*X*X*X*X*X*X*X*X*X*X*X*X*X=X=X=X-X=X-X,XdXaXaX",
"aXaXjX>X+ . o o o o o o o o o o o o o o o o o o o o o o o o o o o o o o o o o o o o o o O   @.DXaXaX",
"aXaXkXb.F 0X[.[.[.[.[.[.[.[.[.[.[.[.[.[.[.[.[.[.[.[.[.[.[.[.[.[.[.[.[.[.[.[.[.[.]._.!.U.!.T ..CXaXaX",
"aXaXjXc.,.FXxXbXbXnXnXbXbXbXbXbXbXbXbXbXbXbXbXbXbXbXbXbXbXbXbXbXbXbXbXbXbXbXbXxXzXiXrX9X3X-.+.BXaXaX",
"aXaXjXv.O.NXqXqXqXwXwXqXqXqXqXqXqXqXqXqXqXqXqXqXqXqXqXqXqXqXqXqXqXqXqXqXqXqXqX9X6X3XOXW.Z.n X.VXaXaX",
"aXaXjXv.o.MX8X9X9X8X8X8X7X7X7X7X7X7X7X7X7X7X7X7X7X7X7X7X7X7X7X7X7X7X7X7X7X7X7X5X2XOXQ.x.u.e X.ZXaXaX",
"aXaXjXv.o.mX7X6X7X6X4X4X4X4X4X4X4X4X4X4X4X4X4X4X4X4X4X4X4X4X3X8XiXlXiXlXtX5X2X@XoX/.B.r.3.3 X.ZXaXaX",
"aXaXjXb.} vX6X5X4X3X@X@X@X+X+X+X+X+X+X+X+X+X+X+X+X+X+X+X+XOX7XXXg.u.s.u.S.7X2XoX).A.p.1.&.< X.ZXaXaX",
"aXaXjXb.} vX5X4X3X@X+XoXoXoXXXXXXXXXXXXXXXXXXXXXXXXXXXXXXX2X|._ 0 u i t i g.5X{.K.z.w.*.` > X.AXaXaX",
"aXaXjXb.} vX5X4X2X+XOXXX.X.X.X.X.X.X.X.X.X.X.X.X.X.X.X.X.X8Xg.t A S S D l G '.`.S.g.5.| ^ : X.AXaXaX",
"aXaXjXb.} vX5X4X2XOXXX.X|.|.|.|.|.|.|.|.|.|.|.|.|.|.|.|.|.8Xu.p S S S S N G Q.(.Z.f.4.{ ! : X.AXaXaX",
"aXaXjXb.} vX5X4X2X+XXX.X|.|.|.|.|.|.|.|.|.|.|.|.|.|.|.|.|.7Xs.a S S S S N L ^./.Z.f.4.{ ! : X.AXaXaX",
"aXaXjXb.} vX5X4X2X+XXX.X|.|.|.|.|.|.|.|.|.|.|.|.|.|.|.|.|.7Xp.a S S S S N J ^./.Z.f.4.{ ! : X.AXaXaX",
"aXaXjXb.} vX5X4X2X+XXX.X|.|.|.|.|.|.|.|.|.|.|.|.|.|.|.|.|.7Xp.i S S S S M S ^./.Z.f.4.{ ! : X.AXaXaX",
"aXaXjXb.} vX5X4X2X+XXX.X|.|.|.|.|.|.|.|.|.|.|.|.|.|.|.{..XqX(.M i c c x 0 1.oXQ.Z.f.4.{ ! : X.AXaXaX",
"aXaXjXb.} vX5X4X2X+XXX.X|.|.|.|.|.|.|.|.|.|.|.|.|.|.|.XX2XH..XH.*.{ $.{ q.{..XL.Z.f.4.{ ! : X.AXaXaX",
"aXaXjXb.} vX5X4X2X+XXX.X|.|.|.|.|.|.|.|.|.|.|.|.|.|..X8Xl.u ! 5X5XXXXXXX4X+X(.P.Z.f.4.{ ! : X.AXaXaX",
"aXaXjXb.} vX5X4X2X+XXX.X|.|.|.|.|.|.|.|.|.|.|.|.|.|.8XS.x 6 | +X+XoXoXoX.X|.).P.Z.f.4.{ ! : X.AXaXaX",
"aXaXjXb.} vX5X4X2X+XXX.X|.|.|.|.|.|.|.|.|.|.|.|.{.7XE.V 0 I `.@X|.|.|.|.|.|.).P.Z.f.4.{ ! : X.AXaXaX",
"aXaXjXb.} vX5X4X2X+XXX.X|.|.|.|.|.|.|.|.|.|.|.{.5X{.J 0 C Q.7X{.|.|.|.|.|.|.).P.Z.f.4.{ ! : X.AXaXaX",
"aXaXjXb.} vX5X4X2X+XXX.X|.|.|.|.|.|.|.|.|.|.{.2XOX_ 0 c G.8X|.|.|.|.|.|.|.|.).P.Z.f.4.{ ! : X.AXaXaX",
"aXaXjXb.} vX5X4X2X+XXX.X|.|.|.|.|.|.|.|.|.{.@X4X>.r g z.9X|.|.|.|.|.|.|.|.|.).P.Z.f.4.{ ! : X.AXaXaX",
"aXaXjXb.} vX5X4X2X+XXX.X|.|.|.|.|.|.|.|.{.oX7Xq.t i u.8XXX|.|.|.|.|.|.|.|.|.).P.Z.f.4.{ ! : X.AXaXaX",
"aXaXjXb.} vX5X4X2X+XXX.X|.|.|.|.|.|.|.|.XX9Xf.p t 5.6XOX{.|.|.|.|.|.|.|.|.|.).P.Z.f.4.{ ! : X.AXaXaX",
"aXaXjXb.} vX5X4X2X+XXX.X|.|.|.|.|.|.|.|.9XB.j r *.3X@X{.|.|.|.|.|.|.|.|.|.|.).P.Z.f.4.{ ! : X.AXaXaX",
"aXaXjXb.} vX5X4X2X+XXX.X|.|.|.|.|.|.{.6XH.b 0 W oX3X{.|.|.|.|.|.|.|.|.|.|.|.).P.Z.f.4.{ ! : X.AXaXaX",
"aXaXjXb.} vX5X4X2X+XXX.X|.|.XXoXoXoX2XP.S 8 G ).5X{.|.|.|.|.|.|.|.|.|.|.|.|.).P.Z.f.4.{ ! : X.AXaXaX",
"aXaXjXb.} vX5X4X2X+XXX.X|.4X@XXXXXoXyXC.4 c L.7X{.|.|.|.|.|.|.|.|.|.|.|.|.|.).P.Z.f.4.{ ! : X.AXaXaX",
"aXaXjXb.} vX5X4X2X+XXX.X3XZ.%.| $.{ r.|.l.D.5X|.|.|.|.|.|.|.|.|.|.|.|.|.|.|.).P.Z.f.4.{ ! : X.AXaXaX",
"aXaXjXb.} vX5X4X2X+XXX4XH.x p c c l 8 q.yX4X{.|.|.|.|.|.|.|.|.|.|.|.|.|.|.|.).P.Z.f.4.{ ! : X.AXaXaX",
"aXaXjXb.} vX5X4X2X+XXX9Xt.u D S S S b J '.OX|.|.|.|.|.|.|.|.|.|.|.|.|.|.|.|.).P.Z.f.4.{ ! : X.AXaXaX",
"aXaXjXb.} vX5X4X2X+XXX8Xy.i S S S S M L `.OX|.|.|.|.|.|.|.|.|.|.|.|.|.|.|.|.).P.Z.f.4.{ ! : X.AXaXaX",
"aXaXjXb.} vX5X4X2X+XXX8Xu.p S S S S M I `.OX|.|.|.|.|.|.|.|.|.|.|.|.|.|.|.|.).P.Z.f.4.{ ! : X.AXaXaX",
"aXaXjXb.} vX5X3X2X+XXX9Xt.p S S S S M L ).OX|.|.|.|.|.|.|.|.|.|.|.|.|.|.|.|.`.P.Z.f.4.{ ! : X.AXaXaX",
"aXaXjXb.} vX5X2X@XOXXX8Xp.u A S S S l R {..X'.'.'.'.'.'.'.'.'.'.'.'.'.'.'.'./.K.V.a.2.' ~ : X.AXaXaX",
"aXaXjXb.[ cX4X2X+XoX|.{.K.R g l x j l s.}.~.Q.Q.Q.Q.Q.Q.Q.Q.Q.Q.Q.Q.Q.Q.Q.E.K.S.l.t.<.` Q : X.AXaXaX",
"aXaXjXb.[ cX3X+XoX`.L.F.K.C.8.4.5.3.s.J.S.A.A.A.A.A.A.A.A.A.A.A.A.A.A.A.A.A.V.l.s.9.*.! R ; X.AXaXaX",
"aXaXjXn.] pX+XoX^.S.M.j.f.k.N.B.B.B.z.f.s.d.d.d.d.d.d.d.d.d.d.d.d.d.d.d.d.f.i.e.6.:.` P U ; X.AXaXaX",
"aXaXjXn.` uX.XP.N.u.0.2.<.>.>.>.>.>.>.>.>.>.>.>.>.>.>.>.>.>.>.>.>.>.>.>.>.>.;.&.] Q K S G - X.AXaXaX",
"aXaXjXm.) eXK.k.q.=.( Y I L L L L L L L L L L L L L L L L L L L L L L L L L J G S C M m C % X.AXaXaX",
"aXaXjXT.E  Xh.8.' H B v x x x x x x x x x x x x x x x x x x x x x x x x x x z k h g f g m # X.AXaXaX",
"aXaXkXY.Z I.7./ Z d y q 9 9 9 9 9 9 9 9 9 9 9 9 9 9 9 9 9 9 9 9 9 9 9 9 9 9 7 7 7 9 9 w s @  .SXaXaX",
"aXaXjX;X2 u 5 1 , * & $ $ $ $ $ $ $ $ $ $ $ $ $ $ $ $ $ $ $ $ $ $ $ $ $ $ $ $ $ $ & & * = X #.SXaXaX",
"aXaXaXfX-XR.#X$X&X=X-X;X;X;X;X;X;X;X;X;X;X;X;X;X;X;X;X;X;X;X;X;X;X;X;X;X;X;X;X;X;X-X-X-X*X*X,XdXaXaX",
"aXaX1XsXhXjXjXjXjXjXjXjXjXjXjXjXjXjXjXjXjXjXjXjXjXjXjXjXjXjXjXjXjXjXjXjXjXjXjXjXjXjXjXjXjXkXgX<XaXaX",
"aXaXaXaXaXaXaXaXaXaXaXaXaXaXaXaXaXaXaXaXaXaXaXaXaXaXaXaXaXaXaXaXaXaXaXaXaXaXaXaXaXaXaXaXaXaXaXaXaXaX",
"aXaXaXaXaXaXaXaXaXaXaXaXaXaXaXaXaXaXaXaXaXaXaXaXaXaXaXaXaXaXaXaXaXaXaXaXaXaXaXaXaXaXaXaXaXaXaXaXaXaX"
};
