/* XPM */
static const char *endSegmentPressed_xpm[] = {
/* columns rows colors chars-per-pixel */
"50 50 136 2 ",
"   c #000001",
".  c #05070A",
"X  c #06080A",
"o  c #0D0B0C",
"O  c #100E0F",
"+  c #110F10",
"@  c #141414",
"#  c #1C1B1A",
"$  c #201E1D",
"%  c #272220",
"&  c #282421",
"*  c #2D2926",
"=  c #302C29",
"-  c #36322D",
";  c #393433",
":  c #433B35",
">  c #463F38",
",  c #493F38",
"<  c #543F31",
"1  c #49423B",
"2  c #484747",
"3  c #584F45",
"4  c #5A5147",
"5  c #5D534D",
"6  c #515251",
"7  c #585A5A",
"8  c #665445",
"9  c #6B5747",
"0  c #66594F",
"q  c #6B5D4F",
"w  c #665E55",
"e  c #6C5E50",
"r  c #6B6154",
"t  c #67635C",
"y  c #68635B",
"u  c #756455",
"i  c #796656",
"p  c #7A6957",
"a  c #776658",
"s  c #776B5D",
"d  c #7D6C5A",
"f  c #656561",
"g  c #7F6F61",
"h  c #7F7161",
"j  c #76716B",
"k  c #79746E",
"l  c #856F5A",
"z  c #827464",
"x  c #877866",
"c  c #867768",
"v  c #877868",
"b  c #8B7C6B",
"n  c #8E806F",
"m  c #91816F",
"M  c #948372",
"N  c #988775",
"B  c #9B8A76",
"V  c #978978",
"C  c #9E8D7A",
"Z  c #A18F7C",
"A  c #A3917E",
"S  c #9C8F81",
"D  c #9F9181",
"F  c #A39484",
"G  c #AB9782",
"H  c #AF9C86",
"J  c #A29688",
"K  c #A6998A",
"L  c #AA9B8C",
"P  c #B19D87",
"I  c #B39F89",
"U  c #92A09F",
"Y  c #B4A08A",
"T  c #BBA68F",
"R  c #B3A493",
"E  c #BCA790",
"W  c #B3AB93",
"Q  c #BBAA96",
"!  c #B7A998",
"~  c #BCAB98",
"^  c #97A6A5",
"/  c #98A7A6",
"(  c #99AAAA",
")  c #C5AE96",
"_  c #C7B097",
"`  c #C6B199",
"'  c #C9B199",
"]  c #D0B89F",
"[  c #C5B4A1",
"{  c #C8B6A3",
"}  c #CAB9A6",
"|  c #D6BDA3",
" . c #D8BEA4",
".. c #D1BDA8",
"X. c #D6C2A7",
"o. c #DAC1A6",
"O. c #D5C1AC",
"+. c #DDC4AA",
"@. c #DDC9AD",
"#. c #DAC6B2",
"$. c #DDC9B4",
"%. c #E1C7AB",
"&. c #E4CAAD",
"*. c #E8CBAF",
"=. c #E3CCB3",
"-. c #EACEB2",
";. c #EED2B5",
":. c #E6D2BB",
">. c #EDD6BD",
",. c #F0D4B7",
"<. c #F2D6B8",
"1. c #F6DABC",
"2. c #FBDEBF",
"3. c #ECD7C0",
"4. c #F6DDC3",
"5. c #FBDFC1",
"6. c #F3E2C2",
"7. c #FBE1C4",
"8. c #FFE8C7",
"9. c #FFEACB",
"0. c #FFF0CF",
"q. c #FFF3D2",
"w. c #FFF9D6",
"e. c #FFFEDB",
"r. c #CAE9EC",
"t. c #CFEFF2",
"y. c #D0EFF2",
"u. c #D5F3F5",
"i. c #D8F6F6",
"p. c #DEFDFD",
"a. c #FFFFE2",
"s. c #FFFFEC",
"d. c #E0FFFF",
"f. c #EAFFFF",
"g. c #F5FFFF",
"h. c #F9FFFF",
/* pixels */
"d.d.d.d.d.d.d.d.d.d.d.d.d.d.d.d.d.d.d.d.d.d.d.d.d.d.d.d.d.d.d.d.d.d.d.d.d.d.d.d.d.d.d.d.d.d.d.d.d.d.",
"d.d.d.d.d.d.d.d.d.d.d.d.d.d.d.d.d.d.d.d.d.d.d.d.d.d.d.d.d.d.d.d.d.d.d.d.d.d.d.d.d.d.d.d.d.d.d.d.d.d.",
"d.d.p.d.f.f.f.f.f.f.f.f.f.f.f.f.f.f.f.f.f.f.f.f.f.f.f.f.f.f.f.f.f.f.f.f.f.f.f.f.f.f.f.f.f.f.f.p.d.d.",
"d.d.d.d.i.u.u.u.u.u.u.u.u.u.u.u.u.u.u.u.u.i.u.u.u.u.u.u.u.u.u.u.u.u.u.u.u.u.u.u.i.i.u.u.u.y.p.d.d.d.",
"d.d.f.u.7 2 6 6 6 6 6 6 6 6 6 6 6 6 6 6 6 6 6 6 6 6 6 6 6 6 6 6 6 6 6 6 6 6 6 6 6 6 6 6 6 ; ( h.d.d.",
"d.d.f.u.5 8 e e q q q q q q q q q q q q q q q q q q q q q q q q q q q q q q q q q q q e u < U h.d.d.",
"d.d.f.t.t i s d d z z z z z z z z x z z z z z x z z x z z x z z z z z z z z z z z g h z x 9 ^ g.d.d.",
"d.d.f.t.t u g h z x x b b b b b b b b b b b b b b b b b b b b b m b b b b b b x x x x z b q ^ g.d.d.",
"d.d.f.u.y i h z b M N B Z Z C Z C C Z Z Z C C Z Z Z Z C Z C C Z Z C C Z C Z C C N M M M M u ^ g.d.d.",
"d.d.f.t.t p z b N A H P I Y I Y Y Y Y Y Y Y Y Y Y Y Y Y Y Y Y Y Y Y Y Y Y Y Y Y H G C V C a ^ g.d.d.",
"d.d.f.t.y d x b A P T ) _ _ _ _ _ _ _ _ _ _ _ _ _ _ _ _ _ ) ' &.;.-.-.&.' _ ' ' ) E L F D a ^ g.d.d.",
"d.p.f.t.y d x N G E ' ' |  . . .o.] o.o.]  .| o. .|  . .] %.&.m r a r M *.&.+.+.| ` R L D a ^ g.d.d.",
"d.d.f.t.y d b N G ) ] o.%.&.&.&.*.&.&.*.&.&.&.&.&.&.&.&.-.2.d           g 7.,.;.#.} ! K F a ^ g.d.d.",
"d.d.f.t.y d b B H ) | @.*.;.;.<.,.,.,.,.;.<.<.<.<.,.<.;.5.*.#   @ @ @   @ ;.8.<.-...) L F a ^ g.d.d.",
"d.d.f.t.y d b B H ) | %.;.<.1.1.1.1.1.1.1.1.1.1.1.1.1.1.8.&.# . @ @ @ X # ;.9.>.=...! L D a ^ g.d.d.",
"d.d.f.t.y d b B H _ | %.;.1.1.2.2.2.2.2.1.2.2.2.5.5.2.2.9.&.# . @ @ @ . $ >.9.>.=.| Q L F a ^ g.d.d.",
"d.d.f.t.r d b B P _ ] &.,.1.2.2.2.2.2.2.5.2.2.2.2.2.2.2.0.*.@ X @ @ @ X @ >.9.3.=...~ L F a ^ g.d.d.",
"d.p.f.t.t d b B P _  .*.,.1.1.2.2.2.2.2.2.2.2.2.5.2.2.2.9.2.#   @ @ +   # 1.9.<.=...~ L F a ^ g.d.d.",
"d.d.f.t.t d b B P ) ] *.,.1.2.2.2.2.2.2.2.2.2.2.2.2.2.5.w.a.A           V w.5.>.=...~ K F a ^ g.d.d.",
"d.d.f.t.t d b B P ) ] %.;.1.1.2.2.2.2.2.2.2.2.2.2.2.5.w.G w >.X.B C B _ q.8.4.>.=...~ L F a ^ g.d.d.",
"d.d.f.t.y d b B P _ ] *.;.1.1.2.2.2.5.2.2.2.2.2.2.2.e.`     H s.e.e.e.0.7.7.4.<.=...~ L G u ^ g.d.d.",
"d.d.f.t.y d b B A _ ] *.,.1.2.2.2.2.2.2.2.2.2.2.2.e.@.o   : 6.8.2.2.2.2.7.7.4.>.=...~ L F a ^ g.d.d.",
"d.d.f.t.y d b B P _ ] *.;.1.2.2.2.2.2.2.2.5.2.2.w.1.%   & 1.q.2.2.2.2.2.2.7.4.>.=...~ L F a ^ g.d.d.",
"d.d.f.t.r d b B P _ ] *.,.1.1.2.2.2.2.5.2.2.2.0.0.;   @ @.e.1.2.2.2.2.2.5.7.4.>.=...~ L F a ^ g.d.d.",
"d.d.f.t.y d b B P ) ] &.,.1.2.2.2.2.2.2.2.2.9.w.5     ` e.2.2.2.2.2.2.2.2.7.4.4.=...~ G J a ^ g.d.d.",
"d.d.f.t.y d x B P ) ] *.,.1.2.2.2.2.2.2.2.7.e.z     G e.7.2.2.2.2.2.7.2.7.7.4.<.=...~ L F a ^ g.d.d.",
"d.d.f.t.y d b B P ) ] &.,.1.2.2.7.2.2.2.2.e.Z     x e.7.2.2.2.2.2.2.2.2.2.7.1.>.=...~ L F u ^ g.d.d.",
"d.d.f.t.y d b B P _ o.&.;.1.1.2.2.2.5.2.e.Q     0 e.9.2.2.2.5.2.5.2.2.2.7.7.5.>.=...Q L J u ^ g.d.d.",
"d.d.f.t.y l x B H ) ] &.;.1.2.5.2.2.2.w.X.o   1 0.0.2.2.2.2.2.2.2.2.2.2.7.7.4.>.=...~ L F a ^ g.d.d.",
"d.p.f.u.y d b B P ) ] *.;.1.2.8.8.8.0.=.#   * 6.q.2.2.2.2.2.2.2.2.2.5.2.5.7.5.<.=...~ L F a ^ g.d.d.",
"d.d.f.r.t d b B H ) ] %.;.8.0.2.5.5.a.|   + &.e.2.2.2.2.2.2.7.2.2.2.2.2.5.7.4.>.-...~ L F a ^ g.d.d.",
"d.d.f.t.t d b B P _ o.@.8.%.4 = - * 4 =.W | w.2.2.2.2.2.2.2.2.2.2.5.2.5.5.5.4.>.=...~ L F a ^ g.d.d.",
"d.d.f.t.y d x B P ) ] ,.2.1     .     1 a.w.1.2.2.2.2.5.2.2.2.2.2.2.2.5.5.7.4.3.=...~ L G a ^ g.d.d.",
"d.d.f.t.y d b B P ) ] <.&.@ X @ @ @ . @ -.9.5.2.2.2.2.2.2.2.5.2.2.2.2.2.5.7.4.4.=...~ L D a ^ g.d.d.",
"d.d.f.t.t d b B P ) ] ,.&.# X @ @ + . # =.9.5.5.2.2.2.2.5.5.5.5.2.2.2.5.5.5.4.3.=...~ L F a ^ g.d.d.",
"d.d.f.t.t d b B H )  .1.-.# X @ @ @ . # -.9.5.5.7.2.2.7.5.5.5.5.5.2.5.5.5.5.4.<.=...~ L F a ^ g.d.d.",
"d.d.f.t.y d b B H _  .1.&.@ X @ @ @ . + :.q.4.4.7.7.7.7.7.7.7.7.7.7.7.7.7.7.4.3.=...Q L F a ^ g.d.d.",
"d.d.f.t.y d b N H _ o.1.8.-   X . . . - 9.9.9.4.7.7.4.5.4.7.4.5.5.7.7.4.7.7.4.3.=.} ) L F a ^ g.d.d.",
"d.d.f.t.y d b N H )  .-.9...- @ $ @ ; } 9.4.4.4.4.4.4.4.4.4.4.4.5.4.4.5.4.4.3.3.=.} ! K F a ^ g.d.d.",
"d.d.f.y.y d x M G ) | &.:.9.4.$.3...4.7.3.3.3.3.>.>.:.>.3.3.3.:.3.:.3.:.3.3.3.$.O.{ R K D a ^ g.d.d.",
"d.d.f.y.y d v M G T { O.#.$.:.>.3.3.3.$.$.$.$.$.$.$.$.$.$.$.=.$.$.$.$.$.$.$.#.O.} ) R J S a / g.d.d.",
"d.d.f.y.y p c b Z L ~ [ } } } } } } { { } } } } } } } } } } } } } } } } } } } { ~ R L D S a ^ g.d.p.",
"d.d.f.y.y p x b C K R R ! ! ! ! ! ! ! Q ! ! ! ! ! ! ! ! ! ! ! ! ! ! ! ! ! ! R R R L D S S a / g.d.d.",
"d.d.f.y.y d c M S F J L L L L L L L L L L L L L L L L L L L L L L L L L L L L K K K D S S a ^ g.d.d.",
"d.d.f.r.w l b N S D D G J J F F F F F F F F F F J J J J F F F F K J J F J F F F F D D C S i ^ g.d.d.",
"d.d.f.u.f y k k k k k k k k k k k k k k k k k k k k k k k k k k k k k k k j k k k k k k k 5 ( g.d.d.",
"d.d.d.d.u.r.r.r.r.r.r.r.r.r.r.r.r.r.r.r.r.r.r.r.r.r.r.r.r.r.r.r.r.r.r.r.r.r.r.r.r.r.r.r.r.r.i.f.d.d.",
"d.d.d.d.f.f.f.f.f.f.f.f.f.f.f.f.f.f.f.f.f.f.f.f.f.f.f.f.f.f.f.f.f.f.f.f.f.f.f.f.f.f.f.f.f.f.f.p.d.d.",
"d.d.d.d.d.d.d.d.d.d.d.d.d.d.d.d.d.d.d.d.d.d.d.d.d.d.d.d.d.d.d.d.p.p.d.d.d.d.d.d.d.d.d.d.d.d.d.d.d.d.",
"d.d.d.d.d.d.d.d.d.d.d.d.d.d.d.d.d.d.d.d.d.d.d.d.d.d.d.d.d.d.d.d.d.d.d.d.d.d.d.d.d.d.d.d.d.d.d.d.d.d."
};
