/* XPM */
static const char *endSegmentMouseOver_xpm[] = {
/* columns rows colors chars-per-pixel */
"50 50 169 2 ",
"   c #000001",
".  c #040609",
"X  c #06090B",
"o  c #0E0C0D",
"O  c #100F10",
"+  c #0F1011",
"@  c #141414",
"#  c #1B1917",
"$  c #1C1B1A",
"%  c #201E1C",
"&  c #24211E",
"*  c #262320",
"=  c #282521",
"-  c #332C27",
";  c #342F2A",
":  c #3A322B",
">  c #3E3730",
",  c #423A32",
"<  c #4E4238",
"1  c #4B4136",
"2  c #55473D",
"3  c #4F3D46",
"4  c #514F4F",
"5  c #5D5044",
"6  c #4E5B51",
"7  c #525752",
"8  c #525852",
"9  c #644B4C",
"0  c #69594B",
"q  c #6E5F50",
"w  c #7E5450",
"e  c #666455",
"r  c #686656",
"t  c #6C6959",
"y  c #736353",
"u  c #796857",
"i  c #7E6C58",
"p  c #716D5C",
"a  c #6A715F",
"s  c #7E6F60",
"d  c #777260",
"f  c #7D7764",
"g  c #815652",
"h  c #885151",
"j  c #8A5E59",
"k  c #855A55",
"l  c #856756",
"z  c #8E615B",
"x  c #816F5B",
"c  c #8C6C5A",
"v  c #92655E",
"b  c #85735D",
"n  c #88755F",
"m  c #91715E",
"M  c #956760",
"N  c #966861",
"B  c #9A6B64",
"V  c #857462",
"C  c #8A7662",
"Z  c #8D7963",
"A  c #8E7C6A",
"S  c #957561",
"D  c #927D66",
"F  c #917D68",
"G  c #9C7A66",
"H  c #A07169",
"J  c #A8776E",
"K  c #559668",
"L  c #539968",
"P  c #539466",
"I  c #37C46E",
"U  c #38C36C",
"Y  c #39C671",
"T  c #3DC974",
"R  c #44CF79",
"E  c #4BD47C",
"W  c #46D17A",
"Q  c #51D97E",
"!  c #968067",
"~  c #968068",
"^  c #9C856D",
"/  c #988472",
"(  c #998F78",
")  c #978C74",
"_  c #A0886E",
"`  c #A3816B",
"'  c #A58C72",
"]  c #AB8C73",
"[  c #B38075",
"{  c #BE8A7C",
"}  c #AB9176",
"|  c #AC9378",
" . c #A0947C",
".. c #B1977B",
"X. c #B59A7E",
"o. c #BA937B",
"O. c #55DC81",
"+. c #57E585",
"@. c #58E786",
"#. c #57EA87",
"$. c #5BE887",
"%. c #58EF89",
"&. c #58F089",
"*. c #54FC8D",
"=. c #59FD8F",
"-. c #9E9085",
";. c #A29A86",
":. c #A29C89",
">. c #B79D80",
",. c #B99E82",
"<. c #BCA083",
"1. c #BDA588",
"2. c #A9A290",
"3. c #CF8E86",
"4. c #D49C8B",
"5. c #C1A587",
"6. c #C3A789",
"7. c #C5AA8B",
"8. c #CBAD8D",
"9. c #C9A185",
"0. c #C8AF90",
"q. c #CFB090",
"w. c #D3B494",
"e. c #D9B997",
"r. c #D7BC9A",
"t. c #DBBA98",
"y. c #E1BF9D",
"u. c #EBBD9D",
"i. c #F4BA9C",
"p. c #DBC09D",
"a. c #E3C29E",
"s. c #E5C4A0",
"d. c #ECC4A2",
"f. c #E7CBA6",
"g. c #EECAA5",
"h. c #E9CEA8",
"j. c #F0CCA6",
"k. c #FBCAA7",
"l. c #F2CEA9",
"z. c #ECD0AA",
"x. c #F5D1AA",
"c. c #FAD5AE",
"v. c #F1CEB9",
"b. c #F1CBB4",
"n. c #ECD3B0",
"m. c #F1D4B1",
"M. c #FAD6B1",
"N. c #F7DDB4",
"B. c #FBD9B4",
"V. c #FBDCBB",
"C. c #F2D1BD",
"Z. c #FFE1B7",
"A. c #FEE4BB",
"S. c #FFEABE",
"D. c #F2D3C2",
"F. c #FBDFC1",
"G. c #FBE1C4",
"H. c #FFECC2",
"J. c #FCE3C8",
"K. c #FFEDCD",
"L. c #FFF2C5",
"P. c #FFF6C9",
"I. c #FFF9CB",
"U. c #FFEED4",
"Y. c #F5E1D2",
"T. c #FFF4D4",
"R. c #FFF3DA",
"E. c #FFFFDA",
"W. c #FFFFE7",
/* pixels */
"+.+.+.+.+.+.+.+.+.+.+.+.+.+.+.+.+.+.+.+.@.@.+.+.+.+.%.$.Q $.Q %.+.+.+.+.+.+.+.+.+.+.+.+.+.+.+.+.+.+.",
"+.+.+.+.+.+.+.+.+.+.+.+.+.+.+.+.+.+.+.+.$.Q +.+.+.+.Q %.%.$.Q $.+.+.+.+.+.+.$.Q +.+.+.+.+.+.+.+.+.+.",
"+.+.+.+.%.%.%.%.%.%.#.#.%.%.%.%.%.$.%.%.%.%.%.%.&.%.%.Q %.%.&.&.%.%.%.%.%.%.%.%.%.%.&.&.%.&.@.+.+.+.",
"+.+.+.@.Q W E E E E W O.E W E W E E E E E E W E E E E E E E E Q W E E E E E E W E E E E E E +.@.+.+.",
"+.+.%.O.6 4 7 7 8 8 8 8 7 7 7 7 7 7 8 8 8 8 8 8 7 7 7 7 7 8 8 8 7 8 8 8 8 8 8 8 7 7 7 7 7 3 L =.+.+.",
"+.+.%.U -.Y.D.D.D.D.D.D.D.D.D.D.D.C.D.C.D.D.D.D.D.D.D.D.C.C.D.C.D.D.D.D.D.D.C.C.v.l.l.d.u.3.P *.+.+.",
"+.+.%.U 2.W.U.T.R.U.R.U.U.U.U.U.U.U.U.U.U.U.U.U.U.U.U.U.U.U.T.T.U.U.U.U.T.U.K.K.J.A.Z.c.l.4.K *.+.+.",
"+.+.%.I :.R.J.J.J.J.J.J.J.J.J.J.J.J.J.J.J.J.J.J.J.J.J.J.J.J.J.J.J.J.J.J.G.G.G.V.B.B.j.y.e.{ K *.+.+.",
"+.+.%.U ;.R.J.J.J.J.F.J.F.F.F.F.G.G.G.G.G.G.F.F.G.F.G.F.G.F.G.F.F.G.G.F.G.F.V.V.M.l.a.w.8.[ L *.+.+.",
"+.+.%.U ;.T.G.F.F.F.F.F.F.V.F.V.V.V.V.V.V.V.F.V.V.V.V.V.V.F.V.K.E.E.E.E.T.V.B.B.x.a.e.8.<.J L *.+.+.",
"+.+.%.U :.T.G.G.F.V.V.V.V.V.V.V.V.B.C.V.V.V.V.V.V.V.V.V.V.V.J.m.A V V s <.J.Z.x.g.p.8.<.X.H L *.+.+.",
"+.+.%.U ;.U.V.V.V.V.V.B.M.V.M.B.N.B.B.B.B.B.B.B.B.B.M.B.M.A.n.;           A S.x.a.e.8.X...B L *.+.+.",
"+.+.%.I -.T.G.V.V.B.B.B.B.M.M.M.M.M.B.M.M.M.B.M.B.M.B.M.M.I./   O @ @ @   # j.c.a.w.5...| B K *.+.+.",
"+.+.%.I ;.U.V.V.V.B.M.B.B.m.M.M.M.M.M.M.M.M.M.c.M.c.M.c.M.P.V   @ @ @ @ X # a.c.t.q.X...] m K *.+.+.",
"+.+.%.I ;.K.V.V.B.B.m.M.M.M.c.c.c.c.c.c.c.c.c.c.c.c.c.c.c.P.Z   @ @ @ @ X % a.x.t.q.5.| ' v K *.+.+.",
"+.+.%.I ;.K.V.V.V.B.B.M.M.M.c.c.c.c.c.c.c.c.c.c.c.c.c.c.c.P.C   @ @ @ @ X $ a.x.t.q.X.| } v L *.+.+.",
"+.+.&.I ;.K.V.V.B.B.B.M.c.B.c.c.c.c.c.c.c.c.c.c.c.c.c.c.c.P.Z   @ @ @ # . @ a.l.r.8.X...] m K *.+.+.",
"+.+.%.I ;.K.V.V.B.B.M.M.c.c.c.c.c.c.c.M.c.c.c.c.c.c.c.c.M.I.s..           5 Z.g.e.q.<.| } v K *.+.+.",
"+.+.&.I ;.K.V.V.V.B.B.c.B.c.c.c.c.c.c.c.c.c.c.c.c.c.c.B.S.8.m.0.< , , , y l.c.a.t.8.<.| ' v L *.+.+.",
"+.+.&.I ;.K.V.V.B.B.B.M.c.c.c.c.c.c.c.c.c.c.c.c.c.c.c.I.'   - L.S.B.M.B.L.B.g.a.t.q.X.| } v L *.+.+.",
"+.+.&.I ;.U.V.V.V.B.M.m.c.c.c.c.c.c.c.c.c.c.c.c.c.c.I.1.    , Z.Z.B.B.Z.M.l.g.s.t.8.<.| } v L *.+.+.",
"+.+.%.I ;.K.V.V.B.B.B.M.M.c.c.c.c.c.c.c.c.c.c.c.c.P.r.o   & h.A.c.c.M.M.c.x.g.s.t.8.<.| } v K *.+.+.",
"+.+.%.I ;.K.V.V.C.B.M.M.c.c.c.c.c.M.c.c.c.c.M.c.H.z.&   O p.P.c.c.c.c.c.c.l.g.s.t.8.<.| ' v L =.+.+.",
"+.+.&.I ;.K.V.V.B.B.B.M.B.c.c.M.c.c.c.c.c.c.c.S.Z.:     6.P.c.c.c.c.c.c.c.x.g.s.t.8.<.| ' v L =.+.+.",
"+.+.%.I ;.K.V.V.B.C.B.M.c.c.c.c.c.c.c.c.c.c.A.H.2     ' I.M.c.c.c.M.c.c.c.x.g.s.t.8.<.| ' N L *.+.+.",
"+.+.&.I ;.U.V.V.B.B.B.c.M.c.c.c.c.c.c.c.c.B.P.q     C I.B.c.c.c.c.c.c.c.c.x.g.s.t.8.<.| ] N L *.+.+.",
"+.+.%.I ;.K.V.V.B.B.M.M.M.c.c.c.c.c.c.c.M.P.D     0 L.Z.c.c.c.c.c.c.c.c.x.x.g.s.t.8.<.| ' N L *.+.+.",
"+.+.%.I ;.K.V.V.V.N.M.M.c.c.c.c.c.c.c.c.I...    1 S.A.c.c.c.c.c.c.c.c.c.c.x.g.s.t.8.<.| ' N L *.+.+.",
"+.+.&.I ;.K.V.V.B.B.B.M.M.c.c.c.c.M.c.L.8..   - N.S.c.M.c.c.c.c.M.c.c.c.c.x.g.s.t.8.<.| ' N L *.+.+.",
"+.+.%.I ;.U.V.V.V.B.B.c.c.c.M.Z.Z.B.S.r.@   # f.L.c.c.c.c.c.c.c.c.c.c.c.c.x.g.s.t.8.<.| ' N L *.+.+.",
"+.+.%.I ;.K.V.V.B.B.N.c.M.S.A.B.B.B.E.X.  . w.P.c.c.c.c.c.c.c.c.c.c.c.c.x.x.g.s.t.8.<.| ' N L *.+.+.",
"+.+.&.I ;.K.V.V.B.B.M.Z.S.X.1 , , > b c.( 6.S.c.c.c.c.c.c.c.c.c.c.c.c.c.c.x.g.s.t.8.<.} ' M L *.+.+.",
"+.+.%.I ;.K.V.V.B.B.M.H.0.            y E.H.c.c.c.c.c.c.c.c.c.c.c.c.c.c.c.x.g.a.t.8.<.| ] v L =.+.+.",
"+.+.&.I ;.K.F.V.V.B.M.T.s   @ @ @ @ . $ x.B.c.c.c.c.c.c.c.c.c.c.c.c.c.c.x.x.g.a.t.8.<.| ' v L *.+.+.",
"+.+.%.I ;.K.V.V.B.B.B.I.V   @ @ @ @ X % l.A.c.c.c.c.c.c.c.c.c.c.c.c.c.c.c.x.j.a.t.8.<.| } v L *.+.+.",
"+.+.%.I ;.K.V.V.B.B.M.P.V   @ @ @ @ . * j.Z.c.c.c.c.c.c.c.c.c.c.c.c.c.c.c.x.g.a.r.q.X...} v L *.+.+.",
"+.+.%.I ;.U.V.B.B.B.c.I.b   @ @ @ @ X % g.B.x.c.x.x.c.x.x.x.c.x.x.x.x.x.x.x.g.a.e.8.X.| _ v L =.+.+.",
"+.+.&.I ;.K.V.B.B.c.c.L.V   @ @ @ @   * j.c.j.j.j.g.j.x.j.j.j.x.j.j.j.x.j.a.a.t.q.8.X.} ' v L *.+.+.",
"+.+.%.I ;.K.B.c.c.j.j.c.t.=           D B.a.s.a.a.a.a.a.a.a.a.a.a.a.a.a.a.a.t.w.8.<..._ _ v L =.+.+.",
"+.+.%.I ;.A.c.c.j.s.a.t.l.8.u y y q ' j.y.t.t.e.r.t.t.t.t.t.t.t.r.t.t.t.t.e.q.8.5.X.} ^ ^ z L *.+.+.",
"+.+.%.Y ;.A.l.d.a.t.w.q.8.e.g.g.g.j.y.8.8.8.8.8.8.8.8.8.8.8.8.8.8.8.8.8.7.7.6.,.X.| _ ^ ! j K =.+.+.",
"+.+.%.Y  .B.a.e.w.7.6.<.<.>.X.>.>.>.>.>.>.>.>.>.X.>.>.X.>.>.X.>.X.,.X.X.>.X...| } ^ ! n n l K *.+.+.",
"+.+.%.T ( k.w.7.<.X.| } ' ' ' ' ' ' _ ' ' ' ' _ ' ' ' ' ' _ ' ' ' ' ' ' ' _ ^ ^ ! Z n b n g L *.+.+.",
"+.+.%.T / u.6.>.| ' ^ ~ ! D D D D D D D D D D D D D D D D D D D D D D D D D D Z n b x i x g L *.+.+.",
"+.+.%.T / i.9.>.] ^ G S S m m m C m m m m C m m m m m m C m m m m m m m V C c c c l l l c h P *.+.+.",
"+.+.%.E a A f d p t t e r r e r e 8 e e e e e e e e e e e e e e e e e e e e e e e e e e e 9 L =.+.+.",
"+.+.+.$.O.Y T R E O.O.R W O.E E O.O.W O.E O.O.W W O.E E O.W W O.O.E E E O.W O.W E O.E E Q Q +.@.+.+.",
"+.+.+.+.&.&.&.%.#.#.%.%.%.%.%.%.%.%.#.%.%.#.%.%.%.%.%.%.%.%.%.%.%.%.%.%.#.&.#.%.%.%.%.%.%.&.&.Q +.+.",
"+.+.+.+.+.+.+.+.+.+.+.+.+.+.+.+.+.+.+.+.+.+.+.+.+.+.+.+.+.+.+.+.+.+.+.+.+.+.+.+.+.+.+.+.+.+.+.+.+.+.",
"+.+.+.+.+.+.+.+.+.+.+.+.+.+.+.+.+.+.+.+.+.+.+.+.+.+.+.+.+.+.+.+.+.+.+.+.+.+.+.+.+.+.+.+.+.+.+.+.+.+."
};
