/* XPM */
static const char *FFwdNormal_xpm[] = {
/* columns rows colors chars-per-pixel */
"50 50 166 2 ",
"   c #000101",
".  c #030609",
"X  c #0B0B0C",
"o  c #100F0F",
"O  c #0F0F11",
"+  c #151414",
"@  c #181717",
"#  c #1A1816",
"$  c #1D1B19",
"%  c #211B19",
"&  c #27211F",
"*  c #272421",
"=  c #2B2522",
"-  c #2E2B26",
";  c #362E29",
":  c #3B302A",
">  c #443B33",
",  c #493E36",
"<  c #403A38",
"1  c #494037",
"2  c #494138",
"3  c #55493D",
"4  c #55473C",
"5  c #664F3B",
"6  c #664A33",
"7  c #69513D",
"8  c #564C40",
"9  c #504F4D",
"0  c #595957",
"q  c #585958",
"w  c #635447",
"e  c #6E5640",
"r  c #645648",
"t  c #675A4C",
"y  c #6B5A4C",
"u  c #755B45",
"i  c #7D634B",
"p  c #6F6050",
"a  c #6D655B",
"s  c #746454",
"d  c #7F6750",
"f  c #72695E",
"g  c #7E6C59",
"h  c #746B60",
"j  c #786E62",
"k  c #78736B",
"l  c #7E7366",
"z  c #81654D",
"x  c #846B53",
"c  c #896E55",
"v  c #806E5B",
"b  c #887056",
"n  c #84725D",
"m  c #8B735A",
"M  c #907359",
"N  c #93795E",
"B  c #897560",
"V  c #8D7A63",
"C  c #84786A",
"Z  c #8D7D69",
"A  c #927D66",
"S  c #9A7D62",
"D  c #968067",
"F  c #96816A",
"G  c #9C856D",
"H  c #968471",
"J  c #9D8971",
"K  c #9A8B7A",
"L  c #9F907E",
"P  c #A68567",
"I  c #A4876A",
"U  c #AD8768",
"Y  c #A0886E",
"T  c #A48C72",
"R  c #A88F74",
"E  c #AB9176",
"W  c #AC9479",
"Q  c #AD997E",
"!  c #A49279",
"~  c #BD9776",
"^  c #B1977B",
"/  c #B49A7E",
"(  c #B19273",
")  c #C09F7D",
"_  c #9C9084",
"`  c #AA9986",
"'  c #A99C8C",
"]  c #A69582",
"[  c #B79D80",
"{  c #B99E81",
"}  c #AA9E90",
"|  c #94A19F",
" . c #B7A185",
".. c #BCA183",
"X. c #B0A496",
"o. c #97A6A5",
"O. c #98A6A5",
"+. c #9AA8A7",
"@. c #99AAA9",
"#. c #C1A587",
"$. c #C2A689",
"%. c #C5A98A",
"&. c #CBAD8D",
"*. c #C7AF90",
"=. c #CDAF90",
"-. c #CEB292",
";. c #D3B493",
":. c #D9B997",
">. c #D3BA99",
",. c #DABA98",
"<. c #E2B68C",
"1. c #E2BF9B",
"2. c #E1BB94",
"3. c #D8C29F",
"4. c #E3C19E",
"5. c #DDC4A1",
"6. c #E6C4A0",
"7. c #E9C6A3",
"8. c #EFCBA6",
"9. c #E7CEA9",
"0. c #EACCAA",
"q. c #F0CCA6",
"w. c #F3CEA8",
"e. c #EBD4AD",
"r. c #F6D1AB",
"t. c #FAD4AD",
"y. c #E9CEB3",
"u. c #E9D1BB",
"i. c #F0D7B0",
"p. c #FAD6B1",
"a. c #F3D9B1",
"s. c #FBD9B4",
"d. c #FBDCBB",
"f. c #FEE0B6",
"g. c #FFE4BA",
"h. c #FFEABE",
"j. c #F1E2B9",
"k. c #B7D9DE",
"l. c #BADCE2",
"z. c #BEE1E7",
"x. c #BFE2E8",
"c. c #EBDEC2",
"v. c #FBDFC1",
"b. c #FBE1C4",
"n. c #FFEBC5",
"m. c #FCE3C8",
"M. c #FFECCA",
"N. c #FFF2C5",
"B. c #FFF7C9",
"V. c #FFFACB",
"C. c #FFEED4",
"Z. c #FFF2D2",
"A. c #FFFFD1",
"S. c #FFFFDC",
"D. c #C0E3E8",
"F. c #C6E8ED",
"G. c #CDECED",
"H. c #CEEFF2",
"J. c #CFF0F3",
"K. c #D5F3F4",
"L. c #DEFDFD",
"P. c LightYellow",
"I. c #E0FFFF",
"U. c #EAFFFF",
"Y. c #F5FFFF",
"T. c #F8FFFF",
/* pixels */
"I.I.I.I.I.I.I.I.I.I.I.I.I.I.I.I.I.I.I.I.I.I.I.I.I.I.I.I.I.I.I.I.I.I.I.I.I.I.I.I.I.I.I.L.L.I.I.I.I.I.",
"I.I.I.I.I.I.I.I.I.I.I.I.I.I.I.I.I.I.I.I.I.I.I.I.I.I.I.I.I.I.I.I.L.L.I.I.I.I.I.I.I.I.I.I.I.L.I.I.I.I.",
"I.I.L.I.U.U.U.U.U.U.U.U.U.U.U.U.U.U.U.U.Y.U.U.U.U.U.U.U.U.U.U.U.U.U.U.U.U.U.U.U.U.U.U.U.U.U.U.L.I.I.",
"I.I.I.I.K.G.G.G.G.G.G.F.G.G.G.G.G.G.G.G.G.G.F.F.F.G.G.G.G.G.G.G.G.G.G.G.G.G.G.G.G.G.H.G.G.G.L.I.I.I.",
"I.I.U.K.q 9 0 0 q q q q q q q 0 0 0 q q q q q q q q q q 0 q q q 0 0 0 0 q q q q 0 0 0 0 0 < o.T.I.I.",
"I.I.U.l._ c.u.u.c.c.u.u.u.u.u.u.u.u.c.c.u.u.u.c.u.y.c.c.y.u.u.u.u.u.u.u.u.u.u.y.y.0.7.4.1.U | Y.I.I.",
"I.I.U.k.X.P.Z.C.C.C.C.C.C.C.C.C.C.C.C.C.m.C.C.C.m.C.C.C.C.C.C.C.C.C.C.C.C.C.C.M.m.h.s.t.w.) O.Y.I.I.",
"I.I.U.l.} C.m.m.m.m.m.m.m.m.m.m.v.v.m.v.m.m.m.m.m.m.m.m.m.v.m.v.m.m.m.m.m.b.b.d.d.t.q.1.,.P O.Y.I.I.",
"I.I.U.l.} Z.m.m.m.b.b.b.v.b.b.v.v.v.v.v.v.b.v.v.m.v.v.v.v.v.v.v.b.b.b.b.b.b.d.d.p.r.4.;.&.N o.Y.I.I.",
"I.I.U.l.} M.b.b.v.v.v.v.v.d.d.v.v.v.v.d.d.v.d.d.v.v.v.v.v.v.v.v.d.d.d.d.d.d.s.p.t.4.:.%.#.M o.Y.I.I.",
"I.I.U.l.' M.v.v.d.d.d.d.d.d.d.d.d.d.d.s.d.d.d.d.v.v.p.v.v.v.p.v.d.d.d.d.s.s.p.t.q.,.;./ / c O.Y.I.I.",
"I.I.U.k.' M.v.v.d.d.d.d.p.d.p.p.p.p.d.p.s.s.s.s.p.p.p.p.p.p.p.p.s.s.p.s.s.p.t.0.4.:.&./ ^ z O.Y.I.I.",
"I.I.U.l.' M.d.d.d.d.p.d.p.p.p.p.p.p.p.p.p.p.p.p.p.p.p.p.t.p.p.p.p.p.p.p.t.t.r.8.1.;.../ E z O.Y.I.I.",
"I.I.U.l.' n.d.d.d.s.d.p.p.p.p.p.p.p.p.p.p.p.p.p.p.p.p.p.t.p.p.p.p.p.p.p.t.t.q.7.2.;...W E z O.Y.I.I.",
"I.I.U.l.' n.d.d.s.s.p.p.p.p.t.t.t.t.p.p.t.t.t.t.t.t.p.p.t.t.t.t.p.t.t.t.t.r.q.6.,.=...W T i o.Y.I.I.",
"I.I.U.l.' n.v.d.d.p.p.p.p.r.h.V.g.t.t.t.t.t.t.t.t.d.Z.v.t.t.p.t.t.t.t.t.t.r.q.6.:.&...W T i o.Y.I.I.",
"I.L.U.l.' M.d.d.s.d.p.p.t.g.=.g 1.N.t.t.t.t.t.t.g.4.n #.N.s.t.t.t.t.t.p.t.w.q.6.,.=. .W R i o.Y.I.I.",
"I.L.U.l.' n.d.d.d.p.s.p.s.p.*   @ -.V.s.t.t.t.p.h.r     J V.f.t.t.t.t.t.t.r.q.6.,.=...E R i o.T.I.I.",
"I.I.U.l.' n.d.d.s.p.p.p.h.7.+ .   . Q V.f.t.t.f.s.>       n N.g.t.t.t.t.t.r.8.4.,.&...W T i o.Y.I.I.",
"I.I.U.l.' n.d.d.d.p.p.p.g.q.$ o &     Z N.g.t.s.f.2   -     r h.n.t.p.t.t.w.8.4.,.&.) W T i o.Y.I.I.",
"I.I.U.l.' n.d.d.d.s.p.p.g.8.+ O -.y     s h.h.s.s.1   ^ T     > r.N.t.t.r.r.8.6.,.&...E R i o.T.I.I.",
"I.I.U.l.' n.d.d.s.p.p.p.g.q.+ . 7.V.p     4 s.V.s.,   Q P.J     & 3.V.t.t.r.8.6.:.=...W R i o.Y.I.I.",
"I.I.U.l.' m.d.d.d.p.s.p.d.q.o . &.B.N.Z     ; e.A.1   Y V.V. .X   + $.V.p.w.8.6.,.&...W T i O.Y.I.I.",
"I.I.U.l.' n.d.d.d.d.p.p.g.8.+ . -.h.s.V.W .   & 3.r   Y N.t.V.>.%   . ! h.t.8.6.:.=...W R i O.T.I.I.",
"I.I.U.l.' n.d.d.s.p.s.p.g.0.+ . =.h.t.s.B.>.;   % -   T N.t.t.N.e.3     W n.q.6.,.&...W T i o.Y.I.I.",
"I.I.U.l.' n.d.d.d.p.p.p.d.0.+ . -.g.t.r.h.A.r     X   T N.t.t.s.S.J     v N.q.6.,.&...W R i o.Y.I.I.",
"I.I.U.l.' n.d.d.d.p.p.p.g.8.+ . =.h.t.N.f.3     g 8   J N.t.h.n.v     , e.p.q.4.:.&...E T i o.Y.I.I.",
"I.I.U.l.' n.d.d.d.s.p.p.g.q.+ . &.h.N.9.:     G V.8   T n.h.h.r     w h.h.w.q.4.,.=...E E i o.Y.L.I.",
"I.I.U.l.' n.v.d.d.p.p.p.g.8.+ . ;.S.>.$   . W V.g.,   J S.a.,     g N.g.t.r.8.6.:.=...W R i o.Y.I.I.",
"I.L.U.l.' n.d.d.d.p.s.p.g.8.+ . r.-.X   + *.V.f.s.,   %.j.=     J B.f.t.r.w.q.6.,.&...W T i o.T.I.I.",
"I.I.U.l.} n.d.d.s.p.p.p.d.q.@ + s o   = 4.V.p.s.f.1   s :   X  .V.s.t.t.t.w.q.6.,.&...E R i o.T.I.I.",
"I.I.U.l.' n.d.d.d.s.p.p.g.8.$ X     , a.N.t.t.f.s.2   .   % >.V.p.t.t.t.t.r.q.4.,.&...W T i o.T.I.I.",
"I.I.U.l.' n.v.d.s.p.p.p.d.q.O     w h.h.t.t.t.f.g.>     ; 9.N.t.t.t.t.t.t.w.q.4.,.=...W R i O.T.I.I.",
"I.I.U.l.' n.d.d.d.s.p.p.s.g.s X n h.h.r.t.t.t.t.h.T o 4 s.N.t.t.t.t.t.t.t.w.q.4.:.=...E T i o.T.I.I.",
"I.I.U.l.' n.d.d.s.s.p.p.t.p.s.w.h.f.t.t.t.t.t.t.t.g.8.g.h.r.t.t.t.t.t.p.t.w.w.4.,.&...W T i o.T.I.I.",
"I.I.U.l.' n.d.d.s.s.d.p.p.t.s.g.p.r.t.t.t.t.t.t.t.t.g.s.t.t.t.t.t.t.t.t.t.t.w.4.,.=...W T i o.Y.I.I.",
"I.I.U.l.' n.d.s.s.p.p.t.t.t.r.r.t.r.r.r.t.w.t.t.r.r.t.r.r.r.r.r.r.r.t.r.r.w.4.4.>.&.) E T i O.T.I.I.",
"I.I.U.l.' n.d.s.s.t.t.t.w.q.q.q.w.r.q.q.q.q.q.w.q.q.q.w.q.q.w.w.q.q.w.w.w.4.4.,.;.$.[ R Y z o.T.I.I.",
"I.I.U.l.' n.p.p.t.w.q.4.7.7.4.4.4.4.7.4.4.4.4.4.4.4.4.4.4.4.7.4.4.4.4.4.4.4.3.;.&...^ T G i o.T.I.I.",
"I.I.U.l.` g.t.t.w.4.4.4.3.,.,.,.,.,.,.,.,.,.,.,.,.,.3.2.,.,.,.,.3.:.2.,.,.;.;.&.#./ E Y F u o.Y.I.I.",
"I.I.U.l.` f.w.7.4.,.;.;.=.&.&.&.&.&.&.&.&.&.&.&.&.&.&.&.&.&.&.&.&.=.&.;.&.%.$.../ E T F D u +.T.I.I.",
"I.I.U.l.Q t.4.:.;.&.$...)  ./ / / / / {  ./ /  .[ [ / [ [ [ / [ / / / / / / ^ W T G F V V 7 o.T.I.I.",
"I.I.U.z.L 8.;.&.../ ^ E T T T Y T T T T Y T T Y T T T Y T T T T Y E Y T Y T J F D A B n n 7 o.T.I.I.",
"I.I.U.D.K 2.%./ W Y G F D D A D A A A A A A A A A A A A A A A A A A A A A A V B m n g g n 5 o.T.I.L.",
"I.I.U.z.H <./ ( I S N m b m b b b b b b b b b b b b b b b b b b b b b b b b c x d i s i x 6 | T.I.I.",
"I.I.U.H.k Z C C j h f a a a a a a a a a a a a a a a a a a a a a a a a a a a a a a a a a a 4 +.T.I.I.",
"I.I.I.U.G.z.F.F.H.H.H.H.H.H.J.J.H.H.H.H.J.H.H.H.H.H.H.H.H.H.H.H.K.G.H.H.H.H.H.H.J.J.J.J.J.G.L.I.I.I.",
"I.I.L.L.U.U.U.U.U.U.U.U.U.U.U.U.U.U.U.U.U.U.U.U.U.U.U.U.U.U.U.U.U.U.U.U.U.U.U.U.U.U.U.U.U.U.U.L.I.I.",
"I.I.I.I.I.I.I.I.I.I.I.I.L.I.I.I.I.I.I.I.I.I.I.I.I.I.I.I.I.I.I.I.L.L.I.I.I.I.I.I.I.I.I.I.I.I.I.I.I.I.",
"I.I.I.I.I.I.I.I.I.I.I.I.I.I.I.I.I.I.I.I.I.I.I.I.I.I.I.I.I.I.I.I.I.I.I.I.I.I.I.I.I.I.I.I.I.I.I.I.I.I."
};
