/* XPM */
static char *FFwdMouseOver_xpm[] = {
/* columns rows colors chars-per-pixel */
"50 50 170 2 ",
"   c #000101",
".  c #030609",
"X  c #0B0B0C",
"o  c #100F0F",
"O  c #0F0F11",
"+  c #151414",
"@  c #181717",
"#  c #1A1816",
"$  c #1D1B19",
"%  c #211B19",
"&  c #27211F",
"*  c #272421",
"=  c #2B2522",
"-  c #2E2B26",
";  c #362E29",
":  c #3B302A",
">  c #443B33",
",  c #493E36",
"<  c #494037",
"1  c #494138",
"2  c #56493D",
"3  c #55473C",
"4  c #4F3D46",
"5  c #564C40",
"6  c #514F4F",
"7  c #4E5B51",
"8  c #525752",
"9  c #525852",
"0  c #644B4C",
"q  c #635447",
"w  c #645648",
"e  c #695A4C",
"r  c #7E5450",
"t  c #666455",
"y  c #6C6353",
"u  c #6C6959",
"i  c #746454",
"p  c #7E6C59",
"a  c #716D5C",
"s  c #6A715F",
"d  c #777260",
"f  c #7D7764",
"g  c #815652",
"h  c #885151",
"j  c #8A5E59",
"k  c #855A55",
"l  c #856756",
"z  c #806E5B",
"x  c #8C6C5A",
"c  c #8E615B",
"v  c #92655E",
"b  c #84725D",
"n  c #88755F",
"m  c #91715E",
"M  c #956760",
"N  c #966861",
"B  c #9A6B64",
"V  c #897560",
"C  c #8D7A63",
"Z  c #8E7D6A",
"A  c #957561",
"S  c #927D66",
"D  c #9C7A66",
"F  c #A07169",
"G  c #A8776E",
"H  c #559668",
"J  c #539968",
"K  c #539466",
"L  c #37C46E",
"P  c #38C36C",
"I  c #39C671",
"U  c #3DC974",
"Y  c #44CF79",
"T  c #4BD47C",
"R  c #46D17A",
"E  c #51D97E",
"W  c #968067",
"Q  c #96816A",
"!  c #9C856D",
"~  c #9D8971",
"^  c #998F78",
"/  c #968773",
"(  c #A0886E",
")  c #A3816B",
"_  c #A48C72",
"`  c #AB8C73",
"'  c #B98579",
"]  c #AB9176",
"[  c #A2937B",
"{  c #AC9479",
"}  c #AD997E",
"|  c #B1977B",
" . c #B49A7E",
".. c #BA937B",
"X. c #55DC81",
"o. c #57E585",
"O. c #58E786",
"+. c #57EA87",
"@. c #5BE887",
"#. c #58EF89",
"$. c #58F089",
"%. c #54FC8D",
"&. c #59FD8F",
"*. c #9E9085",
"=. c #A29A86",
"-. c #A29C89",
";. c #B79D80",
":. c #B99E81",
">. c #B7A185",
",. c #BCA183",
"<. c #A9A290",
"1. c #CF8E86",
"2. c #D49C8B",
"3. c #C1A587",
"4. c #C2A689",
"5. c #C5A98A",
"6. c #CBAD8D",
"7. c #C9A185",
"8. c #C7AF90",
"9. c #CDAF90",
"0. c #CEB292",
"q. c #D3B493",
"w. c #D9B997",
"e. c #D3BA99",
"r. c #DABA98",
"t. c #E1BF9C",
"y. c #EBBD9D",
"u. c #F4BA9C",
"i. c #D8C29F",
"p. c #E3C19E",
"a. c #DDC4A1",
"s. c #E6C4A0",
"d. c #EAC5A2",
"f. c #EFCBA6",
"g. c #E7CEA9",
"h. c #ECCEA9",
"j. c #F0CCA6",
"k. c #FBCAA7",
"l. c #F3CDA9",
"z. c #EBD4AD",
"x. c #F6D1AB",
"c. c #FAD4AD",
"v. c #F1CEB9",
"b. c #F1CBB4",
"n. c #F0D7B0",
"m. c #FAD6B1",
"M. c #F3D9B1",
"N. c #FBD9B4",
"B. c #FBDCBB",
"V. c #F2D1BD",
"C. c #FDE0B7",
"Z. c #FFE4BA",
"A. c #FFEABE",
"S. c #F1E2B9",
"D. c #F2D3C2",
"F. c #FBDFC1",
"G. c #FBE1C4",
"H. c #FFEDC2",
"J. c #FCE3C8",
"K. c #FFEDCE",
"L. c #FFF2C5",
"P. c #FFF7C9",
"I. c #FFFACB",
"U. c #FFEED4",
"Y. c #F5E1D2",
"T. c #FFF1D5",
"R. c #FFFFD1",
"E. c #FFF3DA",
"W. c #FFFFDA",
"Q. c #FFFFE4",
/* pixels */
"o.o.o.o.o.o.o.o.o.o.o.o.o.o.o.o.o.o.o.o.o.o.o.o.o.o.+.E @.@.E +.o.o.o.o.o.o.@.@.E +.E +.o.o.o.o.o.o.",
"o.o.o.o.o.o.o.o.o.o.o.o.o.o.o.o.o.o.o.o.o.o.o.o.o.o.@.E +.@.@.+.o.o.o.o.o.o.@.E +.@.@.@.o.o.o.o.o.o.",
"o.o.o.o.#.#.#.#.#.#.#.+.#.#.#.#.#.@.#.#.#.#.#.#.#.+.#.+.&.E #.#.#.#.#.#.#.+.+.#.#.#.$.$.#.#.@.o.o.o.",
"o.o.o.O.E R T T T T R X.T R T R R T T T T R T T T T T T T T T T T T R T T T T T R T T T T T o.O.o.o.",
"o.o.#.X.7 6 8 8 9 9 9 9 9 9 9 9 8 8 9 9 9 9 9 9 9 9 9 9 9 9 9 9 9 9 9 9 9 9 9 8 8 8 8 8 8 4 J &.o.o.",
"o.o.#.P *.Y.D.D.D.D.D.D.D.D.D.D.D.V.D.D.D.D.D.D.D.D.D.D.B.V.V.D.D.D.D.D.D.D.V.V.v.l.l.d.y.1.K %.o.o.",
"o.o.#.P <.Q.U.T.E.U.U.U.U.U.U.U.T.U.U.T.U.U.U.U.U.U.U.U.U.U.U.U.U.U.U.U.U.U.U.K.J.Z.C.c.l.2.J %.o.o.",
"o.o.#.I -.E.J.J.J.J.J.J.J.J.J.J.J.J.G.J.G.J.J.J.J.G.J.J.J.J.J.J.J.J.J.J.J.G.G.B.N.N.j.p.r.' J &.o.o.",
"o.o.#.P -.E.J.J.J.G.G.G.F.G.G.F.G.F.F.F.G.F.F.F.G.G.F.F.G.G.F.G.F.G.G.G.G.F.B.B.c.l.p.q.6.' J %.o.o.",
"o.o.#.P =.T.G.G.G.Z.F.F.B.F.F.B.B.B.F.B.B.F.B.B.B.B.B.B.F.B.F.B.F.S.B.B.B.B.N.m.c.p.w.5.,.G J %.o.o.",
"o.o.#.P -.T.F.F.B.B.B.B.B.B.B.B.B.B.B.B.B.B.B.B.B.B.B.B.B.B.B.B.B.N.B.N.B.N.m.c.j.r.9.3. .F J %.o.o.",
"o.o.#.P *.U.F.F.B.B.B.B.m.B.m.m.B.m.m.B.N.m.N.N.N.N.N.N.n.N.N.N.N.N.N.N.m.N.c.l.p.w.5. .| B J %.o.o.",
"o.o.#.L *.T.Z.B.B.B.N.N.m.m.m.m.n.m.m.m.m.m.N.m.m.m.m.m.m.m.m.m.m.N.m.N.m.c.x.f.p.q.3.| ] v J %.o.o.",
"o.o.#.L =.T.B.B.B.N.N.m.m.N.m.m.m.m.m.m.m.m.m.m.m.m.m.m.m.m.m.m.m.c.c.m.N.c.j.p.t.9.3.{ ] B J %.o.o.",
"o.o.#.L =.K.B.B.N.N.n.m.m.m.m.m.c.c.c.c.c.c.c.c.c.c.c.m.m.c.c.c.c.c.c.c.c.x.k.p.t.9. .| _ v J %.o.o.",
"o.o.#.L =.K.B.B.B.N.m.m.m.l.Z.I.C.c.c.c.c.c.c.c.c.C.P.A.c.c.c.c.c.c.c.c.c.x.j.p.w.9. .{ ] v J %.o.o.",
"o.o.$.L =.K.B.B.B.B.m.m.m.C.9.p p.L.m.c.c.c.c.c.Z.p.b 3.L.N.c.c.c.c.c.c.c.x.f.s.r.6.,.{ ` v J %.o.o.",
"o.o.#.L =.U.B.B.m.m.N.m.C.n.*   # 0.I.N.c.c.c.c.A.w     ^ L.C.c.c.c.c.m.c.x.j.s.r.6.,.{ ] N J %.o.o.",
"o.o.$.L =.K.B.B.B.m.N.m.Z.f.@ .   . } I.C.c.c.N.N.>       b L.Z.x.c.c.c.c.x.f.s.r.6.:.{ _ v J %.o.o.",
"o.o.$.L =.K.B.B.B.m.m.m.C.f.# + &     Z P.Z.c.N.C.1   -     w Z.H.c.c.c.c.l.f.p.r.6.,.{ ] v J %.o.o.",
"o.o.$.L =.K.B.B.B.N.m.m.B.l.+ O 0.e     i A.A.N.N.<   | _     > x.P.c.c.c.x.j.p.r.6.,.{ ` v J %.o.o.",
"o.o.#.L -.K.B.B.N.m.m.m.Z.l.+   d.I.y     3 C.P.N.,   } Q.~     = i.P.m.c.l.f.s.r.6.,.{ ` N J %.o.o.",
"o.o.#.L =.K.B.B.B.N.m.m.Z.f.+ . 0.I.L.C     ; z.R.<   ( I.I.>.X   + 5.I.m.l.j.s.r.6.,.{ _ N J %.o.o.",
"o.o.#.L *.K.B.B.N.B.N.m.B.f.+   0.Z.N.I.{ .   & i.w   ( L.c.I.e.%     [ A.x.j.s.r.6.,.{ _ N J %.o.o.",
"o.o.#.L =.K.B.B.N.B.m.m.B.f.+ . 9.A.c.c.P.e.;   % -   _ L.c.c.L.z.2     { H.j.p.r.6.,.{ _ M J %.o.o.",
"o.o.#.L =.U.B.B.N.B.m.m.Z.f.+ . 0.A.c.x.A.R.e     X   _ L.c.c.N.W.~     z L.j.d.r.6.,.{ _ M J %.o.o.",
"o.o.$.L =.K.B.B.m.N.m.m.Z.f.@ . 9.A.c.L.S.3     p 5   ~ H.c.Z.L.b     < z.N.j.p.r.6.,.{ _ N J %.o.o.",
"o.o.#.L =.K.B.B.B.B.m.m.C.f.+ . 0.Z.L.g.:     Q I.5   _ H.H.A.w     q Z.Z.l.h.p.r.6.>.{ ` N J %.o.o.",
"o.o.$.L =.K.B.B.N.N.m.m.C.f.+ . q.W.e.$   . { I.Z.,   ~ W.M.,     p L.Z.x.x.j.s.r.6.,.{ ] M J %.o.o.",
"o.o.#.L =.K.B.B.B.m.m.m.Z.f.+ . x.0.X   + 8.I.C.N.,   5.S.=     ~ L.C.c.c.l.j.p.r.6.,.{ _ N J %.o.o.",
"o.o.$.L =.K.B.B.B.m.m.m.Z.f.# + i o   = s.I.c.N.C.<   i :   X >.I.N.c.c.c.l.j.d.r.6.,.{ _ N J %.o.o.",
"o.o.$.L =.U.B.B.B.N.m.m.Z.f.$ X     > M.L.c.c.C.N.1   .   % e.I.N.c.c.c.c.x.j.p.r.6.:.{ _ M J %.o.o.",
"o.o.$.L =.K.B.B.B.m.n.m.C.l.O     q Z.A.c.c.c.C.Z.>     ; g.P.c.c.c.c.c.c.x.p.p.p.9.,.] ` m H %.o.o.",
"o.o.#.L =.K.Z.B.B.m.N.m.N.Z.i X b A.A.c.c.c.c.c.A._ o 2 C.A.x.c.c.c.c.c.c.x.j.p.i.6.,.{ ` v J %.o.o.",
"o.o.#.L =.K.B.B.B.B.m.m.c.N.N.l.A.C.c.c.c.c.c.c.c.Z.h.Z.C.c.c.c.c.c.c.m.c.j.k.p.r.6.,.{ ` v J %.o.o.",
"o.o.$.L =.K.B.B.m.m.m.m.c.c.N.Z.c.c.c.c.c.c.c.c.c.c.Z.N.c.c.c.c.c.c.c.c.c.x.j.p.w.6.,.{ ` v J %.o.o.",
"o.o.#.L =.K.B.B.N.N.c.c.c.c.x.x.c.x.x.x.x.x.x.c.l.c.c.x.c.x.c.c.x.x.c.x.x.j.d.p.q.6. .{ ` m J %.o.o.",
"o.o.#.L =.K.N.N.N.c.c.c.l.j.j.j.j.l.j.j.j.j.j.l.j.j.j.j.j.j.j.j.j.j.j.j.j.p.p.w.q.6. .] _ v J %.o.o.",
"o.o.#.L =.J.N.N.c.l.j.p.p.p.p.p.p.p.f.p.p.p.p.p.p.p.p.p.p.p.p.p.p.p.p.p.p.p.r.q.6.,.| ( ( v J %.o.o.",
"o.o.#.L =.H.c.x.l.p.p.p.t.t.r.i.r.r.r.r.r.r.r.r.r.r.p.w.w.r.p.w.i.r.p.r.i.w.q.6.3. .` ( ! c J %.o.o.",
"o.o.#.I =.Z.l.d.p.r.q.q.6.9.6.6.6.6.6.6.6.6.6.6.6.6.6.6.6.6.6.6.6.6.6.6.6.5.3.:. .{ ( Q Q j J &.o.o.",
"o.O.#.I [ N.s.r.q.6.4.,. .,. . .;. . .;.>. .>. . .;.;.;.;.;.;.;.;.;. .;.;.;.| ] _ ( Q n m l J %.o.o.",
"o.o.#.I ^ k.q.6.,. .| ] _ ( _ _ _ _ _ _ ( _ ( _ _ _ ( _ _ _ _ ( _ _ ( _ _ ~ ! ! W S n b b g J &.o.o.",
"o.o.#.U / y.4.:.{ ( ! Q W S W W S S S S W S S S S S S S S S S Z S S S S S S Z C n b z p z g J %.o.o.",
"o.o.#.U / u.7...` ) D C m m m m C V N m m m m m m m m m x V m m m m m m V m x x x l l l x h K %.o.o.",
"o.o.#.T s Z f d a u t t u t t t t 9 t t t t t t t t t t t t t t t t t t t t t t t t t t y 0 J %.o.o.",
"o.o.o.@.T U Y Y T T R X.X.T E T R X.Y X.X.X.X.Y T X.T T T X.X.T X.T T T X.Y Y X.T X.T E T T o.@.o.o.",
"o.o.o.o.#.#.#.#.#.#.#.#.#.$.$.$.$.$.$.+.+.+.#.#.#.#.#.#.#.#.#.#.+.#.#.#.#.#.#.#.#.+.$.$.$.$.+.o.o.o.",
"o.o.o.o.o.o.o.o.o.o.o.o.o.o.o.o.o.o.o.o.o.o.o.o.o.o.o.o.o.o.o.o.o.o.o.o.o.o.o.o.o.o.o.o.o.o.o.o.o.o.",
"o.o.o.o.o.o.o.o.o.o.o.o.o.o.o.o.o.o.o.o.o.o.o.o.o.o.o.o.o.o.o.o.o.o.o.o.o.o.o.o.o.o.o.o.o.o.o.o.o.o."
};
