/* XPM */
static char *FRewDisabled_xpm[] = {
/* columns rows colors chars-per-pixel */
"50 50 252 2 ",
"   c #3F3B3B",
".  c gray31",
"X  c #524E4E",
"o  c #585959",
"O  c #585A5A",
"+  c #5B5E5E",
"@  c #645D5D",
"#  c #6A6565",
"$  c #696B6B",
"%  c #6E6868",
"&  c #6A6C6C",
"*  c #6B6D6D",
"=  c #6D6F6F",
"-  c #706B6B",
";  c #726D6D",
":  c #736E6E",
">  c #746F6F",
",  c #6F7070",
"<  c #767171",
"1  c #737474",
"2  c #737676",
"3  c #7B7676",
"4  c #797B7B",
"5  c gray48",
"6  c #7B7B7B",
"7  c #7C7C7C",
"8  c gray49",
"9  c #7F7D7D",
"0  c #7E7E7E",
"q  c #7F7E7E",
"w  c gray50",
"e  c #807E7E",
"r  c #817F7F",
"t  c #837E7E",
"y  c #808080",
"u  c #818181",
"i  c #828181",
"p  c gray51",
"a  c #838383",
"s  c #848484",
"d  c gray52",
"f  c #868585",
"g  c #878585",
"h  c #858686",
"j  c #868686",
"k  c #878686",
"l  c gray53",
"z  c #888787",
"x  c #888888",
"c  c #888989",
"v  c #898989",
"b  c gray54",
"n  c #8A8B8B",
"m  c #8B8B8B",
"M  c #8F8A8A",
"N  c #8B8C8C",
"B  c gray55",
"V  c #8D8D8D",
"C  c #8D8E8E",
"Z  c #8E8E8E",
"A  c gray56",
"S  c #908F8F",
"D  c #909090",
"F  c gray57",
"G  c #929292",
"H  c #939292",
"J  c #939393",
"K  c #939494",
"L  c gray58",
"P  c #949595",
"I  c #959595",
"U  c #959696",
"Y  c gray59",
"T  c #969797",
"R  c #979797",
"E  c #9D9595",
"W  c #989898",
"Q  c #989999",
"!  c gray60",
"~  c #999A9A",
"^  c #9A9A9A",
"/  c #9A9B9B",
"(  c #9B9B9B",
")  c #9D9B9B",
"_  c #9B9C9C",
"`  c #9B9D9D",
"'  c gray61",
"]  c #9C9D9D",
"[  c #9D9D9D",
"{  c #9D9E9E",
"}  c #9D9F9F",
"|  c gray62",
" . c #9E9F9F",
".. c #9F9F9F",
"X. c #93A2A2",
"o. c #94A2A2",
"O. c #97A7A7",
"+. c #9EA0A0",
"@. c #9FA0A0",
"#. c #99A8A8",
"$. c #98A9A9",
"%. c #99AAAA",
"&. c #A0A0A0",
"*. c #A1A2A2",
"=. c #A2A2A2",
"-. c gray64",
";. c #A7A1A1",
":. c #A3A4A4",
">. c #A4A5A5",
",. c #A5A5A5",
"<. c #A5A6A6",
"1. c gray65",
"2. c #A7A7A7",
"3. c gray66",
"4. c #A8A9A9",
"5. c #A9A9A9",
"6. c #AAAAAA",
"7. c gray67",
"8. c #ACABAB",
"9. c #ADABAB",
"0. c #ACACAC",
"q. c gray68",
"w. c #AEADAD",
"e. c #AEAEAE",
"r. c #AFAFAF",
"t. c gray69",
"y. c #B1B1B1",
"u. c #B2B1B1",
"i. c #B2B2B2",
"p. c gray70",
"a. c #B4B4B4",
"s. c gray71",
"d. c #B5B6B6",
"f. c #B6B6B6",
"g. c #B6B7B7",
"h. c #B7B7B7",
"j. c #B8B7B7",
"k. c gray72",
"l. c #B9B9B9",
"z. c gray73",
"x. c #BBBBBB",
"c. c #BBBCBC",
"v. c #BCBCBC",
"b. c gray",
"n. c gray75",
"m. c #BFC0C0",
"M. c #BBD8D8",
"N. c #BDDBDB",
"B. c #BEDBDB",
"V. c #BEDCDC",
"C. c #BFDCDC",
"Z. c #C0C0C0",
"A. c #C1C1C1",
"S. c gray76",
"D. c #C3C3C3",
"F. c gray77",
"G. c #C5C5C5",
"H. c #C6C6C6",
"J. c gray78",
"K. c #C8C8C8",
"L. c gray79",
"P. c #C9CACA",
"I. c #CBCBCB",
"U. c gray80",
"Y. c #CDCDCD",
"T. c #CECECE",
"R. c gray81",
"E. c #D0CCCC",
"W. c #D0CECE",
"Q. c #C0DDDD",
"!. c #C0DEDE",
"~. c #C2DFDF",
"^. c #D0D0D0",
"/. c #D0D1D1",
"(. c gray82",
"). c #D3D1D1",
"_. c #D1D2D2",
"`. c #D2D2D2",
"'. c LightGray",
"]. c gray83",
"[. c #D5D5D5",
"{. c #D6D4D4",
"}. c gray84",
"|. c #D7D7D7",
" X c #D8D6D6",
".X c #D9D7D7",
"XX c #D8D8D8",
"oX c gray85",
"OX c #DBD9D9",
"+X c #DADADA",
"@X c gray86",
"#X c gainsboro",
"$X c #DDDDDD",
"%X c gray87",
"&X c #DFDFDF",
"*X c #C9E6E6",
"=X c #CBE9E9",
"-X c #CCE9E9",
";X c #CDEAEA",
":X c #CEEBEB",
">X c #CEECEC",
",X c #CFECEC",
"<X c #CFEDED",
"1X c #D4F1F1",
"2X c #D7F5F5",
"3X c #DCFAFA",
"4X c #DEFFFF",
"5X c #DFFFFF",
"6X c gray88",
"7X c #E1E1E1",
"8X c #E2E2E2",
"9X c gray89",
"0X c #E4E4E4",
"qX c gray90",
"wX c #E6E6E6",
"eX c #E7E7E7",
"rX c #E8E4E4",
"tX c gray91",
"yX c #E9E9E9",
"uX c #EAE8E8",
"iX c #EAEAEA",
"pX c gray92",
"aX c #ECECEC",
"sX c #EFEDED",
"dX c #EEEEEE",
"fX c #EFEFEF",
"gX c #F1EFEF",
"hX c LightCyan",
"jX c #E1FFFF",
"kX c #E2FFFF",
"lX c #E3FFFF",
"zX c #E5FFFF",
"xX c #E9FFFF",
"cX c #EAFFFF",
"vX c #EBFFFF",
"bX c gray95",
"nX c #F3F3F3",
"mX c #F4F2F2",
"MX c #F5F3F3",
"NX c #F4F4F4",
"BX c gray96",
"VX c #F6F4F4",
"CX c #F7F5F5",
"ZX c #F9F7F7",
"AX c #F2FFFF",
"SX c #F3FFFF",
"DX c #F4FFFF",
"FX c #F5FFFF",
"GX c #F6FFFF",
"HX c #F7FFFF",
"JX c #F8FFFF",
"KX c white",
/* pixels */
"hXhXhXhXhXhXhXhXhXhXhXhXhXhXhXhXhXhXhXhXhXhXhXhXhXhXhXhXhXhXhXhXhXhXhXhXhXhXhXhXhXhXhXhXhXhXhXhXhXhX",
"hXhXhXhXhXhXhXhXhXhXhXhXhXhXhXhXhXhXhXhXhXhXhXhXhXhXhXhXhXhXhXhXhXhXhXhXhXhXhXhXhXhXhXhXhXhXhXhXhXhX",
"hXhX5XjXxXcXcXcXcXcXcXcXcXcXcXcXcXcXcXcXcXcXcXcXcXcXcXcXcXcXcXcXcXcXcXcXcXcXcXcXcXcXcXcXcXvXzX4XhXhX",
"hXhXhXjX1X-X:X:X:X:X:X:X:X:X:X:X:X:X:X:X:X:X:X:X:X:X:X:X:X:X:X:X:X:X:X:X:X:X:X:X>X>X>X,X>X,X3XkXhXhX",
"hXhXcX2X+ . o o o o o o o o o o o o o o o o o o o o o o o o o o o o o o o o o o o o o o O   $.JXhXhX",
"hXhXvXB.H rX.X.X.X.X.X.X.X.X.X.X.X.X.X.X.X.X.X.X.X.X.X.X.X.X.X.X.X.X.X.X.X.X.X.X X{.).W.).E o.DXhXhX",
"hXhXcXM.<.KXnXNXNXBXBXNXNXNXNXNXNXNXNXNXNXNXNXNXNXNXNXNXNXNXNXNXNXNXNXNXNXNXNXnXbXfXpXeX7X;.#.AXhXhX",
"hXhXcXN.@.ZXtXtXtXyXyXtXtXtXtXtXtXtXtXtXtXtXtXtXtXtXtXtXtXtXtXtXtXtXtXtXtXtXtXeX0X7X$X/.G.M O.SXhXhX",
"hXhXcXN.+.CXwXeXeXwXwXwXqXqXqXqXqXqXqXqXqXqXqXqXqXqXqXqXqXqXqXqXqXqXqXqXqXqXqX9X6X$X(.m.s.t O.FXhXhX",
"hXhXcXN.+.VXqX0XqX0X8X8X8X8X8X8X8X8X8X8X8X8X8X8X8X8X8X8X8X8X8X8X8X8X8X8X8X8X7X&X#X'.S.i.5.3 O.FXhXhX",
"hXhXcXB. .MX0X9X8X7X&X&X&X%X%X%X%X%X%X%X%X%X%X%X%X%X%X%X%X%X%X%X%X%X%X%X%X%X$X#X[.H.f.3.*.< O.FXhXhX",
"hXhXcXB. .MX9X8X7X&X%X#X#X#X@X@X@X@X@X@X@X@X@X@X@X@X@X@X@X@X@X@X@X@X@X@X@X@X@X|.Y.n.t.=.] > O.GXhXhX",
"hXhXcXB. .MX9X8X6X%X$X@X+X+X+X+X+X+X+X+X+X+X+X+X+X+X+X+X+X+X+X+X+X+X+X+X+X+XXX_.J.z.7...( : O.GXhXhX",
"hXhXcXB. .MX9X8X6X$X@X+XoXoXoXoXoXoXoXoXoXoXoXoXoXoXoXoXoXoXoXoXoXoXoXoXoXoX}.R.G.k.6.| ^ : O.GXhXhX",
"hXhXcXB. .MX9X8X6X%X@X+XoXoXoXoXoXoXoXoXoXoXoXoXoXoXoXoXoXoXoXoXoXoXoXoXoXoX[.R.G.k.6.| ^ : O.GXhXhX",
"hXhXcXB. .MX9X8X6X%X@X+XoXoXoXoXoXoXoXoXoXXX#XwX9XoXXXoXoXoXoXoXXX+X0XqX@XXX[.R.G.k.6.| ^ : O.GXhXhX",
"hXhXcXB. .MX9X8X6X%X@X+XoXoXoXoXoXoXoXoXXX7X@Xs.Z.$X+XoXoXoXoXXX%X7Xv.l.+X+X[.R.G.k.6.| ^ : O.GXhXhX",
"hXhXcXB. .MX9X8X6X%X@X+XoXoXoXoXoXoXoXoX0XoX..8 x Y.6XoXoXoXXX7X7Xq.p 7 v.0X[.R.G.k.6.| ^ : O.GXhXhX",
"hXhXcXB. .MX9X8X6X%X@X+XoXoXoXoXoXoXoXwX`.Y y B v Z.9XoXoXXX0X#X-.y B s i.wX[.R.G.k.6.| ^ : O.GXhXhX",
"hXhXcXB. .MX9X8X6X%X@X+XoXoXoXoXXX@XeXL.A w L Y b D.8XoXoXwX[.^ 0 Z ! a s.qX[.R.G.k.6.| ^ : O.GXhXhX",
"hXhXcXB. .MX9X8X6X%X@X+XoXoXoXXX$XwXn.v 8 ! ^.=.d D.7X+XwXY.G 8 B I.i.6 s.qX[.R.G.k.6.| ^ : O.GXhXhX",
"hXhXcXB. .MX9X8X6X%X@X+XoXoXXX&X0Xa.s 0 [ #XqX( d S.qXwXD.m 7 F T.dX0.5 s.qX[.R.G.k.6.| ^ : O.GXhXhX",
"hXhXcXB. .MX9X8X6X%X@X+XoXXX7X6X6.u y 2.%XwXXX( s K.dXl.l 8 ! ].eX6X7.6 s.qX[.R.G.k.6.| ^ : O.GXhXhX",
"hXhXcXB. .MX9X8X6X%X@X+XoX&XoX&.w s y.9X6X@XoX( x L.z.a w =.#X9XoX6X7.6 s.qX[.R.G.k.6.| ^ : O.GXhXhX",
"hXhXcXB. .MX9X8X6X%X@X+X#X@X| w G Z.qX%XXX#XoX' V ( x m p.6X7XXX+X6X7.6 s.qX[.R.G.k.6.| ^ : O.GXhXhX",
"hXhXcXB. .MX9X8X6X%X@X+X%X}.V u ( &XeXXXoX#XoX[ B x d D ^.pXoXXX+X6X7.6 s.qX[.R.G.k.6.| ^ : O.GXhXhX",
"hXhXcXB. .MX9X8X6X%X@X+X+X6XA.v u R `.wXoX#XoX( m h.( u A F.wX#XoX6X7.6 s.qX[.R.G.k.6.| ^ : O.GXhXhX",
"hXhXcXB. .MX9X8X6X%X@X+XoX+XqXK.Z 7 A L.eX%XXX( s T.%X! 8 l z.qX&X&X7.6 s.qX[.R.G.k.6.| ^ : O.GXhXhX",
"hXhXcXB. .MX9X8X6X%X@X+XoXoXoXwX(.I 7 v Z.iX$X^ d D.aX#X=.0 a r.0XeX6.6 s.qX[.R.G.k.6.| ^ : O.GXhXhX",
"hXhXcXB. .MX9X8X6X%X@X+XoXoXoXoXqXoX[ 8 d l.0X..s D.7X7X7X7.u w 3.wXi.5 s.qX[.R.G.k.6.| ^ : O.GXhXhX",
"hXhXcXB. .MX9X8X6X%X@X+XoXoXoXoXXX9X%X1.w d e.| l D.8XXX&X0Xs.d w 1.2.w s.qX[.R.G.k.6.| ^ : O.GXhXhX",
"hXhXcXB. .MX9X8X6X%X@X+XoXoXoXoXoXXX6X9Xr.a d A m S.8XoXXX$XwXn.v p A j a.qX[.R.G.k.6.| ^ : O.GXhXhX",
"hXhXcXB. .MX9X8X6X%X@X+XoXoXoXoXoXoXXX%XqXl.l d d D.8XoXoXXX@XeXK.Z d w i.wX[.R.G.k.6.| ^ : O.GXhXhX",
"hXhXcXB. .MX9X8X6X%X@X+XoXoXoXoXoXoXoXXX#XwXS.A &.|.#XoXoXoXoXoXwX^.W J U.&X[.R.G.k.6.| ^ : O.GXhXhX",
"hXhXcXB. .MX9X8X6X%X@X+XoXoXoXoXoXoXoXoXXX+X7XXX@X$XXXoXoXoXoXoXoX7X@XXX%XXX[.R.G.k.6.| ^ : O.GXhXhX",
"hXhXcXB. .MX9X8X6X%X@X+XoXoXoXoXoXoXoXoXoXoXoX%X#XoXoXoXoXoXoXoXoXoX$X$XoXoX[.R.G.k.6.| ^ : O.GXhXhX",
"hXhXcXB. .MX9X7X6X%X@X+X+XoXoXoXoXoXoXoXoXoXoXoXoXoXoXoXoXoXoXoXoXoXoXoXoXoX}.R.G.k.6.| ^ : O.GXhXhX",
"hXhXcXB. .MX9X6X&X$X@X+XXX|.|.|.|.|.|.|.|.|.|.|.|.|.|.|.|.|.|.|.|.|.|.|.|.|.'.Y.D.g.4.[ / : O.GXhXhX",
"hXhXcXB.} mX8X6X%X#XoX].(.(.(.(.(.(.(.(.(.(.(.(.(.(.(.(.(.(.(.(.(.(.(.(.(.^.Y.J.b.p.1.] ~ : O.GXhXhX",
"hXhXcXB.} mX7X%X#X}.T.P.J.H.H.H.H.H.H.H.H.H.H.H.H.H.H.H.H.H.H.H.H.H.H.H.H.H.D.b.h.q.=.^ W ; O.GXhXhX",
"hXhXcXV.{ gX%X#X`.J.Z.c.l.j.j.j.j.j.j.j.j.j.j.j.j.j.j.j.j.j.j.j.j.j.j.j.j.k.d.u.8.>.] U T ; O.GXhXhX",
"hXhXcXV.] sX+XR.A.s.w.4.1.,.,.,.,.,.,.,.,.,.,.,.,.,.,.,.,.,.,.,.,.,.,.,.,.,.:.*.{ ~ P F J - O.GXhXhX",
"hXhXcXC.` uXY.v.e.-._ R Y I I I I I I I I I I I I I I I I I I I I I I I I I L J F A B N A % O.GXhXhX",
"hXhXcX!.Q OXx.0.[ K C n v v v v v v v v v v v v v v v v v v v v v v v v v v c z k j h j N # O.GXhXhX",
"hXhXvXQ.S E.9.) S g i e q q q q q q q q q q q q q q q q q q q q q q q q q q 9 9 9 q q r f @ X.HXhXhX",
"hXhXcX<X2 p 4 1 , * & $ $ $ $ $ $ $ $ $ $ $ $ $ $ $ $ $ $ $ $ $ $ $ $ $ $ $ $ $ $ & & * = X %.HXhXhX",
"hXhXhXlX,X~.*X=X;X>X,X<X<X<X<X<X<X<X<X<X<X<X<X<X<X<X<X<X<X<X<X<X<X<X<X<X<X<X<X<X<X,X,X,X:X:X3XkXhXhX",
"hXhX5XjXxXcXcXcXcXcXcXcXcXcXcXcXcXcXcXcXcXcXcXcXcXcXcXcXcXcXcXcXcXcXcXcXcXcXcXcXcXcXcXcXcXvXzX4XhXhX",
"hXhXhXhXhXhXhXhXhXhXhXhXhXhXhXhXhXhXhXhXhXhXhXhXhXhXhXhXhXhXhXhXhXhXhXhXhXhXhXhXhXhXhXhXhXhXhXhXhXhX",
"hXhXhXhXhXhXhXhXhXhXhXhXhXhXhXhXhXhXhXhXhXhXhXhXhXhXhXhXhXhXhXhXhXhXhXhXhXhXhXhXhXhXhXhXhXhXhXhXhXhX"
};
