/* XPM */
static char *FRewNormal_xpm[] = {
/* columns rows colors chars-per-pixel */
"50 50 167 2 ",
"   c #000000",
".  c #040609",
"X  c #0C0C0D",
"o  c #110F0F",
"O  c #131111",
"+  c #1A1615",
"@  c #1A1817",
"#  c #1E1B19",
"$  c #251F1D",
"%  c #26211F",
"&  c #2E2925",
"*  c #2A2622",
"=  c #322B26",
"-  c #342E29",
";  c #3C2F2A",
":  c #36312B",
">  c #3C352E",
",  c #40362F",
"<  c #433B33",
"1  c #483D34",
"2  c #403A38",
"3  c #484037",
"4  c #4E4238",
"5  c #55483E",
"6  c #52453A",
"7  c #664F3B",
"8  c #664A33",
"9  c #69513D",
"0  c #5D4E42",
"q  c #504F4D",
"w  c #5C5044",
"e  c #595957",
"r  c #585958",
"t  c #6E5640",
"y  c #655749",
"u  c #67594B",
"i  c #6B5C4D",
"p  c #615245",
"a  c #755B45",
"s  c #7D634B",
"d  c #6E6151",
"f  c #6D655B",
"g  c #746453",
"h  c #7F6750",
"j  c #786856",
"k  c #72695E",
"l  c #7D6C5A",
"z  c #746B60",
"x  c #786E62",
"c  c #7E7366",
"v  c #78736B",
"b  c #81654D",
"n  c #846B53",
"m  c #896E55",
"M  c #816F5A",
"N  c #887056",
"B  c #84725D",
"V  c #8B735A",
"C  c #907359",
"Z  c #93795E",
"A  c #867460",
"S  c #8A7661",
"D  c #8E7963",
"F  c #84786A",
"G  c #8D7C6A",
"H  c #927D66",
"J  c #9A7D62",
"K  c #917D68",
"L  c #968067",
"P  c #93816A",
"I  c #9C866D",
"U  c #968471",
"Y  c #9A8B7A",
"T  c #9F907E",
"R  c #A68567",
"E  c #A4876A",
"W  c #AD8768",
"Q  c #A0886E",
"!  c #A58C72",
"~  c #A88F74",
"^  c #A29077",
"/  c #AB9176",
"(  c #A69278",
")  c #AC9378",
"_  c #BD9776",
"`  c #B1977C",
"'  c #B49A7E",
"]  c #B19273",
"[  c #C09F7D",
"{  c #9C9084",
"}  c #A69582",
"|  c #AA9986",
" . c #A99C8C",
".. c #B79D80",
"X. c #B99E81",
"o. c #AA9E90",
"O. c #94A19F",
"+. c #BCA083",
"@. c #BFA88B",
"#. c #B0A496",
"$. c #97A6A5",
"%. c #98A6A5",
"&. c #9AA8A7",
"*. c #99AAA9",
"=. c #C1A587",
"-. c #C3A789",
";. c #C4AA8B",
":. c #CBAD8D",
">. c #CEB393",
",. c #D3B493",
"<. c #D7B896",
"1. c #D9B997",
"2. c #DABA98",
"3. c #D5BD9B",
"4. c #E2B68C",
"5. c #E2BF9B",
"6. c #E1BB94",
"7. c #DAC19F",
"8. c #E3C19E",
"9. c #E6C4A0",
"0. c #E9C6A3",
"q. c #E2CAA6",
"w. c #EECBA6",
"e. c #E8C9AC",
"r. c #F0CCA6",
"t. c #F3CEA9",
"y. c #EDD3AC",
"u. c #F6D2AB",
"i. c #FAD5AE",
"p. c #E9CEB3",
"a. c #E9D1BB",
"s. c #FAD6B1",
"d. c #F4DDB4",
"f. c #FBD9B4",
"g. c #FBDCBB",
"h. c #FFE0B6",
"j. c #FFE4BB",
"k. c #FFE9BE",
"l. c #F2E4BA",
"z. c #B7D9DE",
"x. c #BADCE2",
"c. c #BEE1E7",
"v. c #BFE2E8",
"b. c #EBDEC2",
"n. c #FBDFC1",
"m. c #FBE1C4",
"M. c #FFECC4",
"N. c #FCE3C8",
"B. c #FFECCA",
"V. c #FFF3C5",
"C. c #FFF6C9",
"Z. c #FFF9CB",
"A. c #FFEED4",
"S. c #FFF2D2",
"D. c #FFFFD4",
"F. c #FFFFDB",
"G. c #C0E3E8",
"H. c #C6E8ED",
"J. c #CDECED",
"K. c #CEEFF2",
"L. c #CFF0F3",
"P. c #D5F3F4",
"I. c #DEFDFD",
"U. c #E0FFFF",
"Y. c #EAFFFF",
"T. c #F5FFFF",
"R. c #F8FFFF",
/* pixels */
"U.U.U.U.U.U.U.U.U.U.U.U.U.U.U.U.U.U.U.U.U.U.U.U.U.U.U.U.U.U.U.U.U.U.U.U.U.U.U.U.U.U.U.U.U.I.U.U.U.U.",
"U.U.U.U.U.U.U.U.U.U.U.U.U.U.U.U.U.U.U.U.U.U.U.U.U.U.U.Y.U.U.U.U.I.I.U.U.U.U.U.U.U.U.U.U.U.I.U.U.U.U.",
"U.U.I.U.Y.Y.Y.Y.Y.Y.Y.Y.Y.Y.Y.Y.Y.Y.Y.Y.T.Y.Y.T.Y.Y.Y.Y.Y.Y.Y.Y.Y.Y.Y.Y.Y.Y.Y.Y.Y.Y.Y.Y.Y.Y.Y.U.U.U.",
"U.U.U.U.P.J.J.J.J.J.H.H.J.J.J.J.J.J.J.J.J.H.H.H.H.J.J.J.J.J.J.H.J.J.J.J.J.J.J.J.J.J.K.J.J.J.I.U.U.U.",
"U.I.Y.P.r q e e r r r q r r r r e e r r r r q r r r r r e e e e e e e e e e e e r r e e e < $.T.U.U.",
"U.I.Y.x.{ b.a.a.b.b.b.a.a.a.a.b.a.p.a.b.a.a.b.b.a.a.a.b.a.a.a.a.a.a.a.a.a.a.a.a.p.e.0.8.5.W O.T.U.U.",
"U.U.Y.z.#.F.S.A.A.A.A.A.A.A.A.A.A.A.A.A.N.A.A.A.A.A.A.A.A.A.A.A.A.A.A.A.A.A.A.N.M.m.f.u.t.[ %.T.U.U.",
"U.U.Y.x.#.A.N.N.N.N.N.N.n.n.N.n.n.N.N.N.N.N.N.N.N.n.N.N.N.N.n.n.N.N.N.N.N.m.n.n.f.s.t.8.1.R %.T.U.U.",
"U.U.Y.x.o.A.N.N.N.N.n.m.n.n.n.n.n.n.n.n.n.n.n.n.n.n.n.n.n.n.n.n.n.n.N.n.n.n.g.g.s.t.5.,.:.J %.T.U.U.",
"U.U.Y.x.o.C.m.n.n.n.n.n.g.n.n.n.n.n.n.n.n.g.n.n.n.n.f.n.n.n.n.n.g.n.n.g.n.g.f.s.i.9.<.:.+.C $.T.U.U.",
"U.U.Y.x. .B.m.m.g.g.g.g.n.g.f.g.f.g.g.g.g.f.f.g.n.n.f.n.a.n.n.f.g.f.g.f.g.f.s.i.w.2.:.X.' m %.T.U.U.",
"U.U.Y.z. .B.g.g.g.g.g.g.f.f.f.f.s.s.f.f.f.f.f.f.s.s.s.f.s.f.f.s.f.f.f.f.f.s.i.r.9.<.:...] n %.R.U.U.",
"U.U.Y.x. .B.g.g.g.g.f.f.s.s.s.s.s.s.s.s.s.s.s.s.s.s.s.s.s.s.s.s.f.s.s.s.s.i.t.r.5.,.=.` ~ b %.T.U.U.",
"U.U.Y.x. .M.g.g.g.f.f.f.s.s.s.s.s.s.s.s.s.s.s.s.s.s.s.s.s.s.s.s.i.s.s.s.i.i.t.9.2.,.=.) ~ b %.T.U.U.",
"U.U.Y.x. .B.g.g.f.f.f.s.s.s.s.s.i.i.s.s.i.i.i.s.i.i.i.i.i.i.s.i.i.i.i.i.i.t.r.9.<.,.X.) ! s %.T.U.U.",
"U.U.Y.x. .B.g.g.f.f.s.s.s.s.s.t.i.i.s.i.i.i.f.V.B.s.i.i.s.i.i.i.u.f.V.C.s.t.r.8.2.:.X.) ~ s $.T.U.U.",
"U.U.Y.x. .M.n.f.f.f.f.s.s.i.i.i.s.i.s.i.i.k.f.S ) h.i.i.i.i.i.i.j.M.I H i.i.w.9.2.:.+.) ~ s $.T.U.U.",
"U.I.Y.x. .N.g.g.f.f.s.s.s.i.i.i.i.i.t.i.C.y.3     >.k.i.i.i.i.k.M.d     I V.w.9.2.:.+.) ~ s $.T.U.U.",
"U.U.Y.x. .B.g.g.f.g.s.s.s.i.i.i.s.s.s.C.7.%   .   ) M.i.i.i.V.d.6   .   l V.w.9.2.:.X.) ~ s $.T.U.U.",
"U.I.Y.x. .B.n.f.f.f.f.s.s.i.i.i.i.f.C.;.o   # % . ' M.i.i.C.q.=   X &   B V.w.9.2.:.+.) ! s $.T.U.U.",
"U.U.Y.x. .M.g.g.f.f.f.s.s.i.i.u.g.C.^     = 3.3   ' k.f.Z.>.@   X :.l   A V.w.9.2.:.+.) ~ s $.T.U.U.",
"U.U.Y.x. .M.g.g.f.f.s.s.s.i.u.k.V.B     , d.C.=   ' C.Z....   @ >.F.i   A V.w.9.2.:.+.) ~ s %.T.U.U.",
"U.U.Y.x. .B.g.g.g.s.f.s.s.u.M.k.y     w j.C.i.-   -.F.P     = q.Z.k.u   A M.w.9.2.:.+.) ~ s $.T.U.U.",
"U.U.Y.x. .N.n.g.g.f.s.s.i.j.y.1     j M.k.f.i.=   :.P     4 d.M.s.k.u   A V.w.9.2.:.+.) ~ s $.T.I.U.",
"U.U.Y.x. .B.g.f.g.s.f.s.g.d.>   @ ( C.h.i.h.i.: . :   . M k.k.i.i.k.u   A V.w.9.2.:.+.) ~ s $.T.U.U.",
"U.U.Y.x. .B.g.g.f.f.s.s.g.t.X   : j.Z.i.i.f.i.> .     O 2.F.i.i.f.k.u   B V.w.9.2.:.X.) ! s $.T.U.U.",
"U.U.Y.x.| B.g.g.f.f.s.s.f.k.)     * 7.Z.i.f.s.- . D >   o ' Z.f.i.k.u   A V.w.9.2.:.+.) ~ s $.T.U.U.",
"U.U.Y.x. .B.g.g.f.f.f.s.s.s.C.@.o   o ;.Z.j.i.-   <.l.=     P C.k.k.u   A V.r.9.2.:.X.) ~ s %.T.U.U.",
"U.U.Y.x. .B.g.f.g.f.f.s.i.i.i.Z.3.%     ( D.j.&   ` D.l.4     j C.Z.y   A V.r.9.2.:.=.) ~ s $.T.U.U.",
"U.I.Y.x. .B.g.g.f.f.f.s.i.i.i.i.C.y.>     P V.,   ' k.k.k.i     p C.l   A M.r.9.2.:.X.) ~ s $.T.U.U.",
"U.U.Y.x. .M.g.g.f.f.s.s.i.i.i.i.i.M.j.0     g >   ' M.i.j.C.A     0 w   A V.r.8.2.:.+.) ! s $.T.U.U.",
"U.U.Y.x. .M.g.g.f.f.d.s.s.i.i.i.i.u.k.M.j     X   ' k.i.i.h.Z.^     X   B V.r.0.2.:.X.) ~ s $.T.U.U.",
"U.U.Y.x.| B.g.g.g.f.f.s.s.i.i.s.i.i.u.j.Z.P       ' M.i.i.i.f.Z.;.o     l V.w.8.2.>.+.) ! s %.T.U.U.",
"U.U.Y.x.| B.g.g.f.f.s.s.s.u.i.i.i.i.i.i.f.Z.` + < y.h.i.i.i.i.i.Z.3.& # ,.j.w.8.1.:.[ ) ~ s $.T.U.U.",
"U.U.Y.x. .B.g.g.g.f.s.s.s.i.i.i.i.i.i.i.i.i.k.u.s.h.i.i.i.i.i.i.i.k.f.i.h.t.t.8.2.>.' ) ~ s $.T.U.U.",
"U.U.Y.x.| B.g.g.f.f.s.s.s.i.i.i.i.i.i.i.i.i.i.h.f.u.i.i.u.i.i.i.i.i.f.h.i.u.r.8.2.:.=.) ! s %.T.U.U.",
"U.U.Y.x. .B.g.g.f.d.i.i.i.i.u.u.u.u.u.u.u.u.u.u.i.u.i.u.u.u.i.u.u.u.i.i.t.r.8.8.,.:.' / ! s %.T.U.U.",
"U.U.Y.x.| M.g.f.f.i.i.u.w.w.w.w.t.t.w.r.r.r.r.r.r.r.r.t.r.r.t.t.r.r.r.t.t.8.8.2.,.:.' ~ Q b %.T.U.U.",
"U.U.Y.x.| M.f.s.i.u.w.w.0.8.0.0.8.8.0.8.8.0.8.0.8.8.8.8.8.8.8.8.8.8.8.8.8.8.2.,.:.+.` ! Q s %.T.U.U.",
"U.U.Y.x.| k.i.u.r.8.8.8.2.2.2.<.2.2.2.2.2.2.1.1.2.2.7.2.2.2.6.2.2.2.7.2.2.<.,.:.=.' ) Q L a %.T.U.U.",
"U.U.Y.x.| h.t.0.8.2.,.,.:.:.:.:.:.:.:.:.:.:.:.:.:.:.:.:.:.:.:.:.:.:.:.:.:.;.@.+.' ) I P L a &.T.U.U.",
"U.U.Y.x.( i.8.1.>.:.-.+.X.X.X.......' X.X.' +.' ' X.' ..' X.' ..' ......' ' ` ) ~ Q H Z H 9 %.R.U.U.",
"U.U.Y.c.^ r.,.:.+.' ) / ! ! ! ! ! Q ! ! ! ! Q ! ! ! ! Q ! ! ! ! ! ! ! ! Q Q I I J H B B B 9 %.T.U.U.",
"U.U.Y.G.Y 6.;.' ) ! I L L H H D H H H H H H H H H H H H H H H H H D H K J H D D A B B l B 7 %.T.U.U.",
"U.U.Y.G.U 4.[ ] E J Z V V V N N N N N N N N N N N N N N N N N N N N N N N N n n h h s s n 8 O.T.U.U.",
"U.U.Y.K.v G F c x z k f f f f f f f f f f f f f f f f f f f f f f f f f f f f f f f f f g 5 *.R.U.U.",
"U.U.U.Y.K.c.H.H.K.K.K.K.K.K.K.K.K.K.K.K.L.K.K.K.K.K.L.L.K.K.K.K.K.K.L.L.K.K.K.K.L.L.K.K.K.K.I.U.I.U.",
"U.I.I.I.Y.Y.Y.Y.Y.Y.Y.Y.Y.Y.Y.Y.Y.Y.Y.Y.Y.Y.Y.Y.Y.Y.Y.Y.Y.Y.Y.Y.Y.Y.Y.Y.Y.Y.Y.Y.Y.Y.Y.Y.Y.Y.Y.I.U.U.",
"U.U.U.U.U.U.U.U.U.U.U.U.U.U.U.U.U.U.U.U.I.U.U.U.U.U.U.U.U.U.U.U.I.I.U.U.U.U.U.U.U.U.U.U.U.U.U.U.U.U.",
"U.U.U.U.U.U.U.U.U.U.U.U.U.U.U.U.U.U.U.U.U.U.U.U.U.U.U.U.U.U.U.U.U.U.U.U.U.U.U.U.U.U.U.U.U.U.U.U.U.U."
};
