/* XPM */
static char *FRewMouseOver_xpm[] = {
/* columns rows colors chars-per-pixel */
"50 50 173 2 ",
"   c #000000",
".  c #040609",
"X  c #0C0C0D",
"o  c #110F0F",
"O  c #131111",
"+  c #1A1615",
"@  c #1A1817",
"#  c #1E1B19",
"$  c #251F1D",
"%  c #26211F",
"&  c #2E2925",
"*  c #2A2622",
"=  c #322B26",
"-  c #342E29",
";  c #3C2F2A",
":  c #36312B",
">  c #3C352E",
",  c #40362F",
"<  c #433B33",
"1  c #483D34",
"2  c #484037",
"3  c #4E4238",
"4  c #52453A",
"5  c #4F3D46",
"6  c #5D4E42",
"7  c #514F4F",
"8  c #5C5044",
"9  c #4E5B51",
"0  c #525752",
"q  c #525852",
"w  c #644B4C",
"e  c #655749",
"r  c #67594B",
"t  c #6B5C4D",
"y  c #615245",
"u  c #7E5450",
"i  c #666455",
"p  c #6B6454",
"a  c #6C6959",
"s  c #746453",
"d  c #786856",
"f  c #7D6C5A",
"g  c #716D5C",
"h  c #6A715F",
"j  c #777260",
"k  c #7D7764",
"l  c #815652",
"z  c #885151",
"x  c #8A5E59",
"c  c #855A55",
"v  c #856756",
"b  c #8E615B",
"n  c #816F5A",
"m  c #8C6C5A",
"M  c #92655E",
"N  c #84725D",
"B  c #88755F",
"V  c #91715E",
"C  c #956760",
"Z  c #966861",
"A  c #9A6B64",
"S  c #867460",
"D  c #8A7661",
"F  c #8E7963",
"G  c #8F7C6B",
"H  c #957561",
"J  c #927D66",
"K  c #917D68",
"L  c #9C7A66",
"P  c #A07169",
"I  c #A8776E",
"U  c #559668",
"Y  c #539968",
"T  c #539466",
"R  c #37C46E",
"E  c #38C36C",
"W  c #39C671",
"Q  c #3DC974",
"!  c #44CF79",
"~  c #4BD47C",
"^  c #46D17A",
"/  c #51D97E",
"(  c #968067",
")  c #93816A",
"_  c #9C866D",
"`  c #988472",
"'  c #998F78",
"]  c #938A74",
"[  c #A0886E",
"{  c #A3816B",
"}  c #A58C72",
"|  c #AB8C73",
" . c #B38075",
".. c #BE8A7C",
"X. c #A29077",
"o. c #AB9176",
"O. c #A49279",
"+. c #AC9378",
"@. c #B1977C",
"#. c #B49A7E",
"$. c #BA937B",
"%. c #55DC81",
"&. c #57E585",
"*. c #58E786",
"=. c #57EA87",
"-. c #5BE887",
";. c #58EF89",
":. c #58F089",
">. c #54FC8D",
",. c #59FD8F",
"<. c #9E9085",
"1. c #A29A86",
"2. c #A29C89",
"3. c #B79D80",
"4. c #B99E81",
"5. c #BCA083",
"6. c #BFA88B",
"7. c #A9A290",
"8. c #CF8E86",
"9. c #D49C8B",
"0. c #C1A587",
"q. c #C3A789",
"w. c #C4AA8B",
"e. c #CBAD8D",
"r. c #C9A185",
"t. c #CEB393",
"y. c #D3B493",
"u. c #D7B896",
"i. c #D9B997",
"p. c #DABA98",
"a. c #D5BD9B",
"s. c #E1BF9C",
"d. c #EBBD9D",
"f. c #F4BA9C",
"g. c #DAC19F",
"h. c #E3C19E",
"j. c #E6C4A0",
"k. c #EBC5A2",
"l. c #E2CAA6",
"z. c #EECBA6",
"x. c #F0CCA6",
"c. c #FBCAA7",
"v. c #F3CEA9",
"b. c #EDD3AC",
"n. c #F6D2AB",
"m. c #FAD5AE",
"M. c #F1CEB9",
"N. c #F1CBB4",
"B. c #FAD6B1",
"V. c #F4DDB4",
"C. c #FBD9B4",
"Z. c #FBDCBB",
"A. c #F2D1BD",
"S. c #FFE0B7",
"D. c #FFE4BB",
"F. c #FFE9BE",
"G. c #F2E4BA",
"H. c #F2D3C2",
"J. c #FBDFC1",
"K. c #FBE1C4",
"L. c #FFEDC1",
"P. c #FCE3C8",
"I. c #FFEDCE",
"U. c #FFF3C5",
"Y. c #FFF6C9",
"T. c #FFF9CB",
"R. c #FFEED4",
"E. c #F5E1D2",
"W. c #FFF1D5",
"Q. c #FFFFD4",
"!. c #FFF3DA",
"~. c #FFFFDA",
"^. c #FFFFE7",
/* pixels */
"&.&.&.&.&.&.&.&.&.&.&.&.&.&.&.&.&.&.&.&.&.&.&.&.&.&.:./ :./ -.-.&.&.&.&.&.&.=.*.*.=.*.*.&.&.&.&.&.&.",
"&.&.&.&.&.&.&.&.&.*.&.&.&.&.&.&.&.&.&.&.&.&.&.&.&.&./ ;.-.-./ -.&.&.&.&.&.&.-./ / -./ *.&.&.&.&.&.&.",
"&.&.&.&.;.;.;.;.=.;.;.;.;.;.;.-.;.-.;.;.-.;.;.;.;.;.;./ ,./ ,.:.;.;.:.:.;.-.:.=.:.:.:.:.=.:.=.&.&.&.",
"&.&.&.*./ ^ ~ ~ ~ ^ ~ ~ ~ ~ ~ ^ ~ ~ ~ ~ ~ ~ ^ ~ ~ ~ ~ ~ ~ ~ ~ ~ ~ ^ ~ ~ ~ ~ ~ ~ ~ ~ ~ ~ ~ ~ &.=.&.&.",
"&.&.;.%.9 7 0 0 0 0 0 0 q q q q 0 0 9 0 0 0 0 0 0 0 0 0 q 0 0 0 0 0 0 0 0 0 0 0 9 0 0 0 q 5 Y >.&.&.",
"&.&.;.E <.E.H.H.H.H.H.H.H.H.H.H.A.A.H.H.H.H.H.H.H.H.H.A.Z.A.H.H.H.H.H.H.H.H.H.M.M.v.c.h.k.8.T >.&.&.",
"&.&.;.E 7.^.R.W.!.!.R.!.R.R.R.R.W.W.I.W.R.R.R.R.W.R.R.R.R.R.W.W.R.R.R.R.R.R.R.I.P.F.S.m.c.9.U >.&.&.",
"&.&.;.R 2.!.P.P.P.P.P.P.P.P.P.P.P.P.P.P.P.P.P.P.P.P.P.P.P.P.P.P.P.P.P.P.P.K.J.J.Z.B.x.s.p...U >.&.&.",
"&.&.;.E 2.!.P.P.K.K.K.K.K.J.K.K.J.J.J.J.K.K.J.K.K.K.J.K.K.J.K.K.K.K.K.K.K.D.Z.Z.B.n.h.y.e. .Y >.&.&.",
"&.&.;.E 2.W.K.K.K.D.J.J.J.Z.Z.Z.J.J.Z.Z.Z.Z.J.Z.Z.Z.Z.Z.Z.J.J.Z.Z.Z.Z.Z.Z.Z.C.C.n.h.i.w.0.I Y >.&.&.",
"&.&.;.E 2.W.J.J.Z.Z.Z.Z.Z.Z.Z.Z.Z.Z.Z.Z.Z.Z.Z.C.Z.Z.C.Z.Z.Z.Z.Z.Z.Z.Z.C.Z.C.B.n.x.s.e.5.#.P Y >.&.&.",
"&.&.;.E <.R.J.Z.Z.Z.Z.Z.C.C.B.V.C.C.C.C.C.C.C.C.C.C.C.C.C.C.V.B.C.C.C.C.C.B.m.x.h.u.e.#.@.A Y >.&.&.",
"&.&.:.E <.W.D.J.Z.Z.A.C.B.B.B.B.B.B.B.B.B.B.B.C.B.B.B.B.B.B.B.B.B.B.B.B.B.m.m.x.s.y.0.@.o.M U >.&.&.",
"&.&.:.R 1.W.Z.Z.Z.C.C.C.B.B.B.B.B.B.B.B.B.B.B.B.B.B.B.B.B.B.B.B.B.m.B.B.m.m.x.h.s.e.#.@.o.A Y >.&.&.",
"&.&.;.R 1.I.Z.Z.C.C.B.B.B.m.m.m.m.B.n.B.m.m.m.B.B.m.B.m.m.m.n.B.m.m.m.m.m.m.x.h.p.e.0.+.} M Y >.&.&.",
"&.&.;.R 1.I.Z.Z.Z.C.B.B.B.m.m.B.m.n.B.n.m.m.C.Y.L.m.n.m.m.m.B.n.m.B.U.Y.B.x.x.h.p.e.5.+.o.M Y >.&.&.",
"&.&.:.R 1.I.Z.Z.Z.C.B.B.B.m.m.m.m.m.m.m.m.L.B.D +.S.m.m.m.B.m.n.D.L.` J m.m.x.j.p.e.0.o.o.M Y >.&.&.",
"&.&.;.R 1.R.Z.Z.C.C.C.B.B.m.m.m.m.B.m.m.Y.n.1     t.F.m.m.m.n.L.L.p     ` L.x.j.p.w.4.+.} Z Y >.&.&.",
"&.&.:.R 1.I.Z.Z.C.C.B.B.B.m.m.m.m.m.m.T.g.%   .   +.L.B.m.n.U.C.4   .   n Y.z.j.p.e.4.@.} Z Y >.&.&.",
"&.&.:.R 1.I.Z.Z.Z.C.B.B.B.m.m.n.m.B.T.w.o   # % . #.L.m.m.Y.l.-   X &   B U.z.h.p.e.4.+.} C Y >.&.&.",
"&.&.;.R 1.I.Z.Z.C.B.C.B.B.m.m.m.S.T.X.    = a.2   #.L.B.T.t.@   X w.f   S U.k.j.p.e.0.| | Z Y >.&.&.",
"&.&.:.R 1.I.Z.Z.Z.C.B.B.B.m.m.F.U.S     , V.Y.=   #.Y.T.3..   + t.~.t   S Y.z.j.p.e.4.+.} Z Y >.&.&.",
"&.&.;.R 1.I.Z.Z.A.B.C.B.B.n.L.F.e     8 S.T.m.-   q.~.)     = l.T.F.r   S U.z.j.p.e.0.o.} Z Y >.&.&.",
"&.&.;.R 1.I.Z.Z.Z.C.B.B.m.D.b.1     d L.F.C.m.-   e.)     1 V.U.B.L.r   S L.z.j.p.e.4.@.| Z Y >.&.&.",
"&.&.;.R 1.I.Z.Z.C.B.B.B.Z.V.>   @ o.U.S.m.S.m.: . :   . n F.L.m.B.F.r   D U.z.j.p.e.5.+.} Z Y >.&.&.",
"&.&.:.R 1.R.Z.Z.Z.C.C.B.Z.v.X   : D.T.m.m.S.m.: .     O p.~.m.m.B.F.r   B U.z.j.p.e.5.+.} Z Y >.&.&.",
"&.&.;.R 1.I.Z.Z.V.C.B.B.B.F.+.    * g.T.m.C.m.: . F >   o #.Y.C.m.F.r   S U.z.j.p.e.5.+.| Z Y >.&.&.",
"&.&.;.R 1.I.Z.Z.Z.C.B.B.B.B.Y.6.o   o w.T.D.m.=   u.G.=     ) Y.F.F.r   B U.z.j.p.e.5.+.} Z Y >.&.&.",
"&.&.:.R 1.I.Z.Z.Z.C.B.B.B.m.m.T.g.$     O.Q.C.=   #.Q.G.3     d Y.T.e   S U.z.j.p.e.5.+.} Z Y >.&.&.",
"&.&.;.R 1.I.Z.Z.C.C.B.B.m.m.m.m.Y.b.>     ) Y.<   #.F.F.F.t     y Y.f   S U.z.j.p.e.5.+.} C Y >.&.&.",
"&.&.:.R 1.I.Z.Z.Z.C.C.B.B.m.m.m.m.L.S.6     p >   #.L.m.D.Y.S     6 8   S U.z.j.p.e.5.+.} Z Y >.&.&.",
"&.&.:.R 1.R.Z.Z.C.B.C.m.C.m.m.m.m.m.F.L.d     X . @.F.m.m.S.T.X.    X   N U.z.j.p.e.5.+.} C Y >.&.&.",
"&.&.;.R 1.I.Z.Z.Z.C.B.B.B.B.n.B.m.m.n.D.Y.(       #.U.m.m.m.B.T.w.X     f Y.z.h.g.e.5.+.| V U >.&.&.",
"&.&.:.R 1.I.D.Z.Z.C.C.B.B.n.B.n.m.m.m.m.S.Y.+.+ < b.C.m.m.m.m.m.T.g.% $ t.S.z.h.p.e.5.+.| M U >.&.&.",
"&.&.;.R 1.I.Z.Z.C.B.C.B.B.B.n.B.m.m.m.m.n.B.F.n.B.S.m.m.m.m.m.m.m.F.S.m.S.c.x.h.p.e.5.+.o.M Y >.&.&.",
"&.&.;.R 1.I.Z.Z.C.C.B.B.m.m.m.m.m.m.m.m.m.m.m.D.C.m.m.m.m.m.m.m.m.m.C.S.m.n.x.h.p.e.5.+.| M Y >.&.&.",
"&.&.;.R 1.I.Z.C.C.C.m.m.m.n.n.n.n.n.n.n.n.n.m.n.n.n.n.n.n.n.m.n.n.n.m.n.n.x.k.h.i.e.#.o.} M U ,.&.&.",
"&.&.;.R 1.I.Z.C.C.m.m.n.v.x.x.x.v.v.z.x.x.z.x.x.x.x.x.x.x.x.x.x.x.x.x.x.n.h.h.i.y.e.#.o.[ V U >.&.&.",
"&.&.:.R 1.P.B.B.m.v.x.z.k.h.k.j.h.k.h.h.h.k.h.j.h.h.h.h.h.h.h.h.h.h.h.h.h.h.p.y.e.#.@.[ _ M Y >.&.&.",
"&.&.;.R 1.L.B.m.z.j.h.h.p.p.p.p.p.p.p.p.p.p.p.p.p.p.h.p.h.p.p.p.p.p.g.p.p.u.y.e.w.#.o._ _ M Y >.&.&.",
"&.&.;.W 1.D.v.k.h.p.y.y.e.e.e.e.e.e.w.e.e.e.e.e.e.e.e.e.e.e.e.e.e.e.e.e.e.w.0.4.#.+.} ( ( b U ,.&.&.",
"&.&.;.W O.B.j.p.t.e.0.5.4.4.5.#.3.#.4.4.4.#.3.#.#.4.#.4.#.4.#.#.#.4.#.#.#.#.@.o.| [ ( B B v U >.&.&.",
"&.&.;.Q ' c.y.w.5.#.+.o.} } } [ } } } } } } } } } } } [ } } } } } } } } } [ _ _ ( J B n B l Y >.&.&.",
"&.&.;.Q ] d.q.3.+.[ _ _ ( ( J J J J F G J J F J J J J J J J J J J J J J J J J D B N n f n l Y >.&.&.",
"&.&.;.Q ` d.r.$.| { L J H B V V V V V V B Z D m V V V V D Z B V V V V V D V V m m v v v m z T >.&.&.",
"&.&.;.~ h G k j g a i i i i i i i i i i i i i i p i i i i i i i p i i i i q i i i i i i p w Y >.&.&.",
"&.&.&.-.%.W ! ! %.! %.^ %.~ ~ %.%.^ ~ %.~ ~ ~ %.~ %.~ ~ %.^ ^ %.~ %.~ ~ %.%.! %.~ %./ ~ ~ ~ / ;.&.&.",
"&.&.&.&.:.:.:.=.:.:.=.=.=.;.;.;.;.;.;.;.:.:.;.;.;.:.:.:.;.;.;.;.;.;.:.:.:.:.=.;.;.=.:.:.:.;.;.&.&.&.",
"&.&.&.&.&.&.&.&.&.&.&.&.&.&.&.&.&.&.&.&.&.&.&.&.&.&.&.&.&.&.&.&.&.&.&.&.&.&.&.&.&.&.&.&.&.&.&.&.&.&.",
"&.&.&.&.&.&.&.&.&.&.&.&.&.&.&.&.&.&.&.&.&.&.&.&.&.&.&.&.&.&.&.&.&.&.&.&.&.&.&.&.&.&.&.&.&.&.&.&.&.&."
};
