/* XPM */
static char *FRewPressed_xpm[] = {
/* columns rows colors chars-per-pixel */
"50 50 137 2 ",
"   c #000000",
".  c #0B0C0E",
"X  c #120F0F",
"o  c #11100F",
"O  c #0E0F10",
"+  c #0F1011",
"@  c #131212",
"#  c #191514",
"$  c #1A1816",
"%  c #1B1A19",
"&  c #231F1E",
"*  c #21201E",
"=  c #252320",
"-  c #292321",
";  c #302A26",
":  c #362F2A",
">  c #3A332E",
",  c #3A3532",
"<  c #3F3A34",
"1  c #453C36",
"2  c #543F31",
"3  c #4D433C",
"4  c #484747",
"5  c #564B42",
"6  c #5C544F",
"7  c #515251",
"8  c #585A5A",
"9  c #665445",
"0  c #6B5747",
"q  c #655A4F",
"w  c #6B5D4F",
"e  c #665D53",
"r  c #6A5D51",
"t  c #6E6256",
"y  c #67635C",
"u  c #68635B",
"i  c #756455",
"p  c #796656",
"a  c #7A6957",
"s  c #776658",
"d  c #75695C",
"f  c #7D6C5A",
"g  c #656561",
"h  c #7D6F61",
"j  c #7F7162",
"k  c #76716B",
"l  c #79746E",
"z  c #856F5A",
"x  c #827464",
"c  c #877866",
"v  c #867768",
"b  c #867969",
"n  c #8B7C6B",
"m  c #8E806F",
"M  c #91816F",
"N  c #8D8171",
"B  c #958473",
"V  c #988775",
"C  c #9B8A76",
"Z  c #9E8D7A",
"A  c #A18F7C",
"S  c #A4917E",
"D  c #9C8F81",
"F  c #9F9181",
"G  c #A39484",
"H  c #A99682",
"J  c #A69985",
"K  c #AF9C86",
"L  c #A29688",
"P  c #A6998A",
"I  c #AA9B8C",
"U  c #B19D87",
"Y  c #B29F89",
"T  c #92A09F",
"R  c #B4A08A",
"E  c #BBA68F",
"W  c #B3A493",
"Q  c #BCA790",
"!  c #BAAA96",
"~  c #B7A998",
"^  c #BCAB98",
"/  c #97A6A5",
"(  c #98A7A6",
")  c #99AAAA",
"_  c #C5AE96",
"`  c #C7B097",
"'  c #C5B29A",
"]  c #C9B199",
"[  c #D0B89F",
"{  c #C5B4A1",
"}  c #C8B6A3",
"|  c #CAB9A6",
" . c #D6BDA3",
".. c #D8BEA4",
"X. c #D1BDA8",
"o. c #DAC1A6",
"O. c #D5C1AC",
"+. c #DDC5AA",
"@. c #DBC7B2",
"#. c #DDC9B4",
"$. c #DFD0B3",
"%. c #E1C7AB",
"&. c #E4CAAD",
"*. c #E3CCB3",
"=. c #EACEB2",
"-. c #E4D4B6",
";. c #EED2B5",
":. c #E7D2BB",
">. c #EDD6BD",
",. c #E3D8BA",
"<. c #F0D4B7",
"1. c #F2D6B9",
"2. c #F6DABC",
"3. c #FBDDBE",
"4. c #EEDEC0",
"5. c #F6DDC2",
"6. c #FBDFC0",
"7. c #F5E4C4",
"8. c #FCE1C4",
"9. c #F7ECCC",
"0. c #FFEBCA",
"q. c #FFF1CF",
"w. c #FFF4D2",
"e. c #FFF9D5",
"r. c #FFFFDD",
"t. c #CAE9EC",
"y. c #CFEFF2",
"u. c #D0EFF2",
"i. c #D5F3F5",
"p. c #D8F6F6",
"a. c #DEFDFD",
"s. c #FFFFE2",
"d. c #E0FFFF",
"f. c #EAFFFF",
"g. c #FFFFF4",
"h. c #F5FFFF",
"j. c #F9FFFF",
/* pixels */
"d.d.d.d.d.d.d.d.d.d.d.d.d.d.d.d.d.d.d.d.d.d.d.d.d.d.d.d.d.d.d.d.d.d.d.d.d.d.d.d.d.d.d.d.d.d.d.d.d.d.",
"d.d.d.d.d.d.d.d.d.d.d.d.d.d.d.d.d.d.d.d.d.d.d.d.d.d.d.d.d.d.d.d.d.a.d.d.d.d.d.d.d.d.d.d.a.a.d.d.d.d.",
"d.d.a.d.f.f.f.f.f.f.f.f.f.f.f.f.f.f.f.f.f.f.f.f.f.f.f.f.f.f.f.f.f.f.f.f.f.f.f.f.f.f.f.f.f.f.f.a.d.d.",
"d.d.d.d.p.i.i.i.p.i.i.i.i.i.i.i.i.i.i.i.i.i.i.p.i.i.i.p.i.i.i.i.i.i.i.i.i.i.i.i.p.i.i.i.i.i.a.d.d.d.",
"d.d.f.i.8 4 7 7 7 7 7 7 7 7 7 7 7 7 7 7 7 7 7 7 7 7 7 7 7 7 7 7 7 7 7 7 7 7 7 7 7 7 7 7 7 , ) j.d.d.",
"d.d.f.y.6 9 w r w w w w w w w w w w w w w w w w w w w w w w w w w w w w w w w w w w w w i 2 T j.d.d.",
"d.d.f.y.u i f f h h z x x x x x x x x x x x x x x x x x x x x x x x z x x x z x z j j x c 0 ( h.d.d.",
"d.d.f.i.u i h j x c b n m n n n n n n M n n n M M n n n M n n n m n m m b m m n b b c x b r ( j.d.d.",
"d.d.f.i.u p j x n B V C A Z Z A C A A A A Z A A A A A A A A A C S A C A A A Z C V V B n V i ( h.d.d.",
"d.d.f.y.y p x n V S K U R R R R R R R R R R R R R R R R R R R R R R R R R R R R K H F C Z s / h.d.d.",
"d.d.f.y.u f c M S K E _ ` ` ` ` ` ` ` ` ` ` ` ` ` ` ` ` ` ` ` ` ` ` ` ` ` ] ] ] _ Q K L D s / h.d.d.",
"d.d.f.u.u f c B H E ` [  .....o. . . . . .......[ ..............o.[ ..o...o.%.+. .' W P F s / h.d.d.",
"d.d.f.y.u f n V H _ [ o.%.&.&.&.=.&.&.&.&.&.&.&.&.&.&.&.&.&.&.&.&.&.=.&.=.=.<.=.+.| ! I G p / h.d.d.",
"d.d.f.y.u f n C K _  .%.=.;.;.1.<.<.1.1.<.<.<.1.<.<.<.<.<.<.<.<.<.<.<.<.1.2.3.>.*.X.^ I L i / h.d.d.",
"d.d.f.y.u f n C K _  .%.;.1.1.1.2.2.2.2.2.2.2.2.3.3.2.2.2.2.2.2.2.2.2.2.3.8.6.>.*.X.^ I G i / h.d.d.",
"a.d.f.u.u f n C K _  .%.;.1.3.3.3.3.3.3.3.3.6.0.6.3.3.3.3.3.3.3.6.8.0.3.3.8.5.>.*. .! I L s / h.d.d.",
"d.d.f.y.u f n C U _  .%.;.2.3.6.3.3.3.3.3.8.w.<.0.8.6.6.6.3.6.3.w.8.2.0.3.8.5.1.*.X.^ I F s / h.d.a.",
"d.d.f.y.u f n C K _  .&.;.1.3.3.3.3.3.3.0.r.V o q 0.8.3.3.3.3.r.-.> $ ] w.8.5.>.*.X.^ I G s / h.d.d.",
"d.d.f.u.u f c C U _  .&.<.2.3.3.6.6.3.w.e.d     . =.0.3.3.8.r.| #     h s.6.5.4.=.X.^ I G s / h.d.d.",
"d.d.f.u.u f n C K _  .&.;.2.3.3.3.3.e.7.5     + $ &.0.3.0.r.K     #   v r.8.5.1.*.X.^ I G s / h.d.d.",
"d.d.f.y.u f n C K _  .%.;.1.3.3.6.e.-.;   $ R = O =.0.q.e.b     n v   v s.6.5.1.*.| ^ I G p / h.d.d.",
"d.d.f.y.u f n V U _  .&.;.3.3.8.r.' o   - ,.w.@ . =.r.q.r     b g.B   n s.6.5.4.*.X.^ I G p / h.d.d.",
"d.d.f.y.u f c C U _  .%.;.1.0.r.S     3 7.s.;.@ . 0.9.1     J r.s.h   n s.6.5.1.*.X.~ I G s / h.d.d.",
"d.d.f.y.u z n C U _  .&.;.3.0.j     t w.w.0.<.@ = ] >   # [ s.8.r.x   v s.6.5.>.*.X.^ I G s / h.d.d.",
"d.d.f.y.u f c C U _ [ &.;.e.B     S s.0.3.0.1.% O O   1 7.r.3.3.e.x   b s.6.5.4.*.X.! I G s / h.d.d.",
"d.d.f.y.u f n C U _ ..&.;.e.C     Z s.q.3.0.1.% O @   1 5.r.8.3.r.x   b s.6.6.>.*.X.! I G s / h.d.d.",
"d.d.f.y.u f n C U _ ..&.;.3.q.m     e 0.e.8.<.@ * X.1   o ' r.8.r.x   b s.8.5.>.*.X.^ I G s / h.d.d.",
"d.d.f.y.u f n C U ` [ &.;.1.8.r.I     1 4.s.;.@ O 0.9.3     G r.s.x   b r.8.5.1.*.X.^ P G s / h.d.d.",
"d.d.f.y.u z c C K _  .&.<.2.2.8.s.| #   & -.e.@ . =.r.e.t     x g.B   b r.6.5.2.*.X.^ I G s / h.d.d.",
"d.a.f.y.u f n C U _ [ &.;.1.3.3.3.r.-.>   # Y = O =.0.0.r.N     b x   b r.8.5.>.*.X.^ I G s / h.d.d.",
"d.d.f.y.u f n C K _  .&.;.2.3.3.3.3.e.0.5     O $ =.0.3.0.r.R     #   v s.8.5.>.*.X.! I G s / h.d.d.",
"d.d.f.y.u f n C K _  .&.<.2.3.3.3.3.3.q.e.d     . =.0.3.3.8.r.O.#     h s.6.5.2.*.X.^ I G s / h.d.d.",
"d.d.f.y.u f n C U _  .%.;.2.3.3.6.6.6.2.8.s.B O e 0.8.6.5.2.6.e.:., $ ] q.5.5.5.#.X.~ P G s / j.d.d.",
"d.d.f.y.u f c C U _  .&.<.1.3.3.6.6.6.6.6.6.q.<.8.8.3.6.6.5.2.2.q.8.2.0.5.5.5.5.*.X._ I G s / h.d.d.",
"d.d.f.y.u f n C K _  .&.<.1.3.3.5.6.5.5.6.6.6.0.8.3.3.3.6.6.6.6.6.8.0.6.5.5.5.:.*.X._ I G i / h.d.d.",
"d.d.f.y.u f n C K _  .&.<.3.3.6.5.5.5.5.6.6.6.6.8.6.6.6.6.6.6.6.6.6.6.6.5.5.5.:.*.X.~ P G i / h.d.d.",
"d.d.f.y.u f n C K _ ..&.1.8.8.8.5.5.5.8.8.8.5.5.8.8.6.8.6.8.5.5.6.6.5.5.5.5.5.5.*.X.! I G s / j.d.d.",
"d.d.f.y.u f n C K _ o.;.3.8.8.6.5.5.8.8.8.8.8.5.8.6.8.8.8.5.5.5.5.8.5.5.8.8.5.5.*.| _ I G s / h.d.d.",
"d.d.f.y.u f c V K _ ..=.2.5.5.5.5.5.5.5.5.5.5.5.5.5.5.5.5.5.5.5.6.5.5.5.8.5.4.4.#.| ! P G s / h.d.d.",
"d.d.f.u.u f c B H _  .*.:.>.:.:.5.#.4.:.4.4.4.4.:.>.>.:.4.4.4.4.4.4.4.4.5.4.#.#...} W L G s / h.d.d.",
"a.d.f.u.y f x B G E } O.@.#.#.#.#.#.#.#.#.#.#.#.#.#.#.#.#.#.#.#.#.#.#.#.#.#.#.O.| { W L D s / j.d.d.",
"d.d.f.u.y a x B A R ^ { } | | | | | | | | | | | | | | | | | | | | | | | | | { { ^ W I F D s / h.d.d.",
"d.d.f.u.u f x n Z P W W ~ ~ ! ~ ~ ~ ! ^ ~ ~ ~ ~ ~ ~ ~ ~ ~ ~ ~ ~ ~ ~ ~ ~ ~ ~ W W W I L D D i / h.d.d.",
"d.d.f.y.u f v B D L L I I I I I I I I I I I I I I I I I I I I I I I I I I I I I L L F D D s / h.d.d.",
"d.d.f.t.e z M C A F G G L L L H G G G G G G G G P L L L G G G G P L L L G G G G G G F D F i T j.d.d.",
"d.d.f.i.g u k k l l k l l l l l l l l l l l l k l l l l l l l l l l l l l l l l k l k k l q ) j.d.d.",
"d.d.d.d.i.t.t.t.t.t.t.t.t.t.t.t.t.t.t.t.t.t.t.t.t.t.t.t.t.t.t.t.t.t.t.t.t.t.t.t.t.t.t.t.t.t.p.f.d.d.",
"d.d.d.d.f.f.f.f.f.f.f.f.f.f.f.f.f.f.f.f.f.f.f.f.f.f.f.f.f.f.f.f.f.f.f.f.f.f.f.f.f.f.f.f.f.f.f.a.d.d.",
"d.d.d.d.d.d.d.d.d.d.d.d.d.d.d.d.d.d.d.d.d.d.d.d.d.d.d.d.d.d.d.d.d.d.d.d.d.d.d.d.d.d.d.d.d.d.d.d.d.d.",
"d.d.d.d.d.d.d.d.d.d.d.d.d.d.d.d.d.d.d.d.d.d.d.d.d.d.d.d.d.d.d.d.d.d.d.d.d.a.d.d.d.d.d.d.d.d.d.d.d.d."
};
