/* XPM */
static char *pasteSegmentPressed_xpm[] = {
/* columns rows colors chars-per-pixel */
"50 50 129 2 ",
"   c #000004",
".  c #05040A",
"X  c #08070C",
"o  c #0B0A0E",
"O  c #0E0C10",
"+  c #151316",
"@  c #1D1A1C",
"#  c #231F20",
"$  c #252121",
"%  c #2B2726",
"&  c #2D2827",
"*  c #322928",
"=  c #3C3534",
"-  c #413A36",
";  c #443C39",
":  c #543F31",
">  c #4C433E",
",  c #4C4643",
"<  c #504741",
"1  c #524842",
"2  c #5C534D",
"3  c #515251",
"4  c #585A5A",
"5  c #665445",
"6  c #6B5747",
"7  c #64584F",
"8  c #6B5D4F",
"9  c #665E55",
"0  c #6B5D51",
"q  c #67635C",
"w  c #68635B",
"e  c #756455",
"r  c #796656",
"t  c #7A6957",
"y  c #766659",
"u  c #7D6C5A",
"i  c #656561",
"p  c #7E6F62",
"a  c #7F7161",
"s  c #76716B",
"d  c #79746E",
"f  c #856F5A",
"g  c #827464",
"h  c #877866",
"j  c #867669",
"k  c #87796B",
"l  c #8C7C6C",
"z  c #927F6F",
"x  c #8F7F71",
"c  c #8E806F",
"v  c #91816F",
"b  c #948473",
"n  c #988776",
"m  c #9B8A76",
"M  c #958678",
"N  c #9E8D7A",
"B  c #A18E7B",
"V  c #A4917D",
"C  c #9C8F81",
"Z  c #9F9181",
"A  c #A39484",
"S  c #A99682",
"D  c #AF9C86",
"F  c #A29688",
"G  c #A6998A",
"H  c #AA9B8C",
"J  c #B19D87",
"K  c #B39F89",
"L  c #92A09F",
"P  c #B4A08A",
"I  c #BAA48E",
"U  c #B3A493",
"Y  c #BCA790",
"T  c #BAAA96",
"R  c #B7A998",
"E  c #BCAB98",
"W  c #97A6A5",
"Q  c #98A7A6",
"!  c #99AAAA",
"~  c #C5AE96",
"^  c #C7B097",
"/  c #C7B29A",
"(  c #C8B199",
")  c #D0B89F",
"_  c #C5B4A1",
"`  c #C8B6A3",
"'  c #CAB9A6",
"]  c #D5BCA2",
"[  c #D8BEA4",
"{  c #D1BDA8",
"}  c #DAC1A6",
"|  c #D5C1AC",
" . c #DDC5AA",
".. c #DBC7B2",
"X. c #DDC9B4",
"o. c #E1C7AB",
"O. c #E4C9AD",
"+. c #E3CCB4",
"@. c #E9CEB1",
"#. c #EED2B5",
"$. c #E7D2BB",
"%. c #EDD6BD",
"&. c #F0D4B7",
"*. c #F4D7B9",
"=. c #F5DABC",
"-. c #F9DCBD",
";. c #F6DDC2",
":. c #FBDFC1",
">. c #F0E1C2",
",. c #FCE1C4",
"<. c #FDE5C9",
"1. c #F7E8C8",
"2. c #FFECCB",
"3. c #FFF1CE",
"4. c #FFF3D1",
"5. c #FFFAD6",
"6. c #FFFEDD",
"7. c #CAE9EC",
"8. c #CFEFF2",
"9. c #D0EFF2",
"0. c #D5F3F5",
"q. c #D8F6F6",
"w. c #DEFDFD",
"e. c LightYellow",
"r. c #FFFFEC",
"t. c #E0FFFF",
"y. c #EAFFFF",
"u. c #F5FFFF",
"i. c #F9FFFF",
/* pixels */
"t.t.t.t.t.t.t.t.t.t.t.t.t.t.t.t.t.t.t.t.t.t.t.t.t.t.t.t.t.t.t.t.w.t.t.t.t.t.t.t.t.t.t.t.t.t.t.t.t.t.",
"t.t.t.t.t.t.t.t.t.w.t.t.t.t.t.t.t.t.t.t.t.t.t.t.t.t.t.t.t.t.t.t.w.w.t.t.t.t.t.t.t.t.t.t.t.t.t.t.t.t.",
"t.t.w.t.y.y.y.y.y.y.y.y.y.y.y.y.y.y.y.y.y.y.y.y.y.y.y.y.y.y.y.y.y.y.y.y.y.y.y.y.y.y.y.y.y.y.y.t.t.t.",
"t.t.t.t.q.0.0.0.0.0.0.0.0.0.0.0.0.0.0.0.0.0.0.0.0.0.0.0.0.0.0.0.0.0.0.0.0.0.0.0.q.0.0.0.0.0.q.t.t.t.",
"t.t.y.0.4 , 3 3 3 3 3 3 3 3 3 3 3 3 3 3 3 3 3 3 3 3 3 3 3 3 3 3 3 3 3 3 3 3 3 3 3 3 3 3 3 = ! i.t.t.",
"t.w.y.0.2 5 0 0 8 8 8 8 8 8 8 8 8 8 8 8 8 8 8 8 8 8 8 8 8 8 8 8 8 8 8 8 8 8 8 8 8 8 8 0 e : L i.t.t.",
"t.t.y.8.q y u p a a g g g f g g g g g g g g g g g g g f g g g g g f g g g g f a g p a p h 6 W u.t.t.",
"t.t.y.8.q e u p g h h h c c l l l l l z l l l l v c l v l l l l v h v h c v c c k h h h l 8 W u.t.t.",
"t.t.y.0.w r a g l b n m B N N B N B N B N B B N m B B B N N B N B B B B N B N m n n c c b e W u.t.t.",
"t.t.y.8.q r g l n V S J P P P P P P P K P K K K P P P P P P P P P P P P P P P P D S V N N y W u.t.t.",
"t.t.y.8.q u h v V P Y ~ ^ ^ ^ ^ ^ ^ ( ( ( ( ^ ^ ^ ^ ^ ^ ^ ^ ^ ^ ^ ( ^ ^ ^ ( ( ^ ~ Y D A Z y W u.t.t.",
"t.w.y.8.w u h b V I ^ ) } ) } } [ [ ] ]  .-.:.-.-.-.-.-.:.@.) =.O.) [ [ [ } o. .{ / U A A y W u.t.t.",
"t.t.y.8.w u h m D Y ) } o.O.O.O.O.O.O.#.} l p g g g g j t I @.c @.-.O.O.O.#.#.#. .' T H A y W u.t.t.",
"t.t.y.8.w u l m D ^ ] o.@.#.#.#.&.&.&.3.l     . . . .     g <.  > <.,.&.*.-.-.#.+.{ T H A y W u.t.t.",
"t.t.y.8.w u l m D ^ ) o.#.*.=.-.=.-.-.5.p . # # # # # #   b 3.%   7 3.<.-.,.-.%.+.{ T H A y W u.t.t.",
"t.t.y.8.w u l m D ^ } o.#.*.-.,.,.<.<.5.j . # # # # $ $   b 3.% X   w 2.,.,.;.%.+.{ ~ H A y W u.t.t.",
"t.w.y.8.w u h m D ~ ] o.&.*.<.2.,.:.,.5.l   # # # # # #   n 4.# o +   B 5.,.;.%.+.{ E H A y W u.t.t.",
"t.w.y.0.w u l m D ^ [ O.&.2.) , > = > 3.b . # # # # # #   b r.+. .O.] O.<.:.;.=.+.{ E H A y W u.t.t.",
"t.t.y.7.w u l N D ~ ] O.#.5.j   O   @ 2.n   # # # # # # + = P } ) ) ( +.<.,.;.%.+.{ E H A y W u.t.t.",
"t.t.y.8.q f h m D ^ ] O.#.5.l   $ + & 2.n   # # # # # # $ + o + + +   k 5.,.;.%.+.{ E H A y W u.t.t.",
"t.t.y.8.w u h m D ~ ) O.#.5.x   $ + % 3.m   # # # # # # # # @ @ @ @   l e.:.;.%.+.{ R H A r W u.t.t.",
"t.t.y.8.w u l m D ~ [ O.#.5.x   $ + % 2.m   # # # # # # # # # $ # #   x 6.:.:.%.+.{ T D A y W u.t.t.",
"t.t.y.8.q u h m J ^ ) @.#.5.x   # + % 2.n   # # # # # # # # # # # #   x 6.:.;.>.+.{ E H A y W u.t.t.",
"t.t.y.8.q f l m J ^ ) O.#.5.x   # + % 3.n   # # # # # # # # # # # #   x 6.:.;.=.+.{ E H A y W u.t.t.",
"t.t.y.8.w u l n D ~ ) O.&.5.x   $ + % 2.n   # # # # # # # # # # # #   x 5.,.;.%.+.{ T D A r W u.t.t.",
"t.t.y.8.w u l m J ~ [ O.#.5.l . $ + % 2.n . # # # # # # # # # # # #   x 6.,.;.%.+.{ E H A y W u.t.t.",
"t.t.y.8.q u h N J ~ ] O.#.5.l   # + % 2.n   # # # # # # # # # # # #   x 6.,.;.*.+.{ E H A y W u.t.t.",
"t.t.y.8.q f h m J ~ ] O.#.5.l   $ + % 2.n . # # # # # # # # # # # #   x 6.,.;.%.+.{ T H A y W u.t.t.",
"t.t.y.8.w u l m D ~ ] o.#.5.x   # + % 2.n   # # # # # # # # # # # #   l 6.,.;.%.+.{ E H A y W u.w.t.",
"t.w.y.0.w u h m J ~ ] O.#.5.l   # + % 2.n   # # # # # # # # # # # #   x 5.,.;.=.+.{ T H A y W u.t.t.",
"t.t.y.7.w u l m D ~ ] O.#.5.x   # + % 4.b   # # # # # # # # # # # #   l 6.,.;.%.+.{ E H A y W u.t.t.",
"t.t.y.8.w u l m J ~ ] +.#.5.x   # + & 5.z   O O O O O O O O O O O O   j e.,.:.%.+.{ T H A y W u.t.t.",
"t.t.y.8.q u h N D ~ ) @.&.5.c   # @ + +.>.1 ; 1 1 1 1 1 1 , > > > ; > [ 3.:.;.%.+.' E H A y W u.t.t.",
"t.t.y.8.q f l n D ~ ) O.&.5.l   # # O > 1.6.4.4.4.4.4.4.4.2.-.,.,.-.2.2.:.<.;.;.+.{ T H A r W u.t.t.",
"t.t.y.8.w u h m J ~ ) O.#.5.v   # # # O * w u y y y y i 2 I 6.<.,.<.,.-.:.;.;.$.+.{ E H A r W u.t.t.",
"t.t.y.8.w u l m D ~ } O.#.5.l   # # # # + . X X X X X o   y e.:.,.:.:.,.:.:.;.$.+.{ E H A y W u.t.t.",
"t.t.y.8.w u l m D ^ [ O.=.6.n         .   . . .     .     b e.:.:.,.:.,.<.;.;.;.+.{ T H A y W u.t.t.",
"t.t.y.8.w u l n J ~ } #.-.<.%.n k k x x x x x k x x x k M #.2.:.,.,.:.<.;.<.;.;.+.{ T H A y W u.t.t.",
"t.t.y.8.w u h b D ~ } @.*.;.<.6.e.e.6.e.e.e.e.e.e.e.e.e.e.<.;.;.;.;.;.>.;.;.;.$.X.' T H A y W u.t.t.",
"t.t.y.9.w u l b S ~ ] +.$.%.$.$.;.$.$.;.$.$.>.;.>.$.$.%.$.%.$.%.$.%.$.%.;.$.$.X.| / U G Z y W u.t.t.",
"t.t.y.9.q t h b V Y ` | ..X...X.X.X.X.X.X.X.X.X.X.X.X.X.X.X.X.X.X.X.X.X.X.X...| ' / U G C y W u.t.t.",
"t.t.y.9.q t g v B K E _ ' ' ' ' ' ' ' ' ' ' ' ' ' ' ' ' ' ' ' ' ' ' ' ' ' ' ` _ E U H Z C y W u.t.t.",
"t.t.y.9.w u g c N H U U R R R R R R R T R R R R R R R R R R R R R R R R R R R U U H Z C C y W u.t.t.",
"t.t.y.9.w u j b C Z G H H H H H H H H H H H H H H H H H H H H H H H H H H H H H G G Z C C y W u.t.t.",
"t.t.y.7.9 f z n B Z A A F F A A A A A A A A A A G F F A A A A A Z G G F A A A A V A Z C Z r W u.t.t.",
"t.t.y.0.i w s s d d d d d d d d d d d d d d d d d d d d d d d d d d d d d s d d d d d s d 2 ! u.t.t.",
"t.t.t.t.0.7.7.7.7.7.7.7.7.7.7.7.7.7.7.7.7.7.7.7.7.7.7.7.7.7.7.7.7.7.7.7.7.7.7.7.7.7.7.7.7.7.q.y.t.t.",
"t.t.t.t.y.y.y.y.y.y.y.y.y.y.y.y.y.y.y.y.y.y.y.y.y.y.y.y.y.y.y.y.y.y.y.y.y.y.y.y.y.y.y.y.y.y.y.w.t.w.",
"t.t.t.t.t.t.t.t.t.t.t.t.t.t.t.t.t.t.t.t.t.t.t.t.t.t.t.t.t.t.t.t.w.w.t.t.t.t.t.t.t.t.t.t.t.t.t.t.t.t.",
"t.t.t.t.t.t.t.t.t.t.t.t.t.t.t.t.t.t.t.t.t.t.t.t.t.t.t.t.t.t.t.t.t.w.t.t.t.t.t.t.t.t.t.t.t.t.t.t.t.t."
};
