/* XPM */
static char *pasteSegmentNormal_xpm[] = {
/* columns rows colors chars-per-pixel */
"50 50 153 2 ",
"   c #000004",
".  c #010209",
"X  c #0A090F",
"o  c #0B0B10",
"O  c #110F13",
"+  c #141216",
"@  c #191619",
"#  c #221E1F",
"$  c #231F20",
"%  c #242021",
"&  c #292525",
"*  c #332D2B",
"=  c #37302D",
"-  c #39322F",
";  c #3A3330",
":  c #413733",
">  c #403A38",
",  c #4D433C",
"<  c #55483E",
"1  c #664A33",
"2  c #664F3B",
"3  c #69513D",
"4  c #5B4E45",
"5  c #504F4D",
"6  c #5C5248",
"7  c #595957",
"8  c #585958",
"9  c #6E5640",
"0  c #67574C",
"q  c #6D584C",
"w  c #755B45",
"e  c #7D634B",
"r  c #6D655B",
"t  c #726154",
"y  c #7F6750",
"u  c #72695E",
"i  c #7C6A59",
"p  c #746B60",
"a  c #786E62",
"s  c #7E7366",
"d  c #78736B",
"f  c #81654D",
"g  c #846B53",
"h  c #896E55",
"j  c #816F5B",
"k  c #887056",
"l  c #84725D",
"z  c #8B735A",
"x  c #907359",
"c  c #93795E",
"v  c #847261",
"b  c #897560",
"n  c #8E7966",
"m  c #84786A",
"M  c #8F7C6B",
"N  c #927D66",
"B  c #9A7D62",
"V  c #937E6A",
"C  c #968067",
"Z  c #968169",
"A  c #9B856D",
"S  c #978471",
"D  c #9E8771",
"F  c #9F8873",
"G  c #9A8B7A",
"H  c #9F907E",
"J  c #A68567",
"K  c #A4876A",
"L  c #AD8768",
"P  c #A0886E",
"I  c #A48C72",
"U  c #A88F74",
"Y  c #AB9176",
"T  c #A4917A",
"R  c #AC9379",
"E  c #B19273",
"W  c #BD9776",
"Q  c #B1977B",
"!  c #B49A7E",
"~  c #C09F7D",
"^  c #9C9084",
"/  c #A69582",
"(  c #AA9986",
")  c #A99C8C",
"_  c #B79D80",
"`  c #B99E81",
"'  c #AA9E90",
"]  c #94A19F",
"[  c #BCA183",
"{  c #B0A496",
"}  c #97A6A5",
"|  c #98A6A5",
" . c #9AA8A7",
".. c #99AAA9",
"X. c #C1A587",
"o. c #C2A688",
"O. c #C6A98A",
"+. c #CBAD8D",
"@. c #C4AA90",
"#. c #CEB192",
"$. c #D4B594",
"%. c #D9B997",
"&. c #DABA98",
"*. c #E2B68C",
"=. c #E1BB94",
"-. c #E2BF9B",
";. c #E3C19D",
":. c #E5C3A0",
">. c #E9C6A3",
",. c #EECBA6",
"<. c #E8C9AC",
"1. c #F1CCA6",
"2. c #F2CEA8",
"3. c #EFD3AC",
"4. c #F6D1AB",
"5. c #FBD6AE",
"6. c #E9CEB3",
"7. c #E9D1BB",
"8. c #FAD6B1",
"9. c #F2D8B0",
"0. c #FBD9B4",
"q. c #FBDCBC",
"w. c #FFE1B5",
"e. c #FEE3BB",
"r. c #FFEABE",
"t. c #B7D9DE",
"y. c #BADCE2",
"u. c #BEE1E7",
"i. c #BFE2E8",
"p. c #EBDEC2",
"a. c #FBDFC1",
"s. c #FBE1C4",
"d. c #FFECC3",
"f. c #FCE3C8",
"g. c #FFECCA",
"h. c #FFF2C5",
"j. c #FFF5C8",
"k. c #FFFACB",
"l. c #FFEED4",
"z. c #FFF2D2",
"x. c #FFFAD2",
"c. c #FFFEDF",
"v. c #C0E3E8",
"b. c #C6E8ED",
"n. c #CDECED",
"m. c #CEEFF2",
"M. c #CFF0F3",
"N. c #D5F3F4",
"B. c #DEFDFD",
"V. c #E0FFFF",
"C. c #EAFFFF",
"Z. c #F5FFFF",
"A. c #F8FFFF",
/* pixels */
"V.V.V.V.V.V.V.V.V.V.V.V.V.V.V.V.V.V.V.V.V.V.V.V.V.V.V.V.V.V.V.V.V.V.V.V.V.V.V.V.V.V.V.V.V.V.V.V.V.V.",
"V.V.V.V.V.V.V.V.V.V.V.V.V.V.V.V.V.V.V.V.V.V.V.V.V.V.V.V.V.V.V.V.V.V.V.V.V.V.V.V.V.V.V.V.V.V.V.V.V.V.",
"V.V.B.V.C.C.C.C.C.C.C.C.C.C.C.C.C.C.C.C.C.C.C.C.C.C.C.C.C.C.C.C.C.C.C.C.C.C.C.C.C.C.C.C.C.C.C.V.V.V.",
"V.V.V.V.N.n.n.n.n.n.b.m.n.n.n.n.n.n.n.n.n.n.n.n.n.n.n.n.n.n.n.n.n.n.n.n.n.n.n.n.n.n.m.n.n.b.B.V.V.V.",
"V.V.C.N.8 5 7 7 8 8 8 8 8 8 8 8 7 8 8 8 8 8 8 8 8 8 8 8 7 8 8 8 8 8 8 8 8 8 8 8 8 8 7 7 7 > | Z.V.V.",
"V.V.C.y.^ p.7.7.7.p.7.7.7.7.7.7.7.7.7.7.7.7.7.7.7.7.7.7.7.7.7.7.7.7.7.7.7.7.7.6.<.<.>.;.-.L ] Z.V.V.",
"V.V.C.t.{ c.z.l.l.l.l.l.l.l.l.l.l.l.l.l.l.l.l.l.l.l.l.l.l.l.l.l.l.l.l.l.l.l.l.g.f.e.0.5.4.~ ] Z.V.V.",
"V.V.C.y.' l.f.f.f.f.f.f.f.f.f.f.f.f.a.f.f.f.f.f.f.a.f.f.f.f.f.s.f.f.f.f.f.a.a.a.q.8.4.&.%.J  .A.V.V.",
"V.V.C.y.' z.f.s.f.f.s.s.s.s.s.s.a.a.a.a.a.s.s.a.a.a.a.a.a.a.a.s.a.a.a.a.a.a.q.0.8.4.-.$.+.c } Z.V.V.",
"V.V.C.y.) l.s.s.a.a.a.q.q.q.q.q.a.q.a.a.q.a.q.q.a.a.a.q.a.a.q.a.a.q.a.a.a.q.0.8.4.;.%.O.X.z } Z.V.V.",
"V.V.C.y.) g.a.a.q.q.q.q.q.q.q.q.q.0.0.0.g.x.x.x.x.x.x.x.x.x.0.f.j.q.0.q.0.0.8.5.1.-.#.[ W k } Z.V.V.",
"V.V.C.t.) g.a.q.q.q.q.q.0.0.8.0.0.0.q.d.#.v M V M M M M m S e.@./ j.w.0.0.0.5.2.;.$.O.! Q g } Z.V.V.",
"V.V.C.y.) g.a.q.q.q.0.0.8.8.8.8.8.8.q.q.;         .       O h.N   T k.0.5.5.4.,.;.$.X.Q Y f | A.V.V.",
"V.V.C.y.) g.q.q.q.0.0.0.8.8.8.5.8.8.e.,.& + % # $ $ $ $ + * d.R   . R k.0.4.1.>.&.$.[ R U e | A.V.V.",
"V.V.C.y.) d.q.q.0.0.8.8.8.8.8.5.5.5.w.2.* + $ $ $ $ $ $ + * d.U . + X Q h.4.1.;.&.#.[ R I f | Z.V.V.",
"V.V.C.y.) d.q.q.q.8.8.8.4.0.h.j.j.j.g.,.* + $ $ $ $ $ $ + * g.Z   .     Q r.1.;.&.+.[ R U e | Z.V.V.",
"B.B.C.y.) d.a.q.q.0.8.8.0.4.U n N l $.0.* O % $ $ $ $ $ O = h.$.t l b 0 Q e.,.:.&.+.[ R I e | Z.V.B.",
"V.B.C.y.) f.q.0.0.0.8.8.j.D         N j.= + $ $ $ $ $ $ @ $ $.k.k.j.j.k.w.1.,.:.&.+.` R U e | Z.V.V.",
"V.V.C.y.) g.q.q.q.8.8.8.j.b   # # . I d.* + $ $ $ $ $ $ % @ & 6 6 4 4 : R r.,.:.&.+.[ R U e } Z.V.V.",
"V.V.C.y.) d.a.q.q.0.8.8.j.n . $ # . F r.* + $ $ $ $ $ $ # % @ X X o X   j j.,.:.&.+.[ R U e } Z.V.V.",
"V.V.C.y.) d.a.0.0.0.0.8.j.n . $ # . F r.= + $ $ # % # % % # % # $ $ $   n d.,.:.&.+.[ R U e } Z.V.V.",
"V.V.C.y.) d.q.q.0.0.8.8.j.n   $ # . I r.= + $ $ % # % # # % % # $ $ $ . n h.,.:.&.+.[ R I e } Z.V.V.",
"V.V.C.y.) g.q.q.q.0.8.8.j.n . $ # . I h.* + % $ # % # % # % # % $ $ $ . n h.1.:.&.+.[ R U e } Z.V.V.",
"V.V.C.y.) d.q.q.0.0.8.8.j.n . $ # . F r.* O $ $ # % % # % # % # $ $ $   n d.,.:.&.+.[ R U e } Z.V.V.",
"V.V.C.y.) d.a.q.0.8.0.8.j.n   $ $ . F r.= + $ $ % # $ $ $ $ $ $ $ $ $   n g.,.:.&.+.` R U e } Z.V.V.",
"V.V.C.y.) d.q.q.q.9.0.8.h.M . $ $ . F h.* + $ $ # % $ % $ $ $ $ $ $ $ . n h.1.:.&.+.[ R U e } Z.V.V.",
"V.V.C.y.) f.q.q.0.0.8.8.j.M   $ $ . F r.* O $ $ % # % # $ $ $ $ $ $ $ . b h.,.:.&.+.[ R I e } Z.V.V.",
"V.V.C.y.) d.q.q.q.0.0.8.j.n   $ # . F d.= + $ $ # % # % $ $ $ $ $ $ $ . n h.,.;.&.+.[ R U e } Z.V.V.",
"V.V.C.y.) g.q.q.q.8.8.8.j.C . $ # . I r.* + $ $ # % # % $ $ $ $ $ $ $   n h.1.>.&.+.X.R U e } Z.V.V.",
"V.V.C.y.) d.q.q.0.0.8.8.j.n   $ # . F r.* + $ $ % # % % $ $ $ $ $ $ $ . n h.1.;.&.+.! R U e } Z.V.V.",
"V.V.C.y.) d.q.q.e.0.8.8.j.n   $ $ . I r.= + # % % # % % % % $ $ $ $ $   n d.1.;.&.+.X.R U e } Z.V.V.",
"V.V.C.y.) d.q.q.0.8.8.8.j.n . $ $ . T r.% + % # # # @ $ $ % % @ $ $ $   l h.1.;.&.#.! R I e } Z.V.V.",
"V.V.C.y.) g.q.q.0.0.8.8.j.M   % $ . F k.:     . . . . . . . . . . .     F d.,.:.&.#.[ R P e | Z.V.V.",
"V.V.C.y.) f.q.q.0.0.8.8.j.n   $ $ o , j.3.A F F F I F F P D Z V Z V n U 4.5.,.;.&.+.[ R Y e | Z.V.V.",
"V.V.C.y.) d.q.q.q.0.8.8.j.n . $ $ $ X q 9.k.h.r.r.d.h.h.h.h.h.j.h.h.j.h.0.1.,.:.&.+.[ R I e | Z.V.V.",
"V.V.C.y.) d.q.q.0.0.8.8.j.M   $ % % # X # - - - - - - - & , 4.w.5.5.5.4.5.4.,.;.&.+.[ R U e | Z.V.V.",
"V.B.C.y.) d.q.q.0.8.8.5.h.b   % # % % % @ + + + + + + + . % ,.0.4.4.4.4.4.4.,.;.%.+.~ R P e | A.V.V.",
"V.V.C.y.) d.q.0.0.5.4.4.r.Z   . X . . . . . . . . . . .   - 4.5.,.,.1.1.,.>.;.&.#.O.! Y U e } A.V.V.",
"V.V.C.y.) d.0.8.5.4.1.,.1.-.N i l l l l v b l l v b v l i [ 4.;.:.:.:.:.;.;.&.$.+.[ Q P A e } A.V.V.",
"V.V.C.y.) w.5.2.,.>.:.&.&.;.5.8.8.8.5.0.8.8.5.0.5.5.5.8.8.,.%.%.&.&.&.&.&.$.#.+.X.! Y A A w } Z.V.V.",
"V.V.C.y.( w.4.>.;.%.$.#.#.+.+.+.+.+.+.+.+.+.+.+.+.+.+.+.+.+.+.+.+.+.+.+.+.+.[ ~ ! Y D C C w } Z.V.V.",
"V.V.C.y.T 5.;.&.#.O.o.[ [ ! [ ! ! [ ! ! ! [ ! ! ! [ ! ! ! [ ! ! ! [ ! ! ! ! ! Y U D C c C 3 } Z.V.V.",
"V.V.C.u.T 1.$.+.[ ! Q Y I I I P I P P I I D P D P I I I I P I I I I D P D P D A C n l l z 3 } Z.V.V.",
"V.V.C.i.G =.o._ R I A Z C C N C N N C n C C C C C C N N N C N N C C C n C C N b z l l i l 2 | Z.V.V.",
"V.V.C.u.S *.~ E K C c z k z k k k k k k k k k k k k k k k k k k k k k k k k g i y y e e g 1 ] Z.V.V.",
"V.V.C.m.d M m s a u u r r r r r r r r r r r r r r r r r r r r r r r r r r r r r r r r r r <  .Z.V.V.",
"V.V.V.V.n.i.b.b.n.m.m.m.m.m.M.M.m.m.m.m.M.m.m.m.m.m.M.M.m.m.m.m.M.n.m.m.m.m.m.m.M.M.M.M.m.n.B.V.V.V.",
"V.V.V.V.C.C.C.C.C.C.C.C.C.C.C.C.C.C.C.C.C.C.C.C.C.C.C.C.C.C.C.C.C.C.C.C.C.C.C.C.C.C.C.C.C.C.C.B.V.V.",
"V.V.V.V.V.V.V.V.V.V.V.V.V.V.V.V.V.V.V.V.V.V.V.V.V.V.V.V.V.V.V.V.B.B.V.V.V.V.V.V.V.V.V.V.B.V.V.V.V.V.",
"V.V.V.V.V.V.V.V.V.V.V.V.V.V.V.V.V.V.V.V.V.V.V.V.V.V.V.V.V.V.V.V.B.B.V.V.V.V.V.V.V.V.V.V.V.V.V.V.V.V."
};
