/* XPM */
static char *pasteSegmentMouseOver_xpm[] = {
/* columns rows colors chars-per-pixel */
"50 50 159 2 ",
"   c #000004",
".  c #010209",
"X  c #0A090F",
"o  c #0B0B10",
"O  c #110F13",
"+  c #141216",
"@  c #191619",
"#  c #221E1F",
"$  c #231F20",
"%  c #242021",
"&  c #292525",
"*  c #332D2B",
"=  c #37302D",
"-  c #39322F",
";  c #3A3330",
":  c #413733",
">  c #4D433C",
",  c #4F3D46",
"<  c #5B4E45",
"1  c #514F4F",
"2  c #5C5248",
"3  c #4E5B51",
"4  c #525752",
"5  c #525852",
"6  c #644B4C",
"7  c #67574C",
"8  c #6D584C",
"9  c #7E5450",
"0  c #666455",
"q  c #686656",
"w  c #6C6959",
"e  c #726154",
"r  c #716D5C",
"t  c #7C6A59",
"y  c #6A715F",
"u  c #777260",
"i  c #7D7764",
"p  c #815652",
"a  c #885151",
"s  c #8A5E59",
"d  c #855A55",
"f  c #856756",
"g  c #8E615B",
"h  c #816F5B",
"j  c #8C6C5A",
"k  c #92655E",
"l  c #84725D",
"z  c #88755F",
"x  c #91715E",
"c  c #956760",
"v  c #966861",
"b  c #9A6B64",
"n  c #847261",
"m  c #897560",
"M  c #8E7966",
"N  c #8F7C6B",
"B  c #957561",
"V  c #927D66",
"C  c #9C7A66",
"Z  c #937E6A",
"A  c #A07169",
"S  c #A8776E",
"D  c #559668",
"F  c #539968",
"G  c #539466",
"H  c #37C46E",
"J  c #38C36C",
"K  c #39C671",
"L  c #3DC974",
"P  c #44CF79",
"I  c #46D17A",
"U  c #4BD47C",
"Y  c #51D97E",
"T  c #968067",
"R  c #968169",
"E  c #9B856D",
"W  c #978370",
"Q  c #9C8671",
"!  c #9F8873",
"~  c #998F78",
"^  c #938A74",
"/  c #A0886E",
"(  c #A3816B",
")  c #A48C72",
"_  c #AB8C73",
"`  c #B38075",
"'  c #BE8A7C",
"]  c #AB9176",
"[  c #A2937B",
"{  c #AC9379",
"}  c #B1977B",
"|  c #B49A7E",
" . c #BA937B",
".. c #55DC81",
"X. c #57E585",
"o. c #58E786",
"O. c #57EA87",
"+. c #5BE887",
"@. c #58EF89",
"#. c #58F089",
"$. c #54FC8D",
"%. c #59FD8F",
"&. c #9E9085",
"*. c #A29A86",
"=. c #A29C89",
"-. c #B79D80",
";. c #B99E81",
":. c #BCA183",
">. c #A9A290",
",. c #CF8E86",
"<. c #D49C8B",
"1. c #C1A587",
"2. c #C9A185",
"3. c #C2A688",
"4. c #C6A98A",
"5. c #CBAD8D",
"6. c #C4AA90",
"7. c #CEB192",
"8. c #D4B594",
"9. c #D9B997",
"0. c #DABA98",
"q. c #E1BF9C",
"w. c #EBBD9D",
"e. c #F4BA9C",
"r. c #E2C19E",
"t. c #E5C3A0",
"y. c #EBC4A2",
"u. c #EECBA6",
"i. c #F1CCA6",
"p. c #FBCAA7",
"a. c #F2CDA9",
"s. c #EFD3AC",
"d. c #F6D1AB",
"f. c #FAD6AE",
"g. c #F1CEB9",
"h. c #F1CBB4",
"j. c #FAD6B1",
"k. c #F2D8B0",
"l. c #FBD9B4",
"z. c #F2D1BD",
"x. c #FBDCBC",
"c. c #FFE0B7",
"v. c #FEE3BB",
"b. c #FFEABE",
"n. c #F2D3C2",
"m. c #FBDFC1",
"M. c #FBE1C4",
"N. c #FFEDC1",
"B. c #FCE3C8",
"V. c #FFEDCE",
"C. c #FFF2C5",
"Z. c #FFF5C8",
"A. c #FFFACB",
"S. c #F5E1D2",
"D. c #FFEED4",
"F. c #FFF1D5",
"G. c #FFFAD2",
"H. c #FFF3DA",
"J. c #FFFFE7",
/* pixels */
"X.X.X.X.X.X.X.X.X.X.X.X.X.X.X.X.X.X.X.X.X.X.X.X.X.X.#.+.Y +.Y +.+.+.X.X.X.X.Y +.@.+.+.X.X.X.X.X.X.X.",
"X.X.X.X.X.X.X.X.X.X.X.X.X.X.X.X.X.X.X.X.X.X.X.X.X.X.Y +.#.+.Y @.+.Y X.X.X.X.@.Y Y +.X.X.X.X.X.X.X.X.",
"X.X.X.X.@.@.@.@.@.@.#.#.@.O.@.@.@.+.@.@.@.@.@.@.@.@.@.Y @.@.#.#.+.@.@.@.#.O.@.@.@.@.#.@.O.#.O.X.X.X.",
"X.X.X.o.Y I U U I U U U U U U U U U I U U U I U U U U U U U U Y I U U U U U U U U U U U U U X.O.X.X.",
"X.X.@...3 1 4 4 5 5 5 5 4 4 4 4 4 4 5 5 5 5 5 5 5 5 5 5 4 5 5 5 4 5 5 3 5 5 5 5 4 4 4 4 4 , F %.X.X.",
"X.X.@.J &.S.n.n.n.n.n.n.n.n.n.n.z.z.n.z.n.n.n.n.n.n.n.z.z.z.n.z.n.n.n.n.n.n.n.z.g.a.a.y.w.,.G $.X.X.",
"X.X.@.J >.J.D.F.H.D.D.D.D.D.D.D.F.D.D.D.D.D.D.D.D.D.D.D.D.F.F.F.D.D.D.D.D.D.V.V.N.v.l.f.a.<.D $.X.X.",
"X.X.@.H =.H.B.B.B.B.B.B.B.B.B.B.B.B.B.B.B.B.B.B.B.B.B.B.B.B.B.B.B.B.B.B.M.B.M.x.x.f.a.q.0.' D $.X.X.",
"X.X.@.J =.H.B.B.B.B.B.M.m.m.B.B.B.m.B.m.m.B.m.B.M.M.M.M.M.B.M.M.B.M.M.M.M.x.x.x.f.d.r.8.7.S F $.X.X.",
"X.X.@.J *.F.M.M.x.m.m.x.m.x.x.x.x.x.x.x.x.x.x.x.x.x.x.x.x.x.x.x.x.x.x.x.x.x.l.l.f.r.8.5.2.S F $.X.X.",
"X.X.@.J =.F.x.M.m.x.x.x.x.x.x.x.x.l.l.x.N.G.G.G.G.G.G.G.G.G.l.N.F.l.l.x.x.l.l.d.u.0.5.:.| A F $.X.X.",
"X.X.@.J *.V.M.M.x.x.x.l.l.l.j.l.l.l.x.B.7.n N Z N N N N n W v.6.[ Z.v.j.l.j.f.i.r.9.5.| } b F $.X.X.",
"X.X.#.J &.F.x.x.x.l.l.l.l.l.j.j.j.j.x.l.;       .   . .   O Z.N   ) A.x.f.f.d.u.r.8.1.} { b F $.X.X.",
"X.X.#.H *.F.x.x.x.l.l.j.j.k.j.j.j.j.v.a.& + # # $ $ $ $ + * N.{     } A.f.d.i.u.0.7.:.} _ x F $.X.X.",
"X.X.@.H *.V.x.x.x.l.l.j.j.j.f.f.f.f.c.d.* + $ $ $ $ $ $ + * N.) X O . | C.d.i.r.9.7.:.{ ) k F $.X.X.",
"X.X.@.H *.V.x.x.l.l.j.j.a.l.C.C.C.Z.N.u.* + $ $ $ $ $ $ + * N.W   .     | b.i.r.0.5.:.{ ] k F $.X.X.",
"X.X.#.H &.V.x.x.x.l.j.j.l.d.) M N l 8.c.* + $ $ $ $ $ $ + = b.8.e l z 7 | v.i.r.0.5.:.} _ k F $.X.X.",
"X.X.@.H =.V.x.x.l.j.l.j.Z.)         N C.* + $ $ $ $ $ $ @ $ 8.A.A.Z.Z.A.c.i.a.r.0.5.:.{ ] k F $.O.X.",
"X.X.@.H *.V.x.x.x.j.l.j.Z.n   $ # . ! b.* + $ $ $ $ $ $ % @ * 2 6 < < ; { b.i.r.0.5.:.{ _ k F $.X.X.",
"X.X.@.H =.Z.x.x.x.j.j.j.Z.V   $ # . ) b.* + $ $ $ $ $ $ # % + X X o X   u C.u.r.0.7.| { ] k F $.X.X.",
"X.X.#.H *.V.x.x.l.j.l.j.Z.N   $ # . ! b.= + $ $ $ $ $ $ % # % $ $ $ $ . N C.u.t.0.5.1.} _ k F $.X.X.",
"X.X.#.H *.D.x.x.x.j.j.j.Z.M   % # . ) b.= + $ $ $ $ $ $ # % $ $ $ $ $ . M N.u.t.0.5.| { ] k F $.X.X.",
"X.X.@.H *.Z.x.x.x.l.l.j.Z.M   % # . ) C.* + $ $ $ $ $ $ $ $ $ $ $ $ $ . M N.u.t.0.5.:.{ _ k F $.X.X.",
"X.X.#.H &.V.x.x.l.l.j.j.Z.M . # # . ! b.* + $ $ $ $ $ $ $ $ $ $ $ $ $ . M N.u.t.0.5.:.{ ) x F %.X.X.",
"X.X.@.H *.V.x.x.l.j.j.j.Z.M . % # . ) b.* + $ $ $ $ $ $ $ $ $ $ $ $ $   M N.u.t.0.5.:.{ ) v F $.X.X.",
"X.X.#.H *.D.x.x.x.j.l.j.Z.M   # # . ) C.* + $ $ $ $ $ $ $ $ $ $ $ $ $ . M C.u.t.0.7.| { ] v F $.X.X.",
"X.X.@.H *.V.x.x.x.j.j.j.Z.N   # # . ! b.* + $ $ $ $ $ $ $ $ $ $ $ $ $ . M C.u.t.0.5.:.{ ) k F $.X.X.",
"X.X.@.H *.V.x.x.x.l.j.j.Z.N   # # . ! b.= + $ $ $ $ $ $ $ $ $ $ $ $ $ . M N.u.t.0.5.:.{ ] k F $.X.X.",
"X.X.@.H *.V.x.x.x.l.j.j.C.N   # # . ) b.* + $ $ $ $ $ $ $ $ $ $ % # %   M C.d.r.0.5.1.{ ) v F $.X.X.",
"X.X.@.H *.D.x.x.l.l.j.j.Z.N . % # . ! C.* + $ $ $ $ $ $ $ $ $ $ # % # . M C.i.r.0.5.| ] _ v F $.X.X.",
"X.X.@.J *.V.x.x.x.l.l.f.Z.N   % % . ! b.* + $ $ $ $ $ $ $ $ $ $ % # # . M b.i.r.0.5.1.{ ) v F $.X.X.",
"X.X.O.H *.V.x.x.l.l.f.f.Z.M   # $ . ] b.& O $ # # # # # $ $ $ $ # # %   l C.i.r.0.8.| { ) c F $.X.X.",
"X.X.@.H *.V.x.x.x.l.j.j.C.N   % $ . ) A.:   . . . . . . . .   . . . .   ! N.u.t.0.5.:.{ ] k F %.X.X.",
"X.X.#.H *.V.x.x.x.j.l.j.Z.M   # $ o > Z.s.E Q ! ) ! ! ! / ! R R R R M ) d.f.u.r.0.5.:.{ ) k F $.X.X.",
"X.X.@.H *.V.x.x.l.l.j.j.Z.M . $ $ $ o 8 k.Z.C.N.C.N.C.N.C.C.C.Z.C.C.Z.C.l.i.u.t.0.5.:.{ ] k F $.X.X.",
"X.X.#.H *.V.x.x.l.l.l.j.Z.N   $ $ $ $ o # - - - - - - - & > d.l.f.d.f.f.f.d.u.r.0.5.:.{ ] k F $.X.X.",
"X.X.#.H *.D.x.l.l.l.f.f.C.n   % $ $ % % @ + + + + + + + . $ u.l.d.d.f.d.d.a.u.r.9.5.| { / k F $.X.X.",
"X.X.#.H *.B.x.l.l.f.d.d.b.R   . . . . . . . . . . . . .   ; d.f.u.i.i.i.u.y.r.0.8.4.| { _ k F $.X.X.",
"X.X.#.H *.B.l.l.f.a.i.u.i.q.V t z l n n n n n n l l n l t :.d.t.t.t.t.t.t.r.0.8.5.:.} / / k F $.X.X.",
"X.X.#.H *.N.f.d.u.y.r.q.9.r.f.l.f.l.f.f.f.j.f.f.f.j.j.f.f.u.9.9.9.0.0.0.9.8.7.5.1.| ] E E g F %.X.X.",
"X.o.@.H *.x.a.y.r.9.8.7.5.5.5.5.5.5.5.5.5.5.5.5.5.5.5.5.5.5.5.5.5.5.5.5.5.4.3.:.| { ) T T f G $.X.X.",
"X.o.@.K [ j.t.0.8.4.3.:.:.| :.| -.| -.-.-.| ;.| | :.| ;.| -.| | | ;.| | | | } { ] E T z T d F $.X.X.",
"X.X.@.K ~ p.8.6.:.| { { ) ) ) / ) ) ) ) ) ) / ) ) / ) / ) ) ) ) ) ) ) ) ) / E E T V z l l p F %.X.X.",
"X.X.@.P ^ w.3.-.{ ) E R T T T T V V V V V V V V V T V V V V V N V V V V V V B M z l t t h p F $.X.X.",
"X.X.@.K Z e.2.-._ ( C B z x x x j x x m x z v m x x x x x x x x x x x x n z j j f f f f j a G $.X.X.",
"X.X.@.U y N i u w w q 0 q q q 0 0 0 0 0 q 0 0 0 0 0 0 0 0 0 0 0 0 0 0 0 0 0 0 0 0 0 0 0 q 6 F %.X.X.",
"X.X.o.+...K P P ..P I ....U U U U ..U ..U U ..I U U U Y ..U U U U U Y U I ....I U ..Y Y U U Y +.X.X.",
"X.o.X.o.@.#.#.#.#.#.@.@.@.@.@.#.@.@.@.@.@.#.#.#.#.@.#.#.@.@.@.@.#.@.#.#.@.@.@.@.@.@.#.#.#.#.O.+.X.X.",
"X.X.X.X.X.X.X.X.X.X.X.X.X.X.X.X.X.X.X.X.X.X.X.X.X.X.X.X.X.X.X.X.X.X.X.X.X.X.X.X.X.X.X.X.X.X.X.X.X.X.",
"X.X.X.X.X.X.X.X.X.X.X.X.X.X.X.X.X.X.X.o.X.X.X.X.X.X.X.X.X.X.X.X.X.X.X.X.X.X.X.X.X.X.X.X.X.X.X.X.X.X."
};
