/* XPM */
static char *pasteSegmentDisabled_xpm[] = {
/* columns rows colors chars-per-pixel */
"50 50 253 2 ",
"   c #3F3B3B",
".  c gray31",
"X  c #524E4E",
"o  c #585959",
"O  c #585A5A",
"+  c #5B5E5E",
"@  c #645D5D",
"#  c #6A6565",
"$  c #696B6B",
"%  c #6E6868",
"&  c #6A6C6C",
"*  c #6B6D6D",
"=  c #6D6F6F",
"-  c #706B6B",
";  c #726D6D",
":  c #736E6E",
">  c #746F6F",
",  c #6F7070",
"<  c #767171",
"1  c #737474",
"2  c #737676",
"3  c #7B7676",
"4  c gray47",
"5  c #797979",
"6  c #797B7B",
"7  c #7B7B7B",
"8  c #7C7C7C",
"9  c #7F7D7D",
"0  c #7E7E7E",
"q  c #7F7E7E",
"w  c gray50",
"e  c #807E7E",
"r  c #817F7F",
"t  c #837E7E",
"y  c #808080",
"u  c #828181",
"i  c gray51",
"p  c #838383",
"a  c #848484",
"s  c gray52",
"d  c #868585",
"f  c #878585",
"g  c #858686",
"h  c #868686",
"j  c #878686",
"k  c gray53",
"l  c #888787",
"z  c #888888",
"x  c #888989",
"c  c #898989",
"v  c gray54",
"b  c #8A8B8B",
"n  c #8B8B8B",
"m  c #8F8A8A",
"M  c #8B8C8C",
"N  c gray55",
"B  c #8D8D8D",
"V  c #8D8E8E",
"C  c #8E8E8E",
"Z  c gray56",
"A  c #908F8F",
"S  c #909090",
"D  c gray57",
"F  c #929292",
"G  c #939292",
"H  c #939393",
"J  c #939494",
"K  c gray58",
"L  c #949595",
"P  c #959595",
"I  c #959696",
"U  c gray59",
"Y  c #969797",
"T  c #979797",
"R  c #9D9595",
"E  c #989898",
"W  c #989999",
"Q  c gray60",
"!  c #999A9A",
"~  c #9A9A9A",
"^  c #9A9B9B",
"/  c #9B9B9B",
"(  c #9D9B9B",
")  c #9B9C9C",
"_  c #9B9D9D",
"`  c #9C9D9D",
"'  c #9D9D9D",
"]  c #9D9E9E",
"[  c #9D9F9F",
"{  c gray62",
"}  c #9E9F9F",
"|  c #9F9F9F",
" . c #93A2A2",
".. c #94A2A2",
"X. c #97A7A7",
"o. c #9EA0A0",
"O. c #9FA0A0",
"+. c #99A8A8",
"@. c #98A9A9",
"#. c #99AAAA",
"$. c #A0A0A0",
"%. c #A1A2A2",
"&. c #A2A2A2",
"*. c gray64",
"=. c #A7A1A1",
"-. c #A3A4A4",
";. c #A4A4A4",
":. c #A4A5A5",
">. c #A5A5A5",
",. c #A5A6A6",
"<. c gray65",
"1. c #A7A7A7",
"2. c gray66",
"3. c #A8A9A9",
"4. c #A9A9A9",
"5. c #AAAAAA",
"6. c gray67",
"7. c #ACABAB",
"8. c #ADABAB",
"9. c #ACACAC",
"0. c gray68",
"q. c #AEADAD",
"w. c #ADAEAE",
"e. c #AEAEAE",
"r. c gray69",
"t. c #B0B1B1",
"y. c #B1B1B1",
"u. c #B2B1B1",
"i. c #B2B2B2",
"p. c gray70",
"a. c #B4B4B4",
"s. c #B4B5B5",
"d. c gray71",
"f. c #B5B6B6",
"g. c #B6B6B6",
"h. c #B6B7B7",
"j. c #B7B7B7",
"k. c #B8B7B7",
"l. c gray72",
"z. c #B9B9B9",
"x. c gray73",
"c. c #BBBBBB",
"v. c #BBBCBC",
"b. c #BCBCBC",
"n. c gray74",
"m. c gray",
"M. c gray75",
"N. c #BFC0C0",
"B. c #BBD8D8",
"V. c #BDDBDB",
"C. c #BEDBDB",
"Z. c #BEDCDC",
"A. c #BFDCDC",
"S. c #C0C0C0",
"D. c #C1C1C1",
"F. c gray76",
"G. c #C3C3C3",
"H. c gray77",
"J. c #C5C5C5",
"K. c #C6C6C6",
"L. c gray78",
"P. c gray79",
"I. c #C9CACA",
"U. c gray80",
"Y. c #CCCDCD",
"T. c #CDCDCD",
"R. c #CECECE",
"E. c #CECFCF",
"W. c gray81",
"Q. c #D0CCCC",
"!. c #D0CECE",
"~. c #C0DDDD",
"^. c #C0DEDE",
"/. c #C2DFDF",
"(. c #D0D0D0",
"). c #D0D1D1",
"_. c gray82",
"`. c #D3D1D1",
"'. c #D1D2D2",
"]. c #D2D2D2",
"[. c LightGray",
"{. c gray83",
"}. c #D5D5D5",
"|. c #D6D4D4",
" X c gray84",
".X c #D7D7D7",
"XX c #D8D6D6",
"oX c #D9D7D7",
"OX c #D8D8D8",
"+X c gray85",
"@X c #DBD9D9",
"#X c #DADADA",
"$X c gray86",
"%X c gainsboro",
"&X c #DDDDDD",
"*X c gray87",
"=X c #DFDFDF",
"-X c #C9E6E6",
";X c #CBE9E9",
":X c #CCE9E9",
">X c #CDEAEA",
",X c #CEEBEB",
"<X c #CEECEC",
"1X c #CFECEC",
"2X c #CFEDED",
"3X c #D4F1F1",
"4X c #D7F5F5",
"5X c #DCFAFA",
"6X c #DEFFFF",
"7X c #DFFFFF",
"8X c gray88",
"9X c #E1E1E1",
"0X c #E2E2E2",
"qX c gray89",
"wX c #E4E4E4",
"eX c gray90",
"rX c #E6E6E6",
"tX c #E7E7E7",
"yX c #E8E4E4",
"uX c gray91",
"iX c #E9E9E9",
"pX c #EAE8E8",
"aX c #EAEAEA",
"sX c gray92",
"dX c #ECECEC",
"fX c #EFEDED",
"gX c #EFEFEF",
"hX c #F1EFEF",
"jX c LightCyan",
"kX c #E1FFFF",
"lX c #E2FFFF",
"zX c #E3FFFF",
"xX c #E5FFFF",
"cX c #E9FFFF",
"vX c #EAFFFF",
"bX c #EBFFFF",
"nX c gray95",
"mX c #F3F3F3",
"MX c #F4F2F2",
"NX c #F5F3F3",
"BX c #F4F4F4",
"VX c gray96",
"CX c #F6F4F4",
"ZX c #F7F5F5",
"AX c #F9F7F7",
"SX c #F2FFFF",
"DX c #F3FFFF",
"FX c #F4FFFF",
"GX c #F5FFFF",
"HX c #F6FFFF",
"JX c #F7FFFF",
"KX c #F8FFFF",
"LX c white",
/* pixels */
"jXjXjXjXjXjXjXjXjXjXjXjXjXjXjXjXjXjXjXjXjXjXjXjXjXjXjXjXjXjXjXjXjXjXjXjXjXjXjXjXjXjXjXjXjXjXjXjXjXjX",
"jXjXjXjXjXjXjXjXjXjXjXjXjXjXjXjXjXjXjXjXjXjXjXjXjXjXjXjXjXjXjXjXjXjXjXjXjXjXjXjXjXjXjXjXjXjXjXjXjXjX",
"jXjX7XkXcXvXvXvXvXvXvXvXvXvXvXvXvXvXvXvXvXvXvXvXvXvXvXvXvXvXvXvXvXvXvXvXvXvXvXvXvXvXvXvXvXbXxX6XjXjX",
"jXjXjXkX3X:X,X,X,X,X,X,X,X,X,X,X,X,X,X,X,X,X,X,X,X,X,X,X,X,X,X,X,X,X,X,X,X,X,X,X<X<X<X1X<X1X5XlXjXjX",
"jXjXvX4X+ . o o o o o o o o o o o o o o o o o o o o o o o o o o o o o o o o o o o o o o O   @.KXjXjX",
"jXjXbXC.G yXoXoXoXoXoXoXoXoXoXoXoXoXoXoXoXoXoXoXoXoXoXoXoXoXoXoXoXoXoXoXoXoXoXoXXX|.`.!.`.R ..FXjXjX",
"jXjXvXB.,.LXmXBXBXVXVXBXBXBXBXBXBXBXBXBXBXBXBXBXBXBXBXBXBXBXBXBXBXBXBXBXBXBXBXmXnXgXsXtX9X=.+.SXjXjX",
"jXjXvXV.O.AXuXuXuXiXiXuXuXuXuXuXuXuXuXuXuXuXuXuXuXuXuXuXuXuXuXuXuXuXuXuXuXuXuXtXwX9X&X).J.m X.DXjXjX",
"jXjXvXV.o.ZXrXtXtXrXrXrXeXeXeXeXeXeXeXeXeXeXeXeXeXeXeXeXeXeXeXeXeXeXeXeXeXeXeXqX8X&X_.N.d.t X.GXjXjX",
"jXjXvXV.o.CXeXwXeXwX0X0X0X0X0X0X0X0X0X0X0X0X0X0X0X0X0X0X0X0X0X0X0X0X0X0X0X0X9X=X%X[.F.i.4.3 X.GXjXjX",
"jXjXvXC.} NXwXqX0X9X=X=X=X*X*X*X*X*X*X&XeXdXsXsXsXsXsXsXdXaX&XwXiX=X*X*X*X*X&X%X}.K.g.2.%.< X.GXjXjX",
"jXjXvXC.} NXqX0X9X=X*X%X%X%X$X$X$X$X$X8XU.i.g.g.g.g.g.g.a.z.=XP.S.eX&X$X$X$X$X.XT.M.r.&.` > X.HXjXjX",
"jXjXvXC.} NXqX0X8X*X&X$X#X#X#X#X#X#X&X%XE 8 a a a a a a 0 v wXg.5 n.tX$X+X#XOX'.L.x.6.| / : X.HXjXjX",
"jXjXvXC.} NXqX0X8X&X$X#X+X+X+X+X+X+X&X}.H N D D D D D D N U 0Xm.y h M.tX$X+X XW.J.l.5.{ ~ : X.HXjXjX",
"jXjXvXC.} NXqX0X8X*X$X#X+X+X+X+X+X+X&X XU N D D D D D D N U 0Xn.z n k F.wX+X}.W.J.l.5.{ ~ : X.HXjXjX",
"jXjXvXC.} NXqX0X8X*X$X#XOX$XwXrXeXtXqX{.U N D D D D D D N U wXl.7 h y 8 F.0X}.W.J.l.5.{ ~ : X.HXjXjX",
"jXjXvXC.} NXqX0X8X*X$X#X$XOXn.a.g.y.T.%XU N D D D D D D n T qXT.6.y.i.1.D.8X}.W.J.l.5.{ ~ : X.HXjXjX",
"jXjXvXC.} NXqX0X8X*X$X#XeXx.w a s 4 g.wXU N D D D D D D C S U.tXtXrXrXuX=X.X}.W.J.l.5.{ ~ : X.HXjXjX",
"jXjXvXC.} NXqX0X8X*X$X#XtXi.p D D s c.0XU N D D D D D D D C P >.;.*.*.~ m.0X}.W.J.l.5.{ ~ : X.HXjXjX",
"jXjXvXC.} NXqX0X8X*X$X#XrXd.s D D s c.0XU N D D D D D D D F B z c c c 8 y.rX}.W.J.l.5.{ ~ : X.HXjXjX",
"jXjXvXC.} NXqX0X8X*X$X#XrXd.s D D s c.0XU N D D D D D D D D D D D D D s d.eX}.W.J.l.5.{ ~ : X.HXjXjX",
"jXjXvXC.} NXqX0X8X*X$X#XrXd.s D D s c.0XU N D D D D D D D D D D D D D s d.eX}.W.J.l.5.{ ~ : X.HXjXjX",
"jXjXvXC.} NXqX0X8X*X$X#XrXd.s D D s c.0XU N D D D D D D D D D D D D D s d.eX}.W.J.l.5.{ ~ : X.HXjXjX",
"jXjXvXC.} NXqX0X8X*X$X#XrXd.s D D s c.0XU N D D D D D D D D D D D D D s d.eX}.W.J.l.5.{ ~ : X.HXjXjX",
"jXjXvXC.} NXqX0X8X*X$X#XrXd.s D D s c.0XU N D D D D D D D D D D D D D s d.eX}.W.J.l.5.{ ~ : X.HXjXjX",
"jXjXvXC.} NXqX0X8X*X$X#XrXd.s D D s c.0XU N D D D D D D D D D D D D D s d.eX}.W.J.l.5.{ ~ : X.HXjXjX",
"jXjXvXC.} NXqX0X8X*X$X#XrXd.s D D s c.0XU N D D D D D D D D D D D D D s d.eX}.W.J.l.5.{ ~ : X.HXjXjX",
"jXjXvXC.} NXqX0X8X*X$X#XrXd.s D D s c.0XU N D D D D D D D D D D D D D s d.eX}.W.J.l.5.{ ~ : X.HXjXjX",
"jXjXvXC.} NXqX0X8X*X$X#XrXd.s D D s c.0XU N D D D D D D D D D D D D D s d.eX}.W.J.l.5.{ ~ : X.HXjXjX",
"jXjXvXC.} NXqX0X8X*X$X#XrXd.s D D s c.0XU N D D D D D D D D D D D D D s d.eX}.W.J.l.5.{ ~ : X.HXjXjX",
"jXjXvXC.} NXqX0X8X*X$X#XrXd.s D D s c.0XU N D D D D D D D D D D D D D s d.eX}.W.J.l.5.{ ~ : X.HXjXjX",
"jXjXvXC.} NXqX0X8X*X$X#XrXd.s D D s n.0XH N D D D D D D D D D D D D D p i.rX}.W.J.l.5.{ ~ : X.HXjXjX",
"jXjXvXC.} NXqX0X8X*X$X#XrXd.s D D a c.aX~ 0 s s s s s s s s s s s s a w c.wX}.W.J.l.5.{ ~ : X.HXjXjX",
"jXjXvXC.} NXqX0X8X*X$X#XrXd.s D D c | rXOXl.x.c.c.c.c.c.c.x.j.j.j.j.a.n.OX$X}.W.J.l.5.{ ~ : X.HXjXjX",
"jXjXvXC.} NXqX0X8X*X$X#XrXd.s D D D c 1.#XtXwXqXqXqXqXqXqXwXeXeXeXeXrXwX$XOX}.W.J.l.5.{ ~ : X.HXjXjX",
"jXjXvXC.} NXqX0X8X*X$X#XrXd.s D D D S z S Q Q Q Q Q Q Q H $.OX&X+X+X+X+X+X+X}.W.J.l.5.{ ~ : X.HXjXjX",
"jXjXvXC.} NXqX9X8X*X$X#XtXp.p D D D D D B n n n n n n n s D  X*X+X+X+X+X+X+X XW.J.l.5.{ ~ : X.HXjXjX",
"jXjXvXC.} NXqX8X=X&X$X#XqXl.w s k k k k k k k k k k k k y ~ +X#X.X.X.X.X.X.X[.T.G.h.3.' ^ : X.HXjXjX",
"jXjXvXC.[ MX0X8X*X%X+X{.[.E.s.e.t.t.t.t.t.t.t.t.t.t.t.r.w.H.}._._._._._._.(.T.L.m.p.<.` ! : X.HXjXjX",
"jXjXvXC.[ MX9X*X%X XR.I.K.P.'.].].].].].].].].].].].].].[.Y.J.K.K.K.K.K.K.K.G.m.j.0.&.~ E ; X.HXjXjX",
"jXjXvXZ.] hX*X%X].L.S.v.z.k.k.k.k.k.k.k.k.k.k.k.k.k.k.k.k.k.k.k.k.k.k.k.k.l.f.u.7.:.` I Y ; X.HXjXjX",
"jXjXvXZ.` fX#XW.D.d.q.3.<.>.>.>.>.>.>.>.>.>.>.>.>.>.>.>.>.>.>.>.>.>.>.>.>.>.-.%.] ! L D H - X.HXjXjX",
"jXjXvXA._ pXT.b.e.*.) T U P P P P P P P P P P P P P P P P P P P P P P P P P K H D Z N M Z % X.HXjXjX",
"jXjXvX^.W @Xc.9.' J V b c c c c c c c c c c c c c c c c c c c c c c c c c c x l j h g h M # X.HXjXjX",
"jXjXbX~.A Q.8.( A f u e q q q q q q q q q q q q q q q q q q q q q q q q q q 9 9 9 q q r d @  .JXjXjX",
"jXjXvX2X2 i 6 1 , * & $ $ $ $ $ $ $ $ $ $ $ $ $ $ $ $ $ $ $ $ $ $ $ $ $ $ $ $ $ $ & & * = X #.JXjXjX",
"jXjXjXzX1X/.-X;X>X<X1X2X2X2X2X2X2X2X2X2X2X2X2X2X2X2X2X2X2X2X2X2X2X2X2X2X2X2X2X2X2X1X1X1X,X,X5XlXjXjX",
"jXjX7XkXcXvXvXvXvXvXvXvXvXvXvXvXvXvXvXvXvXvXvXvXvXvXvXvXvXvXvXvXvXvXvXvXvXvXvXvXvXvXvXvXvXbXxX6XjXjX",
"jXjXjXjXjXjXjXjXjXjXjXjXjXjXjXjXjXjXjXjXjXjXjXjXjXjXjXjXjXjXjXjXjXjXjXjXjXjXjXjXjXjXjXjXjXjXjXjXjXjX",
"jXjXjXjXjXjXjXjXjXjXjXjXjXjXjXjXjXjXjXjXjXjXjXjXjXjXjXjXjXjXjXjXjXjXjXjXjXjXjXjXjXjXjXjXjXjXjXjXjXjX"
};
