/* XPM */
static char *pauseNormal_xpm[] = {
/* columns rows colors chars-per-pixel */
"50 50 140 2 ",
"   c #000002",
".  c #0D0E10",
"X  c #0F1011",
"o  c #151515",
"O  c #181716",
"+  c #1E1D1B",
"@  c #201E1C",
"#  c #3C342E",
"$  c #413B33",
"%  c #403A38",
"&  c #55483E",
"*  c #664A33",
"=  c #664F3B",
"-  c #69513D",
";  c #594E42",
":  c #504F4D",
">  c #5C5144",
",  c #595957",
"<  c #585958",
"1  c #605447",
"2  c #6E5640",
"3  c #635649",
"4  c #6A5C4E",
"5  c #755B45",
"6  c #7D634B",
"7  c #6D655B",
"8  c #7F6750",
"9  c #72695E",
"0  c #7D6C5A",
"q  c #746B60",
"w  c #786E62",
"e  c #7E7366",
"r  c #78736B",
"t  c #81654D",
"y  c #846B53",
"u  c #896E55",
"i  c #816F5C",
"p  c #887056",
"a  c #84725E",
"s  c #8B735A",
"d  c #907359",
"f  c #93795E",
"g  c #867460",
"h  c #897560",
"j  c #8E7963",
"k  c #84786A",
"l  c #8D7C6A",
"z  c #927D66",
"x  c #9A7D62",
"c  c #968067",
"v  c #968068",
"b  c #9C856D",
"n  c #968471",
"m  c #9A8B7A",
"M  c #9F907E",
"N  c #A68567",
"B  c #A4876A",
"V  c #AD8768",
"C  c #A0886E",
"Z  c #A58C72",
"A  c #A88F74",
"S  c #AB9176",
"D  c #AC9378",
"F  c #B19273",
"G  c #BD9776",
"H  c #B1977B",
"J  c #B59A7E",
"K  c #C09F7D",
"L  c #9C9084",
"P  c #A69582",
"I  c #AA9986",
"U  c #A99C8C",
"Y  c #B79D80",
"T  c #B99E81",
"R  c #AA9E90",
"E  c #94A19F",
"W  c #BCA083",
"Q  c #B0A496",
"!  c #97A6A5",
"~  c #98A6A5",
"^  c #9AA8A7",
"/  c #99AAA9",
"(  c #C1A587",
")  c #C1A588",
"_  c #C6AB8C",
"`  c #CBAD8D",
"'  c #CDB292",
"]  c #D4B494",
"[  c #D9B997",
"{  c #D6BA99",
"}  c #DABA98",
"|  c #E2B68C",
" . c #E1BB94",
".. c #E1BF9C",
"X. c #DEC09D",
"o. c #E3C19E",
"O. c #E6C4A0",
"+. c #E8C6A2",
"@. c #EECBA6",
"#. c #EECCA9",
"$. c #F1CCA6",
"%. c #F3CFA9",
"&. c #F5D1AA",
"*. c #FAD5AE",
"=. c #E9CEB3",
"-. c #E9D1BB",
";. c #FAD6B1",
":. c #FCD9B4",
">. c #FBDCBB",
",. c #FEE0B5",
"<. c #FFE3BA",
"1. c #FFEABE",
"2. c #B7D9DE",
"3. c #BADCE2",
"4. c #BEE1E7",
"5. c #BFE2E8",
"6. c #EBDEC2",
"7. c #FBDFC1",
"8. c #FBE1C4",
"9. c #FFECC4",
"0. c #FCE3C8",
"q. c #FFECCA",
"w. c #FFF3C5",
"e. c #FFF7C9",
"r. c #FFFCCD",
"t. c #FFEED4",
"y. c #FFF2D2",
"u. c #FFFFD2",
"i. c #FFFEDF",
"p. c #C0E3E8",
"a. c #C6E8ED",
"s. c #CDECED",
"d. c #CEEFF2",
"f. c #CFF0F3",
"g. c #D5F3F4",
"h. c #DEFDFD",
"j. c #E0FFFF",
"k. c #EAFFFF",
"l. c #F5FFFF",
"z. c #F8FFFF",
/* pixels */
"j.j.j.j.j.j.j.j.j.j.j.j.j.j.j.j.j.j.j.j.j.j.j.j.j.j.j.j.j.j.j.j.j.j.j.j.j.j.j.j.j.j.j.j.j.j.j.j.j.j.",
"j.j.j.j.j.j.j.j.j.j.j.j.j.j.j.j.j.j.j.j.j.j.j.j.j.j.j.j.j.j.j.j.j.h.j.j.j.j.j.j.j.j.j.j.j.h.j.j.j.j.",
"j.j.h.j.k.k.k.k.k.k.k.k.k.k.k.k.k.k.k.k.k.k.k.l.k.k.k.k.k.k.k.k.k.k.k.k.k.k.k.k.k.k.k.k.k.k.k.j.j.j.",
"j.j.j.j.g.s.s.s.s.s.a.a.s.s.s.s.s.s.s.s.s.s.a.a.s.s.s.s.s.s.s.s.s.s.s.s.s.s.s.s.s.s.d.s.s.s.h.j.j.j.",
"j.j.k.g.< : , , < < < < < < < < , , < < < < : < < < < < , , , , , < < < < < < , , < , , , % ! l.h.j.",
"j.j.k.3.L 6.-.-.6.6.-.-.-.-.-.-.-.-.-.6.-.-.6.6.-.-.-.6.-.-.-.-.-.-.-.-.-.-.-.=.=.#.+.o...V E l.j.j.",
"j.j.k.2.Q i.y.t.t.t.t.t.t.t.t.t.t.t.t.t.t.t.t.t.t.t.t.t.t.t.t.t.t.t.t.t.t.t.t.q.0.1.:.*.$.K ~ l.j.j.",
"j.j.k.3.R t.0.0.0.0.0.0.0.0.0.0.7.7.0.0.7.7.0.0.0.7.0.0.0.0.7.7.0.0.0.0.8.8.7.>.>.*.$...[ N ~ l.j.j.",
"j.j.k.3.R t.0.0.0.0.7.0.7.7.8.7.7.7.7.7.8.8.8.7.7.7.7.7.7.7.7.7.7.7.7.7.7.7.>.>.:.&.o.] ` f ~ l.j.j.",
"j.j.k.3.R e.7.7.7.7.7.7.>.>.7.>.7.7.7.>.>.>.>.>.7.7.7.7.7.7.7.7.>.7.7.7.>.7.>.:.&.O.] ` ( d ! l.j.j.",
"j.j.k.3.U q.7.8.7.>.>.>.>.>.>.:.>.>.>.>.>.>.>.>.>.>.>.>.>.>.;.>.>.>.:.>.:.>.;.&.@.} ] G J u ~ l.j.j.",
"j.j.k.2.U q.7.>.>.>.>.:.>.:.:.:.;.;.;.:.:.:.:.:.;.>.;.;.;.>.;.;.;.:.:.:.;.;.*.#.o.} _ J H t ~ l.j.j.",
"j.j.k.3.U q.>.>.>.:.>.;.;.;.;.>.8.1.<.<.<.<.:.;.;.;.;.;.>.7.<.<.1.<.<.:.;.*.&.@.o.] ( H S t ~ l.j.j.",
"j.j.k.3.U 9.>.>.>.:.;.>.;.;.1.<.@.#.#.#.@.%.q.:.*.;.;.1.>.+.#.$.#.@.%.9.:.&.$.+.} ] W D A t ~ l.j.j.",
"j.j.k.3.U q.>.>.:.;.;.;.;.1.{ # o o o o o o 0 <.;.*.1.{ # X o O o o O a ,.*.$.o.} ' W D A 6 ~ l.j.j.",
"j.j.k.3.U q.>.>.>.;.;.;.>.>.#                 D w.:.>.#                 D 9.$.o.} ` W D Z 6 ~ l.j.j.",
"h.h.k.3.U 9.>.>.>.>.;.;.<.#.o   j ' W _ _ &   0 w.<.o.X   v ' W _ _ &   0 w.$.O.} ' W D Z 6 ~ l.j.j.",
"j.h.k.3.U q.>.>.:.;.*.;.<.+.o   { u.9.w.r.4   0 w.<.+.X   X.u.w.1.r.>   a w.$.o.} ` W D A 6 ~ l.j.j.",
"j.j.k.3.U 0.>.>.;.;.;.;.>.$.O   ) 1.;.:.<.1   a w.<.+.o   _ 9.*.:.<.>   a w.#.o.[ ` W S A 6 ~ l.j.j.",
"j.j.k.3.U w.>.>.>.>.:.:.<.$.O   ) 1.*.:.1.1   0 w.<.+.X   _ 1.*.:.1.&   a e.$.o.} ` W D Z 6 ! l.j.h.",
"j.j.k.3.U 9.>.>.;.;.>.*.>.$.O   ) 1.*.:.<.1   a w.<.O.o   _ 9.*.:.<.&   g w.$.O.} ' W S A 6 ! l.j.j.",
"j.j.k.3.U 0.>.>.>.;.;.;.<.#.O   ) 1.*.:.1.1   a w.<.+.o   ' 9.*.:.,.>   g w.$.o.} ` W D Z 6 ! l.j.j.",
"j.j.k.3.U 9.>.>.>.;.;.;.<.#.O   ) 9.*.:.<.1   0 w.<.+.o   _ 1.&.:.,.;   g w.#.o.} ` W D A 6 ~ l.j.j.",
"j.j.k.3.U 9.>.>.>.>.;.;.<.#.O   ) 1.*.:.<.1   a w.<.+.o   _ 1.*.:.<.;   g w.$.O.} ` W S A 6 ! l.j.j.",
"j.j.k.3.U q.>.:.>.;.;.;.<.#.O   ( 1.*.:.<.1   i e.<.O.o   _ q.*.:.,.&   s e.$.o.} ` W D Z 6 ! l.j.j.",
"j.j.k.3.U q.>.>.;.>.;.;.<.#.O   ( 1.*.:.<.1   i w.<.O.o   _ 1.*.:.1.>   a w.%.o.} ` W D A 6 ! l.j.j.",
"j.j.k.3.U q.>.>.>.;.:.;.<.#.O   ( 1.*.:.1.1   i w.<.@.o   _ 1.*.:.,.>   h w.#.o.} ` W S A 6 ~ l.j.j.",
"j.j.k.3.U q.>.>.;.>.;.;.<.+.o   ( 1.*.:.<.1   a w.<.@.o   _ 1.*.:.<.&   g w.#.o.} ` W S A 6 ! l.j.j.",
"j.j.k.3.U q.>.:.>.;.*.*.<.#.O   ) 1.;.,.<.1   0 w.<.$.o   _ q.*.:.,.>   a w.@.O.} ` W D A 6 ! l.j.j.",
"j.j.k.3.U 9.>.>.:.:.:.;.<.$.O   ) 1.*.:.1.1   a w.<.#.o   ` 1.*.:.,.>   g w.@.O.} ` W D A 6 ! l.j.j.",
"j.j.k.3.U q.>.>.>.:.:.:.<.#.O   ( 1.*.:.<.1   i w.<.@.o   _ 1.*.:.,.;   g w.@.O.} ` W D A 6 ! l.j.j.",
"j.j.k.2.U q.>.>.:.:.*.*.,.#.O   ( 1.*.:.<.1   i w.<.#.O   _ 1.*.:.<.;   g w.$.O.} ` W D Z 6 ! l.j.j.",
"j.j.k.3.U q.>.:.:.:.;.;.<.+.O   _ w.:.,.9.3   a w.,.#.o   ' 9.:.,.1.>   g w.#.o.[ ' W S A 6 ~ l.j.j.",
"j.j.k.3.U 9.>.>.>.;.:.;.<.+.o   ` r.,.1.w.1   0 w.<.+.o   ' e.<.1.w.>   a w.#.o.} ` W D Z 6 ~ l.j.j.",
"j.j.k.3.U q.>.>.>.;.:.;.<.$.O   $ 1 > > > @   a e.,.%.o   $ 1 ; > ; @   g w.$.o.} ` W D Z 6 ~ l.j.j.",
"j.j.k.3.U q.>.>.:.;.;.;.:.9.g               + X.<.*.1.a               @ o.:.@.o.} ` W D A 6 ~ l.j.j.",
"j.j.k.3.U q.>.:.:.:.*.*.*.:.:.D 0 a a a a a X.<.&.&.*.,.S 0 a a a a a o.,.$.@.o.[ _ W S B 6 ~ l.j.j.",
"j.j.k.3.U 9.>.:.:.*.*.&.$.@.&.1.w.w.1.9.1.1.:.#.#.$.$.*.<.w.w.1.9.1.w.,.@.+.o.} ] _ J Z Z 6 ~ l.j.j.",
"j.j.k.3.I 9.:.:.*.&.$.@.+.o.O.O.+.o.+.o.+.o.o.O.o.o.o.o.o.+.o.+.o.+.o.o.o.o.} ] _ ( H Z C 6 ~ l.j.j.",
"j.j.k.3.I <.*.&.#.O.o.o.} } } } [ } [ [ [ X.} } } } X.} [ } } } [ } } } } ] ] _ ( J S b b 5 ~ l.j.j.",
"j.j.k.3.I ,.%.@.o.} ] ] ` ` ` ` ` ` ` ` ` ` ` ` ` ` ` ` ` ` ` ` ` ` ` ` ` _ ( W H S b v v 5 ~ l.j.j.",
"j.j.k.3.D *.o.} ' _ ( W W J Y Y Y Y J Y Y Y Y J J Y J J J T J J Y Y Y Y J J H D A C v f j 2 ~ l.j.j.",
"j.j.k.4.L $.] _ W J D S Z Z Z Z Z C Z Z Z Z Z Z Z Z Z Z Z Z Z Z Z Z Z Z Z C b b z z h a s - ~ l.j.j.",
"j.j.k.5.m  .) W D C b b c z z z z z z z z z j z z z z z z z z z z j z z z j j j s a i 0 i = ~ l.j.j.",
"j.j.k.4.n | G F B x f s s p p p p p p p p p p p p p p p p p p p p p p p p p y y 0 6 6 6 y * E z.j.j.",
"j.j.k.d.r l k e w q 9 7 7 7 7 7 7 7 7 7 7 7 7 7 7 7 7 7 7 7 7 7 7 7 7 7 7 7 7 7 7 7 7 7 7 & / z.j.j.",
"j.j.j.j.d.4.a.a.d.d.d.d.d.d.f.f.d.d.d.d.f.d.d.d.d.d.f.f.d.d.d.d.d.d.f.d.d.d.d.d.d.f.d.f.d.d.h.j.j.j.",
"j.j.j.j.k.k.k.k.k.k.k.k.k.k.k.k.k.k.k.k.k.k.k.k.k.k.k.k.k.k.k.k.k.k.k.k.k.k.k.k.k.k.k.k.k.k.k.h.j.j.",
"j.j.j.j.j.j.j.j.j.j.j.j.j.j.j.j.j.j.j.j.j.j.j.j.j.j.j.j.j.j.j.j.h.j.j.j.j.j.j.j.j.j.j.j.j.j.j.j.j.j.",
"j.j.j.j.j.j.j.j.j.j.j.j.j.j.j.j.j.j.j.j.j.j.j.j.j.j.j.j.j.j.j.j.j.j.j.j.j.j.j.j.j.j.j.j.j.j.h.j.j.j."
};
