/* XPM */
static char *playPressed_xpm[] = {
/* columns rows colors chars-per-pixel */
"50 50 136 2 ",
"   c #000000",
".  c #0C090B",
"X  c #141110",
"o  c #1A1615",
"O  c #1E1A18",
"+  c #201917",
"@  c #211D1A",
"#  c #26211E",
"$  c #2E2C28",
"%  c #302A26",
"&  c #342E2A",
"*  c #37312B",
"=  c #38322E",
"-  c #3B3532",
";  c #413C36",
":  c #543F31",
">  c #45403A",
",  c #4B453D",
"<  c #4A4744",
"1  c #575249",
"2  c #5C554E",
"3  c #5E584F",
"4  c #515251",
"5  c #585A5A",
"6  c #665445",
"7  c #6B5747",
"8  c #63594F",
"9  c #6B5D4F",
"0  c #655F54",
"q  c #6C5E50",
"w  c #67635C",
"e  c #68635B",
"r  c #756455",
"t  c #796656",
"y  c #7A6957",
"u  c #776658",
"i  c #756D5F",
"p  c #7D6C5A",
"a  c #656561",
"s  c #7D6F61",
"d  c #7E7162",
"f  c #76716B",
"g  c #79746E",
"h  c #856F5A",
"j  c #827464",
"k  c #877866",
"l  c #867768",
"z  c #867A69",
"x  c #8B7C6B",
"c  c #8E806F",
"v  c #91816F",
"b  c #8E8271",
"n  c #948573",
"m  c #988775",
"M  c #968976",
"N  c #9B8A76",
"B  c #9E8E7A",
"V  c #9E907C",
"C  c #A18F7C",
"Z  c #A4917D",
"A  c #9C8F81",
"S  c #9F9181",
"D  c #A39484",
"F  c #A89581",
"G  c #AE9C86",
"H  c #A29688",
"J  c #A6998A",
"K  c #AA9B8C",
"L  c #B19D87",
"P  c #B29E89",
"I  c #92A09F",
"U  c #B4A08A",
"Y  c #BBA68F",
"T  c #B3A493",
"R  c #BCA790",
"E  c #BBAA95",
"W  c #B7A998",
"Q  c #BCAB98",
"!  c #97A6A5",
"~  c #98A7A6",
"^  c #99AAAA",
"/  c #C4AE96",
"(  c #C7B097",
")  c #C5B29B",
"_  c #C8B198",
"`  c #D0B89F",
"'  c #C5B4A1",
"]  c #C8B6A3",
"[  c #CAB9A5",
"{  c #D6BDA3",
"}  c #D8BEA4",
"|  c #D1BDA8",
" . c #CFC0A5",
".. c #DAC1A6",
"X. c #D5C2AB",
"o. c #DDC5AA",
"O. c #DCCBAF",
"+. c #DBC7B2",
"@. c #DDC9B4",
"#. c #E1C7AB",
"$. c #E4CAAD",
"%. c #E3CCB4",
"&. c #E9CEB1",
"*. c #E5D3B6",
"=. c #EED2B5",
"-. c #E7D2BB",
";. c #EDD6BD",
":. c #EEDBBC",
">. c #F0D4B7",
",. c #F3D7BA",
"<. c #F6DABC",
"1. c #FBDDBF",
"2. c #F6DDC2",
"3. c #FBDFC1",
"4. c #F5E0C1",
"5. c #FBE1C4",
"6. c #FFE8C7",
"7. c #F1E5CC",
"8. c #FFEBCB",
"9. c #FFF1CF",
"0. c #FFEED0",
"q. c #FFF5D3",
"w. c #FFFAD7",
"e. c #FFFFDC",
"r. c #CAE9EC",
"t. c #CFEFF2",
"y. c #D0EFF2",
"u. c #D5F3F5",
"i. c #D8F6F6",
"p. c #DEFDFD",
"a. c #FFFFED",
"s. c #E0FFFF",
"d. c #EAFFFF",
"f. c #FFFFF5",
"g. c #F5FFFF",
"h. c #F9FFFF",
/* pixels */
"s.s.s.s.s.s.s.s.s.s.s.s.s.s.s.s.s.s.s.s.s.s.s.s.s.s.s.s.s.s.s.s.s.s.s.s.s.s.s.s.s.s.s.s.s.s.s.s.s.s.",
"s.s.s.s.s.s.s.s.s.s.s.s.s.s.s.s.s.s.s.s.s.s.s.s.s.s.s.s.s.s.s.s.s.p.s.s.p.s.s.s.s.s.s.s.s.s.s.s.s.s.",
"s.s.p.s.d.d.d.d.d.d.d.d.d.d.d.d.d.d.d.d.d.d.d.d.d.d.d.d.d.d.d.d.d.d.d.d.d.d.d.d.d.d.d.d.d.d.s.p.s.s.",
"s.s.s.s.i.u.u.u.u.u.u.u.u.u.u.u.i.u.u.u.u.u.u.u.u.u.u.u.u.u.u.u.u.u.u.u.u.u.u.u.u.i.u.u.u.u.p.s.s.s.",
"s.s.d.u.5 < 4 4 4 4 4 4 4 4 4 1 4 4 4 4 4 4 1 4 4 4 4 1 4 4 4 4 1 4 4 4 4 1 4 4 4 4 4 4 4 - ^ h.s.s.",
"s.s.d.u.2 6 q q 9 9 9 9 9 9 9 9 9 9 9 9 9 9 9 9 9 q q 9 9 9 9 9 9 9 9 9 0 q q 9 9 q 9 9 r : I h.s.s.",
"s.s.d.y.e t i p s d h j j j j j j j j j j j j k j j j j j j j j j j j j j j j h j d j j j 7 ! h.s.s.",
"s.s.d.y.e r s s j z k x c x x x x x x x x x x x x x v x x x x x x c x x x x x x l l j j x q ~ h.s.s.",
"s.s.d.y.e t d j x n m N C C C C C N C C N C C C B B B C B B B C C B C B B C B N N n n x n r ! g.s.s.",
"s.s.d.u.e y j x n D G L P U L U U U U U U U U U U U U U U U U U U P U U U U U U L F C N B u ~ g.s.s.",
"s.s.d.t.e p j n C L Y / _ _ _ ( ( ( ( ( ( ( ( _ _ _ _ _ ( _ ( ( _ _ _ _ _ _ _ _ / R K D S u ! g.s.s.",
"s.p.d.t.e p k n Z Y ( ` ` } } } } } } } } } } } } { { } } } ..` } { } } ....o.o.{ ) T J D u ! g.s.s.",
"s.s.d.t.w p x N G / ` ..$.$.$.$.$.$.$.&.$.$.$.$.$.$.$.$.$.$.$.$.$.$.$.$.&.&.>.&.+.[ E K D r ! g.s.s.",
"s.s.d.t.w p k N G / ` #.&.>.>.>.>.>.>.>.>.>.>.>.>.>.>.>.>.>.>.,.>.=.,.>.,.1.<.;.%.| / K H t ! g.s.s.",
"s.s.d.t.w p k N G / ` $.&.>.<.<.1.q.w.9.1.,.<.,.1.<.<.<.<.<.<.<.<.<.<.1.1.3.2.,.%.| E J D r ! g.s.s.",
"s.s.d.t.w h k B L / } $.>.<.<.1.8.L p ` e.8.1.1.1.1.1.1.1.1.1.1.1.1.1.1.3.3.2.,.%.| Q K H u ! g.s.s.",
"s.s.d.t.w p x N L / } #.=.<.<.q.U       d 5.e.6.1.1.1.1.1.1.1.1.1.1.1.1.6.1.2.;.%.| Q K D r ! g.s.s.",
"s.s.d.t.w h k N G / { $.=.<.3.e.s   , +   @ G w.w.3.1.1.1.1.1.1.1.5.1.3.1.5.5.;.%.| Q K H t ! g.s.s.",
"s.s.d.t.e p x N L / { #.=.<.1.e.j   / 7.1     , [ e.9.1.1.1.1.1.1.1.1.1.5.5.3.;.%.| Q K D r ! g.s.s.",
"s.s.d.t.e p x N L / { $.=.<.1.e.l   Z a.e.E &     i <.a.6.1.1.1.1.1.1.1.1.5.2.,.%.| E G H u ! g.s.s.",
"s.s.d.t.e p k N G / { $.=.<.1.e.j   F w.5.e.8.M .   o F q.w.3.1.1.1.1.1.3.5.2.;.%.| Q K H r ! g.s.s.",
"s.s.d.t.e p x N G / { $.=.<.1.e.j   F w.1.1.8.e.*.w     > ) e.9.1.1.1.1.3.5.2.;.%.| Q K H u ! g.s.s.",
"s.s.d.t.e p x m L / { #.>.<.<.e.j   F w.1.1.1.1.q.e.) -     e <.e.5.<.1.3.5.2.2.%.| W G D t ! g.s.s.",
"s.s.d.t.0 h x m G / { $.=.<.2.e.j   F e.1.1.1.1.1.1.e.9.V X   X F 9.5.1.3.5.5.,.%.| Q K D r ! g.s.s.",
"s.s.d.t.w p x N L / { $.=.<.1.e.k   F w.1.1.1.1.1.1.1.6.e.:.z     G w.3.3.5.2.;.%.| Q K D u ! g.s.s.",
"s.s.d.t.w p k N L / { #.=.<.1.e.k   F w.5.1.1.1.1.1.1.1.8.a.4.$   p e.3.3.3.2.,.%.| Q K D u ! g.s.s.",
"s.s.d.t.w p x N G / { $.>.<.1.e.d   F w.1.1.1.1.1.1.6.e.5.z     = %.8.1.3.5.2.;.%.| Q J D u ! g.s.s.",
"s.s.d.t.w h x N G / { $.=.<.1.w.k   F w.1.1.1.1.1.w.q.U %     x 8.8.1.3.3.5.2.;.%.| Q J D u ! g.s.s.",
"s.s.d.t.w p k B L / { #.=.<.1.e.j   F e.1.1.1.8.e.X.<     1 O.e.8.1.1.1.3.3.2.;.%.| Q K D u ! g.s.s.",
"s.p.d.t.w p k N G / { $.=.<.<.e.j   F w.1.6.e.4.d     % T w.w.1.1.1.1.1.3.3.2.2.%.| Q K D u ! g.s.s.",
"s.s.d.t.w p x N L / { $.=.<.1.e.j   D w.e.q.F O     b 8.e.5.1.1.1.1.3.3.3.3.2.,.%.| Q G D u ! g.s.s.",
"s.s.d.t.w h x N G / { $.=.<.1.e.j   R f.[ >     3 *.e.6.1.1.1.1.3.1.2.3.3.3.2.,.%.| Q J D r ! g.s.s.",
"s.s.d.t.e p k N P / { #.=.<.1.e.j   m n     * Q e.q.1.1.1.1.3.1.1.1.1.3.3.3.2.;.%.| Q K D t ! g.s.s.",
"s.s.d.t.e p x N P / { $.=.1.<.e.x       . M 8.e.1.1.1.1.1.3.1.1.3.1.1.1.3.3.2.2.%.| Q K D t ! g.s.s.",
"s.s.d.t.w p k N G / { $.&.<.1.8.-.; . 5 -.a.6.1.1.1.1.1.3.3.3.3.1.1.1.3.3.3.2.2.%.| W K D u ! g.s.s.",
"s.s.d.t.w h x N G / { $.>.1.1.1.0.3.>.w.q.3.1.1.3.3.3.1.3.3.3.3.5.3.3.3.2.2.2.-.%.| W K D u ! g.s.s.",
"s.s.d.t.w p x N P / } %.<.3.3.3.2.0.0.5.3.2.2.2.6.1.5.5.5.5.3.2.5.5.5.2.5.5.2.2.%.{ Q J D u ! g.s.s.",
"s.s.d.t.w p k N G / } =.1.3.2.3.2.2.2.5.5.2.7.2.5.5.5.5.2.5.3.7.3.5.5.5.5.7.2.-.@.{ Q K H r ! g.s.s.",
"s.s.d.t.e p k m G / ..&.2.2.2.2.2.2.2.2.2.2.2.2.2.2.2.2.2.2.2.2.2.2.2.2.3.2.2.2.@.[ W J H u ! g.s.s.",
"s.s.d.y.e p k m F / { @.%.@.2.2.@.2.@.2.2.2.2.2.;.;.;.-.2.-.2.@.;.;.;.-.2.-.-.+.X.] W F S u ! g.s.s.",
"s.s.d.y.e y l n D Y ) X.@.@.@.@.%.@.@.@.@.@.@.@.@.@.@.@.@.@.@.%.@.@.@.@.@.@.@.| [ ) T H A u ! g.s.s.",
"s.s.d.y.e y l x C P Q ' [ [ [ [ [ [ ] ] [ [ [ [ [ [ [ [ [ [ [ [ [ [ [ [ [ [ [ ' Q W K S A u ! g.s.s.",
"s.s.d.y.a h j x B J T W W W W W W W W Q W W W W W W W W W W W W W W W W W W W T T K H A A u ! g.s.s.",
"s.s.d.y.e y l n A H J J K K K K K K K K K K K K K K K K K K K K K K K K K K K J H H S A A u ! g.s.s.",
"s.s.d.r.0 h x N C S D D J D D D D D D D D D D D H H H H D D D D H H H H D D D D D S A B S t I h.s.s.",
"s.s.d.u.a e f g g g g g g g g g g f g g g g g g g g g g g g g g g g g g g g g g g g g f g 2 ^ h.s.s.",
"s.s.s.s.u.r.r.r.r.r.r.r.r.r.r.r.r.r.r.r.r.r.r.r.r.r.r.r.r.r.r.r.r.r.r.r.r.r.r.r.r.r.r.r.r.r.p.s.s.s.",
"s.s.s.s.d.d.d.d.d.d.d.d.d.d.d.d.d.d.d.d.d.d.d.d.d.d.d.d.d.d.d.d.d.d.d.d.d.d.d.d.d.d.d.d.d.d.d.s.s.s.",
"s.s.s.s.s.s.s.s.s.s.s.s.s.s.s.s.s.s.s.s.s.s.s.s.s.s.s.s.s.s.s.s.s.s.s.s.s.s.s.s.s.s.s.s.s.s.s.s.s.s.",
"s.s.s.s.s.s.s.s.s.s.s.s.s.s.s.s.s.s.s.s.s.s.s.s.s.s.s.s.s.s.s.s.s.s.s.s.s.s.s.s.s.s.s.s.s.s.s.s.s.s."
};
