/* XPM */
static char *playDisabled_xpm[] = {
/* columns rows colors chars-per-pixel */
"50 50 247 2 ",
"   c #3F3B3B",
".  c gray31",
"X  c #524E4E",
"o  c #585959",
"O  c #585A5A",
"+  c #5B5E5E",
"@  c #645D5D",
"#  c #6A6565",
"$  c #696B6B",
"%  c #6E6868",
"&  c #6A6C6C",
"*  c #6B6D6D",
"=  c #6D6F6F",
"-  c #706B6B",
";  c #726D6D",
":  c #736E6E",
">  c #746F6F",
",  c #6F7070",
"<  c #767171",
"1  c #737474",
"2  c #737676",
"3  c #7B7676",
"4  c #797B7B",
"5  c gray48",
"6  c #7B7B7B",
"7  c #7C7C7C",
"8  c gray49",
"9  c #7F7D7D",
"0  c #7E7E7E",
"q  c #7F7E7E",
"w  c gray50",
"e  c #807E7E",
"r  c #817F7F",
"t  c #837E7E",
"y  c #808080",
"u  c #818181",
"i  c #828181",
"p  c gray51",
"a  c #838383",
"s  c #848484",
"d  c gray52",
"f  c #868585",
"g  c #878585",
"h  c #858686",
"j  c #868686",
"k  c #878686",
"l  c #888787",
"z  c #888888",
"x  c #888989",
"c  c #898989",
"v  c gray54",
"b  c #8A8B8B",
"n  c #8F8A8A",
"m  c #8B8C8C",
"M  c gray55",
"N  c #8D8D8D",
"B  c #8D8E8E",
"V  c #8E8E8E",
"C  c gray56",
"Z  c #908F8F",
"A  c #909090",
"S  c gray57",
"D  c #929292",
"F  c #939292",
"G  c #939393",
"H  c #939494",
"J  c gray58",
"K  c #949595",
"L  c #959595",
"P  c #959696",
"I  c gray59",
"U  c #969797",
"Y  c #979797",
"T  c #9D9595",
"R  c #989898",
"E  c #989999",
"W  c gray60",
"Q  c #999A9A",
"!  c #9A9A9A",
"~  c #9A9B9B",
"^  c #9B9B9B",
"/  c #9D9B9B",
"(  c #9B9C9C",
")  c #9B9D9D",
"_  c gray61",
"`  c #9C9D9D",
"'  c #9D9D9D",
"]  c #9D9E9E",
"[  c #9D9F9F",
"{  c gray62",
"}  c #9E9F9F",
"|  c #9F9F9F",
" . c #93A2A2",
".. c #94A2A2",
"X. c #97A7A7",
"o. c #9EA0A0",
"O. c #9FA0A0",
"+. c #99A8A8",
"@. c #98A9A9",
"#. c #99AAAA",
"$. c gray63",
"%. c #A1A2A2",
"&. c #A2A2A2",
"*. c gray64",
"=. c #A7A1A1",
"-. c #A3A4A4",
";. c #A4A5A5",
":. c #A5A5A5",
">. c #A5A6A6",
",. c gray65",
"<. c #A7A7A7",
"1. c gray66",
"2. c #A8A9A9",
"3. c #A9A9A9",
"4. c #AAAAAA",
"5. c gray67",
"6. c #ACABAB",
"7. c #ADABAB",
"8. c #ACACAC",
"9. c gray68",
"0. c #AEADAD",
"q. c #AEAEAE",
"w. c #AFAFAF",
"e. c gray69",
"r. c #B2B1B1",
"t. c #B2B2B2",
"y. c gray70",
"u. c #B4B4B4",
"i. c gray71",
"p. c #B5B6B6",
"a. c #B6B6B6",
"s. c #B6B7B7",
"d. c #B7B7B7",
"f. c #B8B7B7",
"g. c gray72",
"h. c #B9B9B9",
"j. c gray73",
"k. c #BBBBBB",
"l. c #BBBCBC",
"z. c #BCBCBC",
"x. c gray",
"c. c gray75",
"v. c #BFC0C0",
"b. c #BBD8D8",
"n. c #BDDBDB",
"m. c #BEDBDB",
"M. c #BEDCDC",
"N. c #BFDCDC",
"B. c #C0C0C0",
"V. c #C1C1C1",
"C. c gray76",
"Z. c #C3C3C3",
"A. c gray77",
"S. c #C5C5C5",
"D. c #C6C6C6",
"F. c gray78",
"G. c gray79",
"H. c #C9CACA",
"J. c #CBCBCB",
"K. c gray80",
"L. c #CDCDCD",
"P. c #CECECE",
"I. c gray81",
"U. c #D0CCCC",
"Y. c #D0CECE",
"T. c #C0DDDD",
"R. c #C0DEDE",
"E. c #C2DFDF",
"W. c #D0D0D0",
"Q. c #D0D1D1",
"!. c gray82",
"~. c #D3D1D1",
"^. c #D1D2D2",
"/. c #D2D2D2",
"(. c LightGray",
"). c gray83",
"_. c #D5D5D5",
"`. c #D6D4D4",
"'. c gray84",
"]. c #D7D7D7",
"[. c #D8D6D6",
"{. c #D9D7D7",
"}. c #D8D8D8",
"|. c gray85",
" X c #DBD9D9",
".X c #DADADA",
"XX c gray86",
"oX c gainsboro",
"OX c #DDDDDD",
"+X c gray87",
"@X c #DFDFDF",
"#X c #C9E6E6",
"$X c #CBE9E9",
"%X c #CCE9E9",
"&X c #CDEAEA",
"*X c #CEEBEB",
"=X c #CEECEC",
"-X c #CFECEC",
";X c #CFEDED",
":X c #D4F1F1",
">X c #D7F5F5",
",X c #DCFAFA",
"<X c #DEFFFF",
"1X c #DFFFFF",
"2X c gray88",
"3X c #E1E1E1",
"4X c #E2E2E2",
"5X c #E3E2E2",
"6X c gray89",
"7X c #E4E4E4",
"8X c gray90",
"9X c #E6E6E6",
"0X c #E7E7E7",
"qX c #E8E4E4",
"wX c gray91",
"eX c #E9E9E9",
"rX c #EAE8E8",
"tX c gray92",
"yX c #EFEDED",
"uX c #EEEEEE",
"iX c #EFEFEF",
"pX c #F1EFEF",
"aX c LightCyan",
"sX c #E1FFFF",
"dX c #E2FFFF",
"fX c #E3FFFF",
"gX c #E5FFFF",
"hX c #E9FFFF",
"jX c #EAFFFF",
"kX c #EBFFFF",
"lX c gray95",
"zX c #F3F3F3",
"xX c #F4F2F2",
"cX c #F5F3F3",
"vX c #F4F4F4",
"bX c gray96",
"nX c #F6F4F4",
"mX c #F7F5F5",
"MX c #F9F7F7",
"NX c #F2FFFF",
"BX c #F3FFFF",
"VX c #F4FFFF",
"CX c #F5FFFF",
"ZX c #F6FFFF",
"AX c #F7FFFF",
"SX c #F8FFFF",
"DX c white",
/* pixels */
"aXaXaXaXaXaXaXaXaXaXaXaXaXaXaXaXaXaXaXaXaXaXaXaXaXaXaXaXaXaXaXaXaXaXaXaXaXaXaXaXaXaXaXaXaXaXaXaXaXaX",
"aXaXaXaXaXaXaXaXaXaXaXaXaXaXaXaXaXaXaXaXaXaXaXaXaXaXaXaXaXaXaXaXaXaXaXaXaXaXaXaXaXaXaXaXaXaXaXaXaXaX",
"aXaX1XsXhXjXjXjXjXjXjXjXjXjXjXjXjXjXjXjXjXjXjXjXjXjXjXjXjXjXjXjXjXjXjXjXjXjXjXjXjXjXjXjXjXkXgX<XaXaX",
"aXaXaXsX:X%X*X*X*X*X*X*X*X*X*X*X*X*X*X*X*X*X*X*X*X*X*X*X*X*X*X*X*X*X*X*X*X*X*X*X=X=X=X-X=X-X,XdXaXaX",
"aXaXjX>X+ . o o o o o o o o o o o o o o o o o o o o o o o o o o o o o o o o o o o o o o O   @.SXaXaX",
"aXaXkXm.F qX{.{.{.{.{.{.{.{.{.{.{.{.{.{.{.{.{.{.{.{.{.{.{.{.{.{.{.{.{.{.{.{.{.{.[.`.~.Y.~.T ..VXaXaX",
"aXaXjXb.>.DXzXvXvXbXbXvXvXvXvXvXvXvXvXvXvXvXvXvXvXvXvXvXvXvXvXvXvXvXvXvXvXvXvXzXlXiXtX0X3X=.+.NXaXaX",
"aXaXjXn.O.MXwXwXwXeXeXwXwXwXwXwXwXwXwXwXwXwXwXwXwXwXwXwXwXwXwXwXwXwXwXwXwXwXwX0X7X3XOXQ.S.n X.BXaXaX",
"aXaXjXn.o.mX9X0X0X9X9X9X8X8X8X8X8X8X8X8X8X8X8X8X8X8X8X8X8X8X8X8X8X8X8X8X8X8X8X6X2XOX!.v.i.t X.CXaXaX",
"aXaXjXn.o.nX8X7X8X7X4X4X4X4X4X4X4X4X4X4X4X4X4X4X4X4X4X4X4X4X4X4X4X4X4X4X4X4X3X@XoX(.C.t.3.3 X.CXaXaX",
"aXaXjXm.} cX7X6X4X3X@X@X@X+X+X+X+X+X+X+X+X+X+X+X+X+X+X+X+X+X+X+X+X+X+X+X+X+XOXoX_.D.a.1.%.< X.CXaXaX",
"aXaXjXm.} cX6X4X3X@X+XoXoXoXXXXXXXXXXXXXXXXXXXXXXXXXXXXXXXXXXXXXXXXXXXXXXXXXXX].L.c.e.&.` > X.ZXaXaX",
"aXaXjXm.} cX6X4X2X+XOXXX.X.X|..X+X@XXX|..X.X.X.X.X.X.X.X.X.X.X.X.X.X.X.X.X.X}.^.F.j.5.| ^ : X.ZXaXaX",
"aXaXjXm.} cX6X4X2XOXXX.X|.|.|.2X|._.4X2X|.|.|.|.|.|.|.|.|.|.|.|.|.|.|.|.|.|.'.I.S.g.4.{ ! : X.ZXaXaX",
"aXaXjXm.} cX6X4X2X+XXX.X|.|.2XA.J A q.].9XOX}.|.|.|.|.|.|.|.|.|.|.|.|.|.|.|._.I.S.g.4.{ ! : X.ZXaXaX",
"aXaXjXm.} cX6X4X2X+XXX.X|.OX.XL s a 8 G k.@X7X.X}.|.|.|.|.|.|.|.|.|.|.|.|.|._.I.S.g.4.{ ! : X.ZXaXaX",
"aXaXjXm.} cX6X4X2X+XXX.X|.OX).S N q.' 8 y ' F.7X4X|.|.|.|.|.|.|.|.|.|.|.|.|._.I.S.g.4.{ ! : X.ZXaXaX",
"aXaXjXm.} cX6X4X2X+XXX.X|.OX_.S v ).4Xy.M 6 j 3./.9X+X}.|.|.|.|.|.|.|.|.|.|._.I.S.g.4.{ ! : X.ZXaXaX",
"aXaXjXm.} cX6X4X2X+XXX.X|.OX_.D v G.0X9XW.<.d 6 V i.XX9XoX}.|.|.|.|.|.|.|.|._.I.S.g.4.{ ! : X.ZXaXaX",
"aXaXjXm.} cX6X4X2X+XXX.X|.OX_.D v G.3X|.4X7XD._ w 8 R C.4X6X.X}.|.|.|.|.|.|._.I.S.g.4.{ ! : X.ZXaXaX",
"aXaXjXm.} cX6X4X2X+XXX.X|.OX_.D v G.3X|.}.XX8X@Xj.D 7 p &.L.8X3X|.|.|.|.|.|._.I.S.g.4.{ ! : X.ZXaXaX",
"aXaXjXm.} cX6X4X2X+XXX.X|.OX_.D v G.3X|.|.|.}.OX9X].q.c 5 v w.].9XOX}.|.|.|._.I.S.g.4.{ ! : X.ZXaXaX",
"aXaXjXm.} cX6X4X2X+XXX.X|.OX_.D v G.3X|.|.|.|.|.|.3X8XK.&.p 7 D k.@X4X}.|.|._.I.S.g.4.{ ! : X.ZXaXaX",
"aXaXjXm.} cX6X4X2X+XXX.X|.OX_.D v G.3X|.|.|.|.|.|.}..X6X4XV.R 8 u _ W.2X|.|._.I.S.g.4.{ ! : X.ZXaXaX",
"aXaXjXm.} cX6X4X2X+XXX.X|.OX_.D v G.3X|.|.|.|.|.|.|.|.}.oX8XXXk.Y 8 W oXoX|._.I.S.g.4.{ ! : X.ZXaXaX",
"aXaXjXm.} cX6X4X2X+XXX.X|.OX_.D v G.3X|.|.|.|.|.|.|.|.|.}.oXtX3X&.p N _.+X|._.I.S.g.4.{ ! : X.ZXaXaX",
"aXaXjXm.} cX6X4X2X+XXX.X|.OX_.D v G.3X|.|.|.|.|.|.|.}.XX8X@Xj.D p a u.2X.X|._.I.S.g.4.{ ! : X.ZXaXaX",
"aXaXjXm.} cX6X4X2X+XXX.X|.OX_.D v G.3X|.|.|.|.|.|.|.4X6XD._ w 8 R Z.2XoX|.|._.I.S.g.4.{ ! : X.ZXaXaX",
"aXaXjXm.} cX6X4X2X+XXX.X|.OX_.D v G.3X|.|.|.|.}.@X9X!.<.d 6 V i.XX9XXX}.|.|._.I.S.g.4.{ ! : X.ZXaXaX",
"aXaXjXm.} cX6X4X2X+XXX.X|.OX_.D v G.3X|.|.}.oX9X.Xy.N 6 j 3./.9X+X}.|.|.|.|._.I.S.g.4.{ ! : X.ZXaXaX",
"aXaXjXm.} cX6X4X2X+XXX.X|.OX_.D v G.3X}..X7X2Xc.I 8 y ' F.7X4X|.|.|.|.|.|.|._.I.S.g.4.{ ! : X.ZXaXaX",
"aXaXjXm.} cX6X4X2X+XXX.X|.OX_.D v G.3X3X8XJ.$.p 7 D k.@X7X.X}.|.|.|.|.|.|.|._.I.S.g.4.{ ! : X.ZXaXaX",
"aXaXjXm.} cX6X4X2X+XXX.X|.OX_.D c P.uX_.9.z 6 v w.].9XOX}.|.|.|.|.|.|.|.|.|._.I.S.g.4.{ ! : X.ZXaXaX",
"aXaXjXm.} cX6X4X2X+XXX.X|.OX_.S M G.V.A 7 a *.L.9X2X|.|.|.|.|.|.|.|.|.|.|.|._.I.S.g.4.{ ! : X.ZXaXaX",
"aXaXjXm.} cX6X4X2X+XXX.X|.OX_.C M I a 0 R C.4X6X.X|.|.|.|.|.|.|.|.|.|.|.|.|._.I.S.g.4.{ ! : X.ZXaXaX",
"aXaXjXm.} cX6X4X2X+XXX.X|.XX@X8.y 0 C a.oX8XoX|.|.|.|.|.|.|.|.|.|.|.|.|.|.|._.I.S.g.4.{ ! : X.ZXaXaX",
"aXaXjXm.} cX6X3X2X+XXX.X.X}.OXoXj.t.W.9X+X}.|.|.|.|.|.|.|.|.|.|.|.|.|.|.|.|.'.I.S.g.4.{ ! : X.ZXaXaX",
"aXaXjXm.} cX6X2X@XOXXX.X}.].'.|.5X7XOX].'.].].].].].].].].].].].].].].].].].(.L.Z.s.2.' ~ : X.ZXaXaX",
"aXaXjXm.[ xX4X2X+XoX|.).!.!.!.!.!.!.!.!.!.!.!.!.!.!.!.!.!.!.!.!.!.!.!.!.!.W.L.F.x.y.,.` Q : X.ZXaXaX",
"aXaXjXm.[ xX3X+XoX'.P.H.F.D.D.D.D.D.D.D.D.D.D.D.D.D.D.D.D.D.D.D.D.D.D.D.D.D.Z.x.d.9.&.! R ; X.ZXaXaX",
"aXaXjXM.] pX+XoX/.F.B.l.h.f.f.f.f.f.f.f.f.f.f.f.f.f.f.f.f.f.f.f.f.f.f.f.f.g.p.r.6.;.` P U ; X.ZXaXaX",
"aXaXjXM.` yX.XI.V.i.0.2.,.:.:.:.:.:.:.:.:.:.:.:.:.:.:.:.:.:.:.:.:.:.:.:.:.:.-.%.] Q K S G - X.ZXaXaX",
"aXaXjXN.) rXL.z.q.*.( Y I L L L L L L L L L L L L L L L L L L L L L L L L L J G S C M m C % X.ZXaXaX",
"aXaXjXR.E  Xk.8.' H B b c c c c c c c c c c c c c c c c c c c c c c c c c c x l k j h j m # X.ZXaXaX",
"aXaXkXT.Z U.7./ Z g i e q q q q q q q q q q q q q q q q q q q q q q q q q q 9 9 9 q q r f @  .AXaXaX",
"aXaXjX;X2 p 4 1 , * & $ $ $ $ $ $ $ $ $ $ $ $ $ $ $ $ $ $ $ $ $ $ $ $ $ $ $ $ $ $ & & * = X #.AXaXaX",
"aXaXaXfX-XE.#X$X&X=X-X;X;X;X;X;X;X;X;X;X;X;X;X;X;X;X;X;X;X;X;X;X;X;X;X;X;X;X;X;X;X-X-X-X*X*X,XdXaXaX",
"aXaX1XsXhXjXjXjXjXjXjXjXjXjXjXjXjXjXjXjXjXjXjXjXjXjXjXjXjXjXjXjXjXjXjXjXjXjXjXjXjXjXjXjXjXkXgX<XaXaX",
"aXaXaXaXaXaXaXaXaXaXaXaXaXaXaXaXaXaXaXaXaXaXaXaXaXaXaXaXaXaXaXaXaXaXaXaXaXaXaXaXaXaXaXaXaXaXaXaXaXaX",
"aXaXaXaXaXaXaXaXaXaXaXaXaXaXaXaXaXaXaXaXaXaXaXaXaXaXaXaXaXaXaXaXaXaXaXaXaXaXaXaXaXaXaXaXaXaXaXaXaXaX"
};
