/* XPM */
static char *playMouseOver_xpm[] = {
/* columns rows colors chars-per-pixel */
"50 50 166 2 ",
"   c #000002",
".  c #050709",
"X  c #07090B",
"o  c #0B0C0D",
"O  c #0F1011",
"+  c #151515",
"@  c #1A1616",
"#  c #1E1918",
"$  c #221F1D",
"%  c #23201D",
"&  c #28211F",
"*  c #262420",
"=  c #2D2622",
"-  c #2F2925",
";  c #3B322D",
":  c #41352F",
">  c #453F36",
",  c #4B4339",
"<  c #4F3D46",
"1  c #574F44",
"2  c #514F4F",
"3  c #5C5447",
"4  c #4E5B51",
"5  c #525752",
"6  c #525852",
"7  c #644B4C",
"8  c #665E4F",
"9  c #685B4C",
"0  c #7E5450",
"q  c #666455",
"w  c #6C6454",
"e  c #6C6959",
"r  c #726353",
"t  c #7D6D5B",
"y  c #716D5C",
"u  c #6A715F",
"i  c #777260",
"p  c #7D7764",
"a  c #815652",
"s  c #885151",
"d  c #8A5E59",
"f  c #855A55",
"g  c #856756",
"h  c #8E615B",
"j  c #816F5A",
"k  c #8C6C5A",
"l  c #92655E",
"z  c #84725D",
"x  c #88755F",
"c  c #91715E",
"v  c #956760",
"b  c #966861",
"n  c #9A6B64",
"m  c #847561",
"M  c #897560",
"N  c #8E7962",
"B  c #8F7C6B",
"V  c #957561",
"C  c #927D66",
"Z  c #9C7A66",
"A  c #A07169",
"S  c #A8776E",
"D  c #559668",
"F  c #539968",
"G  c #539466",
"H  c #37C46E",
"J  c #38C36C",
"K  c #39C671",
"L  c #3DC974",
"P  c #44CF79",
"I  c #46D17A",
"U  c #4BD47C",
"Y  c #51D97E",
"T  c #968067",
"R  c #96826B",
"E  c #9B856D",
"W  c #988472",
"Q  c #998F78",
"!  c #938A74",
"~  c #A0886E",
"^  c #A3816B",
"/  c #A58C72",
"(  c #AB8C73",
")  c #B38075",
"_  c #BE8A7C",
"`  c #A69077",
"'  c #AB9176",
"]  c #A0947C",
"[  c #AC9479",
"{  c #B1977B",
"}  c #B59A7E",
"|  c #BA937B",
" . c #55DC81",
".. c #57E585",
"X. c #58E786",
"o. c #57EA87",
"O. c #5BE887",
"+. c #58EF89",
"@. c #58F089",
"#. c #54FC8D",
"$. c #59FD8F",
"%. c #9E9085",
"&. c #A29A86",
"*. c #A29C89",
"=. c #B79D80",
"-. c #B99E81",
";. c #B7A185",
":. c #BCA083",
">. c #BBA688",
",. c #A9A290",
"<. c #CF8E86",
"1. c #D49C8B",
"2. c #C1A587",
"3. c #C9A185",
"4. c #C2A688",
"5. c #C7AB8C",
"6. c #CBAD8D",
"7. c #CCB292",
"8. c #D3B493",
"9. c #D6B896",
"0. c #D9B997",
"q. c #D6BE9B",
"w. c #DABA98",
"e. c #E1BF9C",
"r. c #EBBD9D",
"t. c #F4BA9C",
"y. c #DBC29F",
"u. c #E3C19E",
"i. c #DBC2A0",
"p. c #E6C4A0",
"a. c #EBC5A2",
"s. c #EFCBA6",
"d. c #EBCEA9",
"f. c #E4CBA5",
"g. c #F0CCA6",
"h. c #FBCAA7",
"j. c #F2CDA9",
"k. c #F5D1AA",
"l. c #FAD5AE",
"z. c #FDD8AF",
"x. c #F1CEB9",
"c. c #F1CBB4",
"v. c #F5D7B0",
"b. c #FAD6B1",
"n. c #FBD9B4",
"m. c #FBDCBB",
"M. c #F2D1BD",
"N. c #FFE0B6",
"B. c #FFE2B9",
"V. c #FFE9BE",
"C. c #F2D3C2",
"Z. c #FBDFC1",
"A. c #FBE1C4",
"S. c #FFECC1",
"D. c #FCE3C8",
"F. c #FFEDCE",
"G. c #FFF2C5",
"H. c #FFF6C9",
"J. c #FFF8CA",
"K. c #FFEED4",
"L. c #F5E1D2",
"P. c #FFF1D5",
"I. c #FFFFD5",
"U. c #FFF3DA",
"Y. c #FFFFDA",
"T. c #FFFFE7",
/* pixels */
"........................................O.O.........+.O.Y Y @.O.............O.Y o.O.Y o.............",
"................X.X.....................O.Y ........Y +.+.O.Y O.............O.Y o.O.O.O.............",
"........+.+.+.+.+.+.+.o.+.+.+.+.+.O.+.+.o.+.+.+.@.+.+.Y $.Y $.+.o.+.+.+.+.o.+.+.+.+.+.+.+.+.o.......",
"......X.Y I U U I I I  .U U U I U U U U U U U I U U U I Y U U U U U I U U U U U U U U U U U ..X.....",
"....+. .4 2 5 5 6 6 6 6 6 6 6 6 5 5 6 6 6 6 6 6 6 6 6 6 3 6 6 6 5 6 6 6 6 6 5 4 4 5 5 5 6 < F $.....",
"....+.J %.L.C.C.C.C.C.C.C.C.C.C.M.M.C.C.C.C.C.C.C.C.C.M.M.C.C.C.C.M.C.C.C.C.M.M.x.j.h.a.u.<.G #.....",
"....+.J ,.T.K.P.U.K.K.K.K.K.K.K.K.K.K.K.K.K.K.K.P.K.K.K.K.K.P.P.K.K.K.K.K.K.K.F.D.V.m.k.h.1.F #.....",
"....+.H *.U.D.D.D.D.D.D.D.D.D.D.D.D.D.D.D.D.D.D.D.D.D.D.D.D.D.D.D.D.D.D.D.D.A.m.n.z.g.e.w._ F #.....",
"....+.J *.U.D.D.A.A.A.A.A.A.Z.A.A.Z.Z.Z.A.A.Z.A.A.A.A.A.A.A.A.A.Z.A.Z.A.A.Z.m.m.z.k.u.8.5.) F #.....",
"....+.J *.P.A.A.A.A.Z.B.m.m.Z.m.Z.m.Z.m.m.Z.m.m.m.m.m.m.m.m.m.m.m.m.m.Z.m.m.m.b.k.u.8.5.2.S F #.....",
"....+.J *.P.Z.Z.m.m.m.m.m.m.m.m.m.m.m.m.m.m.m.m.m.m.m.m.m.m.m.m.m.m.m.m.m.n.b.k.g.e.6.2.} A F #.....",
"....+.J %.K.Z.m.m.m.m.m.m.b.b.n.b.v.n.n.n.b.n.n.b.n.b.n.v.n.n.n.n.n.n.n.v.b.l.j.u.8.6.} [ n F #.....",
"....@.J %.P.B.Z.m.m.n.n.v.b.b.n.B.A.n.b.b.b.b.b.b.b.b.b.b.b.b.b.b.b.b.b.z.z.l.a.u.8.4.{ ' n F #.....",
"....@.H &.P.m.m.m.n.m.b.b.b.b.S.b.d.S.S.z.l.b.b.b.b.b.b.b.b.b.b.b.b.b.b.l.l.g.a.e.6.2.[ ' l F #.....",
"....+.H &.F.m.m.n.n.b.b.b.b.V.-.$ + 8 j.H.m.l.l.b.l.l.l.l.b.b.l.z.l.l.l.l.k.g.u.w.6.} [ ' l F #.....",
"....+.H &.F.m.m.m.v.b.b.b.m.b.%       $ E V.G.b.l.l.l.l.l.l.l.l.l.l.l.l.k.k.g.u.w.6.2.[ ' l F #.....",
"....+.H &.F.m.m.m.n.b.b.l.B.a.+ X r :     ; >.G.V.z.l.l.l.l.l.l.l.l.l.l.l.k.s.p.w.7.-.[ / l F #.....",
"....+.H &.K.m.m.n.n.n.b.b.B.s.+   a.S.t .     3 i.J.B.l.l.l.l.b.l.l.z.l.k.k.s.p.w.6.-.[ ' v F #.....",
"....+.H &.F.m.m.n.n.b.b.b.B.s.+   5.J.J.q.1     o m b.J.n.l.l.l.l.l.l.l.l.k.s.p.w.6.:.[ ( l F #.....",
"....+.H &.F.m.m.m.b.b.b.l.B.g.+   5.V.b.S.G.;.;     = [ V.G.z.l.l.l.l.l.k.k.s.p.w.6.:.[ ' l F #.....",
"....@.H &.F.m.m.m.m.v.b.l.B.g.+ . 5.V.l.l.b.G.B.R @     , 7.J.V.l.l.l.l.k.k.s.p.w.6.2.' ( v F #.....",
"....+.H &.F.m.m.n.b.b.b.l.B.s.+   5.V.l.l.l.l.m.J.d.w       w d.J.B.l.l.z.k.s.p.w.6.-.[ / v F #.....",
"....+.H &.F.m.m.m.b.b.b.b.m.g.+ . 5.S.l.l.l.l.l.l.V.G.7.,     @ R B.S.l.k.k.s.p.w.6.:.[ ( v F #.....",
"....@.H &.K.m.m.n.m.b.b.b.B.s.+   5.S.l.l.b.l.l.l.l.z.G.V.[ =     ; q.V.k.k.s.p.w.6.:.[ ` l F #.....",
"....+.H &.F.m.m.n.n.b.b.b.m.g.+   5.V.l.l.l.l.l.l.l.l.l.n.J.n.E &   - N.n.k.s.p.w.6.:.[ / v F #.....",
"....@.H &.K.m.m.m.n.b.b.b.B.g.+   5.V.l.l.l.z.l.l.l.l.l.l.n.I.V.,   o g.N.k.g.p.w.6.:.' / v F #.....",
"....+.H &.F.m.m.n.v.b.b.b.B.s.+ . 5.V.z.l.l.l.l.l.l.l.b.G.B.R @     z V.z.k.s.u.w.6.:.[ ' v F #.....",
"....+.H &.F.m.m.m.n.n.b.b.B.s.+   5.V.l.l.l.l.l.l.z.S.G.;.;     & [ V.m.k.k.s.u.w.6.:.[ / v F #.....",
"....@.H &.K.m.m.n.b.n.b.b.B.s.+ . 5.S.l.l.l.l.l.B.J.y.1     o z n.J.b.l.l.j.s.p.w.6.:.[ ` v F #.....",
"....+.H &.F.m.m.m.n.b.b.b.m.g.+   5.V.l.l.k.m.J.v.t X     3 y.J.B.l.l.l.l.k.s.p.w.6.:.[ / v F #.....",
"....@.H &.F.m.m.n.n.b.b.b.B.s.+   5.V.l.z.G.V.` &     ; >.G.S.l.l.l.l.l.l.k.s.p.w.6.:.[ / v F #.....",
"....@.H &.F.m.m.m.n.b.l.z.m.s.+ . 4.V.S.H.5.,     # E V.G.b.l.l.l.l.l.l.l.j.g.p.w.6.:.' / v F #.....",
"....+.H &.F.m.m.m.b.n.b.b.B.s.+   9.Y.f.8       r d.J.B.l.l.l.z.l.l.l.l.l.k.s.u.w.7.:.[ ( l F #.....",
"....+.H &.F.B.m.m.b.b.b.b.m.s.+ . 5.[ +     , 7.J.V.l.l.l.l.l.l.l.l.l.l.k.k.s.u.w.7.:.[ ( l F #.....",
"....+.H &.F.m.m.m.b.n.b.z.B.g.o . %     = { S.G.l.l.l.l.l.l.z.l.l.l.l.z.l.k.g.u.w.6.2.[ ' l F #.....",
"....@.H &.F.m.n.n.b.n.v.z.n.B.9     O M b.J.n.l.l.l.l.l.l.k.l.l.l.l.l.l.l.k.g.u.0.6.} [ ' l F #.....",
"....+.H &.F.m.m.n.z.z.z.l.k.n.z.R t w.G.B.k.k.k.k.k.l.k.k.k.k.k.k.k.l.k.k.g.a.u.0.6.} ' ( l F #.....",
"....@.H &.F.m.m.b.l.l.l.j.s.s.k.V.G.b.g.s.g.g.g.g.g.g.g.g.g.g.k.g.g.g.k.s.s.u.w.8.5.} ' ~ l F #.....",
"....+.H &.D.n.b.k.k.g.u.s.u.p.p.u.p.p.p.u.p.p.p.u.u.u.u.u.u.u.u.u.u.u.u.u.u.w.8.6.2.{ ~ E l F $.....",
"....+.H &.S.l.k.k.p.u.e.y.w.w.w.w.w.w.w.w.w.w.w.w.w.u.w.w.w.y.w.w.w.w.w.w.8.8.5.2.} ' E E l F #.....",
"....+.K &.B.j.a.y.w.8.8.6.5.6.6.5.5.6.5.6.6.5.6.6.6.6.5.6.5.6.5.6.6.6.5.5.5.3.-.} ' ~ E T d F #.....",
"....+.K ] b.p.w.8.5.4.:.-.-.} -.=.=.-.=.-.-.=.=.-.} -.} -.=.-.} -.} -.} } } } [ / E T x C f F #.....",
"....+.L Q h.8.5.:.} [ ' / / / / / / / / / / / / / / / / / / / / / / / / / ~ W E T C x j x a F #.....",
"....+.L W r.4.=.' / E R R C C C C C N C C C N C C C C C C C C C C C C C C C N N x z j j j 0 F $.....",
"....+.L W t.3.=.( ^ Z N c V c c M k b N c V k V x c c c M b x c c c c c M M c k g g g g k s G #.....",
"....+.U u B p i y e q q w q q q q q q q q q q q q q q q q q w q q q q q q 6 q q q q q q w 7 F #.....",
"......O.I L P P I  .I  . .I U  . .I I  .U  . .I U Y U U  .I I  . .U U U  . .L  . . .Y U U Y ..O.....",
"........@.@.@.+.+.o.+.+.+.+.+.+.+.+.+.+.+.o.+.+.+.+.+.+.+.+.+.@.+.+.+.+.@.@.@.@.o.o.@.@.@.@.+.Y ....",
"....................................................................................................",
"...................................................................................................."
};
