/* XPM */
static char *Free_Converter_com_expand_38253334[] = {
/* columns rows colors chars-per-pixel */
"50 50 59 1 ",
"  c #414545",
". c #424646",
"X c #454949",
"o c #484C4C",
"O c #494D4D",
"+ c #4A4E4E",
"@ c #4B4E4E",
"# c #4E5151",
"$ c #4E5252",
"% c #545858",
"& c #575A5A",
"* c #5B5F5F",
"= c #666969",
"- c #6C6F6F",
"; c #707373",
": c #717474",
"> c #727575",
", c #737676",
"< c #747777",
"1 c #767979",
"2 c #7B7E7E",
"3 c #7F8282",
"4 c #838585",
"5 c #858787",
"6 c #868989",
"7 c #8C8F8F",
"8 c #959797",
"9 c #969898",
"0 c #989A9A",
"q c #9D9F9F",
"w c #9EA0A0",
"e c #9FA1A1",
"r c #A1A3A3",
"t c #A3A5A5",
"y c #A6A8A8",
"u c #AAACAC",
"i c #ABADAD",
"p c #ACAEAE",
"a c #BABBBB",
"s c #BBBDBD",
"d c #C0C1C1",
"f c #C1C2C2",
"g c #C2C3C3",
"h c #C6C7C7",
"j c #CCCDCD",
"k c #D1D2D2",
"l c #D5D5D5",
"z c #D8D9D9",
"x c #DADBDB",
"c c #E0E1E1",
"v c #E6E6E6",
"b c #E6E7E7",
"n c #E9E9E9",
"m c gray93",
"M c #EFF0F0",
"N c gray95",
"B c #F8F8F8",
"V c #FBFBFB",
"C c white",
/* pixels */
"CCCCCCCCCCCCCCCCCCCCCCCCCCCCCCCCCCCCCCCCCCCCCCCCCC",
"CCCCCCCCCCCCCCCCCCCCCCCCCCCCCCCCCCCCCCCCCCCCCCCCCC",
"CCCCCCCCCCCCCCCCCCCCCCCCCCCCCCCCCCCCCCCCCCCCCCCCCC",
"CCCCCCCCCCCCCCCCCCCCCCCCCCCCCCCCCCCCCCCCCCCCCCCCCC",
"CCCCCCCCCCCCCCCCCCCCCCCCCCCCCCCCCCCCCCCCCCCCCCCCCC",
"CCCCCCCCCCCCCCCCCCCCCCCCCCCCCCCCCCCCCCCCCCCCCCCCCC",
"CCCCCCCCCCCCCCCCCCCCCCCCCCCCCCCCCCCCCCCCCCCCCCCCCC",
"CCCCCCCCCCCCCCCCCCCCCCCCCCCCCCCCCCCCCCCCCCCCCCCCCC",
"CCCCCCCCCCCCCCCCCCCCCCCCCCCCCCCCCCCCCCCCCCCCCCCCCC",
"CCCCCCCCCCCCCCCCCCCCCCCCj0CCCCCCCCCCCCCCCCCCCCCCCC",
"CCCCCCCCCCCCCCCCCCCCCCCC< kCCCCCCCCCCCCCCCCCCCCCCC",
"CCCCCCCCCCCCCCCCCCCCCCCg  -CCCCCCCCCCCCCCCCCCCCCCC",
"CCCCCCCCCCCCCCCCCCCCCCB*   pCCCCCCCCCCCCCCCCCCCCCC",
"CCCCCCCCCCCCCCCCCCCCCC8    ObCCCCCCCCCCCCCCCCCCCCC",
"CCCCCCCCCCCCCCCCCCCCCl      3CCCCCCCCCCCCCCCCCCCCC",
"CCCCCCCCCCCCCCCCCCCCC:       hCCCCCCCCCCCCCCCCCCCC",
"CCCCCCCCCCCCCCCCCCCC9        @dCCCCCCCCCCCCCCCCCCC",
"CCCCCCCCCCCCCCCCCCCCr7u,  &ew5aCCCCCCCCCCCCCCCCCCC",
"CCCCCCCCCCCCCCCCCCCCCCCp  1CCCCCCCCCCCCCCCCCCCCCCC",
"CCCCCCCCCCCCCCCCCCCCCCCu  ;CCCCCCCCCCCCCCCCCCCCCCC",
"CCCCCCCCCCCCCCCCCCCCCCCu  ;CCCCCCCCCCCCCCCCCCCCCCC",
"CCCCCCCCCCCCCCCCCCCCCCCu  ;CCCCCCCCCCCCCCCCCCCCCCC",
"CCCCCCCCCCCCCCCCCCCCCCCu  ;CCCCCCCCCCCCCCCCCCCCCCC",
"CCCCCCCCCCCCCCCCCCCCCCCu  ;CCCCCCCCCCCCCCCCCCCCCCC",
"CCCCCCCCCCCCCCCCCCCCCCCu  ;CCCCCCCCCCCCCCCCCCCCCCC",
"CCCCCCCCCCCCCCCCCCCCCCCu  ;CCCCCCCCCCCCCCCCCCCCCCC",
"CCCCCCCCCCCCCCCCCCCCCCCu  ;CCCCCCCCCCCCCCCCCCCCCCC",
"CCCCCCCCCCCCCCCCCCCCCCCu  ;CCCCCCCCCCCCCCCCCCCCCCC",
"CCCCCCCCCCCCCCCCCCCCCCCu  ;CCCCCCCCCCCCCCCCCCCCCCC",
"CCCCCCCCCCCCCCCCCCCCCCCu  ;CCCCCCCCCCCCCCCCCCCCCCC",
"CCCCCCCCCCCCCCCCCCCCCCCu  ;CCCCCCCCCCCCCCCCCCCCCCC",
"CCCCCCCCCCCCCCCCCCCCCCCi  >CCCCCCCCCCCCCCCCCCCCCCC",
"CCCCCCCCCCCCCCCCCCCCvMCt  -BBbnCCCCCCCCCCCCCCCCCCC",
"CCCCCCCCCCCCCCCCCCCC2 +X  .o  yCCCCCCCCCCCCCCCCCCC",
"CCCCCCCCCCCCCCCCCCCCz        4BCCCCCCCCCCCCCCCCCCC",
"CCCCCCCCCCCCCCCCCCCCCt      %NCCCCCCCCCCCCCCCCCCCC",
"CCCCCCCCCCCCCCCCCCCCCC=     sCCCCCCCCCCCCCCCCCCCCC",
"CCCCCCCCCCCCCCCCCCCCCCj    1CCCCCCCCCCCCCCCCCCCCCC",
"CCCCCCCCCCCCCCCCCCCCCCC6   xCCCCCCCCCCCCCCCCCCCCCC",
"CCCCCCCCCCCCCCCCCCCCCCCm# qCCCCCCCCCCCCCCCCCCCCCCC",
"CCCCCCCCCCCCCCCCCCCCCCCCt$VCCCCCCCCCCCCCCCCCCCCCCC",
"CCCCCCCCCCCCCCCCCCCCCCCCcfCCCCCCCCCCCCCCCCCCCCCCCC",
"CCCCCCCCCCCCCCCCCCCCCCCCCCCCCCCCCCCCCCCCCCCCCCCCCC",
"CCCCCCCCCCCCCCCCCCCCCCCCCCCCCCCCCCCCCCCCCCCCCCCCCC",
"CCCCCCCCCCCCCCCCCCCCCCCCCCCCCCCCCCCCCCCCCCCCCCCCCC",
"CCCCCCCCCCCCCCCCCCCCCCCCCCCCCCCCCCCCCCCCCCCCCCCCCC",
"CCCCCCCCCCCCCCCCCCCCCCCCCCCCCCCCCCCCCCCCCCCCCCCCCC",
"CCCCCCCCCCCCCCCCCCCCCCCCCCCCCCCCCCCCCCCCCCCCCCCCCC",
"CCCCCCCCCCCCCCCCCCCCCCCCCCCCCCCCCCCCCCCCCCCCCCCCCC",
"CCCCCCCCCCCCCCCCCCCCCCCCCCCCCCCCCCCCCCCCCCCCCCCCCC"
};
