/* XPM */
static char *SFwdMouseOver_xpm[] = {
/* columns rows colors chars-per-pixel */
"50 50 160 2 ",
"   c #000001",
".  c #080708",
"X  c #0D0B0C",
"o  c #110F10",
"O  c #141112",
"+  c #1A1616",
"@  c #1E1A19",
"#  c #241F1C",
"$  c #2A2521",
"%  c #2F2922",
"&  c #41372E",
"*  c #483C33",
"=  c #4E4137",
"-  c #54473B",
";  c #5B4C3F",
":  c #4F3D46",
">  c #594E42",
",  c #514F4F",
"<  c #4E5B51",
"1  c #525752",
"2  c #525852",
"3  c #644B4C",
"4  c #615144",
"5  c #675748",
"6  c #685749",
"7  c #6E5B4C",
"8  c #7E5450",
"9  c #666455",
"0  c #686656",
"q  c #6C6959",
"w  c #716D5C",
"e  c #7E6C58",
"r  c #6A715F",
"t  c #777260",
"y  c #7D7764",
"u  c #815652",
"i  c #885151",
"p  c #855A55",
"a  c #8A5E59",
"s  c #856756",
"d  c #8E615B",
"f  c #816F5A",
"g  c #8C6C5A",
"h  c #92655E",
"j  c #85735D",
"k  c #88755F",
"l  c #91715E",
"z  c #956760",
"x  c #966861",
"c  c #9A6B64",
"v  c #867460",
"b  c #897560",
"n  c #8E7962",
"m  c #8F7C6B",
"M  c #957561",
"N  c #927D66",
"B  c #9C7A66",
"V  c #987E68",
"C  c #A07169",
"Z  c #A8776E",
"A  c #559668",
"S  c #539968",
"D  c #539466",
"F  c #37C46E",
"G  c #38C36C",
"H  c #39C671",
"J  c #3DC974",
"K  c #44CF79",
"L  c #46D17A",
"P  c #4BD47C",
"I  c #51D97E",
"U  c #968067",
"Y  c #968068",
"T  c #9C856D",
"R  c #988472",
"E  c #998F78",
"W  c #938A74",
"Q  c #A3816B",
"!  c #A0886E",
"~  c #A58C72",
"^  c #AB8C73",
"/  c #B38075",
"(  c #BE8A7C",
")  c #AB9176",
"_  c #A0947C",
"`  c #AC9378",
"'  c #B1977B",
"]  c #B49A7E",
"[  c #BA937B",
"{  c #55DC81",
"}  c #57E585",
"|  c #58E786",
" . c #57EA87",
".. c #5BE887",
"X. c #58EF89",
"o. c #58F089",
"O. c #54FC8D",
"+. c #59FD8F",
"@. c #9E9085",
"#. c #A29A86",
"$. c #A29C89",
"%. c #B79D80",
"&. c #B99E81",
"*. c #BCA083",
"=. c #BEA78A",
"-. c #BFA88A",
";. c #A9A290",
":. c #CF8E86",
">. c #D49C8B",
",. c #C1A587",
"<. c #C9A185",
"1. c #C2A688",
"2. c #C5AA8B",
"3. c #CBAD8D",
"4. c #CCB191",
"5. c #D3B494",
"6. c #D9B997",
"7. c #D7BB9A",
"8. c #DABA98",
"9. c #E1BF9C",
"0. c #EBBD9D",
"q. c #F4BA9C",
"w. c #DBC19E",
"e. c #E3C19E",
"r. c #DFC5A1",
"t. c #DFC9A4",
"y. c #E5C4A0",
"u. c #EBC5A2",
"i. c #E2CAA5",
"p. c #EECBA6",
"a. c #E7CEA8",
"s. c #EACEA9",
"d. c #F0CCA6",
"f. c #FBCAA7",
"g. c #F3CEA9",
"h. c #F5D1AA",
"j. c #FAD5AE",
"k. c #F1CEB9",
"l. c #F1CBB4",
"z. c #FAD6B1",
"x. c #F3D9B1",
"c. c #FBD9B5",
"v. c #F2D1BD",
"b. c #FBDCBB",
"n. c #FEE3BA",
"m. c #FFE9BF",
"M. c #F2D3C2",
"N. c #FBDFC1",
"B. c #FBE1C4",
"V. c #FFECC1",
"C. c #FCE3C8",
"Z. c #FFEDCE",
"A. c #FFF2C6",
"S. c #FFF6C9",
"D. c #FFF9CB",
"F. c #F5E1D2",
"G. c #FFEED4",
"H. c #FFF1D5",
"J. c #FFF3DA",
"K. c #FFFFE7",
/* pixels */
"} } } } } } } } } } } } } } } } } } } } } } } } } }  . .I  .} } } } } } } } } } } } } } } } } } } } ",
"} } } } } } } } } } } } } } } } } } } } } } } } } } ..I .. .} } } } } } } } } } } } } } } } } } } } ",
"} } } } X.X.X.X. .X.X.X.X.X.X.X.X...X.X.X.X.X.X.X. . . .X. .X.X.X.X.X.X.X. .X. .X.X.X.X.X.X. .} } } ",
"} } } | I L P P P P P P P P L P P L P P P L P P P P P P P P P P P L P P P P P P P P P P P P } | } } ",
"} } X.{ < , 1 1 2 2 2 2 2 2 2 < 1 1 2 2 2 2 2 2 2 2 2 2 1 1 2 2 2 2 2 2 2 2 2 2 1 1 2 2 2 : S O.} } ",
"} } X.G @.F.M.M.M.M.M.M.M.M.M.M.M.c.M.M.M.M.M.M.M.M.M.M.c.M.M.M.M.M.M.M.M.M.v.v.k.g.f.u.0.:.D O.} } ",
"} } X.G ;.K.G.H.J.G.G.G.G.G.G.G.G.G.G.G.G.G.G.G.G.G.G.G.G.G.G.G.G.G.G.G.G.G.Z.Z.C.n.n.h.g.>.S O.} } ",
"} } X.F $.J.C.C.C.F.C.C.C.C.C.C.C.C.C.B.C.C.C.C.C.C.B.C.C.C.C.B.C.C.C.C.B.B.B.B.c.z.d.e.8.( S O.} } ",
"} } X.G $.J.C.C.B.C.B.B.B.N.B.N.N.N.N.N.N.N.N.N.B.B.N.N.B.B.N.B.B.B.B.B.N.N.b.b.z.g.e.5.3./ S O.} } ",
"} } X.G $.H.B.B.B.n.N.N.b.b.N.b.N.N.N.b.N.b.N.N.b.b.b.b.b.N.b.b.b.b.b.n.b.b.c.z.h.e.6.2.*.Z S O.} } ",
"} } X.G $.H.N.N.N.b.b.b.b.b.b.b.b.c.c.b.b.b.b.c.b.b.b.b.b.b.b.b.b.b.b.c.b.c.z.j.d.9.4.*.] C S O.} } ",
"} } X.G @.G.N.b.b.b.b.c.c.c.c.c.c.c.c.c.c.c.c.c.c.c.c.c.c.c.c.c.c.c.c.c.c.z.j.p.e.6.3.] ' c S O.} } ",
"} } o.G @.H.n.N.b.b.c.c.c.c.z.z.c.c.z.b.n.z.c.z.z.z.z.z.z.z.z.z.z.z.z.z.z.j.h.p.9.5.<.' ) c S O.} } ",
"} } o.F #.H.b.b.c.c.c.c.z.j.z.z.z.h.n.b.c.n.j.z.z.z.z.z.z.z.z.z.z.z.z.z.j.j.d.u.8.4.*.` ) z S O.} } ",
"} } X.F #.Z.b.b.b.c.z.z.z.z.h.j.j.z.z.> % s.A.j.j.z.j.j.j.j.h.z.j.j.j.j.j.h.d.e.8.4.*.` ~ h S O.} } ",
"} } X.F #.Z.b.b.b.z.z.z.j.z.z.j.j.S.V     $ a.A.j.j.j.z.j.j.j.j.j.j.j.j.j.h.d.e.8.4.*.` ) z S O.} } ",
"} } o.F #.Z.b.b.c.c.z.z.z.j.j.j.j.n.t.&     # i.S.h.j.j.j.j.j.j.j.j.j.z.j.h.p.y.8.3.*.` ~ z S O.} } ",
"} } X.F #.G.b.b.c.c.z.z.z.j.j.j.j.j.m.n.*     @ i.S.j.j.j.j.j.j.j.j.j.j.j.g.p.y.8.3.&.` ^ z S O.} } ",
"} } X.G #.Z.b.b.b.c.z.z.z.j.j.z.j.j.h.m.n.=     + 8.D.j.j.j.j.j.j.j.j.j.j.h.p.y.8.3.*.` ~ z S O.} } ",
"} } X.G #.Z.b.b.c.c.z.z.z.j.j.j.j.j.j.h.m.m.-     O 7.D.j.j.j.j.j.j.z.j.j.g.p.y.8.3.*.` ~ x S O.} } ",
"} } X.F #.Z.b.b.b.c.z.z.z.j.j.j.z.j.j.j.j.m.m.;     O 5.D.j.j.j.j.j.j.j.j.h.p.y.8.3.*.` ^ z S O.} } ",
"} } o.F #.Z.b.b.c.c.z.z.z.j.j.z.j.j.j.j.j.h.m.m.4     X 4.D.j.j.j.j.j.j.j.g.p.y.8.3.*.` ~ z S O.} } ",
"} } o.F #.G.b.b.b.c.c.z.z.j.j.z.j.j.j.z.j.j.j.n.A.5     . 2.D.z.j.j.j.j.h.h.p.y.8.4.*.` ) z S O.} } ",
"} } o.F $.S.b.b.c.c.z.z.z.j.j.j.j.z.j.j.j.j.j.j.n.V.7     . =.S.j.j.j.z.j.h.p.y.8.3.&.` ~ z S O.} } ",
"} } X.F #.Z.b.b.c.c.z.z.z.z.j.j.j.j.j.j.j.j.j.j.j.n.D.v .     %.A.j.j.j.j.h.p.y.7.3.*.` ~ x S O.} } ",
"} } X.F #.G.N.c.b.c.z.z.z.j.j.j.j.z.j.j.j.j.j.j.h.n.D.k       %.V.j.j.j.h.h.p.y.8.3.*.` ^ x S O.} } ",
"} } o.F #.Z.b.b.c.c.z.z.z.j.j.j.j.j.j.j.j.j.j.j.n.A.7     . =.A.j.j.j.j.j.h.p.y.8.3.*.` ) z S O.} } ",
"} } o.F #.G.b.b.b.c.z.z.z.j.j.j.j.j.j.j.j.j.j.n.V.5     X 2.D.c.j.j.j.j.j.h.p.e.8.3.*.` ~ z S O.} } ",
"} } X.F #.Z.b.b.c.c.z.z.z.j.j.j.j.j.z.j.j.j.n.V.4     X 4.D.z.j.j.j.j.j.j.h.p.y.8.3.*.` ~ x S O.} } ",
"} } X.G #.Z.b.b.b.c.c.z.z.j.z.j.j.j.j.j.h.m.V.;     O 5.D.z.j.j.j.j.j.z.j.g.p.y.8.3.*.` ~ x S O.} } ",
"} } X.G #.G.b.b.c.c.z.z.z.j.z.j.j.j.j.j.m.m.-     O 7.S.j.j.j.j.j.j.z.j.j.g.p.y.8.3.*.` ~ x S O.} } ",
"} } X.G #.Z.b.b.c.c.z.z.z.j.j.j.j.j.h.V.n.=     + w.S.j.j.j.j.j.j.j.j.j.j.g.p.y.8.4.&.` ~ z S O.} } ",
"} } X.F #.Z.b.b.c.c.c.z.z.j.j.j.j.h.m.n.*     # r.S.j.j.j.j.j.j.j.j.j.j.j.h.d.e.8.3.] ` ^ h A +.} } ",
"} } o.F #.Z.b.b.c.c.z.z.z.j.j.j.j.n.i.&     # y.S.j.j.j.j.j.j.j.j.j.j.j.h.h.d.e.9.3.*.` ^ l S +.} } ",
"} } X.F #.G.b.b.c.c.c.z.z.j.j.j.j.A.U     $ a.S.j.j.j.j.j.j.j.j.j.j.z.j.j.h.d.e.6.3.*.` ) h S O.} } ",
"} } o.F $.S.b.b.b.c.z.z.j.j.j.j.j.n.x.> % s.A.h.j.j.h.j.j.j.j.j.j.j.j.j.j.h.d.e.6.3.*.` ^ h S O.} } ",
"} } o.F #.G.b.c.c.z.j.j.j.h.h.h.h.h.z.z.z.n.g.h.h.h.h.h.h.h.h.h.h.h.h.h.h.g.u.e.5.3.*.) ~ l A +.} } ",
"} } o.F #.C.b.c.z.z.j.h.g.p.d.g.d.g.g.j.j.d.d.d.d.d.d.g.g.g.d.g.d.d.d.g.h.e.e.6.5.2.] ) ! h S O.} } ",
"} } o.F #.C.c.z.z.h.p.p.u.y.y.y.e.e.u.e.e.u.y.e.e.e.u.e.e.e.e.e.e.e.e.e.e.e.8.5.3.*.' ! ! h S O.} } ",
"} } o.F #.V.z.h.p.y.e.e.8.8.8.8.8.8.8.8.8.8.8.8.8.8.8.8.8.8.w.8.w.8.w.8.w.5.5.3.,.] ) ! U h S O.} } ",
"} } X.F #.n.g.u.e.8.5.4.4.3.3.3.3.3.3.2.3.3.3.3.3.3.3.3.3.3.3.2.3.2.3.3.3.2.1.*.] ) ! Y U d S O.} } ",
"} } X.H _ c.y.8.5.2.,.=.] *.] ] %.%.%.%.%.%.%.%.%.%.] %.%.%.&.] &.%.%.] %.] ' ` ~ ! U n n p S O.} } ",
"} }  .J E f.5.2.*.] ` ) ~ ~ ^ ~ ~ ~ ~ ~ ~ ~ ~ ~ ~ ~ ~ ! ~ ~ ~ ~ ~ ~ ~ ~ ~ T R T U N k j k u S O.} } ",
"} }  .K W 0.1.%.` ~ T Y U U N N N N n N N N n N n N N N N N N m N N N N N N n n k k e e j 8 S O.} } ",
"} } o.J R 0.<.[ ^ Q V N l l l l b l l l l l l b l l l l l l l l g l l l g l g g g g s s g i D O.} } ",
"} } X.P r m y t w q q 0 0 0 0 0 9 2 0 9 9 9 0 2 0 9 9 9 9 9 9 9 0 9 0 9 9 9 9 9 9 9 2 9 9 3 S +.} } ",
"} } }  .{ H L J P { { J { P P P { { L { P { { { L { P { { P P P L { P P P { { P P P P { P P } } } } ",
"} } } | o.o.o.X. . . .o. .X.X.X. .o.o.o. . . .o.o.o. . .X.X.X.X.o.X.X.o.X.X.X.X.o.o.X.X.o.o. .} } } ",
"} } } } } } } } } } } } } } } } } } } } } } } } } } } } } } } } } } } } } } } } } } } } } } } } } } ",
"} } } } } } } } } } } } } | } } } } } } } } } } } } } } } } } } } } } } } } } } } } } } } } } } } } "
};
