/* XPM */
static char *SFwdNormal_xpm[] = {
/* columns rows colors chars-per-pixel */
"50 50 153 2 ",
"   c #000001",
".  c #080708",
"X  c #0D0B0C",
"o  c #110F10",
"O  c #141112",
"+  c #1A1616",
"@  c #1E1A19",
"#  c #241F1C",
"$  c #2A2521",
"%  c #2F2922",
"&  c #41372E",
"*  c #483C33",
"=  c #403A38",
"-  c #4E4137",
";  c #54473B",
":  c #55483E",
">  c #5B4C3F",
",  c #664A33",
"<  c #664F3B",
"1  c #69513D",
"2  c #594E42",
"3  c #504F4D",
"4  c #595957",
"5  c #585958",
"6  c #615144",
"7  c #6E5640",
"8  c #675748",
"9  c #685749",
"0  c #6E5B4C",
"q  c #755B45",
"w  c #7D634B",
"e  c #6D655B",
"r  c #7F6750",
"t  c #72695E",
"y  c #7E6C58",
"u  c #746B60",
"i  c #786E62",
"p  c #7E7366",
"a  c #78736B",
"s  c #81654D",
"d  c #846B53",
"f  c #896E55",
"g  c #816F5A",
"h  c #887056",
"j  c #85735D",
"k  c #8B735A",
"l  c #907359",
"z  c #93795E",
"x  c #867460",
"c  c #897560",
"v  c #8E7962",
"b  c #84786A",
"n  c #8D7C6A",
"m  c #927D66",
"M  c #9A7D62",
"N  c #987E68",
"B  c #968067",
"V  c #968068",
"C  c #9C856D",
"Z  c #968471",
"A  c #9A8B7A",
"S  c #9F907E",
"D  c #A68567",
"F  c #A4876A",
"G  c #AD8768",
"H  c #A0886E",
"J  c #A58C72",
"K  c #A88F74",
"L  c #AB9176",
"P  c #AC9378",
"I  c #B19273",
"U  c #BD9776",
"Y  c #B1977B",
"T  c #B49A7E",
"R  c #C09F7D",
"E  c #9C9084",
"W  c #A69582",
"Q  c #AA9986",
"!  c #A99C8C",
"~  c #B79D80",
"^  c #B99E81",
"/  c #AA9E90",
"(  c #94A19F",
")  c #BCA083",
"_  c #BEA78A",
"`  c #BFA88A",
"'  c #B0A496",
"]  c #97A6A5",
"[  c #98A6A5",
"{  c #9AA8A7",
"}  c #99AAA9",
"|  c #C1A587",
" . c #C2A688",
".. c #C5AA8B",
"X. c #CBAD8D",
"o. c #CCB191",
"O. c #D3B494",
"+. c #D9B997",
"@. c #D7BB9A",
"#. c #DABA98",
"$. c #E2B68C",
"%. c #E1BB94",
"&. c #E2BF9B",
"*. c #DBC19E",
"=. c #E3C19E",
"-. c #DFC5A1",
";. c #DFC9A4",
":. c #E5C4A0",
">. c #E9C6A3",
",. c #E2CAA5",
"<. c #EECBA6",
"1. c #E7CEA8",
"2. c #E9CCAA",
"3. c #F0CCA6",
"4. c #F3CFA8",
"5. c #F5D1AA",
"6. c #FAD5AE",
"7. c #E9CEB3",
"8. c #E9D1BB",
"9. c #FAD6B1",
"0. c #F3D9B1",
"q. c #FBD9B5",
"w. c #FBDCBB",
"e. c #FFE1B3",
"r. c #FEE3BA",
"t. c #FFE9BF",
"y. c #B7D9DE",
"u. c #BADCE2",
"i. c #BEE1E7",
"p. c #BFE2E8",
"a. c #EBDEC2",
"s. c #FBDFC1",
"d. c #FBE1C4",
"f. c #FFEBC4",
"g. c #FCE3C8",
"h. c #FFECCA",
"j. c #FFF2C6",
"k. c #FFF6C9",
"l. c #FFF9CB",
"z. c #FFEED4",
"x. c #FFF2D2",
"c. c #FFFEDF",
"v. c #C0E3E8",
"b. c #C6E8ED",
"n. c #CDECED",
"m. c #CEEFF2",
"M. c #CFF0F3",
"N. c #D5F3F4",
"B. c #DEFDFD",
"V. c #E0FFFF",
"C. c #EAFFFF",
"Z. c #F5FFFF",
"A. c #F8FFFF",
/* pixels */
"V.V.V.V.V.V.V.V.V.V.V.V.V.V.V.V.V.V.V.V.V.V.V.V.V.V.V.V.V.V.V.V.B.V.V.V.V.V.V.V.V.V.V.V.V.V.V.V.V.V.",
"V.V.V.V.V.V.V.V.V.V.V.V.V.V.V.V.V.V.V.V.V.V.V.V.V.V.V.V.V.V.V.V.V.V.V.V.V.V.V.V.V.V.V.V.V.V.V.V.V.V.",
"V.V.B.V.C.C.C.C.C.C.C.C.C.C.C.C.C.C.C.C.Z.C.C.C.C.C.C.C.C.C.C.C.C.C.C.C.C.C.C.C.C.C.C.C.C.C.C.V.V.V.",
"V.V.V.V.N.n.n.n.n.n.n.m.n.n.n.n.n.n.n.n.n.n.b.b.b.n.n.n.n.n.n.n.n.n.n.n.n.n.n.n.n.n.m.n.n.m.N.V.V.V.",
"V.V.C.N.5 3 4 4 3 5 5 3 5 5 5 5 4 4 5 5 5 3 5 5 5 5 5 5 4 5 5 5 4 5 5 5 5 4 5 5 5 5 4 4 4 = ] Z.V.V.",
"V.V.C.u.E a.8.8.a.a.a.8.8.8.8.8.8.8.8.a.a.a.8.a.8.7.a.a.7.8.8.8.8.8.8.8.8.8.8.7.7.2.>.=.&.G ( Z.V.V.",
"V.V.C.y.' c.x.z.z.z.z.z.z.z.z.z.z.z.z.z.g.z.z.z.g.z.z.z.z.z.z.z.z.z.z.z.z.z.z.h.g.r.q.6.4.R [ Z.V.V.",
"V.V.C.u./ z.g.g.g.g.g.g.g.g.g.g.s.s.g.g.g.g.s.g.g.g.g.g.g.s.g.s.g.g.g.g.g.s.s.s.w.6.4.&.+.D [ Z.V.V.",
"V.V.C.u./ x.g.g.d.d.d.d.s.d.d.s.s.s.s.s.s.s.s.s.g.s.s.s.s.s.s.s.s.s.s.s.s.s.w.w.9.4.&.O.X.z ] Z.V.V.",
"V.V.C.u./ h.d.d.d.s.s.s.w.w.s.w.s.w.w.w.s.s.w.w.s.s.q.s.s.s.s.s.w.s.s.s.s.w.q.9.5.:.+...| l ] Z.V.V.",
"V.V.C.u.! h.s.d.w.w.w.w.w.w.w.w.w.w.w.w.w.w.w.w.s.s.q.s.q.s.q.s.q.w.q.w.q.q.q.6.3.&.X.| T f ] Z.V.V.",
"V.V.C.y.! h.s.w.w.w.w.w.q.q.q.q.q.q.q.q.q.q.q.q.5.q.q.q.q.q.q.5.q.q.q.q.q.q.6.3.=.O.X.T I d ] Z.V.V.",
"V.V.C.u.! h.w.s.w.w.q.q.q.9.9.9.9.q.9.w.r.9.9.9.9.9.9.9.9.9.9.q.9.9.q.9.9.9.4.<.&.O.| Y K s ] Z.V.V.",
"V.V.C.u.! f.w.w.w.q.q.q.9.9.9.9.9.5.r.w.q.t.9.9.9.9.9.9.9.9.9.9.9.9.9.9.6.5.4.>.&.o.) I K s ] A.V.V.",
"V.V.C.u.! h.w.w.q.q.9.9.9.6.9.6.6.q.0.2 % <.h.6.9.6.9.6.9.9.5.9.6.6.6.6.6.5.3.:.#.o.) P K w ] Z.V.V.",
"V.V.C.u.! f.w.w.w.q.9.9.9.6.6.6.6.j.N     $ 2.g.6.6.9.5.9.5.9.5.6.6.6.6.6.5.3.:.#.o.^ P K w ] Z.V.V.",
"V.V.C.u.! h.w.w.q.q.q.9.9.6.6.6.6.e.,.&     # ,.j.6.6.6.6.6.6.6.6.9.6.6.6.5.<.:.@.X.) P K w ] Z.V.V.",
"V.B.C.u.! f.w.w.q.q.9.9.9.6.6.6.6.6.f.r.*     @ -.j.6.6.6.6.6.6.6.6.6.6.6.5.<.:.#.X.) P K w ] Z.V.V.",
"V.V.C.u.! f.w.w.q.q.9.9.9.6.6.6.6.6.5.t.r.-     + *.k.6.6.6.6.6.9.6.6.6.5.5.<.:.#.X.) P K w ] Z.V.V.",
"V.V.C.u.! f.w.w.w.q.9.9.9.6.6.6.6.6.6.6.t.t.;     O @.k.6.6.9.6.6.6.6.6.6.5.<.=.+.X.) P K w ] Z.V.V.",
"V.V.C.u.! h.w.w.q.q.q.9.9.6.6.6.6.6.6.6.6.t.t.>     O O.k.9.6.6.6.6.9.6.6.5.<.:.#.X.) P K w ] Z.V.V.",
"V.V.C.u.! f.w.w.w.9.9.9.9.6.6.6.6.6.6.6.6.6.t.f.6     X o.l.6.6.6.6.6.6.6.5.<.:.#.X.) P K w ] Z.V.V.",
"V.V.C.u.! f.w.w.q.q.q.9.9.6.6.6.6.6.6.6.6.6.6.r.j.8     X ..l.6.5.6.6.6.6.5.<.:.#.X.) P K w ] Z.V.V.",
"V.V.C.u.! f.w.w.w.q.9.9.9.6.9.6.6.6.6.6.6.6.6.6.r.j.0     . ` j.6.6.6.6.6.4.<.:.#.X.) P J w ] Z.V.V.",
"V.B.C.u.! f.w.w.w.q.9.9.9.6.9.6.6.6.6.6.6.6.6.6.6.q.l.x .     ~ f.6.6.6.6.5.3.:.#.X.) P K w ] Z.V.V.",
"V.V.C.u.! f.w.w.q.q.9.9.9.9.6.6.6.6.6.6.6.6.6.6.6.r.l.j .     Q f.6.9.6.5.5.3.:.#.X.) P K w ] Z.V.V.",
"V.V.C.u.! f.w.w.q.q.q.9.9.6.6.6.6.6.6.6.6.6.6.5.r.j.0     .  .j.6.6.6.6.6.4.<.=.#.X.) L K w ] Z.V.V.",
"V.V.C.u.! h.w.w.w.q.9.9.9.6.6.6.6.6.6.6.6.6.6.t.f.8     X ..l.6.6.6.9.6.6.5.<.=.#.X.) L J w ] Z.V.V.",
"V.V.C.u.! h.w.w.q.q.9.9.6.6.6.6.6.6.6.6.6.6.r.f.6     o o.k.9.6.6.6.6.6.6.5.<.:.#.X.) P K w ] Z.V.V.",
"V.V.C.u.! f.w.w.w.q.9.9.9.6.6.6.6.6.6.6.6.t.t.>     O O.l.9.6.6.6.6.6.6.6.4.<.:.#.X.) P K w ] Z.V.V.",
"V.V.C.u.! h.w.w.q.q.q.9.6.6.6.6.6.6.6.6.t.t.;     O @.k.6.6.6.6.6.9.6.6.5.5.3.:.#.X.) P J w ] Z.V.B.",
"V.V.C.u.! f.w.w.q.q.q.6.q.6.6.6.6.6.6.f.r.-     + *.k.6.6.6.6.6.6.6.6.6.9.4.3.:.#.X.) P K w ] Z.V.V.",
"V.V.C.u.! f.w.w.w.q.q.9.9.6.6.6.6.6.t.e.*     # *.k.6.6.6.6.6.6.6.6.6.6.6.5.>.=.#.X.) P K w ] Z.V.V.",
"V.V.C.u.! f.w.w.q.q.9.9.9.6.6.6.6.r.,.&     # ,.j.6.6.6.6.6.9.6.6.6.6.6.5.5.3.=.#.o.) P K w ] Z.V.V.",
"V.V.C.u.! h.w.q.w.q.9.9.9.6.6.6.6.k.B     $ 1.j.6.6.6.6.6.6.6.6.6.6.9.6.6.5.4.=.#.o.| P J w ] Z.V.V.",
"B.V.C.u.! f.w.w.q.q.9.9.9.6.6.6.6.q.0.> % 1.j.6.6.6.6.6.6.6.6.6.6.5.6.6.6.5.3.=.#.X.U P K w ] Z.V.V.",
"V.V.C.u.! f.w.w.q.9.6.6.6.5.5.5.5.5.q.q.9.r.5.5.5.5.5.5.5.6.6.5.5.5.6.5.5.3.>.=.+.X.^ L J w ] Z.V.V.",
"V.V.C.u.! f.w.q.q.6.6.5.4.<.<.4.3.3.3.6.6.<.<.3.<.3.3.3.3.3.3.4.3.3.3.4.5.=.=.#.O...T K J w ] Z.V.V.",
"V.V.C.u.! f.9.9.9.5.3.>.>.>.:.:.=.>.>.=.>.=.:.:.=.:.>.=.=.>.=.=.=.=.=.=.=.=.#.O.X.) Y J H w ] Z.V.V.",
"V.V.C.u.Q r.6.6.4.=.=.=.#.#.#.@.#.#.#.#.#.#.+.+.#.#.#.#.@.#.#.#.*.#.*.#.+.O.O.X.| T K C C q ] Z.V.B.",
"V.V.C.u.Q e.5.>.=.#.O.O.X.X.X.X.X.X.X.X.X.X.X.X.X.X.X.X.X.X.X.X.X.X.X.X.X... .) T L C V V q ] Z.V.V.",
"V.V.C.u.P 6.=.#.O... .) ) T T ) T T ~ ~ ~ T ~ ~ ~ ~ T ~ ~ ~ T ~ T ^ T T T T Y P J H V v m 7 ] Z.V.V.",
"V.V.C.i.E 3.O...) T Y L J J J J J J J J J J J J J J J J J J J J J J J J J H C V N n k j k 1 ] A.V.V.",
"V.V.C.v.A %...T P H C V B m m m m m m m m m v m m v v m m m m m m m m m m m n v k j g y j < ] Z.V.V.",
"V.V.C.i.Z $.U Y D B z k h k h h h h h h h h h h h h h h h h h h h h h h h h d d r r w w d , ( Z.V.V.",
"V.V.C.m.a n b p p t t e e e e e e e e e e e e e e e e e e e e e e e e e e e e e e e e e e : { Z.V.V.",
"V.V.V.C.m.i.b.b.n.n.m.m.m.m.M.M.m.m.m.m.M.m.m.m.m.m.M.M.m.m.m.m.m.m.M.M.m.m.m.m.M.M.m.m.m.m.B.V.V.V.",
"V.V.B.B.C.C.C.C.C.C.C.C.C.C.C.C.C.C.C.C.C.C.C.C.C.C.C.C.C.C.C.C.C.C.C.C.C.C.C.C.C.C.C.C.C.C.C.B.V.V.",
"V.V.V.V.V.V.V.V.V.V.V.V.V.V.V.V.V.V.V.V.V.V.V.V.V.V.V.V.V.V.V.V.B.V.V.B.V.V.V.V.V.V.V.V.V.V.V.V.V.V.",
"V.V.V.V.V.V.V.V.V.V.V.B.V.V.V.V.V.V.V.V.V.V.V.V.V.V.V.V.V.V.V.V.V.V.V.V.V.V.V.V.V.V.V.V.V.V.V.V.V.V."
};
