/* XPM */
static char *startSegmentDisabled_xpm[] = {
/* columns rows colors chars-per-pixel */
"50 50 248 2 ",
"   c #3F3B3B",
".  c gray31",
"X  c #524E4E",
"o  c #585959",
"O  c #585A5A",
"+  c #5B5E5E",
"@  c #645D5D",
"#  c #6A6565",
"$  c #696B6B",
"%  c #6E6868",
"&  c #6A6C6C",
"*  c #6B6D6D",
"=  c #6D6F6F",
"-  c #706B6B",
";  c #726D6D",
":  c #736E6E",
">  c #746F6F",
",  c #6F7070",
"<  c #767171",
"1  c #737474",
"2  c #737676",
"3  c #7B7676",
"4  c #797979",
"5  c #797B7B",
"6  c #7C7C7C",
"7  c #7F7D7D",
"8  c #7E7E7E",
"9  c #7F7E7E",
"0  c gray50",
"q  c #807E7E",
"w  c #817F7F",
"e  c #837E7E",
"r  c #808080",
"t  c #818181",
"y  c #828181",
"u  c gray51",
"i  c #838383",
"p  c #848484",
"a  c gray52",
"s  c #868585",
"d  c #878585",
"f  c #858686",
"g  c #868686",
"h  c #878686",
"j  c gray53",
"k  c #888787",
"l  c #888888",
"z  c #888989",
"x  c #898989",
"c  c gray54",
"v  c #8A8B8B",
"b  c #8B8B8B",
"n  c #8F8A8A",
"m  c #8B8C8C",
"M  c gray55",
"N  c #8D8E8E",
"B  c #8E8E8E",
"V  c gray56",
"C  c #908F8F",
"Z  c #909090",
"A  c gray57",
"S  c #929292",
"D  c #939292",
"F  c #939393",
"G  c #939494",
"H  c gray58",
"J  c #949595",
"K  c #959595",
"L  c #959696",
"P  c gray59",
"I  c #969797",
"U  c #979797",
"Y  c #9D9595",
"T  c #989898",
"R  c #989999",
"E  c gray60",
"W  c #999A9A",
"Q  c #9A9A9A",
"!  c #9A9B9B",
"~  c #9B9B9B",
"^  c #9D9B9B",
"/  c #9B9C9C",
"(  c #9B9D9D",
")  c gray61",
"_  c #9C9D9D",
"`  c #9D9D9D",
"'  c #9D9E9E",
"]  c #9D9F9F",
"[  c gray62",
"{  c #9E9F9F",
"}  c #9F9F9F",
"|  c #93A2A2",
" . c #94A2A2",
".. c #97A7A7",
"X. c #9EA0A0",
"o. c #9FA0A0",
"O. c #99A8A8",
"+. c #98A9A9",
"@. c #99AAAA",
"#. c #A0A0A0",
"$. c #A1A2A2",
"%. c #A2A2A2",
"&. c gray64",
"*. c #A7A1A1",
"=. c #A3A4A4",
"-. c #A4A4A4",
";. c #A4A5A5",
":. c #A5A5A5",
">. c #A5A6A6",
",. c gray65",
"<. c #A7A7A7",
"1. c #A7A8A8",
"2. c gray66",
"3. c #A8A9A9",
"4. c #A9A9A9",
"5. c #AAAAAA",
"6. c gray67",
"7. c #ACABAB",
"8. c #ADABAB",
"9. c #ACACAC",
"0. c gray68",
"q. c #AEAEAE",
"w. c #AFAFAF",
"e. c gray69",
"r. c #B1B1B1",
"t. c #B2B1B1",
"y. c #B2B2B2",
"u. c gray70",
"i. c #B4B4B4",
"p. c gray71",
"a. c #B5B6B6",
"s. c #B6B6B6",
"d. c #B6B7B7",
"f. c #B7B7B7",
"g. c #B8B7B7",
"h. c gray72",
"j. c #B9B9B9",
"k. c gray73",
"l. c #BBBBBB",
"z. c #BCBCBC",
"x. c gray74",
"c. c gray",
"v. c gray75",
"b. c #BFC0C0",
"n. c #BBD8D8",
"m. c #BDDBDB",
"M. c #BEDBDB",
"N. c #BEDCDC",
"B. c #BFDCDC",
"V. c #C0C0C0",
"C. c #C1C1C1",
"Z. c gray76",
"A. c #C3C3C3",
"S. c #C5C5C5",
"D. c #C6C6C6",
"F. c gray78",
"G. c #C8C8C8",
"H. c #C8C9C9",
"J. c #CACACA",
"K. c #CBCBCB",
"L. c gray80",
"P. c #CDCDCD",
"I. c #CECECE",
"U. c gray81",
"Y. c #D0CCCC",
"T. c #D0CECE",
"R. c #C0DDDD",
"E. c #C0DEDE",
"W. c #C2DFDF",
"Q. c #D0D0D0",
"!. c #D0D1D1",
"~. c gray82",
"^. c #D3D1D1",
"/. c #D2D2D2",
"(. c LightGray",
"). c gray83",
"_. c #D5D5D5",
"`. c #D6D4D4",
"'. c gray84",
"]. c #D7D7D7",
"[. c #D8D6D6",
"{. c #D9D7D7",
"}. c #D8D8D8",
"|. c gray85",
" X c #DBD9D9",
".X c #DADADA",
"XX c gray86",
"oX c gainsboro",
"OX c #DDDDDD",
"+X c gray87",
"@X c #DFDFDF",
"#X c #C9E6E6",
"$X c #CBE9E9",
"%X c #CCE9E9",
"&X c #CDEAEA",
"*X c #CEEBEB",
"=X c #CEECEC",
"-X c #CFECEC",
";X c #CFEDED",
":X c #D4F1F1",
">X c #D7F5F5",
",X c #DCFAFA",
"<X c #DEFFFF",
"1X c #DFFFFF",
"2X c gray88",
"3X c #E1E1E1",
"4X c #E2E2E2",
"5X c gray89",
"6X c #E4E4E4",
"7X c gray90",
"8X c #E6E6E6",
"9X c #E7E7E7",
"0X c #E8E4E4",
"qX c gray91",
"wX c #E9E9E9",
"eX c #EAE8E8",
"rX c #EAEAEA",
"tX c gray92",
"yX c #ECECEC",
"uX c #EFEDED",
"iX c #EFEFEF",
"pX c #F1EFEF",
"aX c LightCyan",
"sX c #E1FFFF",
"dX c #E2FFFF",
"fX c #E3FFFF",
"gX c #E5FFFF",
"hX c #E9FFFF",
"jX c #EAFFFF",
"kX c #EBFFFF",
"lX c gray94",
"zX c gray95",
"xX c #F3F3F3",
"cX c #F4F2F2",
"vX c #F5F3F3",
"bX c #F4F4F4",
"nX c gray96",
"mX c #F6F4F4",
"MX c #F7F5F5",
"NX c #F9F7F7",
"BX c #F2FFFF",
"VX c #F3FFFF",
"CX c #F4FFFF",
"ZX c #F5FFFF",
"AX c #F6FFFF",
"SX c #F7FFFF",
"DX c #F8FFFF",
"FX c white",
/* pixels */
"aXaXaXaXaXaXaXaXaXaXaXaXaXaXaXaXaXaXaXaXaXaXaXaXaXaXaXaXaXaXaXaXaXaXaXaXaXaXaXaXaXaXaXaXaXaXaXaXaXaX",
"aXaXaXaXaXaXaXaXaXaXaXaXaXaXaXaXaXaXaXaXaXaXaXaXaXaXaXaXaXaXaXaXaXaXaXaXaXaXaXaXaXaXaXaXaXaXaXaXaXaX",
"aXaX1XsXhXjXjXjXjXjXjXjXjXjXjXjXjXjXjXjXjXjXjXjXjXjXjXjXjXjXjXjXjXjXjXjXjXjXjXjXjXjXjXjXjXkXgX<XaXaX",
"aXaXaXsX:X%X*X*X*X*X*X*X*X*X*X*X*X*X*X*X*X*X*X*X*X*X*X*X*X*X*X*X*X*X*X*X*X*X*X*X=X=X=X-X=X-X,XdXaXaX",
"aXaXjX>X+ . o o o o o o o o o o o o o o o o o o o o o o o o o o o o o o o o o o o o o o O   +.DXaXaX",
"aXaXkXM.D 0X{.{.{.{.{.{.{.{.{.{.{.{.{.{.{.{.{.{.{.{.{.{.{.{.{.{.{.{.{.{.{.{.{.{.[.`.^.T.^.Y  .CXaXaX",
"aXaXjXn.>.FXxXbXbXnXnXbXbXbXbXbXbXbXbXbXbXbXbXbXbXbXbXbXbXbXbXbXbXbXbXbXbXbXbXxXzXiXtX9X3X*.O.BXaXaX",
"aXaXjXm.o.NXqXqXqXwXwXqXqXqXqXqXqXqXqXqXqXqXqXqXqXqXqXqXqXqXqXqXqXqXqXqXqXqXqX9X6X3XOX!.S.n ..VXaXaX",
"aXaXjXm.X.MX8X9X9X8X8X8X7X7X7X7X7X7X7X7X7X7X7X7X7X7X7X7X7X7X7X7XwXtXrXtXrX8X6X5X2XOX~.b.p.e ..ZXaXaX",
"aXaXjXm.X.mX7X6X7X6X4X4X4X4X4X4X4X4X4X4X4X4X4X4X4X4X4X4X4X3X4XtX5XoXOXOX3XtX5X+XoX(.Z.y.4.3 ..ZXaXaX",
"aXaXjXM.{ vX6X5X4X3X@X@X@X+X+X+X+X+X+X+X+X+X+X+X+X+X+X+X+X+X8XD.U A F S H V.7XOX_.D.s.2.$.< ..ZXaXaX",
"aXaXjXM.{ vX5X4X3X@X+XoXoXoXXXXXXXXXXXXXXXXXXXXXXXXXXXXXXX4X~.M p i r u a g G.2XP.v.e.%._ > ..AXaXaX",
"aXaXjXM.{ vX5X4X2X+XOXXX.X.X.X.X.X.X.X.X.X.X.X.X.X.X.X.X.X7Xk.i A p.v.h.K r y.+XF.k.6.} ~ : ..AXaXaX",
"aXaXjXM.{ vX5X4X2XOXXX.X|.|.|.|.|.|.|.|.|.|.|.|.|.|.|.|.|.6Xk.u S oXlX4XQ 0 y.XXS.h.5.[ Q : ..AXaXaX",
"aXaXjXM.{ vX5X4X2X+XXX.X|.|.|.|.|.|.|.|.|.|.|.|.|.|.|.|.|.6Xl.i S (.7X|.E r u.XXS.h.5.[ Q : ..AXaXaX",
"aXaXjXM.{ vX5X4X2X+XXX.X|.|.|.|.|.|.|.|.|.|.|.|.|.|.|.|.|.6Xk.u S _.wXoXQ 0 y.XXS.h.5.[ Q : ..AXaXaX",
"aXaXjXM.{ vX5X4X2X+XXX.X|.|.|.|.|.|.|.|.|.|.|.|.|.|.|.|.|.6Xx.i Z -.5.,.F t y.XXS.h.5.[ Q : ..AXaXaX",
"aXaXjXM.{ vX5X4X2X+XXX.X|.|.|.|.|.|.|.|.|.|.|.|.|.|.|.}.XXrX+XU r r 8 r r A P._.S.h.5.[ Q : ..AXaXaX",
"aXaXjXM.{ vX5X4X2X+XXX.X|.|.|.|.|.|.|.|.|.|.|.|.|.|.}.@XoXs.P.'.6.-.,.:.2.P.OXI.S.h.5.[ Q : ..AXaXaX",
"aXaXjXM.{ vX5X4X2X+XXX.X|.|.|.|.|.|.|.|.|.|.|.|.|.}.+X5X5.4 B 2X9X+X+X+X4X3X).U.S.h.5.[ Q : ..AXaXaX",
"aXaXjXM.{ vX5X4X2X+XXX.X|.|.|.|.|.|.|.|.|.|.|.|.|.oX8Xr.i t ,.+XoXXXXXXX.X|._.U.S.h.5.[ Q : ..AXaXaX",
"aXaXjXM.{ vX5X4X2X+XXX.X|.|.|.|.|.|.|.|.|.|.|.|..X8Xl.a u ) oX+X|.|.|.|.|.|._.U.S.h.5.[ Q : ..AXaXaX",
"aXaXjXM.{ vX5X4X2X+XXX.X|.|.|.|.|.|.|.|.|.|.|.|.9XA.l t K }.5X}.|.|.|.|.|.|._.U.S.h.5.[ Q : ..AXaXaX",
"aXaXjXM.{ vX5X4X2X+XXX.X|.|.|.|.|.|.|.|.|.|.}.8XL.b u V ~.7X}.|.|.|.|.|.|.|._.U.S.h.5.[ Q : ..AXaXaX",
"aXaXjXM.{ vX5X4X2X+XXX.X|.|.|.|.|.|.|.|.|.}.6X(.A u c J.8X|.|.|.|.|.|.|.|.|._.U.S.h.5.[ Q : ..AXaXaX",
"aXaXjXM.{ vX5X4X2X+XXX.X|.|.|.|.|.|.|.|.}.4X.XU t j C.9X|.|.|.|.|.|.|.|.|.|._.U.S.h.5.[ Q : ..AXaXaX",
"aXaXjXM.{ vX5X4X2X+XXX.X|.|.|.|.|.|.|.}.2X@X[ u a h.8XXX|.|.|.|.|.|.|.|.|.|._.U.S.h.5.[ Q : ..AXaXaX",
"aXaXjXM.{ vX5X4X2X+XXX.X|.|.|.|.|.|.}.+X4X,.u i w.7XoX}.|.|.|.|.|.|.|.|.|.|._.U.S.h.5.[ Q : ..AXaXaX",
"aXaXjXM.{ vX5X4X2X+XXX.X|.|.|.|.|.}.oX7Xw.i i :.5X+X}.|.|.|.|.|.|.|.|.|.|.|._.U.S.h.5.[ Q : ..AXaXaX",
"aXaXjXM.{ vX5X4X2X+XXX.X|.|.|.|.|..X3Xf.a u ` +X2X}.|.|.|.|.|.|.|.|.|.|.|.|._.U.S.h.5.[ Q : ..AXaXaX",
"aXaXjXM.{ vX5X4X2X+XXX|..X2X3X3X4X8X(.g 6 U |.4X}.|.|.|.|.|.|.|.|.|.|.|.|.|._.U.S.h.5.[ Q : ..AXaXaX",
"aXaXjXM.{ vX5X4X2X+X.X+X2XL.S.F.S.~.2X:.K /.6X}.|.|.|.|.|.|.|.|.|.|.|.|.|.|._.U.S.h.5.[ Q : ..AXaXaX",
"aXaXjXM.{ vX5X4X2X+XOX@Xw.c c c c b h.4XoX@X}.|.|.|.|.|.|.|.|.|.|.|.|.|.|.|._.U.S.h.5.[ Q : ..AXaXaX",
"aXaXjXM.{ vX5X4X2X+X8Xv.i b b b b x j K.7X|.|.|.|.|.|.|.|.|.|.|.|.|.|.|.|.|._.U.S.h.5.[ Q : ..AXaXaX",
"aXaXjXM.{ vX5X4X2X+XwXy.0 U S.U.V.A i j.7X|.|.|.|.|.|.|.|.|.|.|.|.|.|.|.|.|._.U.S.h.5.[ Q : ..AXaXaX",
"aXaXjXM.{ vX5X4X2X+XqXp.8 Q @XyX|.S u l.6X|.|.|.|.|.|.|.|.|.|.|.|.|.|.|.|.|._.U.S.h.5.[ Q : ..AXaXaX",
"aXaXjXM.{ vX5X3X2X+XqXp.0 Q XX9X).S i l.6X|.|.|.|.|.|.|.|.|.|.|.|.|.|.|.|.|.'.U.S.h.5.[ Q : ..AXaXaX",
"aXaXjXM.{ vX5X2X@XOXqXi.8 T (.OXL.S i h.4X].].].].].].].].].].].].].].].].].(.P.A.d.3.` ! : ..AXaXaX",
"aXaXjXM.] cX4X2X+XoX5Xs.i Z U T P V l z.|.~.~.~.~.~.~.~.~.~.~.~.~.~.~.~.~.Q.P.F.c.u.,._ W : ..AXaXaX",
"aXaXjXM.] cX3X+XoX'./.G.~ l g g j l #.G.H.D.D.D.D.D.D.D.D.D.D.D.D.D.D.D.D.D.A.c.f.0.%.Q T ; ..AXaXaX",
"aXaXjXN.' pX+XoX/.F.v.V.j.:.%.-.%.<.k.l.f.g.g.g.g.g.g.g.g.g.g.g.g.g.g.g.g.h.a.t.7.;._ L I ; ..AXaXaX",
"aXaXjXN._ uX.XU.C.p.0.1.4.0.0.0.0.9.<.:.:.:.:.:.:.:.:.:.:.:.:.:.:.:.:.:.:.:.=.$.' W J A F - ..AXaXaX",
"aXaXjXB.( eXP.z.q.&./ U P K K K K K K K K K K K K K K K K K K K K K K K K K H F A V M m V % ..AXaXaX",
"aXaXjXE.R  Xl.9.` G N v x x x x x x x x x x x x x x x x x x x x x x x x x x z k h g f g m # ..AXaXaX",
"aXaXkXR.C Y.8.^ C d y q 9 9 9 9 9 9 9 9 9 9 9 9 9 9 9 9 9 9 9 9 9 9 9 9 9 9 7 7 7 9 9 w s @ | SXaXaX",
"aXaXjX;X2 u 5 1 , * & $ $ $ $ $ $ $ $ $ $ $ $ $ $ $ $ $ $ $ $ $ $ $ $ $ $ $ $ $ $ & & * = X @.SXaXaX",
"aXaXaXfX-XW.#X$X&X=X-X;X;X;X;X;X;X;X;X;X;X;X;X;X;X;X;X;X;X;X;X;X;X;X;X;X;X;X;X;X;X-X-X-X*X*X,XdXaXaX",
"aXaX1XsXhXjXjXjXjXjXjXjXjXjXjXjXjXjXjXjXjXjXjXjXjXjXjXjXjXjXjXjXjXjXjXjXjXjXjXjXjXjXjXjXjXkXgX<XaXaX",
"aXaXaXaXaXaXaXaXaXaXaXaXaXaXaXaXaXaXaXaXaXaXaXaXaXaXaXaXaXaXaXaXaXaXaXaXaXaXaXaXaXaXaXaXaXaXaXaXaXaX",
"aXaXaXaXaXaXaXaXaXaXaXaXaXaXaXaXaXaXaXaXaXaXaXaXaXaXaXaXaXaXaXaXaXaXaXaXaXaXaXaXaXaXaXaXaXaXaXaXaXaX"
};
