/* XPM */
static char *startSegmentMouseOver_xpm[] = {
/* columns rows colors chars-per-pixel */
"50 50 168 2 ",
"   c #000002",
".  c #02030A",
"X  c #08080E",
"o  c #0D0D12",
"O  c #120F13",
"+  c #121115",
"@  c #1E191C",
"#  c #221D1F",
"$  c #221F20",
"%  c #252121",
"&  c #2B2525",
"*  c #2F2A29",
"=  c #342D2B",
"-  c #37312E",
";  c #3B3430",
":  c #453B36",
">  c #4B3E39",
",  c #4C403A",
"<  c #4F3D46",
"1  c #544940",
"2  c #5C4F46",
"3  c #514F4F",
"4  c #5C5147",
"5  c #4E5B51",
"6  c #525752",
"7  c #525852",
"8  c #644B4C",
"9  c #635449",
"0  c #695A4E",
"q  c #6E5F52",
"w  c #7E5450",
"e  c #666455",
"r  c #686656",
"t  c #6C6959",
"y  c #726254",
"u  c #7C6A5A",
"i  c #716D5C",
"p  c #6A715F",
"a  c #777260",
"s  c #7D7764",
"d  c #885151",
"f  c #855A55",
"g  c #856756",
"h  c #816E5A",
"j  c #8C6C5A",
"k  c #8E615B",
"l  c #92655E",
"z  c #84725E",
"x  c #88755F",
"c  c #91715E",
"v  c #956760",
"b  c #966861",
"n  c #9A6B64",
"m  c #867261",
"M  c #897562",
"N  c #8E7964",
"B  c #8F7C6B",
"V  c #957561",
"C  c #927D66",
"Z  c #967F6A",
"A  c #9C7A66",
"S  c #A07169",
"D  c #A8776E",
"F  c #559668",
"G  c #539968",
"H  c #539466",
"J  c #37C46E",
"K  c #38C36C",
"L  c #39C671",
"P  c #3DC974",
"I  c #44CF79",
"U  c #4BD47C",
"Y  c #46D17A",
"T  c #51D97E",
"R  c #968067",
"E  c #95816A",
"W  c #9B846D",
"Q  c #9D8671",
"!  c #998F78",
"~  c #938A74",
"^  c #9F937D",
"/  c #A0886E",
"(  c #A3816B",
")  c #A08772",
"_  c #A58C72",
"`  c #AB8C73",
"'  c #B98579",
"]  c #AB9176",
"[  c #A3927B",
"{  c #AC9378",
"}  c #B1977C",
"|  c #B59A7E",
" . c #BA937B",
".. c #55DC81",
"X. c #57E585",
"o. c #58E786",
"O. c #57EA87",
"+. c #5BE887",
"@. c #58EF89",
"#. c #58F089",
"$. c #54FC8D",
"%. c #59FD8F",
"&. c #9E9085",
"*. c #A29A86",
"=. c #A29C89",
"-. c #B79D80",
";. c #BA9F82",
":. c #BDA183",
">. c #B8A08A",
",. c #A9A290",
"<. c #CF8E86",
"1. c #D49C8B",
"2. c #C1A587",
"3. c #C2A689",
"4. c #C6A98A",
"5. c #CBAD8D",
"6. c #C9A185",
"7. c #C8AE90",
"8. c #CEB293",
"9. c #D3B493",
"0. c #D7B895",
"q. c #D8B996",
"w. c #DABA98",
"e. c #D0BB9A",
"r. c #E1BF9C",
"t. c #EBBD9D",
"y. c #F4BA9C",
"u. c #DEC29F",
"i. c #E3C19E",
"p. c #DFC2A0",
"a. c #E5C4A0",
"s. c #EBC5A3",
"d. c #E3CDA7",
"f. c #EECBA6",
"g. c #F0CCA6",
"h. c #FBCAA7",
"j. c #F2CDA9",
"k. c #EFD3AC",
"l. c #F5D1AB",
"z. c #FAD5AE",
"x. c #F1CEB9",
"c. c #F1CBB4",
"v. c #EDD0B3",
"b. c #F2D5B3",
"n. c #FAD6B1",
"m. c #F7DDB4",
"M. c #FBD9B5",
"N. c #FBDCBB",
"B. c #F2D1BD",
"V. c #FFE2B7",
"C. c #FFE3BA",
"Z. c #FFE9BE",
"A. c #F2D3C2",
"S. c #FBDFC1",
"D. c #FBE1C4",
"F. c #FFECC1",
"G. c #FCE3C8",
"H. c #FFEDCD",
"J. c #FFF2C5",
"K. c #FFF5CA",
"L. c #FFFACC",
"P. c #FFEED4",
"I. c #F5E1D2",
"U. c #FFF1D5",
"Y. c #FFFFD1",
"T. c #FFF3DA",
"R. c #FFFFDF",
"E. c #FFFFE7",
/* pixels */
"X.X.X.X.X.X.X.X.X.X.X.X.X.X.X.X.X.X.X.X.X.X.X.X.X.X.T @.+.+.+.T X.X.X.X.X.X.O.T +.+.T O.X.X.X.X.X.X.",
"X.X.X.X.X.X.X.X.X.X.X.X.X.X.X.X.X.X.X.X.X.X.X.X.X.X.+.T T @.O.+.X.X.X.X.X.X.+.T +.O.+.O.X.X.X.X.X.X.",
"X.X.X.X.@.@.@.@.O.@.@.@.@.@.@.@.@.+.@.@.@.@.@.@.@.O.O.@.@.@.#.#.O.#.@.@.#.O.@.O.@.@.@.@.@.@.O.X.X.X.",
"X.X.X.o.T Y U U U U U U U U Y U U Y U U U U Y U U U U U U U U U U U Y U U U U U U U U U U U X.+.X.X.",
"X.X.@...5 3 6 6 7 7 7 7 7 7 7 7 6 6 7 7 7 7 6 7 7 7 7 7 6 6 6 6 6 7 7 7 7 6 7 6 6 6 6 6 6 < G $.X.X.",
"X.X.@.K &.I.A.A.A.A.A.A.A.A.A.A.A.b.A.A.A.A.A.A.A.A.A.B.b.A.A.A.A.B.A.A.A.A.A.x.x.j.h.s.t.<.F $.X.X.",
"X.X.@.K ,.E.P.U.T.P.P.P.P.P.P.P.P.P.P.P.P.P.P.P.P.P.P.P.P.P.U.P.P.P.P.P.P.P.P.H.F.C.N.z.j.1.G $.X.X.",
"X.X.@.J =.T.G.G.G.I.G.G.G.G.G.G.G.G.G.G.G.G.G.G.G.G.G.G.G.G.G.G.G.G.G.G.G.G.S.S.N.z.g.r.q.' G %.X.X.",
"X.X.@.K =.T.G.G.G.G.D.D.S.S.S.S.S.S.S.S.D.D.S.S.D.D.S.S.D.S.S.D.H.H.H.H.G.D.N.M.M.l.i.9.4.' G $.X.X.",
"X.X.@.K *.U.D.D.D.N.S.C.N.N.S.N.S.N.S.S.N.N.N.N.N.N.N.N.S.N.N.U.D.v.b.v.N.K.N.n.l.i.0.4.2.D G $.X.X.",
"X.X.@.K =.U.S.S.N.S.N.N.N.N.N.N.N.N.m.N.N.N.N.N.N.N.M.N.N.N.K.;.= % & % & [ F.z.f.r.9.:.| S G $.X.X.",
"X.X.@.K &.P.S.N.N.N.N.m.N.M.n.M.M.n.M.M.M.M.M.M.M.M.M.M.M.H.e.+         . . 2.V.i.0.4.| { n G $.X.X.",
"X.X.#.K &.U.S.N.N.N.N.M.M.n.n.n.n.n.n.n.n.n.M.n.n.n.n.n.n.K.Q   % N ^ E *   z Z.r.9.2.{ ] l G $.X.X.",
"X.X.#.J *.U.N.N.N.M.b.M.n.n.n.n.n.n.n.n.n.n.n.n.n.n.n.n.n.J.Q   % V.R.J.;   M C.r.5.2.{ ] l G %.X.X.",
"X.X.@.J *.H.N.N.M.M.n.n.n.n.z.z.z.z.n.z.z.z.z.z.z.n.z.z.z.J.) . % i.J.M.;   M V.w.5.:.{ ] l G $.X.X.",
"X.X.@.J *.H.C.N.N.n.n.n.n.z.z.z.z.n.z.z.z.z.z.z.z.z.z.z.z.J.Q   % j.L.M.;   z V.w.9.| { ] l G $.X.X.",
"X.X.@.J *.H.N.N.N.M.M.n.n.z.z.z.z.z.z.z.z.z.z.z.z.z.z.z.z.J.`   # 4 q 9 %   M V.w.5.:.{ ] l H $.X.X.",
"X.X.@.J *.H.N.N.M.M.n.n.n.z.z.z.z.z.z.z.z.z.z.z.z.z.z.z.M.L.C.=           $ 9.z.q.5.:.{ ] l G $.X.X.",
"X.X.@.J *.P.N.N.N.n.n.n.n.z.z.z.z.n.z.z.z.z.z.z.z.z.z.V.M.Z e.d.q 4 9 9 0 9.V.i.w.5.:.{ _ l G $.X.X.",
"X.X.@.J *.H.N.N.N.M.n.n.n.z.z.z.z.z.z.z.z.z.z.z.z.z.M.J.y   @ C.L.V.V.V.Z.V.f.i.w.5.:.{ ] b G $.X.X.",
"X.X.#.J *.H.N.N.M.n.M.b.n.z.z.z.z.z.z.z.z.z.z.z.z.M.J.m     9 V.M.M.M.M.M.l.j.a.w.5.:.] _ b G $.X.X.",
"X.X.@.J *.P.N.N.M.M.n.n.n.z.z.z.z.z.n.z.z.z.z.z.M.K.)     : m.V.z.z.z.z.z.l.f.i.w.5.:.{ _ b G $.X.X.",
"X.X.@.J *.G.N.N.N.M.M.n.n.z.z.z.z.z.z.z.z.z.z.z.K.| X   * k.F.z.z.z.z.z.z.l.f.i.w.5.:.{ _ l G $.X.X.",
"X.X.@.J *.P.N.N.M.M.n.n.n.z.z.z.z.z.z.z.z.z.z.K.0.+   # u.J.z.z.z.z.z.z.z.g.j.i.w.5.:.{ ] l G $.X.X.",
"X.X.@.J *.H.N.N.N.n.M.n.n.z.z.z.z.z.z.z.z.z.F.d.%   + 5.J.z.z.z.n.z.z.z.z.l.j.i.q.5.:.{ _ b G $.X.X.",
"X.X.@.J *.P.N.N.M.M.n.n.n.z.z.z.z.z.z.z.z.F.b.=   X } K.n.z.z.z.z.z.z.z.z.l.j.i.w.5.:.{ _ b G $.X.X.",
"X.X.#.J *.H.N.N.M.M.n.n.n.z.z.z.z.z.z.l.V.V.>     W K.M.z.z.n.z.z.z.z.z.z.l.f.i.w.5.:.{ ] l G $.X.X.",
"X.X.@.J *.H.N.N.N.M.M.n.n.z.z.z.z.z.z.V.F.0   . u J.M.z.z.z.z.z.z.z.z.z.z.j.f.i.w.5.:.{ _ b G $.X.X.",
"X.X.#.J *.H.N.N.M.M.b.n.n.z.z.z.n.z.M.J.h     9 Z.V.l.z.z.z.z.z.z.z.z.z.z.j.j.a.w.5.:.{ _ b G $.X.X.",
"X.X.@.J *.H.N.N.N.M.n.n.n.z.z.z.z.M.Z.R     > C.Z.z.z.z.z.z.z.n.z.z.z.z.z.l.f.a.w.5.:.{ _ b G $.X.X.",
"X.X.#.J *.H.N.N.M.M.n.n.M.Z.F.Z.Z.J.s.X   - k.Z.z.z.z.z.z.z.z.z.z.z.z.z.z.l.f.i.q.5.:.{ ` b G $.X.X.",
"X.X.#.J *.P.N.N.N.M.n.V.C.9.2.4.:.u.Z.4 = i.J.l.z.z.M.z.z.z.z.z.z.z.z.z.z.j.j.a.w.5.:.{ _ v G $.X.X.",
"X.X.#.J *.H.N.N.N.M.M.C.u o o o o + E J.M.Z.z.z.z.z.z.z.z.z.z.z.z.z.z.z.l.l.g.i.w.5.| { ] l G %.X.X.",
"X.X.@.J *.H.N.N.M.M.H.{   + + O + X X 5.J.z.z.z.z.z.z.z.z.z.z.z.z.z.z.z.z.l.g.i.w.5.2.{ ` l G $.X.X.",
"X.X.@.J *.H.N.N.N.M.L.m   - 2.e.} %   Q J.z.z.z.z.z.z.z.z.z.z.z.z.z.z.z.z.l.l.i.w.5.2.{ ] l G $.X.X.",
"X.X.@.J *.H.N.N.M.M.L.N   ; C.Y.n.%   ) J.z.z.l.z.z.z.z.z.z.z.z.z.z.z.z.z.l.g.i.w.5.| { ] l G $.X.X.",
"X.X.@.J *.H.N.M.M.M.K.B   ; z.J.i.%   Q Z.l.z.z.l.l.l.l.l.z.l.l.l.l.l.z.l.g.i.i.0.5.| { ` l G $.X.X.",
"X.X.@.J *.H.M.M.M.z.J.m   - i.V.9.% . R Z.f.f.j.g.g.g.l.g.g.g.g.g.g.g.g.l.i.i.w.9.5.| ] / l G $.X.X.",
"X.X.#.J *.G.M.M.z.j.Z.N   $ = ; - @ . / M.i.i.i.i.i.i.i.i.i.i.i.i.i.i.i.i.i.w.9.4.2.} / / l G %.X.X.",
"X.X.@.J *.F.M.l.j.a.f.w.:         X , i.i.u.w.w.w.w.w.w.w.w.i.q.u.q.r.q.q.0.9.5.2.| ] W W k G $.X.X.",
"X.X.@.L *.C.j.s.i.q.9.i.4.u y y y z 5.q.4.5.5.5.5.5.5.5.5.5.5.5.5.5.5.5.5.4.:.:.| ] / R R g H $.X.X.",
"X.o.@.L [ M.a.w.9.4.2.:.4.9.0.0.0.9.2.| | -.| :.| | :.| -.-.-.| | | | :.-.| | ] ] W R x R f G $.X.X.",
"X.X.@.L ! h.9.4.:.| { ] _ _ _ / / _ _ _ _ _ _ / _ _ / _ _ ) ) _ _ _ _ / ) ) W W R C x z z w H %.X.X.",
"X.X.@.P ~ t.3.-.{ _ W E R C C R C C C C C C C C C R C C C C C C N R C C R N N N x z h u h f G $.X.X.",
"X.X.@.P ~ y.6. .` ( Z V V c c c m j b M c c M j c c c c V c c c x c c c M V c j j h g g j d H $.X.X.",
"X.X.@.U p B s a i t r e e e e e e e e e e e e e e e e e r 7 e e r r e e e e e e e 0 e e r 8 G %.X.X.",
"X.X.X.+...L Y P U ..Y ..Y ..T U ..Y ..U U ..U ..U T U U U ....U U U U U ..P ..Y U ..U T U T T @.X.X.",
"X.X.X.X.#.#.#.@.O.O.@.@.@.#.#.#.@.@.O.@.@.@.@.@.#.#.#.#.@.@.@.@.#.@.#.#.@.@.O.@.@.@.@.#.#.#.O.X.X.X.",
"X.X.X.X.X.X.X.X.X.X.X.X.X.X.X.X.X.X.X.X.X.X.X.X.X.X.X.X.X.X.X.X.o.o.X.X.X.X.X.X.X.X.X.X.X.X.X.X.X.X.",
"X.X.X.X.X.X.X.X.X.X.X.X.X.X.X.X.X.X.X.X.X.X.X.X.X.X.X.X.X.X.X.X.X.o.X.X.X.X.X.X.X.X.X.X.X.X.X.X.X.X."
};
