/* XPM */
static const char *stopPressed_xpm[] = {
/* columns rows colors chars-per-pixel */
"50 50 117 2 ",
"   c #010203",
".  c #07090A",
"X  c #0B0B0D",
"o  c #0E0F10",
"O  c #141414",
"+  c #1E1D1C",
"@  c #201E1D",
"#  c #27231F",
"$  c #393433",
"%  c #543F31",
"&  c #484747",
"*  c #5D554D",
"=  c #515251",
"-  c #585A5A",
";  c #665445",
":  c #6B5747",
">  c #62584E",
",  c #6B5D4F",
"<  c #665E55",
"1  c #6C5E50",
"2  c #67635C",
"3  c #68635B",
"4  c #756455",
"5  c #796656",
"6  c #7A6957",
"7  c #776658",
"8  c #74685B",
"9  c #7D6C5A",
"0  c #656561",
"q  c #7E6F61",
"w  c #7E7162",
"e  c #76716B",
"r  c #79746E",
"t  c #856F5A",
"y  c #827464",
"u  c #877866",
"i  c #867768",
"p  c #877969",
"a  c #8B7C6B",
"s  c #8E806F",
"d  c #91816F",
"f  c #958473",
"g  c #988775",
"h  c #9B8A76",
"j  c #9E8E7A",
"k  c #A18F7C",
"l  c #A4917D",
"z  c #9C8F81",
"x  c #9F9181",
"c  c #A39484",
"v  c #A99682",
"b  c #AF9C86",
"n  c #A29688",
"m  c #A6998A",
"M  c #AA9B8C",
"N  c #B19D87",
"B  c #B39F89",
"V  c #92A09F",
"C  c #B4A08A",
"Z  c #BBA68F",
"A  c #B3A493",
"S  c #BCA790",
"D  c #BAAA96",
"F  c #B7A998",
"G  c #BCAB98",
"H  c #97A6A5",
"J  c #98A7A6",
"K  c #99AAAA",
"L  c #C5AE96",
"P  c #C7B097",
"I  c #C7B29A",
"U  c #C8B198",
"Y  c #CFB89E",
"T  c #D0B89F",
"R  c #C5B4A1",
"E  c #C8B6A3",
"W  c #CAB9A6",
"Q  c #D6BDA3",
"!  c #D8BEA4",
"~  c #D1BDA8",
"^  c #DAC1A6",
"/  c #D5C1AC",
"(  c #DDC4A9",
")  c #DBC7B2",
"_  c #DDC9B4",
"`  c #E1C7AB",
"'  c #E4CAAD",
"]  c #E3CCB3",
"[  c #E9CEB1",
"{  c #E7D4B7",
"}  c #EED2B5",
"|  c #E7D2BB",
" . c #EDD6BD",
".. c #F0D4B7",
"X. c #F3D7BA",
"o. c #F6DABC",
"O. c #FBDEBF",
"+. c #F6DDC2",
"@. c #FBDFC1",
"#. c #FBE0C3",
"$. c #FFECCB",
"%. c #FFF1CF",
"&. c #FFF2D0",
"*. c #FFF8D5",
"=. c #FFFFDC",
"-. c #CAE9EC",
";. c #CFEFF2",
":. c #D0EFF2",
">. c #D5F3F5",
",. c #D8F6F6",
"<. c #DEFDFD",
"1. c LightYellow",
"2. c #FFFFE9",
"3. c #E0FFFF",
"4. c #EAFFFF",
"5. c #F5FFFF",
"6. c #F9FFFF",
/* pixels */
"3.3.3.3.3.3.3.3.3.3.3.3.3.3.3.3.3.3.3.3.3.3.3.3.3.3.3.3.3.3.3.3.3.3.3.3.3.3.3.3.3.3.3.3.3.3.3.3.3.3.",
"3.3.3.3.3.3.3.3.3.3.3.3.3.3.3.3.3.3.3.3.3.3.3.3.3.3.3.3.3.3.3.3.3.3.3.3.3.3.3.3.3.3.3.3.3.3.3.3.3.3.",
"3.3.<.3.4.4.4.4.4.4.4.4.4.4.4.4.4.4.4.4.4.4.4.4.4.4.4.4.4.4.4.4.4.4.4.4.4.4.4.4.4.4.4.4.4.4.4.3.3.3.",
"3.3.3.3.,.>.>.>.>.>.>.>.>.>.>.>.>.>.>.>.>.,.>.>.>.>.>.>.>.>.>.>.>.>.>.>.>.>.>.>.>.,.>.>.>.>.,.3.3.3.",
"3.3.4.>.- & = = = = = = = = = = = = = = = = = = = = = = = = = = = = = = = = = = = = = = = $ K 6.3.3.",
"3.3.4.;.* ; , 1 , , , , , , , , , , , , , , , , , , , 1 , , , , , , , , , , , , , , 1 1 4 % V 6.3.3.",
"3.3.4.;.3 5 9 q q q t y y y y y y y y y y y y y y y y y y y y y y y y y y y y t y y t y y : K 5.3.3.",
"3.3.4.>.2 7 8 q y u p a d a a a a a a d a a d a d a a a d a a a a s a a s a s a p y i y a 1 H 5.3.3.",
"3.3.4.>.3 5 y y a d g j j k j k j j k k j j k j k k k k k k h k j j k j j k j h g f f a f 4 H 5.3.3.",
"3.3.4.;.3 5 y a g l v N B C C B C C C C C C C C C C C C C C C C C C C C C C C C N m k h j 7 J 5.3.3.",
"3.3.4.;.3 9 p d l N Z L U U U U P P U U U U U U P U U U P P P P U U U U U U U U L Z b c x 8 H 5.3.3.",
"3.3.4.;.3 9 p f l Z P T Q ! ! ! ^ T ^ T ! Q Q ! T ^ T ^ ! Q Q Q ! Q ! ! ^ ^ ( ( ~ U A m c 8 H 5.3.3.",
"3.3.4.;.3 9 a g b L T ^ ` ' ' ' [ ' ' ' ' ' ' ' ' ' ' ' [ ' [ ' ' ' ' ' [ [ } [ ` W S M x 8 H 5.3.3.",
"3.3.4.;.3 9 a h b L Q ` [ } ................X...................} X.X...X.O.O. .] ~ D M c 7 H 5.3.3.",
"3.3.4.;.3 9 a h b L Q ` } ..o.o.o.o.o.o.o.o.o.o.o.o.o.o.o.o.o.o.o.o.o.o.@.@.+.X.] ~ L m c 7 H 5.3.3.",
"3.3.4.;.3 9 p h b L Q ` } o.o.o.#.=.=.=.=.=.=.=.=.=.=.=.=.=.=.=.*.$.O.o.@.@.+.X.] ~ G M c 7 H 5.3.3.",
"3.<.4.>.2 9 a h N P T ` ..o.o.$.O.f y u p a u i a i y a a i p y f o.$.O.O.@.+. .] ~ G m c 7 H 5.3.3.",
"3.<.4.-.2 t a h N P ! ' } o.O.$.>                                 > $.$.@.@.+. .] ~ G M c 7 H 5.3.3.",
"3.3.4.>.3 6 a h N L ! ' ..o.$.} o   > 9 8 8 8 8 8 8 8 8 8 8 9 <   o ..$.@.@.+. .] ~ G M c 7 H 5.3.3.",
"3.3.4.-.2 t a h N L T ` } o.$.} O   [ 2.*.*.*.*.*.*.*.*.*.*.2.'   o ..$.@.@.@.+.] ~ D M c 7 H 5.3.3.",
"3.3.4.;.2 9 p h l P T [ } o.$.} O   Q &.@.#.#.@.@.@.@.@.@.#.*.T   O ..$.@.@.+.+.] ~ L m c 5 H 5.<.3.",
"3.3.4.;.2 9 u h C P T ` } o.$.} O   Y &.O.O.O.O.O.O.O.O.o.#.%.T . O ..$.@.@.+.X.] ~ D M c 8 H 5.3.3.",
"3.3.4.;.3 t u h N P T [ } o.$...O   W &.O.O.O.O.O.O.@.O.@.@.%.Y   O  .$.@.@.+. .] ~ G M c 7 H 5.3.3.",
"3.3.4.;.3 t a h N P T [ } X.$...O . Y %.O.O.O.O.@.O.O.O.@.o.%.Y   O } $.@.@.@. .] ~ G M c 7 H 5.3.3.",
"3.3.4.;.3 9 a g N L T ' ..o.$...O   Y %.O.O.O.O.O.O.O.O.O.O.&.T . O  .$.@.@.+. .] ~ D M c 4 H 5.3.3.",
"3.3.4.;.3 9 a h N L T [ ..o.$...O   Y &.O.O.O.O.O.O.O.O.O.O.&.T   O ..$.@.@.+. .] ~ D M c 6 H 5.3.3.",
"3.3.4.;.2 t a g N L T ' ..o.$...O . T &.O.O.O.@.O.O.O.O.O.O.&.Y   O ..$.@.@.+. .] ~ G M c 8 H 5.3.3.",
"3.3.4.;.3 6 a j N P ! ' ..X.#...O   T %.O.@.O.O.O.O.O.@.O.O.&.Y   O ..$.@.@.@.+.] ~ G m c 6 H 5.3.3.",
"3.3.4.;.3 9 a g N L T ' ..o.$...O   Y %.O.O.O.O.O.O.O.O.O.O.&.Y   O X.$.@.@.+. .] ~ G M c 4 H 5.3.3.",
"3.<.4.;.3 9 a h N L T ' } X.$...O . Y &.O.O.O.O.O.O.O.O.O.O.&.Y   O ..$.@.@.+.+.] ~ L M c 8 H 5.3.3.",
"3.3.4.;.3 t a g N L T ' } o.$.} O   ( =.%.$.%.%.%.%.%.$.%.%.=.(   O  .$.@.@.+.X.] ~ D m c 5 H 5.3.3.",
"3.3.4.;.3 6 a h N L ! ' } o.$.} o . C { ( ^ ^ ( ^ ^ ( ( ( ( { C . o [ $.@.@.+.X.] ~ G M c 8 H 5.3.3.",
"3.3.4.;.3 6 a h N L ! ' ..o.$.o.@   X X . . . . . . . . . . . X   @ o.$.#.#.+. .] / D M c 7 H 5.3.3.",
"3.3.4.;.3 9 a h N L T ' } o.o.%.C # o O O O O O O O O O O O o o # B %.@.+.#.+. .[ W D M c 7 H 5.3.3.",
"3.3.4.;.3 9 a h b L Q ' ..o.O.O.&.@.] +.[ ........ .} } ....| | O.%.O.o.+.+.+.+.] ~ G M c 7 H 5.3.3.",
"3.3.4.;.2 t p h b L Q ' ..o.@.O.+.$.$.&.$.$.$.$.$.$.$.$.$.$.$.$.$.#.@.#.+.+.+.| ] ~ G M c 7 H 5.3.3.",
"3.3.4.;.3 9 a h b P ! ' o.@.#.#.+.+.+.#.#.+.+.+.@.@.+.+.+.@.+.+.#.#.#.+.#.#.+.+.] / D b c 7 H 5.3.3.",
"3.3.4.;.3 9 a g b L ^ [ o.#.#.#.+.+.+.#.#.+.+.+.@.+.+.+.#.+.+.+.#.#.#.#.#.#.+.+.] W G M c 7 H 5.3.3.",
"3.3.4.;.3 9 p g b L ^ } X.+.+.+.+.+.+.+.+.+.+.+.+.+.+.+.+.+.+.+.+.+.+.+.#.+.+.+._ W D m c 7 H 5.3.3.",
"3.3.4.:.3 9 p f v L Q ] | |  . .+._ +.| +.+.+.+.+.+.| +.+.+.| +. . .|  .+.| _ _ / I A m x 8 H 5.3.3.",
"3.3.4.:.2 6 y f l S E / ) ) _ _ _ _ _ _ _ _ _ _ _ _ _ _ _ _ _ _ _ _ _ _ _ _ ) / W I A m x 4 H 5.3.3.",
"3.3.4.:.2 6 i f k C G R W W W W W W W W W W W W W W W W W W W W W W W W W W W R G A M x z 8 H 5.3.3.",
"3.3.4.:.2 9 y a j M A A F F F F F F D D F F F F F F F F F F F F F F F F F F F A A M x z z 4 H 5.3.3.",
"3.3.4.:.2 9 i f z x m M M M M M M M M M M M M M M M M M M M M M M M M M M M M m m m x z z 8 H 5.3.3.",
"3.3.4.-.< t a h k x c c n n c c c c c c c c c c m n n c c c c c m x m n v c c n c x x z x 5 H 6.3.3.",
"3.3.4.>.0 3 e r r r r r r r r r r r r r r r r r r r r r r r r r r r r r r e e r r r r e r * K 5.3.3.",
"3.3.3.3.>.-.-.-.-.-.-.-.-.-.-.-.-.-.-.-.-.-.-.-.-.-.-.-.-.-.-.-.-.-.-.-.-.-.-.-.-.-.-.-.-.-.,.4.3.3.",
"3.<.<.4.4.4.4.4.4.4.4.4.4.4.4.4.4.4.4.4.4.4.4.4.4.4.4.4.4.4.4.4.4.4.4.4.4.4.4.4.4.4.4.4.4.4.4.<.3.3.",
"3.3.3.3.3.3.<.3.3.3.3.3.3.3.3.3.3.3.3.3.3.3.3.3.3.3.3.3.3.3.3.3.<.<.3.3.3.3.3.3.<.3.3.3.3.3.3.3.3.3.",
"3.3.3.3.3.3.3.3.3.3.3.3.3.3.3.3.3.3.3.3.3.3.3.3.3.3.3.3.3.3.3.3.3.3.3.3.3.3.3.3.3.3.3.3.3.3.3.3.3.3."
};
