/* XPM */
static char *activeMonitorPressed_xpm[] = {
/* columns rows colors chars-per-pixel */
"30 30 139 2 ",
"   c black",
".  c #0A0807",
"X  c #0B0A0B",
"o  c #100D0D",
"O  c #100F10",
"+  c #111111",
"@  c #181716",
"#  c #1C1917",
"$  c #1C1B19",
"%  c #2B2723",
"&  c #2A2824",
"*  c #362D26",
"=  c #35332F",
"-  c #38332C",
";  c #452C1D",
":  c #553D2C",
">  c #433A33",
",  c #46423A",
"<  c #49463C",
"1  c #52473D",
"2  c #54493F",
"3  c #5D4C3D",
"4  c #634631",
"5  c #544E45",
"6  c #575047",
"7  c #565149",
"8  c #5D5248",
"9  c #5F584C",
"0  c #5E5D53",
"q  c #6C5745",
"w  c #6D5847",
"e  c #62594C",
"r  c #6F5A48",
"t  c #665C50",
"y  c #626054",
"u  c #6A6154",
"i  c #656358",
"p  c #69675B",
"a  c #6C695C",
"s  c #75695F",
"d  c #797465",
"f  c #7E7867",
"g  c #7E7968",
"h  c #767E7E",
"j  c #876D5C",
"k  c #86705C",
"l  c #827363",
"z  c #897565",
"x  c #877867",
"c  c #8E7E6C",
"v  c #917F6F",
"b  c #817C73",
"n  c #917F70",
"m  c #8F806D",
"M  c #91806F",
"N  c #86857B",
"B  c #948272",
"V  c #9A8775",
"C  c #9A8A76",
"Z  c #948A78",
"A  c #9A8E7B",
"S  c #A6937E",
"D  c #7B8383",
"F  c #818683",
"G  c #858A84",
"H  c #848F8F",
"J  c #84908F",
"K  c #8B908B",
"L  c #859190",
"P  c #8C9897",
"I  c #909894",
"U  c #A89580",
"Y  c #A69887",
"T  c #AD9A85",
"R  c #A6988A",
"E  c #B19D87",
"W  c #B49F89",
"Q  c #9AA29F",
"!  c #AFA08F",
"~  c #B3A28F",
"^  c #BBA58E",
"/  c #AFA192",
"(  c #B5A797",
")  c #BDA790",
"_  c #BEA993",
"`  c #B7A999",
"'  c #BDAC99",
"]  c #9BA4A1",
"[  c #AABDBC",
"{  c #C2AE96",
"}  c #C3B29A",
"|  c #CCB49B",
" . c #D0B99F",
".. c #C6B4A0",
"X. c #CDBDA4",
"o. c #D5BCA2",
"O. c #CBC5AB",
"+. c #CCC8AD",
"@. c #D4C1A6",
"#. c #DBC1A6",
"$. c #D4C3AC",
"%. c #DEC5AD",
"&. c #D5C9AE",
"*. c #CFCEB5",
"=. c #D9C5B0",
"-. c #DDCBB2",
";. c #E0C7AB",
":. c #E4CBAE",
">. c #E2CEB3",
",. c #E4D0B3",
"<. c #EDD1B4",
"1. c #EBD4BA",
"2. c #F0D3B6",
"3. c #F2D6BA",
"4. c #FBD7B8",
"5. c #F4DBBE",
"6. c #FBDDBE",
"7. c #E1D9CB",
"8. c #F1D9C1",
"9. c #FDDFC0",
"0. c #DFE1C6",
"q. c #FEE3C4",
"w. c #FEE4C9",
"e. c #F6ECCB",
"r. c #FEEBCB",
"t. c #FFF0CF",
"y. c #FFF3D4",
"u. c #FFFAD6",
"i. c #FFFEDB",
"p. c #DDFFFF",
"a. c #FFFFE1",
"s. c #FFFFEB",
"d. c #E0F4F6",
"f. c #E2F7F9",
"g. c #E2FFFF",
"h. c #EBFFFF",
"j. c #FFFFF2",
"k. c #F4FFFF",
"l. c #FDFFFD",
/* pixels */
"g.g.p.g.g.g.g.g.g.p.g.g.g.g.g.g.g.g.g.g.g.g.g.g.g.g.g.g.g.p.",
"p.p.h.l.k.l.k.l.l.k.k.k.l.k.l.k.l.k.k.k.k.l.l.k.k.k.l.k.p.g.",
"g.k.[ h H H H J H H H L H H H H J H H H H H H H H H D P h.g.",
"g.k.F ; 3 3 3 3 3 3 3 3 3 3 3 3 3 3 3 3 3 3 3 3 3 8 : 8 f.h.",
"g.k.I w l x v c c c c c m c c m c c c m v c c c x x j b d.h.",
"p.k.I q c C S T T T T T T T T T T T T T T T T T S A v b d.h.",
"g.h.I w B E {  .| | | | | | | | | | | | | | o. .| ~ V b d.h.",
"g.k.I r V ) o.:.5.q.6.6.6.6.6.9.6.6.6.6.6.6.2.2.%.' V b d.h.",
"p.k.I r C { #.q.2.%.:.:.:.:.:.:.:.:.:.:.;.2.u.5.>.' V b d.h.",
"g.k.I r C ^ 5._ @ . O O + + + + O X + + . @ ' y.=.' V b d.h.",
"g.k.I r C ^ r.e & O.' { _ { ' { | O.{ { +.& 0 a.;.' V b d.h.",
"g.h.I w C ^ q.t 6 j.i.u.u.i.t.i.a.5.u.i.j.5 i a.;.' V b d.h.",
"g.k.I q C ^ q.u < u.6.4.w.u.r.a., * y.q.u.< i a.=.' V b d.f.",
"g.k.I w C ^ q.u < i.9.u.! t s.6   *.r.q.u.< p a.;.{ V b p.h.",
"p.k.I w C ^ q.u < i.9.t.+.# @ @ 7.i.6.9.u.< p a.o.' V b d.h.",
"g.k.I r C ^ q.u < u.9.4.i.&.- -.i.4.6.9.u.< p s.>.' V b d.h.",
"g.k.I r C ^ q.e 7 l.a.i.i.s.l.s.i.i.i.i.l.6 i a.;.' V b d.h.",
"g.h.I r C ^ r.u X N g g f d A Z d f f f N X a a.;.' V b d.h.",
"g.k.I w C ^ 2.#.> * 2 2 1 8 X o 8 1 1 2 * > -.e.=.' V b d.f.",
"g.k.I q C {  .q.i.e.$.$.&.7.= = 7.&.$.O.e.a.y.3.>.' V b d.h.",
"p.k.I r C ^ #.<.i.O.. + $ @ $ $ @ $ + X X.i.9.8.=.{ V b p.h.",
"g.k.I r C { #.4.w.8.>.>.>.>.1.1.-.,.-.>.9.q.q.8.>.' V b d.h.",
"g.k.I r C _ ;.q.9.w.y.y.y.y.t.t.y.y.y.y.w.w.w.8.>.' V b d.f.",
"p.k.I w B ) %.3.8.8.8.8.8.8.8.8.8.8.8.8.8.8.8.1.#.( V b d.h.",
"g.k.P q m W X.=.=.=.=.=.=.=.=.=.=.=.=.=.=.=.=.o.../ B b d.h.",
"g.k.I q m R ( ` ` ` ` ` ` ` ` ` ` ` ` ` ` ` ` ( ( R B b d.h.",
"g.k.G 4 x n B M B n B B B B B B B n B B B B n B n n j s d.h.",
"g.h.[ K ] / Q Q ] Q Q ] Q Q Q Q ] Q ] ] Q Q ] Q ] ] I ] f.g.",
"g.p.h.k.h.h.h.h.h.h.h.h.h.h.k.h.h.h.h.h.h.h.h.h.h.h.h.k.g.p.",
"g.g.g.g.g.g.g.g.g.g.g.g.g.g.g.g.g.g.g.g.g.g.h.g.g.g.h.g.g.p."
};
