/* XPM */
static char *activeMonitorMouseOver_xpm[] = {
/* columns rows colors chars-per-pixel */
"30 30 162 2 ",
"   c #010101",
".  c #0C0606",
"X  c #050609",
"o  c #0A0508",
"O  c #070A0C",
"+  c #0C0908",
"@  c #120B0B",
"#  c #141213",
"$  c #1D1613",
"%  c #1C1815",
"&  c #221916",
"*  c #2B2722",
"=  c #312D29",
"-  c #3A332A",
";  c #473A32",
":  c #483F36",
">  c #494138",
",  c #5A4B3D",
"<  c #665A4C",
"1  c #715B53",
"2  c #6B614F",
"3  c #6A6957",
"4  c #6F6F5A",
"5  c #75755E",
"6  c #7E725F",
"7  c #577E60",
"8  c #7B7962",
"9  c #8D4B4B",
"0  c #81584F",
"q  c #8C5F56",
"w  c #875B53",
"e  c #8B6657",
"r  c #8F6158",
"t  c #97695E",
"y  c #916459",
"u  c #87765F",
"i  c #887762",
"p  c #887862",
"a  c #947F67",
"s  c #997261",
"d  c #A47768",
"f  c #578C66",
"g  c #5B8963",
"h  c #5D9064",
"j  c #549266",
"k  c #608862",
"l  c #629368",
"z  c #67986B",
"x  c #72936C",
"c  c #7D9C74",
"v  c #54AD70",
"b  c #5DB474",
"n  c #78A07E",
"m  c #7FAD7B",
"M  c #7FB07E",
"N  c #39E377",
"B  c #3BE57B",
"V  c #3DEA7B",
"C  c #87846B",
"Z  c #9C866D",
"A  c #94806A",
"S  c #9D8173",
"D  c #9C9379",
"F  c #AC816E",
"G  c #AF8370",
"H  c #A28B71",
"J  c #B98676",
"K  c #B78A77",
"L  c #A59479",
"P  c #AD9579",
"I  c #A69A7E",
"U  c #AB9277",
"Y  c #B69B7F",
"T  c #7CB182",
"R  c #3EEA80",
"E  c #3EF083",
"W  c #48E782",
"Q  c #4AE984",
"!  c #45E581",
"~  c #57E585",
"^  c #58E786",
"/  c #59E987",
"(  c #57EE89",
")  c #5BE988",
"_  c #55EC87",
"`  c #4BF385",
"'  c #4AF689",
"]  c #4FF98C",
"[  c #41F285",
"{  c #52F187",
"}  c #56F289",
"|  c #52F98C",
" . c #AA9E82",
".. c #BA9F81",
"X. c #BCA283",
"o. c #B7AE91",
"O. c #CC9C86",
"+. c #EC938B",
"@. c #C2A687",
"#. c #C2A688",
"$. c #C4AA8A",
"%. c #CBAE8E",
"&. c #C2AF90",
"*. c #C2B191",
"=. c #C9B091",
"-. c #C4BB9A",
";. c #CBBD9D",
":. c #D5B595",
">. c #D5B897",
",. c #DABA97",
"<. c #DABE9B",
"1. c #F7A99B",
"2. c #E0BF9C",
"3. c #F4BAA4",
"4. c #CFC19E",
"5. c #DCC29E",
"6. c #D4C19E",
"7. c #E2C09D",
"8. c #D7C4A1",
"9. c #E6C5A1",
"0. c #E9C6A2",
"q. c #ECCBA5",
"w. c #F0CAA5",
"e. c #F1CFA8",
"r. c #F9CFA9",
"t. c #F5C1A1",
"y. c #E5D4AE",
"u. c #ECD4AD",
"i. c #F9D2AC",
"p. c #FFD8AF",
"a. c #F0D1AB",
"s. c #EEC0B3",
"d. c #EEC5BE",
"f. c #FFCFB1",
"g. c #E7D6B1",
"h. c #EED6B0",
"j. c #EBDCB5",
"k. c #FAD6B3",
"l. c #FCD9B3",
"z. c #FDDDBC",
"x. c #F3DBB3",
"c. c #EAE5BA",
"v. c #FFE0B7",
"b. c #FFE4BB",
"n. c #FFE9BE",
"m. c #F4BEC4",
"M. c #F0C8C1",
"N. c #FFDBC6",
"B. c #FFDECB",
"V. c #FFE3C2",
"C. c #F1E9C3",
"Z. c #FFEDC3",
"A. c #FFEDCC",
"S. c #FFF2C5",
"D. c #FFF3C9",
"F. c #FFFACD",
"G. c #FFF0D4",
"H. c #FFFFD3",
"J. c #FFF4D8",
"K. c #FFFFD9",
"L. c #FFF2E1",
"P. c #FFFFE4",
/* pixels */
"~ ~ ~ / / / ~ / ~ / ~ ~ / ~ / ~ ~ / ~ ~ / ~ ^ ^ ^ / / ~ ~ ~ ",
"~ ~ } ` ` [ ` ` ` ` ` ` ` ` ` ` ` [ ` ` ` ` ` ` ` ` ' | ~ ~ ",
"/ } v 7 f f f f f f f f f f f f f f f f f f f f f f g j / / ",
"/ V n m.M.d.d.d.d.d.d.d.d.d.d.d.d.d.d.d.d.d.d.d.s.3.1.a B ( ",
"/ N T L.J.J.G.G.G.G.G.G.G.G.G.G.G.G.G.G.G.G.G.A.A.p.t.D B / ",
") B T B.V.N.N.N.z.z.z.z.z.z.N.z.z.z.z.N.z.z.z.l.i.,.@.C W ( ",
") B T B.V.z.z.k.k.k.k.k.k.k.x.k.k.k.k.k.k.k.l.i.7.%.K p Q ( ",
") B T N.b.z.k.Z.F.F.F.F.F.F.F.F.F.F.F.F.F.H.n.q.<.@.K 8 Q _ ",
"/ B T N.b.k.b.8.D D D D D D D L D D D D D D 6.i.:.X.G 8 Q ( ",
") B T N.z.V.g.$ O % $ $ $ $ $ $ $ $ $ $ & @ % 0.7...G 8 Q ( ",
") B T N.z.D.-.  o.C.u.h.h.h.h.u.x.n.h.u.c.o.  $.e...G 8 Q _ ",
"/ B m N.z.A.;.. ;.F.z.b.b.v.z.Z.F.6.v.b.F.4.+ *.q...G 8 Q ( ",
") B T N.z.Z.;.+ o.Z.i.r.b.S.l.H.<   u.b.n.&.X =.q.X.G 8 Q ( ",
") B T N.z.Z.;.+ *.Z.i.n.A 6 P.2   o.n.i.Z.*.+ =.q.X.G 8 Q ( ",
"/ B T N.z.Z.;.. &.Z.i.Z.I   -   4.H.i.i.Z.&.. =.e.Y G 8 Q ( ",
") B T N.z.D.;.+ $.n.r.i.H. .@ *.H.r.i.i.n.o.+ %.e.X.G 5 Q ( ",
") B T N.z.Z.;.+ 4.H.b.n.n.F.D.F.b.n.n.b.H.4.+ =.q.X.G 8 Q { ",
") B T N.z.D.-.   .y.<.6.<.5.u.5.,.5.6.<.y. .  $.r.Y G 8 Q ( ",
") B T N.z.V.j.*   . X X X X # # X X X X o   * q.7.X.G 8 Q ( ",
") B T N.z.k.b.u.Y >.0.9.9.c.= = c.9.9.0.>.Y u.i.:.X.G 8 Q _ ",
") B T N.z.k.k.b.H.L , < < 3 O O 3 < < , L K.v.9.>.X.G 8 Q ( ",
") N T N.z.l.l.l.n.u - > > ; < < ; : > - i n.i.0.>.X.G 5 Q ( ",
") B T N.z.p.i.e.w.v.F.n.n.S.n.S.S.Z.Z.D.v.w.q.2.:.Y d 8 Q ( ",
") B M z.p.e.7.7.5.7.7.7.7.7.7.7.7.7.7.7.7.<.,.:.$.P d 8 Q ( ",
"/ V T k.7.,.:.$.$.$.$.@.@.$.@.$.$.@.$.$.@.@.@.X.P Z s 5 Q ( ",
"/ ! D 3.$.Y U H H H H H H H H H H H H H H H H Z a u e 4 { } ",
"( V n +.J d t y r r y r r r r r r r r r r r r r w 0 9 1 Q } ",
"/ ` b z z l l h h h l k h h h h h h h h h h h h h h g h _ / ",
"^ ^ { [ ` ] ] ] | ] ] ] ] ] ] ] | | ] ] ] | ] ] | ] ] | ~ ~ ",
"~ ~ ~ / / ~ ~ / ^ ~ ^ ^ ^ ^ ^ ^ ~ ~ ~ / ^ ^ ~ / ~ / / / ~ ~ "
};
