/* XPM */
static char *activeMonitorNormal_xpm[] = {
/* columns rows colors chars-per-pixel */
"30 30 149 2 ",
"   c #010101",
".  c #0C0606",
"X  c #050609",
"o  c #0A0508",
"O  c #070A0C",
"+  c #0C0908",
"@  c #120B0B",
"#  c #141213",
"$  c #1D1613",
"%  c #1C1815",
"&  c #221916",
"*  c #2B2722",
"=  c #312D29",
"-  c #3A332A",
";  c #473A32",
":  c #483F36",
">  c #494138",
",  c #5A4B3D",
"<  c #644328",
"1  c #6D543D",
"2  c #70573F",
"3  c #685749",
"4  c #665A4C",
"5  c #755B42",
"6  c #795E44",
"7  c #6B614F",
"8  c #7B634A",
"9  c #6A6957",
"0  c #7E725F",
"q  c #7D7265",
"w  c #81654B",
"e  c #8B6F54",
"r  c #95785B",
"t  c #897762",
"y  c #887862",
"u  c #827768",
"i  c #857A6B",
"p  c #8A7D6E",
"a  c #9C7E60",
"s  c #947F69",
"d  c #9F8163",
"f  c #94806A",
"g  c #9D866E",
"h  c #928474",
"j  c #9C9379",
"k  c #A28264",
"l  c #AD8C6D",
"z  c #BB8960",
"x  c #A38B71",
"c  c #A59479",
"v  c #AD9479",
"b  c #A69A7E",
"n  c #B69A7E",
"m  c #BC9978",
"M  c #D3A178",
"N  c #7E8583",
"B  c #858B89",
"V  c #8C9089",
"C  c #8C9695",
"Z  c #8E9896",
"A  c #939A94",
"S  c #9A9A90",
"D  c #919C9B",
"F  c #A79682",
"G  c #AA9E82",
"H  c #B79D81",
"J  c #BB9F83",
"K  c #97A09C",
"L  c #9DA19B",
"P  c #BCA184",
"I  c #A5A398",
"U  c #B7AE91",
"Y  c #A2A8A1",
"T  c #B4B5AB",
"R  c #B5BAAF",
"E  c #AABCBC",
"W  c #B4BAB1",
"Q  c #C2A687",
"!  c #C2A688",
"~  c #C4AA8A",
"^  c #CBAE8E",
"/  c #C2AF90",
"(  c #C2B191",
")  c #C9B091",
"_  c #CDB59B",
"`  c #C4BB9A",
"'  c #CBBD9D",
"]  c #D5B595",
"[  c #D5B897",
"{  c #DCB994",
"}  c #D7BB9F",
"|  c #DABD9B",
" . c #E1B48C",
".. c #E8BE93",
"X. c #E0BF9C",
"o. c #D8BFA6",
"O. c #B8C0B7",
"+. c #CFC19E",
"@. c #D4C19E",
"#. c #DCC29E",
"$. c #E2C09D",
"%. c #F4CB9D",
"&. c #D7C4A1",
"*. c #D8C1AA",
"=. c #E6C5A1",
"-. c #E9C6A2",
";. c #ECCBA5",
":. c #F0CAA5",
">. c #F1CFA8",
",. c #F9CFA9",
"<. c #E5D4AE",
"1. c #ECD4AD",
"2. c #F4D3AA",
"3. c #F9D2AC",
"4. c #E7D6B1",
"5. c #EED6B0",
"6. c #EBDCB5",
"7. c #F5D7B3",
"8. c #FAD6B3",
"9. c #F4D9B4",
"0. c #FDD9B3",
"q. c #F5DABA",
"w. c #FDDDBD",
"e. c #EAE5BA",
"r. c #FFE0B7",
"t. c #FFE4BB",
"y. c #FFE9BE",
"u. c #B3C3C1",
"i. c #FBDEC2",
"p. c #FFE3C3",
"a. c #F1E9C3",
"s. c #FFEDC3",
"d. c #FFEECE",
"f. c #FFF2C5",
"g. c #FFF3C9",
"h. c #FFFACD",
"j. c #FFF1D4",
"k. c #FFFFD3",
"l. c #FFF4D9",
"z. c #FFFFD9",
"x. c #D6EEF3",
"c. c #DCF3F7",
"v. c #DFF5F8",
"b. c #DCFEFF",
"n. c #FFFFE4",
"m. c #E3F6FA",
"M. c #E3FFFF",
"N. c #EBFFFF",
"B. c #F0FFFF",
/* pixels */
"M.M.M.M.M.M.M.M.M.M.M.M.M.M.M.M.M.M.M.M.M.M.M.M.M.M.M.M.b.M.",
"b.b.N.N.N.N.N.N.N.N.N.N.N.N.B.N.N.N.N.N.N.N.N.N.N.N.B.B.M.b.",
"M.N.E N D C C C C C C C C C C C C C C C C C C C C Z B D M.N.",
"M.M.Y _ *.*.*.o.*.*.o.*.*.*.*.*.o.o.o.o.*.*.*.o.} { M s x.N.",
"M.b.W j.l.l.j.j.j.j.j.j.j.j.j.j.j.j.j.j.j.j.j.g.s.0...F x.N.",
"M.b.W q.p.i.i.w.w.i.w.w.w.w.w.w.w.w.i.w.w.w.w.0.3.{ m h c.N.",
"M.b.W 7.p.w.w.8.7.8.8.8.8.8.7.8.8.8.8.8.8.7.0.3.=.) l p c.N.",
"N.b.W 7.i.w.8.s.k.g.h.h.h.h.h.k.h.h.h.h.h.k.y.;.{ ! k p v.M.",
"M.b.W 7.w.8.t.&.j j j j j j j j j j j j j j #.3.] P k i v.N.",
"M.b.W 7.w.p.4.$ @ $ $ $ % % $ % $ $ $ $ & @ & $.=.P d i v.N.",
"N.b.W 7.w.g.`   U a.5.5.5.5.7.1.9.y.5.1.e.U   U >.H d i v.M.",
"M.b.W 9.w.s.' + _ h.r.t.t.r.0.y.h.@.r.y.h.+.+ ) ;.P k u v.N.",
"M.b.W 7.w.s.' + ~ s.2.3.y.s.0.k.4   1.r.s./ + ) ;.P k u c.N.",
"M.b.W 7.i.s.' + U s.3.s.s q n.7   U y.3.s./ + ) ;.P k i m.M.",
"M.b.W 7.w.s.' o ( s.3.s.G   -   ` k.3.3.s.~ + / ;.J d i v.N.",
"N.b.W 7.w.s.' + ~ y.3.2.h.G @ ( k.3.3.3.y.U + / >.P d i v.N.",
"M.b.W 7.w.s.' + ' k.y.y.y.h.g.h.t.y.y.y.k.+.O ^ ;.P d i v.N.",
"M.b.W 7.w.s.`   G <.| | | | >.&.| @.| | <.G   ~ >.P d u v.N.",
"M.b.W 7.w.p.6.*   + X X X X # # X X X X +   * ;.$.P k i v.N.",
"N.b.W 7.w.8.w.5.H [ -.=.-.e.= = e.=.=.-.] H 2.2.] P d i v.M.",
"M.b.R 7.w.0.3.y.k.c , 4 4 9 O O 9 4 4 , c z.w.$.[ P k i m.N.",
"M.b.W 9.w.0.0.0.y.y - > > ; 4 4 ; > > - y s.3.-.[ P d u c.M.",
"M.b.R 9.0.0.3.>.:.r.f.f.y.f.s.s.f.s.s.f.t.:.;.$.^ P r u c.N.",
"N.b.R 3.0.>.$.X.| $.$.$.$.$.X.X.$.$.$.X.X.| { ] Q n r u m.N.",
"M.b.R %.-.[ ^ ^ ~ ~ ~ ~ ! ~ ! ~ ~ ~ ~ ! ~ ~ Q n v x e q m.N.",
"M.b.T  .^ H v x x x x x x x x x x x x x x x x g f t 8 q m.N.",
"M.M.I z k e w 6 6 6 6 6 6 6 6 6 6 6 6 6 6 6 6 2 1 1 < 3 m.N.",
"M.N.O.S I A A A A A A A A A A A A A A A A A S A A A V K N.M.",
"b.M.N.M.N.N.N.B.B.B.B.B.B.B.N.B.B.B.N.B.B.B.N.B.B.B.B.B.M.b.",
"M.b.M.M.M.M.M.M.M.M.M.M.M.M.M.M.M.M.M.M.M.M.M.M.M.M.M.M.b.M."
};
