/* XPM */
static char *branchBottomNormal_xpm[] = {
/* columns rows colors chars-per-pixel */
"30 30 137 2 ",
"   c #000003",
".  c #04040B",
"X  c #0A090D",
"o  c #141216",
"O  c #161518",
"+  c #181619",
"@  c #1D1A1D",
"#  c #201D1F",
"$  c #231F20",
"%  c #262222",
"&  c #2A2424",
"*  c #2D2827",
"=  c #413834",
"-  c #4D4139",
";  c #624126",
":  c #674E37",
">  c #6D533B",
",  c #71573E",
"<  c #74593F",
"1  c #554941",
"2  c #5B4E45",
"3  c #5E5147",
"4  c #5B5348",
"5  c #63554A",
"6  c #66584D",
"7  c #68594C",
"8  c #755941",
"9  c #7C6046",
"0  c #7E654B",
"q  c #6B6052",
"w  c #766557",
"e  c #886A4F",
"r  c #8C7155",
"t  c #88755E",
"y  c #9B7B5E",
"u  c #AB7B53",
"i  c #897361",
"p  c #817A6D",
"a  c #947E67",
"s  c #867D70",
"d  c #9F8063",
"f  c #9D866D",
"g  c #8C8375",
"h  c #988471",
"j  c #928779",
"k  c #9A8E7E",
"l  c #A28365",
"z  c #A68668",
"x  c #AF8E6E",
"c  c #A38B71",
"v  c #A88F78",
"b  c #AB9277",
"n  c #AC9279",
"m  c #B59B7F",
"M  c #CF9F75",
"N  c #C19E7B",
"B  c #818886",
"V  c #8A928E",
"C  c #91948D",
"Z  c #8F9B9A",
"A  c #969D97",
"S  c #9A9E94",
"D  c #909B99",
"F  c #AC9E8A",
"G  c #B59D83",
"H  c #BB9F83",
"J  c #9BA19A",
"K  c #B0A186",
"L  c #BBA082",
"P  c #A0A59E",
"I  c #A8A69A",
"U  c #99A6A4",
"Y  c #9DA8A4",
"T  c #AAACA4",
"R  c #BABBAF",
"E  c #BEBFB3",
"W  c #C1A487",
"Q  c #C2A588",
"!  c #CBA68C",
"~  c #C5A88A",
"^  c #CBAD8D",
"/  c #D8AC85",
"(  c #D8B18D",
")  c #CAAE91",
"_  c #CFB293",
"`  c #D7B795",
"'  c #D8B797",
"]  c #DBBA97",
"[  c #D7B699",
"{  c #DCBB9A",
"}  c #E0BE9C",
"|  c #D7BBA5",
" . c #D8BDA7",
".. c #BEC0B6",
"X. c #BDC1B9",
"o. c #EAC096",
"O. c #E2C19E",
"+. c #F1C297",
"@. c #C2C5BD",
"#. c #E7C4A0",
"$. c #EAC7A3",
"%. c #E6C9A5",
"&. c #EBC9A3",
"*. c #EDCDAA",
"=. c #F1CDA7",
"-. c #F8CCA2",
";. c #F4CEAA",
":. c #EED2AB",
">. c #F5D1AB",
",. c #FBD5AE",
"<. c #FDD8AF",
"1. c #F6D2B2",
"2. c #FAD7B1",
"3. c #FCD9B4",
"4. c #FCDDBD",
"5. c #FFE5BA",
"6. c #FFEABD",
"7. c #AEC1C0",
"8. c #B7C8C5",
"9. c #FBDFC1",
"0. c #FEE4C3",
"q. c #FFECC2",
"w. c #FFEBCB",
"e. c #FFF3C5",
"r. c #FFF3CB",
"t. c #FFF9CB",
"y. c #FFEED2",
"u. c #FFF2D6",
"i. c #FFFFD3",
"p. c #FFFFDA",
"a. c #CBEFF5",
"s. c #D3F6FA",
"d. c #D5F8FC",
"f. c #DDFFFF",
"g. c #E1FFFF",
"h. c #ECFFFF",
"j. c #F0FFFF",
/* pixels */
"g.g.g.g.g.g.g.g.g.g.g.g.g.g.g.g.g.g.g.g.g.g.g.g.g.g.g.g.g.g.",
"g.f.h.j.h.h.h.h.h.h.h.h.h.h.j.h.h.h.h.h.h.h.h.h.h.h.j.j.g.g.",
"g.h.7.B Z D Z Z D D D D Z Z D D Z Z Z Z D D D D Z Z V U g.g.",
"g.g.T !  .| | | | | | | | | | | | | | | | | | | [ ( M f a.g.",
"g.f.@.0.u.y.y.y.y.y.y.y.y.y.y.y.y.y.y.y.y.y.y.w.5.2.o.F a.h.",
"g.f.X.1.0.9.9.9.9.4.9.4.9.4.4.9.9.9.4.9.4.9.4.3.>.] N k s.g.",
"g.f.X.1.9.4.4.4.3.4.4.2.4.0.r.r.r.r.q.4.3.4.3.,.$.^ x j s.h.",
"g.f...>.9.4.2.2.2.1.2.2.q.*.~ ) _ G H *.3.2.,.=.] W z g s.h.",
"f.f.R 1.4.4.2.2.,.,.<.q.L + X o   & K >.2.2.>.&.` L l g d.g.",
"f.f.E 1.4.2.2.,.,.,.<.6.-   $ X & :.t.<.,.<.>.$.` H l g s.h.",
"f.f.X.*.4.2.2.2.,.,.3.5.1 . #   v i.,.,.,.,.>.$.` L l g d.h.",
"g.f. .;.4.3.2.2.,.,.3.5.4 . @ + ' q.,.,.<.,.>.$.` L l g d.h.",
"g.f...;.4.3.2.2.,.,.2.q.5 . + $ { 5.2.,.,.<.>.$.` L l g d.h.",
"g.f.@.;.4.3.2.2.<.<.2.q.7   + # ] q.2.<.,.<.>.$.` L l g d.g.",
"g.f.E ;.4.3.2.2.,.-.q.p.w   + # ,.i.3.>.,.,.>.$.` L l g s.h.",
"g.f.E ;.4.3.2.2.,.q.G 6 * O @ $ 7 q ] 5.,.,.>.&.` L l g d.h.",
"g.f. .*.9.3.2.2.,.e.b   o & % %   . %.5.<.,.;.$.` L l g d.h.",
"g.f.@.;.9.1.2.2.,.,.e.5   % $ $   v t.,.,.,.>.$.` L l g f.g.",
"g.f...;.9.3.2.2.,.,.6.O.o o % . = 5.3.,.,.,.>.$.` L l g s.g.",
"g.f...;.4.2.2.2.<.<.<.t.t   @   W t.<.,.,.<.>.&.` L l g d.h.",
"g.f.@.;.4.3.2.2.,.,.,.5.3.*   2 e.3.<.2.,.2.,.$.' L l g d.h.",
"g.f.R >.4.3.2.2.,.,.,.>.t.v X ` e.;.,.2.,.,.;.$.` N l g d.g.",
"g.f...>.3.2.,.>.*.=.=.=.=.>.] <.=.=.=.=.=.=.&.} _ m y g d.g.",
"g.f...-.3.*.#.} O.{ O.} O.O.>.} } } } } } } ] ` ! n a s d.h.",
"g.f. .O.O.] ^ ^ ~ ~ ~ ~ ~ ~ ~ ~ Q ~ ~ ~ ~ ~ W H n f r p d.h.",
"g.g.R / ^ m b c c c c c c c c c c c c c c c c f a t e p f.h.",
"g.g.I u y e 9 8 < < < < 8 8 8 8 8 8 < 8 8 8 < , > : ; 7 f.g.",
"g.g.8.S P J J A A A A S A A A A A A A A A A A A A A C Y g.g.",
"g.g.h.h.g.h.j.j.h.j.j.h.j.j.h.j.j.j.h.j.j.j.h.j.h.j.j.j.g.g.",
"g.g.g.g.g.g.g.g.g.g.g.g.g.g.g.g.g.g.g.g.g.g.g.g.g.g.g.g.g.g."
};
