/* XPM */
static char *branchRightPressed_xpm[] = {
/* columns rows colors chars-per-pixel */
"30 30 115 2 ",
"   c #000003",
".  c #05040A",
"X  c #09060B",
"o  c #0E0A0E",
"O  c #0F0E11",
"+  c #171416",
"@  c #181517",
"#  c #1A1816",
"$  c #1E1B1D",
"%  c #3C2214",
"&  c #272223",
"*  c #292425",
"=  c #3E3734",
"-  c #573A27",
";  c #533B29",
":  c #584739",
">  c #59483A",
",  c #67523F",
"<  c #534C45",
"1  c #675341",
"2  c #6A5544",
"3  c #63574E",
"4  c #665D54",
"5  c #685C52",
"6  c #6B6156",
"7  c #6F6259",
"8  c #74675C",
"9  c #72685D",
"0  c #797067",
"q  c #7D7569",
"w  c #836C5B",
"e  c #87725E",
"r  c #857564",
"t  c #8A7768",
"y  c #81786A",
"u  c #8E7D6D",
"i  c #917E6E",
"p  c #8F806D",
"a  c #92816F",
"s  c #878279",
"d  c #88857D",
"f  c #968473",
"g  c #988674",
"h  c #9A8976",
"j  c #9E8978",
"k  c #A5917F",
"l  c #787F80",
"z  c #7E8786",
"x  c #838784",
"c  c #878B86",
"v  c #8D918C",
"b  c #869291",
"n  c #889393",
"m  c #939B97",
"M  c #A69685",
"N  c #A89581",
"B  c #AD9A85",
"V  c #AF9D8C",
"C  c #B09D87",
"Z  c #B29E89",
"A  c #99A09B",
"S  c #B1A28E",
"D  c #BBA58E",
"F  c #AFA092",
"G  c #B6A696",
"H  c #BCA691",
"J  c #BEA890",
"K  c #B7A998",
"L  c #BBAB98",
"P  c #93A1A0",
"I  c #9EA7A3",
"U  c #9EA8A3",
"Y  c #A0ADAB",
"T  c #ABBEBE",
"R  c #C6AF96",
"E  c #C3B39B",
"W  c #CEB69D",
"Q  c #C5B3A1",
"!  c #CEB9A2",
"~  c #D4BBA2",
"^  c #D2C1A7",
"/  c #DCC2A7",
"(  c #D6C3AD",
")  c #DCC3A9",
"_  c #D7C4B0",
"`  c #DEC9B1",
"'  c #E1C7AC",
"]  c #E6CBAF",
"[  c #E6CCB0",
"{  c #E9CEB2",
"}  c #E7D3B6",
"|  c #EED3B6",
" . c #EAD4BB",
".. c #F2D6BA",
"X. c #F6DABC",
"o. c #FBDDBF",
"O. c #B0C2C0",
"+. c #F2DAC1",
"@. c #FCDEC0",
"#. c #F2E0C1",
"$. c #FCE1C3",
"%. c #FFEDCC",
"&. c #FFF0CF",
"*. c #FFF6D3",
"=. c #FFF9D6",
"-. c #FFFDDB",
";. c #D6F7F9",
":. c #D7F8FA",
">. c #DCFDFE",
",. c #FFFFE2",
"<. c #FFFFED",
"1. c #E1FFFF",
"2. c #EAFFFF",
"3. c #F3FFFF",
"4. c #F9FFFF",
/* pixels */
"1.1.1.1.>.1.1.>.1.1.>.1.1.>.1.1.>.1.1.>.1.1.>.1.1.>.1.1.1.1.",
"1.>.3.4.4.4.4.4.4.4.3.4.4.4.4.4.4.4.4.3.4.4.3.4.4.4.4.4.1.1.",
"1.2.T l b b b b b b b b b b b b b b b b b b b b b b z P 1.2.",
"1.4.x % : : : : : : : : : : : : : : : : : : : > : : ; 4 >.2.",
"1.3.m , r r i a u p p u p p p p a p p p u a p u t r e s >.2.",
"1.3.m 1 t h k B B B B B B B B B B B B B B B B B N h a x ;.2.",
"1.2.m 2 f C R W W W W W W W W W W W W W W W ! ~ E S j d ;.1.",
"1.3.m 2 h D ^ ] ] [ ] ] [ ] ] [ ] ] ] ] ] ] | ..) L j d ;.2.",
"1.2.m 2 h D / | X.X.X.X.X.X.X.X.X.X.X.X.X.o.$.o.` R j s ;.2.",
"1.3.m 2 h R / | o.$.@.@.@.@.@.@.@.o.@.@.o.$.$.+.` L j x ;.2.",
"1.3.m 2 h J ' | $.$.o.@.@.@.@.@.$.o.@.@.o.$.$.+.` L j s ;.2.",
"1.3.m 2 h J ~ X.} o.$.@.@.@.X.*.=.$.o.o.o.@.$...` L j s ;.1.",
"1.2.m 2 h J / %.k B <.@.@.$.%.B D -.*.o.@.@.@.+.` L j x ;.2.",
"1.3.m 2 h J / *.k + E *.=.=.<.<   6 ` ,.&.@.@.+.` L j d ;.2.",
">.3.m 2 h J / *.H   O < 6 6 9 ; O   + y +.&.@.+._ R j d ;.2.",
"1.3.m 2 h J / *.B   $ . .     + * & +   X ( =.+.' L j d ;.2.",
"1.3.m 2 h J / %.!             @ * $   O 4 } %.+.` L j x ;.2.",
">.3.m 2 h H / ..%.N < 5 9 8 q =     < ^ -.%.@.+.' L j x ;.2.",
"1.3.m 2 h D / | @.=.-.-.=.-.<.5 # S -.=.o.o.$.+.` L j x ;.2.",
"1.3.m 2 h J / | @.@.+.@.@.@.$.~ X.,.$.o.o.@.$.+.' L j x ;.2.",
"1.2.m 2 h J / | +.@.@.@.@.@.+.*.&.+.@.@.o.$.$.X.` L N i ;.2.",
"1.3.m 2 h J / X.$.$.$.$.@.@.@.@.@.$.$.$.$.$.$.+.` L g x ;.1.",
"1.3.m 2 h J ' o.$.$.$.@.$.$.+.$.$.$.+.$.$.#.$.@.[ L j x ;.2.",
"1.3.m 2 f D ] ..+.+.+.+.+.+.+.+.+.+.+.+.+.+.+.+.~ G f u ;.2.",
"1.3.m 1 f V ! _ _ _ _ _ _ _ _ _ _ _ _ _ _ _ ( ~ Q F h x ;.2.",
"1.3.m 1 i M G G K K K K K G K K K K K K G H L G F M f d ;.2.",
">.4.c - w u u i u u u u u u i t u u u u t i i t t t w 0 ;.2.",
"1.2.O.v I I I I I I I I I F Y Y I I I I Y A Y Y Y Y m Y 1.1.",
"1.>.2.4.2.2.2.2.2.2.2.2.2.2.2.2.2.2.2.2.2.2.2.2.3.2.2.3.1.1.",
"1.1.1.1.1.1.1.1.1.1.1.1.1.1.1.1.1.1.1.1.1.1.1.1.1.1.1.1.1.1."
};
