/* XPM */
static char *branchRightDisabled_xpm[] = {
/* columns rows colors chars-per-pixel */
"30 30 175 2 ",
"   c #685F5F",
".  c #6B6666",
"X  c #6C6666",
"o  c #6C6767",
"O  c #6D6767",
"+  c #6D6868",
"@  c #6C6C6C",
"#  c #767171",
"$  c gray46",
"%  c #7E7E7E",
"&  c #808080",
"*  c gray51",
"=  c #838383",
"-  c gray52",
";  c #868686",
":  c gray53",
">  c #888585",
",  c #8C8686",
"<  c #808989",
"1  c #858989",
"2  c #868A8A",
"3  c #868B8B",
"4  c #878B8B",
"5  c #888888",
"6  c #898989",
"7  c gray54",
"8  c #8B8B8B",
"9  c #8E8B8B",
"0  c gray55",
"q  c #8D8C8C",
"w  c #8D8D8D",
"e  c #8E8E8E",
"r  c gray56",
"t  c #928F8F",
"y  c #8B9090",
"u  c #889393",
"i  c #8F9A9A",
"p  c #8F9B9B",
"a  c #909090",
"s  c gray57",
"d  c #939091",
"f  c #929292",
"g  c #939393",
"h  c #949190",
"j  c #949191",
"k  c gray58",
"l  c #959595",
"z  c #979797",
"x  c #9D9191",
"c  c #989595",
"v  c #959E9E",
"b  c gray60",
"n  c #9A9A9A",
"m  c gray61",
"M  c #9D9D9D",
"N  c #9F9F9F",
"B  c #94A0A0",
"V  c #94A1A1",
"C  c #95A1A1",
"Z  c #95A2A2",
"A  c #9DA1A1",
"S  c #99A6A6",
"D  c #98A7A7",
"F  c #9BAAAB",
"G  c gray63",
"H  c gray64",
"J  c #A4A4A4",
"K  c #A5A5A5",
"L  c gray65",
"P  c #A8A5A5",
"I  c #A5ADAD",
"U  c #A5AEAE",
"Y  c gray66",
"T  c #A9A9A9",
"R  c #AAAAAA",
"E  c #AEAEAE",
"W  c #B7ACAC",
"Q  c #B1B1B1",
"!  c #B2B2B2",
"~  c gray70",
"^  c #B6B6B6",
"/  c #B7B7B7",
"(  c #BBB2B2",
")  c gray72",
"_  c gray73",
"`  c #BBBBBB",
"'  c gray75",
"]  c #C2BCBC",
"[  c #C4BFBF",
"{  c #AEC1C1",
"}  c #B6C2C2",
"|  c #B6C3C3",
" . c #B7C3C3",
".. c #BBC7C7",
"X. c #B5C9C9",
"o. c #C0C0C0",
"O. c #C1C1C1",
"+. c gray76",
"@. c #C3C3C3",
"#. c #C6C1C1",
"$. c #C7C1C1",
"%. c #C7C2C2",
"&. c #C5C5C5",
"*. c #C6C6C6",
"=. c gray78",
"-. c #C8C8C8",
";. c gray79",
":. c #CACACA",
">. c gray80",
",. c #CDCDCD",
"<. c #CECECE",
"1. c gray81",
"2. c #D1CCCC",
"3. c #D0D0D0",
"4. c gray82",
"5. c #D2D2D2",
"6. c LightGray",
"7. c #D4D0D0",
"8. c gray83",
"9. c #D5D5D5",
"0. c gray84",
"q. c #DAD4D4",
"w. c #DBD5D5",
"e. c #DCD6D6",
"r. c #DCD7D7",
"t. c #D8D8D8",
"y. c gray85",
"u. c #DADADA",
"i. c gray86",
"p. c #DDD8D8",
"a. c gainsboro",
"s. c #DDDDDD",
"d. c gray87",
"f. c #DFDFDF",
"g. c #CEECED",
"h. c #CFEEEE",
"j. c #D5F4F4",
"k. c #D6F5F5",
"l. c #D7F6F6",
"z. c #D8F7F7",
"x. c #D8F8F8",
"c. c #DFFDFD",
"v. c #DEFFFF",
"b. c #DFFFFF",
"n. c gray88",
"m. c #E1E1E1",
"M. c #E2E2E2",
"N. c gray89",
"B. c #E4E4E4",
"V. c gray90",
"C. c #E6E6E6",
"Z. c #E7E7E7",
"A. c #EDE7E7",
"S. c gray91",
"D. c #E9E9E9",
"F. c #EAEAEA",
"G. c #E0FDFD",
"H. c LightCyan",
"J. c #E1FFFF",
"K. c #E2FFFF",
"L. c #E5FFFF",
"P. c #E6FFFF",
"I. c #E8FFFF",
"U. c #E9FFFF",
"Y. c #EBFFFF",
"T. c #ECFFFF",
"R. c #EDFFFF",
"E. c #EEFFFF",
"W. c #F1F1F1",
"Q. c #F3F3F3",
"!. c #F4F4F4",
"~. c gray96",
"^. c #F6F6F6",
"/. c azure",
"(. c #F1FFFF",
/* pixels */
"J.J.J.J.J.J.J.J.J.J.J.J.J.J.J.J.J.J.J.J.J.J.J.J.J.J.J.J.J.J.",
"J.b.T.(.E.E.E.E.E.E.E.E.E.E.E.E.E.E.E.E.E.E.E.E.E.E./.(.K.H.",
"J.E.{ < p p p p p p p p p p p p p p p p p p p p p p u D G.L.",
"J.P.I W %.#.$.#.#.#.#.#.#.#.#.#.#.#.#.#.#.#.#.#.[ ] ( q g.U.",
"J.v...A.^.~.~.!.!.!.!.!.!.!.!.!.!.!.!.!.!.!.!.Q.W.F.7.A h.I.",
"J.H. .p.Z.V.N.N.N.N.N.N.N.N.N.N.N.N.N.N.N.N.N.M.d.-.P y j.I.",
"J.H.} r.B.n.f.d.s.s.s.s.s.s.s.s.s.s.s.s.s.s.d.s.1.~ c 4 k.I.",
"J.H. .e.N.d.i.u.y.y.y.y.y.y.y.y.y.y.y.y.y.y.u.9.@.R d 2 l.I.",
"J.H. .e.N.d.i.y.y.y.y.y.y.y.y.y.y.y.y.y.y.y.y.5.o.Y h 3 l.I.",
"J.H. .e.N.d.i.u.u.y.y.y.y.y.y.y.y.y.y.y.y.y.y.6.O.T h 3 l.I.",
"J.H. .e.N.d.i.y.i.y.y.y.y.y.t.i.i.y.y.y.y.y.y.6.O.T h 3 l.I.",
"J.H. .e.N.d.n.-.<.N.t.y.y.y.y.u.N.M.y.y.y.y.y.6.O.T h 3 l.I.",
"J.H. .e.N.d.B.' G C.V.i.i.a.B.! M 4.S.n.t.y.y.6.O.T h 3 l.I.",
"J.H. .e.N.d.B.;.& K 8.d.d.f.D.T $ 0 Q y.S.d.t.6.O.T h 3 l.I.",
"J.H. .e.N.d.B.:.7 = e N G G H z r 0 * s _ f.f.5.O.T h 3 l.I.",
"J.H. .e.N.d.V.=.6 a w 5 : 5 ; e g s f 7 % f 8.y.O.T h 3 l.I.",
"J.H. .e.N.d.N.<.: : w 0 0 0 7 r f f s ; - H 0.t.O.T h 3 l.I.",
"J.H. .e.N.d.a.m.! 8 s g k l z k a 6 * m -.C.d.5.O.T h 3 l.I.",
"J.H. .e.N.d.u.i.n.5.3.5.8.0.m.J $ f ` m.C.u.t.6.O.T h 3 l.I.",
"J.H. .e.N.d.i.t.u.n.n.f.f.f.C.^ J y.S.s.t.y.y.6.O.T h 3 l.I.",
"J.H. .e.N.d.i.y.y.y.y.y.y.y.t.s.V.f.t.y.y.y.y.6.O.T h 3 l.I.",
"J.H. .e.N.d.a.u.u.u.u.u.u.u.u.i.i.u.u.u.u.u.u.8.+.T j 3 l.I.",
"J.J.} e.N.f.a.y.t.t.t.t.t.t.t.t.t.t.t.t.t.y.y.4.O.T j 4 l.I.",
"J.J.} w.N.i.5.>.>.>.>.>.>.>.>.>.>.>.>.>.>.,.>.&.) K t 2 l.I.",
"J.J.| q.i.*./ ! Q ! ! ! ! ! ! ! ! ! ! ! ! ! ! E L n 9 2 l.I.",
"J.J. .2.O.L b l l l l l l l l l l l l l l l k k a w > 1 z.I.",
"J.I.U x , # + . o o o o o o o o o o o o o o o X X O   @ x.U.",
"J.Y.X.v S Z B B V V V V V V V V V V V V V V V V C Z i F c.L.",
"J.H.U.Y.R./.(.(.(.(.(.(.(.(.(.(.(.(.(.(.(.(.(.(.(./././.K.H.",
"J.J.J.J.J.J.J.J.J.J.J.J.J.J.J.J.J.J.J.J.J.J.J.J.J.J.J.J.J.J."
};
