/* XPM */
static char *branchBottomDisabled_xpm[] = {
/* columns rows colors chars-per-pixel */
"30 30 176 2 ",
"   c #685F5F",
".  c #6B6666",
"X  c #6C6666",
"o  c #6C6767",
"O  c #6D6767",
"+  c #6D6868",
"@  c #6C6C6C",
"#  c #767171",
"$  c gray47",
"%  c #797979",
"&  c #7E7E7E",
"*  c gray50",
"=  c #818181",
"-  c gray51",
";  c #838383",
":  c #848484",
">  c gray52",
",  c #868686",
"<  c gray53",
"1  c #888585",
"2  c #8C8686",
"3  c #808989",
"4  c #858989",
"5  c #868A8A",
"6  c #868B8B",
"7  c #878B8B",
"8  c #888888",
"9  c #8B8B8B",
"0  c #8E8B8B",
"q  c gray55",
"w  c #8D8C8C",
"e  c #8D8D8D",
"r  c #8E8E8E",
"t  c gray56",
"y  c #928F8F",
"u  c #8B9090",
"i  c #889393",
"p  c #8F9A9A",
"a  c #8F9B9B",
"s  c #909090",
"d  c gray57",
"f  c #939091",
"g  c #929292",
"h  c #939393",
"j  c #949190",
"k  c #949191",
"l  c gray58",
"z  c #959595",
"x  c #9D9191",
"c  c #989595",
"v  c #959E9E",
"b  c gray60",
"n  c #9A9A9A",
"m  c #9B9B9B",
"M  c #9F9F9F",
"N  c #94A0A0",
"B  c #94A1A1",
"V  c #95A1A1",
"C  c #95A2A2",
"Z  c #9DA1A1",
"A  c #99A6A6",
"S  c #98A7A7",
"D  c #9BAAAB",
"F  c #A2A2A2",
"G  c #A4A4A4",
"H  c #A5A5A5",
"J  c gray65",
"K  c #A7A7A7",
"L  c #A8A5A5",
"P  c #A5ADAD",
"I  c #A5AEAE",
"U  c gray66",
"Y  c #A9A9A9",
"T  c #AAAAAA",
"R  c gray68",
"E  c #AEAEAE",
"W  c #B7ACAC",
"Q  c #B1B1B1",
"!  c #B2B2B2",
"~  c gray70",
"^  c #B7B7B7",
"/  c #BBB2B2",
"(  c gray72",
")  c #BCBCBC",
"_  c gray",
"`  c gray75",
"'  c #C2BCBC",
"]  c #C4BFBF",
"[  c #AEC1C1",
"{  c #B6C2C2",
"}  c #B6C3C3",
"|  c #B7C3C3",
" . c #BBC7C7",
".. c #B5C9C9",
"X. c #C0C0C0",
"o. c #C1C1C1",
"O. c gray76",
"+. c #C3C3C3",
"@. c #C6C1C1",
"#. c #C7C1C1",
"$. c #C7C2C2",
"%. c gray77",
"&. c #C5C5C5",
"*. c #C6C6C6",
"=. c gray78",
"-. c #C8C8C8",
";. c gray79",
":. c #CBCBCB",
">. c gray80",
",. c #CDCDCD",
"<. c #CECECE",
"1. c gray81",
"2. c #D1CCCC",
"3. c gray82",
"4. c #D2D2D2",
"5. c LightGray",
"6. c #D4D0D0",
"7. c gray83",
"8. c #D5D5D5",
"9. c gray84",
"0. c #D7D7D7",
"q. c #DAD4D4",
"w. c #DBD5D5",
"e. c #DCD6D6",
"r. c #DCD7D7",
"t. c #D8D8D8",
"y. c gray85",
"u. c #DADADA",
"i. c gray86",
"p. c #DDD8D8",
"a. c gainsboro",
"s. c #DDDDDD",
"d. c gray87",
"f. c #DFDFDF",
"g. c #CEECED",
"h. c #CFEEEE",
"j. c #D5F4F4",
"k. c #D6F5F5",
"l. c #D7F6F6",
"z. c #D8F7F7",
"x. c #D8F8F8",
"c. c #DFFDFD",
"v. c #DEFFFF",
"b. c #DFFFFF",
"n. c gray88",
"m. c #E1E1E1",
"M. c #E2E2E2",
"N. c gray89",
"B. c #E4E4E4",
"V. c gray90",
"C. c #E7E7E7",
"Z. c #EDE7E7",
"A. c gray91",
"S. c #EAEAEA",
"D. c gray92",
"F. c gray93",
"G. c #E0FDFD",
"H. c LightCyan",
"J. c #E1FFFF",
"K. c #E2FFFF",
"L. c #E5FFFF",
"P. c #E6FFFF",
"I. c #E8FFFF",
"U. c #E9FFFF",
"Y. c #EBFFFF",
"T. c #ECFFFF",
"R. c #EDFFFF",
"E. c #EEFFFF",
"W. c gray94",
"Q. c #F1F1F1",
"!. c #F3F3F3",
"~. c #F4F4F4",
"^. c gray96",
"/. c #F6F6F6",
"(. c azure",
"). c #F1FFFF",
/* pixels */
"J.J.J.J.J.J.J.J.J.J.J.J.J.J.J.J.J.J.J.J.J.J.J.J.J.J.J.J.J.J.",
"J.b.T.).E.E.E.E.E.E.E.E.E.E.E.E.E.E.E.E.E.E.E.E.E.E.(.).K.H.",
"J.E.[ 3 a a a a a a a a a a a a a a a a a a a a a a i S G.L.",
"J.P.P W $.@.#.@.@.@.@.@.@.@.@.@.@.@.@.@.@.@.@.@.] ' / w g.U.",
"J.v. .Z./.^.^.~.~.~.~.~.~.~.~.~.~.~.~.~.~.~.~.!.Q.S.6.Z h.I.",
"J.H.| p.C.V.N.N.N.N.N.N.N.N.N.N.N.N.N.N.N.N.N.M.d.-.L u j.I.",
"J.H.{ r.B.n.f.d.s.s.s.s.s.N.A.C.C.C.B.d.a.s.d.s.1.~ c 7 k.I.",
"J.H.| e.N.d.i.u.y.y.y.y.m.8.=.;.:.O.+.9.i.u.u.8.+.T f 5 l.I.",
"J.H.| e.N.d.i.y.y.y.y.M.%.e 8 q = g %.y.u.y.y.4.X.U j 6 l.I.",
"J.H.| e.N.d.i.y.y.y.i.m.M * s 8 h t.A.u.t.y.y.5.o.Y j 6 l.I.",
"J.H.| e.N.d.i.y.y.y.i.d.F < d : ` D.t.y.y.y.y.5.o.Y j 6 l.I.",
"J.H.| e.N.d.i.y.y.y.u.n.H , r r <.M.y.y.y.y.y.5.o.Y j 6 l.I.",
"J.H.| e.N.d.i.y.y.y.u.m.J , e d 1.m.y.y.y.y.y.5.o.Y j 6 l.I.",
"J.H.| e.N.d.i.y.y.y.u.N.K > e s <.M.y.y.y.y.y.5.o.Y j 6 l.I.",
"J.H.| e.N.d.i.y.y.0.f.W.R ; q s 0.F.i.t.y.y.y.5.o.Y j 6 l.I.",
"J.H.| e.N.d.i.y.y.M.o.J m e t d U T <.f.y.y.y.5.o.Y j 6 l.I.",
"J.H.| e.N.d.i.y.y.V._ $ 9 h g g & , 7.f.y.y.y.5.o.Y j 6 l.I.",
"J.H.| e.N.d.i.y.y.u.V.J ; g d d - ) C.t.y.y.y.5.o.Y j 6 l.I.",
"J.H.| e.N.d.i.y.y.t.N.3.9 q g , n n.s.y.y.y.y.5.o.Y j 6 l.I.",
"J.H.| e.N.d.i.y.y.y.y.A.! - d > &.C.t.y.y.y.y.5.o.Y j 6 l.I.",
"J.H.| e.N.d.i.y.y.y.y.n.a.z % G V.i.y.y.y.y.y.5.o.Y j 6 l.I.",
"J.H.| e.N.d.a.u.u.u.u.y.A._ ; <.V.y.u.u.u.u.u.7.O.Y k 6 l.I.",
"J.J.{ e.N.f.a.y.t.t.t.t.y.u.3.a.t.t.t.t.t.y.y.3.o.Y k 7 l.I.",
"J.J.{ w.N.i.4.>.>.>.>.>.:.<.5.>.>.>.>.>.>.,.>.&.( H y 5 l.I.",
"J.J.} q.i.*.^ ! Q ! ! ! ! ! ! ! ! ! ! ! ! ! ! E J n 0 5 l.I.",
"J.J.| 2.o.J b z z z z z z z z z z z z z z z l l s e 1 4 z.I.",
"J.I.I x 2 # + . o o o o o o o o o o o o o o o X X O   @ x.U.",
"J.Y...v A C N N B B B B B B B B B B B B B B B B V C p D c.L.",
"J.H.U.Y.R.(.).).).).).).).).).).).).).).).).).).).(.(.(.K.H.",
"J.J.J.J.J.J.J.J.J.J.J.J.J.J.J.J.J.J.J.J.J.J.J.J.J.J.J.J.J.J."
};
