/* XPM */
static char *branchBottomPressed_xpm[] = {
/* columns rows colors chars-per-pixel */
"30 30 113 2 ",
"   c #000002",
".  c #05050A",
"X  c #0A090E",
"o  c #0E0D11",
"O  c #181517",
"+  c #1D1A1B",
"@  c #221E1F",
"#  c #3C2214",
"$  c #231F20",
"%  c #272223",
"&  c #2A2526",
"*  c #2E2A28",
"=  c #352F2D",
"-  c #37302E",
";  c #3F3834",
":  c #573A27",
">  c #533B29",
",  c #413A37",
"<  c #453D39",
"1  c #584739",
"2  c #59483A",
"3  c #67523F",
"4  c #504741",
"5  c #584741",
"6  c #675341",
"7  c #6A5544",
"8  c #645B53",
"9  c #6F5E54",
"0  c #7B7165",
"q  c #836C5B",
"w  c #87725E",
"e  c #857564",
"r  c #867669",
"t  c #8A7768",
"y  c #86796B",
"u  c #8E7D6D",
"i  c #917E6E",
"p  c #8F806D",
"a  c #92816F",
"s  c #878279",
"d  c #88857D",
"f  c #968473",
"g  c #998676",
"h  c #9A8976",
"j  c #9E8978",
"k  c #A08A78",
"l  c #A7937F",
"z  c #787F80",
"x  c #7E8786",
"c  c #838784",
"v  c #878B86",
"b  c #8D918C",
"n  c #869291",
"m  c #889393",
"M  c #939B97",
"N  c #A59584",
"B  c #AB9582",
"V  c #AD9A85",
"C  c #AE9F8F",
"Z  c #B09D87",
"A  c #B29E89",
"S  c #99A09B",
"D  c #B4A28D",
"F  c #BCA78F",
"G  c #AFA092",
"H  c #B6A696",
"J  c #BDA791",
"K  c #BEA891",
"L  c #B7A998",
"P  c #BBAB98",
"I  c #93A1A0",
"U  c #9EA7A3",
"Y  c #9EA8A3",
"T  c #A0ADAB",
"R  c #ABBEBE",
"E  c #C6AF96",
"W  c #CEB69C",
"Q  c #C5B3A1",
"!  c #CDB8A3",
"~  c #D3BBA2",
"^  c #DCC2A7",
"/  c #D6C3AE",
"(  c #DCC4A9",
")  c #D7C4B0",
"_  c #DEC9B1",
"`  c #E1C7AC",
"'  c #E5CAAE",
"]  c #E7CCB1",
"[  c #EFD4B7",
"{  c #E4D6B8",
"}  c #EAD4BB",
"|  c #F3D6BA",
" . c #F5DABC",
".. c #FBDDBE",
"X. c #B0C2C0",
"o. c #F2DAC1",
"O. c #FCDFC1",
"+. c #FCE1C4",
"@. c #FFE5C9",
"#. c #FFEBCA",
"$. c #FFF1CF",
"%. c #FFF4D2",
"&. c #FFFAD6",
"*. c #FFFEDC",
"=. c #D6F7F9",
"-. c #D7F8FA",
";. c #DCFDFE",
":. c #FFFFE1",
">. c #FFFFEC",
",. c #E1FFFF",
"<. c #EAFFFF",
"1. c #F3FFFF",
"2. c #F9FFFF",
/* pixels */
",.,.,.,.;.,.,.,.,.,.;.,.,.;.,.,.;.,.,.;.,.,.;.,.,.;.,.,.,.,.",
",.;.1.2.2.2.2.1.1.2.1.2.2.2.2.2.2.2.2.2.2.2.1.2.2.2.2.2.,.,.",
",.<.R z n n n n n n n n n n n n n n n n n n n n n n x I ,.,.",
",.2.c # 1 1 2 2 1 1 2 1 1 1 1 1 1 1 1 1 1 1 1 1 1 1 > 8 ;.<.",
",.1.M 3 e e u p p p p a p p p p u p p p a u i u y e w s -.,.",
",.1.M 6 t h B V V B V V V V V V V V V V B V Z V l j f d -.<.",
",.<.M 7 f V E W W W W W W W W W W W W W W W W ~ W D h d =.<.",
",.1.M 7 h F ^ ` ' ] ' ' ' ..#.#.#.#.| ' ' ] [ [ ( L j d =.<.",
",.1.M 7 h E ^ [  . . . .#.' V D V g ~ .... .+...] P j d =.<.",
",.<.M 7 g K ^ [ ..+.O.%.( @       0 { +...+.+.o._ P j d =.<.",
",.1.M 7 h K ^ [ ..O.O.*.j   $   r >.#. .....+.o._ L g d =.<.",
";.1.M 7 h F ^ [ ..O...*.N   O + ] &...O...+.+. ._ P g d =.<.",
",.1.M 7 h K ^ [ ..O.O.*.V . o = | #.O.O.O.O.+.o._ P j c =.,.",
",.1.M 7 h K ^ [ ..O.O.*.A . o = | #.O.O...O.+.o._ P k d =.<.",
",.1.M 7 h J ^ [ ......>.! . X - %.*.......O.O.o._ P k d =.<.",
",.<.M 7 h J ^ [ O.+.+.0 , + O & 1 r #.+...+.O. ._ P j d =.<.",
",.1.M 7 g K ^ [ ..+.&.5   & % @   9 *.+...O.+. ._ P j d =.<.",
",.<.M 7 h K ^ [ O...%.| @ X % X * +.#.....O.+.o._ P j c =.<.",
",.1.M 7 h K ^ [ ..O...:.k   +   B *.......+.+. ._ P j c =.<.",
",.1.M 7 h K ^ [ ..O.O.@.$.;   < %.#.......O.+.o._ P j u =.<.",
",.<.M 7 h K ^ [ o.O.O.O.*.J   H *.O.+.o.....+. ._ P N c =.<.",
",.1.M 7 h K ^ | @.O.O.+.+.@.~ @.+.O.+.O.+.+.+.o.] P g d =.<.",
",.1.M 7 h K ` ..o.@.+.O.O.@.*.@.o.@.O.+.+.@.@.o._ P g d =.<.",
",.1.M 6 g K ` | o.o.o.o.o.o.o.o.o.o.o.o.o.o.o.} ~ L g u =.,.",
",.1.M 6 f V ! ) ) ) ) ) ) ) ) ) ) ) ) ) ) ) / ~ Q G g c =.<.",
",.1.M 6 i N H L L L L L L L L L L L L L H J P H G N g d =.<.",
",.1.v : q u u i u u u i y u i t i u y i t i i t t t q 0 =.<.",
",.<.X.b U U U U U U U U U G T T U U U U T S T T T T M T ,.,.",
",.;.<.2.<.<.<.<.<.<.<.<.<.<.<.<.<.<.<.<.<.<.<.<.1.<.<.1.,.,.",
",.,.,.,.,.,.,.,.,.,.,.,.,.,.,.,.,.,.,.,.,.,.,.,.,.,.,.,.,.,."
};
