/* XPM */
static char *branchRightNormal_xpm[] = {
/* columns rows colors chars-per-pixel */
"30 30 137 2 ",
"   c #000001",
".  c #05050C",
"X  c #0A090F",
"o  c #0D0D12",
"O  c #110E13",
"+  c #141216",
"@  c #181619",
"#  c #1D1A1C",
"$  c #221E1F",
"%  c #231F20",
"&  c #262121",
"*  c #2A2525",
"=  c #332D2B",
"-  c #423A35",
";  c #48413B",
":  c #52463A",
">  c #624126",
",  c #674E37",
"<  c #6D533B",
"1  c #71573E",
"2  c #74593F",
"3  c #524740",
"4  c #554B42",
"5  c #5B4F45",
"6  c #625247",
"7  c #675849",
"8  c #6B5C4F",
"9  c #755941",
"0  c #7C6046",
"q  c #7E654B",
"w  c #6C6051",
"e  c #7E705F",
"r  c #886A4F",
"t  c #8C7155",
"y  c #88755E",
"u  c #9B7B5E",
"i  c #AB7B53",
"p  c #857361",
"a  c #817A6D",
"s  c #947E67",
"d  c #927D6A",
"f  c #867D70",
"g  c #9F8063",
"h  c #9D866D",
"j  c #8C8375",
"k  c #988471",
"l  c #9A8972",
"z  c #928779",
"x  c #9A8E7E",
"c  c #A28365",
"v  c #A68668",
"b  c #AF8E6E",
"n  c #A38B71",
"m  c #AB9277",
"M  c #AE947A",
"N  c #B69C7F",
"B  c #CF9F75",
"V  c #C19E7B",
"C  c #818886",
"Z  c #8A928E",
"A  c #91948D",
"S  c #8F9B9A",
"D  c #969D97",
"F  c #9A9E94",
"G  c #909B99",
"H  c #AC9E8A",
"J  c #BB9F82",
"K  c #9BA19A",
"L  c #BBA082",
"P  c #A0A59E",
"I  c #A8A69A",
"U  c #99A6A4",
"Y  c #9DA8A4",
"T  c #AAACA4",
"R  c #BABBAF",
"E  c #BEBFB3",
"W  c #C1A587",
"Q  c #C2A588",
"!  c #CBA68C",
"~  c #C5A98A",
"^  c #CBAD8D",
"/  c #D8AC85",
"(  c #D8B18D",
")  c #CBAF91",
"_  c #CFB191",
"`  c #D7B795",
"'  c #D8B797",
"]  c #DAB997",
"[  c #D7B699",
"{  c #DCBC9A",
"}  c #E0BE9C",
"|  c #D7BBA5",
" . c #D8BDA7",
".. c #BEC0B6",
"X. c #BDC1B9",
"o. c #DBC29F",
"O. c #EAC096",
"+. c #E2C09D",
"@. c #F1C297",
"#. c #DDC8A4",
"$. c #C2C5BD",
"%. c #E6C4A1",
"&. c #E9C7A2",
"*. c #E7CAA5",
"=. c #EBC9A4",
"-. c #F1CDA7",
";. c #F8CCA2",
":. c #F3CEAA",
">. c #F5D2AC",
",. c #FBD5AE",
"<. c #FED8AF",
"1. c #F6D2B2",
"2. c #FAD7B1",
"3. c #FCD9B4",
"4. c #FCDDBD",
"5. c #FFE1B7",
"6. c #FFE4BA",
"7. c #F7E9BE",
"8. c #FFE8BD",
"9. c #AEC1C0",
"0. c #B7C8C5",
"q. c #FBDFC1",
"w. c #FEE4C3",
"e. c #FFEDC2",
"r. c #FFEBCB",
"t. c #FFF2C5",
"y. c #FFF7C9",
"u. c #FFFDCD",
"i. c #FFEED2",
"p. c #FFF2D6",
"a. c #CBEFF5",
"s. c #D3F6FA",
"d. c #D5F8FC",
"f. c #DDFFFF",
"g. c #E1FFFF",
"h. c #ECFFFF",
"j. c #F0FFFF",
/* pixels */
"g.g.g.g.g.g.g.g.g.g.g.g.g.g.g.g.f.g.g.g.g.g.g.g.g.g.g.g.g.g.",
"g.f.h.j.h.h.h.h.h.h.h.h.h.h.h.j.h.h.h.h.h.h.h.h.h.h.h.j.g.g.",
"g.h.9.C S S G G G G G G S G G G S S G G G G G G G G Z U f.g.",
"g.g.T ! | | | | | | | | | | | | | | | | | | | | [ ( B h a.h.",
"g.f.$.w.p.i.i.i.i.i.i.i.i.i.i.i.i.i.i.i.i.i.y.r.w.,.} J a.g.",
"g.f.X.1.w.q.q.q.q.4.q.q.q.4.4.q.4.4.q.4.q.q.4.3.,.] V x s.h.",
"g.f.X.1.q.4.4.4.4.2.4.2.2.4.4.2.4.4.3.3.4.2.3.,.+.^ b z s.h.",
"g.f...>.q.4.2.2.2.2.2.1.2.2.2.2.2.2.2.2.1.2.,.-.] Q v z d.g.",
"f.f.E 1.4.3.2.2.1.,.,.,.,.,.<.,.,.,.,.,.2.<.>.=.` L c j d.h.",
"f.f.E *.4.3.2.2.2.,.,.,.,.,.,.,.,.,.,.,.,.,.,.+.` J c j d.g.",
"g.f.X.1.4.3.2.,.<.,.,.,.,.,.,.3.3.<.,.,.<.,.>.=.` L c j d.h.",
"g.f. .:.4.2.6.! ] e.,.,.,.,.,.<.8.e.,.,.,.,.>.=.` L c j d.g.",
"g.f...:.4.3.e.H : y.t.3.3.3.t.y : o.u.8.,.,.>.=.` L c j d.h.",
"g.f...:.4.2.t.)   6 #.6.5.6.u.8   + e >.u.5.:.=.] L c j d.h.",
"g.f...:.4.3.t.) +   @ ; 4 : 4 = # +   & l 5.5.+.` L c j d.g.",
"g.f.$.:.4.3.t.~ o % @ X X X . @ & & & O   & +.3.` J c j d.h.",
"g.f.E 1.q.3.e.[ . X @ + + + O # & & % . . 4 *.1.` L c j d.h.",
"g.f. .1.4.1.3.e.p O $ * * = = * $ o   - L y.3.%.` L c j d.h.",
"g.f.E :.7.3.1.3.8.%.{ %.&.-.7.5   & l 8.y.<.>.=.` L c j s.h.",
"g.f.E :.4.3.2.>.3.8.8.6.6.6.y.d 7 >.u.5.,.,.>.=.` L c j d.g.",
"g.f...:.4.3.2.2.,.,.,.,.,.,.,.5.t.8.,.,.,.,.,.&.] L c j d.g.",
"g.f...:.4.3.2.2.,.,.,.,.,.,.,.,.,.>.,.,.,.,.>.&.` L c j d.h.",
"g.f.E ;.3.,.,.:.>.=.=.:.-.:.-.-.-.-.-.-.-.-.=.+._ N s j d.h.",
"g.f.$.;.3.-.&.} { +.+.} } { } } } } } } } } ] ` Q m u j d.h.",
"g.f.E @.+.] ^ ^ ~ ~ ~ ~ ~ ~ ~ ~ ~ ~ ~ ~ ~ ~ W J m h t f d.h.",
"g.g.R / ^ J m n n n n n n n n n n n n n n n n h s y q a d.h.",
"g.g.I i u r 0 9 9 9 2 2 9 9 9 9 9 9 9 9 9 9 2 1 < , > w d.h.",
"g.h.0.F P K D F D D D F D D D D D D D D D D D D D D A Y g.g.",
"g.g.h.g.h.h.h.j.h.j.j.h.j.j.h.j.j.h.j.j.h.j.j.j.h.j.j.j.g.g.",
"g.g.g.g.g.g.g.g.g.g.g.g.g.g.g.g.g.g.g.g.g.g.g.g.g.g.g.g.g.g."
};
