/* XPM */
static char *branchRightMouseOver_xpm[] = {
/* columns rows colors chars-per-pixel */
"30 30 153 2 ",
"   c #000001",
".  c #05050C",
"X  c #0A090F",
"o  c #0D0D12",
"O  c #110E13",
"+  c #141216",
"@  c #181619",
"#  c #1D1A1C",
"$  c #221E1F",
"%  c #231F20",
"&  c #262121",
"*  c #2A2525",
"=  c #332D2B",
"-  c #423A35",
";  c #48413B",
":  c #52463A",
">  c #524740",
",  c #554B42",
"<  c #5B4F45",
"1  c #625247",
"2  c #675849",
"3  c #6B5C4F",
"4  c #706054",
"5  c #6F765D",
"6  c #7E705F",
"7  c #747A5F",
"8  c #777D62",
"9  c #797F65",
"0  c #8C484B",
"q  c #80524D",
"w  c #855751",
"e  c #8D5E57",
"r  c #8F5F58",
"t  c #8C6759",
"y  c #96655C",
"u  c #88765F",
"i  c #857361",
"p  c #947E67",
"a  c #977967",
"s  c #A16E65",
"d  c #A77D6B",
"f  c #578062",
"g  c #598965",
"h  c #5F9265",
"j  c #589068",
"k  c #579969",
"l  c #5B9C69",
"z  c #638C64",
"x  c #7B8065",
"c  c #619466",
"v  c #639769",
"b  c #699B6D",
"n  c #73946E",
"m  c #7F9E76",
"M  c #55B072",
"N  c #5FB776",
"B  c #3EE67C",
"V  c #3FEB7D",
"C  c #40D579",
"Z  c #49DD7F",
"A  c #45DA7D",
"S  c #808468",
"D  c #888B6D",
"F  c #9D866D",
"G  c #9A8972",
"H  c #9A8574",
"J  c #9A9A7A",
"K  c #AD8370",
"L  c #A38B71",
"P  c #B18672",
"I  c #B58875",
"U  c #AB9277",
"Y  c #AE947A",
"T  c #BE917B",
"R  c #B69C7F",
"E  c #83B07E",
"W  c #4ADD80",
"Q  c #4DE182",
"!  c #41EA81",
"~  c #55E584",
"^  c #58E585",
"/  c #52EF87",
"(  c #58E987",
")  c #59EC88",
"_  c #44F285",
"`  c #4DF385",
"'  c #4DF689",
"]  c #4FFA8C",
"[  c #51F68B",
"{  c #58F38A",
"}  c #51F88C",
"|  c #BB9F82",
" . c #82A480",
".. c #86B585",
"X. c #86B788",
"o. c #8BBB8B",
"O. c #BBA082",
"+. c #E18583",
"@. c #C1A587",
"#. c #CFA087",
"$. c #C2A588",
"%. c #C5A98A",
"&. c #CBAD8D",
"*. c #CBAF91",
"=. c #CFB191",
"-. c #D7B795",
";. c #D8B797",
":. c #DAB997",
">. c #DCBC9A",
",. c #F4A79B",
"<. c #E0BE9C",
"1. c #F3B19B",
"2. c #F1B6A3",
"3. c #F0BBAF",
"4. c #EEBEB7",
"5. c #F1B1BC",
"6. c #F0BFBB",
"7. c #DBC29F",
"8. c #E2C09D",
"9. c #DDC8A4",
"0. c #E6C4A1",
"q. c #E9C7A2",
"w. c #E7CAA5",
"e. c #EBC9A4",
"r. c #F1CDA7",
"t. c #FFC7AC",
"y. c #F1CEA8",
"u. c #F9C2A2",
"i. c #F5D2AC",
"p. c #FBD5AE",
"a. c #FED8AF",
"s. c #EFC0BB",
"d. c #F1C1BC",
"f. c #FAD7B1",
"g. c #FCD9B4",
"h. c #FFD2BC",
"j. c #FCDDBD",
"k. c #FFE1B7",
"l. c #FFE4BA",
"z. c #F7E9BE",
"x. c #FFE8BD",
"c. c #FFD3C2",
"v. c #FBDFC1",
"b. c #FFD8C9",
"n. c #FEE5C3",
"m. c #FFEDC2",
"M. c #FFEBCB",
"N. c #FFF2C5",
"B. c #FFF7C9",
"V. c #FFFDCD",
"C. c #FFEED2",
"Z. c #FFE8DA",
"A. c #FFF2D6",
/* pixels */
"^ ^ ^ ^ ^ ^ ^ ^ ^ ^ ~ ^ ^ ^ ^ ^ ^ ^ ^ ^ ^ ^ ~ ^ ^ ^ ^ ^ ^ ^ ",
"^ ^ { ` ` ` ` ` ` ` ` ` ` ` ` ` ` _ ` ` ` ` ` ` ` ` ' [ ^ ^ ",
"^ { M f j j j j j j j j j j j j j j j j j j j j j j g k ^ ) ",
"^ B E 5.s.6.6.6.6.6.6.s.s.s.s.6.6.6.6.4.6.6.6.4.4.2.,.H C ) ",
"^ B o.Z.Z.A.C.C.C.C.C.C.C.C.C.C.C.C.C.C.C.C.A.M.x.p.u.J C ) ",
"~ B X.b.n.n.v.v.v.j.v.v.v.v.v.j.v.v.v.j.j.j.j.g.y.>.#.D A ) ",
"~ B ..c.v.v.j.j.f.g.f.j.j.g.g.g.j.g.g.g.g.g.f.p.q.&.T S A ) ",
"^ B ..c.j.g.f.f.f.f.f.f.f.f.f.f.f.f.g.f.f.g.a.r.>.@.I 9 Z ) ",
"^ B X.c.v.g.f.f.f.i.p.f.p.p.f.p.a.p.a.p.p.a.i.q.-.O.P x W ) ",
"^ B ..c.j.f.f.f.g.i.p.p.p.p.p.p.p.p.p.p.p.p.i.q.-.O.P x W ) ",
"^ B ..c.j.g.f.f.g.p.p.p.p.p.p.g.g.p.p.p.p.p.i.q.-.O.P x W ) ",
"^ B ..c.j.f.l.*.;.m.p.p.p.p.p.p.m.x.p.p.p.p.i.q.-.O.P x Z ) ",
"^ B ..c.j.g.m.Y : B.N.g.g.g.N.u : 7.V.x.p.p.i.q.;.O.P x W ) ",
"^ B ..c.v.f.N.*.  1 9.k.k.l.V.3   + 6 i.V.k.i.q.-.O.P x W ) ",
"^ B ..c.j.g.N.=.O   # ; , : , = # +   & G k.k.0.-.O.P x W ) ",
"^ B ..c.j.g.N.%.o % @ o . X . @ * & & o   % 0.f.-.O.P x W ) ",
"^ B ..c.j.f.m.>.. . # + + + O # & & & .   , w.f.-.O.P x Z ) ",
"^ B ..c.j.g.g.x.i O $ * * = = * # o   - O.V.g.0.-.O.P x W ) ",
"^ B ..c.j.f.f.g.x.0.>.0.q.y.n.<   & G z.B.f.i.q.-.O.P x W ) ",
"^ B ..c.j.g.f.i.f.x.x.l.k.l.B.p 2 f.V.k.p.p.i.q.-.O.P x W ) ",
"^ B ..c.j.g.f.f.p.p.p.p.p.p.p.k.N.k.p.p.p.p.p.q.-.| P x W ) ",
"^ B ..h.j.g.f.f.p.p.p.p.p.p.p.f.f.p.p.p.p.p.i.q.-.R P x W ) ",
"^ B ..h.g.f.p.y.y.r.y.y.r.r.y.r.r.y.r.r.r.r.e.<.-.R K 9 W ) ",
"^ B ..h.g.r.q.8.<.<.<.<.<.>.<.<.<.>.<.<.<.<.>.-.$.Y d 8 W ) ",
"^ B ..t.q.-.&.&.$.%.%.%.%.%.%.%.%.%.%.%.%.%.O.| Y F a 7 Z ) ",
"^ ! E 1.%.R U L L L L L L L L L L L L L L L L F p i t 5 ~ ( ",
"^ _ m +.I s y e e e e e e e e e e e r e e e e e q q 0 4 ~ / ",
"^ [ N n b v c c h c c z h h c h h h c c h h h h c c z l ~ ( ",
"^ ^ / _ ` ' ' [ [ [ [ ' [ } [ [ [ [ [ [ [ [ } } [ } } } ^ ^ ",
"^ ^ ^ ^ ^ ^ ^ ^ ^ ^ ^ ^ ^ ^ ^ ~ ~ ^ ^ ^ ^ ~ ^ ^ ^ ^ ^ ^ ^ ^ "
};
