/* XPM */
static char *closeFileMouseOver_xpm[] = {
/* columns rows colors chars-per-pixel */
"30 30 160 2 ",
"   c #010105",
".  c #08060C",
"X  c #120E13",
"o  c #191619",
"O  c #221E1E",
"+  c #261F20",
"@  c #242020",
"#  c #2C2625",
"$  c #342D2B",
"%  c #3B322E",
"&  c #3D3531",
"*  c #3D3C36",
"=  c #403733",
"-  c #433B35",
";  c #4B3F38",
":  c #4D433C",
">  c #52463E",
",  c #52483F",
"<  c #534740",
"1  c #554A41",
"2  c #5A4D44",
"3  c #5D5047",
"4  c #5B5248",
"5  c #605449",
"6  c #63594D",
"7  c #756556",
"8  c #786658",
"9  c #7C6D5D",
"0  c #6F765D",
"q  c #747A5F",
"w  c #777D62",
"e  c #797F65",
"r  c #8C484B",
"t  c #80524D",
"y  c #855751",
"u  c #8D5E57",
"i  c #8F5F58",
"p  c #8C6759",
"a  c #816F5F",
"s  c #96655C",
"d  c #88765F",
"f  c #857261",
"g  c #8B7665",
"h  c #927C67",
"j  c #927C69",
"k  c #9B7463",
"l  c #A16E65",
"z  c #A77D6B",
"x  c #578062",
"c  c #598965",
"v  c #5F9265",
"b  c #589068",
"n  c #579969",
"m  c #5B9C69",
"M  c #638C64",
"N  c #7B8065",
"B  c #619466",
"V  c #639769",
"C  c #699B6D",
"Z  c #73946E",
"A  c #7F9E76",
"S  c #55B072",
"D  c #5FB776",
"F  c #3EE67C",
"G  c #3FEB7D",
"H  c #40D579",
"J  c #49DD7F",
"K  c #45DA7D",
"L  c #808468",
"P  c #888B6D",
"I  c #96816E",
"U  c #9C856E",
"Y  c #9B8672",
"T  c #9A9A7A",
"R  c #AD8370",
"E  c #A38B71",
"W  c #B18672",
"Q  c #B58875",
"!  c #AB9277",
"~  c #AE9479",
"^  c #BE917B",
"/  c #B69C7F",
"(  c #83B07E",
")  c #4ADD80",
"_  c #4DE182",
"`  c #41EA81",
"'  c #55E584",
"]  c #58E585",
"[  c #52EF87",
"{  c #58E987",
"}  c #59EC88",
"|  c #44F285",
" . c #4DF385",
".. c #4DF689",
"X. c #4FFA8C",
"o. c #51F68B",
"O. c #58F38A",
"+. c #51F88C",
"@. c #BA9E82",
"#. c #B69C82",
"$. c #82A480",
"%. c #86B585",
"&. c #86B788",
"*. c #8BBB8B",
"=. c #BBA082",
"-. c #E18583",
";. c #C1A587",
":. c #CFA087",
">. c #C2A689",
",. c #C5A88A",
"<. c #CAAD8E",
"1. c #CEB090",
"2. c #D5B595",
"3. c #DBBA97",
"4. c #D6BB9B",
"5. c #DDBC99",
"6. c #F4A79B",
"7. c #E0BF9C",
"8. c #F3B19B",
"9. c #F1B6A3",
"0. c #F0BBAF",
"q. c #EEBEB7",
"w. c #F1B1BC",
"e. c #F0BFBB",
"r. c #DCC39F",
"t. c #E2C09D",
"y. c #E7C4A0",
"u. c #E9C6A1",
"i. c #E5C9A6",
"p. c #EBC9A4",
"a. c #F1CDA7",
"s. c #FFC7AC",
"d. c #F1CDA8",
"f. c #F9C2A2",
"g. c #EBD4AE",
"h. c #F6D2AB",
"j. c #FBD5AE",
"k. c #FED8AF",
"l. c #EFC0BB",
"z. c #F1C1BC",
"x. c #FBD7B1",
"c. c #FDDBB5",
"v. c #FFD2BC",
"b. c #FCDDBD",
"n. c #FFE4BA",
"m. c #FFEABE",
"M. c #FFD3C2",
"N. c #FBDFC1",
"B. c #FFD8C9",
"V. c #FEE5C3",
"C. c #FFEDC1",
"Z. c #FFEBCB",
"A. c #FFF2C5",
"S. c #FFF5C9",
"D. c #FFFACE",
"F. c #FFEED2",
"G. c #FFE8DA",
"H. c #FFF2D6",
"J. c #FFFED3",
"K. c #FFFFD8",
/* pixels */
"] ] ] ] ' ' ] ] ] ] ] ] ] ] ] ] ' ' { ] ] ] ] ] ] ] ] ] ] ] ",
"] ] O. . . ... . . . . . . . . . .|  ... . . . . . ...o.] ] ",
"] O.S x b b b b b b b b b b b b b b b b b b b b b b c n ] ] ",
"] F ( w.l.e.e.e.e.e.e.l.l.l.l.e.l.q.q.q.e.e.e.q.0.9.6.Y H } ",
"] F *.G.G.H.F.F.F.F.F.F.F.F.F.F.F.F.F.F.F.F.Z.Z.V.x.f.T H } ",
"' F &.B.V.V.N.N.b.b.N.N.b.N.N.b.N.N.b.N.N.N.n.c.h.3.:.P K } ",
"' F %.M.N.b.b.c.x.b.x.b.c.c.c.c.b.b.x.x.c.b.c.j.u.<.^ L ) } ",
"] F %.M.b.b.x.b.S.S.S.S.D.C.c.x.x.x.x.x.x.x.j.a.3.;.Q e ) } ",
"] F %.M.N.x.m.x.I j I I h #.C.n.k.x.c.k.x.x.h.p.2.=.W N J } ",
"] F %.M.b.n.g.- + * - - * . 4 C.m.n.n.m.n.A.m.t.2.=.W N ) } ",
"] F %.v.b.D.g O C.C.n.m.A.r.# % 6 4 2 2 3 , >.n.2.=.W N ) } ",
"] F %.M.b.J.9 , D.c.c.c.x.J.n.4 ; 2 2 2 2 & o <.p.=.W N ) } ",
"] F %.M.b.D.9 2 J.n.n.n.A.i.; = 4 2 2 3 4 >   h x.=.W N ) } ",
"] F %.M.b.D.Y o : = = - * X > g.j.a.a.a.j.r.O a k.=.W N ) } ",
"] F %.M.b.D.Y   f E U U j / m.m.c.n.c.n.n.D.3 7 k.=.W N ) } ",
"] F %.M.b.J.9 > K.S.A.A.A.C.x.j.j.j.j.j.k.m.1 7 k.=.W N J } ",
"] F %.M.b.H.a , A.j.j.j.j.j.j.j.j.j.j.j.x.m.1 7 j.=.W N J } ",
"] F %.M.b.D.a > C.k.j.j.j.j.j.j.j.j.j.j.x.A., 8 k.=.W N J } ",
"] F %.M.b.D.9 , A.j.j.j.j.j.j.j.j.j.j.j.j.A.2 7 k.=.W N J } ",
"] F %.M.b.J.8 $ J.D.A.A.A.A.A.A.A.A.A.A.S.J.% 7 k./ W N _ } ",
"] F %.M.b.C.4.o : 9 8 7 7 7 7 7 7 7 7 7 9 : O 2.p.=.W N J } ",
"] F %.M.b.x.A.2.> > 2 2 2 2 2 2 2 2 2 2 , 1 2.n.2.=.W N ) } ",
"] F %.v.c.x.h.n.C.m.m.m.m.m.m.m.m.m.m.m.m.m.x.7.<./ R e _ } ",
"] F %.v.x.a.u.t.7.r.t.t.5.t.7.7.7.7.r.t.t.7.3.2.>.~ z w _ } ",
"] F %.s.u.2.1.,.,.,.,.,.,.,.,.,.,.,.,.,.,.,.>.=.~ U k q J } ",
"] ` ( 8.,./ ! E E E E E E E E E E E E E U E E U h d p q _ } ",
"] | A -.Q l s i u u i u u u u u u u u u u u u u r 7 r 7 ' { ",
"] o.D Z C V B v v B B M v v v v B v v B v v v v v v M n ' { ",
"] ] [ |  .....o.o.o.o...+.o.o.X.o.o.o.o.o...+.+. .+.+. .{ ] ",
"] ] ] ] ] ] ] ] ] ] ] ] ] ] ] ] ] ' ] ] ] ] ] ] ] ] ] ] ] ] "
};
