/* XPM */
static char *closeFilePressed_xpm[] = {
/* columns rows colors chars-per-pixel */
"30 30 123 2 ",
"   c #131013",
".  c #1D1719",
"X  c #1E1A1C",
"o  c #201B1C",
"O  c #3C2214",
"+  c #2F2928",
"@  c #332C2B",
"#  c #37312E",
"$  c #39312F",
"%  c #3C3532",
"&  c #3E3936",
"*  c #573A27",
"=  c #533B29",
"-  c #423A36",
";  c #453D39",
":  c #4A3F3C",
">  c #45443F",
",  c #4A423D",
"<  c #584739",
"1  c #59483A",
"2  c #67523F",
"3  c #544C44",
"4  c #584D45",
"5  c #5E534B",
"6  c #675341",
"7  c #6A5544",
"8  c #665B52",
"9  c #695D54",
"0  c #6F6257",
"q  c #77695E",
"w  c #786A5E",
"e  c #797067",
"r  c #836C5B",
"t  c #87725E",
"y  c #847565",
"u  c #8A7768",
"i  c #8E7D6D",
"p  c #917E6E",
"a  c #8F806D",
"s  c #92816F",
"d  c #8E8173",
"f  c #878279",
"g  c #88857D",
"h  c #968473",
"j  c #988674",
"k  c #9A8976",
"l  c #9E8978",
"z  c #A7937F",
"x  c #787F80",
"c  c #7E8786",
"v  c #838784",
"b  c #878B86",
"n  c #8D918C",
"m  c #869291",
"M  c #889393",
"N  c #939B97",
"B  c #A69584",
"V  c #A89481",
"C  c #AD9A85",
"Z  c #AE9F8F",
"A  c #B09D87",
"S  c #B29D89",
"D  c #99A09B",
"F  c #B3A28D",
"G  c #BAA48F",
"H  c #AFA092",
"J  c #B6A696",
"K  c #B1A993",
"L  c #BEA891",
"P  c #B7A998",
"I  c #BBAB98",
"U  c #93A1A0",
"Y  c #9EA7A3",
"T  c #9EA8A3",
"R  c #A0ADAB",
"E  c #ABBEBE",
"W  c #C3AD94",
"Q  c #CCB59C",
"!  c #C5B3A1",
"~  c #CDB8A3",
"^  c #D5BCA3",
"/  c #D9BFA5",
"(  c #D6C3AE",
")  c #DCC4AB",
"_  c #DBC9AF",
"`  c #D7C4B0",
"'  c #DEC9B2",
"]  c #E1C7AC",
"[  c #E5CAAE",
"{  c #E3CDB5",
"}  c #EACFB2",
"|  c #EED2B5",
" . c #E3D6B9",
".. c #EBD6BA",
"X. c #E6DFBF",
"o. c #F1D4B7",
"O. c #F2D6BA",
"+. c #F6DABC",
"@. c #FADDBE",
"#. c #B0C2C0",
"$. c #F1DAC2",
"%. c #FBDEC0",
"&. c #EAE2C3",
"*. c #F7E0C6",
"=. c #FEE3C6",
"-. c #F0E8C7",
";. c #FFE8C7",
":. c #FFE6CA",
">. c #FFEBCB",
",. c #FFEFD1",
"<. c #FFF4D3",
"1. c #FFF8D6",
"2. c #FFF7D9",
"3. c #FFFEDC",
"4. c #D6F7F9",
"5. c #D7F8FA",
"6. c #DCFDFE",
"7. c #FFFFE1",
"8. c #FFFFEC",
"9. c #E1FFFF",
"0. c #EAFFFF",
"q. c #F3FFFF",
"w. c #F9FFFF",
/* pixels */
"9.9.9.9.6.9.9.6.9.9.6.9.9.6.9.9.6.9.9.6.9.9.6.9.9.6.9.9.9.9.",
"9.6.q.w.w.w.w.w.w.w.w.q.w.w.q.w.w.w.w.q.w.w.q.w.w.w.w.w.9.6.",
"9.0.E x M m m m m m m m m m m m m m m m m m m m m m c U 6.0.",
"9.w.v O < < < < < < < < < 1 1 < 1 1 1 1 < < 1 < < < = 8 5.0.",
"9.q.N 2 y y a s a a p s a a i a s a a a i a a i u y t f 5.0.",
"9.q.N 6 u l z C C C C C C C C C C C C C C C C V B k s g 5.0.",
"9.0.N 7 h C W Q Q Q Q Q Q Q Q Q Q Q ^ Q Q Q ^ ^ Q F k g 4.0.",
"9.q.N 7 k G ) ] | @.+.+.@.+.[ [ [ [ [ [ [ } | | ) I l g 4.0.",
"9.q.N 7 l L / ;.@.^ ( ^ ^ | <.@.O.+.+.+.+.+.=.+.] I l g 4.9.",
"9.0.N 7 k L o.Q $ # ; - % . h 7.7.3.3.3.3.3.:.+.' I l g 4.0.",
"9.q.N 7 k W +.% 9 &.[ [ ..F X 3 y w w w 9 V <.*.' I l g 4.0.",
"6.q.N 7 k W ] % Q 3.,.>.>.8.*., - , , , ,   d 2.{ I l g 4.0.",
"9.q.N 7 k W [ ; W 3.;.;.<...5 , 9 8 8 9 9   % ,.{ I l v 4.0.",
"9.q.N 7 k W } 3 @ , , , > X 4  .+.| | o.-.q % :.{ P l g 4.0.",
"9.q.N 7 k W | % , K F C z W <.<.;.:.>.:.7.! : %.{ I l g 4.0.",
"9.0.N 7 k W [ - Q 8.<.<.1.<.=.@.%.@.@.%.<.G 3 %.{ W l g 4.9.",
"9.q.N 7 j W [ , G <.%.%.%.%.%.%.%.%.%.@.<.F , ;.{ I l g 4.0.",
"9.0.N 7 k W [ ; F <.%.%.%.%.@.@.%.%.%.@.<.G , =.{ I l g 4.0.",
"9.q.N 7 k W [ % Q 7.:.>.>.>.>.>.>.>.>.>.7.Q - %.{ I l g 4.0.",
"9.q.N 7 k W O.% 5 &.} ] ] ] ] { [ [ [ [ &.4 : 2.{ I l g 4.0.",
"6.q.N 7 k L o.Q # # ; - - - - ; - - - - @ % ` ,.` I l g 4.0.",
"9.q.N 7 k L ) >.:./ ` ) / ] ) ` ) ) ) ( ^ >.2.+.{ I l g 4.0.",
"9.q.N 7 k L ) @.:.,.,.,.,.,.,.,.,.,.,.,.<.:.%.$.' P l v 4.0.",
"6.q.N 7 h L ) O.$.$.$.$.$.$.$.$.$.$.$.$.$.$.$.$./ J l p 4.9.",
"9.q.N 6 h Z ~ ( ` ` ` ` / ` ` ` ` ` ` ` / ` ` / ! H j v 4.0.",
"9.q.N 2 p B K P P P P P I G P P P P P P I G P P H B p v 4.9.",
"9.w.b * w i u p i i p p u p p u i p i i u p p u u u r y 4.0.",
"9.0.#.n Y H R R Y Y Y Y R D R R Y Y Y Y R D R R R R N R 9.9.",
"9.6.0.q.0.0.0.0.0.0.0.0.0.0.0.0.0.0.0.0.0.0.0.0.q.0.0.q.9.9.",
"9.9.9.9.9.9.9.9.9.9.9.9.9.9.9.9.9.9.9.9.9.9.9.9.9.9.9.9.9.9."
};
