/* XPM */
static char *createSubProcessDisabled_xpm[] = {
/* columns rows colors chars-per-pixel */
"30 30 199 2 ",
"   c #685F5F",
".  c #6B6666",
"X  c #6C6666",
"o  c #6C6767",
"O  c #6D6767",
"+  c #6D6868",
"@  c #6C6C6C",
"#  c #767171",
"$  c #767676",
"%  c #797979",
"&  c gray48",
"*  c #7B7B7B",
"=  c #7C7C7C",
"-  c gray49",
";  c #7E7E7E",
":  c gray50",
">  c #808080",
",  c #818181",
"<  c gray51",
"1  c #838383",
"2  c #848484",
"3  c gray52",
"4  c #868686",
"5  c gray53",
"6  c #888585",
"7  c #8C8686",
"8  c #808989",
"9  c #858989",
"0  c #868A8A",
"q  c #868B8B",
"w  c #878B8B",
"e  c #888888",
"r  c #898989",
"t  c gray54",
"y  c #8B8B8B",
"u  c #8E8B8B",
"i  c gray55",
"p  c #8D8C8C",
"a  c #8D8D8D",
"s  c #8E8E8E",
"d  c gray56",
"f  c #928F8F",
"g  c #8B9090",
"h  c #889393",
"j  c #8F9A9A",
"k  c #8F9B9B",
"l  c #909090",
"z  c gray57",
"x  c #939091",
"c  c #929292",
"v  c #939393",
"b  c #949190",
"n  c #949191",
"m  c gray58",
"M  c #959595",
"N  c #979797",
"B  c #9D9191",
"V  c #989595",
"C  c #959E9E",
"Z  c #989898",
"A  c gray60",
"S  c #9A9A9A",
"D  c #9B9B9B",
"F  c gray61",
"G  c #9D9D9D",
"H  c gray62",
"J  c #9F9F9F",
"K  c #94A0A0",
"L  c #94A1A1",
"P  c #95A1A1",
"I  c #95A2A2",
"U  c #9DA1A1",
"Y  c #99A6A6",
"T  c #98A7A7",
"R  c #9BAAAB",
"E  c #A0A0A0",
"W  c gray63",
"Q  c #A2A2A2",
"!  c gray64",
"~  c #A4A4A4",
"^  c #A5A5A5",
"/  c gray65",
"(  c #A7A7A7",
")  c #A8A5A5",
"_  c #A5ADAD",
"`  c #A5AEAE",
"'  c #A9A8A8",
"]  c #A9A9A9",
"[  c #AAAAAA",
"{  c #ACACAC",
"}  c #AEAEAE",
"|  c #AFAFAF",
" . c #B7ACAC",
".. c gray69",
"X. c #B1B1B1",
"o. c #B2B2B2",
"O. c gray70",
"+. c #B4B4B4",
"@. c gray71",
"#. c #B6B6B6",
"$. c #B7B7B7",
"%. c #BBB2B2",
"&. c gray72",
"*. c #B9B9B9",
"=. c #BBBBBB",
"-. c #BCBCBC",
";. c #C2BCBC",
":. c #C4BFBF",
">. c #AEC1C1",
",. c #B6C2C2",
"<. c #B6C3C3",
"1. c #B7C3C3",
"2. c #BBC7C7",
"3. c #B5C9C9",
"4. c #C0C0C0",
"5. c #C1C1C1",
"6. c gray76",
"7. c #C3C3C3",
"8. c #C6C1C1",
"9. c #C7C1C1",
"0. c #C7C2C2",
"q. c gray77",
"w. c #C5C5C5",
"e. c #C6C6C6",
"r. c gray78",
"t. c #C8C8C8",
"y. c gray79",
"u. c #CACACA",
"i. c #CBCBCB",
"p. c gray80",
"a. c #CDCDCD",
"s. c #CECECE",
"d. c gray81",
"f. c #D1CCCC",
"g. c #D0D0D0",
"h. c #D2D2D2",
"j. c #D4D0D0",
"k. c gray83",
"l. c #D5D5D5",
"z. c gray84",
"x. c #D7D7D7",
"c. c #DAD4D4",
"v. c #DBD5D5",
"b. c #DBD6D6",
"n. c #DCD6D6",
"m. c #DCD7D7",
"M. c #D8D8D8",
"N. c gray85",
"B. c #DADADA",
"V. c gray86",
"C. c #DDD8D8",
"Z. c gainsboro",
"A. c #DDDDDD",
"S. c gray87",
"D. c #DFDFDF",
"F. c #CEECED",
"G. c #CFEEEE",
"H. c #D5F4F4",
"J. c #D6F5F5",
"K. c #D7F6F6",
"L. c #D8F7F7",
"P. c #D8F8F8",
"I. c #DFFDFD",
"U. c #DEFFFF",
"Y. c #DFFFFF",
"T. c gray88",
"R. c #E1E1E1",
"E. c #E2E2E2",
"W. c gray89",
"Q. c #E4E4E4",
"!. c gray90",
"~. c #E6E6E6",
"^. c #E7E7E7",
"/. c #EDE7E7",
"(. c gray91",
"). c #E9E9E9",
"_. c #EAEAEA",
"`. c gray93",
"'. c #EEEEEE",
"]. c #EFEFEF",
"[. c #E0FDFD",
"{. c LightCyan",
"}. c #E1FFFF",
"|. c #E2FFFF",
" X c #E5FFFF",
".X c #E6FFFF",
"XX c #E8FFFF",
"oX c #E9FFFF",
"OX c #EBFFFF",
"+X c #ECFFFF",
"@X c #EDFFFF",
"#X c #EEFFFF",
"$X c #F1F1F1",
"%X c #F3F3F3",
"&X c #F4F4F4",
"*X c gray96",
"=X c #F6F6F6",
"-X c azure",
";X c #F1FFFF",
/* pixels */
"}.}.}.}.}.}.}.}.}.}.}.}.}.}.}.}.}.}.}.}.}.}.}.}.}.}.}.}.}.}.",
"}.Y.+X;X#X#X#X#X#X#X#X#X#X#X#X#X#X#X#X#X#X#X#X#X#X#X-X;X|.{.",
"}.#X>.8 k k k k k k k k k k k k k k k k k k k k k k h T [. X",
"}..X_  .0.8.9.8.8.8.8.8.8.8.8.8.8.8.8.8.8.8.8.8.:.;.%.p F.oX",
"}.U.2./.=X*X*X&X&X&X&X&X&X&X&X&X&X&X&X&X&X&X&X%X$X_.j.U G.XX",
"}.{.1.C.^.!.W.W.W.W.W.W.W.W.W.W.W.W.W.W.W.W.W.E.S.t.) g H.XX",
"}.{.,.m.Q.T.D.S.A.A.A.A.A.A.A.A.A.A.A.A.A.A.S.A.d.O.V w J.XX",
"}.{.1.n.W.S.V.B.N.N.N.V.A.B.N.N.N.M.Z.~.E.!.W.k.6.[ x 0 K.XX",
"}.{.1.n.W.S.V.N.N.x.Z.T.Z.T.B.M.N.Z.z.+.e.*.q.x.4.' b q K.XX",
"}.{.1.n.W.S.B.B.Z.D.N.~ M X.E.Z.V.).d.= , $ / Q.6.] b q K.XX",
"}.{.1.n.W.A.Z.S.A.`.4.: > t h.).Q.l.c M g.X.5 @.t.[ b q K.XX",
"}.{.1.n.W.S.~.*.Z { z a s i N { W $.t A `.6.% ~ i.[ b q K.XX",
"}.{.1.n.W.).y.< 2 4 r r s r t 4 : H 7.< e * J Z.7.] b q K.XX",
"}.{.1.n.W.).e.i d a c 6.x.o.y l i G d.] | ! -.A.5.] b q K.XX",
"}.{.1.n.W.A.).u.e , $.$X!.(.! , m M.~.E.Q.Q.T.h.5.] b q K.XX",
"}.{.1.n.W.A.(.r.e < +.].~.(.! < v k.!.E.Q.Q.T.h.5.] b q K.XX",
"}.{.1.n.W.).q.r l s d -.l.o.y l i S s.] } Q -.A.5.] b q K.XX",
"}.{.1.n.W.(.p.3 1 4 t e i e r 4 : E 7.< 5 = E A.7.] b q K.XX",
"}.{.1.b.W.A.^.-.F ..c a d i D ..~ *.t Z `.7.& ~ i.[ b q K.XX",
"}.{.1.n.W.S.V.D.T.'.6.: ; y z.).~.l.v M d.| 5 +.t.[ b q K.XX",
"}.{.1.n.W.S.V.B.V.D.N.( A +.T.V.B.).g.- , $ ( Q.6.] b q K.XX",
"}.{.1.n.W.S.Z.B.B.N.A.W.T.E.V.N.B.A.M.#.r.=.r.N.7.] n q K.XX",
"}.}.,.n.W.D.Z.N.M.M.M.N.B.N.M.M.M.x.V.!.R.!.R.g.5.] n w K.XX",
"}.}.,.v.W.V.h.p.p.p.p.p.p.p.p.p.p.p.p.p.p.a.p.w.&.^ f 0 K.XX",
"}.}.<.c.V.e.$.o.X.o.o.o.o.o.o.o.o.o.o.o.o.o.o.} / S u 0 K.XX",
"}.}.1.f.5./ A M M M M M M M M M M M M M M M m m l a 6 9 L.XX",
"}.XX` B 7 # + . o o o o o o o o o o o o o o o X X O   @ P.oX",
"}.OX3.C Y I K K L L L L L L L L L L L L L L L L P I j R I. X",
"}.{.oXOX@X-X;X;X;X;X;X;X;X;X;X;X;X;X;X;X;X;X;X;X;X-X-X-X|.{.",
"}.}.}.}.}.}.}.}.}.}.}.}.}.}.}.}.}.}.}.}.}.}.}.}.}.}.}.}.}.}."
};
