/* XPM */
static char *createSubProcessNormal_xpm[] = {
/* columns rows colors chars-per-pixel */
"30 30 156 2 ",
"   c #000001",
".  c #03030A",
"X  c #0B060C",
"o  c #0A090F",
"O  c #0D0C11",
"+  c #100F13",
"@  c #141214",
"#  c #171518",
"$  c #191719",
"%  c #1D1A1C",
"&  c #221F20",
"*  c #272323",
"=  c #2C2625",
"-  c #2F2826",
";  c #322A27",
":  c #36302E",
">  c #39322E",
",  c #3E3632",
"<  c #403731",
"1  c #423A35",
"2  c #483F39",
"3  c #4C433C",
"4  c #624126",
"5  c #674E37",
"6  c #6D533B",
"7  c #71573E",
"8  c #74593F",
"9  c #554C43",
"0  c #5A4E45",
"q  c #5E5047",
"w  c #5E5248",
"e  c #67584D",
"r  c #755941",
"t  c #6B5C50",
"y  c #7C6046",
"u  c #7E654B",
"i  c #6E6254",
"p  c #7B6B5C",
"a  c #726456",
"s  c #886A4F",
"d  c #83705F",
"f  c #88755E",
"g  c #8C7155",
"h  c #9B7B5E",
"j  c #AB7B53",
"k  c #897563",
"l  c #8C7966",
"z  c #817A6D",
"x  c #8F7B68",
"c  c #947E67",
"v  c #997F6B",
"b  c #867D70",
"n  c #9F8063",
"m  c #96806C",
"M  c #9C856E",
"N  c #8C8375",
"B  c #9A8571",
"V  c #9F8872",
"C  c #928779",
"Z  c #9A8E7E",
"A  c #A28365",
"S  c #A68668",
"D  c #AF8E6E",
"F  c #A08570",
"G  c #A38B72",
"H  c #AB9277",
"J  c #AE9479",
"K  c #B1967D",
"L  c #B69C7F",
"P  c #CF9F75",
"I  c #C19E7B",
"U  c #818886",
"Y  c #8A928E",
"T  c #91948D",
"R  c #8F9B9A",
"E  c #969D97",
"W  c #9A9E94",
"Q  c #909B99",
"!  c #AC9E8A",
"~  c #B59C81",
"^  c #BA9E83",
"/  c #9BA19A",
"(  c #BCA082",
")  c #BBA488",
"_  c #A0A59E",
"`  c #A8A69A",
"'  c #99A6A4",
"]  c #9DA8A4",
"[  c #AAACA4",
"{  c #BABBAF",
"}  c #BEBFB3",
"|  c #C1A587",
" . c #C1A589",
".. c #C5A88A",
"X. c #CBAD8D",
"o. c #CBA68C",
"O. c #D8AC85",
"+. c #D8B18D",
"@. c #CDAF91",
"#. c #CDB192",
"$. c #C5BE9C",
"%. c #D6B695",
"&. c #D8B796",
"*. c #D9B997",
"=. c #D7B699",
"-. c #D5BC9A",
";. c #DCBC9A",
":. c #E0BE9C",
">. c #D7BBA5",
",. c #D8BDA7",
"<. c #BEC0B6",
"1. c #BDC1B9",
"2. c #EAC096",
"3. c #E2C09D",
"4. c #F1C297",
"5. c #D1C9A5",
"6. c #D6D0AA",
"7. c #C2C5BD",
"8. c #E7C5A1",
"9. c #E8C5A1",
"0. c #E7CBA6",
"q. c #EDC9A4",
"w. c #F0CDA7",
"e. c #F8CCA2",
"r. c #F4CEAA",
"t. c #EFD0AA",
"y. c #F6D1AB",
"u. c #F9D4AE",
"i. c #FED8AF",
"p. c #F6D2B2",
"a. c #FAD6B2",
"s. c #FCDAB5",
"d. c #FCDDBD",
"f. c #FFE0B7",
"g. c #FFE4BA",
"h. c #FFEABE",
"j. c #AEC1C0",
"k. c #B7C8C5",
"l. c #FBDFC1",
"z. c #FEE4C3",
"x. c #FFEDC1",
"c. c #FFEBCB",
"v. c #FFF2C5",
"b. c #FFF5C9",
"n. c #FFFDCD",
"m. c #FFEED2",
"M. c #FFF2D6",
"N. c #FFFFD5",
"B. c #FFFFDC",
"V. c #CBEFF5",
"C. c #D3F6FA",
"Z. c #D5F8FC",
"A. c #DDFFFF",
"S. c #E1FFFF",
"D. c #ECFFFF",
"F. c #F0FFFF",
/* pixels */
"S.S.S.S.S.S.S.S.S.S.S.S.S.S.S.S.S.S.S.S.S.S.S.S.S.S.S.S.S.S.",
"S.A.D.F.D.D.D.D.D.D.D.D.D.F.D.D.D.S.D.D.D.D.D.D.D.D.F.F.S.S.",
"S.D.j.U R R R R Q Q Q Q Q Q Q Q R R R R Q Q Q Q R R Y ' S.S.",
"S.S.[ o.>.>.>.>.>.>.>.>.>.>.>.>.>.>.>.>.>.>.>.>.=.+.P M V.D.",
"S.A.7.z.M.m.m.m.m.m.m.m.m.m.m.m.m.m.m.m.m.m.m.c.h.i.2.! V.D.",
"S.A.1.p.z.l.l.l.d.l.d.l.l.d.d.l.l.l.l.d.l.g.d.s.r.*.I Z C.S.",
"S.A.1.p.l.d.d.d.d.s.s.s.a.d.d.a.s.s.s.s.s.s.a.i.9.o.D C Z.S.",
"S.A.<.y.l.d.a.a.a.a.a.s.d.s.a.a.a.u.d.b.c.b.h.q.;.| S N Z.D.",
"A.A.} r.d.s.a.a.u.y.s.h.s.h.s.u.u.s.y.k  .B ^ u.*.( A N Z.S.",
"S.A.} r.d.a.a.s.s.g.u.0 ; d h.s.s.n.;.      q v.&.^ A N Z.D.",
"S.A.} p.d.a.s.f.f.N.K     + 3.n.v.0.= - $.d + l q.( A N Z.D.",
"S.A.} r.d.s.v.B > a & # % @ : a 3 v @ > N.~   q w.| A N Z.S.",
"S.A.<.r.d.v.X.. . . O O $ o O .   3 L   X   3 f.;.( A N Z.D.",
"S.A.7.r.d.v.) # % # * ~ 6.k @ % @ 3 -.t p 9 V f.%.I A N Z.S.",
"S.A.} r.d.a.N.#.o   m B.v.n.9   = y.b.h.v.v.f.8.&.( A N Z.D.",
"S.A.} r.d.a.n...o   k B.b.n.0   = q.v.h.v.x.f.8.%.( A N Z.D.",
"S.A.k.p.l.v.^ O % $ % G 5.k + % # , -.t p 3 G f.&.( A N Z.S.",
"S.A.$.r.d.c.@.. . . O o @ o O .   3 ^   X   3 f.*.( A N Z.D.",
"S.A.<.r.d.a.b.G 1 p * $ % @ , p 9 V @ > N.~   q y.( A N Z.S.",
"S.A.<.r.d.s.a.z.g.N.L     @ r.n.b.0.- - $.p @ l q.( A N Z.D.",
"S.A.$.y.d.s.a.s.s.g.i.e , k g.s.i.n.:.      q v.*.( A N C.D.",
"S.A.k.r.d.s.a.a.u.u.s.h.g.h.i.u.u.s.t.x  .B ( u.&.I A N Z.D.",
"S.A.{ r.s.i.u.y.t.q.q.y.u.y.w.w.t.q.u.h.g.h.f.;.#.L v N Z.S.",
"S.A.7.e.s.r.3.:.:.:.3.:.:.;.:.:.:.3.;.3.3.;.*.%.| H h N Z.D.",
"S.A.$.9.9.&.X.X...| ........................| ^ H M g z A.S.",
"S.S.} O.o.K H G G G G G G G G G G G G G G G G M c f s z Z.D.",
"A.D.` j h s r r 8 r 8 r r r r r r r 8 8 r r 8 7 6 5 4 t Z.D.",
"S.D.k.W [ _ W E E E E E E E E E E E E E E E E E E E T ] S.S.",
"S.S.D.D.S.D.D.D.F.F.D.F.F.D.F.F.F.F.D.F.D.F.F.F.D.F.F.F.S.S.",
"S.S.S.S.S.S.S.S.S.S.S.S.S.S.S.S.S.S.S.S.S.S.S.S.S.S.S.S.S.S."
};
