/* XPM */
static char *createSubProcessPressed_xpm[] = {
/* columns rows colors chars-per-pixel */
"30 30 133 2 ",
"   c #000001",
".  c #040409",
"X  c #0A060B",
"o  c #0E0C10",
"O  c #100E12",
"+  c #131114",
"@  c #181617",
"#  c #171518",
"$  c #191618",
"%  c #1E1B1C",
"&  c #3C2214",
"*  c #2B2626",
"=  c #2E2828",
"-  c #332D2B",
";  c #37302E",
":  c #3A3331",
">  c #573A27",
",  c #533B29",
"<  c #403A36",
"1  c #473F3B",
"2  c #4E453F",
"3  c #584739",
"4  c #59483A",
"5  c #67523F",
"6  c #4F4640",
"7  c #574D46",
"8  c #5C514A",
"9  c #675341",
"0  c #6A5544",
"q  c #61564D",
"w  c #655B53",
"e  c #6D5F56",
"r  c #6F6257",
"t  c #706057",
"y  c #74655B",
"u  c #7D6E62",
"i  c #797067",
"p  c #836C5B",
"a  c #87725E",
"s  c #806F62",
"d  c #857565",
"f  c #8A7768",
"g  c #8E7D6C",
"h  c #917E6E",
"j  c #8F806D",
"k  c #92816F",
"l  c #878279",
"z  c #88857D",
"x  c #938272",
"c  c #988575",
"v  c #9A8976",
"b  c #9E8978",
"n  c #A08E7C",
"m  c #A7937F",
"M  c #787F80",
"N  c #7E8786",
"B  c #838784",
"V  c #878B86",
"C  c #8D918C",
"Z  c #869291",
"A  c #889393",
"S  c #939B97",
"D  c #A69787",
"F  c #A99682",
"G  c #A49885",
"H  c #AD9A85",
"J  c #A79C88",
"K  c #AE9F8F",
"L  c #B09D87",
"P  c #B29E89",
"I  c #99A09B",
"U  c #AFA18C",
"Y  c #B5A28D",
"T  c #BCA78F",
"R  c #AFA092",
"E  c #ADAA9D",
"W  c #B6A696",
"Q  c #BDA790",
"!  c #B2AA94",
"~  c #BEA991",
"^  c #B7A998",
"/  c #BBAB98",
"(  c #BDB49C",
")  c #93A1A0",
"_  c #9EA7A3",
"`  c #9EA8A3",
"'  c #A0ADAB",
"]  c #B7B2A2",
"[  c #ABBEBE",
"{  c #C3AD94",
"}  c #CEB69D",
"|  c #D1B89F",
" . c #C5B3A1",
".. c #CCB7A1",
"X. c #CDB8A2",
"o. c #D3BCA3",
"O. c #D9BFA5",
"+. c #DCC2A7",
"@. c #D6C3AE",
"#. c #DDC4A9",
"$. c #D7C4B0",
"%. c #DDC7B1",
"&. c #DEC9B2",
"*. c #E1C7AC",
"=. c #E5CAAE",
"-. c #E4CEB6",
";. c #E1D3B6",
":. c #EED2B5",
">. c #EAD4BB",
",. c #F0D4B7",
"<. c #F3D7BA",
"1. c #F5D9BB",
"2. c #FBDDBE",
"3. c #B0C2C0",
"4. c #F1DAC2",
"5. c #FBDFC2",
"6. c #FDE2C5",
"7. c #FFE6CA",
"8. c #FFEACB",
"9. c #FFF0CE",
"0. c #FFEFD2",
"q. c #FFF4D2",
"w. c #FFFAD6",
"e. c #FFFEDB",
"r. c #D6F7F9",
"t. c #D7F8FA",
"y. c #DCFDFE",
"u. c #FFFFE2",
"i. c #FFFFEB",
"p. c #E1FFFF",
"a. c #EAFFFF",
"s. c #F3FFFF",
"d. c #F9FFFF",
/* pixels */
"p.p.p.p.y.p.p.y.p.p.y.p.p.y.p.p.p.p.p.p.p.p.y.p.p.y.p.p.p.p.",
"p.y.s.d.d.d.d.d.s.d.s.d.d.d.d.d.s.s.d.s.s.d.s.d.d.d.d.d.p.p.",
"p.a.[ M Z Z Z Z Z Z Z Z Z Z Z Z Z Z Z Z C Z Z Z Z Z N ) p.p.",
"p.d.B & 3 3 4 4 3 4 4 4 3 3 3 3 4 4 4 4 3 3 4 4 3 3 , w y.a.",
"p.s.S 5 d d g j g j g k j j j j k k j k g h h h f d a l t.a.",
"p.s.S 9 f v m H H H H H H H H H L m m H H H H F F v k z t.a.",
"p.a.S 0 x L { } } } | } } } } } | | } } } } } o.} Y v z r.a.",
"p.s.S 0 v T +.=.=.=.=.=.=.=.=.-.=.*.:.:.:.:.:.<.@./ v z r.p.",
"p.s.I 0 v ~ +.:.1.1.1.8.e.8.1.1.1.1.2.8.8.2.6.4.&./ D h r.a.",
"p.a.S 0 v ~ +.:.2.6.8.o.F +.7.6.2.e.x * - r u.6.%.^ c B r.a.",
"p.s.S 0 v ~ +.1.e.u.w.*   : e.u.u.;.- % - # X.8.-.^ n h r.p.",
"p.a.S 0 v T *.6.x H u o + O d G ! y   1.u.  - 8.-./ V h r.a.",
"p.s.S 0 v T 2.f   . . . X . . .   h 6 # * # o.7.*./ b B r.a.",
"p.s.S 0 v { 1.8 . % + u ] r o %   c Y - : y u.5.%./ D h r.p.",
"p.a.S 0 v T *.8.7   7 u.u.w.1   w w.8.w.w.8.7.4.&./ c z r.a.",
"p.s.S 0 c { *.7.7   6 e.i.e.1   q q.8.w.w.8.5.4.&./ c z r.a.",
"p.s.S 0 c { 1.7 . % o e E e O %   k Y - : y e.5.%./ n z r.a.",
"y.s.S 0 v T 2.k   . . . . . X .   c 2 @ * @ X.8.%./ b z r.a.",
"p.s.S 0 v T =.5.G K d o o + h U ( y   <.u.  - 0.-.{ n z r.a.",
"p.s.S 0 v T +.,.w.u.w.-   < e.u.u.;.- % - # X.7.O.{ n z r.a.",
"p.a.S 0 v ~ +.:.5.5.7.+.Q #.7.5.2.u.h = - r e.5.&.^ n B r.a.",
"p.s.S 0 v ~ +.1.5.5.5.q.u.0.5.5.5.5.7.q.q.7.7.4.-./ c z r.a.",
"p.s.S 0 v ~ =.2.7.5.5.6.5.5.5.5.6.5.7.7.7.8.6.4.&./ b B r.a.",
"y.s.S 0 c T #.<.4.4.4.4.4.4.4.4.4.4.4.4.4.4.4.>.O.W c h r.p.",
"p.s.S 9 k P X.$.$.$.$.$.O.$.$.$.$.$.$.$.O.$.O.O. .R h B r.a.",
"p.s.S 0 g D W ^ ^ ^ ^ ^ W { ^ ^ ^ ^ ^ ^ W { ^ ^ E D h B r.p.",
"y.d.V > p g g h h g h g f g g f g h g g f h g f f f p s r.a.",
"p.a.3.C _ _ _ _ _ _ _ _ ' I ' ' _ _ _ _ ' I ' ' ' ' I ' p.p.",
"p.y.a.d.a.a.a.a.a.a.a.a.a.a.a.a.a.a.a.a.a.a.a.a.s.s.a.s.y.p.",
"p.p.p.p.p.p.p.p.p.p.p.p.p.p.p.p.p.p.p.p.p.p.p.p.p.p.p.p.p.p."
};
