/* XPM */
static char *createSubProcessMouseOver_xpm[] = {
/* columns rows colors chars-per-pixel */
"30 30 171 2 ",
"   c #000001",
".  c #03030A",
"X  c #0B060C",
"o  c #0A090F",
"O  c #0D0C11",
"+  c #100F13",
"@  c #141214",
"#  c #171518",
"$  c #191719",
"%  c #1D1A1C",
"&  c #221F20",
"*  c #272323",
"=  c #2C2625",
"-  c #2F2826",
";  c #322A27",
":  c #36302E",
">  c #39322E",
",  c #3E3632",
"<  c #403731",
"1  c #423A35",
"2  c #483F39",
"3  c #4C433C",
"4  c #554C43",
"5  c #5A4E45",
"6  c #5E5047",
"7  c #5E5248",
"8  c #67584D",
"9  c #6B5C50",
"0  c #6F6356",
"q  c #716255",
"w  c #7B6B5C",
"e  c #6F765D",
"r  c #747A5F",
"t  c #777D62",
"y  c #797F65",
"u  c #8C484B",
"i  c #80524D",
"p  c #855751",
"a  c #8D5E57",
"s  c #8F5F58",
"d  c #8C6759",
"f  c #96655C",
"g  c #83705F",
"h  c #88765F",
"j  c #897563",
"k  c #8C7966",
"l  c #8F7B68",
"z  c #947E67",
"x  c #997F6B",
"c  c #9B7463",
"v  c #A16E65",
"b  c #A77D6B",
"n  c #578062",
"m  c #598965",
"M  c #5F9265",
"N  c #589068",
"B  c #579969",
"V  c #5B9C69",
"C  c #638C64",
"Z  c #7B8065",
"A  c #639769",
"S  c #65986A",
"D  c #73946E",
"F  c #7F9E76",
"G  c #5FB776",
"H  c #55B072",
"J  c #3EE67C",
"K  c #3FEB7D",
"L  c #40D579",
"P  c #49DD7F",
"I  c #45DA7D",
"U  c #808468",
"Y  c #888B6D",
"T  c #96806C",
"R  c #9C856E",
"E  c #9B8572",
"W  c #9F8872",
"Q  c #9A9A7A",
"!  c #A08570",
"~  c #AD8370",
"^  c #A38B72",
"/  c #B18672",
"(  c #B58875",
")  c #AE9479",
"_  c #AB9277",
"`  c #B69C7F",
"'  c #B8947C",
"]  c #83B07E",
"[  c #4ADD80",
"{  c #4DE182",
"}  c #41EA81",
"|  c #55E584",
" . c #58E585",
".. c #52EF87",
"X. c #58E987",
"o. c #59EC88",
"O. c #44F285",
"+. c #4DF385",
"@. c #4DF689",
"#. c #4FFA8C",
"$. c #51F68B",
"%. c #51F88C",
"&. c #58F38A",
"*. c #B59C81",
"=. c #BA9E83",
"-. c #82A480",
";. c #86B585",
":. c #86B788",
">. c #8BBB8B",
",. c #BCA082",
"<. c #BBA488",
"1. c #E18583",
"2. c #C1A587",
"3. c #CFA087",
"4. c #C1A589",
"5. c #C5A88A",
"6. c #CBAD8D",
"7. c #CDAF91",
"8. c #CDB192",
"9. c #C5BE9C",
"0. c #D6B695",
"q. c #D8B796",
"w. c #D9B997",
"e. c #D5BC9A",
"r. c #DCBC9A",
"t. c #F4A79B",
"y. c #E0BE9C",
"u. c #F3B19B",
"i. c #F0BBAF",
"p. c #F1B6A3",
"a. c #EEBEB7",
"s. c #F0BFBB",
"d. c #F1B1BC",
"f. c #E2C09D",
"g. c #D1C9A5",
"h. c #D6D0AA",
"j. c #E7C5A1",
"k. c #E8C5A1",
"l. c #E7CBA6",
"z. c #EDC9A4",
"x. c #F0CDA7",
"c. c #FFC7AC",
"v. c #F2CFA9",
"b. c #F9C2A2",
"n. c #EFD0AA",
"m. c #F6D2AB",
"M. c #F9D4AE",
"N. c #FED8AF",
"B. c #EFC0BB",
"V. c #F1C1BC",
"C. c #FAD6B2",
"Z. c #FCDAB5",
"A. c #FFD2BC",
"S. c #FCDDBD",
"D. c #FFE0B7",
"F. c #FFE4BA",
"G. c #FFEABE",
"H. c #FFD3C2",
"J. c #FBDFC1",
"K. c #FFD8C9",
"L. c #FEE5C3",
"P. c #FFEDC1",
"I. c #FFEBCB",
"U. c #FFF2C5",
"Y. c #FFF5C9",
"T. c #FFFDCD",
"R. c #FFEED2",
"E. c #FFE8DA",
"W. c #FFF2D6",
"Q. c #FFFFD5",
"!. c #FFFFDC",
/* pixels */
" . . . .| |  . . . .| |  . . . .| |  . . . .|  . . . . . . .",
" . .&.+.+.+.@.+.+.+.+.+.@.+.+.+.+.+.+.+.+.+.+.+.+.+.@.$. . .",
" .&.H n N N N N N N N N N N N N N N N N N N N N N N m B  . .",
" .J ] d.B.s.s.s.s.s.s.s.s.s.s.s.B.B.s.s.B.B.s.s.i.p.t.E L o.",
" .J >.E.E.W.R.R.R.R.R.R.R.R.R.R.R.R.R.R.R.R.I.I.L.N.u.Q I &.",
"| J :.K.L.L.J.J.J.J.J.J.S.J.J.S.J.J.J.S.J.L.S.Z.m.r.3.Y P o.",
"| J ;.H.J.J.S.S.Z.Z.Z.Z.Z.Z.Z.Z.C.Z.S.Z.Z.Z.Z.M.f.6.' U P o.",
" .J ;.H.S.Z.C.C.C.C.C.Z.S.Z.C.C.C.M.S.Y.P.Y.G.z.r.2.( U P o.",
" .J ;.H.S.Z.Z.M.C.m.S.F.D.F.Z.M.M.D.m.k <.R =.M.e.,./ Z P o.",
" .J ;.H.Z.Z.M.Z.Z.F.M.5 ; g G.Z.N.T.r.      5 U.e.,./ Z { o.",
" .J ;.H.S.Z.Z.F.S.Q.)     + f.T.U.l.- - 9.g + k z.` / Z P o.",
" .J :.H.S.C.Y.E : q * # % @ > q 3 T @ > Q.*.  7 v.2.~ k [ o.",
" .J ;.H.S.I.5.  . . O O $ o O .   3 `   O   3 D.r.,./ Z { o.",
" .J ;.H.S.Y.<.# % # * *.h.h @ % @ 3 e.9 g 3 R F.q.` / Z P o.",
" .J ;.H.S.C.Q.7.o   T !.U.T.4   = m.Y.G.G.U.F.f.q.2./ Z P o.",
" .J ;.H.S.C.T.5.o   k !.Y.T.5   = z.U.G.U.U.F.f.q.` / Z P o.",
" .J ;.H.S.Y.=.O % % % ^ g.j @ % @ , e.9 w 3 ^ F.w.` / Z P &.",
" .J ;.H.S.I.8.. . . o o @ o O .   4 =.  X   3 S.f.,./ Z P &.",
" .J ;.H.S.C.Y.^ 1 w * $ % @ 1 w 4 E + > Q.`   5 v.` / Z P o.",
" .J ;.H.S.Z.Z.F.F.Q.*.    + v.T.Y.l.- - 9.w + z l.,./ Z P o.",
" .J ;.H.S.Z.C.C.Z.F.N.8 < k F.Z.N.T.y.      7 U.w.,./ j P o.",
" .J ;.A.S.Z.Z.C.M.m.Z.G.F.G.M.m.m.D.n.l 4.E ,.M.q.,./ y P o.",
" .J ;.A.Z.Z.m.m.v.x.x.m.m.m.x.x.x.z.M.G.D.G.S.r.7.` ~ U P &.",
" .J ;.A.N.x.k.y.y.y.y.r.f.r.y.y.f.f.r.f.f.y.y.8.2.) b r | o.",
" .} ;.c.f.q.7.6.5.5.5.5.5.5.5.5.5.5.5.5.5.5.2.` ) R c r P o.",
" .} ] u.6.*._ ^ ^ ^ ^ ^ ^ ^ ^ ^ ^ ^ ^ ^ ! ! ^ R T h d e  .o.",
"| O.F 1.( v f s a a a a d a a d a a a a d a a a p i u q P o.",
" ...G D S A A M M M M C M M C M M M M M M M M M M M C V  .o.",
" . ...O.+.@.@.$.$.$.$.@.$.$.@.$.$.$.@.$.$.$.$.$.$.%.%.&.o.P ",
" . . . . . . . . . . . . . . . . . . . . . .X. .o.P  . . .o."
};
