/* XPM */
static char *deleteEventDisabled_xpm[] = {
/* columns rows colors chars-per-pixel */
"30 30 194 2 ",
"   c #685F5F",
".  c #6B6666",
"X  c #6C6666",
"o  c #6C6767",
"O  c #6D6767",
"+  c #6D6868",
"@  c #6C6C6C",
"#  c gray44",
"$  c #727272",
"%  c gray45",
"&  c #767171",
"*  c gray46",
"=  c #767676",
"-  c #797979",
";  c gray48",
":  c #7C7C7C",
">  c #7E7E7E",
",  c gray50",
"<  c #818181",
"1  c gray51",
"2  c #838383",
"3  c #848484",
"4  c #868686",
"5  c gray53",
"6  c #888585",
"7  c #8C8686",
"8  c #808989",
"9  c #858989",
"0  c #868A8A",
"q  c #868B8B",
"w  c #878B8B",
"e  c #888888",
"r  c #898989",
"t  c #8E8B8B",
"y  c #8D8C8C",
"u  c #8D8D8D",
"i  c gray56",
"p  c #928F8F",
"a  c #8B9090",
"s  c #889393",
"d  c #8F9A9A",
"f  c #8F9B9B",
"g  c #909090",
"h  c #939091",
"j  c #929292",
"k  c #949190",
"l  c #949191",
"z  c gray58",
"x  c #959595",
"c  c #979797",
"v  c #9D9191",
"b  c #989595",
"n  c #959E9E",
"m  c #989898",
"M  c gray60",
"N  c #9A9A9A",
"B  c #9B9B9B",
"V  c gray61",
"C  c #9D9D9D",
"Z  c #9F9F9F",
"A  c #94A0A0",
"S  c #94A1A1",
"D  c #95A1A1",
"F  c #95A2A2",
"G  c #9DA1A1",
"H  c #99A6A6",
"J  c #98A7A7",
"K  c #9BAAAB",
"L  c gray63",
"P  c #A2A2A2",
"I  c #A4A4A4",
"U  c #A5A5A5",
"Y  c gray65",
"T  c #A7A7A7",
"R  c #A8A5A5",
"E  c #A5ADAD",
"W  c #A5AEAE",
"Q  c gray66",
"!  c #A9A9A9",
"~  c #A9AAAA",
"^  c #AAAAAA",
"/  c gray67",
"(  c #AEAEAE",
")  c #AFAFAF",
"_  c #B7ACAC",
"`  c gray69",
"'  c #B1B1B1",
"]  c #B2B2B2",
"[  c gray70",
"{  c #B4B4B4",
"}  c #B6B6B6",
"|  c #B7B7B7",
" . c #BBB2B2",
".. c gray72",
"X. c gray73",
"o. c #BBBBBB",
"O. c #BCBCBC",
"+. c gray74",
"@. c #C2BCBC",
"#. c #C4BFBF",
"$. c #AEC1C1",
"%. c #B6C2C2",
"&. c #B6C3C3",
"*. c #B7C3C3",
"=. c #BBC7C7",
"-. c #B5C9C9",
";. c #C0C0C0",
":. c #C1C1C1",
">. c gray76",
",. c #C3C3C3",
"<. c #C6C1C1",
"1. c #C7C1C1",
"2. c #C7C2C2",
"3. c gray77",
"4. c #C6C6C6",
"5. c gray78",
"6. c #C8C8C8",
"7. c gray79",
"8. c #CACACA",
"9. c #CBCBCB",
"0. c gray80",
"q. c #CDCDCD",
"w. c #CECECE",
"e. c gray81",
"r. c #D1CCCC",
"t. c #D0D0D0",
"y. c gray82",
"u. c #D2D2D2",
"i. c LightGray",
"p. c #D4D0D0",
"a. c gray83",
"s. c #D5D5D5",
"d. c gray84",
"f. c #D7D7D7",
"g. c #DAD4D4",
"h. c #DBD5D5",
"j. c #DBD6D6",
"k. c #DCD6D6",
"l. c #DCD7D7",
"z. c #D8D8D8",
"x. c gray85",
"c. c #DADADA",
"v. c gray86",
"b. c #DDD8D8",
"n. c gainsboro",
"m. c #DDDDDD",
"M. c gray87",
"N. c #DFDFDF",
"B. c #CEECED",
"V. c #CFEEEE",
"C. c #D5F4F4",
"Z. c #D6F5F5",
"A. c #D7F6F6",
"S. c #D8F7F7",
"D. c #D8F8F8",
"F. c #DFFDFD",
"G. c #DEFFFF",
"H. c #DFFFFF",
"J. c gray88",
"K. c #E1E1E1",
"L. c #E2E2E2",
"P. c gray89",
"I. c #E4E4E4",
"U. c gray90",
"Y. c #E6E6E6",
"T. c #E7E7E7",
"R. c #EDE7E7",
"E. c gray91",
"W. c #E9E9E9",
"Q. c #EAEAEA",
"!. c gray92",
"~. c #ECECEC",
"^. c gray93",
"/. c #E0FDFD",
"(. c LightCyan",
"). c #E1FFFF",
"_. c #E2FFFF",
"`. c #E5FFFF",
"'. c #E6FFFF",
"]. c #E8FFFF",
"[. c #E9FFFF",
"{. c #EBFFFF",
"}. c #ECFFFF",
"|. c #EDFFFF",
" X c #EEFFFF",
".X c gray94",
"XX c #F1F1F1",
"oX c gray95",
"OX c #F3F3F3",
"+X c #F4F4F4",
"@X c gray96",
"#X c #F6F6F6",
"$X c azure",
"%X c #F1FFFF",
/* pixels */
").).).).).).).).).).).).).).).).).).).).).).).).).).).).).).",
").H.}.%X X X X X X X X X X X X X X X X X X X X X X X$X%X_.(.",
"). X$.8 f f f f f f f f f f f f f f f f f f f f f f s J /.`.",
").'.E _ 2.<.1.<.<.<.<.<.<.<.<.<.<.<.<.<.<.<.<.<.#.@. .y B.[.",
").G.=.R.#X@X@X+X+X+X+X+X+X+X+X+X+X+X+X+X+X+X+XOXXXQ.p.G V.].",
").(.*.b.T.U.P.P.P.P.P.P.P.P.I.I.P.P.P.P.P.P.P.L.M.6.R a C.].",
").(.%.l.I.J.N.m.m.m.m.m.n.N.Y.I.M.n.m.m.m.m.M.m.e.[ b w Z.].",
").(.*.j.P.n.J.W.M.z.x.x.m.J.U ) I.v.x.x.x.x.c.s.,.^ h 0 A.].",
").(.*.k.P.U.5.Q v.U.f.v.E.8.: 5 a.W.m.f.x.x.x.u.;.Q k q A.].",
").(.*.k.P.Q.3.# i d.~.v.U < e 4 3 ` K.J.z.x.x.i.:.! k q A.].",
").(.*.k.P.M.I.9.< > 6.!.` Y 0.9.T = P L.n.x.x.i.:.! k q A.].",
").(.*.j.P.M.v.E.x.z % { .X^.L.U.~.| = o.Y.x.x.i.:.! k q A.].",
").(.*.k.P.M.v.z.I.I.! % C N.Y.z.M.P.j m K.v.x.i.:.! k q A.].",
").(.*.k.P.M.v.x.f.J.oX:.- e t.W.v.U.Y u v.m.x.i.:.! k q A.].",
").(.*.k.P.M.v.x.M.0.} W.a.r - +.E.^.I 3 c.M.x.i.:.! k q A.].",
").(.*.k.P.M.v.x.U.5.- ;.oXM.V $ T W.x.x 5.L.x.i.:.! k q A.].",
").(.*.k.P.M.v.z.W.{ > q.J.L.Y.[ * g L.I.w.n.x.i.:.! k q A.].",
").(.*.k.P.M.c.K.d.4 ! .XT.U.!.#X8., > 0.^.m.z.i.:.! k q A.].",
").(.*.k.P.M.M.n.N : ` ,.X.X.| o.Q.N.g * [ Y.L.u.:.! k q A.].",
").(.*.k.P.M.N.z.x r r < 3 5 4 1 Z N.T.T $ C M.M.;.! k q A.].",
").(.*.k.P.M.c.n.d.9.q.q.9.0.e.e.;.9.I.E.O.; e 4.6.~ k q A.].",
").(.*.k.P.M.n.x.N.P.L.T.J.P B c / K.c.n.Q.w.4 L w.^ l q A.].",
").).%.k.P.N.n.x.z.z.z.x.N.] 2 4 O.K.z.z.z.P.z.9.>.! l w A.].",
").).%.h.P.v.u.0.0.0.0.0.q.a.4.7.a.0.0.0.0.0.y.8.| U p 0 A.].",
").).&.g.v.4.| ] ' ] ] ] ' ] ....] ' ] ] ] ] ] ( Y N t 0 A.].",
").).*.r.:.Y M x x x x x x x x x x x x x x x z z g u 6 9 S.].",
").].W v 7 & + . o o o o o o o o o o o o o o o X X O   @ D.[.",
").{.-.n H F A A S S S S S S S S S S S S S S S S D F d K F.`.",
").(.[.{.|.$X%X%X%X%X%X%X%X%X%X%X%X%X%X%X%X%X%X%X%X$X$X$X_.(.",
").).).).).).).).).).).).).).).).).).).).).).).).).).).).).)."
};
