/* XPM */
static char *deleteBranchMouseOver_xpm[] = {
/* columns rows colors chars-per-pixel */
"30 30 168 2 ",
"   c #000001",
".  c #02020A",
"X  c #0B0A0E",
"o  c #0F0D12",
"O  c #110F13",
"+  c #141115",
"@  c #1D1A1C",
"#  c #1A171C",
"$  c #241B1C",
"%  c #26201D",
"&  c #222021",
"*  c #2B2323",
"=  c #2D2823",
"-  c #2D2928",
";  c #312727",
":  c #322A2A",
">  c #423330",
",  c #433A34",
"<  c #4B413B",
"1  c #54433C",
"2  c #4F4C43",
"3  c #5C4E45",
"4  c #554A41",
"5  c #5F5147",
"6  c #6A5B4F",
"7  c #635B50",
"8  c #6C5C50",
"9  c #6F6053",
"0  c #726255",
"q  c #7F6C5D",
"w  c #6F765D",
"e  c #747A5F",
"r  c #777D62",
"t  c #797F65",
"y  c #8C484B",
"u  c #80524D",
"i  c #855751",
"p  c #8D5E57",
"a  c #8F5F58",
"s  c #8C6759",
"d  c #846F5F",
"f  c #96655C",
"g  c #88765F",
"h  c #857362",
"j  c #8D7863",
"k  c #947E67",
"l  c #977966",
"z  c #A16E65",
"x  c #A77D6B",
"c  c #578062",
"v  c #598965",
"b  c #5F9265",
"n  c #589068",
"m  c #579969",
"M  c #5B9C69",
"N  c #638C64",
"B  c #7B8065",
"V  c #639769",
"C  c #65986A",
"Z  c #73946E",
"A  c #7F9E76",
"S  c #55B072",
"D  c #5FB776",
"F  c #3EE67C",
"G  c #3FEB7D",
"H  c #40D579",
"J  c #49DD7F",
"K  c #45DA7D",
"L  c #808468",
"P  c #888B6D",
"I  c #96806C",
"U  c #9D866D",
"Y  c #9C8672",
"T  c #9A9A7A",
"R  c #AD8370",
"E  c #A38B72",
"W  c #A98F78",
"Q  c #B18672",
"!  c #B58875",
"~  c #AC937A",
"^  c #AB9277",
"/  c #B0967D",
"(  c #B69C7F",
")  c #BE917B",
"_  c #83B07E",
"`  c #4ADD80",
"'  c #4DE182",
"]  c #41EA81",
"[  c #55E584",
"{  c #58E585",
"}  c #52EF87",
"|  c #58E987",
" . c #59EC88",
".. c #44F285",
"X. c #4DF385",
"o. c #4DF689",
"O. c #4FFA8C",
"+. c #51F68B",
"@. c #58F38A",
"#. c #51F88C",
"$. c #AD9B81",
"%. c #B49A80",
"&. c #BA9E82",
"*. c #82A480",
"=. c #86B585",
"-. c #86B788",
";. c #8BBB8B",
":. c #BCA083",
">. c #BFA388",
",. c #E18583",
"<. c #C1A587",
"1. c #CFA087",
"2. c #C2A588",
"3. c #C5A88A",
"4. c #CBAD8E",
"5. c #D4B594",
"6. c #D9B996",
"7. c #DCBC9A",
"8. c #D3BA99",
"9. c #F4A79B",
"0. c #E0BE9C",
"q. c #F3B19B",
"w. c #F0BBAF",
"e. c #F1B6A3",
"r. c #EEBEB7",
"t. c #F0BFBB",
"y. c #F1B1BC",
"u. c #E2C19D",
"i. c #DFC2A0",
"p. c #E4C5A2",
"a. c #E9C5A1",
"s. c #EDCAA5",
"d. c #F0CCA6",
"f. c #FFC7AC",
"g. c #F1CEA8",
"h. c #F9C2A2",
"j. c #E7D1AC",
"k. c #EAD1AE",
"l. c #F4D2AB",
"z. c #FAD5AE",
"x. c #FED8AF",
"c. c #EFC0BB",
"v. c #F1C1BC",
"b. c #FAD6B1",
"n. c #F7DBB4",
"m. c #FDDAB5",
"M. c #FFD2BC",
"N. c #FCDDBD",
"B. c #EFE2B8",
"V. c #FEE0B7",
"C. c #F7E5BA",
"Z. c #FFE5BB",
"A. c #FFE9BE",
"S. c #FFD3C2",
"D. c #FBDFC1",
"F. c #FFD8C9",
"G. c #FEE5C2",
"H. c #FFEEC2",
"J. c #FFEBCB",
"K. c #FFF3C5",
"L. c #FFF7CA",
"P. c #FFFACC",
"I. c #FFEED2",
"U. c #FFE8DA",
"Y. c #FFF2D6",
"T. c #FFFFD4",
"R. c #FFFFDE",
"E. c #FFFFE4",
/* pixels */
"{ { { { { { { { { { { { { { { { { { { { { { { { { { { { { { ",
"{ { @.X.X.X.X.X.X.X.X.X.X.X.X.X.X.X.X.X.X.X.X.X.X.X.o.+.{ { ",
"{ @.S c n n n n n n n n n n n n n n n n n n n n n n v m { | ",
"{ F _ y.c.c.c.c.c.c.c.c.c.c.c.c.c.c.c.c.c.c.t.r.r.e.9.Y H  .",
"{ F ;.U.U.Y.I.I.I.I.I.I.I.I.I.I.I.I.I.I.I.I.J.J.A.z.h.T H  .",
"[ F -.F.G.D.D.D.N.D.D.D.N.D.D.N.N.D.D.N.D.D.Z.m.z.6.1.P K  .",
"[ F =.S.D.D.N.M.m.m.n.m.N.m.n.m.M.n.m.n.m.m.m.z.u.4.) L K  .",
"{ F =.S.D.m.b.Z.L.T.J.b.b.b.b.b.b.b.b.G.L.T.A.s.6.3.! t J  .",
"{ F =.S.D.b.H.b.h 7 >.H.m.m.x.m.m.x.K.u.0 0 7.V.5.:.Q B `  .",
"{ F =.S.N.Z.n.<       ^ T.A.A.Z.A.P.p.@     # 4.d.:.Q B `  .",
"{ F =.S.N.P.W   < q X # 7 5 < < < 2 =   6 9   5 l.:.Q B `  .",
"{ F =.S.N.T.Y   3 k # .   + % $ @ @ o . d d   4 l.:.! B `  .",
"{ F =.S.N.A.k.*       d , - b.m.z.A.2..     . ( g.<.Q B `  .",
"{ F =.S.N.b.H.i.3 , k T.h   s.K.V.V.K.>.< < &.m.6.( Q B `  .",
"{ F =.S.N.m.z.A.K.Z.K.P.Y   3.K.z.K.A.A.Z.K.T.s.5.<.Q B J  .",
"{ F =.S.N.m.b.z.z.m.z.K.>.  / L.b.W 5.K.A.m.E 6.0.( Q B J  .",
"{ F =.S.N.b.b.b.z.z.x.A.0.  q E.L.*   l.T.,   5.s.( Q B J  .",
"{ F =.S.N.b.b.b.z.z.z.m.Z.:   ^ B.j.% ; 3 . / m.6.:.Q L J  .",
"{ F =.S.N.m.b.b.z.z.z.z.H.8.+   > E.m.    W R.a.6.( Q B J  .",
"{ F =.S.N.b.b.b.x.z.z.z.z.A.s.j $.H.6 + $ = p.m.6.( Q B '  .",
"{ F =.S.N.b.b.b.z.z.z.z.z.z.A.P.T.1   3.C.X . s.u.:.Q B J  .",
"{ F =.M.N.m.m.b.z.z.z.z.z.z.z.z.V.h E K.L.7.9 7.u.:.Q B J  .",
"{ F =.M.m.m.z.g.g.d.g.g.s.g.d.d.s.A.A.d.u.V.A.u.4.( R B '  .",
"{ F =.M.m.d.a.u.0.0.0.0.0.0.0.0.7.0.u.u.u.0.7.5.3.^ x r '  .",
"{ F =.f.a.5.4.3.3.3.3.3.3.3.3.3.3.3.3.3.3.3.<.:.^ U l e J  .",
"{ ] _ q.4.%.^ E E E E E E E E E E E E E E Y E U k g s w [  .",
"{ ..A ,.! z f a p s p p p p p p p s p p p p p p i 8 y 9 [  .",
"{ @.D Z C V V b b N V N V b b b b b N V b b b b N N N M J  .",
"{ { } ..X.o.o.o.o.+.+.+.+.o.+.+.+.+.o.+.+.+.+.#.@.#.#.#.{ { ",
"{ { { { { { { { { { { { { { { { { { { { { { { { { { { { { { "
};
