/* XPM */
static char *deleteBranchNormal_xpm[] = {
/* columns rows colors chars-per-pixel */
"30 30 153 2 ",
"   c #000001",
".  c #02020A",
"X  c #0B0A0E",
"o  c #0F0D12",
"O  c #110F13",
"+  c #141115",
"@  c #1A171C",
"#  c #1D1A1C",
"$  c #241B1C",
"%  c #26201D",
"&  c #222021",
"*  c #2B2323",
"=  c #2D2823",
"-  c #2D2928",
";  c #312727",
":  c #322A2A",
">  c #423330",
",  c #433A34",
"<  c #4B413B",
"1  c #54433C",
"2  c #624126",
"3  c #674E37",
"4  c #6D533B",
"5  c #71573E",
"6  c #74593F",
"7  c #4F4C43",
"8  c #554A41",
"9  c #5C4E45",
"0  c #5F5147",
"q  c #6A5B4F",
"w  c #755941",
"e  c #635B50",
"r  c #6C5C50",
"t  c #7C6046",
"y  c #7E654B",
"u  c #6E6052",
"i  c #736355",
"p  c #7F6C5D",
"a  c #886A4F",
"s  c #846F5F",
"d  c #8C7155",
"f  c #88755E",
"g  c #9B7B5E",
"h  c #AB7B53",
"j  c #857362",
"k  c #8D7863",
"l  c #817A6D",
"z  c #947E67",
"x  c #927D69",
"c  c #867D70",
"v  c #9F8063",
"b  c #96806C",
"n  c #9D866D",
"m  c #8C8375",
"M  c #9C8671",
"N  c #928779",
"B  c #9A8E7E",
"V  c #A28365",
"C  c #A68668",
"Z  c #AF8E6E",
"A  c #A38B72",
"S  c #A98F78",
"D  c #AB9277",
"F  c #AC937A",
"G  c #B0967D",
"H  c #B69C7F",
"J  c #CF9F75",
"K  c #C19E7B",
"L  c #818886",
"P  c #8A928E",
"I  c #91948D",
"U  c #8F9B9A",
"Y  c #969D97",
"T  c #9A9E94",
"R  c #909B99",
"E  c #AD9B81",
"W  c #AC9E8A",
"Q  c #B49A80",
"!  c #BA9E82",
"~  c #9BA19A",
"^  c #BCA083",
"/  c #BFA388",
"(  c #A0A59E",
")  c #A8A69A",
"_  c #99A6A4",
"`  c #9DA8A4",
"'  c #AAACA4",
"]  c #BABBAF",
"[  c #BEBFB3",
"{  c #C1A587",
"}  c #C2A588",
"|  c #C5A88A",
" . c #CBAD8E",
".. c #CBA68C",
"X. c #D8AC85",
"o. c #D8B18D",
"O. c #D4B594",
"+. c #D9B996",
"@. c #D7B699",
"#. c #DCBC9A",
"$. c #D3BA99",
"%. c #E0BE9C",
"&. c #D7BBA5",
"*. c #D8BDA7",
"=. c #BEC0B6",
"-. c #BDC1B9",
";. c #EAC096",
":. c #E2C19D",
">. c #F1C297",
",. c #DFC2A0",
"<. c #C2C5BD",
"1. c #E4C5A2",
"2. c #E9C5A1",
"3. c #EDCAA5",
"4. c #F0CCA6",
"5. c #F8CCA2",
"6. c #F4CEAA",
"7. c #E7D1AC",
"8. c #EAD1AE",
"9. c #F5D2AB",
"0. c #FAD5AE",
"q. c #FED8AF",
"w. c #F6D2B2",
"e. c #FAD6B1",
"r. c #F7DBB4",
"t. c #FDDAB5",
"y. c #FCDDBD",
"u. c #EFE2B8",
"i. c #FEE0B7",
"p. c #F7E5BA",
"a. c #FFE5BB",
"s. c #FFE9BE",
"d. c #AEC1C0",
"f. c #B7C8C5",
"g. c #FBDFC1",
"h. c #FEE5C2",
"j. c #FFEEC2",
"k. c #FFEBCB",
"l. c #FFF3C5",
"z. c #FFF7CA",
"x. c #FFFACC",
"c. c #FFEED2",
"v. c #FFF2D6",
"b. c #FFFFD4",
"n. c #FFFFDE",
"m. c #CBEFF5",
"M. c #D3F6FA",
"N. c #D5F8FC",
"B. c #DDFFFF",
"V. c #FFFFE4",
"C. c #E1FFFF",
"Z. c #ECFFFF",
"A. c #F0FFFF",
/* pixels */
"C.C.C.C.C.C.C.C.C.C.C.C.C.C.C.C.C.C.B.C.C.C.C.C.C.C.C.C.C.C.",
"C.B.Z.A.Z.Z.Z.Z.Z.Z.Z.Z.Z.A.Z.Z.Z.Z.Z.Z.Z.Z.Z.Z.Z.Z.A.A.C.C.",
"C.Z.d.L R R U U R R R R R R R R U U U U R R R R U U P _ B.C.",
"C.C.' ..&.&.&.&.&.&.&.&.&.&.&.&.&.&.&.&.&.&.&.&.@.o.J n m.Z.",
"C.B.<.h.v.c.c.c.c.c.c.c.c.c.c.c.c.c.c.c.c.c.k.k.a.t.;.W m.Z.",
"C.B.-.w.h.g.g.g.g.g.g.g.g.y.y.g.g.g.g.g.g.g.a.t.0.+.K B M.C.",
"C.B.-.w.g.y.y.t.t.t.t.t.y.t.t.t.t.t.t.r.t.t.e.q.:.| Z N M.Z.",
"C.B.=.9.g.y.w.a.z.z.l.e.w.e.r.w.w.e.e.s.x.v.s.3.#.{ C N M.Z.",
"C.B.[ 6.y.e.j.e.j e / j.t.t.t.q.t.q.s.:.i i %.i.O.^ V m N.Z.",
"C.B.[ 6.y.a.r.<       F b.s.s.a.s.b.1.#     @  .4.! V m M.C.",
"C.B.[ w.y.b.S   < s X @ e 0 < < < 7 =   u u   0 0.^ V m N.Z.",
"C.B.[ 6.t.b.M   9 x @ .   + $ $ # # o . p s   8 9.^ V m N.C.",
"C.B.[ 6.y.h.8.*       s , - e.i.0.s.| .     . Q 5.^ V m N.Z.",
"C.B.*.6.y.e.j.1.9 , x b.j   3.l.t.i.l./ < < ! t.+.^ V m N.Z.",
"B.B.d.w.y.t.0.s.j.a.l.x.M   | j.9.l.s.s.a.l.b.3.O.^ V m N.C.",
"C.B.[ 6.y.r.e.0.q.t.q.l.{   G x.q.S $.l.s.t.A +.#.^ V m N.Z.",
"C.B.-.8.g.t.w.e.0.0.0.s.%.  p V.x.$   9.b.,   O.3.H V m N.Z.",
"C.B.*.6.g.e.e.e.q.0.0.t.i.:   F u.8.% ; 9   G t.+.^ V m N.Z.",
"C.B.=.6.y.r.e.e.0.0.0.0.j.$.O   > V.t.    F n.2.$.^ V m N.Z.",
"C.B.=.6.y.r.e.e.q.0.0.0.0.j.3.k G l.q + $ = 1.t.O.^ V m N.C.",
"C.B.<.6.y.t.e.e.q.0.0.0.0.0.a.x.b.1   | p.X . 2.;.^ V m M.Z.",
"C.B.[ 6.y.t.e.e.0.0.0.0.0.0.0.t.i.j A l.z.#.i #.%.{ V m N.Z.",
"C.B.=.9.t.e.0.6.8.4.3.6.4.4.4.4.3.s.s.4.3.i.s.:. .H z m N.C.",
"C.B.=.5.q.4.2.:.%.%.:.%.#.:.%.%.:.#.%.%.%.%.#.O.} D g m N.Z.",
"C.B.[ >.1.$. .| | | | | | | | | | | | | | | { ! D n d c B.C.",
"C.C.] X. .Q D A A A A A A A A A A A A A A A A n z f y l N.Z.",
"C.C.) h h a w w 6 w 6 w w w w w w w w w w w 6 5 4 3 2 u N.Z.",
"C.Z.f.T ( ~ ~ T Y Y Y Y Y Y Y Y Y Y Y Y Y Y Y Y Y Y I ` C.C.",
"C.C.Z.C.Z.Z.Z.A.A.A.A.Z.A.A.Z.A.A.Z.A.A.Z.A.A.A.Z.A.A.A.C.C.",
"C.C.C.C.C.C.C.C.C.C.C.C.C.C.C.C.C.C.C.C.C.C.C.C.C.C.C.C.C.C."
};
