/* XPM */
static char *goUpLevelDisabled_xpm[] = {
/* columns rows colors chars-per-pixel */
"30 30 221 2 ",
"   c #6A6261",
".  c #686565",
"X  c #6C6C6C",
"o  c #706B6B",
"O  c #716C6C",
"+  c #726D6D",
"@  c #726E6E",
"#  c #727272",
"$  c gray46",
"%  c #777777",
"&  c #7A7575",
"*  c #797979",
"=  c gray48",
"-  c #7C7C7C",
";  c gray49",
":  c #7E7E7E",
">  c gray50",
",  c #7E7F80",
"<  c #7F8081",
"1  c #7F8181",
"2  c #7E8585",
"3  c #808080",
"4  c #808181",
"5  c #818181",
"6  c #808281",
"7  c #838383",
"8  c #868383",
"9  c #848686",
"0  c #888585",
"q  c #838C8C",
"w  c #888888",
"e  c gray54",
"r  c #8B8B8B",
"t  c #8C8889",
"y  c gray55",
"u  c #8D8D8D",
"i  c #8E8E8E",
"p  c gray56",
"a  c #908C8C",
"s  c #918C8C",
"d  c #908D8C",
"f  c #908D8D",
"g  c #908E8C",
"h  c #918E8D",
"j  c #908E8E",
"k  c #918E8E",
"l  c #8B9594",
"z  c #8B9696",
"x  c #8B9797",
"c  c #8C9797",
"v  c #8C9898",
"b  c #909090",
"n  c gray57",
"m  c #939393",
"M  c #959292",
"N  c gray58",
"B  c #959595",
"V  c gray59",
"C  c #979797",
"Z  c #939B9B",
"A  c #979999",
"S  c #919D9D",
"D  c #929D9D",
"F  c #919E9E",
"G  c #939E9E",
"H  c #939F9F",
"J  c #989898",
"K  c #989999",
"L  c #9A9A9A",
"P  c #9B9B9B",
"I  c gray61",
"U  c #9D9D9D",
"Y  c gray62",
"T  c #A39F9F",
"R  c #94A1A2",
"E  c #96A2A2",
"W  c #A0A0A0",
"Q  c #A2A2A2",
"!  c gray64",
"~  c #A4A4A4",
"^  c #A5A5A5",
"/  c #A7A7A7",
"(  c #ACA1A1",
")  c #A1A9A9",
"_  c #A3ABAB",
"`  c gray66",
"'  c #A9A9A9",
"]  c #AAAAAA",
"[  c #AAABAB",
"{  c gray67",
"}  c #ABACAC",
"|  c #ACACAC",
" . c #ACADAD",
".. c gray68",
"X. c #AEAEAE",
"o. c #ABBDBD",
"O. c gray69",
"+. c #B1B1B1",
"@. c #B2B2B2",
"#. c gray70",
"$. c #B4B4B4",
"%. c gray71",
"&. c #B6B6B6",
"*. c #BEB6B6",
"=. c #B1BCBC",
"-. c #B1BDBD",
";. c #B2BEBE",
":. c gray72",
">. c #B9B9B9",
",. c gray73",
"<. c #BBBBBB",
"1. c #BCBCBC",
"2. c gray74",
"3. c gray",
"4. c gray75",
"5. c #C4BABA",
"6. c #B6C1C1",
"7. c #B2C4C4",
"8. c #C0C0C0",
"9. c #C1C1C1",
"0. c gray76",
"q. c #C3C3C3",
"w. c gray77",
"e. c #C6C6C6",
"r. c gray78",
"t. c #C8C4C4",
"y. c #CAC5C5",
"u. c #CBC6C6",
"i. c #CBC7C7",
"p. c #CCC7C7",
"a. c #C8C8C8",
"s. c #C8C9C9",
"d. c gray79",
"f. c #CACACA",
"g. c #CDC8C8",
"h. c gray80",
"j. c #CDCDCD",
"k. c #CECECE",
"l. c gray81",
"z. c #D0D0D0",
"x. c gray82",
"c. c #D2D0D0",
"v. c #D2D2D2",
"b. c gray83",
"n. c #D5D5D5",
"m. c gray84",
"M. c #D7D7D7",
"N. c #DAD6D6",
"B. c #D8D8D8",
"V. c gray85",
"C. c #DADADA",
"Z. c gray86",
"A. c gainsboro",
"S. c #DDDDDD",
"D. c gray87",
"F. c #DFDFDF",
"G. c #E2DDDD",
"H. c #E2DEDE",
"J. c #E3DEDE",
"K. c #E3DFDF",
"L. c #E4DFDF",
"P. c #D9EAEA",
"I. c #D9ECEC",
"U. c #DDFBFB",
"Y. c #DEFFFF",
"T. c #DFFFFF",
"R. c gray88",
"E. c #E1E1E1",
"W. c #E2E2E2",
"Q. c gray89",
"!. c #E3E4E4",
"~. c #E4E4E4",
"^. c #E4E5E5",
"/. c gray90",
"(. c #E5E6E6",
"). c #E6E6E6",
"_. c #E7E7E7",
"`. c gray91",
"'. c #E9E9E9",
"]. c #EAEAEA",
"[. c gray92",
"{. c #ECECEC",
"}. c #EEEEEE",
"|. c #EEEFEF",
" X c #EFEFEF",
".X c #E0F2F2",
"XX c #E1F3F3",
"oX c #E2F3F3",
"OX c #E2F4F4",
"+X c #E5F4F4",
"@X c #E6FBFB",
"#X c #E0FCFC",
"$X c #E1FDFD",
"%X c LightCyan",
"&X c #E1FFFF",
"*X c #E2FFFF",
"=X c #E3FFFF",
"-X c #E5FCFC",
";X c #E7FCFC",
":X c #E4FFFF",
">X c #E5FFFF",
",X c #E6FFFF",
"<X c #E7FFFF",
"1X c #EAFFFF",
"2X c #EBFFFF",
"3X c #ECFFFF",
"4X c #EDFFFF",
"5X c #EEFFFF",
"6X c #EFFFFF",
"7X c gray94",
"8X c #F3F3F3",
"9X c #F6F2F2",
"0X c gray96",
"qX c #F6F6F6",
"wX c #F6F7F7",
"eX c gray97",
"rX c azure",
"tX c #F1FFFF",
"yX c #F2FFFF",
"uX c #F3FFFF",
"iX c #F8F8F8",
/* pixels */
"&X&X*X:X=X=X=X=X=X=X=X=X=X=X=X=X=X=X=X=X=X=X=X=X=X=X:X=X&X&X",
"&XY.4XrX5X6X6X6X6X6X6X6X6X6X6X6X6X6X6X6X6X6X6X6X6X6XtXuX&XT.",
"*XrXo.2 c z z z z z z z z z z z z z z z z z z z x v q S ;X<X",
">X-X) 5.g.p.p.i.i.i.i.i.i.i.i.i.i.i.i.i.i.i.u.i.y.t.*.0 P.2X",
",XU.6.9XiXeXeXqXqXqXqXqXwXqXqXqXqXqXqXqXqXqXwX0X8X|.c.A I.1X",
">X#X-.L._.~.Q.W.W.W.W.R.[. XE.E.W.W.W.W.W.W.W.E.A.s.T 9 .X1X",
">X#X=.K.(.E.D.S.S.S.S._.X.%.7XD.Z.S.S.S.S.S.S.S.l.$.M 4 XX1X",
">X#X=.L.~.F.Z.C.V.V.V./.:.X <.}.C.B.V.V.V.V.Z.n.q.{ k 1 XX1X",
">X#X=.L.~.D.C.V.M.V.Q./.eXf.- ,._.B.W.~.Q.Q./.Z.0.' k 6 oX1X",
">X#X=.L.~.F.Z.M.R._.r.Q m ! V % 3._.e.3.9.9.8.3.8...k 6 oX1X",
">X#X=.L.~.F.B.).D.B = C O.9.b 5 l.~.e $ 3 > ; : &.%.d 6 oX1X",
">X#X=.L.^.S.~.S.7 u b._.eX#.7 v.`.B.x.h.k.k.k.d.9.| k 6 oX1X",
">X#X=.K.~.R._.y b ].).)./ # x.'.M.B.R.Q.W.W.Q.C.q.] k 6 oX1X",
">X#X=.L.Q.{.<.* S.~.m.F.1.h.`.M.V.V.B.B.B.B.V.x.0.{ k 6 oX1X",
">X#X=.K.(.].m / {.m.V.M.Q.Q.M.V.V.B.R.Q.W.W.Q.C.0.] k 6 oX1X",
">X#X=.J.].A.u 0./.B.V.V.B.B.V.V.C.Z.z.f.h.h.j.a.9.} k 6 oX1X",
">X#X=.J.{.m.y f.W.B.V.V.V.V.V.B.D.Z.e $ 3 > ; : %.%.g 6 oX1X",
">X#X=.J.'.A.y 9.).B.V.V.V.V.V.V.C.C.r.4.q.q.0.3.8. .f 6 oX1X",
">X#X=.L.).].N ! [.m.V.V.V.V.V.V.B.V.W.~.Q.Q.~.Z.q.' h 6 oX1X",
">X#X=.L.~.{.3.% C.).m.V.V.V.V.V.V.V.B.B.B.B.V.x.0.{ k 6 oX1X",
">X#X=.L.Q.F.`.n r _.`.C.B.B.B.M.B.V.C.Z.Z.Z.A.b.0.{ k 6 oX1X",
">X#X=.L.!.S.~.E.w w l./._._.).'.R.V.E.R.F.R.R.V.w.[ k 6 oX1X",
">X#X=.J.!.R.C./.R.U - J { X.| ^ w.R.W i V C N N >.@.j 1 XX1X",
">X#X=.H.~.A.v.d.v.Z.9.Q V B V y O.n.~ J Y Y I P #.[ a 1 oX1X",
">X$X=.G.S.e.:.+.O.@.,.2.2.2.2.4.:.+.1.3.1.1.2.>.` L t < OX1X",
">X$X;.N.0.^ K B B B N B B B B B B B B B B B B N b p 8 , OX1X",
">X<X_ ( s & + o O O O O O O O O O O O O O O O o O @   . +X3X",
"*X3X7.Z E G S S D D D D D D D D D D D D D D D S F H l R @X<X",
"&X%X2X1X4XrXtXyXyXyXyXyXyXyXyXyXyXyXyXyXyXyXyXyXtXtXyXyX%XT.",
"&X%X*X>X:X=X=X=X=X=X=X=X=X=X=X=X=X=X=X=X=X=X=X=X=X=X:X=X&X&X"
};
