/* XPM */
static char *goUpLevelMouseOver_xpm[] = {
/* columns rows colors chars-per-pixel */
"30 30 162 2 ",
"   c #000002",
".  c #02030A",
"X  c #0C080D",
"o  c #1C191B",
"O  c #1A1516",
"+  c #201D1F",
"@  c #291E1C",
"#  c #2A2424",
"$  c #2D2827",
"%  c #342D2B",
"&  c #382D2B",
"*  c #35312E",
"=  c #39322F",
"-  c #3E3831",
";  c #3B3531",
":  c #413834",
">  c #473E38",
",  c #4D423B",
"<  c #50443D",
"1  c #534840",
"2  c #5B4E44",
"3  c #625449",
"4  c #685A4F",
"5  c #6D5E50",
"6  c #705E52",
"7  c #716154",
"8  c #7E6C5F",
"9  c #6F765D",
"0  c #78705F",
"q  c #747A5F",
"w  c #777D62",
"e  c #797F65",
"r  c #8C484B",
"t  c #80524D",
"y  c #855751",
"u  c #8D5E57",
"i  c #8F5F58",
"p  c #8C6759",
"a  c #96655C",
"s  c #88755F",
"d  c #897664",
"f  c #8A7968",
"g  c #947E67",
"h  c #9A7463",
"j  c #A16E65",
"k  c #A67D6B",
"l  c #578062",
"z  c #598965",
"x  c #5F9265",
"c  c #589068",
"v  c #579969",
"b  c #5B9C69",
"n  c #638C64",
"m  c #7B8065",
"M  c #619466",
"N  c #639769",
"B  c #699B6D",
"V  c #73946E",
"C  c #7F9E76",
"Z  c #55B072",
"A  c #5FB776",
"S  c #3EE67C",
"D  c #3FEB7D",
"F  c #40D579",
"G  c #49DD7F",
"H  c #45DA7D",
"J  c #808468",
"K  c #888B6D",
"L  c #95846F",
"P  c #9B846C",
"I  c #9B8672",
"U  c #9A8A74",
"Y  c #9A9A7A",
"T  c #AD8370",
"R  c #A48C73",
"E  c #A88F77",
"W  c #B18672",
"Q  c #B58875",
"!  c #AA9177",
"~  c #AC937A",
"^  c #B1977D",
"/  c #BE917B",
"(  c #B59A7F",
")  c #83B07E",
"_  c #4ADD80",
"`  c #4DE182",
"'  c #41EA81",
"]  c #55E584",
"[  c #58E585",
"{  c #52EF87",
"}  c #58E987",
"|  c #59EC88",
" . c #44F285",
".. c #4DF385",
"X. c #4DF689",
"o. c #4FFA8C",
"O. c #51F68B",
"+. c #58F38A",
"@. c #51F88C",
"#. c #B69C81",
"$. c #B99E81",
"%. c #82A480",
"&. c #86B585",
"*. c #86B788",
"=. c #8BBB8B",
"-. c #BCA184",
";. c #E18583",
":. c #C1A587",
">. c #CFA087",
",. c #C3A78A",
"<. c #C6AA8B",
"1. c #CAAD8E",
"2. c #CDAF90",
"3. c #C5B192",
"4. c #CDB292",
"5. c #D5B694",
"6. c #DAB997",
"7. c #D2BC9B",
"8. c #DDBD9A",
"9. c #F4A79B",
"0. c #E0BC9B",
"q. c #F3B19B",
"w. c #F1B6A3",
"e. c #F0BBAF",
"r. c #EEBEB7",
"t. c #F1B1BC",
"y. c #F0BFBB",
"u. c #E1C19C",
"i. c #E6C5A3",
"p. c #E9C6A1",
"a. c #F1CCA6",
"s. c #FFC7AC",
"d. c #F2CFAB",
"f. c #F9C2A2",
"g. c #EDD4AE",
"h. c #F5D2AC",
"j. c #FBD4AE",
"k. c #FED8AF",
"l. c #EFC0BB",
"z. c #F1C1BC",
"x. c #FAD7B1",
"c. c #FDDAB4",
"v. c #FFD2BC",
"b. c #FCDDBC",
"n. c #F5DAB2",
"m. c #FFE1B7",
"M. c #FFE3BB",
"N. c #FFEABE",
"B. c #FFD3C2",
"V. c #FBDFC1",
"C. c #FFD8C9",
"Z. c #FEE5C3",
"A. c #FFEDC2",
"S. c #FFECC9",
"D. c #FFF2C6",
"F. c #FFF5C9",
"G. c #FFFBCD",
"H. c #FFEED2",
"J. c #FFE8DA",
"K. c #FFF1D4",
"L. c #FFFDD5",
"P. c #FFFFDE",
/* pixels */
"[ [ [ [ ] ] [ [ [ [ [ [ [ [ [ [ [ [ [ [ [ [ ] [ [ [ [ [ [ [ ",
"[ [ +.......X.X.................X. .................X.O.[ [ ",
"[ +.Z l c c c c z c c c c c c c c c c z c c c c c c z v ] } ",
"[ S ) t.l.y.y.y.y.l.l.l.l.l.l.y.y.y.y.y.y.y.y.y.e.w.9.I F | ",
"[ S =.J.J.K.H.H.H.H.H.H.K.H.H.H.H.H.H.H.H.H.H.S.Z.k.f.Y F | ",
"] S *.C.Z.Z.V.V.V.V.b.b.S.L.V.V.V.V.V.b.V.V.b.c.j.6.>.K G | ",
"] S &.B.V.V.b.b.c.b.c.S.8 f L.b.n.b.c.b.c.c.c.j.u.<./ J G | ",
"[ S &.B.V.c.x.x.n.n.x.D.U   L L.c.x.x.x.x.x.j.a.8.:.Q m G | ",
"] S &.B.b.c.x.h.h.x.D.F.P.-.  I D.j.N.G.D.D.D.m.8.( W m ] | ",
"[ S &.B.b.c.x.j.N.A.-.2 & 2 #   E F.-.~ ^ ~ ! R 2.,.W m G | ",
"[ S &.B.b.c.j.D.h.;   ; 0 U o . 4.N.$   . .   . ~ 5.W m G | ",
"[ S &.B.b.x.A.g.X @ 7.G.P.d X 7.F.k.8.4.5.5.4.<.5.:.W m G | ",
"[ S &.B.b.b.N.# # F.F.F.6   7.G.j.h.m.N.N.N.N.c.6.( Q m G | ",
"[ S &.B.b.L.I   j.N.h.m.! 1.F.j.j.j.j.j.j.j.h.p.5.( Q m G | ",
"[ S &.B.M.S.* 3 G.j.j.j.N.N.h.j.j.j.N.N.N.N.N.k.6.( W m G | ",
"[ S &.B.A.h.O ^ D.j.j.j.j.j.j.j.k.j.8.<.4.4.<.,.5.:.W m G | ",
"[ S &.B.S.i.o <.N.j.j.j.j.j.k.j.M.n.#   . . . . ~ 6.W m G | ",
"[ S &.B.Z.h.O #.F.j.j.j.j.j.j.j.j.j.,.^ $.#.~ ! 2.,.W m G | ",
"[ S &.B.Z.D.% 2 G.j.k.j.j.j.k.j.j.j.N.F.D.D.D.m.8.( W m G | ",
"[ S &.B.b.K.R . a.D.j.j.j.j.j.j.j.j.j.j.j.j.h.p.6.( W m G | ",
"[ S &.B.b.b.D.% o N.G.k.j.k.j.k.j.k.c.c.k.c.k.a.6.( Q m G | ",
"[ S &.v.b.x.A.n.O o 3.N.D.D.D.F.m.j.m.m.m.m.c.j.u.( W m G | ",
"[ S &.v.c.k.h.N.h.,   * 4 7 4 2 ( m.< + % % $ $ ~ 1.T m ` | ",
"} S &.v.c.a.u.0.h.c.$.3 = * = + d h.4 : , , , , ! -.k w ` | ",
"[ S &.s.u.6.1.<.,.,.0.u.u.8.8.u.5.,.u.u.8.u.8.5.( P h 9 G | ",
"[ ' ) q.1.( ~ R R R R R R R R R R I R R R R R P P s p 9 ] | ",
"[  .C ;.Q j a i u u i i u u u u u i p u u u u u r 6 r 5 G +.",
"[ { A V B N M x x M M M x M x x x x x x x x x M M x n b ] [ ",
"[ [ {  ...X.X.@...O.O.O.O.O.O.o...O.O.O.O.O.O.O.@.@.@.@.[ [ ",
"[ [ [ [ [ [ [ [ [ [ [ [ [ [ [ [ [ [ [ [ [ [ [ [ [ [ [ [ [ [ "
};
