/* XPM */
static char *goUpLevelNormal_xpm[] = {
/* columns rows colors chars-per-pixel */
"30 30 149 2 ",
"   c #000002",
".  c #02030A",
"X  c #0A060C",
"o  c #0E0A0D",
"O  c #161315",
"+  c #1D1616",
"@  c #1C191B",
"#  c #201D1F",
"$  c #291E1C",
"%  c #2A2424",
"&  c #2D2827",
"*  c #342D2B",
"=  c #382D2B",
"-  c #35312E",
";  c #39322F",
":  c #3B3531",
">  c #3E3831",
",  c #413834",
"<  c #473E38",
"1  c #4D423B",
"2  c #50443D",
"3  c #624126",
"4  c #674E37",
"5  c #6D533B",
"6  c #71573E",
"7  c #74593F",
"8  c #534840",
"9  c #5B4E44",
"0  c #625449",
"q  c #685A4F",
"w  c #755941",
"e  c #6D5E50",
"r  c #705E52",
"t  c #7C6046",
"y  c #7E654B",
"u  c #6C6051",
"i  c #716153",
"p  c #7E6C5F",
"a  c #78705F",
"s  c #886A4F",
"d  c #8C7155",
"f  c #88755E",
"g  c #977B5E",
"h  c #9D7C5D",
"j  c #AB7B53",
"k  c #897664",
"l  c #817A6D",
"z  c #8A7968",
"x  c #947E67",
"c  c #867D70",
"v  c #9F8063",
"b  c #95846F",
"n  c #9B846C",
"m  c #8C8375",
"M  c #9B8672",
"N  c #9A8A74",
"B  c #928779",
"V  c #9A8E7E",
"C  c #A28365",
"Z  c #A68668",
"A  c #AF8E6E",
"S  c #A48C73",
"D  c #A88F77",
"F  c #AA9177",
"G  c #AC937A",
"H  c #B1977D",
"J  c #B59A7F",
"K  c #CF9F75",
"L  c #C19E7B",
"P  c #818886",
"I  c #8A928E",
"U  c #91948D",
"Y  c #8F9B9A",
"T  c #969D97",
"R  c #9A9E94",
"E  c #909B99",
"W  c #AC9E8A",
"Q  c #B69C81",
"!  c #B99E81",
"~  c #9BA19A",
"^  c #BCA184",
"/  c #A0A59E",
"(  c #A8A69A",
")  c #99A6A4",
"_  c #9DA8A4",
"`  c #AAACA4",
"'  c #BABBAF",
"]  c #BEBFB3",
"[  c #C1A587",
"{  c #C3A78A",
"}  c #CBA68C",
"|  c #C6AA8B",
" . c #CAAD8E",
".. c #D8AC85",
"X. c #D8B18D",
"o. c #CDAF90",
"O. c #C5B192",
"+. c #CDB292",
"@. c #D5B694",
"#. c #DAB997",
"$. c #D7B699",
"%. c #D2BC9B",
"&. c #DDBD9A",
"*. c #E0BC9B",
"=. c #D7BBA5",
"-. c #D8BDA7",
";. c #BEC0B6",
":. c #BDC1B9",
">. c #EAC096",
",. c #E1C19C",
"<. c #F1C297",
"1. c #C2C5BD",
"2. c #E6C5A3",
"3. c #E9C6A1",
"4. c #F1CCA6",
"5. c #F8CCA2",
"6. c #F5CEAB",
"7. c #EDD4AE",
"8. c #F5D2AC",
"9. c #FBD4AE",
"0. c #FED8AF",
"q. c #F6D2B2",
"w. c #FAD7B1",
"e. c #F5DAB2",
"r. c #FDDAB4",
"t. c #FCDDBC",
"y. c #FFE1B7",
"u. c #FFE3BB",
"i. c #FFEABE",
"p. c #AEC1C0",
"a. c #B7C8C5",
"s. c #FBDFC1",
"d. c #FEE4C3",
"f. c #FFEDC2",
"g. c #FFECC9",
"h. c #FFF2C6",
"j. c #FFF5C9",
"k. c #FFFBCD",
"l. c #FFEED2",
"z. c #FFF1D4",
"x. c #FFFDD5",
"c. c #FFFFDE",
"v. c #CBEFF5",
"b. c #D3F6FA",
"n. c #D5F8FC",
"m. c #DDFFFF",
"M. c #E1FFFF",
"N. c #ECFFFF",
"B. c #F0FFFF",
/* pixels */
"M.M.M.M.M.M.M.M.M.M.M.M.M.M.M.M.m.M.M.M.M.M.M.M.M.M.M.M.M.M.",
"M.m.N.B.N.N.N.N.N.N.N.N.N.N.N.B.N.N.N.N.N.N.N.N.N.N.B.B.M.M.",
"M.N.p.P Y Y Y Y E E E E Y E E E Y Y Y Y E E E E E E I ) M.M.",
"M.M.` } =.=.=.=.=.=.=.=.=.=.=.=.=.=.=.=.=.=.=.=.$.X.K b v.N.",
"M.m.1.d.z.l.l.l.l.l.l.l.l.l.l.l.l.l.l.l.l.l.l.g.u.r.>.W v.N.",
"M.m.:.q.d.s.s.s.s.s.t.t.z.x.s.t.s.s.s.s.t.s.t.r.9.#.L V b.N.",
"M.m.:.q.s.t.t.t.r.t.t.f.p z x.t.w.r.w.t.t.w.r.9.,.| A B b.M.",
"M.m.;.8.s.t.w.w.w.w.w.h.M   b x.t.w.w.w.w.w.9.4.&.[ Z m b.N.",
"M.m.] 6.t.r.w.8.8.w.h.h.c.^   M h.9.f.j.h.h.h.y.&.! C m n.N.",
"M.m.:.6.t.r.w.9.i.h.^ 9 = 9 &   F h.^ F H H F D  .[ C m b.N.",
"M.m.:.6.t.r.8.h.7.>   : a M @ . +.i.%   . . . . G @.C m n.M.",
"M.m.] 6.t.w.g.7.X $ %.k.c.k o %.k.9.&.+.@.@.o.{ @.[ C m n.N.",
"M.m.;.6.t.u.f.% % h.j.h.r   %.k.9.9.u.i.i.i.i.w.#.! C m n.M.",
"M.m.;.6.t.k.M   8.h.9.y.D  .h.9.9.9.9.9.9.9.8.3.@.! C m b.N.",
"M.m.;.6.u.g.* q k.9.9.9.i.i.9.9.9.9.i.i.f.i.i.w.#.! C m n.N.",
"M.m.;.6.d.8.+ H h.9.9.9.9.9.9.9.9.0.#. .o.+.| [ @.[ C m n.M.",
"M.m.] 6.g.2.@ { i.9.9.9.9.w.9.9.u.0.%   . . . . G @.C m n.N.",
"M.m.] 6.g.6.@ G h.9.9.9.9.9.9.w.0.e.| G ! ! G F o.[ C m n.M.",
"M.m.1.6.t.f.- 0 k.9.0.9.9.9.9.9.9.9.i.h.h.h.f.y.&.J C m n.N.",
"M.m.] 6.t.x.S   4.h.9.9.0.9.9.9.9.9.9.9.9.9.8.3.@.^ C m n.N.",
"M.m.1.6.t.t.h.* # i.k.0.9.9.9.9.9.0.0.r.w.r.0.4.#.^ C m b.N.",
"M.m.] 6.t.r.f.e.O + O.i.h.h.h.k.y.9.u.y.y.u.r.9.*.J C m n.M.",
"M.m.;.8.r.0.6.i.8.1   - q i q 9 J y.2 # * * & & G  .v m n.N.",
"M.m.;.5.0.6.,.*.8.r.! 0 ; - ; # k 8.q , 1 1 1 1 F ^ g c n.N.",
"M.m.' <.3.@.o.| { { &.>.,.&.&.,.@.{ ,.,.,.,.&.@.J n d l n.N.",
"M.m.' .. .! F S S S S S S S S S S N S S S S S n x f s l m.M.",
"M.N.( j h s t w w 7 w w w w w w w 7 7 7 w 7 7 6 5 4 3 q m.N.",
"M.N.a.R ~ ~ R R T T T ~ T T T T T T T R T T T T T T U _ M.M.",
"M.M.N.N.N.N.N.N.N.N.N.B.B.N.B.B.N.B.N.B.B.B.N.B.B.B.B.N.M.M.",
"M.M.M.M.m.m.M.M.M.M.M.M.M.M.M.M.M.M.M.M.M.M.M.M.M.M.M.M.M.M."
};
