/* XPM */
static char *manageScenarioDisabled_xpm[] = {
/* columns rows colors chars-per-pixel */
"30 30 215 2 ",
"   c gray40",
".  c #6A6262",
"X  c #686565",
"o  c #706A6A",
"O  c #706B6B",
"+  c #706C6C",
"@  c #716D6D",
"#  c #726E6E",
"$  c gray45",
"%  c #797575",
"&  c gray47",
"*  c gray49",
"=  c #7E7E7E",
"-  c #7E7F7F",
";  c gray50",
":  c #7F8181",
">  c #7D8585",
",  c #808080",
"<  c #808181",
"1  c #818181",
"2  c #808282",
"3  c gray51",
"4  c #838383",
"5  c #868383",
"6  c #848484",
"7  c #848585",
"8  c gray52",
"9  c #868686",
"0  c gray53",
"q  c #898686",
"w  c #838C8C",
"e  c #888888",
"r  c #898989",
"t  c #8B8989",
"y  c gray54",
"u  c #8F8D8D",
"i  c #8D8F8F",
"p  c #8E8E8E",
"a  c gray56",
"s  c #918C8C",
"d  c #908D8D",
"f  c #918E8E",
"g  c #8B9494",
"h  c #8B9696",
"j  c #8B9797",
"k  c #8B9898",
"l  c #909090",
"z  c #939393",
"x  c #959191",
"c  c gray58",
"v  c #959595",
"b  c #979999",
"n  c #919D9D",
"m  c #929C9C",
"M  c #919E9E",
"N  c #929E9E",
"B  c #939F9F",
"V  c #999898",
"C  c #989999",
"Z  c gray60",
"A  c #999A9A",
"S  c #9A9A9A",
"D  c gray61",
"F  c gray62",
"G  c #95A2A2",
"H  c #96A2A2",
"J  c #A0A0A0",
"K  c #A0A1A1",
"L  c #A3A0A0",
"P  c #A2A2A2",
"I  c gray64",
"U  c #A4A4A4",
"Y  c #A5A5A5",
"T  c #A5A6A6",
"R  c gray65",
"E  c #A6A7A7",
"W  c #ACA1A1",
"Q  c #A0A9A9",
"!  c #A3ABAB",
"~  c #A7A8A8",
"^  c gray66",
"/  c #A9A8A8",
"(  c #A8A9A9",
")  c #AAAAAA",
"_  c #AAABAB",
"`  c gray67",
"'  c #AAACAC",
"]  c #ADAEAE",
"[  c #AEAEAE",
"{  c #AEAFAF",
"}  c #AABDBD",
"|  c gray69",
" . c #B1B1B1",
".. c #B2B1B1",
"X. c #B2B2B2",
"o. c gray70",
"O. c #B4B4B4",
"+. c #B5B4B4",
"@. c #B6B6B6",
"#. c #B7B7B7",
"$. c #BEB5B5",
"%. c #B7B8B8",
"&. c #B0BCBC",
"*. c #B1BCBC",
"=. c #B1BDBD",
"-. c #B2BEBE",
";. c gray73",
":. c #BABBBB",
">. c #BCBCBC",
",. c gray74",
"<. c gray",
"1. c #BFBEBE",
"2. c gray75",
"3. c #C4BABA",
"4. c #B5C1C1",
"5. c #B1C4C4",
"6. c #C0C0C0",
"7. c gray76",
"8. c #C3C3C3",
"9. c #C6C6C6",
"0. c #C7C6C6",
"q. c #C9C4C4",
"w. c #CAC4C4",
"e. c #CBC6C6",
"r. c #CCC7C7",
"t. c #C8C8C8",
"y. c #CACACA",
"u. c #CBCACA",
"i. c #CEC9C9",
"p. c gray80",
"a. c #D2CFCF",
"s. c #D0D0D0",
"d. c #D2D2D2",
"f. c #D2D3D3",
"g. c LightGray",
"h. c gray83",
"j. c #D5D5D5",
"k. c gray84",
"l. c #D7D7D7",
"z. c #DBD6D6",
"x. c #D8D8D8",
"c. c gray85",
"v. c #DADADA",
"b. c gray86",
"n. c gainsboro",
"m. c #DCDDDD",
"M. c #DDDDDD",
"N. c gray87",
"B. c #DFDFDF",
"V. c #E1DCDC",
"C. c #E2DDDD",
"Z. c #E3DEDE",
"A. c #E4DFDF",
"S. c #D9EAEA",
"D. c #D8ECEC",
"F. c #DFF2F2",
"G. c #DCFBFB",
"H. c #DFFCFC",
"J. c #DFFDFD",
"K. c #DDFFFF",
"L. c #DEFFFF",
"P. c #DFFFFF",
"I. c gray88",
"U. c #E1E1E1",
"Y. c #E2E2E2",
"T. c gray89",
"R. c #E3E4E4",
"E. c #E4E4E4",
"W. c #E4E5E5",
"Q. c gray90",
"!. c #E6E6E6",
"~. c #E7E7E7",
"^. c gray91",
"/. c #E9E9E9",
"(. c #EAEAEA",
"). c gray92",
"_. c #ECECEC",
"`. c gray93",
"'. c #EEEDED",
"]. c #EDEEEE",
"[. c #EEEEEE",
"{. c #E1F3F3",
"}. c #E2F4F4",
"|. c #E4F4F4",
" X c #E6FBFB",
".X c LightCyan",
"XX c #E1FFFF",
"oX c #E2FFFF",
"OX c #E3FFFF",
"+X c #E4FCFC",
"@X c #E7FDFD",
"#X c #E4FFFF",
"$X c #E5FFFF",
"%X c #E6FFFF",
"&X c #E9FFFF",
"*X c #EAFFFF",
"=X c #EBFFFF",
"-X c #ECFFFF",
";X c #EDFFFF",
":X c #EFFFFF",
">X c gray94",
",X c #F1F1F1",
"<X c gray95",
"1X c #F3F3F3",
"2X c #F6F2F2",
"3X c #F4F5F5",
"4X c gray96",
"5X c #F5F6F6",
"6X c #F6F6F6",
"7X c gray97",
"8X c azure",
"9X c #F1FFFF",
"0X c #F2FFFF",
"qX c #F9F9F9",
"wX c #FEFEFE",
/* pixels */
".X.X.X#X.X.X.X.X.X.X.X.X.X.X.X.X.X.X.X.X.X#X.X.X.X.X.X#X.X.X",
".XK.:X:X:X:X:X:X:X:X:X:X:X:X:X:X:X:X:X:X:X:X:X:X:X:X8X8XK.K.",
".X8X} > h h h h h h h h h h h h h h h h h h h h k h w m  X&X",
"#X&XH 3.i.r.r.e.r.r.r.r.r.r.r.r.r.r.r.r.e.e.e.e.e.e.$.q S.&X",
"#XG.4.2XqX7XqX7X7X7X7X7X7XqX7X7X7X7X7X7X7X7X7XwX7X_.a.m S.&X",
"#X.X*.A.E.E.I.I.I.I.I.I.I.I.I.I.I.I.I.I.I.I._.x.x.t.L 6 {.&X",
"#XG.*.A.E.I.B.B.B.B.B.B.B.B.B.B.B.B.n.B.E.7Xd.; X.7.x 3 {.&X",
"#X+X*.A.E.I.B.x.x.l.x.x.l.x.x.x.n.x.x.V.! ] 3 c t.{ p : {.&X",
".X+X*.A.E.B.B.x.x.x.x.x.x.B.x.x.x.x.x.^.@.  D I.t./ f : {.&X",
"#XK.*.A.E.I.x.x.x.x.x.B.x.x.x.x.x.z.^.7.@.9.B.x.7./ f : {.&X",
"#X+X*.A.E.I.x.x.x.x.x.x.x.x.x.x.z.V.h.I / ,XB.d.7.] f : {.&X",
".XG.*.A.E.B.B.x.B.x.x.x.x.x.B.x.S.I.p ;._.x.x.h.7./ f : {.&X",
"#XG.*.A.E.B.I.E.E.B.l.x.x.x.l._.d.p p.B.B.x.x.d.7./ f : {.&X",
"#X+X*.A.I.^.p.l E B.E.E.^.E.,X2.I :.B.B.x.x.b.d.7.] f : {.&X",
".XG.*.A._.l.q D r E d.2.2.2.t.X.X._.x.x.x.x.b.d.7./ f : {.&X",
"#X+X*.V.3X2.& ,X@.r I ; r r & Z >XI.x.b.x.x.x.d.7.] f : {.&X",
"#X.X*.A.(.V.c ; ; @.I.l.l.x.l.3 3 I.E.x.x.x.B.d.7.] f : {.&X",
".X+X*.A.U.~.x./ 2.E.I.I.I.I.^.B.3 0 I.E.l.x.x.d.7./ f : {.&X",
"#XG.*.U.I.B.I.^.E.x.x.x.x.x.x.E.I.0 0 I.^.x.x.d.7.] f : {.&X",
"#X+X*.V.E.B.B.x.x.x.B.x.x.x.x.x.E.E.0 & d.I.x.l.7./ f : {.&X",
".X+X*.A.E.B.x.x.x.x.x.x.x.x.x.x.z.U.S.0 / _.I.l.7.] p : {.&X",
"#X.X*.A.E.I.x.B.x.B.B.x.x.B.x.B.x.z.V.^.2.I X.I t.] p : {.&X",
"#X+X*.I.I.B.B.x.x.x.B.x.x.x.x.x.x.x.l.E.d.0 $ ] p.' f : {.&X",
".XG.*.A.E.B.d.p.p.p.t.p.p.p.p.p.p.p.p.d.;.l p I 3.E p : {.&X",
"#X+X} V.B.9.@...........X.X.X.X...@.X.../ / X.H / D t 3 {.&X",
"#X.X*.z.7.E m v v v v v c c c c c c c c Z D Z Z x p 4 ; }.&X",
"#X#X! W f % @ o @ @ o @ + + @ @ + @ @ @ + + @ o @ @ . X |.:X",
".X:X5.m H m m m m m m m m m m m m m m m m m m m m m g G  X#X",
".X.X&X&X:X8X8X8X8X8X8X0X8X0X8X0X8X8X8X0X8X0X8X0X8X8X0X0X.X.X",
".X.X.X#X#X.X#X.X.X.X.X#X.X#X.X#X.X.X.X#X.X#X.X#X#X.X#X.X.X.X"
};
