/* XPM */
static char *manageScenarioPressed_xpm[] = {
/* columns rows colors chars-per-pixel */
"30 30 148 2 ",
"   c #010101",
".  c #0C0601",
"X  c #0D0C0C",
"o  c #100F0D",
"O  c #0D100F",
"+  c #13110E",
"@  c #161514",
"#  c #191512",
"$  c #1E1A18",
"%  c #241F1B",
"&  c #2B231C",
"*  c #2C2B25",
"=  c #312A24",
"-  c #452C1D",
";  c #553D2C",
":  c #413A33",
">  c #433D38",
",  c #4A443C",
"<  c #55473E",
"1  c #50483F",
"2  c #5D4C3D",
"3  c #634631",
"4  c #4F4E45",
"5  c #504E43",
"6  c #57514A",
"7  c #5D534A",
"8  c #555451",
"9  c #6C5745",
"0  c #6D5847",
"q  c #6F5A48",
"w  c #685D53",
"e  c #6F635A",
"r  c #706155",
"t  c #736659",
"y  c #736A5E",
"u  c #7E7A72",
"i  c #767E7E",
"p  c #876D5C",
"a  c #86705C",
"s  c #827363",
"d  c #897565",
"f  c #867967",
"g  c #80796B",
"h  c #8E7E6C",
"j  c #917F6F",
"k  c #817C73",
"l  c #917F70",
"z  c #8F806D",
"x  c #91806F",
"c  c #8D877C",
"v  c #948272",
"b  c #9A8775",
"n  c #958876",
"m  c #9A8A76",
"M  c #9C8B79",
"N  c #A4917E",
"B  c #7B8383",
"V  c #818683",
"C  c #858A84",
"Z  c #848F8F",
"A  c #84908F",
"S  c #8B908B",
"D  c #859190",
"F  c #8C9897",
"G  c #909894",
"H  c #A89580",
"J  c #A69887",
"K  c #AD9A85",
"L  c #A59B89",
"P  c #B19D87",
"I  c #B49F89",
"U  c #9AA29F",
"Y  c #A5A18D",
"T  c #AFA08F",
"R  c #BCA78F",
"E  c #ACA391",
"W  c #B6A694",
"Q  c #BDA790",
"!  c #BEA991",
"~  c #B7AA99",
"^  c #BCAC9A",
"/  c #9BA4A1",
"(  c #ACA9A1",
")  c #BCB7A4",
"_  c #AABDBC",
"`  c #C3AD96",
"'  c #C1AF9A",
"]  c #C3B19E",
"[  c #CEB59C",
"{  c #C7B89F",
"}  c #CDB89E",
"|  c #D2B99F",
" . c #CBBCA6",
".. c #D6BDA3",
"X. c #C4BEB2",
"o. c #DBC2A7",
"O. c #D3C3AC",
"+. c #DCC4AB",
"@. c #D8C5B0",
"#. c #DFC9B2",
"$. c #DAD7BB",
"%. c #E0C5A7",
"&. c #E1C7AB",
"*. c #E6CBAE",
"=. c #E7CCB0",
"-. c #EED3B5",
";. c #E6D4BB",
":. c #EBD5BC",
">. c #E8DEBF",
",. c #F0D5B7",
"<. c #FBD8B5",
"1. c #F4D7BB",
"2. c #FAD7B9",
"3. c #F5DABC",
"4. c #FBDDBE",
"5. c #DBDAC3",
"6. c #E4D7C3",
"7. c #E2DFC3",
"8. c #F2DAC1",
"9. c #FBDFC0",
"0. c #E1E0C7",
"q. c #ECE3C5",
"w. c #E2E3C8",
"e. c #EEEECD",
"r. c #F5E4C6",
"t. c #FCE1C4",
"y. c #FFE8C7",
"u. c #F6E1C8",
"i. c #FCE4C8",
"p. c #F7EECF",
"a. c #FEEDCC",
"s. c #F4EED0",
"d. c #FFECD1",
"f. c #F5F1D3",
"g. c #FFF5D4",
"h. c #FFF8D6",
"j. c #FFFEDC",
"k. c #DDFFFF",
"l. c #FCF5E1",
"z. c #FFFFE3",
"x. c #FFFFEA",
"c. c #E0F4F6",
"v. c #E2F7F9",
"b. c #E2FFFF",
"n. c #EBFFFF",
"m. c #FFFFF7",
"M. c #F4FFFF",
"N. c #FAFFFF",
/* pixels */
"b.b.k.b.k.b.b.k.b.b.k.k.b.k.b.b.k.b.b.k.b.b.k.b.b.k.b.k.b.b.",
"k.k.M.N.N.N.N.N.M.N.N.N.N.N.N.N.N.N.N.N.N.N.N.N.N.N.N.N.k.k.",
"b.n._ i A Z A A Z Z Z Z Z Z Z Z A Z Z Z B A A A A D B F n.n.",
"b.N.B - 2 2 2 2 2 2 2 2 2 2 2 2 2 2 2 2 7 2 2 2 2 2 ; 7 v.n.",
"b.M.G 0 s f j x x h x x z h z h h h z x h h h h f f p k v.n.",
"b.M.G 9 f M N P K K K K K K K K K K K K K H ` [ N M j k k.n.",
"b.M.G 0 v P ` [ [ [ [ [ [ } [ [ [ [ [ | *.9.K r ..Q n k c.n.",
"b.n.G q m ! ..=.=.*.=.=.=.*.*.*.*.*.-.o.} {   : 8.] b k c.v.",
"b.M.G q m ` o.-.3.3.4.3.3.3.4.3.4.2.a.5.X   4 h.;.^ b k c.b.",
"b.M.F q m ! o.,.4.4.4.4.4.9.4.4.4.9.a.O.y 7 z.d...^ b k c.n.",
"b.n.G q m R o.,.4.4.4.9.9.4.9.9.9.y.s.& L m.y.1.&.^ b k c.n.",
"b.M.G q m ! o.-.4.4.4.4.9.4.4.4.g.r.* ~ p.i.9.8.#.] b k c.n.",
"b.n.G q b R &.g.j.g.2.4.4.4.<.j.O.1 Y y.i.9.i.8.#.^ b k c.n.",
"b.M.G q b ` 2.f 1 O.z.j.j.j.x.~ 6 u j.i.4.9.i.8.#.^ b k c.n.",
"k.M.G q M +.y X , & ) E Y L ( f c x.4.4.4.9.u.8.&.^ b k c.n.",
"b.M.G q M &.% 8 $.X < # # $ . : l.g.2.9.4.9.9.8.=.^ b k c.b.",
"b.M.G q m o.N .   , e.7.:.q.$.# + f.j.2.4.4.t.3.=.^ n k v.n.",
"b.n.G 0 b R 3.` n i.g.a.a.a.j.f.& X 0.j.2.t.t.8.&.^ n k c.n.",
"b.M.F 0 m ! o.a.j.i.8.9.4.4.2.h.f.& O 0.h.2.t.3.&.^ b k c.n.",
"b.M.G 0 m ! o.-.2.9.9.9.4.4.t.<.h.j.*   7.z.h.i.+.^ b k c.n.",
"b.M.G q m ! o.,.9.9.9.9.9.9.9.9.<.h.r.w n 5.O.O.;.~ b k c.n.",
"b.M.G q m ! o.3.9.9.9.9.9.9.9.9.t.4.a.m.e @ @ ^ 9.^ b k c.n.",
"b.n.G q m ! &.9.u.i.9.9.i.9.8.i.t.t.i.z.g     ;.8.^ b k c.n.",
"b.M.G 0 n R +.3.8.8.8.8.8.8.8.8.8.8.8.d.e y 6 W 8.W v g k.n.",
"b.M.F 9 x I  .@.@.@.@.@.@.@.@.@.@.@.@.@.6.9.8.@.] T l k c.n.",
"b.M.G 0 x J W ~ ~ ~ ~ ~ ~ ~ ~ ~ ~ ~ ~ ~ ' ^ ^ ~ E L b k c.n.",
"b.N.C 3 d j v v v v v v v v v v v l l l l v v l l l p y c.n.",
"b.n._ S / U U U / ( G U ( G U U / U U / U U / U / / G / v.b.",
"k.k.n.M.n.n.M.n.n.n.n.n.n.n.M.n.n.n.M.n.n.n.M.n.M.n.n.M.b.k.",
"k.b.b.b.b.b.b.b.b.b.b.b.b.b.b.b.b.b.b.b.b.b.b.b.b.b.b.b.k.b."
};
