/* XPM */
static char *manageScenarioMouseOver_xpm[] = {
/* columns rows colors chars-per-pixel */
"30 30 167 2 ",
"   c #010000",
".  c #0A0607",
"X  c #0F0807",
"o  c #0D0B0B",
"O  c #120E0D",
"+  c #13110E",
"@  c #151312",
"#  c #1C1512",
"$  c #29231E",
"%  c #26231E",
"&  c #3F382E",
"*  c #3E352C",
"=  c #403B30",
"-  c #4C463D",
";  c #564B3E",
":  c #59493D",
">  c #52463C",
",  c #594D40",
"<  c #595144",
"1  c #6B5C4D",
"2  c #655B4A",
"3  c #715B53",
"4  c #676050",
"5  c #6F6D59",
"6  c #746554",
"7  c #7D6B58",
"8  c #75755E",
"9  c #577E60",
"0  c #7B7463",
"q  c #7B7962",
"w  c #8D4B4B",
"e  c #81584F",
"r  c #895D54",
"t  c #8C6257",
"y  c #8F6158",
"u  c #97695E",
"i  c #916459",
"p  c #86765E",
"a  c #857762",
"s  c #8D7763",
"d  c #987261",
"f  c #917C65",
"g  c #A47768",
"h  c #578C66",
"j  c #5B8963",
"k  c #5D9064",
"l  c #549266",
"z  c #608862",
"x  c #629368",
"c  c #67986B",
"v  c #72936C",
"b  c #7D9C74",
"n  c #54AD70",
"m  c #5DB474",
"M  c #78A07E",
"N  c #7FAD7B",
"B  c #7FB07E",
"V  c #39E377",
"C  c #3BE57B",
"Z  c #3DEA7B",
"A  c #87846B",
"S  c #97826A",
"D  c #9D876D",
"F  c #9F896F",
"G  c #958B73",
"H  c #9B8971",
"J  c #9D8173",
"K  c #9C9578",
"L  c #AC816E",
"P  c #A08770",
"I  c #AF8370",
"U  c #A28B71",
"Y  c #B98676",
"T  c #B68976",
"R  c #A1977B",
"E  c #A4997E",
"W  c #AC9379",
"Q  c #B0977A",
"!  c #B49B7E",
"~  c #7CB182",
"^  c #3EEA80",
"/  c #3EF083",
"(  c #48E782",
")  c #4AE984",
"_  c #45E581",
"`  c #57E585",
"'  c #58E786",
"]  c #59E987",
"[  c #57EE89",
"{  c #5BE988",
"}  c #55EC87",
"|  c #4BF385",
" . c #4AF689",
".. c #4FF98C",
"X. c #41F285",
"o. c #52F187",
"O. c #56F289",
"+. c #52F98C",
"@. c #A59980",
"#. c #A4A186",
"$. c #BBA183",
"%. c #AAA591",
"&. c #CB9C86",
"*. c #EC938B",
"=. c #C2A787",
"-. c #C5A989",
";. c #CBAE8E",
":. c #C8BE9E",
">. c #C7B595",
",. c #D5B695",
"<. c #D8B896",
"1. c #DDBC9A",
"2. c #F7A99B",
"3. c #E0BE9C",
"4. c #C5BBA1",
"5. c #F4BAA4",
"6. c #EEBFB2",
"7. c #DBC09D",
"8. c #E4C19E",
"9. c #CBC5A1",
"0. c #DDC5A1",
"q. c #D3C2A3",
"w. c #E6C6A2",
"e. c #EAC7A3",
"r. c #EDC9A3",
"t. c #E1CAA8",
"y. c #F1CEA7",
"u. c #F9CEA6",
"i. c #F2CEA8",
"p. c #FACFA9",
"a. c #F5C1A1",
"s. c #E7D3AE",
"d. c #F5D1AB",
"f. c #FAD4AE",
"g. c #FED9AE",
"h. c #EEC5BE",
"j. c #FFCFB1",
"k. c #E8D7B1",
"l. c #E3DBB5",
"z. c #FAD7B2",
"x. c #F5DCB4",
"c. c #FCDAB5",
"v. c #FDDDBC",
"b. c #E8E0B9",
"n. c #F1E5BC",
"m. c #FEE4BB",
"M. c #F7E9BE",
"N. c #FFE9BE",
"B. c #F4BEC4",
"V. c #F0C8C1",
"C. c #FFD7C3",
"Z. c #FFDBC5",
"A. c #FFDECB",
"S. c #FFE3C2",
"D. c #FFEDC3",
"F. c #FFECC8",
"G. c #F1EAC1",
"H. c #FFF2C6",
"J. c #FFF5CA",
"K. c #FFFBCC",
"L. c #FFEED1",
"P. c #FFF1D4",
"I. c #FFFFD4",
"U. c #FFF4D8",
"Y. c #FFFFDC",
"T. c #FFF2E1",
"R. c LightYellow",
/* pixels */
"` ` ` ] ] ] ` ` ] ` ] ` ] ` ] ` ' ' ' ' ' ' ] ` ] ] ] ` ` ` ",
"` ` O.| | X.| | | | | | | | | | | X.| | | | | | | | | +.` ` ",
"] O.n 9 h h h h h h h h h h h h h h h h h h h h h h j l ] ] ",
"] Z M B.V.h.h.h.h.h.h.h.h.h.h.h.h.h.h.h.h.h.h.h.h.5.2.J C [ ",
"] V ~ T.U.U.P.P.P.P.L.L.P.P.P.P.P.P.P.P.P.P.L.Y.D.f.a.K C [ ",
"{ C ~ A.S.Z.Z.v.v.v.Z.v.v.v.v.Z.Z.v.v.v.v.v.P.0.8.1.&.A _ [ ",
"{ C ~ A.S.v.v.v.x.x.z.v.v.x.x.v.c.c.z.v.F.Y.9.  p u.Q a ( [ ",
"{ C ~ Z.v.v.c.z.z.z.z.z.z.z.z.z.z.f.v.S.2 5   * e.;.T q ( [ ",
"] C ~ Z.v.c.z.z.z.z.f.z.f.f.f.f.f.f.f.I.q   & H.e.$.I q ) [ ",
"{ C ~ Z.v.z.z.f.f.f.f.f.f.f.f.f.f.p.K.E H #.f.c.;.$.I q ) [ ",
"{ C ~ Z.v.c.z.f.f.z.f.f.f.f.z.f.g.v.9., 4 Y.v.8.,.$.I q ) } ",
"{ C ~ Z.v.c.z.z.z.p.f.f.f.f.f.d.m.N.# U I.p.u.e.<.$.I q ) [ ",
"{ C ~ Z.v.z.F.F.H.v.p.f.f.d.u.K.7.% >.n.z.f.d.e.,.$.I q ) } ",
"{ C ~ A.v.J.>.$ 2 m.J.J.J.J.Y.@.- G N.m.f.z.f.e.<.$.I q ) [ ",
"{ C ~ Z.J.9.. , @ ; 4.R E R %.s 0 K.f.f.f.f.d.e.,.$.I q ) [ ",
"{ V ~ C.R.G   P.0 X : . O @   & P.F.p.f.f.f.d.e.,.$.I q ( [ ",
"{ C ~ C.F.k.%     a G.0.w.k.9.  + M.J.u.f.f.d.r.,.$.I q ) O.",
"{ C ~ A.c.F.s.6 H N.N.N.N.N.K.b.+ + l.K.d.f.d.e.,.$.I q ) [ ",
"{ C ~ Z.v.z.N.K.H.g.d.f.f.f.u.J.b.# + l.J.f.d.w.,.$.I q ) [ ",
"{ C ~ Z.v.z.z.f.f.f.f.f.f.f.f.u.J.M.#   9.N.f.d.,.$.I q ) [ ",
"{ C ~ Z.v.c.z.z.f.f.f.f.f.f.f.f.u.J.n.# 1 I.N.d.<.$.I q ) [ ",
"{ V ~ Z.v.c.z.f.f.f.f.f.f.f.f.f.f.p.m.D.H ; 6 ; 8.=.I q ) [ ",
"{ C ~ Z.v.f.f.d.y.y.y.y.y.y.y.y.y.y.r.D.7.    6 e.$.L q ) [ ",
"{ C B v.g.y.e.3.3.3.1.8.1.8.3.3.8.1.8.g.H o @ > <.! g 8 ) [ ",
"] C #.k.8.1.;.;.-.-.-.-.-.-.-.-.-.-.-.,.P S Q 7 ! P d 8 ) [ ",
"{ ^ N 5.-.! W U U U U U U P U U P U P D Q $.! ! f p t 5 } [ ",
"} Z M *.Y g u i y y y y y y y t y t t y r y t r r e w 3 | [ ",
"] o.m v c x x k k k k k k k k k k k k k k k k k k k z l } } ",
"` ` o.X.| ......+.+.+...........+...+.............+...+.` ` ",
"` ` ` ] ] ] ` ` ` ` ] ` ] ` ] ` ' ` ' ' ] ] ] ` ] ] ` ] ` ` "
};
