/* XPM */
static char *moveProcessBelowPressed_xpm[] = {
/* columns rows colors chars-per-pixel */
"30 30 140 2 ",
"   c #000001",
".  c #130F11",
"X  c #1A1516",
"o  c #1D1A1A",
"O  c #221C1C",
"+  c #3C2214",
"@  c #2C2624",
"#  c #302322",
"$  c #342E2A",
"%  c #37322E",
"&  c #39302D",
"*  c #363431",
"=  c #3B3633",
"-  c #573A27",
";  c #533B29",
":  c #423A35",
">  c #443F3B",
",  c #4A423C",
"<  c #584739",
"1  c #59483A",
"2  c #67523F",
"3  c #4F4741",
"4  c #554A44",
"5  c #584F46",
"6  c #5B4F48",
"7  c #5E554D",
"8  c #675341",
"9  c #6A5544",
"0  c #625A4F",
"q  c #68594E",
"w  c #645B53",
"e  c #706257",
"r  c #716458",
"t  c #76695D",
"y  c #766C62",
"u  c #796D64",
"i  c #767162",
"p  c #797266",
"a  c #836C5B",
"s  c #87725E",
"d  c #837364",
"f  c #837569",
"g  c #8A7768",
"h  c #827C6D",
"j  c #8E7D6D",
"k  c #917E6E",
"l  c #8F806D",
"z  c #92816F",
"x  c #878279",
"c  c #88857D",
"v  c #898979",
"b  c #948473",
"n  c #988674",
"m  c #9A8976",
"M  c #948979",
"N  c #9D8978",
"B  c #9D927F",
"V  c #A28F7C",
"C  c #A7937F",
"Z  c #787F80",
"A  c #7E8786",
"S  c #838784",
"D  c #878B86",
"F  c #8D918C",
"G  c #9F9381",
"H  c #869291",
"J  c #889393",
"K  c #939B97",
"L  c #A69787",
"P  c #A99682",
"I  c #A29885",
"U  c #AC9A85",
"Y  c #AE9F8F",
"T  c #B09D87",
"R  c #B29E8A",
"E  c #99A09B",
"W  c #B4A18B",
"Q  c #BCA78F",
"!  c #AFA092",
"~  c #B6A696",
"^  c #B7A892",
"/  c #BEA890",
"(  c #B7A998",
")  c #BBAB98",
"_  c #93A1A0",
"`  c #9EA7A3",
"'  c #9EA8A3",
"]  c #A0ADAB",
"[  c #ABBEBE",
"{  c #C6AF96",
"}  c #C6B19A",
"|  c #CDB59C",
" . c #D1B89F",
".. c #C5B3A1",
"X. c #CDB8A3",
"o. c #D5BBA2",
"O. c #D9BFA4",
"+. c #CEC0A8",
"@. c #D1C2A7",
"#. c #DCC2A7",
"$. c #D6C3AE",
"%. c #DDC4A9",
"&. c #DCC9AE",
"*. c #D7C5B0",
"=. c #DEC9B1",
"-. c #E1C7AC",
";. c #E5C9AD",
":. c #E6CDB1",
">. c #EBCBB0",
",. c #EED3B6",
"<. c #E4D0BA",
"1. c #EDD6BE",
"2. c #EDD9BB",
"3. c #F2D7BA",
"4. c #F5DABC",
"5. c #FBDDBE",
"6. c #B0C2C0",
"7. c #DFD8C3",
"8. c #EFD8C0",
"9. c #F3DBC1",
"0. c #FCDFC1",
"q. c #E9E4C8",
"w. c #F4E3C4",
"e. c #FCE2C4",
"r. c #FEE7CB",
"t. c #FEEBCB",
"y. c #FFF1CF",
"u. c #FFF4D2",
"i. c #FFFAD7",
"p. c #FFFEDD",
"a. c #D6F7F9",
"s. c #D7F8FA",
"d. c #DCFDFE",
"f. c #FFFFE2",
"g. c #FFFFEC",
"h. c #E1FFFF",
"j. c #EAFFFF",
"k. c #FFFFF3",
"l. c #F3FFFF",
"z. c #FBFFFE",
/* pixels */
"h.h.h.h.h.h.h.h.h.h.h.h.h.h.h.h.h.h.h.h.h.h.h.h.h.h.h.h.h.h.",
"h.d.l.z.l.z.l.z.l.l.z.l.l.z.l.l.l.l.z.l.z.l.l.l.z.l.z.l.h.h.",
"h.l.[ Z H H H H H H H H H H H H H H H H H H H H H H A _ h.h.",
"h.l.S + < < 1 1 1 1 1 1 1 1 1 1 1 1 1 1 1 1 1 1 1 1 ; w d.j.",
"h.l.K 2 d d j l l l l l k z l j z l j l l k z k g d s x d.j.",
"h.j.K 8 g m C U U U U U P W | | W P U U U U U U P N k c a.j.",
"h.l.K 9 b T {  .| | | | 3.#.r r O.4.O.| | |  . .| W m S a.h.",
"h.l.K 9 m Q @.;.:.;.e.t.C O % % O a 3.y.:.;.,.3.%.( N c a.j.",
"h.l.K 9 m { %.,.4.t.;., . p y.u.M @ % U e.5.e.9.-.) V x a.j.",
"h.j.K 9 n / #.,.y.>.  , p.g.e.e.g.k.5   :.u.e.9.=...k c a.j.",
"h.l.K 9 m / #.,.t.2., & b w.p.f.2.0 @ h w.t.5.4.=.) N c a.j.",
"d.l.K 9 m / #.,.4.t.y.B @ o p p X = o.f.e.e.e.4.-.) G h a.h.",
"h.l.K 9 m / #.,.5.5.e.p.i.C 4 6 U p.i.5.0.0.0.9.=.) G x a.j.",
"h.l.K 9 m / #.,.5.0.e.5.0.g.%.R g.e.0.5.0.0.0.9.=.) G c a.h.",
"h.l.K 9 m / #.,.5.5.0.4.u.w.X   } f.9.0.0.0.0.9.-.) k c a.j.",
"h.j.K 9 m / #.,.5.0.e.t.w.#       $.t.0.0.0.0.9.=.) G c a.j.",
"h.l.K 9 n / #.,.5.e.5.t.>.v 3 = h O.y.5.5.e.e.3.=.) N c a.j.",
"h.j.K 9 m / #.,.5.5.5.t.i.g.j 0 k.i.i.e.5.0.e.4.-.) N c a.j.",
"h.l.K 9 m / #.,.4.e.p.2.: q f t b O ^ i.e.5.e.9.=.) V c a.j.",
"h.l.K 9 m / #.,.e.t.G @ , 7.d , q.y $ 7 4.t.e.9.-.~ V c a.j.",
"h.l.K 9 m / #.,.r.3.  , k.z.O.} k.g.4   :.u.0.9.*.) V D a.j.",
"h.l.K 9 m / %.3.r.r.G % $ P g.z.N o = X.u.e.e.9.<.) N h a.j.",
"h.l.K 9 n / ;.5.0.r.g.9.u O = * o M f.f.0.e.r.9.=.) V S a.j.",
"h.j.K 9 n Q -.2.8.8.8.r.f.8.p u 8.f.9.8.8.8.9.1.O.Q n h a.h.",
"h.l.K 8 z R X.$.*.*.*.*.*.=.r.y.<.*.*.*.$.$.$.O...! b S a.j.",
"h.l.K 8 z L ~ ( ( ( ( ( ( ~ ( ( ( ( ( ~ ( Q ) ( ! L n c a.j.",
"h.l.D - u g g k k j k j j j k g j j j j g k k g g g a u a.j.",
"h.j.6.F ` ! ] ] ` ` ` ` ` ! ] ] ` ` ` ` ] E ] ] ] ] K ] h.h.",
"h.h.j.l.j.j.j.j.j.j.j.j.j.j.j.j.j.j.j.j.j.j.j.j.l.j.j.l.h.h.",
"h.h.h.h.h.h.h.h.h.h.h.h.h.h.h.h.h.h.h.h.h.h.h.h.h.h.h.h.h.h."
};
