/* XPM */
static char *moveProcessBelowDisabled_xpm[] = {
/* columns rows colors chars-per-pixel */
"30 30 194 2 ",
"   c #685F5F",
".  c #6B6666",
"X  c #6C6666",
"o  c #6C6767",
"O  c #6D6767",
"+  c #6D6868",
"@  c #6C6C6C",
"#  c #767171",
"$  c #777777",
"%  c gray47",
"&  c gray48",
"*  c #7B7B7B",
"=  c gray50",
"-  c #818181",
";  c gray51",
":  c #848484",
">  c gray52",
",  c #868686",
"<  c gray53",
"1  c #888585",
"2  c #8C8686",
"3  c #808989",
"4  c #858989",
"5  c #868A8A",
"6  c #868B8B",
"7  c #878B8B",
"8  c #888888",
"9  c gray54",
"0  c #8B8B8B",
"q  c #8E8B8B",
"w  c gray55",
"e  c #8D8C8C",
"r  c #8D8D8D",
"t  c #8E8E8E",
"y  c gray56",
"u  c #928F8F",
"i  c #8B9090",
"p  c #889393",
"a  c #8F9A9A",
"s  c #8F9B9B",
"d  c #909090",
"f  c #939091",
"g  c #929292",
"h  c #939393",
"j  c #949190",
"k  c #949191",
"l  c gray58",
"z  c #959595",
"x  c gray59",
"c  c #979797",
"v  c #9D9191",
"b  c #989595",
"n  c #959E9E",
"m  c gray60",
"M  c #9A9A9A",
"N  c #9B9B9B",
"B  c gray61",
"V  c #9D9D9D",
"C  c #9F9F9F",
"Z  c #94A0A0",
"A  c #94A1A1",
"S  c #95A1A1",
"D  c #95A2A2",
"F  c #9DA1A1",
"G  c #99A6A6",
"H  c #98A7A7",
"J  c #9BAAAB",
"K  c #A0A0A0",
"L  c gray63",
"P  c #A2A2A2",
"I  c gray64",
"U  c #A5A5A5",
"Y  c gray65",
"T  c #A7A7A7",
"R  c #A8A5A5",
"E  c #A5ADAD",
"W  c #A5AEAE",
"Q  c gray66",
"!  c #A9A9A9",
"~  c #AAAAAA",
"^  c gray67",
"/  c #ACACAC",
"(  c gray68",
")  c #AEAEAE",
"_  c #AFAFAF",
"`  c #B7ACAC",
"'  c gray69",
"]  c #B1B1B1",
"[  c #B2B2B2",
"{  c gray70",
"}  c #B4B4B4",
"|  c gray71",
" . c #B6B6B6",
".. c #B7B7B7",
"X. c #BBB2B2",
"o. c gray72",
"O. c gray73",
"+. c gray74",
"@. c gray",
"#. c #C2BCBC",
"$. c #C4BFBF",
"%. c #AEC1C1",
"&. c #B6C2C2",
"*. c #B6C3C3",
"=. c #B7C3C3",
"-. c #BBC7C7",
";. c #B5C9C9",
":. c #C0C0C0",
">. c #C1C1C1",
",. c gray76",
"<. c #C3C3C3",
"1. c #C6C1C1",
"2. c #C7C1C1",
"3. c #C7C2C2",
"4. c gray77",
"5. c #C5C5C5",
"6. c #C6C6C6",
"7. c #C8C8C8",
"8. c gray79",
"9. c #CACACA",
"0. c gray80",
"q. c #CDCDCD",
"w. c gray81",
"e. c #D1CCCC",
"r. c #D0D0D0",
"t. c gray82",
"y. c #D2D2D2",
"u. c LightGray",
"i. c #D4D0D0",
"p. c gray83",
"a. c #D5D5D5",
"s. c gray84",
"d. c #D7D7D7",
"f. c #DAD4D4",
"g. c #DBD5D5",
"h. c #DCD6D6",
"j. c #DCD7D7",
"k. c #D8D8D8",
"l. c gray85",
"z. c #DADADA",
"x. c gray86",
"c. c #DDD8D8",
"v. c gainsboro",
"b. c #DDDDDD",
"n. c gray87",
"m. c #DFDFDF",
"M. c #CEECED",
"N. c #CFEEEE",
"B. c #D5F4F4",
"V. c #D6F5F5",
"C. c #D7F6F6",
"Z. c #D8F7F7",
"A. c #D8F8F8",
"S. c #DFFDFD",
"D. c #DEFFFF",
"F. c #DFFFFF",
"G. c gray88",
"H. c #E1E1E1",
"J. c #E2E2E2",
"K. c gray89",
"L. c #E4E4E4",
"P. c gray90",
"I. c #E6E6E6",
"U. c #E7E7E7",
"Y. c #EDE7E7",
"T. c gray91",
"R. c #E9E9E9",
"E. c #EAEAEA",
"W. c gray92",
"Q. c gray93",
"!. c #EEEEEE",
"~. c #E0FDFD",
"^. c LightCyan",
"/. c #E1FFFF",
"(. c #E2FFFF",
"). c #E5FFFF",
"_. c #E6FFFF",
"`. c #E8FFFF",
"'. c #E9FFFF",
"]. c #EBFFFF",
"[. c #ECFFFF",
"{. c #EDFFFF",
"}. c #EEFFFF",
"|. c gray94",
" X c #F1F1F1",
".X c gray95",
"XX c #F3F3F3",
"oX c #F4F4F4",
"OX c gray96",
"+X c #F6F6F6",
"@X c azure",
"#X c #F1FFFF",
"$X c #F8F8F8",
"%X c white",
/* pixels */
"/./././././././././././././././././././././././././././././.",
"/.F.[.#X}.}.}.}.}.}.}.}.}.}.}.}.}.}.}.}.}.}.}.}.}.}.@X#X(.^.",
"/.}.%.3 s s s s s s s s s s s s s s s s s s s s s s p H ~.).",
"/._.E ` 3.1.2.1.1.1.1.1.1.1.1.1.1.1.1.1.1.1.1.1.$.#.X.e M.'.",
"/.D.-.Y.+XOXOXoXoXoXoXoXXX+X%X%X+XXXoXoXoXoXoXXX XE.i.F N.`.",
"/.^.=.c.U.P.K.K.K.K.J.K.|.W.5.5.E..XI.J.K.K.K.J.n.7.R i B.`.",
"/.^.&.j.L.G.m.n.b.v.I.Q.0.l 8 9 g :.I.W.m.v.n.b.w.{ b 7 V.`.",
"/.^.=.h.K.n.x.z.l.P.s.V = L l.z.Q : t :.G.x.z.a.<.~ f 5 C.`.",
"/.^.=.h.K.n.x.l.H.+.0 C q.T.G.m.T.v. .= ! L.z.y.:.Q j 6 C.`.",
"/.^.=.h.K.n.x.z.I.N $ w.|.I.z.z.U.U.+.= / L.z.u.>.! j 6 C.`.",
"/.^.=.h.K.n.x.l.n.a.Q , l ,.L.P.@.9 < @.J.x.l.u.>.! j 6 C.`.",
"/.^.=.h.K.n.x.l.d.G.T.r.I < c c > / b.T.x.k.l.u.>.! j 6 C.`.",
"/.^.=.h.K.n.x.l.l.k.l.J.T.r.{ { u.T.m.k.l.l.l.u.>.! j 6 C.`.",
"/.^.=.h.K.n.x.l.l.l.l.k.k.Q.8.| I.v.k.l.l.l.l.u.>.! j 6 C.`.",
"/.^.=.h.K.n.x.l.l.l.l.k.I.t.< % O.R.l.l.l.l.l.u.>.! j 6 C.`.",
"/.^.=.h.K.n.x.l.l.l.l.m.p.8 - w * ,.K.l.l.l.l.u.>.! j 6 C.`.",
"/.^.=.h.K.n.x.l.l.l.l.H.<.I B x P O.H.l.l.l.l.u.>.! j 6 C.`.",
"/.^.=.h.K.n.x.l.l.l.k.x.T.$X[ N  X!.n.k.l.l.l.u.>.! j 6 C.`.",
"/.^.=.h.K.n.x.l.k.l.I.K./ } } T >.I s.R.n.d.l.u.>.! j 6 C.`.",
"/.^.=.h.K.n.x.l.l.K.9.y ; 4.] C 0.r < ] z.b.l.u.>.! j 6 C.`.",
"/.^.=.h.K.n.x.l.K...; ' G.|. .U R.Q.7.& C I.z.u.>.! j 6 C.`.",
"/.^.=.h.K.n.x.z.I.^ * @.K.U.m.G.T.d./ 8 o.L.x.p.,.! k 6 C.`.",
"/./.&.h.K.m.v.l.z.b.O.r r [ z.b._ , l 0.K.l.l.t.>.! k 7 C.`.",
"/./.&.g.K.x.y.0.9.w.x.t.( t l h t } k.d.0.0.0.5.o.U u 5 C.`.",
"/./.*.f.x.6...[ ] [ ]  .@. .K C  .@.{ ] [ [ [ ) Y M q 5 C.`.",
"/./.=.e.>.Y m z z z z z l c B B c l z z z z l l d r 1 4 Z.`.",
"/.`.W v 2 # + . o o o o o o o o o o o o o o o X X O   @ A.'.",
"/.].;.n G D Z Z A A A A A A A A A A A A A A A A S D a J S.).",
"/.^.'.].{.@X#X#X#X#X#X#X#X#X#X#X#X#X#X#X#X#X#X#X#X@X@X@X(.^.",
"/./././././././././././././././././././././././././././././."
};
