/* XPM */
static char *moveSubProcessAboveMouseOver_xpm[] = {
/* columns rows colors chars-per-pixel */
"30 30 161 2 ",
"   c black",
".  c #09080E",
"X  c #0E0D12",
"o  c #131215",
"O  c #1C181B",
"+  c #262222",
"@  c #2A2324",
"#  c #2F2A29",
"$  c #332D2B",
"%  c #35312D",
"&  c #39312E",
"*  c #3F3733",
"=  c #453A36",
"-  c #4C423D",
";  c #514741",
":  c #594D43",
">  c #5F5247",
",  c #63554A",
"<  c #67584D",
"1  c #6C5D51",
"2  c #706054",
"3  c #7C6A5A",
"4  c #6F765D",
"5  c #747A5F",
"6  c #777D62",
"7  c #797F65",
"8  c #8C484B",
"9  c #80524D",
"0  c #855751",
"q  c #8D5E57",
"w  c #8F5F58",
"e  c #8C6759",
"r  c #816E5E",
"t  c #96655C",
"y  c #88765F",
"u  c #877462",
"i  c #8D7A67",
"p  c #947E67",
"a  c #937E6A",
"s  c #9B7463",
"d  c #A16E65",
"f  c #A77D6B",
"g  c #578062",
"h  c #598965",
"j  c #5F9265",
"k  c #589068",
"l  c #579969",
"z  c #5B9C69",
"x  c #638C64",
"c  c #7B8065",
"v  c #619466",
"b  c #639769",
"n  c #699B6D",
"m  c #73946E",
"M  c #7F9E76",
"N  c #55B072",
"B  c #5FB776",
"V  c #3EE67C",
"C  c #3FEB7D",
"Z  c #40D579",
"A  c #49DD7F",
"S  c #45DA7D",
"D  c #808468",
"F  c #888B6D",
"G  c #9C856D",
"H  c #9C8672",
"J  c #948973",
"K  c #9A9A7A",
"L  c #AD8370",
"P  c #A58D74",
"I  c #A88F75",
"U  c #A58E78",
"Y  c #B18672",
"T  c #B58875",
"R  c #A99176",
"E  c #AC937A",
"W  c #B0977D",
"Q  c #BE917B",
"!  c #B4997E",
"~  c #83B07E",
"^  c #4ADD80",
"/  c #4DE182",
"(  c #41EA81",
")  c #55E584",
"_  c #58E585",
"`  c #52EF87",
"'  c #58E987",
"]  c #59EC88",
"[  c #44F285",
"{  c #4DF385",
"}  c #4DF689",
"|  c #4FFA8C",
" . c #51F68B",
".. c #58F38A",
"X. c #51F88C",
"o. c #AE9981",
"O. c #B59C81",
"+. c #B99F82",
"@. c #82A480",
"#. c #86B585",
"$. c #86B788",
"%. c #8BBB8B",
"&. c #BCA184",
"*. c #E18583",
"=. c #C1A486",
"-. c #CFA087",
";. c #C2A689",
":. c #C6A98B",
">. c #C9AC8C",
",. c #CBAE91",
"<. c #CDB191",
"1. c #D4B595",
"2. c #D8B797",
"3. c #DBBA97",
"4. c #DCBC9B",
"5. c #F4A79B",
"6. c #E1BF9C",
"7. c #F3B19B",
"8. c #F0BBAF",
"9. c #F1B6A3",
"0. c #EFBFB7",
"q. c #F0BFBB",
"w. c #F1B1BC",
"e. c #E2C09E",
"r. c #D4CAA5",
"t. c #E4C3A1",
"y. c #E9C6A2",
"u. c #ECC9A4",
"i. c #E4C8A9",
"p. c #ECCEA9",
"a. c #F1CDA6",
"s. c #FFC6AC",
"d. c #F2CFA9",
"f. c #F9C2A2",
"g. c #F5D3AC",
"h. c #FBD5AE",
"j. c #FED8AF",
"k. c #EFC0BB",
"l. c #F0C0BB",
"z. c #F4D6B1",
"x. c #FAD7B1",
"c. c #FEDBB4",
"v. c #FFD2BC",
"b. c #FDDDBC",
"n. c #FFE0B7",
"m. c #FEE3BA",
"M. c #FFE9BD",
"N. c #FFD3C2",
"B. c #FBDFC2",
"V. c #FFD8C9",
"C. c #FEE5C3",
"Z. c #FFEDC3",
"A. c #FFECCC",
"S. c #FFF2C5",
"D. c #FFF3CD",
"F. c #FFFACC",
"G. c #FFEED2",
"H. c #FFE8DA",
"J. c #FFF2D3",
"K. c #FFFDD5",
"L. c #FFFFD8",
/* pixels */
"_ _ _ _ _ _ _ _ _ _ _ _ _ _ _ _ _ _ _ _ _ _ _ _ _ _ _ _ _ _ ",
"_ _ ..{ { } { { { { { { { { { { { { { { { { { { { { }  .' _ ",
"_ ..N g k k k k k k k k k k k k k k k k k k k k k k h l ) ' ",
"_ V ~ w.k.k.k.k.q.k.k.k.k.k.k.q.k.k.k.l.l.l.l.0.8.9.5.H Z ] ",
"_ V %.H.H.J.G.G.G.G.G.G.G.J.J.J.J.J.J.J.J.J.D.A.C.j.f.K Z ] ",
") V $.V.C.C.B.B.b.B.B.b.A.K.J.J.J.J.J.D.J.A.K.Z.a.3.-.F S ] ",
") V #.N.B.b.b.b.z.b.x.Z.i.; = = - - - - - = - 4.j.:.Q D A ] ",
"_ V #.N.B.v.z.x.z.x.b.M.* * J i i i i i i J = % y.>.T c A ] ",
"_ V #.N.b.b.x.x.x.x.n.y.+ e.L.S.S.S.S.S.S.K.g.+ ! >.T 7 A ] ",
"_ V #.N.b.x.x.h.h.h.b.y.& >.M.h.h.j.c.h.h.n.1.& =.>.Y 7 ) ] ",
"_ V #.N.b.z.b.M.m.m.S.x.& >.M.h.c.M.n.c.h.n.1.& =.>.Y 7 A ] ",
"_ V #.N.b.b.z.&.O.O.,.O.# >.M.c.S.< : Z.c.n.1.& =.>.Y D A ] ",
"_ V #.N.b.A.o.3 O.E ;.E # >.M.S.G     a S.M.1.& =.>.Y c A ] ",
"_ V #.N.b.m.E y.S.m.Z.x.& :.F.1.. o o X 3.S.1.& =.>.Y c A ] ",
"_ V #.N.b.b.&.4.n.h.n.u.% :.Z.e.r.> > r.u.M.3.& =.>.Y c A ] ",
"_ V #.N.B.m.U 1.n.x.n.y.$ 2.M.M.L.1 1 K.n.M.e.& ! >.Y c A ] ",
"_ V #.N.b.b.&.4.c.h.n.d.O P S.c.S., , F.c.S.! O >.>.Y c A ] ",
"_ V #.N.b.b.>.y.c.h.h.S.G o % + 6.r 3 p.# # O 3 a.=.Y c A ] ",
"_ V #.N.B.m.E 1.n.h.h.j.Z.1.E E M.3 < m.E P ;.c.6.! T 5 A ] ",
"_ V #.N.b.m.o.4.c.h.h.h.h.M.S.S.S.% > F.Z.S.M.u.3.! Y D A ] ",
"_ V #.N.b.b.,.y.j.h.c.n.< + & = @ & p.M.h.h.g.u.3.! T 5 A ] ",
"_ V #.v.b.b.o.e.n.h.j.j.>.E &.! &.3.,.j.h.h.g.y.3.&.Y D A ] ",
"_ V #.v.b.M.i ! b.a.a.u.n.M.M.n.F.O.3 c.d.a.u.e.<.! L 7 _ ] ",
"' V #.v.j.g.:.u p H O.R a E R G P i O.u.e.4.3.1.=.E f D A ] ",
"_ V #.s.y.1.6.>.E ! +.! W +.! W W =.<.:.:.:.=.! E G s 5 A ] ",
"_ ( ~ 7.>.O.I I I I I R R I R R R I P P P H P G G y e 4 _ ] ",
"_ [ M *.Y d t w q q w w q q q e q q q q q q q q 0 9 8 1 A ] ",
"_ ..B m n b v j h v v v j x v j j j j j j j j j j j x z _ ] ",
"_ _ ` [ { } } } X. . . . . . . . .}  . . .|  . .} X.....] ] ",
"_ _ _ _ _ _ _ _ _ _ _ _ _ _ _ _ _ _ _ _ _ _ _ _ ] A A ] A ] "
};
