/* XPM */
static char *moveSubProcessBelowNormal_xpm[] = {
/* columns rows colors chars-per-pixel */
"30 30 150 2 ",
"   c black",
".  c #1D1A1C",
"X  c #211D1E",
"o  c #231F21",
"O  c #272222",
"+  c #2B2525",
"@  c #2D2827",
"#  c #332D2A",
"$  c #36302D",
"%  c #38302E",
"&  c #3B3431",
"*  c #4B3A35",
"=  c #4E3D38",
"-  c #624126",
";  c #674E37",
":  c #6D533B",
">  c #71573E",
",  c #74593F",
"<  c #564B42",
"1  c #64564B",
"2  c #755941",
"3  c #6D5D51",
"4  c #7C6046",
"5  c #7E654B",
"6  c #6C6051",
"7  c #726154",
"8  c #7D6B5A",
"9  c #886A4F",
"0  c #836F5F",
"q  c #8C7155",
"w  c #88755E",
"e  c #9B7B5E",
"r  c #AB7B53",
"t  c #877361",
"y  c #8B7765",
"u  c #817A6D",
"i  c #937D66",
"p  c #917C68",
"a  c #867D70",
"s  c #9F8063",
"d  c #96826F",
"f  c #9B846E",
"g  c #8C8375",
"h  c #988471",
"j  c #9D8975",
"k  c #928779",
"l  c #9A8E7E",
"z  c #A28365",
"x  c #A68668",
"c  c #AF8E6E",
"v  c #A28B73",
"b  c #A58F79",
"n  c #AA9277",
"m  c #A5907B",
"M  c #AD957B",
"N  c #B0967A",
"B  c #B3997D",
"V  c #CF9F75",
"C  c #C19E7B",
"Z  c #818886",
"A  c #8A928E",
"S  c #91948D",
"D  c #8F9B9A",
"F  c #969D97",
"G  c #9A9E94",
"H  c #909B99",
"J  c #AC9E8A",
"K  c #B29A83",
"L  c #B99E83",
"P  c #9BA19A",
"I  c #BBA084",
"U  c #BBA28A",
"Y  c #B7A98B",
"T  c #A0A59E",
"R  c #A8A69A",
"E  c #99A6A4",
"W  c #9DA8A4",
"Q  c #AAACA4",
"!  c #BABBAF",
"~  c #BEBFB3",
"^  c #C0A486",
"/  c #C2A78B",
"(  c #CBA68C",
")  c #C6A98B",
"_  c #CAAC8C",
"`  c #D8AC85",
"'  c #D8B18D",
"]  c #C6AD92",
"[  c #CCAF91",
"{  c #C3B595",
"}  c #CAB095",
"|  c #D3B494",
" . c #D9B997",
".. c #D7B699",
"X. c #D5BC9B",
"o. c #DCBD9B",
"O. c #E0BE9C",
"+. c #D7BBA5",
"@. c #D8BDA7",
"#. c #BEC0B6",
"$. c #BDC1B9",
"%. c #DFC09F",
"&. c #EAC096",
"*. c #E2C09E",
"=. c #F1C297",
"-. c #D5C1A1",
";. c #C2C5BD",
":. c #E4C4A1",
">. c #E9C6A2",
",. c #E1C8A3",
"<. c #ECC9A5",
"1. c #E5C7A8",
"2. c #ECCDA9",
"3. c #E4CBAC",
"4. c #F1CDA7",
"5. c #F8CCA2",
"6. c #F5CEAB",
"7. c #EAD4AF",
"8. c #F4D1AB",
"9. c #FBD4AD",
"0. c #FED8AF",
"q. c #F6D2B2",
"w. c #FAD7B1",
"e. c #FDDBB4",
"r. c #FDDEBC",
"t. c #F4E1B7",
"y. c #FFE0B7",
"u. c #F7E4BA",
"i. c #FFE3BA",
"p. c #FFE9BE",
"a. c #AEC1C0",
"s. c #B7C8C5",
"d. c #FBDEC0",
"f. c #FFE4C4",
"g. c #FFECC2",
"h. c #FFEBCB",
"j. c #FFF3C5",
"k. c #FFF7C9",
"l. c #FFFCCD",
"z. c #FFEFD3",
"x. c #FFF0D4",
"c. c #FFFFD0",
"v. c #FFFFDB",
"b. c #CBEFF5",
"n. c #D3F6FA",
"m. c #D5F8FC",
"M. c #DDFFFF",
"N. c #E1FFFF",
"B. c #ECFFFF",
"V. c #F0FFFF",
/* pixels */
"N.N.N.N.N.N.N.N.N.N.N.N.N.N.N.N.N.N.N.N.N.N.N.N.N.N.N.N.N.N.",
"N.M.B.V.B.B.B.B.B.B.B.B.B.V.B.B.B.B.B.B.B.B.B.B.B.B.V.V.N.N.",
"N.B.a.Z H H D D H H H H H H H H D D D D H H H H D D A E N.N.",
"N.N.Q ( @.+.+.+.+.+.+.+.@.+.+.+.+.+.+.+.+.+.+.+...' V f b.B.",
"N.M.;.f.x.x.z.x.z.x.z.z.x.z.x.x.z.z.z.z.z.z.z.h.p.9.&.J b.B.",
"N.M.$.q.f.d.h.h.f.f.f.f.f.f.f.f.f.h.f.d.d.d.r.e.8.o.C l n.B.",
"N.M.$.q.d.f.3.m j K } U b ] / m K K 1.r.e.e.w.9.*._ c k n.N.",
"N.M.#.8.d.h.j j -.o.>.+.o.6.2.-.7.j d g.e.q.0.4.O.^ x g n.B.",
"N.M.~ 6.r.r.L <.g.y.e.y.y.w.w.e.p.6.v e.w.0.9.>. .I z g m.B.",
"N.M.$.6.r.i.K o.e.9.e.e.1 O & & o 1 8.r.9.9.8.>.| I z g n.B.",
"N.M.$.6.r.i.b ..i.9.w.0.) L _ _ Y . t k.y.y.0.<. .B z g m.N.",
"N.M.~ 6.r.r./ -.e.9.9.9.l.l.y.y.v.7 < j.8.<.w.e. .I z g m.B.",
"N.M.;.6.r.r.) :.e.9.9.g.) @ + o o.0 8 2.+ + + B 4.B z g m.N.",
"N.M.~ 6.d.i.b | y.9.e.e.+ 1 { L t.3 3 p.I { 6 O  .) z g n.B.",
"N.M.~ 6.r.y.I o.y.9.y.>.@ *.c.g.l.1 1 l.g.l.4.# C _ z g m.B.",
"N.M.#.6.r.r.[ :.e.9.e.<.$ _ p.q.l.3 3 c.9.p.| % ^ _ z g n.B.",
"N.M.;.6.r.r.v :.p.i.p.9.$ _ l._ $ @ + & ..k.| $ ^ _ z g m.N.",
"N.M.#.6.r.g.h y X._ %.Y # _ g.u.=     * u.p.| $ ^ _ z g m.B.",
"N.M.#.6.r.p.2.h v v I v @ _ i.p.i.O . y.p.y.| % ^ _ z g m.N.",
"N.M.#.6.r.q.i.p.y.i.p.9.$ _ p.9.p.>.:.p.9.p.| % ^ _ z g m.B.",
"N.M.#.6.r.e.e.q.9.0.i.<.$ _ p.9.9.i.i.9.9.i.| % ^ _ z g n.B.",
"N.M.#.6.r.e.w.q.9.9.y.*.@ o.k.i.i.i.y.y.y.j.>.$ I _ z g m.N.",
"N.M.#.6.e.0.9.8.4.<.9.8.O 8 *.| | [ } | | ,.y X _ ^ e g m.B.",
"N.M.#.5.0.6.*.*.O.O.%.9.v X # $ $ $ $ $ $ # X i  .M e g m.N.",
"N.M.~ =.>. ._ _ ^ ) ) ^ o.) n M N N N M M n I | M f q u M.B.",
"N.N.! ` _ B M v v v x v v M N N N N N N N N M f i w 9 u m.B.",
"N.N.R r e 9 4 2 , , 2 2 2 2 2 , 2 2 2 2 2 2 , > : ; - 6 m.B.",
"N.B.s.G T P G G F F F P F F F F F F F F F F F F F F S W N.N.",
"N.N.B.N.B.B.V.B.B.V.B.V.V.B.V.V.V.B.V.V.B.V.V.V.B.V.V.B.N.N.",
"N.N.N.N.N.N.N.N.N.N.N.N.N.N.N.N.N.N.N.N.N.N.N.N.N.N.N.N.N.N."
};
