/* XPM */
static char *moveSubProcessBelowMouseOver_xpm[] = {
/* columns rows colors chars-per-pixel */
"30 30 165 2 ",
"   c black",
".  c #1D1A1C",
"X  c #211D1E",
"o  c #231F21",
"O  c #272222",
"+  c #2B2525",
"@  c #2D2827",
"#  c #332D2A",
"$  c #36302D",
"%  c #38302E",
"&  c #3B3431",
"*  c #4E3D38",
"=  c #4B3A35",
"-  c #564B42",
";  c #64564B",
":  c #6D5D51",
">  c #716154",
",  c #7D6B5A",
"<  c #6F765D",
"1  c #747A5F",
"2  c #777D62",
"3  c #797F65",
"4  c #8C484B",
"5  c #80524D",
"6  c #855751",
"7  c #8D5E57",
"8  c #8F5F58",
"9  c #8C6759",
"0  c #836F5F",
"q  c #96655C",
"w  c #88765F",
"e  c #877361",
"r  c #8B7765",
"t  c #917C68",
"y  c #987965",
"u  c #A16E65",
"i  c #A77D6B",
"p  c #578062",
"a  c #598965",
"s  c #5F9265",
"d  c #589068",
"f  c #579969",
"g  c #5B9C69",
"h  c #638C64",
"j  c #7B8065",
"k  c #619466",
"l  c #639769",
"z  c #699B6D",
"x  c #73946E",
"c  c #7F9E76",
"v  c #55B072",
"b  c #5FB776",
"n  c #3EE67C",
"m  c #3FEB7D",
"M  c #40D579",
"N  c #49DD7F",
"B  c #45DA7D",
"V  c #808468",
"C  c #888B6D",
"Z  c #96826F",
"A  c #9B846E",
"S  c #9D8975",
"D  c #9A8574",
"F  c #9A9A7A",
"G  c #AD8370",
"H  c #A28B73",
"J  c #A58F79",
"K  c #B18672",
"L  c #B58875",
"P  c #AA9277",
"I  c #A5907B",
"U  c #AD957B",
"Y  c #B0967A",
"T  c #BE917B",
"R  c #B3997D",
"E  c #83B07E",
"W  c #4ADD80",
"Q  c #4DE182",
"!  c #41EA81",
"~  c #55E584",
"^  c #58E585",
"/  c #52EF87",
"(  c #58E987",
")  c #59EC88",
"_  c #44F285",
"`  c #4DF385",
"'  c #4DF689",
"]  c #4FFA8C",
"[  c #51F68B",
"{  c #58F38A",
"}  c #51F88C",
"|  c #B29A83",
" . c #B99E83",
".. c #82A480",
"X. c #86B585",
"o. c #86B788",
"O. c #8BBB8B",
"+. c #BBA084",
"@. c #B7A98B",
"#. c #BBA28A",
"$. c #E18583",
"%. c #C0A486",
"&. c #CFA087",
"*. c #C2A78B",
"=. c #C6A98B",
"-. c #CAAC8C",
";. c #CCAF91",
":. c #C6AD92",
">. c #C3B595",
",. c #CAB095",
"<. c #D3B494",
"1. c #D9B997",
"2. c #DCBD9B",
"3. c #D5BC9B",
"4. c #F4A79B",
"5. c #E0BE9C",
"6. c #F3B19B",
"7. c #F0BBAF",
"8. c #F1B6A3",
"9. c #EEBEB7",
"0. c #F0BFBB",
"q. c #F1B1BC",
"w. c #DFC09F",
"e. c #E2C09E",
"r. c #D5C1A1",
"t. c #E4C4A1",
"y. c #E9C6A2",
"u. c #E1C8A3",
"i. c #ECC9A5",
"p. c #E5C7A8",
"a. c #ECCDA9",
"s. c #E4CBAC",
"d. c #F1CDA7",
"f. c #FFC7AC",
"g. c #F2CEA9",
"h. c #F9C2A2",
"j. c #EAD4AF",
"k. c #F4D1AB",
"l. c #FBD4AD",
"z. c #FED8AF",
"x. c #EFC0BB",
"c. c #F0C1BC",
"v. c #FAD7B1",
"b. c #FDDBB4",
"n. c #FFD2BC",
"m. c #FDDEBC",
"M. c #F4E1B7",
"N. c #FFE0B7",
"B. c #F7E4BA",
"V. c #FFE3BA",
"C. c #FFE9BE",
"Z. c #FFD3C2",
"A. c #FBDEC0",
"S. c #FFD8C9",
"D. c #FFE4C4",
"F. c #FFECC2",
"G. c #FFEBCB",
"H. c #FFF3C5",
"J. c #FFF7C9",
"K. c #FFFCCD",
"L. c #FFEFD3",
"P. c #FFE8DA",
"I. c #FFF0D4",
"U. c #FFFFD0",
"Y. c #FFFFDB",
/* pixels */
"^ ^ ^ ^ ^ ^ ^ ^ ^ ^ ^ ^ ^ ^ ^ ^ ^ ^ ^ ^ ^ ^ ^ ^ ^ ^ ^ ^ ^ ^ ",
"^ ^ { ` ` ` ` ` ` ` ` ` ` ` ` ` ` ` ` ` ` ` ` ` ` ' ' [ ^ ^ ",
"^ { v p d d d d d d d d d d d d d d d d d d d d d d a f ^ ( ",
"^ n E q.c.x.x.c.x.x.c.x.x.x.x.x.x.x.x.0.0.x.0.9.7.8.4.D M ) ",
"^ n O.P.P.I.I.L.L.L.L.L.I.L.L.I.I.L.L.L.L.L.G.G.D.z.h.F M ) ",
"~ n o.S.D.A.G.G.G.D.D.D.D.D.D.D.D.G.D.m.A.A.m.b.k.1.&.C B ) ",
"~ n X.Z.D.D.s.I S | ,.#.J :.*.I | | p.m.b.b.v.z.e.-.T V N ) ",
"^ n X.Z.m.G.D S r.3.t.w.w.g.i.r.j.S Z G.v.v.z.g.5.%.L j N ) ",
"^ n X.Z.m.m. .i.F.m.b.N.N.v.b.b.C.g.J b.z.l.l.e.<.+.K j Q ) ",
"^ n X.Z.m.m.| 2.b.l.b.b.; O % & O ; j.b.l.l.k.i.1.+.K j N ) ",
"^ n X.Z.m.V.J 1.N.l.v.l.=. .-.-.@.. e H.N.b.v.y.<.+.K j N ) ",
"^ n X.Z.m.m.*.r.b.l.l.l.K.K.N.V.Y.> - H.k.d.b.b.<.+.K r Q ) ",
"^ n X.Z.m.m.=.t.b.l.l.F.=.@ @ o w.0 , j.@ @ @ R i.R L j N ) ",
"^ n X.Z.A.V.J <.N.l.b.b.+ ; >. .M.: : B.+.>.> O 1.=.K j N ) ",
"^ n X.Z.m.N. .2.b.l.N.y.@ e.U.F.K.; ; K.C.K.d.@ R -.K j N ) ",
"^ n X.Z.m.m.,.y.b.l.N.i.# =.C.l.K.: : K.k.V.1.$ =.-.K j N ) ",
"^ n X.Z.m.m.J y.C.V.C.k.$ =.K.;.$ @ @ & <.K.<.$ %.-.K j N { ",
"^ n X.Z.m.F.Z r 3.-.w.*.$ ;.C.B.*     = B.C.<.% +.-.K j N ) ",
"^ n X.Z.m.C.a.Z H H R H @ ;.C.V.V.+ . N.C.V.<.$ *.-.K j N ) ",
"^ n X.Z.m.v.V.F.N.C.C.l.$ =.C.l.C.y.e.C.l.V.<.% +.-.K j N { ",
"^ n X.Z.m.b.v.v.l.l.N.i.# =.C.z.l.V.V.l.l.V.<.$ =.-.K j N ) ",
"^ n X.Z.m.v.v.v.z.l.N.e.# w.J.V.N.V.N.V.V.H.e.$ R -.K e N ) ",
"^ n X.n.m.v.l.a.i.d.z.k.O , e.<.<.;.;.<.<.e.t X -.%.G 3 ~ ) ",
"^ n X.n.l.g.y.5.e.2.w.l.H . # $ $ $ $ $ $ $ X t 1.Y i 3 N ) ",
"^ n X.f.y.1.;.=.=.%.%.=.2.%.P Y Y Y Y Y Y P +.<.P A y 1 N { ",
"^ ! E 6.-.R P G H H H H H P R Y Y Y Y Y U U U A t w 9 < N ) ",
"^ _ c $.K u q 8 7 7 9 7 7 7 7 9 7 7 9 7 7 7 7 7 6 5 4 > ~ { ",
"^ [ b x z l k s s k h k s s h s s s s k s s s s h k h g N ) ",
"^ ^ / _ ` ' ' [ ' [ [ [ [ [ ] [ [ [ ' [ [ [ } } [ } ] [ ^ ^ ",
"^ ^ ^ ^ ^ ^ ^ ^ ^ ^ ^ ^ ^ ^ ^ ^ ^ ^ ^ ^ ^ ^ ^ ^ ^ ^ ^ ^ ^ ^ "
};
