/* XPM */
static char *moveSubProcessAboveDisabled_xpm[] = {
/* columns rows colors chars-per-pixel */
"30 30 186 2 ",
"   c #685F5F",
".  c #6B6666",
"X  c #6C6666",
"o  c #6C6767",
"O  c #6D6767",
"+  c #6D6868",
"@  c #6C6C6C",
"#  c #767171",
"$  c gray49",
"%  c #7E7E7E",
"&  c #888585",
"*  c #8C8686",
"=  c #808989",
"-  c #858989",
";  c #868A8A",
":  c #868B8B",
">  c #878B8B",
",  c #888888",
"<  c gray54",
"1  c #8B8B8B",
"2  c #8E8B8B",
"3  c gray55",
"4  c #8D8C8C",
"5  c #8D8D8D",
"6  c #8E8E8E",
"7  c gray56",
"8  c #928F8F",
"9  c #8B9090",
"0  c #889393",
"q  c #8F9A9A",
"w  c #8F9B9B",
"e  c #909090",
"r  c #939091",
"t  c #929292",
"y  c #949190",
"u  c #949191",
"i  c gray58",
"p  c #959595",
"a  c gray59",
"s  c #979797",
"d  c #9D9191",
"f  c #989595",
"g  c #959E9E",
"h  c #989898",
"j  c gray60",
"k  c #9A9A9A",
"l  c #9B9B9B",
"z  c #9D9D9D",
"x  c #94A0A0",
"c  c #94A1A1",
"v  c #95A1A1",
"b  c #95A2A2",
"n  c #9DA1A1",
"m  c #99A6A6",
"M  c #98A7A7",
"N  c #9BAAAB",
"B  c #A0A0A0",
"V  c gray63",
"C  c gray64",
"Z  c #A5A5A5",
"A  c gray65",
"S  c #A7A7A7",
"D  c #A8A5A5",
"F  c #A5ADAD",
"G  c #A5AEAE",
"H  c gray66",
"J  c #A9A9A9",
"K  c #AAAAAA",
"L  c #ACACAC",
"P  c gray68",
"I  c #AEADAE",
"U  c #AEAEAE",
"Y  c #AFAFAF",
"T  c #B7ACAC",
"R  c gray69",
"E  c #B1B1B1",
"W  c #B2B2B2",
"Q  c gray70",
"!  c #B4B4B4",
"~  c gray71",
"^  c #B6B6B6",
"/  c #B7B7B7",
"(  c #BBB2B2",
")  c gray72",
"_  c #B9B9B9",
"`  c gray73",
"'  c #BBBBBB",
"]  c #BCBCBC",
"[  c gray74",
"{  c gray",
"}  c gray75",
"|  c #C2BCBC",
" . c #C4BFBF",
".. c #AEC1C1",
"X. c #B6C2C2",
"o. c #B6C3C3",
"O. c #B7C3C3",
"+. c #BBC7C7",
"@. c #B5C9C9",
"#. c #C0C0C0",
"$. c #C1C1C1",
"%. c gray76",
"&. c #C3C3C3",
"*. c #C6C1C1",
"=. c #C7C1C1",
"-. c #C7C2C2",
";. c gray77",
":. c #C5C5C5",
">. c #C6C6C6",
",. c gray78",
"<. c #C8C8C8",
"1. c gray79",
"2. c #CACACA",
"3. c #CBCBCB",
"4. c gray80",
"5. c #CDCDCD",
"6. c #CECECE",
"7. c gray81",
"8. c #D1CCCC",
"9. c #D0D0D0",
"0. c gray82",
"q. c #D2D2D2",
"w. c LightGray",
"e. c #D4D0D0",
"r. c gray83",
"t. c #D5D5D5",
"y. c gray84",
"u. c #D7D7D7",
"i. c #DAD4D4",
"p. c #DBD5D5",
"a. c #DBD6D6",
"s. c #DCD6D6",
"d. c #DCD7D7",
"f. c #D8D8D8",
"g. c gray85",
"h. c #DADADA",
"j. c gray86",
"k. c #DDD8D8",
"l. c gainsboro",
"z. c #DDDDDD",
"x. c gray87",
"c. c #DFDFDF",
"v. c #CEECED",
"b. c #CFEEEE",
"n. c #D5F4F4",
"m. c #D6F5F5",
"M. c #D7F6F6",
"N. c #D8F7F7",
"B. c #D8F8F8",
"V. c #DFFDFD",
"C. c #DEFFFF",
"Z. c #DFFFFF",
"A. c gray88",
"S. c #E1E1E1",
"D. c #E2E2E2",
"F. c gray89",
"G. c #E4E4E4",
"H. c gray90",
"J. c #E7E7E7",
"K. c #EDE7E7",
"L. c gray91",
"P. c #E9E9E9",
"I. c #EAEAEA",
"U. c gray92",
"Y. c #ECECEC",
"T. c #EEEEEE",
"R. c #EFEFEF",
"E. c #E0FDFD",
"W. c LightCyan",
"Q. c #E1FFFF",
"!. c #E2FFFF",
"~. c #E5FFFF",
"^. c #E6FFFF",
"/. c #E8FFFF",
"(. c #E9FFFF",
"). c #EBFFFF",
"_. c #ECFFFF",
"`. c #EDFFFF",
"'. c #EEFFFF",
"]. c #F1F1F1",
"[. c #F3F3F3",
"{. c #F4F4F4",
"}. c gray96",
"|. c #F6F6F6",
" X c azure",
".X c #F1FFFF",
/* pixels */
"Q.Q.Q.Q.Q.Q.Q.Q.Q.Q.Q.Q.Q.Q.Q.Q.Q.Q.Q.Q.Q.Q.Q.Q.Q.Q.Q.Q.Q.Q.",
"Q.Z._..X'.'.'.'.'.'.'.'.'.'.'.'.'.'.'.'.'.'.'.'.'.'. X.X!.W.",
"Q.'...= w w w w w w w w w w w w w w w w w w w w w w 0 M E.~.",
"Q.^.F T -.*.=.*.*.*.*.*.*.*.*.*.*.*.*.*.*.*.*.*. .| ( 4 v.(.",
"Q.C.+.K.|.}.}.{.{.{.{.{.{.}.}.}.}.}.}.}.}.}.}.[.].I.e.n b./.",
"Q.W.O.k.J.H.F.F.F.F.F.S.I.R.U.U.U.U.U.U.U.U.R.I.z.<.D 9 n./.",
"Q.W.X.d.G.A.c.x.z.z.l.G.y.V l B B B B B B z B q.y.W f > m./.",
"Q.W.O.s.F.x.j.h.g.g.j.c.k h ` ! ! ! ! ! ! ` z s ,.P r ; M./.",
"Q.W.O.s.F.x.j.g.g.g.x.q.t 0.T.G.G.G.G.G.G.Y.f.i ) I y : M./.",
"Q.W.O.s.F.x.j.g.g.g.z.w.s 1.S.g.f.j.j.f.g.c.7.j ' U y : M./.",
"Q.W.O.s.F.z.l.A.A.A.G.h.s <.S.f.l.x.x.l.f.c.6.j ' U y : M./.",
"Q.W.O.s.F.A.h.;.$.&.2.$.a 1.S.l.G.S C F.l.c.6.j ' U y : M./.",
"Q.W.O.s.F.J.%.U &.{ >.{ p 1.S.H.) % $ / H.c.6.j ' U y : M./.",
"Q.W.O.s.F.S.#.w.H.A.G.h.s <.P.4., 1 1 < 6.J.6.j ' U y : M./.",
"Q.W.O.s.F.S.;.7.l.g.x.r.s <.G.0.r.Z Z t.w.S.6.j ' U y : M./.",
"Q.W.O.s.G.S.{ 4.z.g.z.w.s 5.F.x.T.J J T.x.S.w.j _ U y : M./.",
"Q.W.O.a.F.S.:.7.l.g.z.u.7 [ G.h.H.S S H.j.F.&.7 { U y : M./.",
"Q.W.O.s.F.A.3.q.j.g.h.D.^ 3 h t 9.E Y y.p s 6 R 2.K y : M./.",
"Q.W.O.s.G.S.{ 5.z.g.g.h.F.5.{ } S.U H c.{ ] 1.h.&.J y : M./.",
"Q.W.O.s.G.S.%.6.z.g.g.g.h.S.G.H.H.s Z L.F.G.S.r.#.J y : M./.",
"Q.W.O.s.F.A.2.q.j.g.j.l.H t k k t j y.c.g.g.g.w.$.J y : M./.",
"Q.W.O.s.F.S.$.0.x.h.j.l.1.$.;.&.:.9.3.j.h.h.h.r.%.J u : M./.",
"Q.Q.X.s.F.H./ ;.z.u.u.u.x.D.S.S.P.:.R c.f.g.g.0.$.J u > M./.",
"Q.Q.X.p.F.A.>.R ! ) } ' ~ { [ ~ ' W { 9.4.5.4.:.) Z 8 ; M./.",
"Q.Q.o.i.j.:.{ Q K P Y U L Y U L P E ~ E W W W U A k 2 ; M./.",
"Q.Q.O.8.$.A h a s a a a s a a s a a p p p p i i e 5 & - N./.",
"Q./.G d * # + . o o o o o o o o o o o o o o o X X O   @ B.(.",
"Q.).@.g m b x x c c c c c c c c c c c c c c c c v b q N V.~.",
"Q.W.(.).`. X.X.X.X.X.X.X.X.X.X.X.X.X.X.X.X.X.X.X.X X X X!.W.",
"Q.Q.Q.Q.Q.Q.Q.Q.Q.Q.Q.Q.Q.Q.Q.Q.Q.Q.Q.Q.Q.Q.Q.Q.Q.Q.Q.Q.Q.Q."
};
