/* XPM */
static char *moveSubProcessAboveNormal_xpm[] = {
/* columns rows colors chars-per-pixel */
"30 30 144 2 ",
"   c black",
".  c #09080E",
"X  c #0E0D12",
"o  c #131215",
"O  c #1B171B",
"+  c #1C191B",
"@  c #262222",
"#  c #2A2324",
"$  c #2F2A29",
"%  c #332D2B",
"&  c #35312D",
"*  c #39312E",
"=  c #3F3733",
"-  c #453A36",
";  c #4C423D",
":  c #624126",
">  c #674E37",
",  c #6D533B",
"<  c #71573E",
"1  c #74593F",
"2  c #514741",
"3  c #594D43",
"4  c #5F5247",
"5  c #63554A",
"6  c #67584D",
"7  c #755941",
"8  c #6C5D51",
"9  c #7C6046",
"0  c #7E654B",
"q  c #6C6051",
"w  c #7C6A5A",
"e  c #886A4F",
"r  c #816E5E",
"t  c #8C7155",
"y  c #88755E",
"u  c #9B7B5E",
"i  c #AB7B53",
"p  c #877462",
"a  c #8D7A67",
"s  c #817A6D",
"d  c #947E67",
"f  c #937E6A",
"g  c #867D70",
"h  c #9F8063",
"j  c #9C856D",
"k  c #8C8375",
"l  c #9B8571",
"z  c #948973",
"x  c #928779",
"c  c #9A8E7E",
"v  c #A28365",
"b  c #A68668",
"n  c #AF8E6E",
"m  c #A58D74",
"M  c #A88F75",
"N  c #A58E78",
"B  c #A99176",
"V  c #AC937A",
"C  c #B0977D",
"Z  c #B4997E",
"A  c #CF9F75",
"S  c #C19E7B",
"D  c #818886",
"F  c #8A928E",
"G  c #91948D",
"H  c #8F9B9A",
"J  c #969D97",
"K  c #9A9E94",
"L  c #909B99",
"P  c #AE9981",
"I  c #AC9E8A",
"U  c #B59C81",
"Y  c #B99F82",
"T  c #9BA19A",
"R  c #BCA184",
"E  c #A0A59E",
"W  c #A8A69A",
"Q  c #99A6A4",
"!  c #9DA8A4",
"~  c #AAACA4",
"^  c #BABBAF",
"/  c #BEBFB3",
"(  c #C1A486",
")  c #C2A689",
"_  c #CBA68C",
"`  c #C6A98B",
"'  c #C9AC8C",
"]  c #D8AC85",
"[  c #D8B18D",
"{  c #CBAE91",
"}  c #CDB191",
"|  c #D4B595",
" . c #D8B797",
".. c #DBBA97",
"X. c #D7B699",
"o. c #DCBC9B",
"O. c #E1BF9C",
"+. c #D7BBA5",
"@. c #D8BDA7",
"#. c #BEC0B6",
"$. c #BDC1B9",
"%. c #EAC096",
"&. c #E2C09E",
"*. c #F1C296",
"=. c #D4CAA5",
"-. c #C2C5BD",
";. c #E4C3A1",
":. c #E9C6A2",
">. c #ECC9A4",
",. c #E4C8A9",
"<. c #ECCEA9",
"1. c #F1CDA6",
"2. c #F8CCA3",
"3. c #F5CEAB",
"4. c #F5D2AC",
"5. c #FBD5AE",
"6. c #FED8AF",
"7. c #F5D3B2",
"8. c #FAD7B1",
"9. c #FEDBB4",
"0. c #FDDDBC",
"q. c #FFE0B7",
"w. c #FEE3BA",
"e. c #FFE9BD",
"r. c #AEC1C0",
"t. c #B7C8C5",
"y. c #FBDFC2",
"u. c #FEE4C3",
"i. c #FFEDC3",
"p. c #FFECCC",
"a. c #FFF2C5",
"s. c #FFF3CD",
"d. c #FFFACC",
"f. c #FFEED2",
"g. c #FFF2D3",
"h. c #FFFDD5",
"j. c #FFFFD8",
"k. c #CBEFF5",
"l. c #D3F6FA",
"z. c #D5F8FC",
"x. c #DDFFFF",
"c. c #E1FFFF",
"v. c #ECFFFF",
"b. c #F0FFFF",
/* pixels */
"c.c.c.c.c.c.c.c.c.c.c.c.c.c.c.c.c.c.c.c.c.c.c.c.c.c.c.c.c.c.",
"c.x.v.b.v.v.v.v.v.v.v.v.v.b.v.v.v.v.v.v.v.v.v.v.v.v.b.b.c.x.",
"c.v.r.D L L H H L L L L L L L L H H H H L L L L H H F Q x.v.",
"c.c.~ _ @.+.+.+.+.+.+.+.+.+.+.+.+.+.@.@.+.+.+.+. .[ A j k.c.",
"c.x.-.u.g.f.f.f.f.f.f.f.f.f.f.g.g.g.g.g.g.g.s.p.e.6.%.I k.v.",
"c.x./ 7.u.y.y.y.y.0.0.0.p.h.g.g.g.g.g.g.g.p.h.i.1...S c l.v.",
"c.x.$.7.y.y.0.0.7.0.8.p.,.2 - ; ; ; ; ; ; - ; o.6.` n x l.v.",
"c.x.#.4.y.0.7.8.8.7.0.w.= = z a p f a a a z - & ;.' b k l.v.",
"x.x./ 7.0.8.8.8.8.7.w.:.@ O.j.a.a.a.a.a.a.h.2.# R } v k l.v.",
"c.x./ 3.0.9.8.7.5.5.q.:.* ' e.5.5.9.9.5.5.w. .& R ' v k l.c.",
"c.x./ 3.0.8.9.i.e.e.a.6.* ' e.5.9.w.q.9.5.w.| & R ' v k l.v.",
"c.x.$.3.0.0.8.R Z U { Z % ' w.9.a.6 3 i.9.q.| & ( ' h k l.v.",
"c.x.#.3.0.p.P w U V ) B % ' e.a.j     f a.w.| * R ' v k l.v.",
"c.x.#.3.0.w.V :.a.e.a.9.% ` d.| . o o X o.d.} * ( ' v k l.v.",
"c.x.#.3.0.w.R +.9.8.9.>.% ` i.;.=.4 5 =.:.e. .* ( ' v k z.v.",
"c.x.#.3.0.w.N | 9.5.w.:.%  .i.w.h.8 8 h.w.e.&.* R ' v k l.c.",
"c.x.-.3.0.0.R o.q.4.q.4.+ M a.9.a.5 5 d.9.i.Z + ' ' v k z.v.",
"c.x.#.3.0.9.{ ;.9.5.5.i.f o & @ &.r w <.$ % o w <.R v k l.v.",
"c.x.#.3.y.w.V | q.5.5.6.a. .V V e.w 6 w.B m ` 9.o.S v k l.v.",
"c.x.#.3.0.0.U o.9.5.5.5.5.e.a.a.a.% 4 d.a.a.e.>.| R v k l.v.",
"c.x.#.3.0.0.{ ;.9.5.9.9.6 @ = - # * <.w.6.5.3.:.| R v k l.v.",
"c.x.#.3.0.w.U &.q.6.6.6.' V U U R o.} 9.8.5.4.>.| R v k l.v.",
"c.x.#.3.0.e.p U 9.1.1.>.9.e.w.w.d.U w 9.1.1.>.&.} U h k l.v.",
"c.x.#.2.6.4.` p f l U M f Z B f M p U >.&.o...| R V u k l.v.",
"c.x./ *.*. .O.' B Z R U Z U Y Z Z ( } ` ) ` ( Z V j t s z.v.",
"c.c.^ ] } Z B B B B m B B M M B N B m m m m m j h y 0 s z.c.",
"x.v.W i d e 9 7 1 7 7 7 7 7 7 7 7 1 1 1 7 1 1 < , > : q x.v.",
"c.v.t.K T T K K J J J J J J J K J J J J J J J J J J G ! x.v.",
"c.c.v.v.v.v.v.b.b.v.b.b.v.b.b.v.v.b.v.b.b.b.v.b.b.b.b.v.c.c.",
"c.c.c.c.x.x.c.x.c.c.c.c.c.c.c.c.c.c.c.c.c.c.c.c.c.c.c.c.c.c."
};
