/* XPM */
static char *multiMonitorPressed_xpm[] = {
/* columns rows colors chars-per-pixel */
"30 30 147 2 ",
"   c black",
".  c #0C0D0E",
"X  c #110C0B",
"o  c #161211",
"O  c #1C1614",
"+  c #1C1816",
"@  c #1A1B19",
"#  c #221D1A",
"$  c #25211D",
"%  c #212320",
"&  c #282623",
"*  c #2D2925",
"=  c #322E2B",
"-  c #34302C",
";  c #363531",
":  c #373834",
">  c #3E3B35",
",  c #353538",
"<  c #452C1D",
"1  c #40352B",
"2  c #43392D",
"3  c #553D2C",
"4  c #443730",
"5  c #443D35",
"6  c #463F38",
"7  c #4B443E",
"8  c #5D4C3D",
"9  c #634631",
"0  c #4C4A41",
"q  c #524F45",
"w  c #56574D",
"e  c #5B534A",
"r  c #6C5745",
"t  c #6D5947",
"y  c #65584D",
"u  c #6E5A49",
"i  c #705B49",
"p  c #605F56",
"a  c #6A5E53",
"s  c #6C6155",
"d  c #6B6558",
"f  c #716151",
"g  c #766957",
"h  c #746A5F",
"j  c #7B6B5D",
"k  c #6D6D61",
"l  c #6D6E6F",
"z  c #7C6E60",
"x  c #6F706B",
"c  c #707163",
"v  c #7D7467",
"b  c #767E7E",
"n  c #876D5C",
"m  c #86705C",
"M  c #817364",
"N  c #897565",
"B  c #877867",
"V  c #877D6D",
"C  c #8D7E6C",
"Z  c #917F6F",
"A  c #817C73",
"S  c #917F70",
"D  c #8F806D",
"F  c #91806F",
"G  c #948272",
"H  c #998775",
"J  c #978A77",
"K  c #9B8976",
"L  c #9C8E7A",
"P  c #A5937E",
"I  c #7B8383",
"U  c #818683",
"Y  c #858A84",
"T  c #848F8F",
"R  c #84908F",
"E  c #8B908B",
"W  c #859190",
"Q  c #8C9897",
"!  c #909894",
"~  c #A99681",
"^  c #A69885",
"/  c #AD9A85",
"(  c #A6988A",
")  c #AC9D88",
"_  c #B29D87",
"`  c #B49F89",
"'  c #9AA29F",
"]  c #AFA08F",
"[  c #B3A28F",
"{  c #BBA58E",
"}  c #AFA192",
"|  c #B5A796",
" . c #BDAB94",
".. c #B7A999",
"X. c #BBAB99",
"o. c #BCB098",
"O. c #9BA4A1",
"+. c #AABDBC",
"@. c #C2AC93",
"#. c #C0B097",
"$. c #C4B39C",
"%. c #CDB59C",
"&. c #D0B99F",
"*. c #C7B5A1",
"=. c #C7BBA1",
"-. c #CBBAA3",
";. c #D2BDA3",
":. c #D0BDA8",
">. c #CFC1A5",
",. c #D2C0A5",
"<. c #D4C3AC",
"1. c #DCC4AA",
"2. c #DCC8AD",
"3. c #D8C5B0",
"4. c #DEC9B1",
"5. c #E0C7AB",
"6. c #E6CBAF",
"7. c #E2CCB5",
"8. c #E7D2BA",
"9. c #EAD3BC",
"0. c #E7DABC",
"q. c #ECDDBE",
"w. c #F0D3B6",
"e. c #F4D7B9",
"r. c #F2D8BD",
"t. c #FBDDBF",
"y. c #EBDFC1",
"u. c #F2DAC1",
"i. c #FCDFC0",
"p. c #FDE2C4",
"a. c #F7E8C7",
"s. c #FFE4C8",
"d. c #FEECCB",
"f. c #FFF1CF",
"g. c #FFF4D2",
"h. c #FFF7D9",
"j. c #FFFDDB",
"k. c #DDFFFF",
"l. c #FFFFE3",
"z. c #FFFFEE",
"x. c #E0F4F6",
"c. c #E2F7F9",
"v. c #E2FFFF",
"b. c #EBFFFF",
"n. c #FFFFF3",
"m. c #F4FFFF",
"M. c #FDFFFF",
/* pixels */
"v.v.k.v.v.v.v.v.v.v.v.v.v.v.v.v.v.v.v.v.v.v.v.v.v.v.v.k.v.k.",
"k.k.b.M.m.m.m.M.m.m.m.M.m.M.m.m.m.m.m.M.m.m.m.M.m.M.M.m.k.c.",
"v.m.+.b T T T R E T T T T T T T R T T R E T T T R R I Q b.b.",
"v.m.U < 8 8 8 8 8 8 8 8 8 8 8 8 8 8 8 8 8 8 8 8 8 8 3 e c.b.",
"v.m.! t M B Z F F C Z Z F C F C Z C C Z Z Z Z C B B n A c.b.",
"v.b.! r C K P _ / / / _ / / / / / _ / / / / / / P L Z A c.b.",
"v.m.Q t F [ @.%.%.%.%.%.%.%.%.%.%.%.%.%.%.%.-.&.%.[ H A k.b.",
"v.m.! t K { ;.6.6.6.6.6.6.6.6.6.6.6.6.6.6.6.w.e.2.X.K A x.c.",
"v.m.! i G $.p.h.p.f.j.j.j.j.j.j.j.j.j.j.d.s.l.j.9...K A x.b.",
"v.m.! t P @.j f 1.,.j v v M v m M M z z 2.2.g V 4.*.H A x.b.",
"v.b.! t @.7   : J # $ ; - - - - - - ; @ $ ^ :   e 8.H A x.b.",
"v.m.! i { & f M.o.O f.j.g.g.g.g.g.g.l.y.X ,.M.h = 7.K v x.b.",
"v.b.! t { - y z.o.$ q.f.i.i.p.i.i.t.g.4.+ ;.M.d 5 7.H A x.b.",
"v.m.! i { - y l.o.$ 0.d.t.t.t.t.t.t.g.2.+ ;.n.a > 7.H A x.b.",
"v.m.! i { - y l.#.$ 0.f.t.t.t.t.t.t.g.2.+ ;.n.a 5 7.H A x.c.",
"v.m.! i { - y j.#.$ 0.f.t.t.t.t.t.t.f.2.+ -.M.a > 7.K A k.b.",
"v.b.! t { * g M.$.# j.z.j.j.j.l.j.j.n.d.o <.M.v ; 7.K A x.b.",
"v.m.! i @.> X x L o p c d s V V s d c w o ) l . 6 9.K A x.b.",
"v.b.! t / ~ 6 1 #.L 4 a a k + o k a y 4 ^ %.> 7 $.:.G A x.b.",
"v.m.! t G %.p.g.d.l.j.{ _ =.* & =._ @.j.j.d.l.j.r.| K A x.b.",
"v.b.! i K { 1.e.u.f.u.0 > 6 q q 5 > w a.d.t.s.t.7.X.H A x.b.",
"v.m.! i K  .1.e.i.i.p.h.h.h.j.j.h.h.h.p.t.p.p.u.7.X.H A x.b.",
"v.m.! i K  .6.t.i.s.i.s.p.s.p.p.p.s.p.i.a.s.s.u.7.@.G A x.b.",
"v.m.! t G { 5.r.u.u.u.y.u.u.u.u.u.u.u.u.u.u.u.9.:. .G A k.b.",
"v.b.! r Z ` -.3.3.3.3.3.3.3.3.3.3.3.3.3.3.3.3.:.*.] G A x.b.",
"v.m.! t Z / | X.................................} ( H A x.b.",
"v.m.Y 9 N Z G G S G G G G G G G G S G G H H G S S S n z x.b.",
"v.b.+.E O.' ' ' O.' ' ' ' ' ' ' O.' ' O.O.! O.' ' ' ! ' c.v.",
"v.k.b.m.b.b.b.b.b.b.m.b.b.b.b.m.b.b.b.b.b.m.b.b.b.b.m.m.k.k.",
"v.v.v.v.v.v.v.v.v.v.v.v.v.v.v.v.v.v.v.v.v.v.v.v.v.v.v.v.k.v."
};
