/* XPM */
static char *multiMonitorNormal_xpm[] = {
/* columns rows colors chars-per-pixel */
"30 30 161 2 ",
"   c #030202",
".  c #0D0B0C",
"X  c #120E0C",
"o  c #131111",
"O  c #1B1A19",
"+  c #221C18",
"@  c #2A241F",
"#  c #2D2923",
"$  c #342D25",
"%  c #3B2F28",
"&  c #3E3027",
"*  c #3C342C",
"=  c #453D33",
"-  c #4B4036",
";  c #4F4539",
":  c #52463A",
">  c #534A3E",
",  c #59493C",
"<  c #644328",
"1  c #6D543D",
"2  c #70573F",
"3  c #5C4F42",
"4  c #5D5C4D",
"5  c #645748",
"6  c #685749",
"7  c #675A4C",
"8  c #6D5F4F",
"9  c #795E44",
"0  c #755B42",
"q  c #6E604F",
"w  c #7B634A",
"e  c #6B6353",
"r  c #736555",
"t  c #786756",
"y  c #776B59",
"u  c #796F5C",
"i  c #7D735F",
"p  c #767460",
"a  c #7D7464",
"s  c #81654B",
"d  c #8B6F54",
"f  c #95785B",
"g  c #897661",
"h  c #827768",
"j  c #85796A",
"k  c #8A7D6E",
"l  c #9B7E60",
"z  c #947F69",
"x  c #85836F",
"c  c #8E806A",
"v  c #9F8163",
"b  c #9C856D",
"n  c #898473",
"m  c #978871",
"M  c #928474",
"N  c #A38364",
"B  c #AE8D6E",
"V  c #BB8960",
"C  c #A38B71",
"Z  c #AD9479",
"A  c #A4947A",
"S  c #B79D7F",
"D  c #BC9978",
"F  c #B59372",
"G  c #C19D7A",
"H  c #D3A178",
"J  c #7E8583",
"K  c #858B89",
"L  c #8C9089",
"P  c #9F9887",
"I  c #8C9695",
"U  c #8E9896",
"Y  c #939A94",
"T  c #9A9A90",
"R  c #919C9B",
"E  c #A79682",
"W  c #AE9B82",
"Q  c #B79D81",
"!  c #BA9F82",
"~  c #B59F89",
"^  c #97A09C",
"/  c #9DA19B",
"(  c #B6A385",
")  c #BBA285",
"_  c #BBA58D",
"`  c #BFAD8F",
"'  c #A5A398",
"]  c #BCB090",
"[  c #A2A8A1",
"{  c #B5BAAF",
"}  c #B4B5AB",
"|  c #AABCBC",
" . c #B3BAB1",
".. c #C1A687",
"X. c #C2A688",
"o. c #C5A98A",
"O. c #CBAE8E",
"+. c #C4AC94",
"@. c #CFB290",
"#. c #C4BC9B",
"$. c #CCBA98",
"%. c #CDB59B",
"&. c #D5B595",
"*. c #DAB995",
"=. c #D3BC9C",
"-. c #DEBD9A",
";. c #E1B48C",
":. c #E8BE93",
">. c #E0BF9C",
",. c #D8BFA6",
"<. c #B8C0B7",
"1. c #DBC19D",
"2. c #E3C39F",
"3. c #F4CB9D",
"4. c #D7C7A2",
"5. c #D8C1AA",
"6. c #D7D4B3",
"7. c #E3C5A1",
"8. c #EAC7A2",
"9. c #E9CAA6",
"0. c #ECCDAA",
"q. c #F1CCA6",
"w. c #F3CFA9",
"e. c #E3D5AD",
"r. c #F5D2AB",
"t. c #FAD4AD",
"y. c #E1D7B9",
"u. c #EEDDBB",
"i. c #EDDBB3",
"p. c #F5D6B2",
"a. c #FCD7B1",
"s. c #F6D9B5",
"d. c #FCDAB4",
"f. c #FCDDBD",
"g. c #F5DABA",
"h. c #FFE0B6",
"j. c #FEE5BC",
"k. c #FFE9BF",
"l. c #B3C3C1",
"z. c #FBDEC2",
"x. c #FFE3C3",
"c. c #FFEDC3",
"v. c #FFEECE",
"b. c #FFF1C4",
"n. c #FFF5C9",
"m. c #FFF9CB",
"M. c #FFF1D4",
"N. c #FFFFD4",
"B. c #FFF4D9",
"V. c #FFFFD9",
"C. c #D6EEF3",
"Z. c #DCF3F7",
"A. c #DFF5F8",
"S. c #DCFEFF",
"D. c #FFFFE3",
"F. c #FFFFEC",
"G. c #E3F6FA",
"H. c #E3FFFF",
"J. c #EBFFFF",
"K. c #FFFFF5",
"L. c #F0FFFF",
/* pixels */
"H.H.H.H.H.H.H.H.H.H.H.H.H.H.H.H.H.H.H.H.H.H.H.H.H.H.H.H.H.S.",
"S.S.J.J.J.J.J.J.J.J.J.J.J.L.J.J.J.J.J.J.J.J.J.J.J.J.L.L.H.S.",
"H.J.| J U I I I I I I I I I I I I I I I I I I I I I K R J.H.",
"H.H.[ %.5.5.5.5.5.5.5.5.5.5.5.5.5.5.5.5.5.5.5.,.=.-.H z C.J.",
"H.S. .M.B.B.M.M.M.M.M.M.M.M.M.M.M.M.M.M.M.M.M.n.x.d.:.E C.J.",
"H.S. .g.x.z.z.f.z.f.f.f.f.f.f.f.f.f.z.f.f.f.f.a.r.-.D M Z.H.",
"H.S. .s.z.f.f.d.d.s.d.s.s.d.d.s.s.d.d.d.s.d.d.t.2.O.B c Z.H.",
"J.S. .s.f.x.c.x.a.j.c.x.j.k.k.x.k.k.x.x.x.a.h.d.3.) N j G.J.",
"H.S. .p.v.j.7.7.j.s.7.9.9.9.9.9.9.9.9.4.0.j.7.*.&.O.l j A.J.",
"H.S. .x.u.*   $ O.#   o o o o o o o o . X ( t   o b F j A.H.",
"H.S. .n.~   W 6.5 o #._ ) ) ( ) ) ) ) #.= $ e.` # - G j A.J.",
"H.S. .n.( o c.F.7 * V.n.b.c.c.c.b.c.b.D.r $ N.N.; ; D h A.J.",
"H.S. .v._ o 0.V.e $ k.d.t.t.t.t.t.t.t.m.5 * b.h.= : D j A.J.",
"J.S. .b._ o 0.N.q % k.d.t.t.t.t.t.t.t.n.7 * b.j.= : D j G.H.",
"H.S.{ n._ o 0.N.q $ b.d.t.t.p.t.t.t.t.m.7 * b.h.- : G h A.J.",
"H.S. .n._ o 0.N.e $ k.a.t.t.t.t.t.t.t.n.7 * b.h.= : G h A.J.",
"H.S. .n.~ o n.K.5 * V.N.m.m.m.m.m.m.m.D.u # N.N.> = G h G.J.",
"H.S. .n.+.  e P r . x a i u c m i i i n O = ] p . 3 G j A.J.",
"H.S.{ d.x.8 # : 1.: # ; ; , +   > : : & % =.g + * Z B j A.J.",
"H.S.{ p.x.n.c.j.h.m.h.1.=.y.4 + 6.1.$.i.n.k.d.d.t.o.l j A.H.",
"H.S. .p.f.f.h.d.t.b.1.. o O O + O O   A m.r.t.r.-.) v j A.J.",
"H.S. .p.f.d.a.a.t.t.r.2.2.2.8.0.2.8.2.w.a.a.r.8.&.) v j A.J.",
"H.S.{ p.h.a.t.r.q.q.w.h.h.h.a.d.h.d.d.t.q.q.9.2.@.Q l j A.J.",
"H.S.{ t.a.q.2.2.>.-.2.>.-.-.>.>.>.1.-.>.>.>.-.@...Z f h A.J.",
"J.S.{ 3.8.*.O.o.o.o.o.o.o.o.o.X.o.o.o.o.o.o.X.S Z b d a G.J.",
"H.S.} ;.O.! Z C C C C C C C C C C C C C C C C b v g w a G.J.",
"H.H.' V N d s 9 9 9 9 9 9 9 9 9 9 9 2 w 9 9 9 2 0 1 < 5 G.J.",
"H.J.l.T ' Y Y Y Y Y Y Y Y Y Y Y Y Y Y T Y Y Y Y Y Y L ^ H.H.",
"H.S.J.H.J.J.J.L.L.L.J.L.L.L.J.L.L.L.J.L.L.L.J.L.J.L.L.L.H.S.",
"S.H.H.H.H.H.H.H.H.H.H.H.H.H.H.H.H.H.H.H.H.H.H.H.H.H.H.H.H.S."
};
