/* XPM */
static char *openPrimaryPressed_xpm[] = {
/* columns rows colors chars-per-pixel */
"30 30 132 2 ",
"   c black",
".  c #0A090C",
"X  c #1B1618",
"o  c #1D191C",
"O  c #3C2214",
"+  c #252122",
"@  c #292424",
"#  c #2F2927",
"$  c #342D2C",
"%  c #37312F",
"&  c #3C3533",
"*  c #573A27",
"=  c #533B29",
"-  c #403632",
";  c #443A36",
":  c #47433E",
">  c #4B423D",
",  c #584739",
"<  c #59483A",
"1  c #67523F",
"2  c #454640",
"3  c #4E4540",
"4  c #524740",
"5  c #554B45",
"6  c #584D46",
"7  c #5C534B",
"8  c #675341",
"9  c #6A5544",
"0  c #62564E",
"q  c #665B52",
"w  c #6B5E55",
"e  c #6D6056",
"r  c #6F6359",
"t  c #75665C",
"y  c #7C6D62",
"u  c #797067",
"i  c #836C5B",
"p  c #87725E",
"a  c #857565",
"s  c #8A7768",
"d  c #8E7D6D",
"f  c #917E6E",
"g  c #8C7D70",
"h  c #8F806D",
"j  c #92816F",
"k  c #878279",
"l  c #88857D",
"z  c #948374",
"x  c #988674",
"c  c #9A8976",
"v  c #9E8978",
"b  c #A28F7D",
"n  c #A4917E",
"m  c #AB947D",
"M  c #787F80",
"N  c #7E8786",
"B  c #838784",
"V  c #878B86",
"C  c #8D918C",
"Z  c #869291",
"A  c #889393",
"S  c #939B97",
"D  c #A59584",
"F  c #A89581",
"G  c #AD9A85",
"H  c #A59D89",
"J  c #AE9F8F",
"K  c #B09D87",
"L  c #B39E8A",
"P  c #99A09B",
"I  c #A9A18B",
"U  c #B6A28D",
"Y  c #BBA68F",
"T  c #AFA092",
"R  c #B6A696",
"E  c #BDA790",
"W  c #BDA991",
"Q  c #B7A998",
"!  c #BBAB98",
"~  c #B9B19A",
"^  c #93A1A0",
"/  c #9EA7A3",
"(  c #9EA8A3",
")  c #A0ADAB",
"_  c #BFBAA1",
"`  c #ABBEBE",
"'  c #C5AD95",
"]  c #C0AD99",
"[  c #C7B198",
"{  c #CDB69C",
"}  c #CFB89F",
"|  c #C5B3A1",
" . c #CDB8A3",
".. c #D4BCA3",
"X. c #D8C0A5",
"o. c #D6C3AE",
"O. c #DCC5AD",
"+. c #D4C8AD",
"@. c #D7C4B0",
"#. c #D3CEB2",
"$. c #DEC9B1",
"%. c #E1C7AB",
"&. c #E5CBAE",
"*. c #E3CDB1",
"=. c #E9CEB1",
"-. c #ECD1B4",
";. c #EAD4BA",
":. c #F2D6B9",
">. c #F5DABD",
",. c #FBDCBE",
"<. c #B0C2C0",
"1. c #EBDAC0",
"2. c #F2DAC2",
"3. c #FCDFC1",
"4. c #FEE3C4",
"5. c #FFE8C7",
"6. c #FFECCC",
"7. c #FFF1CF",
"8. c #FFEFD1",
"9. c #FFF6D4",
"0. c #FFF9D6",
"q. c #FFFFDC",
"w. c #D6F7F9",
"e. c #D7F8FA",
"r. c #DCFDFE",
"t. c #FFFFE1",
"y. c #FFFFEC",
"u. c #E1FFFF",
"i. c #EAFFFF",
"p. c #FFFFF1",
"a. c #F3FFFF",
"s. c #FBFFFE",
/* pixels */
"u.u.u.u.u.u.u.u.u.u.u.u.u.u.u.u.u.u.u.u.u.u.u.u.u.u.u.u.u.u.",
"u.r.i.s.a.a.s.a.s.a.a.a.a.s.a.a.a.a.a.s.a.a.a.a.a.s.s.a.u.u.",
"u.a.` M Z Z Z Z Z Z Z Z Z Z Z Z Z Z Z Z C Z Z Z Z Z N ^ u.u.",
"u.s.B O , , < < < < < < < < < < < < < < , , < < , , = q r.i.",
"u.a.S 1 a a d h h d j f f f h h f d j d d d f d s s p k e.i.",
"r.a.S 8 s c m G G G G G G G G G G G G G G G K G D c j B e.i.",
"u.i.S 9 z K [ } { { { { { { { { { } { { { { } ..[ U c l w.i.",
"u.a.S 9 c Y ..&.=.=.=.=.=.=.&.&.&.&.=.&.=.&.-.:.O.! c l w.i.",
"r.a.S 9 c Y &.6.6.7.6.6.0.5.:.>.>.>.>.>.>.>.4.>.*.! v l w.i.",
"u.a.S 9 c [ O.r ; 5 4 > > :.q.4.5.5.5.4.,.3.4.2.$.! v l w.i.",
"u.a.S 9 c %.t # H n n I 5 o +.5.>.>.:.5.9.,.4.2.$.! v l w.u.",
"r.a.S 9 c %.0 t y.0.0.q.t.y X 2 > ; ; ; } 6.3.2.$.! v l w.i.",
"u.a.S 9 c %.e q 0.3.3.,.5.9...' [ [ #.3 5 q.4.2.$.! v g w.i.",
"u.a.S 9 c %.e q 0.,.5.9.9.9.t.t.t.t.s.F 7 y.8.2.$.! b B w.i.",
"u.a.S 9 c %.e q 9.9.4.L L U U U Y U _ 7 $ ~ -.8.$.! v g w.u.",
"u.i.S 9 c %.e q y.$.$ & > > > > > > ; 3 4 > & ] 2.! v B w.i.",
"u.a.S 9 c %.w r y.$ t 0.4.4.3.4.4.4.3.5.5.t.$ y 8.! b g r.i.",
"u.i.S 9 c O.w x m & q.5.4.4.5.4.4.4.4.4.t.L + 1.1.! f B w.i.",
"u.a.S 9 c %.y > ; ..0.3.3.3.3.3.3.3.3.8.6.X D q.%.! b B w.i.",
"u.a.S 9 c *.a   K s.9.0.0.9.0.9.9.9.q.t.4 & t.2...] b g w.i.",
"u.a.S 9 c X.G . 4 7 6 6 6 6 6 6 6 7 7 & # ;.9.2.$.! D B w.i.",
"u.a.S 9 c W -.} z f z z g z z z g f g z 3.0.3.2.*.! f B w.i.",
"u.a.S 9 c E %.9.y.t.t.t.t.t.t.t.y.t.t.t.8.3.4.2.*.! b B w.u.",
"u.i.S 9 z E %.:.2.2.1.2.2.2.1.1.2.2.1.2.2.2.2.;...R x g w.i.",
"u.a.S 8 z G  .@.@.@.@.@.@.@.@.@.@.@.@.@...$.@...| T z B w.i.",
"u.a.S 1 j D R Q Q Q Q Q Q R Q Q Q Q Q Q R E Q Q T H f B w.i.",
"u.a.V * y s s f d d d f g d s f d d g f s f f s s s i a w.i.",
"u.i.<.C / T ) ) / / / ( / T ) ) / / / / ) P ) ) / ) P ) e.i.",
"u.u.i.a.i.i.i.i.i.i.i.i.i.i.i.i.i.i.i.i.i.i.i.i.a.a.i.i.u.u.",
"u.u.u.u.u.u.u.u.u.u.u.u.u.u.u.u.u.u.u.u.u.u.u.u.u.u.u.u.u.u."
};
