/* XPM */
static char *openPrimaryMouseOver_xpm[] = {
/* columns rows colors chars-per-pixel */
"30 30 164 2 ",
"   c #000007",
".  c #05040B",
"X  c #08080E",
"o  c #0D0D13",
"O  c #140F14",
"+  c #141115",
"@  c #161418",
"#  c #1E1A1C",
"$  c #221E1F",
"%  c #252121",
"&  c #282323",
"*  c #342C2B",
"=  c #37302D",
"-  c #39322D",
";  c #3B3330",
":  c #3F3D37",
">  c #483D37",
",  c #493F39",
"<  c #453C37",
"1  c #4C423B",
"2  c #51463E",
"3  c #544A41",
"4  c #5A4E45",
"5  c #62554B",
"6  c #675A4D",
"7  c #6A5B4E",
"8  c #706054",
"9  c #786657",
"0  c #7B6758",
"q  c #736F5F",
"w  c #7A695A",
"e  c #6F765D",
"r  c #747A5F",
"t  c #777D62",
"y  c #797F65",
"u  c #8C484B",
"i  c #80524D",
"p  c #855751",
"a  c #8D5E57",
"s  c #8F5F58",
"d  c #8C6759",
"f  c #96655C",
"g  c #88765F",
"h  c #897361",
"j  c #8D7966",
"k  c #837362",
"l  c #927C67",
"z  c #927C68",
"x  c #9B7463",
"c  c #A16E65",
"v  c #A77D6B",
"b  c #578062",
"n  c #598965",
"m  c #5F9265",
"M  c #589068",
"N  c #579969",
"B  c #5B9C69",
"V  c #638C64",
"C  c #7B8065",
"Z  c #639769",
"A  c #65986A",
"S  c #73946E",
"D  c #7F9E76",
"F  c #55B072",
"G  c #5FB776",
"H  c #3EE67C",
"J  c #3FEB7D",
"K  c #40D579",
"L  c #49DD7F",
"P  c #45DA7D",
"I  c #808468",
"U  c #888B6D",
"Y  c #94816D",
"T  c #9C846D",
"R  c #958770",
"E  c #998671",
"W  c #9A9A7A",
"Q  c #AD8370",
"!  c #A38B71",
"~  c #B18672",
"^  c #B58875",
"/  c #AB9277",
"(  c #AE947A",
")  c #BE917B",
"_  c #B69C7F",
"`  c #83B07E",
"'  c #4ADD80",
"]  c #4DE182",
"[  c #41EA81",
"{  c #55E584",
"}  c #58E585",
"|  c #52EF87",
" . c #58E987",
".. c #59EC88",
"X. c #44F285",
"o. c #4DF385",
"O. c #4DF689",
"+. c #4FFA8C",
"@. c #51F68B",
"#. c #58F38A",
"$. c #51F88C",
"%. c #BA9F82",
"&. c #82A480",
"*. c #86B585",
"=. c #86B788",
"-. c #8BBB8B",
";. c #BCA083",
":. c #BCA98C",
">. c #E18583",
",. c #C1A587",
"<. c #CFA087",
"1. c #C3A68A",
"2. c #C5A88A",
"3. c #CAAC8D",
"4. c #CFB191",
"5. c #D5B594",
"6. c #D8B796",
"7. c #DCB997",
"8. c #DBBB9A",
"9. c #F4A79B",
"0. c #E0BF9C",
"q. c #F3B19B",
"w. c #DDBFA1",
"e. c #F0BBAF",
"r. c #F1B6A3",
"t. c #EEBEB7",
"y. c #F0BFBB",
"u. c #F1B1BC",
"i. c #E3C29E",
"p. c #DEC0A2",
"a. c #E7C5A1",
"s. c #E9C6A3",
"d. c #EBC8A4",
"f. c #ECCFA9",
"g. c #F1CDA7",
"h. c #FFC7AC",
"j. c #F2CEA9",
"k. c #F9C2A2",
"l. c #F5D2AB",
"z. c #FBD5AE",
"x. c #FED8AF",
"c. c #EFC0BB",
"v. c #F1C1BC",
"b. c #FAD7B2",
"n. c #FCDAB4",
"m. c #FFD2BC",
"M. c #FBDDBD",
"N. c #FFE1B7",
"B. c #FEE4BB",
"V. c #FFEABD",
"C. c #FFD3C2",
"Z. c #FBDFC1",
"A. c #FFD8C9",
"S. c #FEE5C2",
"D. c #FFEBC5",
"F. c #FFECC9",
"G. c #FFF3C5",
"H. c #FFF5C9",
"J. c #FFFBCC",
"K. c #FFEED2",
"L. c #FFE8DA",
"P. c #FFF2D6",
"I. c #FFFFD3",
"U. c #FFFFDA",
/* pixels */
"} } } } } } } } } } } } } } } } } } } } } } } } } } } } } } ",
"} } #.o.o.o.o.o.o.o.o.o.o.o.o.o.o.X.o.o.o.o.o.o.o.O.O.@.} { ",
"} #.F b M M M M M M M M M M M M M M M M M M M M M M n N }  .",
"} H ` u.c.y.y.y.y.c.c.c.c.c.c.c.y.y.y.t.y.y.y.t.e.r.9.E K ..",
"} H -.L.L.P.K.K.K.K.K.K.K.K.K.K.K.K.K.K.K.K.F.F.S.x.k.W K ..",
"{ H =.A.S.Z.Z.Z.Z.M.M.M.Z.M.Z.M.Z.Z.Z.Z.M.S.M.N.l.7.<.U P ..",
"{ H *.C.Z.Z.M.M.b.M.n.M.b.M.n.n.M.b.b.M.n.n.n.l.s.3.) I L ..",
"} H *.C.Z.b.B.H.H.G.H.J.D.b.b.b.b.b.b.b.b.b.z.f.7.,.^ C L ..",
"} H *.C.M.S.l.Y j R Y h 1.H.n.z.z.z.z.z.z.z.l.d.6.;.~ C L ..",
"} H *.C.S.M.3 $ 1 , 1 : . Y I.H.G.G.H.G.N.z.l.d.5.;.~ C ' ..",
"} H *.C.D.8.& s.H.V.B.J.:.  5 Y j j h j l.B.j.s.7.;.~ C ' ..",
"} H *.C.F.p.; 8.S.n.x.x.J.5.; 1 2 1 3 % 1 n.z.d.7._ ^ C ' ..",
"} H *.C.F.w.; 8.B.z.z.z.z.V.G.V.V.V.J.d.% 7.N.i.5.;.~ C ' ..",
"} H *.C.F.w.; 8.N.x.D.H.G.G.G.G.H.H.I.z.; z.J.z.5._ ~ C ' ..",
"} H *.C.F.w.; 6.V.G.;.h j l l l l l R w o 9 R i.i._ ~ C ' ..",
"} H *.C.F.w.; 8.I.g + 1 1 1 1 1 1 1 1 1 6 2 = 1 0.2.~ C ' ..",
"} H *.C.D.w.* n.3.. p.H.V.V.V.V.V.V.B.V.B.U.4.o 3.3.~ C L ..",
"} H *.C.D.w., l.* T I.x.x.x.n.x.x.x.x.x.N.G.* 7 z.;.~ C L ..",
"} H *.C.F.w.5 3 , H.x.z.z.z.z.z.z.z.z.z.J.l @ b.i._ ~ C L ..",
"} H *.C.F.s.# # n.U.G.H.G.G.G.G.G.G.G.I.f.  ( V.5.;.~ C L ..",
"} H *.C.S.M.o + Y w w w w w w w w w w q + 6 H.d.6.;.~ C L ..",
"} H *.m.M.D.5.6 2 4 4 4 4 4 4 4 4 4 4 1 j V.n.s.6.;.~ C L ..",
"} H *.m.n.z.V.G.V.V.V.V.V.V.V.V.V.V.V.V.V.z.d.i.3._ ~ t L ..",
"} H *.m.n.g.a.0.i.8.i.0.i.8.0.0.0.i.i.8.i.8.7.5.2./ v t { ..",
"} J *.h.a.6.3.3.2.2.2.2.1.2.2.2.2.2.2.2.2.2.1.;.( T x r { ..",
"} [ ` q.2.%./ ! ! ! ! ! ! ! ! ! ! ! ! ! T ! ! T l g d r L ..",
"} X.D >.^ c f s a s a a s s s s a a a a a a a a u 8 u 8 { #.",
"} | G S A Z Z m m m m V m m m m m m m m m m m m V m V B L  .",
"} } | X.o.O.O.@.@.@.O.$.@.O.@.@.$.$.@.$.O.$.@.$.$.$.$.#. .} ",
"} } } } } } } } } } } } }  .} } } { } } } } } }  . ...L } } "
};
