/* XPM */
static char *openSecondaryMouseOver_xpm[] = {
/* columns rows colors chars-per-pixel */
"30 30 172 2 ",
"   c #010103",
".  c #141215",
"X  c #171519",
"o  c #1A161A",
"O  c #211D1E",
"+  c #242021",
"@  c #2E2524",
"#  c #302924",
"$  c #322C2A",
"%  c #37302D",
"&  c #3D302D",
"*  c #3E3632",
"=  c #413531",
"-  c #413934",
";  c #493C37",
":  c #473D38",
">  c #493F39",
",  c #4E443C",
"<  c #51453E",
"1  c #564B42",
"2  c #594D44",
"3  c #63554A",
"4  c #67594C",
"5  c #6B5C4F",
"6  c #6C5D51",
"7  c #6F6053",
"8  c #736355",
"9  c #776758",
"0  c #7B6859",
"q  c #6F765D",
"w  c #747A5F",
"e  c #7D7765",
"r  c #777D62",
"t  c #797F65",
"y  c #8C484B",
"u  c #80524D",
"i  c #855751",
"p  c #8D5E57",
"a  c #8F5F58",
"s  c #8C6759",
"d  c #846C5D",
"f  c #96655C",
"g  c #88765F",
"h  c #837060",
"j  c #8A7663",
"k  c #8C7966",
"l  c #8F7F6B",
"z  c #927C67",
"x  c #927C69",
"c  c #9B7463",
"v  c #A16E65",
"b  c #A77D6B",
"n  c #578062",
"m  c #598965",
"M  c #5F9265",
"N  c #589068",
"B  c #579969",
"V  c #5B9C69",
"C  c #638C64",
"Z  c #7B8065",
"A  c #639769",
"S  c #65986A",
"D  c #73946E",
"F  c #7F9E76",
"G  c #5FB776",
"H  c #55B072",
"J  c #3EE67C",
"K  c #3FEB7D",
"L  c #40D579",
"P  c #49DD7F",
"I  c #45DA7D",
"U  c #808468",
"Y  c #89886E",
"T  c #95826D",
"R  c #9A846E",
"E  c #9B8673",
"W  c #9C8972",
"Q  c #98967A",
"!  c #868A78",
"~  c #AD8370",
"^  c #A38B72",
"/  c #B18672",
"(  c #B58875",
")  c #A79279",
"_  c #AD937A",
"`  c #AB9277",
"'  c #B1977D",
"]  c #B49A7F",
"[  c #BE917B",
"{  c #83B07E",
"}  c #4ADD80",
"|  c #4DE182",
" . c #41EA81",
".. c #55E584",
"X. c #58E585",
"o. c #52EF87",
"O. c #58E987",
"+. c #59EC88",
"@. c #44F285",
"#. c #4DF385",
"$. c #4DF689",
"%. c #4FFA8C",
"&. c #51F68B",
"*. c #58F38A",
"=. c #51F88C",
"-. c #B79C82",
";. c #BA9F83",
":. c #82A480",
">. c #86B585",
",. c #86B788",
"<. c #8BBB8B",
"1. c #BBA083",
"2. c #E18583",
"3. c #C1A587",
"4. c #CFA087",
"5. c #C3A689",
"6. c #C7AA8C",
"7. c #CAAD8D",
"8. c #CDAF91",
"9. c #CFB191",
"0. c #CBBA9A",
"q. c #D6B695",
"w. c #DAB796",
"e. c #DABA97",
"r. c #DBBB99",
"t. c #F4A79B",
"y. c #F3B19B",
"u. c #F0BBAF",
"i. c #F1B6A3",
"p. c #EEBEB7",
"a. c #F0BFBB",
"s. c #F1B1BC",
"d. c #E7C49F",
"f. c #CFC7A4",
"g. c #E6C5A1",
"h. c #EAC7A2",
"j. c #EDCAA5",
"k. c #F1CCA7",
"l. c #FFC7AC",
"z. c #F2CEA8",
"x. c #F9C2A2",
"c. c #EDD3AD",
"v. c #F6D2AB",
"b. c #FBD5AD",
"n. c #FFD8AF",
"m. c #EFC0BB",
"M. c #F1C1BC",
"N. c #F3D7B1",
"B. c #FAD7B2",
"V. c #FDDBB5",
"C. c #FFD2BC",
"Z. c #FDDEBC",
"A. c #F2E0B6",
"S. c #FFE1B7",
"D. c #FEE4BB",
"F. c #FFEBBF",
"G. c #FFD3C2",
"H. c #FBDFC1",
"J. c #FFD8C9",
"K. c #FFE3C3",
"L. c #FFEDC4",
"P. c #FFEDCA",
"I. c #FFF3C5",
"U. c #FFF4CA",
"Y. c #FFFCCC",
"T. c #FFEED2",
"R. c #FFE8DA",
"E. c #FFF2D6",
"W. c #FFFFD3",
"Q. c #FFFFDB",
"!. c #FFFFE3",
"~. c #FFFFE9",
/* pixels */
"X.X.X.X.X.X.X.X.X.X.X.X.X.X.X.X.X.X...X.X.X.X.X.X.....X.X.X.",
"X.X.*.#.@.@.#.#.#.#.#.#.#.#.#.#.#.#.#.#.#.#.#.#.#.#.$.&.X.X.",
"X.*.H n m N N N N N N N N N N N N N N N N N N N N N m B ..+.",
"X.J { s.G.m.m.a.a.a.a.a.a.a.a.a.a.a.a.a.a.a.a.a.u.i.t.E L +.",
"X.J <.R.R.E.T.E.T.T.T.T.T.T.T.T.T.T.T.T.T.T.T.P.K.n.x.Q L +.",
"..J ,.J.K.K.H.H.H.D.K.K.K.K.K.K.H.H.H.Z.H.H.Z.V.v.e.4.Y P +.",
"..J >.G.H.Z.B.B.D.P.V.Z.Z.Z.Z.P.P.B.B.V.B.Z.B.b.d.7.[ U P +.",
"X.J >.G.Z.Z.B.H.N.6 : 2 1 1 1 $ ) W.V.N.B.B.b.k.r.3.( Z P +.",
"X.J >.G.Z.B.B.I.^ $ 0.8.7.f.8 # & T Y.B.b.b.v.j.e.] ( Z P +.",
"X.J >.G.Z.B.Z.!.-.3 W.D.D.W.k l W.& W F.b.b.v.h.e.] / Z P +.",
"X.J >.G.Z.D.v.e @ 4 I.I.L.Q.-.. ! > o n.S.b.v.h.e.] ( Z P +.",
"X.J >.G.H.U.6 @ * 0 c.R E E _ x 9 8 , S.I.v.v.h.w.3.( U P +.",
"X.J >.G.Z.L.* 9.r.4 c.k x d ;.!.~.I.* , d.D.v.d.q.3.( Z P +.",
"X.J >.G.H.L.1 -.;.6 c.k l T k 6 h g.3 O < F.n.j.q.] / Z P +.",
"X.J >.G.Z.L.1 ;.1.6 c.x x E T x ) d.w ' , n.S.d.e.] / Z P +.",
"X.J >.G.H.K.1 -.;.4 Q.Q.W.W.W.W.Q.n.9 W < F.F.n.q.] / Z P +.",
"X.J >.G.Z.L.1 -.6.3 T ; 1 1 1 1 2 > + $ X > 3 w.d.] ` Z P +.",
"X.J >.G.Z.L., -.k.  = Y x x x x x x ^ ^ _ Q = - b.3./ U P +.",
"X.J >.G.Z.P., 5.5.X D.Y.I.I.I.I.I.I.I.I.P.!.4 1 b.] ~ Z P +.",
"X.J >.G.Z.K.2 ) , ` Y.v.b.b.b.b.B.b.b.v.U.-.. g.d.] / Z P +.",
"X.J ,.G.D.P.8 . 5 Y.S.S.V.S.V.S.V.S.S.F.L.X x L.q.] ( Z P +.",
"X.J ,.C.Z.I.>   d.F.j.v.z.z.z.z.z.z.v.A.> $ I.k.e.1.( Z P +.",
"X.J >.C.V.L.^ o , & * = = - - - - - - $ % d.V.r.9.] ~ Z P +.",
"X.J >.C.B.k.b.q.` ' ] ' ' ' ' ' ' ' _ ' j.v.w.q.1.` ~ j X.+.",
"X.K >.l.d.q.8.w.w.e.e.e.e.e.e.w.e.w.e.e.7.5.3.] ' R c w P +.",
"X. .{ y.7.] ` ^ ^ ^ ^ ^ ^ ^ ^ ^ ^ ^ ^ ^ ^ ^ ^ R T g s q X.+.",
"X.@.F 2.( v f a p s s p p p p p p p s p p p s i i u y 7 X.+.",
"X.o.G D S A A M C M C C M M M M M M A C M M C M M M C V P +.",
"X.X.o.@.#.$.$.&.=.%.$.=.&.=.$.=.#.=.=.$.=.=.&.=.&.=.*.*.+.+.",
"X.X.X.X.X.X.X.X.X.X.X.X.X.X.X.X.X.X.X.X.X.X.X.X.+.P +.P +.P "
};
