/* XPM */
static char *openPrimaryDisabled_xpm[] = {
/* columns rows colors chars-per-pixel */
"30 30 184 2 ",
"   c #685F5F",
".  c #6B6666",
"X  c #6C6666",
"o  c #6C6767",
"O  c #6D6767",
"+  c #6D6868",
"@  c #6C6C6C",
"#  c #767171",
"$  c gray52",
"%  c #868686",
"&  c gray53",
"*  c #888585",
"=  c #8C8686",
"-  c #808989",
";  c #858989",
":  c #868A8A",
">  c #868B8B",
",  c #878B8B",
"<  c #888888",
"1  c gray54",
"2  c #8B8B8B",
"3  c #8E8B8B",
"4  c gray55",
"5  c #8D8C8C",
"6  c #8D8D8D",
"7  c gray56",
"8  c #928F8F",
"9  c #8B9090",
"0  c #889393",
"q  c #8F9A9A",
"w  c #8F9B9B",
"e  c #909090",
"r  c gray57",
"t  c #939091",
"y  c #929292",
"u  c #949190",
"i  c #949191",
"p  c gray58",
"a  c #959595",
"s  c #9D9191",
"d  c #989595",
"f  c #959E9E",
"g  c #989898",
"h  c gray60",
"j  c #9A9A9A",
"k  c #9D9D9D",
"l  c gray62",
"z  c #9F9F9F",
"x  c #94A0A0",
"c  c #94A1A1",
"v  c #95A1A1",
"b  c #95A2A2",
"n  c #9DA1A1",
"m  c #99A6A6",
"M  c #98A7A7",
"N  c #9BAAAB",
"B  c #A0A0A0",
"V  c gray63",
"C  c #A2A2A2",
"Z  c gray64",
"A  c #A4A4A4",
"S  c #A5A5A5",
"D  c gray65",
"F  c #A7A7A7",
"G  c #A8A5A5",
"H  c #A5ADAD",
"J  c #A5AEAE",
"K  c gray66",
"L  c #A9A9A9",
"P  c #AAA9A9",
"I  c #AAAAAA",
"U  c #ACACAC",
"Y  c gray68",
"T  c #AEAEAE",
"R  c #AFAFAF",
"E  c #B7ACAC",
"W  c gray69",
"Q  c #B1B1B1",
"!  c #B2B2B2",
"~  c gray70",
"^  c #B4B4B4",
"/  c gray71",
"(  c #B6B6B6",
")  c #B7B7B7",
"_  c #BBB2B2",
"`  c gray72",
"'  c #B9B9B9",
"]  c gray73",
"[  c #BBBBBB",
"{  c gray",
"}  c gray75",
"|  c #C2BCBC",
" . c #C4BFBF",
".. c #AEC1C1",
"X. c #B6C2C2",
"o. c #B6C3C3",
"O. c #B7C3C3",
"+. c #BBC7C7",
"@. c #B5C9C9",
"#. c #C0C0C0",
"$. c #C1C1C1",
"%. c gray76",
"&. c #C3C3C3",
"*. c #C6C1C1",
"=. c #C7C1C1",
"-. c #C7C2C2",
";. c gray77",
":. c #C5C5C5",
">. c #C6C6C6",
",. c gray78",
"<. c #C8C8C8",
"1. c gray79",
"2. c #CBCBCB",
"3. c gray80",
"4. c #CDCDCD",
"5. c #CECECE",
"6. c gray81",
"7. c #D1CCCC",
"8. c gray82",
"9. c #D2D2D2",
"0. c LightGray",
"q. c #D4D0D0",
"w. c gray83",
"e. c #D5D5D5",
"r. c gray84",
"t. c #D7D7D7",
"y. c #DAD4D4",
"u. c #DBD5D5",
"i. c #DCD6D6",
"p. c #DCD7D7",
"a. c #D8D8D8",
"s. c gray85",
"d. c #DADADA",
"f. c gray86",
"g. c #DDD8D8",
"h. c gainsboro",
"j. c #DDDDDD",
"k. c gray87",
"l. c #DFDFDF",
"z. c #CEECED",
"x. c #CFEEEE",
"c. c #D5F4F4",
"v. c #D6F5F5",
"b. c #D7F6F6",
"n. c #D8F7F7",
"m. c #D8F8F8",
"M. c #DFFDFD",
"N. c #DEFFFF",
"B. c #DFFFFF",
"V. c gray88",
"C. c #E1E1E1",
"Z. c #E2E2E2",
"A. c gray89",
"S. c #E4E4E4",
"D. c gray90",
"F. c #E6E6E6",
"G. c #E7E7E7",
"H. c #EDE7E7",
"J. c gray91",
"K. c #E9E9E9",
"L. c #EAEAEA",
"P. c gray92",
"I. c #ECECEC",
"U. c gray93",
"Y. c #EFEFEF",
"T. c #E0FDFD",
"R. c LightCyan",
"E. c #E1FFFF",
"W. c #E2FFFF",
"Q. c #E5FFFF",
"!. c #E6FFFF",
"~. c #E8FFFF",
"^. c #E9FFFF",
"/. c #EBFFFF",
"(. c #ECFFFF",
"). c #EDFFFF",
"_. c #EEFFFF",
"`. c #F1F1F1",
"'. c #F3F3F3",
"]. c #F4F4F4",
"[. c gray96",
"{. c #F6F6F6",
"}. c azure",
"|. c #F1FFFF",
/* pixels */
"E.E.E.E.E.E.E.E.E.E.E.E.E.E.E.E.E.E.E.E.E.E.E.E.E.E.E.E.E.E.",
"E.B.(.|._._._._._._._._._._._._._._._._._._._._._._.}.|.W.R.",
"E._...- w w w w w w w w w w w w w w w w w w w w w w 0 M T.Q.",
"E.!.H E -.*.=.*.*.*.*.*.*.*.*.*.*.*.*.*.*.*.*.*. .| _ 5 z.^.",
"E.N.+.H.{.[.[.].].].].].].].].].].].].].].].].'.`.L.q.n x.~.",
"E.R.O.g.G.D.A.A.A.A.A.A.A.A.A.A.A.A.A.A.A.A.A.Z.k.<.G 9 c.~.",
"E.R.X.p.S.V.l.k.j.j.j.j.j.j.j.j.j.j.j.j.j.j.k.j.6.~ d , v.~.",
"E.R.O.i.A.h.V.G.D.D.D.F.A.s.s.s.s.s.s.s.s.s.d.e.&.I t : b.~.",
"E.R.O.i.Z.A.a.) / ) ) ! >.D.d.a.s.s.s.s.s.s.s.9.#.K u > b.~.",
"E.R.O.i.F.Z.B e B l l k & ` U.F.S.S.S.D.k.t.s.0.$.L u > b.~.",
"E.R.O.i.L.9.y 0.G.V.V.K.<.% F ] ^ / ! ^ r.l.s.0.$.L u > b.~.",
"E.R.O.i.K.w.h 8.V.d.d.s.J.2.h l B B C y z j.h.0.$.L u > b.~.",
"E.R.O.i.K.w.h 6.l.s.s.s.a.V.S.C.C.C.K.w.r 5.l.0.$.L u > b.~.",
"E.R.O.i.K.w.h 6.k.s.Z.F.D.D.D.D.D.D.I.s.g s.I.t.} L u > b.~.",
"E.R.O.i.K.w.h 5.C.A.:.! / ( ( ( ( ( ] T 1 Y [ 8.,.L u > b.~.",
"E.R.O.i.K.w.h 6.I.! 4 B z l l l l l l B F V g B ;.U u > b.~.",
"E.R.O.i.K.w.g h.1.< 9.G.C.C.C.C.C.C.C.C.V.Y.3.2 { T u > b.~.",
"E.R.O.i.K.w.k r.a ` P.s.d.d.d.d.d.d.d.d.j.D.g K 4.P u > b.~.",
"E.R.O.i.K.w.D B k F.f.s.s.s.s.s.s.s.s.a.L./ 6 d.>.L u > b.~.",
"E.R.O.i.K.t.7 7 j.Y.S.D.D.D.D.D.D.D.D.I.r.$ $.C.#.L u > b.~.",
"E.R.O.i.J.V.2 4 ' Y T T T T T T T T R W 2 K J.0.$.L u > b.~.",
"E.R.O.i.A.D.3.K Z A A A A A A A A A A z ( Z.l.0.%.P i > b.~.",
"E.E.X.i.Z.k.D.F.A.A.A.A.A.A.A.A.A.A.A.S.S.f.t.8.$.L i , b.~.",
"E.E.X.u.A.f.9.3.3.3.3.3.3.3.3.3.3.3.3.3.3.4.3.:.` S 8 : b.~.",
"E.E.o.y.f.>.) ! Q ! ! ! ! ! ! ! ! ! ! ! ! ! ! T D j 3 : b.~.",
"E.E.O.7.$.D h a a a a a a a a a a a a a a a p p e 6 * ; n.~.",
"E.~.J s = # + . o o o o o o o o o o o o o o o X X O   @ m.^.",
"E./.@.f m b x x c c c c c c c c c c c c c c c c v b q N M.Q.",
"E.R.^./.).}.|.|.|.|.|.|.|.|.|.|.|.|.|.|.|.|.|.|.|.}.}.}.W.R.",
"E.E.E.E.E.E.E.E.E.E.E.E.E.E.E.E.E.E.E.E.E.E.E.E.E.E.E.E.E.E."
};
