/* XPM */
static char *openSecondaryPressed_xpm[] = {
/* columns rows colors chars-per-pixel */
"30 30 135 2 ",
"   c #0D0C0F",
".  c #110E11",
"X  c #131114",
"o  c #211D1E",
"O  c #25211F",
"+  c #3C2214",
"@  c #291F20",
"#  c #272323",
"$  c #2A2524",
"%  c #2F2A29",
"&  c #312B29",
"*  c #382D2C",
"=  c #38312D",
"-  c #3E3734",
";  c #573A27",
":  c #533B29",
">  c #433B37",
",  c #463D39",
"<  c #4E453F",
"1  c #584739",
"2  c #59483A",
"3  c #67523F",
"4  c #524741",
"5  c #544A44",
"6  c #515049",
"7  c #5D524B",
"8  c #675341",
"9  c #6A5544",
"0  c #645C53",
"q  c #6D5F56",
"w  c #6D6157",
"e  c #73655B",
"r  c #736D62",
"t  c #7D6B60",
"y  c #7A7165",
"u  c #836C5B",
"i  c #87725E",
"p  c #857466",
"a  c #86776A",
"s  c #8A7768",
"d  c #85796C",
"f  c #8E7D6D",
"g  c #917E6E",
"h  c #8F7F70",
"j  c #937F70",
"k  c #8F806D",
"l  c #92816F",
"z  c #878279",
"x  c #88857D",
"c  c #958373",
"v  c #988574",
"b  c #9A8976",
"n  c #9D8978",
"m  c #A18D7C",
"M  c #A4917F",
"N  c #787F80",
"B  c #7E8786",
"V  c #838784",
"C  c #878B86",
"Z  c #8D918C",
"A  c #869291",
"S  c #889393",
"D  c #939B97",
"F  c #A69483",
"G  c #A89785",
"H  c #AD9A85",
"J  c #AE9F8F",
"K  c #B09D87",
"L  c #B39E89",
"P  c #99A09B",
"I  c #B2A18D",
"U  c #BBA58F",
"Y  c #AFA092",
"T  c #AEA892",
"R  c #B4A694",
"E  c #BCA790",
"W  c #BDA992",
"Q  c #B7A998",
"!  c #BBAB98",
"~  c #BBB19A",
"^  c #93A1A0",
"/  c #9EA7A3",
"(  c #9EA8A3",
")  c #A0ADAB",
"_  c #ABBEBE",
"`  c #C3AD95",
"'  c #C1AC99",
"]  c #C7B19A",
"[  c #CCB59D",
"{  c #C5B3A1",
"}  c #CDB8A3",
"|  c #C4BCAC",
" . c #D3BAA1",
".. c #D9BFA4",
"X. c #CCC3A9",
"o. c #DBC0A6",
"O. c #D6C3AE",
"+. c #DDC4A9",
"@. c #D6CAAE",
"#. c #D7C5B0",
"$. c #D8C4B0",
"%. c #DEC9B1",
"&. c #E2C7AC",
"*. c #E4C9AD",
"=. c #E5CCB1",
"-. c #EACEB1",
";. c #E2D2B5",
":. c #EDD2B5",
">. c #EAD4BB",
",. c #F3D6B9",
"<. c #F4D9BC",
"1. c #FADDBE",
"2. c #B0C2C0",
"3. c #F4DBC1",
"4. c #FCDEC1",
"5. c #EDE9C8",
"6. c #FDE2C3",
"7. c #FFE7CB",
"8. c #FFECCB",
"9. c #FFF1CF",
"0. c #FEEED1",
"q. c #FFF4D4",
"w. c #FFF9D6",
"e. c #FFF5D9",
"r. c #FFFCDB",
"t. c #D6F7F9",
"y. c #D7F8FA",
"u. c #DCFDFE",
"i. c #FFFFE3",
"p. c #FFFFED",
"a. c #E1FFFF",
"s. c #EAFFFF",
"d. c #FFFFF5",
"f. c #F3FFFF",
"g. c #FBFFFF",
/* pixels */
"a.a.a.a.a.a.a.a.a.a.a.a.a.a.a.a.a.a.a.a.a.a.a.a.a.a.a.a.a.a.",
"a.u.f.g.f.f.f.g.g.f.f.f.g.f.g.f.f.f.f.f.f.g.f.f.f.g.g.f.a.a.",
"a.f._ N A A A A A A A A A A A A A A Z Z A Z A A A A B P a.a.",
"a.f.V + 1 1 1 1 1 1 1 1 1 1 1 1 2 2 2 2 1 1 2 2 1 1 : 0 u.s.",
"a.f.D 3 p p k k l l l g l k k f k k k k k l k f d s i z y.s.",
"a.s.D 8 s b G H H M H K H H H H I M M I H H H H M b l x y.s.",
"a.f.D 9 c K ` [ [  .-.-.-.-.:.*. .[ [ [ [ [  . .] I b x t.a.",
"a.f.D 9 b U o.*.-.:.M g v c M I <.<.*.*.-.*.:.,.%.! n x t.s.",
"a.s.P 9 b ` +.:.9.k - e e y 4   q e.7.,.<.1.6.3.=.! n h t.s.",
"a.f.D 9 b W ..1.p.w L p.w.p.F d b q 9.6.4.4.6.3.%.Q n x t.s.",
"a.f.D 9 b W *.1.T , U i.9.p.M , | X f r.1.4.6.3.%.Q n x t.a.",
"a.f.D 3 v W <.e & & ] @.U ~ I w r - p d.1.4.4.<.=.! n x t.s.",
"a.s.D 3 b ` &.- :.b H ` f p E d.g.` O R 8.6.4.3.%.! m V t.s.",
"a.f.D 9 b ` &.< %.s K ! a c c e I W = * [ e.4.3.%.Q m x t.s.",
"a.f.D 9 b ` %.4 +.a K X.M I K F @.F M p M i.4.3.$.! m h t.a.",
"a.f.D 9 b ` &.4 +.p ` i.6.7.6.7.r.f e 0 l q.e.3.*.! n V t.s.",
"a.f.D 9 b ` &.< %.b > 4 4 4 4 5 5 < > - > > F 8.=.Q n x t.s.",
"a.s.D 9 b ` *.< ,.t . X.=.+.+.+.+.&.-.-.5.s # 8.=.! n V t.s.",
"a.f.D 9 b ` &.7 ] 4 [ i.8.8.8.8.8.8.8.9.p.6 p w.*.! m x t.s.",
"a.f.D 9 b ` *.e & t i.4.6.4.4.4.4.4.1.i.m # e.6.$.E m x t.s.",
"a.f.D 9 b ` :.# # w.i.9.9.9.q.0.9.q.i.%.. U r.3.%.Q m x t.s.",
"a.f.D 9 b ` 1.0 X 0 5 5 5 5 5 5 5 5 6 @ a i.6.3.=.Q n V t.a.",
"a.f.D 9 b W -.6.' F G G G G F G G G F { r.7.6.3.%.Q b x t.s.",
"a.f.D 3 l W +.4.e.e.e.e.e.e.e.e.e.e.e.0.3.3.3.>...Q b h t.s.",
"a.f.D 3 c K } #.#.#.$.$.$.$.$.$.O.$.$.$...$.$...{ Y x V t.s.",
"a.f.D 3 f G R Q Q Q Q Q Q Q Q Q Q Q Q Q ! E Q Q Y G v x t.s.",
"a.f.C : u f f g f f f g h d g s g f g f s g g s s s u t t.s.",
"a.s.2.Z / / / / / / / / / Y ) ) / / / / ) P ) ) ) ) D ) a.a.",
"a.u.s.f.s.f.s.s.s.s.s.s.s.s.s.s.s.s.s.s.s.s.s.s.f.s.s.f.a.a.",
"a.a.a.a.a.a.a.a.a.a.a.a.a.a.a.a.a.a.a.a.a.a.a.a.a.a.a.a.a.a."
};
