/* XPM */
static char *openPrimaryNormal_xpm[] = {
/* columns rows colors chars-per-pixel */
"30 30 147 2 ",
"   c #000007",
".  c #05040B",
"X  c #08080E",
"o  c #0D0D13",
"O  c #140F14",
"+  c #141115",
"@  c #161418",
"#  c #1E1A1C",
"$  c #221E1F",
"%  c #252121",
"&  c #282323",
"*  c #342C2B",
"=  c #37302D",
"-  c #39322D",
";  c #3B3330",
":  c #3F3D37",
">  c #453C37",
",  c #483D37",
"<  c #493F39",
"1  c #4C423B",
"2  c #51463E",
"3  c #624126",
"4  c #674E37",
"5  c #6D533B",
"6  c #71573E",
"7  c #74593F",
"8  c #544A41",
"9  c #5A4E45",
"0  c #62554B",
"q  c #675A4D",
"w  c #6A5B4E",
"e  c #755941",
"r  c #7C6046",
"t  c #7E654B",
"y  c #6C6051",
"u  c #786657",
"i  c #7B6758",
"p  c #736F5F",
"a  c #7A695A",
"s  c #886A4F",
"d  c #8C7155",
"f  c #88755E",
"g  c #9B7B5E",
"h  c #AB7B53",
"j  c #837362",
"k  c #897361",
"l  c #8D7966",
"z  c #817A6D",
"x  c #927C67",
"c  c #927C68",
"v  c #867D70",
"b  c #9F8063",
"n  c #94816D",
"m  c #9C846D",
"M  c #8C8375",
"N  c #958770",
"B  c #988570",
"V  c #928779",
"C  c #9A8E7E",
"Z  c #A28365",
"A  c #A68668",
"S  c #AF8E6E",
"D  c #A38B71",
"F  c #AB9277",
"G  c #AE947A",
"H  c #B69C7F",
"J  c #CF9F75",
"K  c #C19E7B",
"L  c #818886",
"P  c #8A928E",
"I  c #91948D",
"U  c #8F9B9A",
"Y  c #969D97",
"T  c #9A9E94",
"R  c #909B99",
"E  c #AC9E8A",
"W  c #BA9F82",
"Q  c #9BA19A",
"!  c #BCA083",
"~  c #BCA98C",
"^  c #A0A59E",
"/  c #A8A69A",
"(  c #99A6A4",
")  c #9DA8A4",
"_  c #AAACA4",
"`  c #BABBAF",
"'  c #BEBFB3",
"]  c #C1A587",
"[  c #C3A68A",
"{  c #CBA68C",
"}  c #C5A88A",
"|  c #CAAC8D",
" . c #D8AC85",
".. c #D8B18D",
"X. c #CFB191",
"o. c #D5B594",
"O. c #D8B796",
"+. c #DCB997",
"@. c #D7B699",
"#. c #DBBB9A",
"$. c #E0BF9C",
"%. c #D7BBA5",
"&. c #DBBEA4",
"*. c #BEC0B6",
"=. c #BDC1B9",
"-. c #EAC096",
";. c #E3C29E",
":. c #F1C297",
">. c #DEC0A2",
",. c #C2C5BD",
"<. c #E7C5A1",
"1. c #E9C6A3",
"2. c #EBC8A4",
"3. c #ECCFA9",
"4. c #F1CDA7",
"5. c #F8CCA2",
"6. c #F5CFAB",
"7. c #F6D2AB",
"8. c #FBD5AE",
"9. c #FED8AF",
"0. c #F6D2B2",
"q. c #FAD7B2",
"w. c #FCDAB4",
"e. c #FBDDBD",
"r. c #FFE1B7",
"t. c #FEE4BB",
"y. c #FFEABD",
"u. c #AEC1C0",
"i. c #B7C8C5",
"p. c #FBDFC1",
"a. c #FEE5C2",
"s. c #FFEBC5",
"d. c #FFECC9",
"f. c #FFF3C5",
"g. c #FFF5C9",
"h. c #FFFBCC",
"j. c #FFEED2",
"k. c #FFF2D6",
"l. c #FFFFD3",
"z. c #FFFFDA",
"x. c #CBEFF5",
"c. c #D3F6FA",
"v. c #D5F8FC",
"b. c #DDFFFF",
"n. c #E1FFFF",
"m. c #ECFFFF",
"M. c #F0FFFF",
/* pixels */
"n.n.n.n.n.n.n.n.n.n.n.n.n.n.n.n.b.n.n.n.n.n.n.n.n.n.n.n.n.n.",
"n.b.m.M.m.m.m.m.M.m.m.m.m.m.M.m.m.m.m.m.m.m.m.m.m.m.M.M.n.n.",
"n.m.u.L R R U U R U U R U U R R U U U U R R R R U U P ( b.n.",
"n.n._ { %.%.%.%.%.%.%.%.%.%.%.%.%.%.%.%.%.%.%.%.@...J m x.m.",
"n.b.,.a.k.j.k.j.j.j.j.j.j.j.j.j.j.j.j.j.j.j.d.g.a.9.-.E x.m.",
"n.b.=.0.a.p.p.p.p.p.p.p.p.e.e.p.p.p.p.p.p.p.e.w.8.O.K C c.m.",
"n.b.=.0.p.p.e.q.w.w.w.w.e.w.w.w.e.q.q.e.w.w.q.8.;.| S V c.m.",
"n.b.*.7.p.q.a.g.g.g.g.g.s.q.q.q.q.q.q.q.q.q.q.4.+.] A M c.n.",
"n.b.=.6.e.a.0.c v n c k } g.q.8.8.q.8.q.q.8.7.2.O.! Z M v.n.",
"n.b.' 6.a.t.2 $ 1 < 1 : X n l.f.f.f.f.f.r.7.7.1.O.W Z M c.m.",
"n.b.*.6.d.#.& 1.h.t.y.h.~ . 0 N l l k l 4.t.4.2.O.! Z M v.m.",
"n.b.*.6.s.>.; $.t.w.9.9.h.X.; 1 2 1 8 & 1 r.8.2.O.! Z M v.m.",
"n.b.*.6.d.&.- #.r.8.8.8.8.t.f.y.y.y.h.2.% +.r.2.o.H Z M v.m.",
"n.b.*.6.s.>.; #.r.9.s.f.f.f.g.f.f.f.l.8.- 8.h.7.o.! Z M v.n.",
"n.b.*.7.d.>.; #.y.s.~ f l x c c x x B a o u B ;.;.H Z M v.m.",
"n.b.*.6.s.&.; #.l.j + 1 1 1 1 1 1 1 1 2 q 2 * 1 $.} Z M v.m.",
"n.b.,.6.s.#.- w.} X >.h.y.t.y.y.t.y.t.y.t.z.X.o | | Z M c.m.",
"n.b.*.6.s.&.> 7.* m l.9.9.9.w.9.9.9.9.9.r.f.* w 9.! Z M c.m.",
"n.b.*.6.d.&.0 8 , f.w.8.8.8.8.8.9.8.8.8.h.c @ q.;.H Z M c.n.",
"n.b.*.6.d.1.# # r.z.f.f.f.f.f.f.f.f.f.l.3.  G y.o.! Z M c.m.",
"n.b.*.6.a.w.+ + n a a a a a a a a a a p + q g.2.O.! Z M v.n.",
"n.b.*.6.e.s.X.q 2 9 9 9 9 9 9 9 9 9 9 1 l y.w.1.O.H Z M v.m.",
"n.b.*.7.w.9.s.f.y.y.y.y.y.y.y.y.y.y.y.y.y.7.2.;...H g M v.m.",
"n.b.*.5.9.4.;.;.$.$.$.;.#.;.$.$.#.;.;.#.;.;.O.o.} G x M v.n.",
"n.b.' :.;.O.| | } } } } } } } } } } } } } } ] W G m d v v.m.",
"n.n.`  .| W F D D D D D D D D D D D D D D D D m x f s z v.m.",
"n.n./ h g s r e 7 e 7 e e e e e e e e e e e 7 6 5 4 3 y v.m.",
"n.m.i.T ^ Q T T T Y Y Y Y Y Y Y Y Y Y T Y Y Y Y Y Y I ( n.n.",
"n.n.m.n.m.m.M.m.m.M.m.M.M.M.m.M.m.M.m.M.M.M.m.M.m.M.M.M.n.n.",
"n.n.n.n.n.n.n.n.n.n.n.n.n.n.n.n.n.n.n.n.n.n.n.n.n.n.n.n.n.n."
};
