/* XPM */
static char *playScenarioDisabled_xpm[] = {
/* columns rows colors chars-per-pixel */
"30 30 223 2 ",
"   c #676767",
".  c #6A6262",
"X  c #686565",
"o  c #706A6A",
"O  c #706B6B",
"+  c #706C6C",
"@  c #716D6D",
"#  c #726E6E",
"$  c #717171",
"%  c #747474",
"&  c #777777",
"*  c #797575",
"=  c #7B7B7B",
"-  c #7C7C7C",
";  c gray49",
":  c #7E7D7D",
">  c #7E7E7E",
",  c #7F7E7E",
"<  c #7E7F7F",
"1  c #7F8181",
"2  c #7D8585",
"3  c #808080",
"4  c #808181",
"5  c #818181",
"6  c #808282",
"7  c gray51",
"8  c #838383",
"9  c #868383",
"0  c #848484",
"q  c #848585",
"w  c gray52",
"e  c #868686",
"r  c #898686",
"t  c #838C8C",
"y  c #888888",
"u  c gray54",
"i  c #8C8989",
"p  c #8E8E8E",
"a  c #8E8F8F",
"s  c #918C8C",
"d  c #908D8D",
"f  c #918D8D",
"g  c #918E8E",
"h  c #8B9494",
"j  c #8B9696",
"k  c #8B9797",
"l  c #8B9898",
"z  c #909191",
"x  c gray57",
"c  c #929292",
"v  c #939393",
"b  c #969393",
"n  c #939494",
"m  c gray58",
"M  c #959595",
"N  c gray59",
"B  c #979696",
"V  c #979797",
"C  c #979999",
"Z  c #919D9D",
"A  c #929C9C",
"S  c #919E9E",
"D  c #929E9E",
"F  c #939F9F",
"G  c #989898",
"H  c gray60",
"J  c #9A9A9A",
"K  c #9B9B9B",
"L  c #9A9C9C",
"P  c #9B9C9C",
"I  c gray61",
"U  c #9D9D9D",
"Y  c gray62",
"T  c #9E9F9F",
"R  c #9F9F9F",
"E  c #95A2A2",
"W  c #96A2A2",
"Q  c #A0A0A0",
"!  c gray63",
"~  c #A3A0A0",
"^  c #A4A4A4",
"/  c #A4A5A5",
"(  c #A5A6A6",
")  c #A6A7A7",
"_  c #A7A7A7",
"`  c #ACA1A1",
"'  c #A0A9A9",
"]  c #A3ABAB",
"[  c gray66",
"{  c #AAAAAA",
"}  c #AAABAB",
"|  c gray67",
" . c #ABACAC",
".. c gray68",
"X. c #AEAEAE",
"o. c #AABDBD",
"O. c gray69",
"+. c #B1B1B1",
"@. c #B2B1B1",
"#. c #B2B2B2",
"$. c #B2B3B3",
"%. c gray70",
"&. c #B4B4B4",
"*. c #B6B5B5",
"=. c #B6B6B6",
"-. c #B7B7B7",
";. c #BEB5B5",
":. c #B0BCBC",
">. c #B1BCBC",
",. c #B1BDBD",
"<. c #B2BEBE",
"1. c gray72",
"2. c gray73",
"3. c #BABBBB",
"4. c #BBBBBB",
"5. c #BCBCBC",
"6. c gray74",
"7. c gray",
"8. c gray75",
"9. c #C4BABA",
"0. c #B5C1C1",
"q. c #B1C4C4",
"w. c #C0C0C0",
"e. c #C1C1C1",
"r. c gray76",
"t. c #C3C3C3",
"y. c gray77",
"u. c #C5C5C5",
"i. c #C9C4C4",
"p. c #CAC5C5",
"a. c #CBC6C6",
"s. c #CCC7C7",
"d. c #C8C8C8",
"f. c #C8C9C9",
"g. c #CAC9C9",
"h. c #CACACA",
"j. c #CBCBCB",
"k. c #CEC9C9",
"l. c #CCCBCB",
"z. c gray80",
"x. c #CDCDCD",
"c. c #CECECE",
"v. c gray81",
"b. c #D2CFCF",
"n. c #D0D0D0",
"m. c gray82",
"M. c #D2D2D2",
"N. c #D2D3D3",
"B. c LightGray",
"V. c gray83",
"C. c #D5D5D5",
"Z. c #D5D6D6",
"A. c #D7D7D7",
"S. c #DBD6D6",
"D. c #D8D8D8",
"F. c #D9D8D8",
"G. c gray85",
"H. c #DADADA",
"J. c gray86",
"K. c gainsboro",
"L. c #DDDDDD",
"P. c gray87",
"I. c #DFDFDF",
"U. c #E2DDDD",
"Y. c #E3DEDE",
"T. c #E4DFDF",
"R. c #D9EAEA",
"E. c #D8ECEC",
"W. c #DFF2F2",
"Q. c #DCFBFB",
"!. c #DFFCFC",
"~. c #DFFDFD",
"^. c #DDFFFF",
"/. c #DEFFFF",
"(. c #DFFFFF",
"). c gray88",
"_. c #E1E1E1",
"`. c #E2E2E2",
"'. c gray89",
"]. c #E4E4E4",
"[. c #E4E5E5",
"{. c gray90",
"}. c #E5E6E6",
"|. c #E6E6E6",
" X c #E7E7E7",
".X c gray91",
"XX c #E9E9E9",
"oX c #EAEAEA",
"OX c gray92",
"+X c #ECECEC",
"@X c #EEEFEF",
"#X c #E1F3F3",
"$X c #E2F4F4",
"%X c #E4F4F4",
"&X c #E6FBFB",
"*X c LightCyan",
"=X c #E1FFFF",
"-X c #E2FFFF",
";X c #E3FFFF",
":X c #E4FCFC",
">X c #E7FDFD",
",X c #E4FFFF",
"<X c #E5FFFF",
"1X c #E6FFFF",
"2X c #E9FFFF",
"3X c #EAFFFF",
"4X c #EBFFFF",
"5X c #ECFFFF",
"6X c #EDFFFF",
"7X c #EFFFFF",
"8X c gray95",
"9X c #F3F3F3",
"0X c #F6F2F2",
"qX c #F4F4F4",
"wX c gray96",
"eX c #F6F6F6",
"rX c gray97",
"tX c azure",
"yX c #F1FFFF",
"uX c #F2FFFF",
"iX c #F8F8F8",
"pX c #F9F9F9",
"aX c white",
/* pixels */
"*X*X*X,X*X*X*X*X*X*X*X*X*X*X*X*X*X*X*X*X*X*X*X*X*X*X*X,X*X*X",
"*X^.7X7X7X7X7X7X7X7X7X7X7X7X7X7X7X7X7X7X7X7X7X7X7X7XtXtX*X^.",
"*XtXo.2 j j j j j j j j j j j j j j j j j j j j l h t Z ,X2X",
",X2XW 9.k.s.s.a.s.s.s.s.a.a.a.a.a.a.k.a.s.s.s.s.s.r.9.r R.2X",
",XQ.0.0XpXrXpXrXrXrXrXrXrXpXaXaXrXrXrXrXrXrXrXrX0X+Xm.J R.2X",
",X*X>.T.].].).).).).).).).+Xy.j.+X].I.).).].).).K.j.! 0 W.2X",
",XQ.>.T.].).I.I.I.I.I.I.]...; 5 1..XI.I.I.I.I.D.c.&.b 1 #X2X",
",X:X>.T.].).I.D.D.D.D.).m.$ A.w.= I.D.D.D.A.D.A.t. .f 1 #X2X",
"*X:X>.T.].I.I.D.D.D.A.I.D.m m p R ).D.D.D.I.D.A.w.[ f 1 #X2X",
",X^.>.T.].).D.D.D.D.I.D.).D.[ ..I.I.D.D.D.D.D.m.y. .f 1 #X2X",
",X:X>.Y.].R.D.D.D.D.D.D.D..X1.w..XA.D.D.D.D.I.A.w...f 1 #X2X",
"*XQ.-.T.`.U.I.D.I.D.D.D.I.].v ! .XD.D.I.D.D.D.m.w...f 1 #X2X",
",XQ.>.T.].I.D.D.D.D.D.D.).8Xm ..rXI.A.D.D.D.I.m.w.[ v 1 #X2X",
",X:X>.T.].I.I.D.I.D.)..X)...; 0 1..X).D.I.D.D.m.y...f 1 #X2X",
"*XQ.>.T.].I.I.].]..X).1.5 0 y.1.& v c..X].].).m.y.[ f 1 #X2X",
",X:X>.T.].].m.! m J u 5 7.+X]..X].! = m J J 1.I.w. .f 1 #X2X",
",X*X>.T.`..Xc.* R +.m 5 +.].+X.XD.J u ( +.0 ! I.w...f 1 #X2X",
"*X:X>.T.]..Xc.5 D.8X.Xy.u ; 1.+.$ R D.+XrX[ R I.w. .v 1 #X2X",
",XQ.>.T.]..Xz.; c.I.D..X].=.; 0 y.+X).D.`.R R I.t. .f 1 #X2X",
",X:X>.Y.)..XA.; A.).D.D.I..XA.D..XD.D.D..XK J ].w.[ v 1 #X2X",
",XQ.>.`..XI.z.m.c.D.D.D.G.G.Y.I.D.D.D.G.I.A.D.j.w...f 1 #X2X",
",X:X>.Y.OXG.C P R D.I.D.D.D.G.K.K.D.D.D.K.8X=.3 w.+.f 1 #X2X",
",X^.>.Y..X`.J   ! ).D.D.D.D.D.D.D.D.K.I.! m 3 -.j.[ f 1 #X2X",
"*X:X-.U.oXV.W ) R c.m.z.z.c.c.c.c.c.c.V.[ ; 1.S.-./ f 5 #X2X",
",X^.o.U.K.a.7.7.=.=.+.+.+.+.@.@.+.+.+.=.4.@.4...) P u 1 #X2X",
",X:X-.S.r.( P m m m m m m m m m m m m v m J m m v p 0 ; #X2X",
",X,X] ` s * # O + + # # O # O # + + # O O O # O O # . X %X7X",
"*X2Xq.Z W D Z Z Z Z Z Z Z Z Z Z Z Z Z Z Z Z Z Z Z W h W &X,X",
"*X*X7X2X7X7XtXtXtXtXtXtXtXtXtXtXtXtXtXtXtXtXtXtXtXtXtXuX*X*X",
"*X*X*X,X*X*X,X*X,X*X,X*X,X,X,X*X,X*X,X*X,X,X,X*X,X*X,X*X*X*X"
};
