/* XPM */
static char *playScenarioNormal_xpm[] = {
/* columns rows colors chars-per-pixel */
"30 30 169 2 ",
"   c #010000",
".  c #0A0606",
"X  c #0F0D0D",
"o  c #100807",
"O  c #110C0B",
"+  c #190F0C",
"@  c #191613",
"#  c #1F1A16",
"$  c #1D1B18",
"%  c #24201C",
"&  c #2D2923",
"*  c #322A24",
"=  c #35312B",
"-  c #3B352D",
";  c #413A2F",
":  c #443C32",
">  c #483D33",
",  c #4A4236",
"<  c #42413A",
"1  c #4C4539",
"2  c #4D4A3C",
"3  c #514B3E",
"4  c #644328",
"5  c #6D543D",
"6  c #70573F",
"7  c #4E4940",
"8  c #5F5749",
"9  c #5D5C4E",
"0  c #615446",
"q  c #615548",
"w  c #685749",
"e  c #6E5E4D",
"r  c #615B4E",
"t  c #765C43",
"y  c #795E44",
"u  c #7B634A",
"i  c #756856",
"p  c #726C59",
"a  c #746D63",
"s  c #7D7265",
"d  c #80644A",
"f  c #8B6F54",
"g  c #95785C",
"h  c #817765",
"j  c #897661",
"k  c #827768",
"l  c #857A6B",
"z  c #8A7D6E",
"x  c #817A65",
"c  c #9D7E61",
"v  c #937F69",
"b  c #8A826C",
"n  c #9F8163",
"m  c #9C866D",
"M  c #95836C",
"N  c #8E8E76",
"B  c #938C77",
"V  c #998D77",
"C  c #928474",
"Z  c #A28264",
"A  c #AD8C6D",
"S  c #BB8960",
"D  c #A38B71",
"F  c #A89075",
"G  c #AC9479",
"H  c #B49A7E",
"J  c #BA9B7C",
"K  c #D3A178",
"L  c #7E8583",
"P  c #858B89",
"I  c #8C9089",
"U  c #8C9695",
"Y  c #8E9896",
"T  c #939A94",
"R  c #9A9A90",
"E  c #919C9B",
"W  c #A79682",
"Q  c #B79D80",
"!  c #B99F82",
"~  c #97A09C",
"^  c #9DA19B",
"/  c #ADA285",
"(  c #A6A08C",
")  c #ACA78A",
"_  c #BCA184",
"`  c #A5A398",
"'  c #B5AB95",
"]  c #BBB392",
"[  c #A2A8A1",
"{  c #B5BAAF",
"}  c #B4B5AB",
"|  c #AABCBC",
" . c #B4BAB1",
".. c #C1A587",
"X. c #C4A789",
"o. c #C5A989",
"O. c #CAAD8D",
"+. c #C3B393",
"@. c #CBB394",
"#. c #C2B897",
"$. c #C7B39D",
"%. c #CDB59B",
"&. c #D6B795",
"*. c #D5BA97",
"=. c #DBB996",
"-. c #D7BB9F",
";. c #DCBC9A",
":. c #E1B48C",
">. c #E8BE93",
",. c #E0BE9C",
"<. c #C6BCA5",
"1. c #D7BDA7",
"2. c #D8BFA6",
"3. c #D7BEA8",
"4. c #B8C0B7",
"5. c #E4C29F",
"6. c #F4CB9D",
"7. c #D4C1A0",
"8. c #DBC7A5",
"9. c #D8C1AB",
"0. c #D6CAA8",
"q. c #DDD1AC",
"w. c #E5C6A1",
"e. c #EAC6A2",
"r. c #EBC8A3",
"t. c #E1CBAA",
"y. c #F1CEA7",
"u. c #E4D2AC",
"i. c #EFD4AE",
"p. c #F5D2AB",
"a. c #FAD4AD",
"s. c #FED8AF",
"d. c #EFDFB6",
"f. c #F5D7B3",
"g. c #FAD7B1",
"h. c #F4D8B5",
"j. c #FCDAB4",
"k. c #FDDDBC",
"l. c #F5DABA",
"z. c #EEE0B8",
"x. c #FFE1B7",
"c. c #F1E5BD",
"v. c #FEE4BA",
"b. c #FFE9BD",
"n. c #B3C3C1",
"m. c #FBDEC2",
"M. c #ECE3C3",
"N. c #FEE2C4",
"B. c #FFECC2",
"V. c #FFEECC",
"C. c #FFF3C5",
"Z. c #FFF3CA",
"A. c #FFFACC",
"S. c #FFEED2",
"D. c #FFF1D4",
"F. c #FFFFD1",
"G. c #FFF5D9",
"H. c #FFFFDD",
"J. c #D6EEF3",
"K. c #DCF3F7",
"L. c #DFF5F8",
"P. c #DCFEFF",
"I. c #FFFFE5",
"U. c #FFFFEE",
"Y. c #E3F6FA",
"T. c #E3FFFF",
"R. c #EBFFFF",
"E. c #FFFFF1",
"W. c #F0FFFF",
/* pixels */
"T.T.T.T.T.T.T.T.T.T.T.T.T.T.T.T.T.T.T.T.T.T.T.T.T.T.T.T.P.T.",
"P.P.R.R.R.R.R.R.R.R.R.R.R.R.R.W.R.R.R.R.R.R.R.R.R.R.W.W.T.P.",
"T.R.| L Y Y U U U U U U U U U U U U U U U U U U U T P E Y.R.",
"T.T.[ %.9.9.9.9.9.9.9.9.9.3.2.2.9.9.9.9.9.9.9.2.-.=.K v J.R.",
"T.P. .D.G.G.D.S.D.D.D.S.S.G.E.U.D.D.D.D.D.D.S.Z.B.j.>.W J.R.",
"T.P. .l.N.m.m.m.m.k.m.m.N.D.( ' D.N.k.k.k.k.k.j.a.=.J C L.R.",
"T.P. .h.m.k.k.j.l.j.j.j.Z.r . . b D.j.l.j.j.j.a.5.O.A b L.R.",
"R.P. .f.m.k.j.g.g.g.a.C.-.  <.B   j.k.j.f.j.j.r.=...Z z L.T.",
"T.P. .f.k.j.g.g.g.a.a.j.z.* = % 1 b.j.a.a.a.p.r.&._ c l L.R.",
"T.P. .f.k.j.g.g.a.a.a.p.b.u.0 i x.x.a.a.a.a.a.r.&._ n l L.R.",
"R.P. .f.k.j.g.a.a.a.a.a.a.A.v G A.a.a.a.a.a.a.w.&._ n l L.R.",
"T.P. .h.k.j.g.g.g.a.a.g.j.C.$ , A.a.a.a.a.a.p.r.&._ n l L.R.",
"T.P. .g.k.j.g.a.a.a.a.p.b.H.& q I.j.a.a.a.a.p.e.&._ n l L.T.",
"T.P. .f.k.j.j.g.g.a.x.F.z.p     B A.A.a.a.j.a.w.&._ n l L.R.",
"T.P. .f.k.g.j.C.B.Z.b.b O + / b   & ] Z.C.B.x.e.&._ n l L.R.",
"T.P. .f.k.B.8.3 ; , @   V A.Z.A.M.<   - , < M j.&._ n l L.R.",
"T.P. .f.k.Z.#.  7 a :   h c.F.F.0.-   9 a X > v.&._ Z l L.R.",
"T.P. .f.k.V.+.o q.H.Z./ #   N p   2 q.F.I.q > v.&._ n l Y.T.",
"R.P. .f.k.Z.+.  +.b.a.A.B.l   X ) A.B.a.C., ; x.&._ n l L.T.",
"T.P. .g.j.Z.0.+ 0.b.a.a.x.F.w.i.F.g.a.a.C., > A.=.! n l L.R.",
"T.P. .f.k.h.@.$.@.f.a.a.a.a.b.v.a.a.g.a.j.u.q.+.&._ Z l L.R.",
"T.P. .f.V.t.* < = i.x.a.a.a.a.a.p.a.a.a.j.H.h   X.&.c l L.R.",
"T.P. .a.B.z.&   , v.a.y.r.y.y.y.y.y.a.a.> -   M e.! g l L.T.",
"T.P.{ p.B.*.> q , ;.r.;.,.5.,.,.5.,.5.a.e   D x.o.G g h Y.R.",
"T.P.{ 6.e.;.;.5.&.o.X.o.o.o.o.o.X.o...O.;.H ;.J G D f s Y.R.",
"T.T.} :.O.! H F F D D D D D D D D D D m D J D M M j u s Y.R.",
"T.T.` S Z f d y y y y y y y y y y y u y y y y 6 6 5 4 w Y.R.",
"T.R.n.R ` T T T T T T T T T T T T T T T T T T T T T I ~ T.T.",
"T.P.R.T.R.R.R.W.W.W.R.W.W.W.R.W.W.W.R.W.W.W.R.W.R.W.W.W.T.P.",
"T.P.T.T.T.T.T.T.T.T.T.T.T.T.T.T.T.T.T.T.T.T.T.T.T.T.T.T.T.T."
};
