/* XPM */
static char *playScenarioPressed_xpm[] = {
/* columns rows colors chars-per-pixel */
"30 30 150 2 ",
"   c #010000",
".  c #09090A",
"X  c #100B0B",
"o  c #15110F",
"O  c #151413",
"+  c #1A1513",
"@  c #191A17",
"#  c #1B1B19",
"$  c #201C16",
"%  c #201D1A",
"&  c #221F20",
"*  c #252622",
"=  c #2B2621",
"-  c #2F2A25",
";  c #312C27",
":  c #33312C",
">  c #38352E",
",  c #373530",
"<  c #393731",
"1  c #3C3931",
"2  c #452C1D",
"3  c #553D2C",
"4  c #433C34",
"5  c #45433A",
"6  c #49423A",
"7  c #5D4C3D",
"8  c #634631",
"9  c #534E44",
"0  c #595347",
"q  c #555048",
"w  c #5C534C",
"e  c #5E5C4F",
"r  c #6C5745",
"t  c #6D5847",
"y  c #61574B",
"u  c #6F5A48",
"i  c #6C6256",
"p  c #686559",
"a  c #6E685B",
"s  c #746A5E",
"d  c #7B7363",
"f  c #767E7E",
"g  c #876D5C",
"h  c #86705C",
"j  c #837364",
"k  c #897565",
"l  c #877867",
"z  c #8A7967",
"x  c #837B6D",
"c  c #8E7E6C",
"v  c #917F6F",
"b  c #817C73",
"n  c #917F70",
"m  c #8F806D",
"M  c #91816F",
"N  c #838076",
"B  c #948272",
"V  c #9A8775",
"C  c #9A8A76",
"Z  c #928B7A",
"A  c #9C8C7A",
"S  c #9F917E",
"D  c #A6937E",
"F  c #7B8383",
"G  c #818683",
"H  c #8C8681",
"J  c #858A84",
"K  c #848F8F",
"L  c #84908F",
"P  c #8B908B",
"I  c #9E9A83",
"U  c #9C938B",
"Y  c #859190",
"T  c #8C9897",
"R  c #909894",
"E  c #A99681",
"W  c #A79887",
"Q  c #AD9A85",
"!  c #A39A8C",
"~  c #B29E87",
"^  c #B49E88",
"/  c #9AA29F",
"(  c #AFA08F",
")  c #B3A28F",
"_  c #BBA58E",
"`  c #ADA491",
"'  c #AFAB9F",
"]  c #B4A794",
"[  c #BDA790",
"{  c #BDA992",
"}  c #B7A999",
"|  c #BCAC99",
" . c #9BA4A1",
".. c #BDB5A0",
"X. c #BBB8A3",
"o. c #AABDBC",
"O. c #C3AE97",
"+. c #C6B399",
"@. c #CDB59C",
"#. c #D1B99F",
"$. c #C6B4A0",
"%. c #CDB9A0",
"&. c #D3BCA2",
"*. c #D9BEA4",
"=. c #CDC2AE",
"-. c #DBC2A7",
";. c #D6C1AD",
":. c #DCC4AC",
">. c #D7C4B0",
",. c #D8C5B0",
"<. c #DFC9B2",
"1. c #E6CBAF",
"2. c #E5CCB2",
"3. c #E9CEB3",
"4. c #E3CFB9",
"5. c #EFD3B6",
"6. c #E6D1BA",
"7. c #E3DCBE",
"8. c #F0D5B7",
"9. c #F1D6BB",
"0. c #F5DABC",
"q. c #FBDDBE",
"w. c #FFE1BF",
"e. c #DFD8C0",
"r. c #DCD5C9",
"t. c #E9D7C0",
"y. c #E2DEC0",
"u. c #EFDBC4",
"i. c #F3DBC1",
"p. c #FCDFC1",
"a. c #FDE2C3",
"s. c #F4E2C9",
"d. c #FCE4C8",
"f. c #F2EACD",
"g. c #FEEACC",
"h. c #FCEFD3",
"j. c #FFF4D3",
"k. c #FFF8D5",
"l. c #FFF6DA",
"z. c #FFFDDD",
"x. c #DDFFFF",
"c. c #FFFEE4",
"v. c #FFFFEC",
"b. c #E0F4F6",
"n. c #E2F7F9",
"m. c #E2FFFF",
"M. c #EBFFFF",
"N. c #FFFFF1",
"B. c #F4FFFF",
"V. c #FDFFFD",
/* pixels */
"m.m.x.m.m.m.m.m.m.m.m.m.m.m.m.m.m.m.m.m.m.m.m.m.m.m.m.m.m.m.",
"x.x.M.V.V.B.B.B.B.V.V.B.B.B.B.V.V.B.B.B.B.V.V.B.B.B.V.B.x.m.",
"m.B.o.f K K K K K K K L K K K K L K K K K K K K L Y F T M.m.",
"m.B.G 2 7 7 7 7 7 7 7 7 7 7 7 7 7 7 7 7 7 7 7 7 7 7 3 w n.M.",
"m.B.R t j l c m c m c M m c c c v c c M m m m c z z g x n.M.",
"x.B.R r z C E Q Q Q Q Q E ^ &.@.~ D Q Q Q Q Q E E A v b b.m.",
"m.M.R t B ~ O.@.@.@.@.@.&.1.i j 5.#.@.@.@.@.#.&.+.] V b b.M.",
"m.B.R u C { *.1.3.1.1.1.a.y O O j d.1.1.1.3.5.9.:.| V b b.M.",
"m.B.R u C [ -.8.0.0.9.a.d.  S s O k.0.0.0.q.a.0.<.O.V b b.m.",
"m.B.T u C O.-.8.q.q.q.q.k.S = - { k.q.q.q.w.a.i.<.| V b b.M.",
"m.M.R u C { -.8.q.w.q.q.a.z.S ) c.0.p.q.q.q.a.0.<.| V x b.M.",
"m.B.R t C O.-.8.q.q.q.a.w.z.6 i z.q.q.p.p.a.a.u.4.| B x x.M.",
"m.M.R t C [ -.8.q.q.p.0.d.V.4 p V.p.q.q.p.p.p.i.<.| V b b.M.",
"m.B.R t C [ -.8.a.a.a.z.z.!   . =.c.j.q.d.p.p.i.<.| V b b.M.",
"m.B.R t C O.*.0.j.k.l...,   Z s   e y.c.j.j.p.u.2.| V b b.M.",
"m.B.R u C _ 9.{ 5 4 :   w c.c.N.r.X   5 1 i h.p.<.| V b b.m.",
"m.B.R t C _ a.c   Z N # & ' c.c.H + 9 U q o f.g.<.| B b n.M.",
"x.B.R u C [ w.z , v.v.j.d   < = $ ( z.V...- f.g.<.| V b b.M.",
"m.M.R t C _ d.z @ g.w.g.c.7.1 0 k.z.q.k.! X f.g.2.| V b b.M.",
"m.B.R t C _ q.@.A k.q.0.0.j.z.z.g.0.q.g.+.d c.g.>.O.V b b.M.",
"m.B.R u C #.) a x B j.q.p.q.p.p.q.q.q.d.v.l.4 O.u.| V b x.M.",
"m.B.T u C @.#.    Z c.p.p.a.p.p.a.q.j.| x - @ 7.i.| V b b.M.",
"m.M.R u B -._ > * b c.p.p.d.p.d.a.p.l.X.  * v.j.>.O.V b b.n.",
"m.B.T t B { -.0.u.4.i.u.i.i.i.i.i.i.i.h.;.t.h.4.*.| B x b.M.",
"m.B.T r M ^ &.4.6.4.;.>.,.,.,.,.>.>.>.*.i.6.*.*.$.( n b b.M.",
"m.B.R r M W ] } } } } } } } } } } } } } } } | ' ` ! n b b.M.",
"m.V.J 8 k n M B B B B B B B B B B B B B V B B n n n k s b.M.",
"m.M.o.P  . ./ / / /  . ./ / / /  . . . . .R  ./  . .R  .n.m.",
"x.x.M.B.M.M.M.B.M.M.M.M.M.B.M.M.M.M.M.M.M.M.M.M.B.B.M.B.m.x.",
"x.m.m.m.m.m.m.m.m.m.m.m.m.m.m.m.m.m.m.m.m.m.m.M.m.m.m.m.m.x."
};
