/* XPM */
static char *playScenarioMouseOver_xpm[] = {
/* columns rows colors chars-per-pixel */
"30 30 175 2 ",
"   c #010000",
".  c #0A0606",
"X  c #0F0D0D",
"o  c #100807",
"O  c #110C0B",
"+  c #190F0C",
"@  c #1C1916",
"#  c #24201C",
"$  c #2D2923",
"%  c #322A24",
"&  c #35312B",
"*  c #3B352D",
"=  c #413A2F",
"-  c #443C32",
";  c #483D33",
":  c #4A4236",
">  c #42413A",
",  c #4C4539",
"<  c #4D4A3C",
"1  c #514B3E",
"2  c #4E4940",
"3  c #5F5749",
"4  c #5D5C4E",
"5  c #615446",
"6  c #615548",
"7  c #685D4E",
"8  c #715B53",
"9  c #6F6F5A",
"0  c #756856",
"q  c #726C59",
"w  c #75755E",
"e  c #577E60",
"r  c #746D63",
"t  c #7B7962",
"y  c #8D4B4B",
"u  c #81584F",
"i  c #8A5D55",
"p  c #8C6357",
"a  c #8F6158",
"s  c #97685E",
"d  c #916359",
"f  c #87765F",
"g  c #817765",
"h  c #867F69",
"j  c #817A65",
"k  c #937F68",
"l  c #997261",
"z  c #A47768",
"x  c #578C66",
"c  c #5B8963",
"v  c #5D9064",
"b  c #549266",
"n  c #608862",
"m  c #67986B",
"M  c #629368",
"N  c #72936C",
"B  c #7D9C74",
"V  c #54AD70",
"C  c #5DB474",
"Z  c #78A07E",
"A  c #7FAD7B",
"S  c #7FB07E",
"D  c #39E377",
"F  c #3BE57B",
"G  c #3DEA7B",
"H  c #8A826C",
"J  c #87846B",
"K  c #9B866D",
"L  c #95836C",
"P  c #8E8E76",
"I  c #938C77",
"U  c #998D77",
"Y  c #9D8173",
"T  c #9C9578",
"R  c #AC816F",
"E  c #A0896F",
"W  c #AF8370",
"Q  c #A28B71",
"!  c #B88976",
"~  c #AA9176",
"^  c #AD957A",
"/  c #B59B7E",
"(  c #B89D7F",
")  c #7CB182",
"_  c #3EEA80",
"`  c #3EF083",
"'  c #48E782",
"]  c #4AE984",
"[  c #45E581",
"{  c #57E585",
"}  c #58E786",
"|  c #59E987",
" . c #57EE89",
".. c #5BE988",
"X. c #55EC87",
"o. c #4BF385",
"O. c #4AF689",
"+. c #4FF98C",
"@. c #41F285",
"#. c #52F187",
"$. c #56F289",
"%. c #52F98C",
"&. c #B79E80",
"*. c #B99E82",
"=. c #ADA285",
"-. c #A9A48B",
";. c #BCA183",
":. c #B5AB95",
">. c #BBB392",
",. c #CC9C86",
"<. c #EC938B",
"1. c #C4A789",
"2. c #C5A989",
"3. c #C9AC8D",
"4. c #C3B393",
"5. c #CBB394",
"6. c #C2B897",
"7. c #C7B39D",
"8. c #D6B795",
"9. c #DAB997",
"0. c #DCBC9A",
"q. c #D5BA97",
"w. c #E0BE9C",
"e. c #F7A99B",
"r. c #C6BCA5",
"t. c #F4BAA4",
"y. c #E4C29F",
"u. c #EAC49F",
"i. c #D7C8A6",
"p. c #DDD1AC",
"a. c #E5C6A1",
"s. c #EAC7A3",
"d. c #EBC8A3",
"f. c #E1CBAA",
"g. c #F1CEA7",
"h. c #F5C1A1",
"j. c #E4D2AC",
"k. c #EFD4AE",
"l. c #F5D2AB",
"z. c #FAD4AD",
"x. c #FED8AF",
"c. c #EEC0B3",
"v. c #EEC5BD",
"b. c #FFCFB1",
"n. c #EFDFB6",
"m. c #FAD7B1",
"M. c #FCDAB4",
"N. c #FFD7BC",
"B. c #FDDDBC",
"V. c #F2D8B5",
"C. c #EEE0B8",
"Z. c #FFE1B7",
"A. c #F1E5BD",
"S. c #FEE4BA",
"D. c #FFE9BC",
"F. c #F4BEC4",
"G. c #F0C8C1",
"H. c #FFDBC5",
"J. c #FFDECB",
"K. c #ECE3C3",
"L. c #FEE3C3",
"P. c #FFEDC2",
"I. c #FFEECB",
"U. c #FFF3C5",
"Y. c #FFF3CA",
"T. c #FFFACC",
"R. c #FFEED1",
"E. c #FFF1D4",
"W. c #FFFFD1",
"Q. c #FFF4D8",
"!. c #FFFFDD",
"~. c #FFF2E1",
"^. c #FFFFE5",
"/. c #FFFFEE",
"(. c #FFFFF1",
/* pixels */
"{ { { | | | { | { | { | { | { | { { { } } } { { | { | | { { ",
"{ { $.o.o.@.o.o.o.o.o.o.o.o.o.o.o.@.o.o.o.o.o.o.o.o.O.%.{ { ",
"| $.V e x x x x x x x x x x x x x x x x x x x x x x c x | | ",
"| G Z F.G.v.v.v.v.v.v.v.v.v.v.v.v.G.v.G.G.v.v.v.c.t.e.Y F $.",
"| D ) ~.Q.Q.E.E.E.R.Q.R.I.Q.(./.E.Y.Q.R.E.E.E.I.P.M.t.~ D $.",
"..F ) J.L.H.H.B.H.B.B.B.L.E.-.:.Q.L.B.B.B.B.B.x.l.q.,.H ' | ",
"..F ) J.L.B.B.B.m.V.M.N.I.4   . H E.B.m.M.B.B.z.u.3.! g '  .",
"..F ) H.B.B.M.m.m.M.m.P.i.  r.I   m.S.m.m.m.x.d.9.;.! N ' $.",
"..F ) H.B.V.m.m.m.z.z.M.C.$ & # , D.m.x.z.x.z.s.8.;.W t ]  .",
"..D ) H.B.M.m.m.z.z.z.z.D.j.5 0 Z.Z.z.z.z.z.l.d.8.;.W t ]  .",
"..F ) H.B.M.M.z.m.z.z.z.z.T.L ^ T.l.z.z.z.m.l.a.8.;.W t '  .",
"..F ) J.B.M.m.z.z.z.m.z.m.U.@ : T.x.z.z.z.z.l.d.8.;.W t ]  .",
"..F ) H.B.M.M.x.m.l.l.l.D.!.$ 6 ^.B.l.z.x.x.l.d.8.;.W t '  .",
"..F ) H.B.M.m.m.m.x.Z.W.C.q     I T.U.x.x.m.l.a.8.;.W t ]  .",
"..F ) H.B.m.M.P.P.T.S.J o + =.H   $ >.T.U.P.Z.a.8.;.W t ] | ",
"..D ) J.N.P.i.1 = : @   U T.T.T.K.>   * : - L m.8.;.W t ]  .",
"..F ) H.N.Y.6.  < r -   g A.T.W.i.*   4 r X - D.8.;.W t ]  .",
"..F ) H.B.U.6.o p.^.T.=.@   P w   2 p.T.^.6 ; Z.8.*.W t ]  .",
"..G ) H.N.Y.4.  4.D.z.T.P.J   O -.T.U.z.U.: = Z.8.;.W t ]  .",
"..F ) H.N.Y.i.+ i.D.z.z.B.T.a.k.W.m.z.x.U.: ; T.9.;.W t ]  .",
"..F ) H.Z.V.5.7.4.M.z.z.z.z.D.S.l.z.z.z.B.j.p.3.8.;.R t ] ..",
"..D ) H.Y.p.% - & k.Z.z.z.z.z.z.z.z.z.x.M.!.j   1.8.R t ] $.",
"..F ) H.I.C.$   , Z.z.g.d.g.g.g.g.g.x.z.- *   L a.( R t ]  .",
"..F ) N.D.q.; 6 : 0.d.w.0.y.w.w.w.0.y.z.7   Q Z.1.^ z t ]  .",
"..G ) b.u.0.0.w.3.3.2.2.2.2.2.2.2.2.1.3.0./ 0.;.~ E l w ] $.",
"{ [ A t.3./ / ~ ^ E Q Q Q Q Q Q Q Q Q E Q ( E K k f p 9 ]  .",
"| ` B <.! z s d a d d a i d a a a a a a i a a i i u y 8 o. .",
"{ #.C N m M M v v v v n v v v v v v v v v v M v v v c v X.| ",
"{ { $.@.o.O.+.+.+.+.+.+.+.+.+.%.%.+.+.+.+.+.+.+.+.+.+.%.{ { ",
"{ { { ..| { { | | { | { | { | { | { | { | { | { { | { | { { "
};
