/* XPM */
static char *recInfoMouseOver_xpm[] = {
/* columns rows colors chars-per-pixel */
"30 30 137 2 ",
"   c #000000",
".  c #0A0607",
"X  c #1F1F1A",
"o  c #221C19",
"O  c #20201B",
"+  c #2F2C25",
"@  c #302E27",
"#  c #524A3F",
"$  c #615647",
"%  c #605648",
"&  c #645C4D",
"*  c #715B53",
"=  c #6F6F5A",
"-  c #756D5A",
";  c #75755E",
":  c #577E60",
">  c #7B7962",
",  c #8D4B4B",
"<  c #81584F",
"1  c #875B53",
"2  c #8C5F56",
"3  c #8B6657",
"4  c #8F6158",
"5  c #916459",
"6  c #97695E",
"7  c #87765F",
"8  c #847762",
"9  c #997261",
"0  c #947F67",
"q  c #A37366",
"w  c #A47A69",
"e  c #598362",
"r  c #578C66",
"t  c #5C8F64",
"y  c #549266",
"u  c #5D9064",
"i  c #608862",
"p  c #629368",
"a  c #67986B",
"s  c #72936C",
"d  c #7D9C74",
"f  c #54AD70",
"g  c #5DB474",
"h  c #78A07E",
"j  c #7FAD7B",
"k  c #7FB07E",
"l  c #39E377",
"z  c #3BE57B",
"x  c #3DEA7B",
"c  c #87846B",
"v  c #9B866E",
"b  c #9D8173",
"n  c #998971",
"m  c #9D9579",
"M  c #AC816E",
"N  c #AF8370",
"B  c #A28B71",
"V  c #B28673",
"C  c #B98676",
"Z  c #BC8E7A",
"A  c #AB9277",
"S  c #AD9579",
"D  c #A59B7F",
"F  c #B69D7F",
"G  c #7CB182",
"H  c #3EEA80",
"J  c #3EF083",
"K  c #45E581",
"L  c #48E782",
"P  c #4AE984",
"I  c #57E585",
"U  c #58E786",
"Y  c #55EC87",
"T  c #59E987",
"R  c #57EE89",
"E  c #5BE988",
"W  c #41F285",
"Q  c #4BF385",
"!  c #4AF689",
"~  c #4FF98C",
"^  c #52F187",
"/  c #56F289",
"(  c #52F98C",
")  c #A99E82",
"_  c #BA9F82",
"`  c #ADA184",
"'  c #B0A386",
"]  c #BBA183",
"[  c #CC9C86",
"{  c #EC938B",
"}  c #C2A687",
"|  c #C2A688",
" . c #C5A989",
".. c #CBAE8E",
"X. c #C7B494",
"o. c #CFB290",
"O. c #CCB897",
"+. c #CCBA9A",
"@. c #D6B695",
"#. c #DABA97",
"$. c #DCBC9A",
"%. c #F7A99B",
"&. c #E0BE9C",
"*. c #C5BAA1",
"=. c #F4BAA4",
"-. c #E2C09D",
";. c #E7C4A0",
":. c #EAC7A3",
">. c #ECCAA4",
",. c #F5C1A1",
"<. c #F1CEA7",
"1. c #F3CDA8",
"2. c #F6D1AB",
"3. c #FAD4AD",
"4. c #FFD8AF",
"5. c #EEC0B3",
"6. c #EEC5BE",
"7. c #FFCFB1",
"8. c #FBD7B2",
"9. c #FBDAB5",
"0. c #FDDDBC",
"q. c #FFE0B7",
"w. c #FFE8BD",
"e. c #F4BEC4",
"r. c #F0C8C1",
"t. c #FFDBC6",
"y. c #FFDECB",
"u. c #FFE2C3",
"i. c #FFEDC2",
"p. c #FFEDCC",
"a. c #FFF1C5",
"s. c #FFF6C9",
"d. c #FFFACC",
"f. c #FFF0D4",
"g. c #FFFFD3",
"h. c #FFF4D8",
"j. c #FFF2E1",
/* pixels */
"I I I T I T I T I T I T I I T I I I U U U U I I I U U U I I ",
"I I / Q Q W Q Q Q Q Q Q Q Q Q Q W W Q Q Q Q Q Q Q Q ! ( I I ",
"T / f : r r r y r r r r r r r r r r r y t r r r r y e y T T ",
"T x h e.r.6.6.6.6.6.6.6.6.6.6.6.6.6.6.6.r.6.6.6.5.=.%.b K / ",
"T l G j.h.h.f.f.f.f.f.f.f.f.f.f.f.f.f.f.f.f.f.p.i.9.,.D l U ",
"E z G y.u.t.t.t.0.u.0.t.0.t.0.0.t.t.0.0.0.0.0.9.3.#.} c K R ",
"E z G y.u.0.0.9.9.9.9.9.9.9.9.9.9.9.9.9.9.9.9.3.-...Z 8 L R ",
"E z G t.q.0.9.8.9.2.8.8.8.8.8.9.8.8.8.8.8.9.4.>.$.} V > L R ",
"E z G t.0.9.8.3.2.2.8.3.3.3.3.3.3.3.8.3.3.3.2.>.#.] w > P R ",
"E z G t.0.9.8.8.8.8.2.2.3.8.8.3.3.3.3.3.3.3.2.:.@.] V > P R ",
"E z G t.0.9.8.3.8.i.d.a.4.2.3.3.3.4.a.d.i.4.1.>.#._ N > L R ",
"T z G t.0.9.8.9.s.X.m X.a.q.3.3.q.a.X.m O.a.8.;.@._ N > P R ",
"E z G t.0.9.9.s.-       & a.9.q.a.&       - a.<.@.] V > P R ",
"E z G t.0.8.d.n   # *.$   8 a.a.8   $ *.#   v w.@._ N > P R ",
"T z G t.9.0.i.o X s.g.g.@ . w.w.. @ g.g.s.o o 8.#._ N > P R ",
"E z G t.0.9.i.o X s.g.g.@ O g.g.o + g.g.s.O o 9.$._ N > P R ",
"E z G t.0.8.d.n   # *.&   % +.+.%   % *.#   v w.@.] N > L R ",
"E z G t.0.9.9.s.-                         - a.1.@.] N > P R ",
"E z G t.0.9.8.9.a.+.D ` ` ) ) ) ` ` ' D O.a.8.;.@.] M > L R ",
"E z G t.0.9.9.3.4.w.d.d.d.s.s.s.s.d.s.d.i.4.1.>.@.] N > P R ",
"E z G t.0.9.9.8.3.3.3.3.3.3.3.3.3.3.3.3.3.3.2.>.@.] V > P R ",
"E z G t.0.8.8.3.3.3.2.3.3.3.3.2.3.3.3.2.3.3.2.:.@.] N > P R ",
"E z G t.9.8.3.1.<.1.<.<.<.<.1.1.<.<.2.<.1.1.>.-.o.F w > P R ",
"E l G 0.4.<.:.&.&.-.$.-.-.$.&.$.-.$.$.-.$.$.#.@. .S w > P R ",
"T z ) 2.:.@.o. . . . . . . . . . . . . . . .} F S v 9 ; P / ",
"E H k ;..._ A B B B B B B B B B B B B B B B B v 0 7 3 - Y / ",
"R H d { C q 6 4 4 4 4 4 4 4 4 4 4 4 4 4 4 4 4 4 1 < , * P / ",
"U R g a a p u u u u u u t u u u u u u u u u u u u u i y Y Y ",
"U I Y J ! ! ~ ~ ~ ~ ~ ~ ~ ~ ~ ~ ~ ~ ~ ~ ~ ~ ~ ~ ~ ( ~ ( I I ",
"I I U E T U U U U U U U U U U U U I U U U U U U U U T T I I "
};
