/* XPM */
static char *recInfoPressed_xpm[] = {
/* columns rows colors chars-per-pixel */
"30 30 117 2 ",
"   c #010101",
".  c #0B0909",
"X  c #191614",
"o  c #452C1D",
"O  c #553D2C",
"+  c #443E37",
"@  c #444037",
"#  c #4C463E",
"$  c #5D4C3D",
"%  c #634631",
"&  c #5A544A",
"*  c #59584B",
"=  c #6C5745",
"-  c #6D5847",
";  c #6F5A48",
":  c #6C665B",
">  c #75695F",
",  c #6F6C68",
"<  c #767E7E",
"1  c #876D5C",
"2  c #86705C",
"3  c #827363",
"4  c #897565",
"5  c #877867",
"6  c #847E6D",
"7  c #8E7E6C",
"8  c #917F6F",
"9  c #817C73",
"0  c #917F70",
"q  c #8F806D",
"w  c #91806F",
"e  c #8B8170",
"r  c #948272",
"t  c #9A8775",
"y  c #9A8A76",
"u  c #91897A",
"i  c #9C8C7A",
"p  c #A6937E",
"a  c #7B8383",
"s  c #818683",
"d  c #858A84",
"f  c #848F8F",
"g  c #84908F",
"h  c #8B908B",
"j  c #859190",
"k  c #8C9897",
"l  c #909894",
"z  c #A89580",
"x  c #A69887",
"c  c #AD9A85",
"v  c #A49989",
"b  c #B19D87",
"n  c #B49F89",
"m  c #9AA29F",
"M  c #A7A28C",
"N  c #AAA38E",
"B  c #B3A28F",
"V  c #BDA68E",
"C  c #AFA192",
"Z  c #AFA992",
"A  c #B5A797",
"S  c #BDA790",
"D  c #BEA992",
"F  c #B7A999",
"G  c #BDAC99",
"H  c #B8B39E",
"J  c #9BA4A1",
"K  c #AABDBC",
"L  c #C5AF96",
"P  c #C6AF99",
"I  c #CEB59C",
"U  c #D0B99F",
"Y  c #C6B4A0",
"T  c #CDB9A4",
"R  c #C4B9A8",
"E  c #D4BCA3",
"W  c #D9BEA4",
"Q  c #CFC5AB",
"!  c #DCC2A7",
"~  c #D3C2AC",
"^  c #DDC4AA",
"/  c #D9C5B0",
"(  c #DFC9B2",
")  c #D5D1B5",
"_  c #E2C7AB",
"`  c #E7CCAF",
"'  c #E5CBB1",
"]  c #ECCFB2",
"[  c #E7D1B5",
"{  c #EFD4B6",
"}  c #EAD3BD",
"|  c #EFDDBE",
" . c #F0D4B6",
".. c #F2D6BC",
"X. c #F5DABC",
"o. c #FBDCBD",
"O. c #F2DAC1",
"+. c #FCDEC0",
"@. c #FCE1C4",
"#. c #F5E7C8",
"$. c #FDE6CA",
"%. c #F2EBCA",
"&. c #FEEDCC",
"*. c #FFF1CF",
"=. c #FEF2D4",
"-. c #FFF9D6",
";. c #FFFEDC",
":. c #DDFFFF",
">. c #FFFFE2",
",. c #FFFFEB",
"<. c #E0F4F6",
"1. c #E2F7F9",
"2. c #E2FFFF",
"3. c #EBFFFF",
"4. c #FFFFF5",
"5. c #F4FFFF",
"6. c #FDFFFC",
/* pixels */
"2.2.:.2.2.2.2.2.2.2.2.2.2.2.2.2.2.2.2.2.2.2.2.2.2.2.2.2.:.2.",
":.:.3.6.5.5.6.5.6.5.5.5.6.5.6.5.5.6.5.5.5.6.6.5.5.5.6.5.2.:.",
"2.5.K < g f f f f f f j f f f f g f f f f f f f f h a k 3.2.",
"2.5.s o $ $ $ $ $ $ $ $ $ $ $ $ $ $ $ $ $ $ $ $ $ & O & 1.3.",
"2.5.l - 3 5 7 q q 7 q w q 7 q 7 w 8 7 q q q 7 7 5 5 1 9 1.3.",
"2.3.l = 7 y z c c c c c c c c c c b c c c c c c p i 8 9 <.3.",
"2.5.k - w b L I I I I I I I I I I I I I I I U U I A r 9 <.3.",
"2.5.l ; y V W ` ] ` ` ` ` ] ' ' ` ` ` ` ` ' { ..^ G t 9 <.3.",
":.5.l ; y D ! { X.X.X.X.X.X.X.X.X.X.o.X.X.o.@.+.' G t 9 <.2.",
"2.5.l ; y S !  .o.o.o.o.+.o.+.+.@.o.o.o.o.+.@.X.( G t 9 <.3.",
"2.5.l ; y D ! { o.@.*.&.+.o.+.+.o.+.&.*.@.o.@.O.( F t 9 <.3.",
"2.3.l ; y D ! { &.-.[ X.;.@.o.o.@.;.X.[ ;.&.o.X.' G t 9 <.3.",
"2.5.k - y L E @.%.*     e ;.@.@.;.6     * %.=.O.( G t 9 <.3.",
"2.5.l ; y S _ -.+   , &   q ;.;.6   & ,   + >.+.( F t 9 <.3.",
"2.5.l - y S o.I   u 6.,.#   *.%.  & ,.6.u   T -.' G t 9 <.3.",
"2.5.l ; y V o.V   H 6.4.:   >.>.  : 4.6.H   P -.( G t 9 <.3.",
"2.3.l - y V ` #.X . R v   + ) ) +   v R . X =.#.( F t 9 <.3.",
"2.5.l ; y L W *.~ X       .     .       X Q >...' G t 9 :.3.",
"2.3.l ; y S !  .-.| C v Z N M M N Z Z N O.-.+.O.( G t 9 <.3.",
"2.5.l ; y S ! { o.&.>.>.;.;.;.;.;.;.;.;.&.o.+.O.( G t 9 <.1.",
"2.5.l ; y D !  .+.+.O.+.o.o.o.+.o.o.o.o.o.o.@.O.( G t 9 :.3.",
"2.5.k ; y S ! X.+.+.+.+.+.+.+.+.o.+.+.+.@.@.@.O.( G t 9 <.3.",
"2.3.l ; y S _ +.+.#.+.+.+.$.+.+.@.+.$.@.@.$.$.O.' G t 6 <.1.",
"2.5.k - t S _ X.O.O.O.O.O.O.O.O.O.O.O.O.O.O.O.} W A t 9 <.3.",
"2.5.k = 8 n T / ^ / / / / / / / / / / / / / / W Y C r 9 <.3.",
"2.5.l - 8 c A F F F F F F F F F F F F F F F F A C v r 9 <.3.",
"2.5.d % 4 8 r r 0 r r r r r r r r 0 r r r r r 0 0 0 1 > <.3.",
"2.3.K h J m m m J J J J m m m m J m m J m m J m J J l J 2.2.",
"2.:.3.5.3.3.3.3.3.3.3.3.3.3.5.3.3.3.3.3.3.3.5.3.3.5.3.5.2.:.",
"2.2.2.2.2.2.2.2.2.2.2.2.2.2.2.2.2.2.2.2.2.2.2.2.2.2.2.2.2.:."
};
