/* XPM */
static char *recInfoDisabled_xpm[] = {
/* columns rows colors chars-per-pixel */
"30 30 179 2 ",
"   c #6A6262",
".  c #686565",
"X  c #706A6A",
"o  c #706B6B",
"O  c #706C6C",
"+  c #716D6D",
"@  c #726E6E",
"#  c #717171",
"$  c #727272",
"%  c gray45",
"&  c #767676",
"*  c #797575",
"=  c #797979",
"-  c #7B7B7B",
";  c #7C7C7C",
":  c #7E7E7E",
">  c #7E7F7F",
",  c gray50",
"<  c #7F8181",
"1  c #7D8585",
"2  c #808181",
"3  c #808282",
"4  c #868383",
"5  c #848585",
"6  c #868686",
"7  c gray53",
"8  c #898686",
"9  c #838C8C",
"0  c #898989",
"q  c #8C8989",
"w  c #8E8F8F",
"e  c #918C8C",
"r  c #908D8D",
"t  c #918D8D",
"y  c #918E8E",
"u  c #918F8F",
"i  c #8B9494",
"p  c #8B9696",
"a  c #8B9797",
"s  c #8B9898",
"d  c #909090",
"f  c gray57",
"g  c #929292",
"h  c #969393",
"j  c gray58",
"k  c #959595",
"l  c gray59",
"z  c #979797",
"x  c #979999",
"c  c #919D9D",
"v  c #929C9C",
"b  c #919E9E",
"n  c #929E9E",
"m  c #939F9F",
"M  c #989999",
"N  c #9A9C9C",
"B  c #95A2A2",
"V  c #96A2A2",
"C  c #A3A0A0",
"Z  c gray64",
"A  c #A5A6A6",
"S  c gray65",
"D  c #ACA1A1",
"F  c #A0A9A9",
"G  c #A3ABAB",
"H  c #A9A9A9",
"J  c #AAAAAA",
"K  c #AAABAB",
"L  c gray67",
"P  c #ACACAC",
"I  c #AFAFAF",
"U  c #AABDBD",
"Y  c gray69",
"T  c #B1B1B1",
"R  c #B2B1B1",
"E  c #B2B2B2",
"W  c #B2B3B3",
"Q  c #B4B4B4",
"!  c #BEB5B5",
"~  c #B7B8B8",
"^  c #B0BCBC",
"/  c #B1BCBC",
"(  c #B1BDBD",
")  c #B2BEBE",
"_  c gray72",
"`  c #BBBBBB",
"'  c #BCBCBC",
"]  c gray",
"[  c #C4BABA",
"{  c #B5C1C1",
"}  c #B1C4C4",
"|  c #C0C0C0",
" . c #C1C1C1",
".. c gray76",
"X. c #C3C3C3",
"o. c gray77",
"O. c #C5C5C5",
"+. c #C6C6C6",
"@. c #C7C6C6",
"#. c #C9C4C4",
"$. c #CAC5C5",
"%. c #CCC7C7",
"&. c #C8C9C9",
"*. c #CEC9C9",
"=. c gray80",
"-. c gray81",
";. c #D2CFCF",
":. c gray82",
">. c #D2D2D2",
",. c LightGray",
"<. c gray83",
"1. c #D5D5D5",
"2. c #D5D6D6",
"3. c #D7D7D7",
"4. c #DBD6D6",
"5. c #D8D8D8",
"6. c gray85",
"7. c #DADADA",
"8. c gray86",
"9. c gainsboro",
"0. c #DCDDDD",
"q. c #DDDDDD",
"w. c gray87",
"e. c #DFDFDF",
"r. c #E1DCDC",
"t. c #E3DEDE",
"y. c #E4DFDF",
"u. c #D9EAEA",
"i. c #D8ECEC",
"p. c #DFF2F2",
"a. c #DCFBFB",
"s. c #DFFCFC",
"d. c #DFFDFD",
"f. c #DDFFFF",
"g. c #DEFFFF",
"h. c #DFFFFF",
"j. c gray88",
"k. c #E1E1E1",
"l. c #E2E2E2",
"z. c gray89",
"x. c #E3E4E4",
"c. c #E4E4E4",
"v. c #E4E5E5",
"b. c gray90",
"n. c #E6E6E6",
"m. c #E7E7E7",
"M. c gray91",
"N. c #E9E9E9",
"B. c #EAEAEA",
"V. c #ECECEC",
"C. c gray93",
"Z. c #EEEFEF",
"A. c #E1F3F3",
"S. c #E2F4F4",
"D. c #E4F4F4",
"F. c #E6FBFB",
"G. c LightCyan",
"H. c #E1FFFF",
"J. c #E2FFFF",
"K. c #E3FFFF",
"L. c #E4FCFC",
"P. c #E7FDFD",
"I. c #E4FFFF",
"U. c #E5FFFF",
"Y. c #E6FFFF",
"T. c #E9FFFF",
"R. c #EAFFFF",
"E. c #EBFFFF",
"W. c #ECFFFF",
"Q. c #EDFFFF",
"!. c #EFFFFF",
"~. c #F3F3F3",
"^. c #F6F2F2",
"/. c #F6F6F6",
"(. c gray97",
"). c azure",
"_. c #F1FFFF",
"`. c #F2FFFF",
"'. c #F9F9F9",
/* pixels */
"G.G.H.K.J.J.J.J.J.J.J.J.J.J.J.J.J.J.J.J.J.J.J.J.J.J.K.J.G.G.",
"G.f.W.!.Q.Q.Q.Q.Q.Q.Q.Q.Q.Q.Q.Q.Q.Q.Q.Q.Q.Q.Q.Q.Q.Q.).`.h.g.",
"H.!.U 1 a p p p p p p p p p p p p p p p p p p p a s 9 c P.Y.",
"I.L.F [ *.%.%.%.%.%.%.%.%.%.%.%.%.%.%.%.%.%.%.%.$.#.! 8 u.R.",
"U.a.{ ^.'.(.(./././././././././././././././././.~.Z.;.x i.T.",
"I.s.( y.n.c.l.l.l.l.l.l.l.l.l.l.l.l.l.l.l.l.l.k.9.&.C 5 p.T.",
"I.s./ y.v.k.w.w.q.q.q.q.q.q.q.q.q.q.q.q.q.q.q.q.-.Q h 3 A.T.",
"I.s./ y.c.e.8.7.6.6.6.6.6.6.6.6.6.6.6.6.6.6.7.2.X.L t < A.T.",
"I.s./ y.c.w.7.6.6.6.6.6.6.6.6.6.6.6.6.6.6.6.7.>. .J y < A.T.",
"I.s./ y.c.e.8.6.6.5.3.5.6.6.6.6.6.6.5.3.5.6.7.>...L y < A.T.",
"I.s./ y.c.e.8.5.6.z.M.z.7.5.6.6.5.7.z.M.z.6.6.>...L y < A.T.",
"I.s./ y.c.e.6.9.b.-.] =.c.q.3.3.q.c.=.] -.b.q.:...L y < A.T.",
"I.s./ y.c.w.q.b.I ; & - J c.9.9.c.J - & ; T n.1. .L y < A.T.",
"I.s./ y.c.q.M.` # Z 1.H # Q b.b.Q # H 1.Z $ ' j.| L y < A.T.",
"I.s./ y.c.k.l.d d m.V.B.z 0 k.k.0 z B.V.m.f g 7.o.K y < A.T.",
"I.s./ y.c.k.l.d d m.V.N.l g C.C.g l N.V.m.f g 7.o.K y < A.T.",
"I.s./ y.c.q.M.` # Z <.P , J :.:.J , P <.Z % ' j.| L y < A.T.",
"I.s./ y.c.w.q.b.Y ; = ; 7 6 : : 6 7 ; = ; T n.1. .L y < A.T.",
"I.s./ y.c.e.6.9.b.-. .O.O.X.....X.O.O. .-.b.q.:...L y < A.T.",
"I.s./ y.c.e.8.5.6.z.m.n.n.n.n.n.n.n.n.m.z.6.6.>...L y < A.T.",
"I.s./ y.c.e.8.6.6.5.3.5.5.5.5.5.5.5.5.3.5.6.7.>...L y < A.T.",
"I.s./ y.c.e.8.7.7.7.7.7.7.7.7.7.7.7.7.7.7.7.8.,.X.L y < A.T.",
"I.s./ y.c.e.q.6.6.6.6.6.6.6.6.6.6.6.6.6.6.6.6.>. .K u 2 A.T.",
"I.s.^ t.x.9.>.=.=.=.=.=.=.=.=.=.=.=.=.=.=.=.=.+._ A r < A.T.",
"I.d.^ r.0.@.~ E R R R R R R R R R R R R R R W I S N q < A.T.",
"I.d.) 4...A M k k k k k k k k k k k k k k k k j d w 4 > S.T.",
"I.Y.G D e * + o O O O O O O O O O O O O O O O o X @   . D.E.",
"H.E.} v V n c c c c c c c c c c c c c c c c c c b m i B F.Y.",
"G.g.R.T.Q.)._._._._._._._._._._._._._._._._._._._._.`.`.G.g.",
"G.h.H.I.K.J.J.J.J.J.J.J.J.J.J.J.J.J.J.J.J.J.J.J.J.J.K.J.G.G."
};
