/* XPM */
static char *reportPressed_xpm[] = {
/* columns rows colors chars-per-pixel */
"30 30 161 2 ",
"   c #010101",
".  c #140F0D",
"X  c #180F13",
"o  c #161213",
"O  c #1C1718",
"+  c #1E1B1C",
"@  c #241F1D",
"#  c #27201D",
"$  c #29211E",
"%  c #2D2523",
"&  c #272827",
"*  c #2F2927",
"=  c #2E2928",
"-  c #322624",
";  c #322C2A",
":  c #3A302A",
">  c #3A3532",
",  c #452C1D",
"<  c #41352E",
"1  c #553D2C",
"2  c #423730",
"3  c #423933",
"4  c #4A3D36",
"5  c #4B3F3A",
"6  c #47413A",
"7  c #4A423D",
"8  c #5D4C3D",
"9  c #634631",
"0  c #4D4541",
"q  c #4E4944",
"w  c #564B41",
"e  c #5C4F45",
"r  c #5E554C",
"t  c #5F5D58",
"y  c #6C5745",
"u  c #6D5847",
"i  c #6F5A48",
"p  c #615951",
"a  c #605F5B",
"s  c #6F6358",
"d  c #73655B",
"f  c #766A5E",
"g  c #796C5F",
"h  c #746E61",
"j  c #7C6E64",
"k  c #7E7167",
"l  c #7E7368",
"z  c #767E7E",
"x  c #876D5C",
"c  c #86705C",
"v  c #847465",
"b  c #897565",
"n  c #877867",
"m  c #867B6C",
"M  c #8D7D6B",
"N  c #917F6F",
"B  c #817C73",
"V  c #917F70",
"C  c #8F806D",
"Z  c #91806F",
"A  c #888576",
"S  c #8F8C7A",
"D  c #948272",
"F  c #9A8775",
"G  c #9A8A76",
"H  c #928E7C",
"J  c #9C8C7A",
"K  c #A18B76",
"L  c #A5927F",
"P  c #7B8383",
"I  c #818683",
"U  c #848F8F",
"Y  c #858A84",
"T  c #84908F",
"R  c #8B908B",
"E  c #979384",
"W  c #9D9682",
"Q  c #9F9883",
"!  c #859190",
"~  c #8C9897",
"^  c #909894",
"/  c #A39584",
"(  c #A99581",
")  c #A59986",
"_  c #AD9985",
"`  c #A6988A",
"'  c #B19D87",
"]  c #B49F89",
"[  c #9AA29F",
"{  c #A6A18C",
"}  c #ADA28E",
"|  c #B4A18D",
" . c #BBA58E",
".. c #AFA492",
"X. c #B5A797",
"o. c #BDA790",
"O. c #B3AC96",
"+. c #BEA992",
"@. c #B7A998",
"#. c #BCAC99",
"$. c #9BA4A1",
"%. c #AABDBC",
"&. c #C3AE95",
"*. c #CCB49B",
"=. c #D0B99F",
"-. c #C6B4A0",
";. c #C8B7A4",
":. c #CDB9A4",
">. c #D5BCA2",
",. c #CBC1A7",
"<. c #CCC3AC",
"1. c #DBC0A6",
"2. c #D6C1AD",
"3. c #DEC6AC",
"4. c #DDCAAE",
"5. c #CFC7B2",
"6. c #CECBBC",
"7. c #D7C5B0",
"8. c #D8C5B0",
"9. c #DFC9B2",
"0. c #D4CBB4",
"q. c #DDD3B6",
"w. c #D9D2B9",
"e. c #E2C7AC",
"r. c #E3C9AD",
"t. c #EACBAE",
"y. c #E0CBB1",
"u. c #E9CEB2",
"i. c #E2D2B5",
"p. c #EFD3B6",
"a. c #E6D4BA",
"s. c #EAD4BD",
"d. c #E9DDBF",
"f. c #F3D7BD",
"g. c #F3D9BE",
"h. c #F9DBBC",
"j. c #EADDC0",
"k. c #F4DBC1",
"l. c #FDDFC2",
"z. c #EDE1C2",
"x. c #FEE4C4",
"c. c #F0E6CB",
"v. c #FCE6CD",
"b. c #FEECCC",
"n. c #F1ECCC",
"m. c #FFF1CE",
"M. c #F1E3D0",
"N. c #FFECD1",
"B. c #FFF4D1",
"V. c #FDF6DC",
"C. c #FFFDDB",
"Z. c #DDFFFF",
"A. c #FFFFE2",
"S. c #FFFFEA",
"D. c #E0F4F6",
"F. c #E2F7F9",
"G. c #E2FFFF",
"H. c #EBFFFF",
"J. c #FFFEF4",
"K. c #F4FFFF",
"L. c #FAFFFF",
/* pixels */
"G.G.Z.G.Z.G.G.Z.G.G.Z.G.Z.Z.G.G.Z.G.G.G.G.G.G.Z.G.Z.G.G.F.G.",
"Z.Z.K.L.L.L.L.L.K.L.L.L.L.L.L.L.L.L.L.K.K.L.K.L.L.L.L.L.Z.Z.",
"G.H.%.z T U T T U U U T U U U U T U U T U U U U T ! P ~ H.H.",
"G.L.P , 8 8 8 8 8 8 8 8 8 8 8 8 8 8 8 8 8 8 8 8 8 8 1 r F.H.",
"G.K.^ u v n M C N M M C M C C M M M C M M N N M n n x m F.H.",
"G.K.^ y m G ( _ L ' &.&.+.&.&.+.&. ._ _ _ _ _ _ / J N B F.H.",
"G.K.^ u D ' &.*.>.r.| L _ _ _ _  .*.p.*.*.*.=.=.*.| F B Z.H.",
"G.H.^ i G o.1.t.x.s o # @ # # # o   L C.t.t.p.f.3.#.F z D.F.",
"G.H.^ i G &.1.x.e.o O.z.r.y.a.i.: r X Q A.g.x.g.9.#.J B D.H.",
"G.K.^ i G +.1.x.3.* a.A.A.C.m.m.% w.6.  { C.l.k.9.#.F B D.H.",
"G.K.^ i G o.1.x.3.; 9.q.o.*.x.z.X H J./   <.C.k.9.#.F B D.H.",
"Z.K.^ i G +.3.x.3.; d.S & q B.S.h % - 6   ) A.f.y.#.F l D.H.",
"G.H.^ u G +.1.x.3.; i.<.W ) } O.} L :.5.: E A.f.9.#.F B D.G.",
"G.K.^ u G +.1.x.3.; d./ w t 7 * - f A.S.4 S A.k.9.#.F B D.H.",
"G.K.^ u G +.3.x.e.= i.,._ ) &.x.m.m.l.B.< H A.f.y.#.F B D.H.",
"G.K.^ i G +.1.x.3.; d.Z 3 > g C.z.z.C.B.< H A.k.y.#.F B D.H.",
"G.K.^ u G  .1.x.3.= 3.C.m.B.C.V.m o ..S.3 H A.f.y.#.F B D.H.",
"G.H.^ i G &.1.x.3.= 2.B.x.A.h v K     c.e H A.f.y.#.F B D.H.",
"G.K.~ u G +.1.x.3.= 4.m.m.i.  f M.l d g.8 H A.f.9.#.F B D.H.",
"G.K.^ u G +.1.x.3.= 3.b.B.r.  * E J m.A.: H A.f.9.#.F B D.G.",
"G.H.^ i G +.1.x.3.; 9.m.l.C.m     6 n.V.2 H A.g.y.#.J B Z.H.",
"G.K.^ i G +.1.b.3.O d.S.B.C.S.0.<.S.S.S.; A A.g.y.#.F B D.H.",
"G.K.^ i G +.r.x.N.3 + q 7 5 0 t t q 0 > X <.V.k.y.#.F B D.F.",
"G.K.~ u F  .r.g.M.j.j h k k k v v j k d ;.N.k.j.>.+.F B D.H.",
"G.H.^ y N ] :.7.>.j.v.v.v.v.v.v.v.v.v.v.k.>.8.7.-...V B D.H.",
"G.K.^ u A _ X.+.#.@.@.@.@.@.@.@.@.@.@.@.@.@.@.@...` V B D.H.",
"G.K.Y 9 b Z D Z V V V D V D D F D V D D D D D V V V x j D.H.",
"G.H.%.R $.[ [ [ $.[ $.$.$.$.$.^ $.[ $.$.[ [ $.[ [ $.^ $.F.G.",
"G.Z.H.K.H.H.H.K.H.H.K.H.H.H.K.H.H.H.K.H.H.H.H.K.H.H.K.K.Z.Z.",
"G.G.G.G.G.G.G.G.G.G.G.G.G.G.G.G.G.G.G.G.G.G.G.G.G.G.G.G.G.Z."
};
