/* XPM */
static char *reportMouseOver_xpm[] = {
/* columns rows colors chars-per-pixel */
"30 30 174 2 ",
"   c #010001",
".  c #090507",
"X  c #0E0F13",
"o  c #170F13",
"O  c #191312",
"+  c #1F1E1D",
"@  c #271F1A",
"#  c #28221E",
"$  c #302425",
"%  c #3D3128",
"&  c #3F3830",
"*  c #3D3430",
"=  c #44362E",
"-  c #443A33",
";  c #4E3F39",
":  c #474139",
">  c #4C423B",
",  c #55473F",
"<  c #554A41",
"1  c #5D4E44",
"2  c #5D584A",
"3  c #66564A",
"4  c #665B4C",
"5  c #6A5B4E",
"6  c #66544A",
"7  c #6C5D50",
"8  c #655E51",
"9  c #715B53",
"0  c #656050",
"q  c #6D6255",
"w  c #6E6D59",
"e  c #726455",
"r  c #7A6757",
"t  c #746659",
"y  c #756C5C",
"u  c #7B6C5B",
"i  c #75755E",
"p  c #7E725E",
"a  c #577E60",
"s  c #7E7662",
"d  c #7B7962",
"f  c #8D4B4B",
"g  c #81584F",
"h  c #8A5D55",
"j  c #8F6158",
"k  c #886958",
"l  c #97695E",
"z  c #916459",
"x  c #87765F",
"c  c #89725E",
"v  c #827563",
"b  c #887D67",
"n  c #8C7F6B",
"m  c #8C7560",
"M  c #947F67",
"N  c #957865",
"B  c #897F70",
"V  c #A47768",
"C  c #578C66",
"Z  c #5B8963",
"A  c #5D9064",
"S  c #549266",
"D  c #608862",
"F  c #67986B",
"G  c #629368",
"H  c #72936C",
"J  c #7D9C74",
"K  c #54AD70",
"L  c #5DB474",
"P  c #78A07E",
"I  c #7FAD7B",
"U  c #7FB07E",
"Y  c #3BE57B",
"T  c #3BE779",
"R  c #89836F",
"E  c #87846B",
"W  c #9A836D",
"Q  c #9B8472",
"!  c #968C75",
"~  c #9E9479",
"^  c #AC816E",
"/  c #AF8370",
"(  c #A48C72",
")  c #B88976",
"_  c #AD9579",
"`  c #AF987E",
"'  c #AB9277",
"]  c #B09178",
"[  c #B69D7F",
"{  c #7CB182",
"}  c #3EEA80",
"|  c #3EF083",
" . c #48E782",
".. c #4AE984",
"X. c #45E581",
"o. c #57E585",
"O. c #58E786",
"+. c #59E987",
"@. c #57EE89",
"#. c #5BE988",
"$. c #55EC87",
"%. c #4BF385",
"&. c #4AF689",
"*. c #4FF98C",
"=. c #41F285",
"-. c #56F289",
";. c #52F98C",
":. c #52F187",
">. c #9F8F80",
",. c #AF9B80",
"<. c #B79E83",
"1. c #AAA084",
"2. c #BBA183",
"3. c #B7A98E",
"4. c #B9AE8E",
"5. c #CC9C86",
"6. c #EC938B",
"7. c #C3A687",
"8. c #CBAE8E",
"9. c #CFB190",
"0. c #C1B396",
"q. c #D6B795",
"w. c #DBBB99",
"e. c #E1BF9D",
"r. c #F7A99B",
"t. c #F4BAA4",
"y. c #CCC09D",
"u. c #E3C29E",
"i. c #DCC4A1",
"p. c #E6C5A1",
"a. c #E9C6A1",
"s. c #EBC8A4",
"d. c #E6CCA9",
"f. c #F2CDA6",
"g. c #F5C1A1",
"h. c #E0D0AA",
"j. c #E9D6AF",
"k. c #F9D3AC",
"l. c #FFD8AF",
"z. c #EEC5BE",
"x. c #EEC0B3",
"c. c #FFCFB1",
"v. c #E0D7B1",
"b. c #E8D7B4",
"n. c #E4D9B2",
"m. c #FBD6B1",
"M. c #F3DBB3",
"N. c #FBD9B4",
"B. c #FEDDBC",
"V. c #FAD7B9",
"C. c #EAE2BB",
"Z. c #FDE1B7",
"A. c #FCE4BA",
"S. c #FFEABF",
"D. c #F3E4BD",
"F. c #F4BEC4",
"G. c #F0C8C1",
"H. c #FFDBC6",
"J. c #FFDECB",
"K. c #FFE3C3",
"L. c #FFEDC1",
"P. c #FFECCB",
"I. c #FFF2C5",
"U. c #FFF9C7",
"Y. c #FFF6C8",
"T. c #FFFACC",
"R. c #FFEFD3",
"E. c #FFF2D5",
"W. c #FFFCD3",
"Q. c #FFF4D8",
"!. c #FFFEDC",
"~. c #FFF2E1",
"^. c #FFFFE5",
"/. c white",
/* pixels */
"o.o.o.+.o.o.o.o.O.O.O.O.O.O.O.O.o.o.o.o.o.+.o.o.+.+.+.o.o.o.",
"o.o.-.%.%.%.%.%.%.%.%.%.%.%.%.%.%.%.&.%.%.%.%.%.%.%.&.;.o.o.",
"o.;.K a C C C C C C C C C C C C C C C C C C C C C C Z C +.+.",
"#.T P F.G.G.z.G.z.z.z.z.z.G.z.z.z.z.z.G.z.z.z.z.x.t.r.Q Y -.",
"#.T { ~.Q.Q.E.R.R.E.Q.E.E.E.Q.E.Q.R.R.R.R.R.Y.P.L.N.g.~ Y $.",
"#.Y { J.K.H.H.V.K.W.Q.W.W.Q.Q.W.!.W.P.V.B.H.B.N.k.w.5.E X.@.",
"#.Y { H.K.B.B.A.D.q * : : : : : < 2 b.W.M.V.V.k.u.8.) E X.@.",
"#.Y { H.B.B.M.W.q . n v s p d y o . O b.T.k.l.f.w.2.) d ..@.",
"+.T { H.Z.V.V.U.- t ^.Y.Y.I.W.I.$ 4.8 . v.Y.f.s.q.2./ d ..@.",
"#.T { H.A.m.N.Y.< 3 U.Y.Y.K.N.d.o y./.e @ h.Z.a.q.2./ d ..@.",
"#.Y { H.B.V.m.U.< t K.8 2 v S.M.. < ,.,.  5 U.s.q.2./ d  .@.",
"#.Y { H.B.V.m.Y.< t A.m c ( W.W.,.< % : + 5 I.a.q.2./ d ..@.",
"#.Y { H.B.V.N.Y.< e L.W W M 9 t x ( I.!.q , I.s.q.2./ d  .@.",
"#.Y { H.Z.N.N.Y.< t L.w 0 i 8 , - t Z.W.7 < I.s.q.2./ d ..@.",
"+.Y { H.B.V.m.Y., e L.R R d 3.T.W.W.k.I.5 < L.s.q.2./ d  .@.",
"#.Y { H.B.V.m.Y.< u Z.; ; = W T.i.i.L.T.6 < I.s.q.2./ d ..@.",
"#.Y { H.B.V.N.U.< 6 T.Y.L.T.U.D.y . R !.5 < L.s.q.2./ d ..:.",
"#.Y { H.B.V.m.Y.< 7 Y.m.B.I.> n W     d.v < I.s.q.2./ d ..-.",
"#.Y { H.Z.N.m.U.< 5 I.k.I.1.  ! v.r 1 p.u < I.s.q.2./ d ..@.",
"#.Y { H.A.V.m.Y.< 5 Y.k.Y.W   1 3.] M.W.6 < L.s.q.2./ d ..@.",
"o.T { H.B.m.m.Y.< 7 Y.k.Z.M.*     # j.W.3 < I.s.q.2./ d ..@.",
"#.Y { H.B.B.N.T.- e ^.I.I.W.U.1.1.U.W.!.q - I.s.q.2./ d ..@.",
"#.Y { H.B.N.k.I.7 X R p p u E ( ~ n u n X 7 L.u.9.[ / p ..@.",
"#.Y U B.l.f.u.s.u.6 % = - = = = = = - % 4 a.p.9.7._ V i ..@.",
"+.Y 1.j.u.q.9.7.9.u.u.u.u.u.u.u.u.u.u.u.u.9.2.<.] W N i ..-.",
"#.} I t.8.[ ] ( ( ( ( ( ( ( ( ( ( ( ( ( ( ( ( W W x j w $.-.",
"#.T P 6.) V l z j z j j j j j j j j j j j j j h h g f 7 ..-.",
"+.:.L F F G G A A A A D A A A A A A A A A A G A A A D A $.$.",
"+.o.:.=.%.&.&.;.;.*.*.*.*.*.*.*.&.;.*.*.*.*.*.*.*.*.*.;.+.o.",
"o.o.o.#.+.+.+.o.O.O.O.O.O.O.O.O.+.o.o.+.+.o.+.o.O.+.O.O.o.o."
};
