/* XPM */
static char *reportNormal_xpm[] = {
/* columns rows colors chars-per-pixel */
"30 30 166 2 ",
"   c #010001",
".  c #0A0505",
"X  c #08060A",
"o  c #0E0F13",
"O  c #170F13",
"+  c #191312",
"@  c #1F1E1D",
"#  c #271F1A",
"$  c #28221E",
"%  c #302425",
"&  c #3D3128",
"*  c #3D3430",
"=  c #3F3830",
"-  c #44362E",
";  c #443A33",
":  c #4E3F39",
">  c #474139",
",  c #4C423B",
"<  c #55473F",
"1  c #644328",
"2  c #6D543D",
"3  c #70573F",
"4  c #554A41",
"5  c #5D4E44",
"6  c #5D584A",
"7  c #66564A",
"8  c #69574B",
"9  c #665B4C",
"0  c #6A5B4E",
"q  c #635247",
"w  c #795E44",
"e  c #755B42",
"r  c #6C5D50",
"t  c #655E51",
"y  c #7B634A",
"u  c #656050",
"i  c #6D6255",
"p  c #6D6A58",
"a  c #726455",
"s  c #7A6757",
"d  c #746659",
"f  c #756C5C",
"g  c #7B6C5B",
"h  c #7E725E",
"j  c #7D7463",
"k  c #81654B",
"l  c #8B6F54",
"z  c #846C59",
"x  c #89725E",
"c  c #95785B",
"v  c #827563",
"b  c #8B7661",
"n  c #887D67",
"m  c #827768",
"M  c #857A6B",
"N  c #8B7E6C",
"B  c #9C7E60",
"V  c #937E69",
"C  c #897F70",
"Z  c #89836F",
"A  c #9F8163",
"S  c #9B836D",
"D  c #988670",
"F  c #948875",
"G  c #9F9479",
"H  c #A28264",
"J  c #AD8C6D",
"K  c #BB8960",
"L  c #A48C73",
"P  c #AD9479",
"I  c #AF987E",
"U  c #B09178",
"Y  c #B79D7F",
"T  c #BC9978",
"R  c #D3A178",
"E  c #7E8583",
"W  c #858B89",
"Q  c #9F8F80",
"!  c #8C9089",
"~  c #8C9695",
"^  c #8E9896",
"/  c #939A94",
"(  c #9A9A90",
")  c #919C9B",
"_  c #A79682",
"`  c #AF9B80",
"'  c #B59D82",
"]  c #BB9F82",
"[  c #97A09C",
"{  c #9DA19B",
"}  c #AAA084",
"|  c #BCA184",
" . c #B7A98E",
".. c #B9AE8E",
"X. c #A5A398",
"o. c #A2A8A1",
"O. c #B5BAAF",
"+. c #B4B5AB",
"@. c #AABCBC",
"#. c #B4BAB1",
"$. c #C2A687",
"%. c #CBAE8E",
"&. c #CFB190",
"*. c #C7B499",
"=. c #D6B795",
"-. c #D7BB9F",
";. c #DCBB9A",
":. c #DCB994",
">. c #E1B48C",
",. c #E8BE93",
"<. c #E1BF9D",
"1. c #D8BFA6",
"2. c #B8C0B7",
"3. c #CCC09D",
"4. c #E3C29E",
"5. c #F4CB9D",
"6. c #DCC4A1",
"7. c #D8C1AA",
"8. c #E6C5A1",
"9. c #E9C6A1",
"0. c #EBC8A4",
"q. c #E6CCA9",
"w. c #F2CDA6",
"e. c #E0D0AA",
"r. c #E9D6AF",
"t. c #F7D4A9",
"y. c #F9D3AC",
"u. c #E0D7B1",
"i. c #E8D7B4",
"p. c #E4D9B2",
"a. c #F5D7B3",
"s. c #FBD6B1",
"d. c #F4D9B4",
"f. c #FBD9B4",
"g. c #FAD7B9",
"h. c #FEDDBC",
"j. c #F5DABA",
"k. c #EAE2BB",
"l. c #FDE1B7",
"z. c #FCE4BA",
"x. c #FFEABF",
"c. c #F3E4BD",
"v. c #B3C3C1",
"b. c #FBDEC2",
"n. c #FFE3C3",
"m. c #FFEDC1",
"M. c #FFEDCC",
"N. c #FFF2C5",
"B. c #FFF9C7",
"V. c #FFF6C8",
"C. c #FFFACC",
"Z. c #FFEFD3",
"A. c #FFF2D5",
"S. c #FFFCD3",
"D. c #FFF4D9",
"F. c #FFFEDC",
"G. c #D6EEF3",
"H. c #DCF3F7",
"J. c #DFF5F8",
"K. c #DCFEFF",
"L. c #FFFFE5",
"P. c #E3F6FA",
"I. c #E3FFFF",
"U. c #EBFFFF",
"Y. c #F0FFFF",
"T. c white",
/* pixels */
"I.I.I.I.I.I.I.I.I.I.I.I.I.I.I.I.I.I.I.I.I.I.I.I.I.I.I.I.I.I.",
"K.K.U.U.U.U.U.U.U.U.U.U.Y.U.U.U.U.U.U.U.U.U.U.U.U.U.Y.Y.K.I.",
"I.Y.@.E ^ ^ ~ ~ ~ ~ ~ ~ ~ ~ ~ ~ ~ ~ ~ ^ ~ ~ ~ ~ ~ ^ W ) I.I.",
"I.I.o.*.7.7.7.7.7.7.7.7.7.7.7.7.7.7.1.1.7.7.7.1.-.:.R V G.U.",
"U.K.2.Z.D.A.D.A.A.A.A.A.A.A.A.A.D.A.A.A.A.Z.A.M.m.f.,._ G.U.",
"I.K.#.j.n.b.b.g.n.F.A.S.S.A.D.S.A.S.M.a.j.h.h.h.t.;.T D H.U.",
"I.K.#.a.b.h.g.z.c.i = > > > > > 4 6 i.S.s.f.f.y.4.%.J C H.U.",
"I.K.#.a.b.h.f.S.i X Z j j x j f O . + k.S.y.y.w.<.$.H M H.U.",
"I.K.#.a.h.g.f.V.; a L.V.N.N.S.N.% *.9 . u.V.w.0.=.| H M P.I.",
"I.K.#.d.h.f.f.V.4 8 B.V.V.m.f.q.O 3.T.i # e.l.9.=.| A M J.U.",
"U.K.#.a.h.f.s.V.4 d z.u 6 v x.a.X 4 G '   0 B.9.=.| A m J.U.",
"I.K.#.d.h.f.f.V.4 d n.x z L S.S.` 5 & > @ 9 N.0.=.| H m P.I.",
"I.K.#.a.h.f.f.V.4 a m.S S D a i x L V.F.i < N.0.=.| H M J.U.",
"I.K.#.a.h.f.f.V.4 s m.p i f t , ; d l.S.0 < N.9.=.| A M P.I.",
"I.K.#.a.h.f.s.V.< a m.Z Z j ..C.S.S.y.N.0 4 N.0.=.| A M J.U.",
"U.K.#.a.h.f.f.V.4 f l.: , - S C.6.6.m.B.0 4 N.0.=.| A M P.I.",
"I.K.#.a.h.f.f.N.4 7 V.V.m.S.B.c.f . Z F.8 4 N.0.=.| A M J.I.",
"I.K.#.a.h.f.f.N.4 0 V.s.f.N.< Z V     q.v < N.0.=.| A M J.U.",
"I.K.#.a.h.f.f.N.4 0 N.y.V.}   F p.s 5 8.f < N.9.=.| A M J.U.",
"U.K.#.a.h.g.f.V.4 r V.t.V.S   5  .U a.F.q 4 N.0.=.| A M J.U.",
"I.K.O.a.h.f.f.V.4 r V.t.l.j.=     $ r.S.8 5 N.0.=.| A M J.U.",
"I.K.O.a.h.g.f.B.; a L.N.N.S.C.} } B.S.F.i ; N.0.=.| A M J.U.",
"I.K.O.a.h.f.y.V.i o Z h h s n L G n g Z o i x.4.=.Y c M J.U.",
"U.K.O.t.s.w.4.0.4.q & ; - - - - - - - & 8 0.4.&.$.I c m J.U.",
"I.K.O.5.9.=.&.$.&.8.<.4.4.4.4.4.4.4.4.4.4.&.$.Y U S l j P.U.",
"I.K.+.>.%.] P L L L L L L L L L L L L L L L L S S x y j P.U.",
"I.I.X.K H l k w w w w w w w w w w w y w w w w 3 3 2 1 8 P.U.",
"I.U.2.( X./ / / / / / / / / / / / / / / / / / / / / ! [ I.I.",
"I.K.U.I.U.U.U.Y.Y.Y.U.Y.Y.Y.U.Y.U.Y.U.Y.Y.Y.U.Y.Y.Y.Y.Y.I.K.",
"I.K.I.I.I.I.I.I.I.I.I.I.I.I.I.I.I.I.I.I.I.I.I.I.I.I.I.I.I.K."
};
