/* XPM */
static char *reportDisabled_xpm[] = {
/* columns rows colors chars-per-pixel */
"30 30 212 2 ",
"   c #6A6262",
".  c #686565",
"X  c #6D6D6D",
"o  c #6F6F6F",
"O  c #706A6A",
"+  c #706B6B",
"@  c #706C6C",
"#  c #716D6D",
"$  c #726E6E",
"%  c #717171",
"&  c #777777",
"*  c #797575",
"=  c gray47",
"-  c gray48",
";  c #7E7F7F",
":  c gray50",
">  c #7F8181",
",  c #7D8585",
"<  c #808080",
"1  c #808181",
"2  c #808282",
"3  c #868383",
"4  c #848484",
"5  c #848585",
"6  c #868686",
"7  c #898686",
"8  c #838C8C",
"9  c #898989",
"0  c #8B8B8B",
"q  c #8C8989",
"w  c gray55",
"e  c #8E8F8F",
"r  c gray56",
"t  c #918C8C",
"y  c #908D8D",
"u  c #918D8D",
"i  c #918E8E",
"p  c #918F8F",
"a  c #8B9494",
"s  c #8B9696",
"d  c #8B9797",
"f  c #8B9898",
"g  c #909090",
"h  c gray57",
"j  c #969393",
"k  c gray58",
"l  c #959595",
"z  c gray59",
"x  c #979797",
"c  c #979999",
"v  c #919D9D",
"b  c #929C9C",
"n  c #919E9E",
"m  c #929E9E",
"M  c #939F9F",
"N  c #989898",
"B  c #989999",
"V  c #9A9A9A",
"C  c #9B9B9B",
"Z  c #9A9C9C",
"A  c gray61",
"S  c #9D9D9D",
"D  c gray62",
"F  c #9F9F9F",
"G  c #95A2A2",
"H  c #96A2A2",
"J  c gray63",
"K  c #A3A0A0",
"L  c #A2A2A2",
"P  c gray64",
"I  c #A4A4A4",
"U  c #A5A5A5",
"Y  c #A5A6A6",
"T  c gray65",
"R  c #A7A7A7",
"E  c #ACA1A1",
"W  c #A0A9A9",
"Q  c #A3ABAB",
"!  c gray66",
"~  c #A9A9A9",
"^  c #AAAAAA",
"/  c #AAABAB",
"(  c gray67",
")  c #ACACAC",
"_  c gray68",
"`  c #AEAEAE",
"'  c #AFAFAF",
"]  c #AABDBD",
"[  c gray69",
"{  c #B0B1B1",
"}  c #B1B1B1",
"|  c #B2B2B2",
" . c gray70",
".. c #B4B4B4",
"X. c gray71",
"o. c #B6B6B6",
"O. c #B7B7B7",
"+. c #BEB5B5",
"@. c #B7B8B8",
"#. c #B0BCBC",
"$. c #B1BCBC",
"%. c #B1BDBD",
"&. c #B2BEBE",
"*. c gray72",
"=. c #B9B9B9",
"-. c gray73",
";. c #BCBCBC",
":. c gray74",
">. c gray",
",. c #C4BABA",
"<. c #B5C1C1",
"1. c #B1C4C4",
"2. c #C1C1C1",
"3. c gray76",
"4. c #C3C3C3",
"5. c gray77",
"6. c #C5C5C5",
"7. c #C7C6C6",
"8. c #C9C4C4",
"9. c #CAC5C5",
"0. c #CCC7C7",
"q. c #C8C9C9",
"w. c gray79",
"e. c #CACACA",
"r. c #CEC9C9",
"t. c #CECECE",
"y. c #CECFCF",
"u. c gray81",
"i. c #D2CFCF",
"p. c #CFD0D0",
"a. c #D0D0D0",
"s. c gray82",
"d. c #D2D1D1",
"f. c #D2D2D2",
"g. c LightGray",
"h. c gray83",
"j. c #D5D5D5",
"k. c #D7D7D7",
"l. c #DBD6D6",
"z. c #D8D8D8",
"x. c gray85",
"c. c #DADADA",
"v. c gray86",
"b. c gainsboro",
"n. c #DCDDDD",
"m. c #DDDDDD",
"M. c gray87",
"N. c #DFDFDF",
"B. c #E1DCDC",
"V. c #E3DEDE",
"C. c #E4DFDF",
"Z. c #D9EAEA",
"A. c #D8ECEC",
"S. c #DFF2F2",
"D. c #DCFBFB",
"F. c #DFFCFC",
"G. c #DFFDFD",
"H. c #DDFFFF",
"J. c #DEFFFF",
"K. c #DFFFFF",
"L. c gray88",
"P. c #E1E1E1",
"I. c #E2E2E2",
"U. c gray89",
"Y. c #E3E4E4",
"T. c #E4E4E4",
"R. c #E4E5E5",
"E. c gray90",
"W. c #E6E6E6",
"Q. c #E7E7E7",
"!. c gray91",
"~. c #E9E9E9",
"^. c #EAEAEA",
"/. c gray92",
"(. c #ECECEC",
"). c gray93",
"_. c #EEEEEE",
"`. c #EEEFEF",
"'. c #EFEFEF",
"]. c #E1F3F3",
"[. c #E2F4F4",
"{. c #E4F4F4",
"}. c #E6FBFB",
"|. c LightCyan",
" X c #E1FFFF",
".X c #E2FFFF",
"XX c #E3FFFF",
"oX c #E4FCFC",
"OX c #E7FDFD",
"+X c #E4FFFF",
"@X c #E5FFFF",
"#X c #E6FFFF",
"$X c #E9FFFF",
"%X c #EAFFFF",
"&X c #EBFFFF",
"*X c #ECFFFF",
"=X c #EDFFFF",
"-X c #EFFFFF",
";X c gray94",
":X c #F1F1F1",
">X c gray95",
",X c #F3F3F3",
"<X c #F6F2F2",
"1X c gray96",
"2X c #F6F6F6",
"3X c #F6F7F7",
"4X c gray97",
"5X c azure",
"6X c #F1FFFF",
"7X c #F2FFFF",
"8X c #F9F9F9",
"9X c white",
/* pixels */
"|.|. XXX.X.X.X.X.X.X.X.X.X.X.X.X.X.X.X.X.X.X.X.X.X.XXX.X|.|.",
"|.H.*X-X=X=X=X=X=X=X=X=X=X=X=X=X=X=X=X=X=X=X=X=X=X=X5X7XK.J.",
" X-X] , d s s s s s s s s s s s s s s s s s s s d f 8 v OX#X",
"+XoXW ,.r.0.0.0.0.0.0.0.0.0.0.0.0.0.0.0.0.0.0.0.9.8.+.7 Z.%X",
"@XD.<.<X8X4X4X2X2X2X4X4X4X4X4X4X4X3X2X2X2X2X2X2X,X`.i.c A.$X",
"+XF.%.C.W.T.I.L.E.'._._._._._._.).;XQ.N.I.I.I.P.b.q.K 5 S.$X",
"+XF.$.C.R.P.m.P.L.) k A A A V A L P b./.c.m.m.m.u...j 2 ].$X",
"+XF.$.C.T.N.v.~.( 4 ..' ` ` [ ) 9 < 6 N.!.k.v.j.4.( u > ].$X",
"+XF.$.C.T.M.v.W.C ` 4XE.E.E.(.W.k t.U - c.E.k.f.2.^ i > ].$X",
"+XF.$.C.T.M.v.E.P R W.W.!.U.c.j.0 s.9X~ 0 k.N.d.3.( i > ].$X",
"+XF.$.C.T.M.v.E.J ` L.! J | I.c.6 F 3.4.: ~ !.f.3.( i > ].$X",
"+XF.$.C.T.M.v.E.L ` P.` T -.(.).2.F l S r ~ W.g.3.( i > ].$X",
"+XF.$.C.T.M.v.E.L ) I.*.-.*.( ) [ >.T.:X) L W.g.3.( i > ].$X",
"+XF.$.C.T.M.v.E.J _ U.` ) | ^ F V ) M./.~ P W.g.3.( i > ].$X",
"+XF.$.C.T.M.v.E.J ) I.=.*.| w.~././.z.T.~ P W.g.3.( i > ].$X",
"+XF.$.C.T.M.v.E.J ' M.S D k O.!.s.f.U.Q.R P W.g.3.( i > ].$X",
"+XF.$.C.T.M.v.E.L R !.W.U.^.!.P.( & O.>XR L W.g.3.( i > ].$X",
"+XF.$.C.T.M.v.E.L ~ W.c.b.T.D o.O.X & k. .J W.g.3.( i > ].$X",
"+XF.$.C.T.M.v.E.L ~ W.z.E.4.% ;.b.` I g.' J W.g.3.( i > ].$X",
"+XF.$.C.T.M.v.E.L ~ W.z.W.=.= I e.>.v.'.I P W.g.3.( i > ].$X",
"+XF.$.C.T.M.v.E.L ~ E.z.b.b.V & o r x./.T L W.g.3.( i > ].$X",
"+XF.$.C.T.M.b.Q.A _ 1XW.T.).Q.5.5.!.(.,X) S !.h.4.( i > ].$X",
"+XF.$.C.T.N.b.Q.) w *. .| } *.2.2.*.} *.0 _ Q.f.2./ p 1 ].$X",
"+XF.#.V.Y.b.f.y.t.P h N N N x x x x N h P a.p.6.*.Y y > ].$X",
"+XG.#.B.n.7.@.{ X.>.:.;.;.;.;.;.;.;.;.:.>.X.{ ' T Z q > ].$X",
"+XG.&.l.3.Y B l l l z z z z z z z z z z l k l k g e 3 ; [.$X",
"+X#XQ E t * # + @ @ @ @ @ @ @ @ @ @ @ @ @ @ @ + O $   . {.&X",
" X&X1.b H m v v v v v v v v v v v v v v v v v v n M a G }.#X",
"|.J.%X$X=X5X6X6X6X6X6X6X6X6X6X6X6X6X6X6X6X6X6X6X6X6X7X7X|.J.",
"|.K. X+XXX.X.X.X.X.X.X.X.X.X.X.X.X.X.X.X.X.X.X.X.X.XXX.X|.|."
};
