/* XPM */
static char *showSubTitleDisabled_xpm[] = {
/* columns rows colors chars-per-pixel */
"30 30 189 2 ",
"   c #685F5F",
".  c #6B6666",
"X  c #6C6666",
"o  c #6C6767",
"O  c #6D6767",
"+  c #6D6868",
"@  c #6C6C6C",
"#  c #767171",
"$  c gray50",
"%  c #888585",
"&  c #8C8686",
"*  c #808989",
"=  c #858989",
"-  c #868A8A",
";  c #868B8B",
":  c #878B8B",
">  c #898989",
",  c #8E8B8B",
"<  c gray55",
"1  c #8D8C8C",
"2  c #8D8D8D",
"3  c #8E8E8E",
"4  c #928F8F",
"5  c #8B9090",
"6  c #889393",
"7  c #8F9A9A",
"8  c #8F9B9B",
"9  c #909090",
"0  c gray57",
"q  c #939091",
"w  c #939393",
"e  c #949190",
"r  c #949191",
"t  c gray58",
"y  c #959595",
"u  c gray59",
"i  c #9D9191",
"p  c #989595",
"a  c #959E9E",
"s  c #989898",
"d  c gray60",
"f  c #9A9A9A",
"g  c #9B9B9B",
"h  c gray61",
"j  c #9D9D9D",
"k  c gray62",
"l  c #9F9F9F",
"z  c #94A0A0",
"x  c #94A1A1",
"c  c #95A1A1",
"v  c #95A2A2",
"b  c #9DA1A1",
"n  c #99A6A6",
"m  c #98A7A7",
"M  c #9BAAAB",
"N  c #A0A0A0",
"B  c gray63",
"V  c #A2A2A2",
"C  c gray64",
"Z  c #A4A4A4",
"A  c #A5A5A5",
"S  c gray65",
"D  c #A7A7A7",
"F  c #A8A5A5",
"G  c #A5ADAD",
"H  c #A5AEAE",
"J  c gray66",
"K  c #A9A9A9",
"L  c #AAA9A9",
"P  c #AAAAAA",
"I  c gray67",
"U  c #ACACAC",
"Y  c gray68",
"T  c #AEAEAE",
"R  c #AFAFAF",
"E  c #B7ACAC",
"W  c gray69",
"Q  c #B1B1B1",
"!  c #B2B2B2",
"~  c gray70",
"^  c #B4B4B4",
"/  c gray71",
"(  c #B6B6B6",
")  c #B7B7B7",
"_  c #BBB2B2",
"`  c gray72",
"'  c #B9B9B9",
"]  c gray73",
"[  c #BBBBBB",
"{  c #BCBCBC",
"}  c gray74",
"|  c gray",
" . c gray75",
".. c #C2BCBC",
"X. c #C4BFBF",
"o. c #AEC1C1",
"O. c #B6C2C2",
"+. c #B6C3C3",
"@. c #B7C3C3",
"#. c #BBC7C7",
"$. c #B5C9C9",
"%. c #C0C0C0",
"&. c #C1C1C1",
"*. c gray76",
"=. c #C3C3C3",
"-. c #C6C1C1",
";. c #C7C1C1",
":. c #C7C2C2",
">. c gray77",
",. c #C5C5C5",
"<. c #C6C6C6",
"1. c #C8C8C8",
"2. c gray79",
"3. c #CACACA",
"4. c #CBCBCB",
"5. c gray80",
"6. c #CDCDCD",
"7. c #CECECE",
"8. c gray81",
"9. c #D1CCCC",
"0. c gray82",
"q. c #D2D2D2",
"w. c LightGray",
"e. c #D4D0D0",
"r. c #D5D5D5",
"t. c gray84",
"y. c #D7D7D7",
"u. c #DAD4D4",
"i. c #DBD5D5",
"p. c #DCD6D6",
"a. c #DCD7D7",
"s. c #D8D8D8",
"d. c gray85",
"f. c #DADADA",
"g. c gray86",
"h. c #DDD8D8",
"j. c gainsboro",
"k. c #DDDDDD",
"l. c gray87",
"z. c #DFDFDF",
"x. c #CEECED",
"c. c #CFEEEE",
"v. c #D5F4F4",
"b. c #D6F5F5",
"n. c #D7F6F6",
"m. c #D8F7F7",
"M. c #D8F8F8",
"N. c #DFFDFD",
"B. c #DEFFFF",
"V. c #DFFFFF",
"C. c gray88",
"Z. c #E1E1E1",
"A. c #E2E2E2",
"S. c gray89",
"D. c #E4E4E4",
"F. c gray90",
"G. c #E6E6E6",
"H. c #E7E7E7",
"J. c #EDE7E7",
"K. c gray91",
"L. c #EAEAEA",
"P. c gray92",
"I. c #ECECEC",
"U. c gray93",
"Y. c #EEEEEE",
"T. c #E0FDFD",
"R. c LightCyan",
"E. c #E1FFFF",
"W. c #E2FFFF",
"Q. c #E5FFFF",
"!. c #E6FFFF",
"~. c #E8FFFF",
"^. c #E9FFFF",
"/. c #EBFFFF",
"(. c #ECFFFF",
"). c #EDFFFF",
"_. c #EEFFFF",
"`. c #F1F1F1",
"'. c gray95",
"]. c #F3F3F3",
"[. c #F4F4F4",
"{. c gray96",
"}. c #F6F6F6",
"|. c azure",
" X c #F1FFFF",
".X c #F8F8F8",
"XX c #F9F9F9",
"oX c gray99",
"OX c #FDFDFD",
/* pixels */
"E.E.E.E.E.E.E.E.E.E.E.E.E.E.E.E.E.E.E.E.E.E.E.E.E.E.E.E.E.E.",
"E.V.(. X_._._._._._._._._._._._._._._._._._._._._._.|. XW.R.",
"E._.o.* 8 8 8 8 8 8 8 8 8 8 8 8 8 8 8 8 8 8 8 8 8 8 6 m T.Q.",
"E.!.G E :.-.;.-.-.-.-.-.-.-.-.-.-.-.-.-.-.-.-.-.X..._ 1 x.^.",
"E.B.#.J.}.{.{.[.[.[.[.[.].XXoX].XX[.[.[.[.[.[.].`.L.e.b c.~.",
"E.R.@.h.H.F.S.S.S.S.S.D.L.s.q.L.l.Z.D.S.S.S.S.A.l.1.F 5 v.~.",
"E.R.O.a.D.C.z.l.k.k.l.d.L.,.l 3.d H.L.j.k.k.l.k.8.~ p : b.~.",
"E.R.@.p.S.l.g.f.d.d.C.5.t <.2./ ,.%.' l.f.d.f.r.=.P q - n.~.",
"E.R.@.p.S.l.f.d.A.F.H.C.{ } K j 4.A ^ I.G.A.d.0.%.J e ; n.~.",
"E.R.@.p.S.l.j.A.<.Q W 1.OX! P 4.s D.l.~ W 1.A.w.&.K e ; n.~.",
"E.R.@.p.S.z.D.R < Z s 2.l.0 6.Z.V Z.Z.A h 3 [ j.&.K e ; n.~.",
"E.R.@.p.S.z.C.T ,.K.I.K.0 W ].[ > K P r.}.` y s.=.K e ; n.~.",
"E.R.@.p.S.z.C. .C C Y g J H.C.5.' ` T h f.2.j r.=.K e ; n.~.",
"E.R.@.p.S.C.l.g ( s.g N H.l.t.l.G.G.Y.B  .3.j t.=.K e ; n.~.",
"E.R.@.p.S.C.k.C 7.].U [ H.s.d.d.d.k.w.j y.,.j t.=.K e ; n.~.",
"E.R.@.p.S.C.k.C 1.P.P / D.d.d.d.d.z.4.B Z.=.j t.=.K e ; n.~.",
"E.R.@.p.S.C.k.B 6.{.K / D.d.d.d.d.D.} N P.&.j t.=.K e ; n.~.",
"E.R.@.p.S.C.k.D ' 7.I | '.z.f.d.d.G.I T Y.%.j t.=.K e ; n.~.",
"E.R.@.p.S.C.j.K ^ %./ 9 ) 5.l.S.G.z.t <.P.%.j t.=.K e ; n.~.",
"E.R.@.p.S.C.z.K S / g U ! V C P T h U Z.G.,.h r.=.K e ; n.~.",
"E.R.@.p.S.l.D. .S } ,.H.U.g.,.>.} >.A.A.H.! u f.=.K e ; n.~.",
"E.R.@.p.S.l.F.>.d J D j w =..X&.B J N k j 0 =.k.=.L r ; n.~.",
"E.E.O.p.S.z.g.z.6.{  .2.k k I 9 ] *.| | [ 8.A.0.%.K r : n.~.",
"E.E.O.i.S.g.q.5.q.t.t.A.) $ j 8.g.r.t.t.t.q.4.,.` A 4 - n.~.",
"E.E.+.u.g.<.) ! Q ! ! / D V { ` W ! ! ! ! ! ! T S f , - n.~.",
"E.E.@.9.&.S d y y y y w d h y t y y y y y y t t 9 2 % = m.~.",
"E.~.H i & # + . o o o o o o o o o o o o o o o X X O   @ M.^.",
"E./.$.a n v z z x x x x x x x x x x x x x x x x c v 7 M N.Q.",
"E.R.^./.).|. X X X X X X X X X X X X X X X X X X X|.|.|.W.R.",
"E.E.E.E.E.E.E.E.E.E.E.E.E.E.E.E.E.E.E.E.E.E.E.E.E.E.E.E.E.E."
};
