/* XPM */
static char *showTabNormal_xpm[] = {
/* columns rows colors chars-per-pixel */
"30 30 156 2 ",
"   c #000003",
".  c #05050B",
"X  c #0C0A0D",
"o  c #0E0D12",
"O  c #121115",
"+  c #171618",
"@  c #1E1B1C",
"#  c #211D1E",
"$  c #231F20",
"%  c #252121",
"&  c #2A2524",
"*  c #2E2A29",
"=  c #352E2B",
"-  c #382F2D",
";  c #3A322F",
":  c #3E3632",
">  c #3E3A34",
",  c #423A34",
"<  c #493F39",
"1  c #624126",
"2  c #674E37",
"3  c #6D533B",
"4  c #71573E",
"5  c #74593F",
"6  c #574B43",
"7  c #5A4D44",
"8  c #605347",
"9  c #625449",
"0  c #755941",
"q  c #7C6046",
"w  c #7E654B",
"e  c #6C6051",
"r  c #7D6D5D",
"t  c #886A4F",
"y  c #806E5D",
"u  c #8C7155",
"i  c #88755E",
"p  c #9B7B5E",
"a  c #AB7B53",
"s  c #857563",
"d  c #877866",
"f  c #8E7A67",
"g  c #817A6D",
"h  c #8A7463",
"j  c #947E67",
"k  c #947F6C",
"l  c #867D70",
"z  c #8E826C",
"x  c #9F8063",
"c  c #94806B",
"v  c #9A836E",
"b  c #8C8375",
"n  c #978571",
"m  c #9C8671",
"M  c #928779",
"N  c #9A8E7E",
"B  c #A28365",
"V  c #A68668",
"C  c #AF8E6E",
"Z  c #A38B71",
"A  c #A88B74",
"S  c #AB9277",
"D  c #AB947B",
"F  c #A4957D",
"G  c #B0977D",
"H  c #B49A7F",
"J  c #CF9F75",
"K  c #C19E7B",
"L  c #818886",
"P  c #8A928E",
"I  c #91948D",
"U  c #8F9B9A",
"Y  c #969D97",
"T  c #9A9E94",
"R  c #909B99",
"E  c #AC9E8A",
"W  c #BA9F82",
"Q  c #9BA19A",
"!  c #B7A185",
"~  c #BCA083",
"^  c #BEA288",
"/  c #BFAA8D",
"(  c #A0A59E",
")  c #A8A69A",
"_  c #99A6A4",
"`  c #9DA8A4",
"'  c #AAACA4",
"]  c #BABBAF",
"[  c #BEBFB3",
"{  c #C1A587",
"}  c #C2A589",
"|  c #C5A88A",
" . c #CBAD8D",
".. c #CBA68C",
"X. c #D8AC85",
"o. c #CEB08F",
"O. c #D8B18D",
"+. c #CEB192",
"@. c #D4B594",
"#. c #D7B897",
"$. c #DABA97",
"%. c #D7B699",
"&. c #D2B898",
"*. c #DCBC9A",
"=. c #E0BE9C",
"-. c #D7BBA5",
";. c #D8BDA7",
":. c #BEC0B6",
">. c #BDC1B9",
",. c #D7C09F",
"<. c #DDC09D",
"1. c #EAC096",
"2. c #E2C19E",
"3. c #F1C297",
"4. c #C2C5BD",
"5. c #D6C7A6",
"6. c #E6C4A0",
"7. c #E9C6A2",
"8. c #ECC9A4",
"9. c #ECCFAA",
"0. c #F1CCA7",
"q. c #F8CCA2",
"w. c #F5CEAB",
"e. c #EDD2AC",
"r. c #F6D2AB",
"t. c #FAD5AD",
"y. c #FED8AF",
"u. c #F6D2B2",
"i. c #FBD7B2",
"p. c #FCDAB5",
"a. c #FCDDBD",
"s. c #FFE1B7",
"d. c #FFE5BB",
"f. c #FFEABE",
"g. c #AEC1C0",
"h. c #B7C8C5",
"j. c #FBDFC1",
"k. c #FEE4C3",
"l. c #FFEDC2",
"z. c #FFEBCB",
"x. c #FFF3C5",
"c. c #FFF5CA",
"v. c #FFFACC",
"b. c #FFEED2",
"n. c #FFF2D6",
"m. c #FFFED4",
"M. c #FFFFDE",
"N. c #CBEFF5",
"B. c #D3F6FA",
"V. c #D5F8FC",
"C. c #DDFFFF",
"Z. c #FFFFE6",
"A. c #FFFFEA",
"S. c #E1FFFF",
"D. c #ECFFFF",
"F. c #F0FFFF",
/* pixels */
"S.S.S.S.S.S.S.S.S.S.S.S.S.S.S.S.S.S.S.S.S.S.S.S.S.S.S.S.S.S.",
"S.C.D.F.D.D.D.D.D.D.D.D.D.F.D.D.D.D.D.D.D.D.D.D.D.D.F.F.S.S.",
"S.D.g.L U U U U R R R R U R R R U U U U R R R R U U P _ S.S.",
"S.S.' ..-.-.-.-.-.-.-.-.-.-.-.-.-.-.-.-.-.-.-.-.%.O.J v N.S.",
"S.C.4.k.n.b.b.b.b.b.b.b.b.b.b.b.b.b.b.b.b.b.b.z.d.i.1.E N.D.",
"S.C.>.u.k.j.j.j.a.j.a.a.j.a.a.j.j.j.a.j.j.a.a.p.r.*.K N B.S.",
"S.C.>.u.j.a.a.a.a.i.p.a.i.a.a.i.a.i.p.p.i.a.p.t.2. .C M B.D.",
"S.C.:.r.j.a.i.i.i.i.p.k.d.d.d.d.d.f.d.p.i.i.t.0.*.{ V M B.D.",
"S.C.[ u.a.a.i.r.d.c.i.2.*.2.=.2.*.<.*.i.c.f.r.7.#.~ B b V.D.",
"C.C.[ w.a.i.i.v.e.8 * * = = = = - - * * 8 e.x.7.@.W B b B.D.",
"S.C.[ w.p.i.v.| X ; F &.#.@.@.@.8.i.i./ ; X } f.@.~ B b V.S.",
"S.C.[ w.a.c.,.  s m.v.f.d.d.d.m.r.F Z i.Z.d   +.0.H B b V.D.",
"S.C.[ w.j.c.- 6 m.p.r.t.t.t.x.! O     . n A.9 = t.{ B b V.S.",
"S.C.[ w.z.@.@ 8.x.8.6 $.s.f.<.o . % % O   o.s.@ G o.B b V.D.",
"S.C.[ u.m.k : f.f.2.& +.f.x.h   % $ % %   9 c., y $.B b V.D.",
"S.C.[ w.m.k , l.d.7.; @.d.x.r   % $ % %   7 x.< r $.B b V.S.",
"S.C.>.w.n.^ % i.l.2.* o.d.x.{   + % % #   A x.& m @.B b V.D.",
"S.C.>.w.d.d.$ f m.r.} 9.i.y.f.y         6 M.v @ 2.{ B b V.D.",
"S.C.[ w.a.v.D   &.m.c.p.y.y.d.x.G 9 7 Z M.5.  Z t.W B b V.D.",
"S.C.[ w.a.p.m.r   d e.d.d.s.s.f.m.v.v.x.z   r f.#.W B b V.S.",
"S.C.4.w.a.i.p.v.D % & > , , , , , , > % % D c.0.@.~ B b V.D.",
"S.C.[ r.a.p.i.i.x.d.} v k c v v v v v { d.x.t.7.#.W B n V.S.",
"S.C.:.0.p.i.t.w.0.r.s.f.f.f.f.f.f.f.f.s.r.0.8.2.O.H p b V.D.",
"S.C.4.q.y.0.2.2.2.*.2.=.=.=.=.=.2.<.=.=.2.<.$.@.} G j l V.S.",
"S.C.] 3.2.$.o. .| | | | | | | | | | | | | | { W S V u l V.D.",
"S.S.] X. .H S Z Z Z Z Z Z Z Z Z Z Z Z Z Z Z Z v j i r r C.S.",
"S.D.) a p t q 0 5 5 5 5 0 0 0 0 0 0 5 0 0 0 5 4 3 2 1 e C.D.",
"S.D.h.T ( Q Y T Y Y Y T Y Y Y Y Y Y Y Y Y Y Y Y Y Q I ` S.S.",
"S.C.D.S.D.D.D.F.F.D.F.F.D.F.D.F.D.F.D.F.F.F.D.F.D.F.F.D.S.S.",
"S.S.S.S.S.S.S.S.S.S.S.S.S.S.S.S.S.S.S.S.S.S.S.S.S.S.S.S.S.S."
};
