/* XPM */
static char *showDescriptionNormal_xpm[] = {
/* columns rows colors chars-per-pixel */
"30 30 148 2 ",
"   c #040308",
".  c #130F13",
"X  c #141215",
"o  c #161518",
"O  c #1A1518",
"+  c #272222",
"@  c #2C2623",
"#  c #342D2B",
"$  c #36302C",
"%  c #3E3531",
"&  c #453B36",
"*  c #493F39",
"=  c #45413B",
"-  c #4C423B",
";  c #50463D",
":  c #624126",
">  c #674E37",
",  c #6D533B",
"<  c #71573E",
"1  c #74593F",
"2  c #564B42",
"3  c #5B4E45",
"4  c #5B5349",
"5  c #65574B",
"6  c #695A4E",
"7  c #755941",
"8  c #6D5E51",
"9  c #7C6046",
"0  c #7E654B",
"q  c #6C6051",
"w  c #706052",
"e  c #786758",
"r  c #7C695A",
"t  c #886A4F",
"y  c #826F5E",
"u  c #8C7155",
"i  c #88755E",
"p  c #9B7B5E",
"a  c #AB7B53",
"s  c #857261",
"d  c #8C7664",
"f  c #8E7865",
"g  c #817A6D",
"h  c #947E67",
"j  c #947E6A",
"k  c #867D70",
"l  c #9F8063",
"z  c #96826D",
"x  c #9D866D",
"c  c #8C8375",
"v  c #978470",
"b  c #988471",
"n  c #988B75",
"m  c #928779",
"M  c #9A8E7E",
"N  c #A28365",
"B  c #A68668",
"V  c #AF8E6E",
"C  c #A38B72",
"Z  c #AB9277",
"A  c #A0967E",
"S  c #AE947A",
"D  c #B0967D",
"F  c #B69C7F",
"G  c #CF9F75",
"H  c #C19E7B",
"J  c #818886",
"K  c #8A928E",
"L  c #91948D",
"P  c #8F9B9A",
"I  c #969D97",
"U  c #9A9E94",
"Y  c #909B99",
"T  c #AC9E8A",
"R  c #B49C81",
"E  c #BB9F82",
"W  c #9BA19A",
"Q  c #BBA082",
"!  c #A0A59E",
"~  c #A8A69A",
"^  c #99A6A4",
"/  c #9DA8A4",
"(  c #AAACA4",
")  c #BABBAF",
"_  c #BEBFB3",
"`  c #C1A587",
"'  c #C2A689",
"]  c #CBA68C",
"[  c #C5A88A",
"{  c #CBAC8E",
"}  c #D8AC85",
"|  c #D8B18D",
" . c #C6AB92",
".. c #CAAF91",
"X. c #CCB095",
"o. c #D4B595",
"O. c #DBBA97",
"+. c #D5B79B",
"@. c #DBBA99",
"#. c #E0BE9C",
"$. c #D7BBA5",
"%. c #D8BDA7",
"&. c #BEC0B6",
"*. c #BDC1B9",
"=. c #EAC096",
"-. c #E3C19D",
";. c #F1C297",
":. c #DDC3A1",
">. c #C2C5BD",
",. c #E5C5A2",
"<. c #E8C6A1",
"1. c #EBC8A5",
"2. c #EFCCA8",
"3. c #F1CDA7",
"4. c #F8CCA2",
"5. c #F5CFAB",
"6. c #F5D2AC",
"7. c #FBD5AD",
"8. c #FED8AF",
"9. c #F6D2B2",
"0. c #FDD7B1",
"q. c #F3DDB4",
"w. c #FEDAB2",
"e. c #FDDDBC",
"r. c #FFE0B6",
"t. c #FFE4BA",
"y. c #FFEABE",
"u. c #AEC1C0",
"i. c #B7C8C5",
"p. c #FBDFC2",
"a. c #FEE3C2",
"s. c #FFEDC2",
"d. c #FFEDCC",
"f. c #FFF3C6",
"g. c #FFF3CD",
"h. c #FFFECE",
"j. c #FFEFD2",
"k. c #FFF3D2",
"l. c #FFFFD0",
"z. c #FFFFDD",
"x. c #CBEFF5",
"c. c #D3F6FA",
"v. c #D5F8FC",
"b. c #DDFFFF",
"n. c LightYellow",
"m. c #E1FFFF",
"M. c #ECFFFF",
"N. c #F0FFFF",
/* pixels */
"m.m.m.m.m.m.m.m.m.m.m.m.m.m.m.m.b.m.m.m.m.m.m.m.m.m.m.m.m.m.",
"m.b.M.N.M.M.M.M.M.M.M.M.M.N.M.M.M.M.M.M.M.M.M.M.M.M.M.N.m.m.",
"m.M.u.J P Y P P Y Y Y Y Y Y Y Y P P P P Y Y Y Y Y Y K ^ b.m.",
"m.m.( ] $.$.$.$.$.$.$.$.$.$.$.$.$.$.$.$.$.$.$.$.O.| G b x.M.",
"m.b.>.a.k.j.j.j.j.j.j.j.j.j.j.j.j.j.j.j.j.j.j.d.t.0.=.T x.M.",
"m.b.*.9.a.p.p.p.d.k.k.j.k.g.g.g.g.g.k.g.k.d.a.w.6.@.H M c.M.",
"m.b.*.9.p.p.e.g.,. .X.X.X.X...X.X.X.X.X. .+.s.w.-.{ V m c.M.",
"m.b.&.6.p.e.d.v . # # $ # # $ $ # # # # # O 5 q.-.` B c c.m.",
"m.b._ 5.e.s.:.. n q.1.1.1.1.1.,.1.1.1.1.2.:.X d 8.E N c b.m.",
"m.b._ 5.e.d.' # w.s.r.r.r.r.r.r.r.r.r.r.t.l.2 8 8.E N c c.M.",
"m.b._ 9.e.s...$ 1.w.w.f.f.f.g.f.f.f.f.t.7.y.- e 7.E N c c.M.",
"m.b._ 5.e.s...# 1.f.-.8 6 8 8 8 q q 3 [ s.y.- e 8.E N c v.m.",
"m.b._ 5.e.s...# 1.f.@.; 2 2 2 2 2 2 % F s.y.; e 8.E N c v.m.",
"m.b.*.5.e.s...# 1.w.r.n.z.z.z.n.h.s.g.t.6.y.; e 7.E N c v.M.",
"m.b._ 5.e.s...# 1.s.,.y s d s e { t.7.7.8.y.; e 8.E N c v.M.",
"m.b.*.5.e.s...# 1.f.+.& & * - # D s.7.7.w.y.; e 8.E N c c.M.",
"m.b.*.2.p.s. .$ 1.r.w.y.y.y.y.s.r.6.8.7.8.y.; e 7.Q N c v.M.",
"m.b.%.5.p.d.' $ 6.t.w.w.w.8.8.8.w.8.w.w.w.f.3 q 8.Q N c v.m.",
"m.b.&.5.e.s.+.X O.g.t.y.y.8.7.t.s.r.t.t.f.s.+ r 0.Q N c v.m.",
"m.b.&.5.e.e.s.q X = * % 3 1.z.o.& % & & = + % ,.-.E N c v.M.",
"b.b.&.5.e.q.e.t.S d z y o 2.A   4 n h h d z 6.8.o.Q N c c.M.",
"m.b.&.5.e.0.0.w.f.f.h.y.- @ . F l.f.f.f.f.f.r.-.o.F N v v.m.",
"m.b.&.6.w.8.6.6.3.3.w.1.X @ 1.f.5.2.3.2.3.3.1.-.o.F l c v.M.",
"m.b.&.4.0.2.<.-.-.@.-.O.C 1.6.#.-.@.#.#.#.-.O.o.` Z h k v.M.",
"m.b._ ;.-.O.{ { [ [ ` [ -...` [ [ [ [ [ [ [ ` E Z x u k v.M.",
"m.m.) } { R S C C C C C C C C C C C C C C C C x h i 0 g b.m.",
"m.m.~ a p t 9 7 7 7 1 1 7 7 7 7 7 7 1 1 7 7 1 < , > : 8 b.M.",
"m.M.i.U ! W U U I I I U I I I I I I I I I I I I I I L / m.m.",
"m.m.M.m.M.M.M.N.M.N.N.M.N.N.M.N.N.M.N.N.M.N.N.N.M.N.N.M.m.m.",
"m.m.m.m.m.m.m.m.m.m.m.m.m.m.m.m.m.m.m.m.m.m.m.m.m.m.m.m.m.m."
};
