/* XPM */
static char *showTabDisabled_xpm[] = {
/* columns rows colors chars-per-pixel */
"30 30 196 2 ",
"   c #685F5F",
".  c #6B6666",
"X  c #6C6666",
"o  c #6C6767",
"O  c #6D6767",
"+  c #6D6868",
"@  c #6C6C6C",
"#  c #767171",
"$  c #7E7E7E",
"%  c #808080",
"&  c #818181",
"*  c gray51",
"=  c #838383",
"-  c #848484",
";  c gray52",
":  c #868686",
">  c #888585",
",  c #8C8686",
"<  c #808989",
"1  c #858989",
"2  c #868A8A",
"3  c #868B8B",
"4  c #878B8B",
"5  c gray54",
"6  c #8B8B8B",
"7  c #8E8B8B",
"8  c gray55",
"9  c #8D8C8C",
"0  c #8D8D8D",
"q  c gray56",
"w  c #928F8F",
"e  c #8B9090",
"r  c #889393",
"t  c #8F9A9A",
"y  c #8F9B9B",
"u  c #909090",
"i  c gray57",
"p  c #939091",
"a  c #929292",
"s  c #939393",
"d  c #949190",
"f  c #949191",
"g  c gray58",
"h  c #959595",
"j  c gray59",
"k  c #979797",
"l  c #9D9191",
"z  c #989595",
"x  c #959E9E",
"c  c #989898",
"v  c gray60",
"b  c #9A9A9A",
"n  c #9B9B9B",
"m  c gray61",
"M  c gray62",
"N  c #94A0A0",
"B  c #94A1A1",
"V  c #95A1A1",
"C  c #95A2A2",
"Z  c #9DA1A1",
"A  c #99A6A6",
"S  c #98A7A7",
"D  c #9BAAAB",
"F  c gray63",
"G  c #A2A2A2",
"H  c gray64",
"J  c #A4A4A4",
"K  c #A5A5A5",
"L  c gray65",
"P  c #A7A7A7",
"I  c #A8A5A5",
"U  c #A5ADAD",
"Y  c #A5AEAE",
"T  c gray66",
"R  c #A9A9A9",
"E  c #AAA9A9",
"W  c #AAAAAA",
"Q  c #ACACAC",
"!  c #AEAEAE",
"~  c #B7ACAC",
"^  c gray69",
"/  c #B1B1B1",
"(  c #B2B2B2",
")  c #B3B2B3",
"_  c gray70",
"`  c #B4B4B4",
"'  c gray71",
"]  c #B6B6B6",
"[  c #B7B7B7",
"{  c #BBB2B2",
"}  c gray72",
"|  c #B9B9B9",
" . c gray73",
".. c #BBBBBB",
"X. c #BCBCBC",
"o. c gray",
"O. c gray75",
"+. c #C2BCBC",
"@. c #C4BFBF",
"#. c #AEC1C1",
"$. c #B6C2C2",
"%. c #B6C3C3",
"&. c #B7C3C3",
"*. c #BBC7C7",
"=. c #B5C9C9",
"-. c #C0C0C0",
";. c #C1C1C1",
":. c gray76",
">. c #C3C3C3",
",. c #C6C1C1",
"<. c #C7C1C1",
"1. c #C7C2C2",
"2. c gray77",
"3. c #C5C5C5",
"4. c #C6C6C6",
"5. c gray78",
"6. c #C8C8C8",
"7. c gray79",
"8. c #CACACA",
"9. c #CBCBCB",
"0. c gray80",
"q. c #CDCDCD",
"w. c #CECECE",
"e. c gray81",
"r. c #D1CCCC",
"t. c #D0D0D0",
"y. c gray82",
"u. c #D2D2D2",
"i. c LightGray",
"p. c #D4D0D0",
"a. c gray83",
"s. c #D5D5D5",
"d. c gray84",
"f. c #D7D7D7",
"g. c #DAD4D4",
"h. c #DBD5D5",
"j. c #DBD6D6",
"k. c #DCD6D6",
"l. c #DCD7D7",
"z. c #D8D8D8",
"x. c gray85",
"c. c #DADADA",
"v. c gray86",
"b. c #DDD8D8",
"n. c gainsboro",
"m. c #DDDDDD",
"M. c gray87",
"N. c #DFDFDF",
"B. c #CEECED",
"V. c #CFEEEE",
"C. c #D5F4F4",
"Z. c #D6F5F5",
"A. c #D7F6F6",
"S. c #D8F7F7",
"D. c #D8F8F8",
"F. c #DFFDFD",
"G. c #DEFFFF",
"H. c #DFFFFF",
"J. c gray88",
"K. c #E1E1E1",
"L. c #E2E2E2",
"P. c gray89",
"I. c #E4E4E4",
"U. c gray90",
"Y. c #E6E6E6",
"T. c #E7E7E7",
"R. c #EDE7E7",
"E. c gray91",
"W. c #E9E9E9",
"Q. c #EAEAEA",
"!. c gray92",
"~. c gray93",
"^. c #EEEEEE",
"/. c #EFEFEF",
"(. c #E0FDFD",
"). c LightCyan",
"_. c #E1FFFF",
"`. c #E2FFFF",
"'. c #E5FFFF",
"]. c #E6FFFF",
"[. c #E8FFFF",
"{. c #E9FFFF",
"}. c #EBFFFF",
"|. c #ECFFFF",
" X c #EDFFFF",
".X c #EEFFFF",
"XX c gray94",
"oX c #F1F1F1",
"OX c gray95",
"+X c #F3F3F3",
"@X c #F4F4F4",
"#X c gray96",
"$X c #F6F6F6",
"%X c gray97",
"&X c azure",
"*X c #F1FFFF",
/* pixels */
"_._._._._._._._._._._._._._._._._._._._._._._._._._._._._._.",
"_.H.|.*X.X.X.X.X.X.X.X.X.X.X.X.X.X.X.X.X.X.X.X.X.X.X&X*X`.).",
"_..X#.< y y y y y y y y y y y y y y y y y y y y y y r S (.'.",
"_.].U ~ 1.,.<.,.,.,.,.,.,.,.,.,.,.,.,.,.,.,.,.,.@.+.{ 9 B.{.",
"_.G.*.R.$X#X#X@X@X@X@X@X@X@X@X@X@X@X@X@X@X@X@X+XoXQ.p.Z V.[.",
"_.).&.b.T.U.P.P.P.P.P.P.P.P.P.P.P.P.P.P.P.P.P.L.M.6.I e C.[.",
"_.).$.l.I.J.N.M.m.m.m.m.m.m.m.m.m.m.m.m.m.m.M.m.e._ z 4 Z.[.",
"_.).&.k.P.M.v.c.x.x.n.N.N.N.N.N.N.N.N.n.x.x.c.s.>.W p 2 A.[.",
"_.).&.k.P.M.v.f.N.Y.c.t.e.t.t.t.t.e.t.c.Y.J.z.u.-.T d 3 A.[.",
"_.).&.k.P.M.c.Y.f.K g h k k k k k k h s K z.Y.u.;.R d 3 A.[.",
"_.).&.j.P.m.E.7.: b O.q.q.0.0.0.i.v.c.7.v : 7.N.-.R d 3 A.[.",
"_.).&.j.L.E.y.* / !.W.J.N.N.J.!.x.o.X.x.#X` = 9.8.R d 3 A.[.",
"_.).&.k.I.W.c G ^.n.z.x.x.z.I.2.8 = = :  .%XP j 0.W f 3 A.[.",
"_.).&.k.!.w.q a.U.i.H w.M.K.t.5 : a a 6 % 9.M.a ] ^ f 3 A.[.",
"_.).&.k./...b K.N.u.g 9.K.Y._ * a i i a = L E.M P _ f 3 A.[.",
"_.).&.k.XX| n L.M.i.v 0.J.Y.^ * a i i i - H E.F L ) d 3 A.[.",
"_.).&.k.~.5.a x.P.u.g 9.J.I.3.= 8 a i u $ ..Y.j ^ / d 3 A.[.",
"_.).&.k.Y.P.u ' ~.f.5.d.v.c.L./ % = ; $ G oX..q 5.Q f 3 A.[.",
"_.).&.k.L.!.-.& q.~.T.n.c.c.N.P.;.L J X.OXd.* | q.R f 3 A.[.",
"_.).&.k.P.N.W.^ & _ z.J.N.N.M.J.Q.W.T.U.| % / J.:.R d 3 A.[.",
"_.).&.k.P.m.m.T.O.i g n n n n n n m n s a -.E.s.-.R d 3 A.[.",
"_.).&.k.P.M.v.c.Y.J.5.| } | | | | } | 5.J.T.v.i.>.E f 3 A.[.",
"_._.$.k.P.N.n.x.z.c.J.I.I.I.I.I.I.I.I.J.c.x.x.y.;.R f 4 A.[.",
"_._.$.h.P.v.u.0.0.0.0.0.0.0.0.0.0.0.0.0.0.q.0.4.} K w 2 A.[.",
"_._.%.g.v.4.[ ( / ( ( ( ( ( ( ( ( ( ( ( ( ( ( ! L b 7 2 A.[.",
"_._.&.r.;.L v h h h h h h h h h h h h h h h g g u 0 > 1 S.[.",
"_.[.Y l , # + . o o o o o o o o o o o o o o o X X O   @ D.{.",
"_.}.=.x A C N N B B B B B B B B B B B B B B B B V C t D F.'.",
"_.).{.}. X&X*X*X*X*X*X*X*X*X*X*X*X*X*X*X*X*X*X*X*X&X&X&X`.).",
"_._._._._._._._._._._._._._._._._._._._._._._._._._._._._._."
};
