/* XPM */
static char *showSubTitleMouseOver_xpm[] = {
/* columns rows colors chars-per-pixel */
"30 30 180 2 ",
"   c black",
".  c #0A0910",
"X  c #121014",
"o  c #1D1A1A",
"O  c #221E1F",
"+  c #2C2323",
"@  c #2E2826",
"#  c #322827",
"$  c #312A28",
"%  c #3A312E",
"&  c #3F3B34",
"*  c #433A35",
"=  c #493E39",
"-  c #4D423B",
";  c #51463E",
":  c #4F4E44",
">  c #544941",
",  c #594C44",
"<  c #5F5248",
"1  c #614E44",
"2  c #62554A",
"3  c #64594D",
"4  c #6B5B4E",
"5  c #6C5D51",
"6  c #725D50",
"7  c #736355",
"8  c #786756",
"9  c #786758",
"0  c #77695A",
"q  c #7C6B5C",
"w  c #6F765D",
"e  c #747A5F",
"r  c #797F65",
"t  c #777D62",
"y  c #8C484B",
"u  c #80524D",
"i  c #855751",
"p  c #8D5E57",
"a  c #8F5F58",
"s  c #826D5D",
"d  c #8C6759",
"f  c #96655C",
"g  c #88735F",
"h  c #847361",
"j  c #8D7865",
"k  c #857868",
"l  c #8C7663",
"z  c #917C67",
"x  c #927D69",
"c  c #9B7463",
"v  c #A16E65",
"b  c #A77D6B",
"n  c #578062",
"m  c #598965",
"M  c #5F9265",
"N  c #589068",
"B  c #579969",
"V  c #5B9C69",
"C  c #638C64",
"Z  c #7B8065",
"A  c #639769",
"S  c #65986A",
"D  c #73946E",
"F  c #7F9E76",
"G  c #5FB776",
"H  c #55B072",
"J  c #3EE67C",
"K  c #3FEB7D",
"L  c #40D579",
"P  c #49DD7F",
"I  c #45DA7D",
"U  c #808468",
"Y  c #8B866D",
"T  c #96826D",
"R  c #9D866E",
"E  c #9B8571",
"W  c #9E8E74",
"Q  c #9A9A7A",
"!  c #A38C73",
"~  c #A88F78",
"^  c #AD8370",
"/  c #B18672",
"(  c #B58875",
")  c #AD957C",
"_  c #A3987F",
"`  c #AB9277",
"'  c #B4977C",
"]  c #B59B7F",
"[  c #BE917B",
"{  c #83B07E",
"}  c #4ADD80",
"|  c #4DE182",
" . c #41EA81",
".. c #55E584",
"X. c #58E585",
"o. c #52EF87",
"O. c #58E987",
"+. c #59EC88",
"@. c #4DF385",
"#. c #4DF689",
"$. c #47F487",
"%. c #51F68B",
"&. c #51F88C",
"*. c #58F38A",
"=. c #B49B82",
"-. c #BA9F83",
";. c #82A480",
":. c #86B585",
">. c #86B788",
",. c #8BBB8B",
"<. c #BCA183",
"1. c #B6A589",
"2. c #B9A088",
"3. c #BDAC8F",
"4. c #E18583",
"5. c #C1A586",
"6. c #CFA087",
"7. c #C2A589",
"8. c #C5A88A",
"9. c #CBAC8D",
"0. c #C1AC91",
"q. c #CEB292",
"w. c #CFB79F",
"e. c #C0B898",
"r. c #D4B594",
"t. c #D7B896",
"y. c #DAB997",
"u. c #D1B798",
"i. c #DCBB99",
"p. c #F4A79B",
"a. c #E1BF9B",
"s. c #F3B19B",
"d. c #F0BBAF",
"f. c #F1B6A3",
"g. c #EEBEB7",
"h. c #F0BFBB",
"j. c #F1B1BC",
"k. c #E5C39E",
"l. c #DDC3A9",
"z. c #D1D0AD",
"x. c #E7C5A1",
"c. c #E8C6A1",
"v. c #EDC9A5",
"b. c #F1CDA7",
"n. c #FFC7AC",
"m. c #F3CFA9",
"M. c #F9CFA8",
"N. c #F9C2A2",
"B. c #F4D0AB",
"V. c #FBD5AE",
"C. c #FED8AF",
"Z. c #EFC0BB",
"A. c #F1C1BC",
"S. c #EDD5B3",
"D. c #EDDFB9",
"F. c #FAD6B2",
"G. c #FDDAB4",
"H. c #FFD2BC",
"J. c #FDDDBB",
"K. c #F6D8BB",
"L. c #FFE0B6",
"P. c #FFE3BA",
"I. c #FFE9BE",
"U. c #FFD3C2",
"Y. c #FBDFC1",
"T. c #FFD8C9",
"R. c #FDE3C2",
"E. c #FFECC1",
"W. c #FFEDCC",
"Q. c #FFF1C5",
"!. c #FFF6C9",
"~. c #FFFACB",
"^. c #FFEED2",
"/. c #FFE8DA",
"(. c #FFF1D5",
"). c #FFFED3",
"_. c #FFFDDC",
"`. c #FFFFE3",
"'. c #FFFFE8",
"]. c #FFFFF6",
/* pixels */
"X.X.X.X.X.X.X.X.X.X.X.X.X.X.X.X.X.X.X.X.X.X.X.X.X.X.X.X.X.X.",
"X.X.*.@.@.@.@.@.@.@.@.@.@.@.@.@.@.$.@.@.@.@.@.@.@.@.#.%.X.X.",
"X.*.H n N N N N N N N N N N N N N N N N N N N N N N m B ..+.",
"X.J { j.A.Z.h.A.Z.Z.Z.Z.Z.Z.Z.h.Z.Z.Z.Z.Z.Z.h.g.d.f.p.E L +.",
"X.J ,././.(.^.(.^.^.^.^.W._.`.^._./.^.^.^.^.^.W.R.C.N.Q L *.",
"..J >.T.R.R.Y.Y.J.Y.Y.R.W.l.w.W.S.Y.Y.K.J.Y.J.G.B.i.6.Y I +.",
"..J :.U.Y.J.J.K.K.G.J.B.).2.- 3.$ !.).F.K.G.G.V.k.9.[ U P +.",
"X.J :.U.Y.K.G.F.F.F.R.u.# 7.3.x 1.=.E P.G.F.V.b.i.5.( Z P +.",
"X.J :.U.J.K.F.F.E.!.~.E.W ~ 5 = q.2 j ).~.E.B.c.t.5.( r ..+.",
"X.J :.U.J.F.G.E.7.g s 9.].h 6 q.% Q.L.j s 8.I.c.t.] / r P +.",
"X.J :.U.J.G.Q.q X : % 0.D.O u.I., I.E.< * o E P.t.] / r P +.",
"X.J :.U.J.J.P.q <.~.).~.+ s `.! . 5 5 v.'.T + F.i.5./ U P +.",
"X.J :.U.J.G.I.) , 1 7 * 4 ~.P.r.R T 8 * S.9.* B.i.5./ r P +.",
"X.J :.U.J.J.L.* x z.* - ~.G.M.P.!.!.).> ' 9.* M.i.] / r P +.",
"X.J :.U.J.J.G., t.`.8 ! ~.V.V.V.V.P.x.- B.<.* m.a.5./ Z P +.",
"X.J :.U.J.L.G., 8.).4 j Q.V.V.V.C.P.q.; I.<.* m.i.] / Z P +.",
"X.J :.U.J.J.G.> t.'.5 j !.V.V.V.V.Q.! ; ).=.* B.i.] ( Z P *.",
"X.J :.U.J.G.G.4 W 3.5 ~ _.P.G.F.V.!.7 9 ).) * B.k.] / Z P +.",
"X.J :.U.J.P.G.4 j ) j O Y r.L.E.~.P.@ 7.).) = m.i.] / Z P +.",
"X.J :.U.J.J.P.4 2 k * 8 h > , 5 9 * 8 I.!.<.* m.k.] / Z P *.",
"X.J :.U.J.G.E.) 2 ! <.!.).G.<.<.! -.E.E.~.h $ G.k.] / Z P +.",
"X.J :.H.J.G.Q.=.% 3 3 = + -.'.] > 2 ; = * O ) G.y.] / Z P +.",
"X.J :.H.G.F.V.P.r.R ! 1.- = 3 o T ) ! ! R t.P.k.9.] ^ k ..+.",
"X.K :.H.G.b.k.a.m.G.C.~.x   ; k.P.V.V.V.G.b.i.q.5.` ^ r P +.",
"X.J :.n.c.t.9.8.8.8.8.r.T 8 k.t.7.8.8.8.8.8.5.<.` R c e P *.",
"X. .{ s.9.=.` ^ ! ! ! R ' <.! ! ! ! ! ! ! R R R T g d w P +.",
"X. .F 4.( v f d p p p p p p p p p p p p p p p p i 6 y 7 ..*.",
"X.*.G D S A A M M A M M M M M M C M M M M M M A C M C V P +.",
"X.X.*. .$.#.#.#.@.%.%.%.&.&.%.&.&.&.%.%.&.&.%.%.%.%.*.*.+.X.",
"X.X.X.X.X.X.X.X.X.X.X.X.X...X.X.....X.X.....X.X.+.P X.X.X.X."
};
