/* XPM */
static char *showDescriptionDisabled_xpm[] = {
/* columns rows colors chars-per-pixel */
"30 30 179 2 ",
"   c #685F5F",
".  c #6B6666",
"X  c #6C6666",
"o  c #6C6767",
"O  c #6D6767",
"+  c #6D6868",
"@  c #6C6C6C",
"#  c #767171",
"$  c #848484",
"%  c #888585",
"&  c #8C8686",
"*  c #808989",
"=  c #858989",
"-  c #868A8A",
";  c #868B8B",
":  c #878B8B",
">  c gray54",
",  c #8B8B8B",
"<  c #8E8B8B",
"1  c gray55",
"2  c #8D8C8C",
"3  c #8D8D8D",
"4  c #8E8E8E",
"5  c #928F8F",
"6  c #8B9090",
"7  c #889393",
"8  c #8F9A9A",
"9  c #8F9B9B",
"0  c #909090",
"q  c gray57",
"w  c #939091",
"e  c #929292",
"r  c #939393",
"t  c #949190",
"y  c #949191",
"u  c gray58",
"i  c #959595",
"p  c gray59",
"a  c #979797",
"s  c #9D9191",
"d  c #989595",
"f  c #959E9E",
"g  c gray60",
"h  c #9A9A9A",
"j  c #9B9B9B",
"k  c gray61",
"l  c #9D9D9D",
"z  c gray62",
"x  c #9F9F9F",
"c  c #94A0A0",
"v  c #94A1A1",
"b  c #95A1A1",
"n  c #95A2A2",
"m  c #9DA1A1",
"M  c #99A6A6",
"N  c #98A7A7",
"B  c #9BAAAB",
"V  c #A0A0A0",
"C  c gray63",
"Z  c #A2A2A2",
"A  c gray64",
"S  c #A5A5A5",
"D  c gray65",
"F  c #A8A5A5",
"G  c #A5ADAD",
"H  c #A5AEAE",
"J  c gray66",
"K  c #A9A9A9",
"L  c #AAAAAA",
"P  c gray68",
"I  c #AEAEAE",
"U  c #B7ACAC",
"Y  c #B1B1B1",
"T  c #B2B2B2",
"R  c gray70",
"E  c #B4B4B4",
"W  c gray71",
"Q  c #B6B6B6",
"!  c #B7B7B7",
"~  c #BBB2B2",
"^  c gray72",
"/  c #B9B9B9",
"(  c gray73",
")  c #BBBBBB",
"_  c #BCBCBC",
"`  c gray75",
"'  c #C2BCBC",
"]  c #C4BFBF",
"[  c #AEC1C1",
"{  c #B6C2C2",
"}  c #B6C3C3",
"|  c #B7C3C3",
" . c #BBC7C7",
".. c #B5C9C9",
"X. c #C0C0C0",
"o. c #C1C1C1",
"O. c gray76",
"+. c #C3C3C3",
"@. c #C6C1C1",
"#. c #C7C1C1",
"$. c #C7C2C2",
"%. c #C5C5C5",
"&. c #C6C6C6",
"*. c gray78",
"=. c #C8C8C8",
"-. c gray79",
";. c #CACACA",
":. c #CBCBCB",
">. c gray80",
",. c #CDCDCD",
"<. c #CECECE",
"1. c gray81",
"2. c #D1CCCC",
"3. c gray82",
"4. c #D2D2D2",
"5. c LightGray",
"6. c #D4D0D0",
"7. c gray83",
"8. c #D5D5D5",
"9. c gray84",
"0. c #D7D7D7",
"q. c #DAD4D4",
"w. c #DBD5D5",
"e. c #DCD6D6",
"r. c #DCD7D7",
"t. c #D8D8D8",
"y. c gray85",
"u. c #DADADA",
"i. c gray86",
"p. c #DDD8D8",
"a. c gainsboro",
"s. c #DDDDDD",
"d. c gray87",
"f. c #DFDFDF",
"g. c #CEECED",
"h. c #CFEEEE",
"j. c #D5F4F4",
"k. c #D6F5F5",
"l. c #D7F6F6",
"z. c #D8F7F7",
"x. c #D8F8F8",
"c. c #DFFDFD",
"v. c #DEFFFF",
"b. c #DFFFFF",
"n. c gray88",
"m. c #E1E1E1",
"M. c #E2E2E2",
"N. c gray89",
"B. c #E4E4E4",
"V. c gray90",
"C. c #E6E6E6",
"Z. c #E7E7E7",
"A. c #EDE7E7",
"S. c gray91",
"D. c #E9E9E9",
"F. c #EAEAEA",
"G. c gray92",
"H. c #ECECEC",
"J. c #E0FDFD",
"K. c LightCyan",
"L. c #E1FFFF",
"P. c #E2FFFF",
"I. c #E5FFFF",
"U. c #E6FFFF",
"Y. c #E8FFFF",
"T. c #E9FFFF",
"R. c #EBFFFF",
"E. c #ECFFFF",
"W. c #EDFFFF",
"Q. c #EEFFFF",
"!. c gray94",
"~. c #F1F1F1",
"^. c gray95",
"/. c #F3F3F3",
"(. c #F4F4F4",
"). c gray96",
"_. c #F6F6F6",
"`. c azure",
"'. c #F1FFFF",
/* pixels */
"L.L.L.L.L.L.L.L.L.L.L.L.L.L.L.L.L.L.L.L.L.L.L.L.L.L.L.L.L.L.",
"L.b.E.'.Q.Q.Q.Q.Q.Q.Q.Q.Q.Q.Q.Q.Q.Q.Q.Q.Q.Q.Q.Q.Q.Q.`.'.P.K.",
"L.Q.[ * 9 9 9 9 9 9 9 9 9 9 9 9 9 9 9 9 9 9 9 9 9 9 7 N J.I.",
"L.U.G U $.@.#.@.@.@.@.@.@.@.@.@.@.@.@.@.@.@.@.@.] ' ~ 2 g.T.",
"L.v. .A._.).).(.(.(.(.(.(.(.(.(.(.(.(.(.(.(.(./.~.F.6.m h.Y.",
"L.K.| p.Z.V.N.N.D.H.G.G.G.G.G.G.G.G.G.G.G.G.V.m.d.=.F 6 j.Y.",
"L.K.{ r.B.n.n.Z.8.;.>.,.,.,.,.,.,.,.,.,.:.1.V.m.<.R d : k.Y.",
"L.K.| e.N.d.V./ , i a p p p p p p p i i i 1 J y.%.L w - l.Y.",
"L.K.| e.N.B.4.> _ a.7.7.7.7.7.7.7.5.5.5.9.4.4 T ,.J t ; l.Y.",
"L.K.| e.N.C.*.p a.M.d.d.d.d.d.d.d.d.d.d.f.F.Z K 1.K t ; l.Y.",
"L.K.| e.N.C.;.a 7.a.a.C.V.V.V.V.V.V.C.d.t.M.V P <.K t ; l.Y.",
"L.K.| e.N.C.;.a 7.N.3.K J L L L L K A &.M.M.C P <.K t ; l.Y.",
"L.K.| e.N.C.;.a 7.B.1.C V A A A A Z j +.N.M.C P <.K t ; l.Y.",
"L.K.| e.N.C.;.a 7.i.d.^.~.!.!.^.F.M.C.d.t.M.C P <.K t ; l.Y.",
"L.K.| e.N.C.;.a 7.N.3.Y T R R P -.n.y.y.u.M.C P <.K t ; l.Y.",
"L.K.| e.N.C.;.a 7.V.<.k j z z a X.N.y.y.u.M.C P <.K t ; l.Y.",
"L.K.| e.N.C.;.a 7.a.i.M.m.m.m.N.s.0.y.y.u.M.C P <.K t ; l.Y.",
"L.K.| e.N.C.-.a y.f.u.i.a.u.u.u.u.u.u.u.i.C.A L 1.K t ; l.Y.",
"L.K.| e.N.C.<., <.S.n.n.m.u.0.m.N.f.n.n.N.N.u P <.K t ; l.Y.",
"L.K.| e.N.n.M.K 1 z k h A 7.!.,.g h l l x q h 3.&.K t ; l.Y.",
"L.K.| e.N.s.f.n.` R ( Y 1 9.X.$ D _ Q Q E ! y.u.o.K t ; l.Y.",
"L.K.| e.N.d.i.a.V.C.G.M.z e > O.H.Z.C.C.C.Z.f.4.O.K y ; l.Y.",
"L.L.{ e.N.f.a.y.t.t.a.8.4 r 0.Z.t.t.t.t.t.y.y.3.o.K y : l.Y.",
"L.L.{ w.N.i.4.>.>.>.,.;.( 3.8.;.>.>.>.>.>.,.>.%.^ S 5 - l.Y.",
"L.L.} q.i.&.! T Y T Y R ) W Y T T T T T T T T I D h < - l.Y.",
"L.L.| 2.o.D g i i i i i i i i i i i i i i i u u 0 3 % = z.Y.",
"L.Y.H s & # + . o o o o o o o o o o o o o o o X X O   @ x.T.",
"L.R...f M n c c v v v v v v v v v v v v v v v v b n 8 B c.I.",
"L.K.T.R.W.`.'.'.'.'.'.'.'.'.'.'.'.'.'.'.'.'.'.'.'.`.`.`.P.K.",
"L.L.L.L.L.L.L.L.L.L.L.L.L.L.L.L.L.L.L.L.L.L.L.L.L.L.L.L.L.L."
};
