/* XPM */
static char *showTabPressed_xpm[] = {
/* columns rows colors chars-per-pixel */
"30 30 136 2 ",
"   c #000001",
".  c #040208",
"X  c #0B090E",
"o  c #110F13",
"O  c #171416",
"+  c #1C1415",
"@  c #191719",
"#  c #1E191B",
"$  c #231E1F",
"%  c #3C2214",
"&  c #231F20",
"*  c #252121",
"=  c #322D2B",
"-  c #3B322F",
";  c #3E3632",
":  c #573A27",
">  c #533B29",
",  c #403A36",
"<  c #433B38",
"1  c #4D433E",
"2  c #584739",
"3  c #59483A",
"4  c #67523F",
"5  c #4F4640",
"6  c #4F4C46",
"7  c #514641",
"8  c #514842",
"9  c #5C4D44",
"0  c #565149",
"q  c #5C514A",
"w  c #5B584F",
"e  c #675341",
"r  c #6A5544",
"t  c #64574F",
"y  c #665A51",
"u  c #6A5D54",
"i  c #6D6156",
"p  c #696258",
"a  c #73655B",
"s  c #70685F",
"d  c #7A695E",
"f  c #776A62",
"g  c #7A6C60",
"h  c #7E7064",
"j  c #836C5B",
"k  c #87725E",
"l  c #847465",
"z  c #8A7768",
"x  c #857A6B",
"c  c #8E7D6C",
"v  c #917E6E",
"b  c #8F806D",
"n  c #92816F",
"m  c #878279",
"M  c #88857D",
"N  c #948574",
"B  c #988575",
"V  c #9A8976",
"C  c #9E8A79",
"Z  c #A28F7D",
"A  c #A7937F",
"S  c #787F80",
"D  c #7E8786",
"F  c #838784",
"G  c #878B86",
"H  c #8D918C",
"J  c #9F9381",
"K  c #869291",
"L  c #889393",
"P  c #939B97",
"I  c #A49685",
"U  c #A99683",
"Y  c #AD9A85",
"T  c #AE9F8E",
"R  c #B09D87",
"E  c #B29E89",
"W  c #99A09B",
"Q  c #B4A18D",
"!  c #BCA68F",
"~  c #AFA092",
"^  c #B6A794",
"/  c #BDA790",
"(  c #BEA991",
")  c #B7A998",
"_  c #BBAB98",
"`  c #93A1A0",
"'  c #9EA7A3",
"]  c #9EA8A3",
"[  c #A0ADAB",
"{  c #ABBEBE",
"}  c #C4AE95",
"|  c #C7B198",
" . c #CDB69D",
".. c #C5B3A1",
"X. c #CEB9A3",
"o. c #C7BEA8",
"O. c #D4BCA2",
"+. c #D8BEA4",
"@. c #DBC1A7",
"#. c #D6C3AE",
"$. c #DBC5AB",
"%. c #D7C4B0",
"&. c #DECAB2",
"*. c #DFD1B6",
"=. c #E1C7AC",
"-. c #E5CAAE",
";. c #E4CDB2",
":. c #EDD1B5",
">. c #E9D3BA",
",. c #EBD8BB",
"<. c #F0D4B7",
"1. c #F2D6BA",
"2. c #F5DABD",
"3. c #FADCBE",
"4. c #B0C2C0",
"5. c #F1DAC2",
"6. c #FDDEC0",
"7. c #F2E1C5",
"8. c #FCE2C5",
"9. c #FFE8C7",
"0. c #FEE5CA",
"q. c #FEECCC",
"w. c #FFF0CF",
"e. c #FFECD0",
"r. c #FFF5D3",
"t. c #FFF9D6",
"y. c #FFFEDC",
"u. c #D6F7F9",
"i. c #D7F8FA",
"p. c #DCFDFE",
"a. c #FFFFE3",
"s. c #FFFFED",
"d. c #E1FFFF",
"f. c #EAFFFF",
"g. c #F3FFFF",
"h. c #FBFFFE",
/* pixels */
"d.d.d.d.d.d.d.d.d.d.d.d.d.d.d.d.f.p.d.d.d.d.d.d.d.d.d.d.d.d.",
"d.p.g.h.g.g.h.g.h.g.g.g.h.g.h.g.g.g.g.h.g.g.g.g.g.h.h.g.p.p.",
"d.g.{ S K K K K K K K K K K K K K K K K H K K K K K D ` d.f.",
"d.g.F % 2 2 3 2 2 3 3 3 3 3 3 3 3 3 3 3 3 3 3 3 2 3 > y i.f.",
"d.g.P 4 l l c b b c n n c b b c b b b c c n v v x l k m p.f.",
"d.f.P e z V U Y Y Y Y R Y Y Y Y Y Y Y Y Y Y Y U U C n M u.f.",
"d.g.P r N Y |  . . . . . . . . . . . . . . .X.O.| Q V M u.f.",
"d.g.P r V ! @.=.-.-.-.-.-.-.-.;.:.-.-.-.-.-.:.<.$._ C M u.f.",
"d.f.P r V / @.:.2.3.w.t.y.y.t.y.y.y.t.e.3.3.8.3.=._ Z m u.f.",
"d.f.P r V / @.:.r.t./ l d h h h g g l ( t.t.6.5.&._ C M u.f.",
"d.g.P r V ( @.w.&.; = 0 y y y t i l p = ; ;.a.1.&._ C F u.d.",
"d.g.W r V / 3.$.o i q.y.y.y.t.s.a.8.q.a.p X *.t.$._ V m u.f.",
"d.f.P r V ( 3.= u s.t.q.3.3.t.$., O # x h.d - r.;.} J M u.f.",
"d.g.P r V @.C = 9.a.B C r.q.,.*   @ o   z s.= Q 5._ C M u.f.",
"p.g.P r V =.u t y.y.q y a.y.B   * & & o $ q.a f e._ C c u.d.",
"d.g.P r V -.t y y.y.u i y.y.z   * & & @ O 9.f f e._ C F u.f.",
"d.g.P r V @.x < r.y.a g y.r.O.. X * $   9 a.1 C 0._ Z F i.f.",
"p.g.P r V | =.$ U s.:.:.8.6.t.I X     - y._ # 7.>._ C c u.f.",
"d.g.P r V / 8.U . ^ s.s.r.t.y.s.8.! O.s.o.  T y.$._ C M u.f.",
"d.g.P e V / @.t.J O 6 N A V C C Q | Q w O I a.5.$._ C M u.f.",
"p.g.P r V } +.<.a.;.a 7 5 7 7 6 8 1 1 a -.y.8.5.&._ C M u.f.",
"d.g.P r V / @.<.6.r.a.r.r.r.r.r.r.r.t.a.r.6.8.5.&._ C M u.f.",
"d.g.P r V / -.3.0.6.5.0.6.0.6.0.8.8.8.8.8.8.8.5.&._ C F u.f.",
"p.g.P r B / =.1.5.5.5.5.5.5.5.5.5.5.5.5.5.5.5.,.#.^ V c u.f.",
"d.g.P e N R X.%.%.%.%.%.+.%.%.%.%.%.%.%.%.%.%.+...~ B F u.d.",
"d.g.P 4 v I ^ ) ) ) ) ) ) / _ _ ) ) ) ) ) ^ ) ^ ~ I B M u.f.",
"d.g.G : j c v c c c c c z v v z c v c c c c v c z z j f u.f.",
"d.f.4.H ' ' ' ' ' ' ' ' [ W [ [ ' ' ' ' ' ' ' ' [ [ P [ d.d.",
"d.p.f.g.f.f.f.f.f.f.f.f.f.f.f.f.f.f.f.f.f.f.f.f.g.f.f.g.d.d.",
"d.d.d.d.d.f.d.d.d.d.d.d.d.d.d.d.d.d.d.d.d.f.d.d.d.d.d.d.d.d."
};
