/* XPM */
static char *showDescriptionMouseOver_xpm[] = {
/* columns rows colors chars-per-pixel */
"30 30 164 2 ",
"   c #040308",
".  c #130F13",
"X  c #141215",
"o  c #161518",
"O  c #1A1518",
"+  c #272222",
"@  c #2C2623",
"#  c #342D2B",
"$  c #36302C",
"%  c #3E3531",
"&  c #453B36",
"*  c #493F39",
"=  c #45413B",
"-  c #4C423B",
";  c #50463D",
":  c #564B42",
">  c #5B4E45",
",  c #5B5349",
"<  c #695A4E",
"1  c #65574B",
"2  c #6D5E51",
"3  c #706053",
"4  c #786758",
"5  c #7C695A",
"6  c #6F765D",
"7  c #747A5F",
"8  c #777D62",
"9  c #797F65",
"0  c #8C484B",
"q  c #80524D",
"w  c #855751",
"e  c #8D5E57",
"r  c #8F5F58",
"t  c #8C6759",
"y  c #826F5E",
"u  c #96655C",
"i  c #88765F",
"p  c #857261",
"a  c #8C7664",
"s  c #8E7865",
"d  c #947E67",
"f  c #947E6A",
"g  c #9B7463",
"h  c #A16E65",
"j  c #A77D6B",
"k  c #578062",
"l  c #598965",
"z  c #5F9265",
"x  c #589068",
"c  c #579969",
"v  c #5B9C69",
"b  c #638C64",
"n  c #7B8065",
"m  c #639769",
"M  c #65986A",
"N  c #73946E",
"B  c #7F9E76",
"V  c #55B072",
"C  c #5FB776",
"Z  c #3EE67C",
"A  c #3FEB7D",
"S  c #40D579",
"D  c #49DD7F",
"F  c #45DA7D",
"G  c #808468",
"H  c #888B6D",
"J  c #96826D",
"K  c #9D866D",
"L  c #978470",
"P  c #988B75",
"I  c #9A8574",
"U  c #9A9A7A",
"Y  c #AD8370",
"T  c #A38B72",
"R  c #B18672",
"E  c #B58875",
"W  c #AB9277",
"Q  c #A0967E",
"!  c #AE947A",
"~  c #B0967D",
"^  c #BE917B",
"/  c #B69C7F",
"(  c #83B07E",
")  c #4ADD80",
"_  c #4DE182",
"`  c #41EA81",
"'  c #55E584",
"]  c #58E585",
"[  c #52EF87",
"{  c #58E987",
"}  c #59EC88",
"|  c #44F285",
" . c #4DF385",
".. c #4DF689",
"X. c #4FFA8C",
"o. c #51F68B",
"O. c #58F38A",
"+. c #51F88C",
"@. c #B49C81",
"#. c #BB9F82",
"$. c #82A480",
"%. c #86B585",
"&. c #86B788",
"*. c #8BBB8B",
"=. c #BBA082",
"-. c #E18583",
";. c #C1A587",
":. c #CFA087",
">. c #C2A689",
",. c #C5A88A",
"<. c #CBAC8E",
"1. c #C6AB92",
"2. c #CAAF91",
"3. c #CCB095",
"4. c #D4B595",
"5. c #DBBA97",
"6. c #D3B79C",
"7. c #DBBA99",
"8. c #F4A79B",
"9. c #E0BE9C",
"0. c #F3B19B",
"q. c #F0BBAF",
"w. c #F1B6A3",
"e. c #EFBEB7",
"r. c #F0BFBB",
"t. c #F1B1BC",
"y. c #E3C19D",
"u. c #DDC3A1",
"i. c #E5C5A2",
"p. c #E8C6A1",
"a. c #EBC8A5",
"s. c #EFCCA8",
"d. c #F1CDA7",
"f. c #FFC7AC",
"g. c #F0CFAA",
"h. c #F9C2A2",
"j. c #F5D3AC",
"k. c #FBD5AD",
"l. c #FED8AF",
"z. c #EFC0BB",
"x. c #F1C1BC",
"c. c #FDD7B1",
"v. c #FEDAB2",
"b. c #FFD2BC",
"n. c #FDDDBC",
"m. c #F3DDB4",
"M. c #FFE0B6",
"N. c #FFE4BA",
"B. c #FFEABE",
"V. c #FFD3C2",
"C. c #FBDFC2",
"Z. c #FFD8C9",
"A. c #FEE3C2",
"S. c #FFEDC2",
"D. c #FFEDCC",
"F. c #FFF3C6",
"G. c #FFF3CD",
"H. c #FFFECE",
"J. c #FFEFD2",
"K. c #FFE8DA",
"L. c #FFF3D2",
"P. c #FFFFD0",
"I. c #FFFFDD",
"U. c LightYellow",
/* pixels */
"] ] ] ] ] ] ] ] ] ] ] ] ] ] ] ] ] ] ] ] ] ] ] ] ] ] ] ] ] ] ",
"] ] O. . ... . . . . . . . . . . . . . . . . . . . ...o.] ] ",
"] O.V k x x x x x x x x x x x x x x x x x x x x x x l c ] { ",
"] Z ( t.z.z.z.z.r.z.z.z.z.z.z.r.z.z.z.z.z.z.r.e.q.w.8.I S } ",
"] Z *.K.K.L.J.J.J.L.L.K.J.J.J.J.J.J.J.J.J.J.J.D.A.l.h.U S } ",
"' Z &.Z.A.C.C.C.D.L.G.L.G.G.G.G.L.L.D.G.L.G.A.v.j.5.:.H F } ",
"' Z %.V.C.n.n.G.i.1.3.3.3.3.2.3.2.3.3.2.1.6.S.M.y.<.^ G D } ",
"] Z %.V.C.n.D.L . # # # # # # # # # # # # O 1 j.y.;.E n D } ",
"] Z %.V.n.S.i.. P m.a.a.a.a.a.a.a.a.i.i.j.u.o a l.=.R n ) } ",
"] Z %.V.n.D.>.# v.S.M.N.M.v.M.N.M.M.N.M.N.H.: 2 l.=.R n ) } ",
"] Z %.V.n.S.2.# a.v.v.F.F.F.F.F.F.F.H.N.k.S.- 4 l.#.R n ) } ",
"] Z %.V.n.S.2.# a.F.y.2 < 2 2 2 3 < > =.B.B.- 4 l.#.R n ) } ",
"] Z %.V.n.S.2.# a.F.7.; : : : : : : % =.F.B.; 4 k.#.Y n ) } ",
"] Z %.V.n.S.2.# a.c.N.U.I.I.I.U.H.S.G.N.k.B.; 4 l.#.R n ) } ",
"] Z %.V.n.S.2.# p.S.i.p p a p 4 <.N.k.k.l.B.- 4 l.=.R n ) } ",
"] Z %.V.n.S.2.# a.F.6.& & * * # ~ S.k.k.l.B.; 4 k.=.R n ) } ",
"] Z %.V.n.S.1.# a.M.v.B.B.B.B.F.M.j.l.k.l.F.; 4 l./ R n D } ",
"] Z %.V.n.D.,.$ j.N.l.v.v.c.l.l.l.l.v.c.c.F.; 3 l.=.R n D } ",
"] Z %.V.n.S.4.X 7.G.N.B.B.l.k.N.S.M.N.N.F.B.@ 5 l.=.R n _ } ",
"] Z %.V.n.n.S.2 X = * % > a.I.4.& % & & = + % i.y.=.R n D } ",
"] Z %.V.n.c.n.B.! a J y o d.U   , P d J s J j.l.4./ R n D } ",
"] Z %.b.n.c.c.v.F.F.H.B.- @ . / P.F.F.F.F.F.v.y.4.#.R n D } ",
"] Z %.b.n.c.j.j.d.d.c.a.X @ a.F.d.s.s.d.d.d.s.y.4./ Y n ' { ",
"] Z %.b.l.g.p.7.9.9.y.7.T a.j.9.7.9.y.7.y.9.5.4.;.! j 8 D } ",
"] A %.f.p.4.<.,.,.,.;.,.y.2.;.,.,.,.,.,.,.,.;./ ! K g 7 D O.",
"] ` ( 0.<.@.~ T T T T T T T T T T T T T T P T K d i t 6 _ } ",
"] ` B -.E h u t e e r r e e e e e t t e e e e e w q 0 3 D } ",
"] O.C N M m b z z z m b z z z z z z b b z z z z z b b v ] { ",
"] ] O.| | ....o.o.o...o.o.o.X.o.o.o...o.o.o.o.+.o.+.X.o.] ] ",
"] ] ] ] ] ] ] ] ] ] ] ] ] ] ] ] ] ] ] ] ] ] ] ] { { ] ] ] ] "
};
