/* XPM */
static char *switchPanelDisabled_xpm[] = {
/* columns rows colors chars-per-pixel */
"30 30 182 2 ",
"   c #685F5F",
".  c #6B6666",
"X  c #6C6666",
"o  c #6C6767",
"O  c #6D6767",
"+  c #6D6868",
"@  c #6C6C6C",
"#  c #767171",
"$  c #747474",
"%  c gray49",
"&  c gray50",
"*  c gray52",
"=  c #888585",
"-  c #8C8686",
";  c #808989",
":  c #858989",
">  c #868A8A",
",  c #868B8B",
"<  c #878B8B",
"1  c #8B8B8B",
"2  c #8E8B8B",
"3  c #8D8C8C",
"4  c #8D8D8D",
"5  c #8E8E8E",
"6  c gray56",
"7  c #928F8F",
"8  c #8B9090",
"9  c #889393",
"0  c #8F9A9A",
"q  c #8F9B9B",
"w  c #909090",
"e  c gray57",
"r  c #939091",
"t  c #929292",
"y  c #939393",
"u  c #949190",
"i  c #949191",
"p  c gray58",
"a  c #959595",
"s  c gray59",
"d  c #979797",
"f  c #9D9191",
"g  c #989595",
"h  c #959E9E",
"j  c #989898",
"k  c gray60",
"l  c #9A9A9A",
"z  c #9B9B9B",
"x  c gray61",
"c  c #9D9D9D",
"v  c gray62",
"b  c #9F9F9F",
"n  c #94A0A0",
"m  c #94A1A1",
"M  c #95A1A1",
"N  c #95A2A2",
"B  c #9DA1A1",
"V  c #99A6A6",
"C  c #98A7A7",
"Z  c #9BAAAB",
"A  c #A0A0A0",
"S  c gray63",
"D  c gray64",
"F  c #A5A5A5",
"G  c gray65",
"H  c #A7A7A7",
"J  c #A8A5A5",
"K  c #A5ADAD",
"L  c #A5AEAE",
"P  c gray66",
"I  c #A9A9A9",
"U  c #AAA9A9",
"Y  c #AAAAAA",
"T  c gray67",
"R  c gray68",
"E  c #AEAEAE",
"W  c #B7ACAC",
"Q  c #B1B1B1",
"!  c #B2B2B2",
"~  c gray70",
"^  c #B4B4B4",
"/  c gray71",
"(  c #B6B6B6",
")  c #B7B7B7",
"_  c #BBB2B2",
"`  c gray72",
"'  c #BBBBBB",
"]  c #BCBCBC",
"[  c gray74",
"{  c gray",
"}  c #C2BCBC",
"|  c #C4BFBF",
" . c #AEC1C1",
".. c #B6C2C2",
"X. c #B6C3C3",
"o. c #B7C3C3",
"O. c #BBC7C7",
"+. c #B5C9C9",
"@. c #C0C0C0",
"#. c #C1C1C1",
"$. c gray76",
"%. c #C6C1C1",
"&. c #C7C1C1",
"*. c #C7C2C2",
"=. c gray77",
"-. c #C5C5C5",
";. c #C6C6C6",
":. c gray78",
">. c #C8C8C8",
",. c gray79",
"<. c #CACACA",
"1. c #CBCBCB",
"2. c gray80",
"3. c #CDCDCD",
"4. c #CECECE",
"5. c gray81",
"6. c #D1CCCC",
"7. c #D0D0D0",
"8. c gray82",
"9. c #D2D2D2",
"0. c LightGray",
"q. c #D4D0D0",
"w. c gray83",
"e. c #D5D5D5",
"r. c gray84",
"t. c #D7D7D7",
"y. c #DAD4D4",
"u. c #DBD5D5",
"i. c #DCD6D6",
"p. c #DCD7D7",
"a. c #D8D8D8",
"s. c gray85",
"d. c #DADADA",
"f. c gray86",
"g. c #DDD8D8",
"h. c gainsboro",
"j. c #DDDDDD",
"k. c gray87",
"l. c #DFDFDF",
"z. c #CEECED",
"x. c #CFEEEE",
"c. c #D5F4F4",
"v. c #D6F5F5",
"b. c #D7F6F6",
"n. c #D8F7F7",
"m. c #D8F8F8",
"M. c #DFFDFD",
"N. c #DEFFFF",
"B. c #DFFFFF",
"V. c gray88",
"C. c #E1E1E1",
"Z. c #E2E2E2",
"A. c gray89",
"S. c #E4E4E4",
"D. c gray90",
"F. c #E6E6E6",
"G. c #E7E7E7",
"H. c #EDE7E7",
"J. c gray91",
"K. c #E9E9E9",
"L. c #EAEAEA",
"P. c #ECECEC",
"I. c #E0FDFD",
"U. c LightCyan",
"Y. c #E1FFFF",
"T. c #E2FFFF",
"R. c #E5FFFF",
"E. c #E6FFFF",
"W. c #E8FFFF",
"Q. c #E9FFFF",
"!. c #EBFFFF",
"~. c #ECFFFF",
"^. c #EDFFFF",
"/. c #EEFFFF",
"(. c #F1F1F1",
"). c gray95",
"_. c #F3F3F3",
"`. c #F4F4F4",
"'. c gray96",
"]. c #F6F6F6",
"[. c azure",
"{. c #F1FFFF",
/* pixels */
"Y.Y.Y.Y.Y.Y.Y.Y.Y.Y.Y.Y.Y.Y.Y.Y.Y.Y.Y.Y.Y.Y.Y.Y.Y.Y.Y.Y.Y.Y.",
"Y.B.~.{././././././././././././././././././././././.[.{.T.U.",
"Y./. .; q q q q q q q q q q q q q q q q q q q q q q 9 C I.R.",
"Y.E.K W *.%.&.%.%.%.%.%.%.%.%.%.%.%.%.%.%.%.%.%.| } _ 3 z.Q.",
"Y.N.O.H.].'.'.`.`.`.`.`.`.`.`.`.`.`.`.`.`.`.`._.(.L.q.B x.W.",
"Y.U.o.g.G.D.A.A.A.A.A.A.A.S.A.A.A.A.A.A.A.A.A.Z.k.>.J 8 c.W.",
"Y.U...p.S.V.l.k.j.j.j.j.f.S.F.h.j.j.h.l.D.C.j.h.5.~ g < v.W.",
"Y.U.o.i.A.k.f.d.s.s.d.h.V.] ,.K.h.r.C.j.=.t.D.e.$.Y r > b.W.",
"Y.U.o.i.A.k.f.a.s.A.A.k.K.F & { l.A.9.z k a =.h.@.P u , b.W.",
"Y.U.o.i.A.k.f.s.S.#.z x b j * $ T K.S H G.[ a 5.-.I u , b.W.",
"Y.U.o.i.A.k.f.A.[ 1 Q #.,.z & P 4.d.d 0.(.L.z ] <.I u , b.W.",
"Y.U.o.i.A.k.h.Z.j ( ).A.K.] ] G.A.Z.P l e.T l r.-.I u , b.W.",
"Y.U.o.i.A.k.h.k.c { S.s.t.l.S.d.a.k.f.P s v 8.f.@.I u , b.W.",
"Y.U.o.i.A.k.h.l.v ' S.s.s.d.s.s.s.t.k.Z.t.L.A.7.$.I u , b.W.",
"Y.U.o.i.A.k.h.l.j ` D.s.s.s.s.s.s.s.s.h.s./ 7.r.#.I u , b.W.",
"Y.U.o.i.A.k.h.k.G @.S.s.s.s.s.s.s.s.s.k.0.e ,.d.#.I u , b.W.",
"Y.U.o.i.A.k.d.f.D.k.Z.C.a.s.s.s.s.s.s.j.w.x 1.s.#.I u , b.W.",
"Y.U.o.i.A.k.j.Z.` d z 4.A.a.a.h.Z.d.a.j.w.x <.s.$.I u , b.W.",
"Y.U.o.i.A.k.F./ 5 =.T t 0.k.S.l.=.t.k.S.j.j <.s.#.I u , b.W.",
"Y.U.o.i.A.V.k.a :.(.).A R P.4.l 6 w.h.t.D d j.e.#.I u , b.W.",
"Y.U.o.i.A.l.A.k ! (.A.a $.3.% % y x x s l 8.Z.0.#.I u , b.W.",
"Y.U.o.i.A.k.S.<.e F s F A.s./ * 5 <.2.4.Z.A.s.w.$.U i , b.W.",
"Y.Y...i.A.l.f.A.5.I ( k.h.f.J.;.H d.S.k.d.s.s.8.#.I i < b.W.",
"Y.Y...u.A.f.9.1.9.s.t.4.1.2.1.r.9.,.2.2.2.3.2.-.` F 7 > b.W.",
"Y.Y.X.y.f.;.) ! Q ! ! ! ! ! ! Q ^ ~ Q ! ! ! ! E G l 2 > b.W.",
"Y.Y.o.6.#.G k a a a a a a a a a a a a a a a p p w 4 = : n.W.",
"Y.W.L f - # + . o o o o o o o o o o o o o o o X X O   @ m.Q.",
"Y.!.+.h V N n n m m m m m m m m m m m m m m m m M N 0 Z M.R.",
"Y.U.Q.!.^.[.{.{.{.{.{.{.{.{.{.{.{.{.{.{.{.{.{.{.{.[.[.[.T.U.",
"Y.Y.Y.Y.Y.Y.Y.Y.Y.Y.Y.Y.Y.Y.Y.Y.Y.Y.Y.Y.Y.Y.Y.Y.Y.Y.Y.Y.Y.Y."
};
