/* XPM */
static char *switchPanelNormal_xpm[] = {
/* columns rows colors chars-per-pixel */
"30 30 160 2 ",
"   c #000000",
".  c #06060B",
"X  c #181619",
"o  c #1E1A1C",
"O  c #131114",
"+  c #221E20",
"@  c #232021",
"#  c #2A2424",
"$  c #2F2927",
"%  c #2F2A29",
"&  c #352D2B",
"*  c #382D2A",
"=  c #3B322E",
"-  c #3D3631",
";  c #3F3B36",
":  c #433A34",
">  c #493F39",
",  c #4B413A",
"<  c #51463E",
"1  c #56483F",
"2  c #624126",
"3  c #674E37",
"4  c #6D533B",
"5  c #71573E",
"6  c #74593F",
"7  c #5B4F45",
"8  c #545347",
"9  c #5F5247",
"0  c #5F5248",
"q  c #63554A",
"w  c #665A4E",
"e  c #6C5B4D",
"r  c #755941",
"t  c #7C6046",
"y  c #7E654B",
"u  c #6C6051",
"i  c #726153",
"p  c #786457",
"a  c #7C705F",
"s  c #886A4F",
"d  c #88755E",
"f  c #8C7155",
"g  c #9B7B5E",
"h  c #AB7B53",
"j  c #867563",
"k  c #8D7A67",
"l  c #817A6D",
"z  c #947E67",
"x  c #917C69",
"c  c #867D70",
"v  c #9F8063",
"b  c #97816C",
"n  c #9C846D",
"m  c #8C8375",
"M  c #988471",
"N  c #928779",
"B  c #9A8E7E",
"V  c #A28365",
"C  c #A68668",
"Z  c #AF8E6E",
"A  c #A38B72",
"S  c #AA8F77",
"D  c #AB9277",
"F  c #AD9379",
"G  c #AF997F",
"H  c #A3927A",
"J  c #B2977E",
"K  c #B69B7F",
"L  c #CF9F75",
"P  c #C19E7B",
"I  c #818886",
"U  c #8A928E",
"Y  c #91948D",
"T  c #8F9B9A",
"R  c #969D97",
"E  c #9A9E94",
"W  c #909B99",
"Q  c #AC9E8A",
"!  c #B59980",
"~  c #BA9F83",
"^  c #9BA19A",
"/  c #A2A084",
"(  c #AFAC8E",
")  c #BBA083",
"_  c #A0A59E",
"`  c #A8A69A",
"'  c #99A6A4",
"]  c #9DA8A4",
"[  c #AAACA4",
"{  c #BABBAF",
"}  c #BEBFB3",
"|  c #C1A587",
" . c #C2A588",
".. c #C5A88A",
"X. c #CAAD8E",
"o. c #CBA68C",
"O. c #D8AC85",
"+. c #D8B18D",
"@. c #C7AD90",
"#. c #CDB293",
"$. c #CBB998",
"%. c #D6B695",
"&. c #D8B796",
"*. c #D4B897",
"=. c #D9B997",
"-. c #D7B699",
";. c #D0BA9A",
":. c #DCBC9A",
">. c #E0BE9C",
",. c #D7BBA5",
"<. c #D8BDA7",
"1. c #BEC0B6",
"2. c #BDC1B9",
"3. c #DFC39F",
"4. c #EAC096",
"5. c #E3C09D",
"6. c #F1C297",
"7. c #CCC6A6",
"8. c #DFC6A3",
"9. c #C2C5BD",
"0. c #E7C5A1",
"q. c #E9C6A2",
"w. c #EDCAA5",
"e. c #E2CFAA",
"r. c #EECEA9",
"t. c #F2CDA6",
"y. c #F8CCA2",
"u. c #F5CEAB",
"i. c #EFD3AC",
"p. c #F6D2AB",
"a. c #FBD4AD",
"s. c #FED8AF",
"d. c #F6D2B2",
"f. c #FBD7B1",
"g. c #FCDAB4",
"h. c #FCDDBD",
"j. c #F5DBB1",
"k. c #FFE1B7",
"l. c #FFE3BA",
"z. c #FFEABE",
"x. c #AEC1C0",
"c. c #B7C8C5",
"v. c #FBDFC1",
"b. c #FEE4C3",
"n. c #FFEDC2",
"m. c #FFEBCB",
"M. c #FFF1C4",
"N. c #FCF2C9",
"B. c #FFFCCD",
"V. c #FFEED2",
"C. c #FFF2D6",
"Z. c #FFFFD1",
"A. c #FFFFDE",
"S. c #CBEFF5",
"D. c #D3F6FA",
"F. c #D5F8FC",
"G. c #DDFFFF",
"H. c #E1FFFF",
"J. c #ECFFFF",
"K. c #F0FFFF",
/* pixels */
"H.H.H.H.H.H.H.H.H.H.H.H.H.H.H.H.H.H.H.H.H.H.H.H.H.H.H.H.H.H.",
"H.G.J.K.J.J.J.J.J.J.J.J.J.J.J.K.J.J.J.J.J.J.J.J.J.J.K.K.H.H.",
"H.J.x.I T T T T W W T T T W W W T T T T W W W W W W U ' G.H.",
"H.H.[ o.,.,.,.,.,.,.,.,.,.,.,.,.,.,.,.,.,.,.,.,.-.+.L z S.J.",
"H.G.9.b.C.V.V.V.V.V.V.V.V.V.V.V.V.V.V.V.V.V.V.m.b.f.4.Q S.J.",
"H.G.2.d.b.v.v.v.h.v.h.h.v.v.v.h.v.v.h.v.v.v.h.g.a.:.P B D.J.",
"H.G.2.d.v.h.h.h.h.g.g.h.f.m.m.f.h.g.g.l.n.b.g.p.5...Z N D.J.",
"H.G.1.p.v.h.f.f.j.d.g.g.b.A @.Z.g.d.n.l.) u.M.w.:.| C N D.H.",
"G.G.} d.h.g.f.f.f.n.n.k.B.9   H l.n.8.: - $ ) k.%.| V m F.H.",
"H.G.} u.h.g.d.f.M.! : ; , - .   i B.1 q N.A $ :.>.~ V m F.J.",
"H.G.} u.h.g.f.M.A O a ! ( :   w $.f.* q.A.Z.- S t.K V m F.J.",
"H.G.} u.h.g.g.n.- x A.n.Z.A A B.n.n.w - 7.i - r.>.| V m F.H.",
"H.G.1.u.h.g.g.k.> F M.f.p.k.M.f.a.j.g.w * , :.g.%.) V m F.J.",
"H.G.1.u.h.g.g.k., A n.a.a.s.a.s.a.a.k.n.p.B.z.5.%.K V m F.H.",
"H.G.1.u.h.g.g.l.= n M.a.a.s.s.a.a.s.a.g.a.k :.p.*.P V m F.J.",
"H.G.1.u.v.g.g.k.0 J n.a.a.a.a.a.a.a.s.k.0.@ ..f.=.) V m F.J.",
"H.G.} u.g.h.p.g.M.k.z.z.a.a.s.a.a.a.a.k.q.: #.f.%.) V m F.J.",
"H.G.9.u.h.g.g.n.b = : *.z.a.a.g.n.s.a.k.w.: X.f.*.) V m F.H.",
"H.G.1.u.h.h.M.x o / i # 8.l.M.l.) p.k.M.g.* X.s.&.P V m F.H.",
"H.G.1.u.h.g.k.$  .A.A.< p Z.;.: + q.j.e.9 * j.u.&.) V m F.J.",
"H.G.} p.h.g.n.- d A.n.% ! $.    # : ; & - 3.z.0.&.) V m F.J.",
"H.G.} p.h.g.n.@.+ 8 * 7 n.p.j . X X.#.%.z.z.t.q.&.) V m F.H.",
"H.G.1.u.g.f.a.z.=.e z g.d.p.M.) 9 p.z.g.p.w.w.5.X.K g m F.J.",
"H.G.1.y.f.t.0.>.t.k.g.5.:.3.>.s.w.*.5.>.>.5.=.%...J g c F.H.",
"H.G.} 6.q.*.X...................X...........| ~ F n f c F.J.",
"H.H.{ O.@.! F A A A A A A A A A A A A A A A A n z d s l G.H.",
"H.H.` h h s r r 6 6 6 6 r r r r r r 6 6 r r 6 5 4 3 > r G.J.",
"H.J.c.E _ ^ ^ R R R R R R R R R R R E E R R R R E ^ Y _ H.H.",
"H.H.J.H.J.J.K.K.K.J.K.K.J.K.J.K.J.K.K.J.K.K.J.K.J.K.K.J.H.H.",
"H.H.H.H.H.H.H.H.H.H.H.H.H.H.H.H.H.H.H.H.H.H.H.H.H.H.H.H.H.H."
};
