/* XPM */
static char *switchPanelPressed_xpm[] = {
/* columns rows colors chars-per-pixel */
"30 30 136 2 ",
"   c black",
".  c #0C060B",
"X  c #0B0A0D",
"o  c #1A1819",
"O  c #231E1F",
"+  c #3C2214",
"@  c #292424",
"#  c #2E2928",
"$  c #322C2B",
"%  c #382D2B",
"&  c #37302E",
"*  c #3A312E",
"=  c #3B3432",
"-  c #573A27",
";  c #533B29",
":  c #403935",
">  c #463D39",
",  c #50473F",
"<  c #584739",
"1  c #59483A",
"2  c #67523F",
"3  c #514741",
"4  c #534A43",
"5  c #5B4D44",
"6  c #5A4E48",
"7  c #5C534C",
"8  c #675341",
"9  c #6A5544",
"0  c #61544C",
"q  c #655C53",
"w  c #685C53",
"e  c #6C6056",
"r  c #6F6258",
"t  c #70695D",
"y  c #796B5F",
"u  c #776F63",
"i  c #7C6E62",
"p  c #7C7066",
"a  c #7F7C6E",
"s  c #836C5B",
"d  c #87725E",
"f  c #847566",
"g  c #8A7768",
"h  c #8E7D6D",
"j  c #917E6E",
"k  c #8E7F70",
"l  c #8F806D",
"z  c #92816F",
"x  c #878279",
"c  c #88857D",
"v  c #8F8F7D",
"b  c #968473",
"n  c #988676",
"m  c #9A8976",
"M  c #9D8978",
"N  c #9D907E",
"B  c #A18E7D",
"V  c #A7947F",
"C  c #787F80",
"Z  c #7E8786",
"A  c #838784",
"S  c #878B86",
"D  c #8D918C",
"F  c #869291",
"G  c #889393",
"H  c #939B97",
"J  c #A59584",
"K  c #A89581",
"L  c #AD9A85",
"P  c #AE9F8F",
"I  c #B09D87",
"U  c #B29E89",
"Y  c #99A09B",
"T  c #ACA08D",
"R  c #B3A18D",
"E  c #BCA78F",
"W  c #AFA092",
"Q  c #B6A696",
"!  c #B9A791",
"~  c #BEA891",
"^  c #B7A998",
"/  c #BBAB98",
"(  c #93A1A0",
")  c #9EA7A3",
"_  c #9EA8A3",
"`  c #A0ADAB",
"'  c #ABBEBE",
"]  c #C3AC95",
"[  c #CDB59C",
"{  c #C5B3A1",
"}  c #CDB7A3",
"|  c #CBBAA3",
" . c #D5BCA3",
".. c #C5C2A9",
"X. c #DCC2A7",
"o. c #D6C3AD",
"O. c #DCC4AA",
"+. c #D7C4B0",
"@. c #DEC9B1",
"#. c #D9D4B8",
"$. c #E3C6AB",
"%. c #E6CAAE",
"&. c #E9CCAF",
"*. c #E0CBB0",
"=. c #EACCB1",
"-. c #ECD1B4",
";. c #E4D5BB",
":. c #EAD4BB",
">. c #F0D4B7",
",. c #F2D7BC",
"<. c #F5D9BD",
"1. c #FBDCBE",
"2. c #B0C2C0",
"3. c #EFD8C1",
"4. c #F2DAC1",
"5. c #FBDEC0",
"6. c #EDE6CD",
"7. c #F5E4C5",
"8. c #FDE2C4",
"9. c #FEE5C9",
"0. c #FFECCB",
"q. c #FFF1CF",
"w. c #FEEFD1",
"e. c #F5F3D5",
"r. c #FFF4D4",
"t. c #FFF9D6",
"y. c #FFFDDB",
"u. c #D6F7F9",
"i. c #D7F8FA",
"p. c #DCFDFE",
"a. c #FFFFE1",
"s. c #E1FFFF",
"d. c #EAFFFF",
"f. c #FFFFF5",
"g. c #F3FFFF",
"h. c #FBFFFF",
/* pixels */
"s.s.s.s.s.s.s.s.s.s.s.s.s.s.s.s.s.s.s.s.s.s.s.s.s.s.s.s.s.s.",
"s.p.d.h.h.g.g.g.h.g.g.g.h.g.h.g.g.g.g.h.g.g.h.g.g.g.h.g.s.s.",
"s.g.' C G F F F F F F F F F F F F F F D G G F F F F Z Y s.s.",
"s.h.A + < < 1 1 < 1 1 1 < 1 1 1 1 < < 1 < 1 1 < < < ; q p.d.",
"s.g.H 2 f f l l l l h z l h l l j j h z z h h h g f d x i.s.",
"p.g.H 8 g m K L L L L L L L L L I I L V L L L L J m b c i.d.",
"s.d.H 9 b I ] [ [ [ [ [ [ X. .[ [ [ [ [ [ [  . .[ R m c i.d.",
"s.g.H 9 m E X.$.&.&.%.%.%.X.1.<.$.$.>.0.0.8.=.>.O./ M c i.d.",
"s.g.H 9 m E O.-.,.<.0.t.f.n 4 0.r.9.7.y 5 [ y.<.*./ M c u.d.",
"p.g.H 9 m ] X.>.8.t.[ h v 4   O ! y.w 3 a & | w.*.! B A u.d.",
"s.g.H 9 m E X.>.q.p @ 7 t =   X W  .: y.h.f 6 a.@./ M k u.d.",
"p.g.H 2 m ] X.0.] @ -.y.f.B 6 7.a.*.& ] e.> h t.@./ B c u.s.",
"s.g.H 9 m E O.q.m 0 t.8.5.<.r.q.1.r.R = : r w.5.@./ B k u.s.",
"s.g.H 9 m ~ O.0.V 5 q.5.1.8.8.5.1.1.t.=.$.a.9.,.@./ M A u.d.",
"s.g.H 9 m E X.0.M , q.8.5.1.5.5.5.5.5.t.[ L w.3.@./ M c u.d.",
"s.d.H 9 m E X.0.I u r.8.1.5.5.5.5.5.5.a.r 3 a.4.@./ M c u.d.",
"s.g.H 9 n ~ X.-.t.9.-.r.9.1.5.5.8.1.8.t.f e y.4.@./ M k i.d.",
"p.g.H 9 n ~ X.q.~ : % f q.8.1.r.r.1.4.y.h q y.4.@./ M A u.d.",
"s.g.H 9 m E -.X.$ J #.$ h a.a.[ n t.y.f.r 7 y.4.@./ M c u.d.",
"s.g.H 9 m E 8.g 3 f.h.B 3 6.u X o J J q @ | r.4.@.^ M c u.s.",
"s.d.H 9 m ~ =.O.% b ..# P 3..   # q 6 0  .y.5.<.@./ J A u.d.",
"s.g.H 9 m ~ X.q.{ : * k w.t.7.3 = a.y.a.r.5.8.4.@./ M k u.d.",
"s.g.H 9 m E $.1.a.w.5.y.9.4.t.r.| 5.9.8.8.9.9.4.@./ M c u.d.",
"s.g.H 9 b E @.,.3.4.9.4.3.4.3.4.w.4.3.3.3.4.4.:. .Q M k u.s.",
"s.g.H 2 b L | +.+.+.+.+.+.+.+.+.+.+.+.+.+.+. . .{ W n A u.d.",
"s.g.H 2 z J Q ^ ^ ^ ^ ^ ^ ^ ^ ^ ^ ^ ^ ^ Q / / ^ Q J j A u.s.",
"s.g.S - i g g j j h j h k g j g j h j k j g j g g g s f u.d.",
"s.d.2.D ) W ` ` ) ) ) ) ) W ` ` ) ) ) ) ) ) ) ` ` ` H ` s.s.",
"s.p.d.g.d.d.d.d.d.d.d.d.d.d.d.d.d.d.d.d.d.d.d.d.g.d.d.g.s.s.",
"s.s.s.s.s.s.s.s.s.s.s.s.s.s.s.s.s.s.s.s.s.s.s.s.s.s.s.s.s.s."
};
