/* XPM */
static char *syncVideoNormal_xpm[] = {
/* columns rows colors chars-per-pixel */
"30 30 169 2 ",
"   c #000001",
".  c #05050C",
"X  c #0B0B10",
"o  c #1B1719",
"O  c #1F1B1D",
"+  c #221B1D",
"@  c #272222",
"#  c #342826",
"$  c #352E2C",
"%  c #372A28",
"&  c #3A332F",
"*  c #3D3330",
"=  c #433B35",
"-  c #493F39",
";  c #4A3C37",
":  c #4E433C",
">  c #51453D",
",  c #53483F",
"<  c #624126",
"1  c #674E37",
"2  c #6D533B",
"3  c #71573E",
"4  c #74593F",
"5  c #534740",
"6  c #544A42",
"7  c #5B4D44",
"8  c #5E5349",
"9  c #604F45",
"0  c #65564B",
"q  c #66584D",
"w  c #695A4E",
"e  c #755941",
"r  c #725C4F",
"t  c #6D5D50",
"y  c #705F53",
"u  c #7C6046",
"i  c #7E654B",
"p  c #6C6354",
"a  c #676254",
"s  c #726255",
"d  c #756658",
"f  c #756A5B",
"g  c #7C6C5C",
"h  c #7E6E60",
"j  c #7F7562",
"k  c #886A4F",
"l  c #83705F",
"z  c #88755E",
"x  c #8C7155",
"c  c #9B7B5E",
"v  c #AB7B53",
"b  c #857362",
"n  c #8A7563",
"m  c #877966",
"M  c #8B7967",
"N  c #847B6B",
"B  c #8E7D69",
"V  c #917B67",
"C  c #937C69",
"Z  c #867D70",
"A  c #9F8063",
"S  c #95816D",
"D  c #9B856D",
"F  c #8C8375",
"G  c #998471",
"H  c #9F8872",
"J  c #928879",
"K  c #988C79",
"L  c #9C9077",
"P  c #A28365",
"I  c #A68668",
"U  c #AF8E6E",
"Y  c #A38B71",
"T  c #AA9177",
"R  c #A7977D",
"E  c #AD937A",
"W  c #AB987F",
"Q  c #B59B7F",
"!  c #CF9F75",
"~  c #C19E7A",
"^  c #818886",
"/  c #8A928E",
"(  c #91948D",
")  c #8F9B9A",
"_  c #969D97",
"`  c #9A9E94",
"'  c #909B99",
"]  c #AC9E8A",
"[  c #B49C82",
"{  c #BB9F83",
"}  c #9BA19A",
"|  c #BCA184",
" . c #BDA689",
".. c #A0A59E",
"X. c #A8A69A",
"o. c #9BA7A4",
"O. c #AAACA4",
"+. c #BABBAF",
"@. c #BEBFB3",
"#. c #C2A688",
"$. c #C5A98A",
"%. c #CAAC8D",
"&. c #C7A68A",
"*. c #D8AC85",
"=. c #D8B18D",
"-. c #C1AE91",
";. c #CFB190",
":. c #C8B696",
">. c #D4B594",
",. c #D5B897",
"<. c #D9B895",
"1. c #D5B599",
"2. c #DCBC9A",
"3. c #E0BE9C",
"4. c #D7BBA5",
"5. c #D8BDA7",
"6. c #E0BEA0",
"7. c #BEC0B6",
"8. c #BDC1B9",
"9. c #DEC09E",
"0. c #D3C19E",
"q. c #EAC096",
"w. c #E2C19E",
"e. c #F1C297",
"r. c #C2C5BD",
"t. c #E4C4A3",
"y. c #E9C6A1",
"u. c #EDCAA4",
"i. c #F1CDA7",
"p. c #F5CEAB",
"a. c #F8CCA2",
"s. c #E9D1AB",
"d. c #E5D0AB",
"f. c #F5D1AB",
"g. c #FAD5AE",
"h. c #FED8AF",
"j. c #EDD7B4",
"k. c #EDDCB5",
"l. c #F6D3B3",
"z. c #FCD7B6",
"x. c #F4D8B0",
"c. c #FEDAB3",
"v. c #FCDDBC",
"b. c #FEE1B7",
"n. c #F6E1B8",
"m. c #FEE3BB",
"M. c #FFEABE",
"N. c #AEC1C0",
"B. c #B7C8C5",
"V. c #FBDFC1",
"C. c #FEE5C3",
"Z. c #FFECC4",
"A. c #FFECC9",
"S. c #FFF2C4",
"D. c #FFF6C9",
"F. c #FFFBCC",
"G. c #FFEFD2",
"H. c #FFF2D6",
"J. c #FFFFD4",
"K. c #FFFFDB",
"L. c #CBEFF5",
"P. c #D3F6FA",
"I. c #D5F8FC",
"U. c #DDFFFF",
"Y. c #FFFFE3",
"T. c #FFFFE8",
"R. c #E1FFFF",
"E. c #ECFFFF",
"W. c #F0FFFF",
/* pixels */
"R.R.R.R.R.R.R.R.R.R.R.R.R.R.R.R.R.R.U.R.R.R.R.R.R.R.R.R.R.R.",
"R.U.E.W.E.E.E.E.E.E.E.E.E.E.E.W.E.E.E.E.E.E.E.E.E.E.W.W.R.R.",
"R.W.N.^ ) ) ) ) ' ' ' ' ) ' ' ' ) ) ) ) ' ' ' ' ' ' / o.U.R.",
"R.R.O.&.5.4.4.4.4.4.4.4.4.4.4.4.4.4.4.4.4.4.4.4.1.=.! C L.E.",
"R.U.r.C.H.G.G.G.G.G.G.G.G.G.H.G.G.G.G.G.G.G.A.Z.C.c.3.[ L.E.",
"R.U.8.l.C.V.V.V.V.v.A.K.K.K.K.J.C.v.V.V.V.V.v.v.g.<.~ L P.E.",
"R.U.8.l.V.V.v.z.z.V.l.C d h y G D.C.v.v.v.m.v.h.w.%.U J P.E.",
"R.U.7.f.V.z.z.Z.Z.D.h o a t a + 7 M.m.c.c.c.h.h.i.| I F P.R.",
"R.U.8.p.z.C.J.| %.Y.> M T.D.J.b.= * 8 5 5 5 : = T ;.P F I.R.",
"R.U.8.p.C.n.d     -.g g D.g.g.J.M.B E 3.%.{ :.> = 2.P F I.E.",
"R.U.@.p.K.s   $ X -.0 q D.c.S.Y 7 j t n S.F.J.M : ,.P F I.E.",
"R.U.8.p.Z.G 2.Z.m.T.$.%.M.S.M # ,.F.d.7 7 m.S.l : <.P F P.E.",
"R.U.7.p.z.D.J. .n r n >.S.9.* n. .n F.K.> C J.l : <.P F I.E.",
"R.U.7.p.m.C.f * f n f & R E d T.w   @ k.#.0 J.l > <.P F I.R.",
"R.U.7.p.A.1.= D.Y.J.T.c.0 C s Y.w   8 M.E q J.l : <.P F I.E.",
"R.U.7.p.A.t.* d [ $.W 0 : s.- $.d.2.T.Z.$ [ J.l : <.P F I.R.",
"R.U.@.p.Z.t.= d h g l q : M.:.# G 0.K * n S.M.l > <.P F I.E.",
"R.U.r.p.Z.t.= l B B S p : i.K.b.V j n ,.K.D.K.S = ,.P F I.R.",
"R.U.7.p.A.t.* f S B S w , g.S d S b C B s s g @ 7 2.P F I.E.",
"R.U.7.p.A.6.$ b S m S s * b.E p n s t s p s q s %.$.P F I.E.",
"R.U.@.p.C.j.8 w m V N 9 g c.t.D.H h.F.D.D.D.S.M.w.Q P F I.R.",
"R.U.@.p.v.Z.t.t w s q j 9.$ . . O x.b.g.g.g.g.w.,.~ P F I.E.",
"R.U.@.p.c.g.m.S.h.u.h.D.f.,   - 9.b.i.i.i.i.u.w.=.Q c F I.E.",
"R.U.@.a.c.i.y.3.w.y.w.2.u.f.Q f.g.2.3.3.3.w.2.;.&.E C F I.R.",
"R.U.@.e.t.,.%.%.$.#.$.$.#.%.w.%.#.$.$.$.$.$.#.{ E D x B I.E.",
"R.U.+.*.%.[ E Y Y Y Y Y Y Y Y Y Y Y Y Y Y Y Y D C z i N I.E.",
"R.R.X.v v k u e 4 e 4 4 e e e e e e 4 e e 4 4 3 2 1 < p I.E.",
"R.E.B.` ..} _ _ _ _ _ _ _ _ _ _ _ _ _ _ _ _ _ _ _ _ ( o.R.R.",
"R.R.E.E.R.E.W.W.W.W.E.W.W.W.E.W.W.W.W.E.W.W.E.W.E.W.W.W.R.R.",
"R.R.R.R.R.R.R.R.R.R.R.R.R.R.R.R.R.R.R.R.R.R.R.R.R.R.R.R.R.R."
};
