/* XPM */
static char *syncVideoPressed_xpm[] = {
/* columns rows colors chars-per-pixel */
"30 30 139 2 ",
"   c black",
".  c #1C181A",
"X  c #3C2214",
"o  c #252121",
"O  c #2D2827",
"+  c #322D2B",
"@  c #382F2D",
"#  c #39322E",
"$  c #3C3532",
"%  c #3F3836",
"&  c #573A27",
"*  c #533B29",
"=  c #433B37",
"-  c #453D39",
";  c #483D39",
":  c #4C433E",
">  c #584739",
",  c #59483A",
"<  c #67523F",
"1  c #4E4641",
"2  c #514742",
"3  c #524943",
"4  c #594E47",
"5  c #5B514A",
"6  c #675341",
"7  c #6A5544",
"8  c #63574F",
"9  c #665C53",
"0  c #6A5D54",
"q  c #6D6258",
"w  c #72655A",
"e  c #746A5E",
"r  c #78685C",
"t  c #776D62",
"y  c #7C6D61",
"u  c #7D7165",
"i  c #7F776A",
"p  c #836C5B",
"a  c #87725E",
"s  c #837365",
"d  c #877768",
"f  c #8A7768",
"g  c #82796B",
"h  c #8E7D6D",
"j  c #917E6E",
"k  c #8F7F70",
"l  c #937F70",
"z  c #8F806D",
"x  c #92816F",
"c  c #878279",
"v  c #88857D",
"b  c #958474",
"n  c #998675",
"m  c #9A8976",
"M  c #928A79",
"N  c #9D8A78",
"B  c #A7937F",
"V  c #787F80",
"C  c #7E8786",
"Z  c #838784",
"A  c #878B86",
"S  c #8D918C",
"D  c #9E9280",
"F  c #869291",
"G  c #889393",
"H  c #939B97",
"J  c #A69583",
"K  c #AA9682",
"L  c #AD9A85",
"P  c #AE9F8F",
"I  c #B19C87",
"U  c #B29E89",
"Y  c #99A09B",
"T  c #B3A18C",
"R  c #BAA58F",
"E  c #AFA092",
"W  c #B5A593",
"Q  c #BCA793",
"!  c #BCA994",
"~  c #B7A998",
"^  c #BCAB98",
"/  c #93A1A0",
"(  c #9EA7A3",
")  c #9EA8A3",
"_  c #A0ADAB",
"`  c #ABBEBE",
"'  c #C3AD95",
"]  c #C3B29A",
"[  c #CDB59C",
"{  c #D2B69E",
"}  c #D2B99F",
"|  c #C6B4A1",
" . c #C8B6A2",
".. c #CBB8A4",
"X. c #D4BBA2",
"o. c #DAC1A7",
"O. c #D5C3AC",
"+. c #DCC4AB",
"@. c #D9C9AD",
"#. c #D7C4B0",
"$. c #DAC7B2",
"%. c #DEC9B2",
"&. c #E1C6AB",
"*. c #E3C9AD",
"=. c #E5CCB2",
"-. c #E9CEB1",
";. c #ECD2B5",
":. c #E6D5B8",
">. c #EDD5BD",
",. c #EFD9BE",
"<. c #F1D5B7",
"1. c #F1D6BA",
"2. c #F4DBBD",
"3. c #FADDBE",
"4. c #B0C2C0",
"5. c #EFD7C0",
"6. c #EFDEC1",
"7. c #F1DAC2",
"8. c #FBDEC2",
"9. c #FDE2C4",
"0. c #FFEAC7",
"q. c #F5E6CA",
"w. c #FDE6CB",
"e. c #FFEACA",
"r. c #FFEED1",
"t. c #FFF5D3",
"y. c #FFF9D6",
"u. c #FFF7D9",
"i. c #FFFEDC",
"p. c #D6F7F9",
"a. c #D7F8FA",
"s. c #DCFDFE",
"d. c #FFFFE2",
"f. c #FFFFEC",
"g. c #E1FFFF",
"h. c #EAFFFF",
"j. c #FFFFF3",
"k. c #F3FFFF",
"l. c #FBFFFF",
/* pixels */
"g.g.g.g.g.g.g.g.g.g.g.g.g.g.g.g.g.g.g.g.g.g.g.g.g.g.g.g.g.g.",
"g.s.h.l.l.k.k.k.k.l.k.k.l.k.l.k.l.k.k.k.k.l.k.k.k.k.l.k.g.g.",
"g.k.` V G F F F F F F F F F F F F F F F F S F F F F C / g.g.",
"g.l.Z X > > , , > , , , , , , , > > > > > > , , > > * 9 s.h.",
"g.k.H < s d z z h z z z h z z z z z h z x h h h f d a c s.h.",
"s.k.H 6 f m B L L L L I T I T I L L L L K L I L B m j v p.h.",
"g.h.H 7 b I ' [ [ [ } *.} } [ &.&.[ [ [ [ [ ..} [ T m Z p.g.",
"g.k.H 7 m R o.*.<.;.;.w = 3 : # R i.e.0.0.e.t.0.o.^ m v p.h.",
"g.h.Y 7 N R +.e.3.i.X.+ ! X.O.x o s b k h h d X.5.^ N k p.h.",
"g.k.H 7 m ' <.T # N X.5 0.y.e.f.*.w k s 0 0 4 % X.| N Z p.h.",
"g.k.H < N +.y     . T 3 1.9.y.:.n n j 2.j.d.t.: ~ ..N Z p.h.",
"g.k.H 7 m [ 8 K [ 9.0.h 3.y.O.$ M @.M # W d.>.1 ^ ..N k p.g.",
"g.h.H 7 m R <.i.X.J h ' t.i., L :.[ l.O.- 6.8.2 ^ ..D v p.g.",
"g.k.H 7 m ] -.w 3 t t 4 u { w j.r   4 d.d K r.2 ^ ..N v p.h.",
"s.k.H 7 m X.b 5 f.j.j.j.0 r s f.s   9 d.s I r.2 ^ ..N v p.h.",
"g.k.H 7 m X.K = b L L M $ X.s b 7.-.l.Q ; q.8.2 ^ ..N v p.h.",
"g.k.H 7 m X.I $ t h g u + X.q.: g ^ g - [ i.,.2 '  .N v p.h.",
"s.k.H 7 m X.K : J N N J : L j.t.K x n 9.f.t.0.- W ..N v p.h.",
"g.k.H 7 m X.K = y e e u $ [ T : f d u 9 4 5 - 1 +.| N Z p.h.",
"g.k.H 6 m X.L O b D D b o o.q.] J N U L L L J =.>.' N Z p.h.",
"g.k.H 7 m ' +.s w u u w f W g K 3 2.d.t.u.t.u.e.$.^ D k p.h.",
"g.k.H 7 m R -.9.R b b W i.8     t t.9.8.9.9.w.7.%.^ N Z p.g.",
"g.k.H 7 N R &.9.u.d.d.u.r.5.t W d.w.8.9.w.9.9.7.%.^ N c p.h.",
"g.h.H < m R &.2.7.5.7.7.>.w.u.r.7.>.7.5.7.7.7.>.X.~ n k p.h.",
"g.k.H 6 b L ..#.#.#.#.#.#.#.$.$.$.$.#.#.X.$.$.X. .E M Z p.h.",
"g.k.H < x J ~ ~ ~ ~ ~ ~ ~ ~ ~ ~ ~ ~ ~ ~ Q Q ~ ~ E J l Z p.h.",
"g.k.A & y f f j h h h j k f j f j h h j f j j f f f p s p.h.",
"g.h.4.S ( E _ _ ( ( ( ( ( E _ _ ( ( ( ( _ Y _ _ _ _ H _ g.g.",
"g.g.h.k.h.h.h.h.h.h.h.h.h.h.h.h.h.h.h.h.h.h.h.h.k.h.h.k.g.g.",
"g.g.g.g.g.g.g.g.g.g.g.g.g.g.g.g.g.g.g.g.g.g.g.g.g.g.g.g.g.g."
};
