/* XPM */
static char *syncVideoDisabled_xpm[] = {
/* columns rows colors chars-per-pixel */
"30 30 196 2 ",
"   c #685F5F",
".  c #6B6666",
"X  c #6C6666",
"o  c #6C6767",
"O  c #6D6767",
"+  c #6D6868",
"@  c #6C6C6C",
"#  c #717171",
"$  c #767171",
"%  c gray49",
"&  c gray50",
"*  c #818181",
"=  c #838383",
"-  c gray52",
";  c gray53",
":  c #888585",
">  c #8C8686",
",  c #808989",
"<  c #858989",
"1  c #868A8A",
"2  c #868B8B",
"3  c #878B8B",
"4  c #898989",
"5  c #8E8B8B",
"6  c #8D8C8C",
"7  c #8D8D8D",
"8  c gray56",
"9  c #928F8F",
"0  c #8B9090",
"q  c #889393",
"w  c #8F9A9A",
"e  c #8F9B9B",
"r  c #909090",
"t  c gray57",
"y  c #939190",
"u  c #939393",
"i  c #949190",
"p  c #949191",
"a  c gray58",
"s  c #959595",
"d  c gray59",
"f  c #979797",
"g  c #9D9191",
"h  c #989595",
"j  c #959E9E",
"k  c #989898",
"l  c gray60",
"z  c #9A9A9A",
"x  c #9B9B9B",
"c  c gray61",
"v  c #9D9D9D",
"b  c gray62",
"n  c #9F9F9F",
"m  c #94A0A0",
"M  c #94A1A1",
"N  c #95A1A1",
"B  c #95A2A2",
"V  c #9DA1A1",
"C  c #99A6A6",
"Z  c #98A7A7",
"A  c #9BAAAB",
"S  c #A0A0A0",
"D  c gray63",
"F  c #A2A2A2",
"G  c gray64",
"H  c #A4A4A4",
"J  c #A5A5A5",
"K  c gray65",
"L  c #A7A7A7",
"P  c #A8A5A5",
"I  c #A5ADAD",
"U  c #A5AEAE",
"Y  c gray66",
"T  c #A9A9A9",
"R  c #AAAAAA",
"E  c gray67",
"W  c #ACACAC",
"Q  c gray68",
"!  c #AEAEAE",
"~  c #AFAFAF",
"^  c #B7ACAC",
"/  c gray69",
"(  c #B1B1B1",
")  c #B2B2B2",
"_  c gray70",
"`  c #B4B4B4",
"'  c gray71",
"]  c #B6B6B6",
"[  c #B7B7B7",
"{  c #BBB2B2",
"}  c gray72",
"|  c gray73",
" . c #BBBBBB",
".. c gray74",
"X. c gray",
"o. c gray75",
"O. c #C2BCBC",
"+. c #C4BFBF",
"@. c #AEC1C1",
"#. c #B6C2C2",
"$. c #B6C3C3",
"%. c #B7C3C3",
"&. c #BBC7C7",
"*. c #B5C9C9",
"=. c #C0C0C0",
"-. c #C1C1C1",
";. c gray76",
":. c #C3C3C3",
">. c #C6C1C1",
",. c #C7C1C1",
"<. c #C7C2C2",
"1. c gray77",
"2. c #C5C5C5",
"3. c #C6C6C6",
"4. c gray78",
"5. c #C8C8C8",
"6. c gray79",
"7. c #CACACA",
"8. c #CBCBCB",
"9. c gray80",
"0. c #CDCDCD",
"q. c #CECECE",
"w. c gray81",
"e. c #D1CCCC",
"r. c #D0D0D0",
"t. c gray82",
"y. c #D2D2D2",
"u. c LightGray",
"i. c #D4D0D0",
"p. c gray83",
"a. c #D5D5D5",
"s. c gray84",
"d. c #D7D7D7",
"f. c #DAD4D4",
"g. c #DBD5D5",
"h. c #DBD6D6",
"j. c #DCD6D6",
"k. c #DCD7D7",
"l. c #D8D8D8",
"z. c gray85",
"x. c #DADADA",
"c. c gray86",
"v. c #DDD8D8",
"b. c gainsboro",
"n. c #DDDDDD",
"m. c gray87",
"M. c #DFDFDF",
"N. c #CEECED",
"B. c #CFEEEE",
"V. c #D5F4F4",
"C. c #D6F5F5",
"Z. c #D7F6F6",
"A. c #D8F7F7",
"S. c #D8F8F8",
"D. c #DFFDFD",
"F. c #DEFFFF",
"G. c #DFFFFF",
"H. c gray88",
"J. c #E1E1E1",
"K. c #E2E2E2",
"L. c gray89",
"P. c #E4E4E4",
"I. c gray90",
"U. c #E6E6E6",
"Y. c #E7E7E7",
"T. c #EDE7E7",
"R. c gray91",
"E. c #E9E9E9",
"W. c #EAEAEA",
"Q. c gray92",
"!. c #ECECEC",
"~. c gray93",
"^. c #EEEEEE",
"/. c #EFEFEF",
"(. c #E0FDFD",
"). c LightCyan",
"_. c #E1FFFF",
"`. c #E2FFFF",
"'. c #E5FFFF",
"]. c #E6FFFF",
"[. c #E8FFFF",
"{. c #E9FFFF",
"}. c #EBFFFF",
"|. c #ECFFFF",
" X c #EDFFFF",
".X c #EEFFFF",
"XX c gray94",
"oX c #F1F1F1",
"OX c gray95",
"+X c #F3F3F3",
"@X c #F4F4F4",
"#X c gray96",
"$X c #F6F6F6",
"%X c gray97",
"&X c azure",
"*X c #F1FFFF",
/* pixels */
"_._._._._._._._._._._._._._._._._._._._._._._._._._._._._._.",
"_.G.|.*X.X.X.X.X.X.X.X.X.X.X.X.X.X.X.X.X.X.X.X.X.X.X&X*X`.).",
"_..X@., e e e e e e e e e e e e e e e e e e e e e e q Z (.'.",
"_.].I ^ <.>.,.>.>.>.>.>.>.>.>.>.>.>.>.>.>.>.>.>.+.O.{ 6 N.{.",
"_.F.&.T.$X#X#X@X@X@X@X@X@X@X@X@X@X@X@X@X@X@X@X+XoXW.i.V B.[.",
"_.).%.v.Y.I.L.L.L.J.U.oXoXoXOX/.P.K.L.L.L.L.L.K.m.5.P 0 V.[.",
"_.).#.k.P.H.M.n.n.H.b.} ! ) W  .U.P.m.M.M.M.H.m.w._ h 3 C.[.",
"_.).%.h.L.m.x.L.K.I.~ 7 W L R 8 G H.m.c.c.c.c.x.5.T y 1 Z.[.",
"_.).%.j.J.K.!.1.6.OXD ` #XU.!.m.c k K D S D S v ` ~ p 2 Z.[.",
"_.).%.j.Y.J.! * = 8.~ ! U.z.l.!.J.' o.t.5.:.9.G k _ p 2 Z.[.",
"_.).%.j.OXW & f 4 7.L L R.c.P. .G ( R ` I.R.W.} k ) p 2 Z.[.",
"_.).%.j.E. .w.K.M.%X4.5.J.P.] a q.E.d.F G H.P.` z ) p 2 Z.[.",
"_.).%.h.J.E.E.2._ T ' 8.I.t.l m.3.( E.oXS [ ^.` z ) p 2 Z.[.",
"_.).%.h.P.P./ l ! _ ! k =.o.Q #XT # t n.1.L ~.` z ) p 2 Z.[.",
"_.).%.j.E.r.v Y.+X!.$Xc.K ] W @XY % J K.o.Y ^.` z ) p 2 Z.[.",
"_.).%.j.E.a.l Q ;.5.-.L S d.c 5.l.q.$XK.d :.!.` z ) p 2 Z.[.",
"_.).%.j.E.a.x Q ) ~ _ L b L.8.u  .y.X.k _ I.L.` z ) p 2 Z.[.",
"_.).%.h.E.a.c ( ] ] ] W n s.+Xm.' _ ) q.oXR.XX| f ) p 2 Z.[.",
"_.).%.j.E.s.x Q [ [ ] Y D z.' Q } ) ' ' E E / d b _ p 2 Z.[.",
"_.).%.j.W.p.f ( } ' } E x n.o.E _ E R R R R Y Q X.W p 2 Z.[.",
"_.).%.j.U.n.K Y ' ' ' H ~ b.u.U.| l.Q.U.U.U.Y.M.2.Y p 2 Z.[.",
"_.).%.j.L.U.p.R R W Y ` t.f ; ; r c.m.x.x.x.x.p.:.T i 2 Z.[.",
"_._.#.j.L.n.K.U.c.s.n.E.c.F - n y.M.d.l.l.z.z.t.-.T p 2 Z.[.",
"_._.#.g.L.c.y.9.0.w.0.8.r.u...p.a.7.9.9.9.0.9.2.} J 9 1 Z.[.",
"_._.$.f.c.3.[ ) ( ) ) ) ( `  .` ( ) ) ) ) ) ) ! K z 5 1 Z.[.",
"_._.%.e.-.K l s s s s s s s s s s s s s s s a a r 7 : < A.[.",
"_.[.U g > $ + . o o o o o o o o o o o o o o o X X O   @ S.{.",
"_.}.*.j C B m m M M M M M M M M M M M M M M M M N B w A D.'.",
"_.).{.}. X&X*X*X*X*X*X*X*X*X*X*X*X*X*X*X*X*X*X*X*X&X&X&X`.).",
"_._._._._._._._._._._._._._._._._._._._._._._._._._._._._._."
};
