/* XPM */
static char *toolBarRightPressed_xpm[] = {
/* columns rows colors chars-per-pixel */
"30 30 128 2 ",
"   c #000004",
".  c #04040A",
"X  c #09070C",
"o  c #0B0A0E",
"O  c #100E11",
"+  c #161315",
"@  c #1C171A",
"#  c #1D191B",
"$  c #211C1D",
"%  c #3C2214",
"&  c #2B2726",
"*  c #322D2B",
"=  c #39322F",
"-  c #3C3532",
";  c #3F3835",
":  c #573A27",
">  c #533B29",
",  c #413936",
"<  c #453D39",
"1  c #483F3B",
"2  c #4D453F",
"3  c #584739",
"4  c #59483A",
"5  c #67523F",
"6  c #554B44",
"7  c #5C524B",
"8  c #675341",
"9  c #6A5544",
"0  c #61554D",
"q  c #645B53",
"w  c #6F645B",
"e  c #74675B",
"r  c #797067",
"t  c #836C5B",
"y  c #87725E",
"u  c #857564",
"i  c #8A7768",
"p  c #8E7D6D",
"a  c #917E6E",
"s  c #8F806D",
"d  c #92816F",
"f  c #878279",
"g  c #88857D",
"h  c #968574",
"j  c #988674",
"k  c #9A8976",
"l  c #9D8978",
"z  c #A08F7E",
"x  c #A7937F",
"c  c #787F80",
"v  c #7E8786",
"b  c #838784",
"n  c #878B86",
"m  c #8D918C",
"M  c #869291",
"N  c #889393",
"B  c #939B97",
"V  c #A69584",
"C  c #AB9683",
"Z  c #AD9A85",
"A  c #AF9E8D",
"S  c #B09D87",
"D  c #B39E8A",
"F  c #99A09B",
"G  c #B5A18D",
"H  c #BBA68F",
"J  c #AFA092",
"K  c #B6A696",
"L  c #BEA891",
"P  c #B7A998",
"I  c #BCAB98",
"U  c #93A1A0",
"Y  c #9EA7A3",
"T  c #9EA8A3",
"R  c #A0ADAB",
"E  c #ABBEBE",
"W  c #C3AD95",
"Q  c #C5AE98",
"!  c #C5B39C",
"~  c #CDB69C",
"^  c #D1B59C",
"/  c #C5B3A1",
"(  c #CDB8A3",
")  c #D5BDA3",
"_  c #D8BFA5",
"`  c #C8C0A6",
"'  c #DCC2A7",
"]  c #D5C3AE",
"[  c #DDC4A9",
"{  c #DACBAF",
"}  c #D7C4B0",
"|  c #DEC8B1",
" . c #DCD7BA",
".. c #E1C6AB",
"X. c #E4CAAE",
"o. c #E6CDB1",
"O. c #E9CEB4",
"+. c #E6D1B4",
"@. c #EED3B6",
"#. c #E8D5B9",
"$. c #F1D5B7",
"%. c #F2D6BC",
"&. c #F6DABC",
"*. c #FADDBE",
"=. c #B0C2C0",
"-. c #F0D9C2",
";. c #FCDFC0",
":. c #EAE2C3",
">. c #F7E2C2",
",. c #FEE4C4",
"<. c #FFE8C7",
"1. c #FFE7CB",
"2. c #FEEBCB",
"3. c #FFF0CF",
"4. c #FFEFD3",
"5. c #FFF4D2",
"6. c #FFFBD7",
"7. c #FFF6D9",
"8. c #FFFEDE",
"9. c #D6F7F9",
"0. c #D7F8FA",
"q. c #DCFDFE",
"w. c #FFFFE4",
"e. c #FFFFED",
"r. c #E1FFFF",
"t. c #EAFFFF",
"y. c #F3FFFF",
"u. c #FBFFFD",
/* pixels */
"r.r.r.r.r.r.r.r.r.r.r.r.r.r.r.r.r.r.r.r.r.r.r.r.r.r.r.r.r.r.",
"r.q.t.u.u.y.y.y.u.y.y.y.u.y.y.y.y.y.y.u.y.y.y.y.y.u.u.y.r.r.",
"r.y.E c M M M M M M M M M M M M M M M M m M M M M M v U r.r.",
"r.u.b % 3 3 4 4 4 4 4 4 4 4 4 4 4 4 4 4 4 4 4 4 3 3 > q q.t.",
"r.y.B 5 u u p s s p s d a a s s d s s p p s p p i i y f 0.r.",
"q.y.B 8 i k x Z Z Z Z Z Z Z Z Z Z Z Z Z Z Z Z Z V k d g 0.t.",
"r.t.B 9 h Z Q ~ ~ ~ ~ ~ ~ ~ ~ ~ ~ ~ ~ ~ ~ +.X.~ ~ G k g 0.t.",
"r.y.B 9 k H ' X.o.X.X.X.*.<.,.,.,.,.;.@.$.z H *.[ P l g 0.t.",
"r.y.B 9 l L [ @.&.&.&.<.o.Z G G G S ! <.5.$ 0 w.| I V p 9.t.",
"r.t.B 9 k L ' @.*.;.2.o.& X $ # # @   l w.= w 8.| P h g 9.t.",
"r.y.B 9 k L ' $.;.;.6.Z X ^ #.X.X.:.< , w.- w 8.| I l g 9.t.",
"q.y.B 9 k L ' @.*.;.6.Z # 5.e.8.8.u.e < w.; w w.| I l g 9.r.",
"r.y.B 9 k H ' $.*.;.6.Z X Q { ) _  ., ; w.- w 8.| I l b 9.r.",
"r.y.B 9 k L ' $.;.>.2.+.* . + + + O . V w.- w 8.| I z g 9.t.",
"r.y.B 9 k L _ @.<.5.2.6.2.) [ [ [ ) @.5.4.- e w.| I z p 9.t.",
"r.t.B 9 k L _ ;.,.' [ ..$.>.*.;.*.&.<.5.2.= q w.| P l g 9.t.",
"r.y.B 9 k H o.@.6 . @ # # # # # # + o G w.- w 8.| I l g 9.t.",
"r.t.B 9 k L *.S   V ! L L L L L I ( * < w.- w 8.| I l g 9.t.",
"r.y.B 9 k H *.S # 2.e.8.8.8.8.8.8.u.e < w.- w 8.| I z g 9.t.",
"r.y.B 9 k W *.C X [ 2.&.&.&.&.&.*.5.6 ; w.- w 8...I l g 9.t.",
"q.y.B 9 k L @.' # X $ # # # # # # #   p w.= w 8.| I l g 9.t.",
"r.y.B 9 k L ' ,.{ h l V V l V l l h G 1.8.# 7 w.| I l b 9.t.",
"r.y.B 9 k L ..*.5.w.w.8.w.8.w.w.w.w.8.1.1.A Q 4.| I k g 9.t.",
"q.y.B 8 h L X.@.-.-.-.-.-.-.-.-.-.-.-.-.-.7.4.O._ K k p 9.r.",
"r.y.B 8 h Z ( } } } } } } } } } } } } } } } } _ / J h b 9.t.",
"r.y.B 8 h V K P P P P P P K P P P P P P K L I K J V h g 9.t.",
"r.y.n : t i a p p p p p p p a i p a p p i a a i i i t r 9.t.",
"r.t.=.m Y Y Y Y Y Y Y Y Y J R R Y Y Y Y R F R R R R B R r.r.",
"r.q.t.y.t.y.t.t.t.t.t.t.t.t.t.t.t.t.t.t.t.t.t.t.y.t.t.y.r.r.",
"r.r.r.r.r.r.r.r.r.r.r.r.r.r.r.r.r.r.r.r.r.r.r.r.r.r.r.r.r.r."
};
