/* XPM */
static char *toolBarRightDisabled_xpm[] = {
/* columns rows colors chars-per-pixel */
"30 30 177 2 ",
"   c #685F5F",
".  c #6B6666",
"X  c #6C6666",
"o  c #6C6767",
"O  c #6D6767",
"+  c #6D6868",
"@  c #6C6C6C",
"#  c #767171",
"$  c gray50",
"%  c #818181",
"&  c #848484",
"*  c #888585",
"=  c #8C8686",
"-  c #808989",
";  c #858989",
":  c #868A8A",
">  c #868B8B",
",  c #878B8B",
"<  c #888888",
"1  c #898989",
"2  c gray54",
"3  c #8E8B8B",
"4  c gray55",
"5  c #8D8C8C",
"6  c #8D8D8D",
"7  c gray56",
"8  c #928F8F",
"9  c #8B9090",
"0  c #889393",
"q  c #8F9A9A",
"w  c #8F9B9B",
"e  c #909090",
"r  c gray57",
"t  c #939091",
"y  c #929292",
"u  c #939393",
"i  c #949190",
"p  c #949191",
"a  c gray58",
"s  c #959595",
"d  c gray59",
"f  c #979797",
"g  c #9D9191",
"h  c #989595",
"j  c #959E9E",
"k  c gray60",
"l  c #9A9A9A",
"z  c #9D9D9D",
"x  c gray62",
"c  c #9F9F9F",
"v  c #94A0A0",
"b  c #94A1A1",
"n  c #95A1A1",
"m  c #95A2A2",
"M  c #9DA1A1",
"N  c #99A6A6",
"B  c #98A7A7",
"V  c #9BAAAB",
"C  c #A0A0A0",
"Z  c gray63",
"A  c #A2A2A2",
"S  c #A4A4A4",
"D  c #A5A5A5",
"F  c gray65",
"G  c #A7A7A7",
"H  c #A8A5A5",
"J  c #A5ADAD",
"K  c #A5AEAE",
"L  c gray66",
"P  c #A9A9A9",
"I  c #AAAAAA",
"U  c gray67",
"Y  c #ACACAC",
"T  c gray68",
"R  c #AEAEAE",
"E  c #B7ACAC",
"W  c gray69",
"Q  c #B1B1B1",
"!  c #B2B2B2",
"~  c gray70",
"^  c #B4B4B4",
"/  c gray71",
"(  c #B6B6B6",
")  c #B7B7B7",
"_  c #BBB2B2",
"`  c gray72",
"'  c gray73",
"]  c #BCBCBC",
"[  c gray",
"{  c #C2BCBC",
"}  c #C4BFBF",
"|  c #AEC1C1",
" . c #B6C2C2",
".. c #B6C3C3",
"X. c #B7C3C3",
"o. c #BBC7C7",
"O. c #B5C9C9",
"+. c #C1C1C1",
"@. c gray76",
"#. c #C3C3C3",
"$. c #C6C1C1",
"%. c #C7C1C1",
"&. c #C7C2C2",
"*. c gray77",
"=. c #C5C5C5",
"-. c #C6C6C6",
";. c gray78",
":. c #C8C8C8",
">. c gray79",
",. c #CBCBCB",
"<. c gray80",
"1. c #CDCDCD",
"2. c #CECECE",
"3. c gray81",
"4. c #D1CCCC",
"5. c #D0D0D0",
"6. c #D2D2D2",
"7. c #D4D0D0",
"8. c #D5D5D5",
"9. c #D7D7D7",
"0. c #DAD4D4",
"q. c #DBD5D5",
"w. c #DCD6D6",
"e. c #DCD7D7",
"r. c #D8D8D8",
"t. c gray85",
"y. c #DADADA",
"u. c gray86",
"i. c #DDD8D8",
"p. c gainsboro",
"a. c #DDDDDD",
"s. c gray87",
"d. c #DFDFDF",
"f. c #CEECED",
"g. c #CFEEEE",
"h. c #D5F4F4",
"j. c #D6F5F5",
"k. c #D7F6F6",
"l. c #D8F7F7",
"z. c #D8F8F8",
"x. c #DFFDFD",
"c. c #DEFFFF",
"v. c #DFFFFF",
"b. c gray88",
"n. c #E1E1E1",
"m. c #E2E2E2",
"M. c gray89",
"N. c #E4E4E4",
"B. c gray90",
"V. c #E6E6E6",
"C. c #E7E7E7",
"Z. c #EDE7E7",
"A. c gray91",
"S. c #EAEAEA",
"D. c gray92",
"F. c gray93",
"G. c #EEEEEE",
"H. c #E0FDFD",
"J. c LightCyan",
"K. c #E1FFFF",
"L. c #E2FFFF",
"P. c #E5FFFF",
"I. c #E6FFFF",
"U. c #E8FFFF",
"Y. c #E9FFFF",
"T. c #EBFFFF",
"R. c #ECFFFF",
"E. c #EDFFFF",
"W. c #EEFFFF",
"Q. c #F1F1F1",
"!. c gray95",
"~. c #F3F3F3",
"^. c #F4F4F4",
"/. c gray96",
"(. c #F6F6F6",
"). c azure",
"_. c #F1FFFF",
/* pixels */
"K.K.K.K.K.K.K.K.K.K.K.K.K.K.K.K.K.K.K.K.K.K.K.K.K.K.K.K.K.K.",
"K.v.R._.W.W.W.W.W.W.W.W.W.W.W.W.W.W.W.W.W.W.W.W.W.W.)._.L.J.",
"K.W.| - w w w w w w w w w w w w w w w w w w w w w w 0 B H.P.",
"K.I.J E &.$.%.$.$.$.$.$.$.$.$.$.$.$.$.$.$.$.$.$.} { _ 5 f.Y.",
"K.c.o.Z.(././.^.^.^.^.^.^.^.^.^.^.^.^.^.^.^.^.~.Q.S.7.M g.U.",
"K.J.X.i.C.B.M.M.M.M.M.M.M.M.M.M.M.M.M.M.M.N.N.m.s.:.H 9 h.U.",
"K.J. .e.N.b.d.s.a.a.a.a.a.a.a.a.a.a.a.a.p.m.B.p.3.~ h , j.U.",
"K.J.X.w.M.s.u.y.t.t.r.p.B.V.B.B.B.B.V.s.b.' Y u.*.I t : k.U.",
"K.J.X.w.M.s.u.t.t.t.u.u.] R Q Q Q R ( 9.S.S 4 t.@.L i > k.U.",
"K.J.X.w.M.s.u.t.t.t.B.( $ e r r r y $ G G.T d r.#.P i > k.U.",
"K.J.X.w.M.s.u.t.t.t.B.c f m.p.y.y.V.I r S.T d r.#.P i > k.U.",
"K.J.X.w.M.s.u.t.t.t.B.Z x F.B.M.M.Q.Q a D.T d r.#.P i > k.U.",
"K.J.X.w.M.s.u.t.t.t.V.C y 8.5.3.3.t.A r S.T d r.#.P i > k.U.",
"K.J.X.w.M.s.u.t.t.t.N.[ & < 2 2 2 1 % Q G.Y d r.#.P i > k.U.",
"K.J.X.w.M.s.u.t.u.p.p.b.1.@.=.=.=.#.:.p.V.U d r.#.P i > k.U.",
"K.J.X.w.M.s.y.n.b.p.p.s.V.A.C.C.C.C.S.M.m.U d r.#.P i > k.U.",
"K.J.X.w.M.s.m.-.a 7 u u u u u u u 7 a -.F.U d r.#.P i > k.U.",
"K.J.X.w.M.b.m.d 4 ^ R R R R R R R ^ 4 d F.T d r.#.P i > k.U.",
"K.J.X.w.M.b.d.r W ~.B.B.B.B.B.B.B.~.W u S.T d r.#.P i > k.U.",
"K.J.X.w.M.b.d.y W ~.B.B.B.B.B.B.B.!.W u S.T d r.#.P i > k.U.",
"K.J.X.w.M.b.M.d 4 ~ T T T T T T T ~ 4 f F.T d r.#.P i > k.U.",
"K.J.X.w.M.d.M.-.s e u u u u u u u e s :.F.P y t.*.P p > k.U.",
"K.K. .w.M.s.u.n.s.y.u.u.u.u.u.u.u.y.s.b.m.W z r.@.P p , k.U.",
"K.K. .q.M.u.6.<.2.3.3.3.3.3.3.3.3.3.2.<.1.,.>.;.` D 8 : k.U.",
"K.K...0.u.-.) ! Q ! ! ! ! ! ! ! ! ! ! ! Q / ) R F l 3 : k.U.",
"K.K.X.4.+.F k s s s s s s s s s s s s s s s a a e 6 * ; l.U.",
"K.U.K g = # + . o o o o o o o o o o o o o o o X X O   @ z.Y.",
"K.T.O.j N m v v b b b b b b b b b b b b b b b b n m q V x.P.",
"K.J.Y.T.E.)._._._._._._._._._._._._._._._._._._._.).).).L.J.",
"K.K.K.K.K.K.K.K.K.K.K.K.K.K.K.K.K.K.K.K.K.K.K.K.K.K.K.K.K.K."
};
