/* XPM */
static char *toolBarLeftMouseOver_xpm[] = {
/* columns rows colors chars-per-pixel */
"30 30 162 2 ",
"   c #000002",
".  c #09080E",
"X  c #0E0E12",
"o  c #131216",
"O  c #161418",
"+  c #181619",
"@  c #1E1C1E",
"#  c #231B1D",
"$  c #23201F",
"%  c #241F20",
"&  c #242121",
"*  c #282424",
"=  c #2D2827",
"-  c #2F2A28",
";  c #342D2B",
":  c #3E3632",
">  c #483E38",
",  c #4E443D",
"<  c #52473F",
"1  c #584D44",
"2  c #66584B",
"3  c #64564B",
"4  c #6E5E51",
"5  c #6F6051",
"6  c #746355",
"7  c #786758",
"8  c #7B695A",
"9  c #6F765D",
"0  c #747A5F",
"q  c #7E7664",
"w  c #777D62",
"e  c #797F65",
"r  c #8C484B",
"t  c #80524D",
"y  c #855751",
"u  c #8D5E57",
"i  c #8F5F58",
"p  c #8C6759",
"a  c #816E5E",
"s  c #96655C",
"d  c #83705F",
"f  c #88765F",
"g  c #837362",
"h  c #827865",
"j  c #947E67",
"k  c #927D69",
"l  c #9B7463",
"z  c #A16E65",
"x  c #A77D6B",
"c  c #578062",
"v  c #598965",
"b  c #5F9265",
"n  c #589068",
"m  c #579969",
"M  c #5B9C69",
"N  c #638C64",
"B  c #7B8065",
"V  c #639769",
"C  c #65986A",
"Z  c #73946E",
"A  c #7F9E76",
"S  c #55B072",
"D  c #5FB776",
"F  c #3EE67C",
"G  c #3FEB7D",
"H  c #40D579",
"J  c #49DD7F",
"K  c #45DA7D",
"L  c #808468",
"P  c #888B6D",
"I  c #9D866D",
"U  c #9B8673",
"Y  c #9A9A7A",
"T  c #AD8370",
"R  c #A38B71",
"E  c #B18672",
"W  c #B58875",
"Q  c #A79078",
"!  c #AE9479",
"~  c #AB9277",
"^  c #B69C7F",
"/  c #BE917B",
"(  c #83B07E",
")  c #4ADD80",
"_  c #4DE182",
"`  c #41EA81",
"'  c #55E584",
"]  c #58E585",
"[  c #52EF87",
"{  c #58E987",
"}  c #59EC88",
"|  c #44F285",
" . c #4DF385",
".. c #4DF689",
"X. c #4FFA8C",
"o. c #51F68B",
"O. c #58F38A",
"+. c #51F88C",
"@. c #B69A80",
"#. c #BA9E82",
"$. c #82A480",
"%. c #86B585",
"&. c #86B788",
"*. c #8BBB8B",
"=. c #BCA083",
"-. c #E18583",
";. c #C1A587",
":. c #CFA087",
">. c #C2A689",
",. c #C5A889",
"<. c #CAAC8D",
"1. c #CEB18F",
"2. c #CEB090",
"3. c #D6B795",
"4. c #D7B895",
"5. c #D9B997",
"6. c #DCBC99",
"7. c #F4A79B",
"8. c #E0BE9C",
"9. c #F3B19B",
"0. c #F0BBAF",
"q. c #F1B6A3",
"w. c #EEBEB7",
"e. c #F0BFBB",
"r. c #F1B1BC",
"t. c #DFC09D",
"y. c #E4C09D",
"u. c #E7C4A0",
"i. c #E9C6A2",
"p. c #EBC8A3",
"a. c #E1CDA8",
"s. c #F1CCA7",
"d. c #FFC7AC",
"f. c #F9C2A2",
"g. c #E1D6AE",
"h. c #F5D1AB",
"j. c #FAD5AE",
"k. c #FED8AF",
"l. c #EFC0BB",
"z. c #F1C1BC",
"x. c #FAD7B2",
"c. c #FDDBB5",
"v. c #FFD2BC",
"b. c #FDDDBC",
"n. c #FFE1B7",
"m. c #FFE5BC",
"M. c #FFE8BD",
"N. c #FFD3C2",
"B. c #FBDFC1",
"V. c #FFD8C9",
"C. c #FEE4C2",
"Z. c #FFEEC1",
"A. c #FFECCA",
"S. c #FFF3C6",
"D. c #FFF5C9",
"F. c #FFFACB",
"G. c #FFEED2",
"H. c #FFE8DA",
"J. c #FFF2D6",
"K. c #FFFED3",
"L. c #FFFFDD",
"P. c LightYellow",
/* pixels */
"] ] ] ] ' ' ] ' ' ] ' ' ] ] ] ] ' ' ' ] ] ] ] ] ] ] ] ] ] ] ",
"] ] O. .| | [  .[ .. . ... . . . . . . . . . . . . ...o.] ] ",
"] O.S c v n n n n n n n n n n n n n n n n n n n n n v m ] { ",
"] F ( r.N.l.e.e.e.e.e.l.e.e.e.e.l.e.w.e.e.l.e.e.0.q.7.U H } ",
"] F *.H.H.J.G.G.G.G.G.G.G.G.G.G.G.G.G.G.G.G.G.A.C.k.f.Y H } ",
"' F &.V.C.C.B.C.B.b.B.B.b.B.B.b.B.B.B.B.B.B.b.c.h.6.:.P K } ",
"' F %.N.B.b.x.A.C.x.x.b.x.x.x.b.c.c.c.x.x.c.c.j.y.<./ L J } ",
"] F %.N.B.b.C.6 U Z.m.F.F.D.D.D.D.D.b.x.x.x.j.s.6.;.W B J } ",
"] F %.N.b.b.M.X 1 K.h.k 8 g g g 7 R c.c.x.j.h.p.3.=.E B J } ",
"] F %.N.b.b.m.; 5 L.3   & & # % @   k S.k.j.h.p.3.=.E B ) } ",
"] F %.N.b.c.m.= 6 F.& 4 S.k.c.c.Z.; , S.j.j.h.p.4.=.E B ) } ",
"] F %.v.b.b.m.= 6 K.- a L.S.Z.S.K.> < S.j.j.h.p.3.=.E B ) } ",
"] F %.N.b.b.M.; 6 K.$ 1 g.6.6.t.a.& , S.j.j.h.p.3.=.E B J } ",
"] F %.N.b.c.M.= 6 K.d   X X X X .   Q S.j.j.h.p.4.=.E B J } ",
"] F %.N.b.b.M.- 5 D.c.<.#.=.=.=.^ 4.m.n.c.c.h.p.4.=.T B ' } ",
"] F %.N.b.b.M.- 5 M.Z.K.D.F.F.F.F.S.n.c.c.M.m.y.3.=.E B J } ",
"] F %.N.b.b.m.- 6 K.>.= # * = * * = = * # = =.c.4.^ W B J } ",
"] F %.N.b.b.m.- 6 K.; o h 8 7 7 7 7 7 7 h + ; c.t.=.E B J } ",
"] F %.N.b.b.m.= 6 F.% a P.D.S.S.S.S.S.S.L.d $ j.6.^ E B J } ",
"] F %.N.b.c.m.; 6 K.* q P.S.S.S.S.S.S.S.P.d & j.y.^ E B J } ",
"] F %.N.b.b.m.- 6 K.; O q 7 7 7 7 7 7 7 q O ; c.6.=.E B J } ",
"] G %.v.b.b.m.# 2 K.,.- # * * * * * * * # ; =.k.4.=.E B J } ",
"' F %.v.c.c.m.: 7 M.n.n.h.j.j.j.j.j.k.j.h.n.c.6.1.^ T B _ } ",
"] F %.v.k.s.p.4.4.y.8.y.p.y.i.y.u.u.y.i.i.y.6.3.;.! x w _ } ",
"] G %.d.u.3.<.3.2.;.,.,.,.,.,.,.,.,.,.,.,.,.;.^ ! I l 0 J } ",
"] ` ( 9.<.^ ~ T R R R R R R R R R R R R R R R I j f p 9 ' } ",
"] | A -.W z s u u u u u u u u u u p p u p u p y y t r 6 ' } ",
"] [ D Z C V V b b b b b V v V b b N V v N v V V V v N M J } ",
"] ] [ | ......o.+.+.+.+...+.+... .o.o.o.o.o.o.o...+...+.] ] ",
"] ] ] ] ] ] ] ] ] ' ] ] ] ] ] ] ] ] ] ] ] ' ] ] ] ] ] ] ] ] "
};
