/* XPM */
static char *toolBarRightNormal_xpm[] = {
/* columns rows colors chars-per-pixel */
"30 30 141 2 ",
"   c #000002",
".  c #08080D",
"X  c #0E0D12",
"o  c #151316",
"O  c #1E1C1D",
"+  c #221B1D",
"@  c #241F20",
"#  c #242121",
"$  c #292424",
"%  c #2D2827",
"&  c #2F2928",
"*  c #342D2B",
"=  c #3E3632",
"-  c #483E39",
";  c #4D433C",
":  c #51463E",
">  c #624126",
",  c #674E37",
"<  c #6D533B",
"1  c #71573E",
"2  c #74593F",
"3  c #564A42",
"4  c #5D4F46",
"5  c #63564A",
"6  c #67594E",
"7  c #755941",
"8  c #6C5D50",
"9  c #7C6046",
"0  c #7E654B",
"q  c #6C6051",
"w  c #746456",
"e  c #776658",
"r  c #786758",
"t  c #7A6959",
"y  c #7E7664",
"u  c #886A4F",
"i  c #816E5E",
"p  c #8C7155",
"a  c #88755E",
"s  c #9B7B5E",
"d  c #AB7B53",
"f  c #837363",
"g  c #817A6D",
"h  c #947E67",
"j  c #917D69",
"k  c #867D70",
"l  c #9F8063",
"z  c #9D866D",
"x  c #8C8375",
"c  c #988471",
"v  c #9D8873",
"b  c #928779",
"n  c #9A8E7E",
"m  c #A28365",
"M  c #A68668",
"N  c #AF8E6E",
"B  c #A38B71",
"V  c #AB9277",
"C  c #A79179",
"Z  c #AD9479",
"A  c #B69C7F",
"S  c #CF9F75",
"D  c #C19E7B",
"F  c #818886",
"G  c #8A928E",
"H  c #91948D",
"J  c #8F9B9A",
"K  c #969D97",
"L  c #9A9E94",
"P  c #909B99",
"I  c #AC9E8A",
"U  c #B69B80",
"Y  c #B99E82",
"T  c #9BA19A",
"R  c #BCA083",
"E  c #A0A59E",
"W  c #A8A69A",
"Q  c #99A6A4",
"!  c #9DA8A4",
"~  c #AAACA4",
"^  c #BABBAF",
"/  c #BEBFB3",
"(  c #C1A587",
")  c #C1A589",
"_  c #CBA68C",
"`  c #C5A889",
"'  c #CAAC8D",
"]  c #D8AC85",
"[  c #D8B18D",
"{  c #CFB190",
"}  c #D4B594",
"|  c #DBBA97",
" . c #D7B699",
".. c #DCBC99",
"X. c #E0BE9B",
"o. c #D7BBA5",
"O. c #D8BDA7",
"+. c #BEC0B6",
"@. c #BDC1B9",
"#. c #EAC096",
"$. c #E5C29E",
"%. c #F1C297",
"&. c #C2C5BD",
"*. c #E7C4A0",
"=. c #E8C5A1",
"-. c #E1CCA7",
";. c #F1CDA6",
":. c #F8CCA2",
">. c #F5CEAB",
",. c #E1D5AE",
"<. c #F6D1AB",
"1. c #FAD5AE",
"2. c #FED8AF",
"3. c #F6D2B2",
"4. c #FAD7B1",
"5. c #FCDAB5",
"6. c #FCDDBC",
"7. c #FFE1B7",
"8. c #FFE4BB",
"9. c #FFE9BC",
"0. c #AEC1C0",
"q. c #B7C8C5",
"w. c #FBDFC2",
"e. c #FEE3C2",
"r. c #FFECC1",
"t. c #FFEBCB",
"y. c #FFF3C5",
"u. c #FFF5C9",
"i. c #FFFACB",
"p. c #FFEED2",
"a. c #FFF2D6",
"s. c #FFFED3",
"d. c #FFFFDD",
"f. c #CBEFF5",
"g. c #D3F6FA",
"h. c #D5F8FC",
"j. c #DDFFFF",
"k. c #FFFFE0",
"l. c #E1FFFF",
"z. c #ECFFFF",
"x. c #F0FFFF",
/* pixels */
"l.l.l.l.l.l.l.l.l.l.l.l.l.l.l.l.l.l.l.l.l.l.l.l.l.l.l.l.l.l.",
"l.j.z.x.z.z.z.z.z.z.z.z.z.z.z.x.z.z.z.z.z.z.z.z.z.z.z.x.l.l.",
"l.z.0.F J J J J P P P P J P P P J J J J P P P P P P G Q l.l.",
"l.l.~ _ o.o.o.o.o.o.o.o.o.o.o.o.o.o.o.o.o.o.o.o. .[ S h f.z.",
"l.j.&.e.a.p.p.p.p.p.p.p.p.p.p.p.p.p.p.p.p.p.u.t.e.5.#.I f.z.",
"l.j.@.3.e.w.w.w.6.w.6.w.w.6.6.w.w.w.w.w.w.w.w.5.<.| D n g.z.",
"l.j.@.3.w.6.6.6.6.4.6.4.5.5.6.5.5.5.4.6.5.e.r.<.$.' N b g.l.",
"l.j.+.<.w.6.4.4.4.4.<.6.u.u.u.u.u.u.i.7.r.v w 2.X.( M x g.z.",
"j.j.@.>.6.5.4.1.3.1.5.5.B t f f f t h >.s.4 o 1.X.R m x h.z.",
"j.j./ >.6.5.4.4.1.1.y.j   O @ + # #   5 s.w % 1.| R m x h.l.",
"l.j.@.>.6.5.4.4.1.1.u.; * r.5.5.4.y.8 # s.e % 2...R m x h.l.",
"l.j./ >.6.5.4.1.1.1.y.: ; s.y.9.y.d.i % s.e % 1...Y m x g.z.",
"l.j.+.>.6.5.4.3.1.1.y.: # -.......,.3 # s.e % 1...R m x h.z.",
"l.j.+.>.6.5.4.1.1.1.y.C   . o X X X   i s.e % 2...R m x h.z.",
"l.j.+.>.6.5.4.4.5.5.5.9. .U R R R Y ' 7.u.q % 4...D m x h.l.",
"l.j.+.>.6.5.1.9.8.5.5.7.u.i.i.i.y.i.s.r.r.w % 1...R m x h.z.",
"l.j.+.>.6.5.9.) % + $ $ $ $ $ $ $ + % ) s.w % 1...R m x h.z.",
"l.j.+.>.6.6.r.* o f t t t t t t t f o * s.e % 1...R m x g.z.",
"l.j.+.>.6.6.8.# f k.y.y.y.u.y.y.i.k.t $ i.e * 1...Y m x h.z.",
"l.j.+.>.6.6.8.# t k.y.y.y.y.y.y.y.d.f $ s.e % 1...R m x h.l.",
"l.j.+.>.6.5.r.* o y t t e e e e t y o * s.e % 4.X.Y m x h.z.",
"l.j.+.>.6.5.r.) % + $ $ $ $ $ $ $ + % ` s.6 + 1...Y m x h.l.",
"l.j.+.>.5.5.<.7.5.<.1.1.1.<.1.1.1.<.5.7.9.r = <.} U m x g.z.",
"l.j.+.:.2.;.$.$.*.=.*.=.=.=.=.=.*.=.=...$.| } } ( Z s k h.l.",
"l.j./ %.=.| ' ' ` ` ` ` ` ` ` ` ` ` ` ` ) { } U Z z p k h.z.",
"l.l.^ ] ' A V B B B B B B B B B B B B B B B z z h a 0 g j.l.",
"l.l.W d s u 9 2 2 7 2 2 7 7 7 7 7 7 2 7 7 7 1 7 < , > q j.z.",
"l.z.q.L E T L L K K K K K K K L K K K K K K K L K K H ! l.l.",
"l.l.z.l.z.z.x.z.x.z.x.x.z.x.x.z.x.z.x.x.z.x.z.x.z.x.x.x.l.l.",
"l.l.l.l.l.l.l.l.l.l.l.l.l.l.l.l.l.l.l.l.l.l.l.l.l.l.l.l.l.l."
};
