/* XPM */
static char *toolBarBottomDisabled_xpm[] = {
/* columns rows colors chars-per-pixel */
"30 30 177 2 ",
"   c #685F5F",
".  c #6B6666",
"X  c #6C6666",
"o  c #6C6767",
"O  c #6D6767",
"+  c #6D6868",
"@  c #6C6C6C",
"#  c #767171",
"$  c #808080",
"%  c #848484",
"&  c gray53",
"*  c #888585",
"=  c #8C8686",
"-  c #808989",
";  c #858989",
":  c #868A8A",
">  c #868B8B",
",  c #878B8B",
"<  c #888888",
"1  c #898989",
"2  c gray54",
"3  c #8B8B8B",
"4  c #8E8B8B",
"5  c gray55",
"6  c #8D8C8C",
"7  c #8D8D8D",
"8  c #928F8F",
"9  c #8B9090",
"0  c #889393",
"q  c #8F9A9A",
"w  c #8F9B9B",
"e  c #909090",
"r  c gray57",
"t  c #939091",
"y  c #929292",
"u  c #939393",
"i  c #949190",
"p  c #949191",
"a  c gray58",
"s  c #959595",
"d  c gray59",
"f  c #979797",
"g  c #9D9191",
"h  c #989595",
"j  c #959E9E",
"k  c #989898",
"l  c gray60",
"z  c #9A9A9A",
"x  c gray61",
"c  c #9D9D9D",
"v  c #9F9F9F",
"b  c #94A0A0",
"n  c #94A1A1",
"m  c #95A1A1",
"M  c #95A2A2",
"N  c #9DA1A1",
"B  c #99A6A6",
"V  c #98A7A7",
"C  c #9BAAAB",
"Z  c #A0A0A0",
"A  c gray63",
"S  c #A2A2A2",
"D  c #A4A4A4",
"F  c #A5A5A5",
"G  c gray65",
"H  c #A7A7A7",
"J  c #A8A5A5",
"K  c #A5ADAD",
"L  c #A5AEAE",
"P  c gray66",
"I  c #A9A9A9",
"U  c #AAAAAA",
"Y  c gray67",
"T  c #ACACAC",
"R  c gray68",
"E  c #AEAEAE",
"W  c #B7ACAC",
"Q  c gray69",
"!  c #B1B1B1",
"~  c gray70",
"^  c #B4B4B4",
"/  c #B6B6B6",
"(  c #B7B7B7",
")  c #BBB2B2",
"_  c gray72",
"`  c #BBBBBB",
"'  c gray",
"]  c #C2BCBC",
"[  c #C4BFBF",
"{  c #AEC1C1",
"}  c #B6C2C2",
"|  c #B6C3C3",
" . c #B7C3C3",
".. c #BBC7C7",
"X. c #B5C9C9",
"o. c #C0C0C0",
"O. c #C1C1C1",
"+. c gray76",
"@. c #C3C3C3",
"#. c #C6C1C1",
"$. c #C7C1C1",
"%. c #C7C2C2",
"&. c #C6C6C6",
"*. c #C8C8C8",
"=. c gray79",
"-. c #CACACA",
";. c #CBCBCB",
":. c gray80",
">. c #CECECE",
",. c gray81",
"<. c #D1CCCC",
"1. c #D0D0D0",
"2. c gray82",
"3. c #D2D2D2",
"4. c LightGray",
"5. c #D4D0D0",
"6. c gray83",
"7. c #D5D5D5",
"8. c #D7D7D7",
"9. c #DAD4D4",
"0. c #DBD5D5",
"q. c #DCD6D6",
"w. c #DCD7D7",
"e. c gray85",
"r. c #DADADA",
"t. c gray86",
"y. c #DDD8D8",
"u. c gainsboro",
"i. c #DDDDDD",
"p. c gray87",
"a. c #DFDFDF",
"s. c #CEECED",
"d. c #CFEEEE",
"f. c #D5F4F4",
"g. c #D6F5F5",
"h. c #D7F6F6",
"j. c #D8F7F7",
"k. c #D8F8F8",
"l. c #DFFDFD",
"z. c #DEFFFF",
"x. c #DFFFFF",
"c. c gray88",
"v. c #E1E1E1",
"b. c #E2E2E2",
"n. c gray89",
"m. c #E4E4E4",
"M. c gray90",
"N. c #E6E6E6",
"B. c #E7E7E7",
"V. c #EDE7E7",
"C. c gray91",
"Z. c #EAEAEA",
"A. c gray92",
"S. c #ECECEC",
"D. c gray93",
"F. c #EEEEEE",
"G. c #EFEFEF",
"H. c #E0FDFD",
"J. c LightCyan",
"K. c #E1FFFF",
"L. c #E2FFFF",
"P. c #E5FFFF",
"I. c #E6FFFF",
"U. c #E8FFFF",
"Y. c #E9FFFF",
"T. c #EBFFFF",
"R. c #ECFFFF",
"E. c #EDFFFF",
"W. c #EEFFFF",
"Q. c #F1F1F1",
"!. c gray95",
"~. c #F3F3F3",
"^. c #F4F4F4",
"/. c gray96",
"(. c #F6F6F6",
"). c azure",
"_. c #F1FFFF",
/* pixels */
"K.K.K.K.K.K.K.K.K.K.K.K.K.K.K.K.K.K.K.K.K.K.K.K.K.K.K.K.K.K.",
"K.x.R._.W.W.W.W.W.W.W.W.W.W.W.W.W.W.W.W.W.W.W.W.W.W.)._.L.J.",
"K.W.{ - w w w w w w w w w w w w w w w w w w w w w w 0 V H.P.",
"K.I.K W %.#.$.#.#.#.#.#.#.#.#.#.#.#.#.#.#.#.#.#.[ ] ) 6 s.Y.",
"K.z...V.(././.^.^.^.^.^.^.^.^.^.^.^.^.^.^.^.^.~.Q.Z.5.N d.U.",
"K.J. .y.B.M.n.n.n.m.M.M.M.m.n.n.n.n.n.n.n.n.n.b.p.*.J 9 f.U.",
"K.J.} w.m.c.a.u.b.B.b.b.n.N.p.u.i.i.i.i.i.i.p.i.,.~ h , g.U.",
"K.J. .q.n.p.t.c.4.A e y r / p.t.e.e.e.e.e.e.r.7.@.U t : h.U.",
"K.J. .q.n.p.t.N.T $ T Q c % >.v.e.e.e.e.e.e.e.3.o.P i > h.U.",
"K.J. .q.n.p.t.M.F k Z.Q.2.1 =.v.e.e.e.e.e.r.e.4.O.I i > h.U.",
"K.J. .q.n.p.t.M.P d p.m.*.3 -.c.v.N.M.M.N.a.8.4.O.I i > h.U.",
"K.J. .q.n.p.t.M.P d p.m.*.3 -.C.;.D Z v U 4.a.4.O.I i > h.U.",
"K.J. .q.n.p.t.M.P d p.m.*.3 >.m.a & c x $ D m.6.O.I i > h.U.",
"K.J. .q.n.p.t.M.P d p.m.*.3 1.i.1 ` G.F.H s c.6.+.I i > h.U.",
"K.J. .q.n.p.t.M.P d p.m.*.3 ,.a.7 _ B.B.G l c.6.O.I i > h.U.",
"K.J. .q.n.p.t.M.P d p.m.*.3 ,.a.7 ( N.M.F l c.6.O.I i > h.U.",
"K.J. .q.n.p.t.M.P d p.m.*.3 ,.a.7 ( N.M.F l c.6.O.I i > h.U.",
"K.J. .q.n.p.t.M.F f Z.Q.2.< >.p.2 ' ~.!.I s c.6.O.I i > h.U.",
"K.J. .q.n.p.t.B.T $ T ! c % 4.n.7 u ! Q & c m.6.O.I i > h.U.",
"K.J. .q.n.p.t.a.6.S r a y / p.b.O.a u y z :.v.4.O.I i > h.U.",
"K.J. .q.n.p.r.c.A.F.Z.Z.A.F.M.n.D.S.Z.Z.D.D.n.6.o.I i > h.U.",
"K.J. .q.n.a.v.` F R E E E T Y T T E R E R I Q 2.&.I p > h.U.",
"K.K.} q.n.c.n.T 5 d d d d d d d d d d d d r x >.&.I p , h.U.",
"K.K.} 0.n.t.3.2.3.3.3.3.3.3.3.3.3.3.3.3.3.3.4.*.( F 8 : h.U.",
"K.K.| 9.t.&.( ~ ~ ~ ~ ~ ~ ~ ~ ~ ~ ~ ~ ~ ~ ^ ~ E G z 4 : h.U.",
"K.K. .<.O.G l s s s s s s s s s s s s s s s a a e 7 * ; j.U.",
"K.U.L g = # + . o o o o o o o o o o o o o o o X X O   @ k.Y.",
"K.T.X.j B M b b n n n n n n n n n n n n n n n n m M q C l.P.",
"K.J.Y.T.E.)._._._._._._._._._._._._._._._._._._._.).).).L.J.",
"K.K.K.K.K.K.K.K.K.K.K.K.K.K.K.K.K.K.K.K.K.K.K.K.K.K.K.K.K.K."
};
