/* XPM */
static char *toolBarTopMouseOver_xpm[] = {
/* columns rows colors chars-per-pixel */
"30 30 162 2 ",
"   c #000002",
".  c #03030A",
"X  c #0A090F",
"o  c #0E0D12",
"O  c #100E13",
"+  c #111014",
"@  c #171419",
"#  c #181519",
"$  c #201D1E",
"%  c #241F20",
"&  c #252121",
"*  c #2C2424",
"=  c #2D2827",
"-  c #2E2A28",
";  c #312826",
":  c #322B29",
">  c #3A332F",
",  c #3E3532",
"<  c #403733",
"1  c #423C37",
"2  c #453E38",
"3  c #4A403A",
"4  c #52453D",
"5  c #5B4E45",
"6  c #554A41",
"7  c #5E5147",
"8  c #5F5248",
"9  c #64554A",
"0  c #68594E",
"q  c #6E5E51",
"w  c #736355",
"e  c #776E5E",
"r  c #796C5C",
"t  c #6F765D",
"y  c #747A5F",
"u  c #7B7160",
"i  c #777D62",
"p  c #797F65",
"a  c #8C484B",
"s  c #80524D",
"d  c #855751",
"f  c #8D5E57",
"g  c #8F5F58",
"h  c #8C6759",
"j  c #96655C",
"k  c #88765F",
"l  c #8B7864",
"z  c #947E67",
"x  c #947E6A",
"c  c #9B7463",
"v  c #A16E65",
"b  c #A77D6B",
"n  c #578062",
"m  c #598965",
"M  c #5F9265",
"N  c #589068",
"B  c #579969",
"V  c #5B9C69",
"C  c #638C64",
"Z  c #7B8065",
"A  c #639769",
"S  c #65986A",
"D  c #73946E",
"F  c #7F9E76",
"G  c #55B072",
"H  c #5FB776",
"J  c #3EE67C",
"K  c #3FEB7D",
"L  c #40D579",
"P  c #49DD7F",
"I  c #45DA7D",
"U  c #808468",
"Y  c #888B6D",
"T  c #97816C",
"R  c #9D866D",
"E  c #9B8673",
"W  c #9A9A7A",
"Q  c #AD8370",
"!  c #A38B71",
"~  c #B18672",
"^  c #B58875",
"/  c #AB9277",
"(  c #AC9279",
")  c #B59B7F",
"_  c #BE917B",
"`  c #83B07E",
"'  c #4ADD80",
"]  c #4DE182",
"[  c #41EA81",
"{  c #55E584",
"}  c #58E585",
"|  c #52EF87",
" . c #58E987",
".. c #59EC88",
"X. c #44F285",
"o. c #4DF385",
"O. c #4DF689",
"+. c #4FFA8C",
"@. c #51F68B",
"#. c #58F38A",
"$. c #51F88C",
"%. c #BB9F82",
"&. c #82A480",
"*. c #86B585",
"=. c #86B788",
"-. c #8BBB8B",
";. c #BBA082",
":. c #E18583",
">. c #C1A587",
",. c #CFA087",
"<. c #C2A588",
"1. c #C6A98B",
"2. c #CAAC8D",
"3. c #CEB191",
"4. c #D6B695",
"5. c #D8B797",
"6. c #DAB997",
"7. c #DDBC9A",
"8. c #F4A79B",
"9. c #E0BE9C",
"0. c #F3B19B",
"q. c #F0BBAF",
"w. c #F1B6A3",
"e. c #EEBEB7",
"r. c #F0BFBB",
"t. c #F1B1BC",
"y. c #E3C19E",
"u. c #E7C5A1",
"i. c #E9C7A2",
"p. c #E7C8A4",
"a. c #EECBA5",
"s. c #F1CDA7",
"d. c #FFC7AC",
"f. c #F1CEA8",
"g. c #F9C2A2",
"h. c #F6D1AB",
"j. c #FBD5AE",
"k. c #FED8AF",
"l. c #EFC0BB",
"z. c #F1C1BC",
"x. c #FAD7B1",
"c. c #FBDAB4",
"v. c #FFD2BC",
"b. c #FDDDBC",
"n. c #FFE2B7",
"m. c #FFE4BA",
"M. c #FFEABE",
"N. c #FFD3C2",
"B. c #FBDFC2",
"V. c #FFD8C9",
"C. c #FFE3C3",
"Z. c #FFE9C3",
"A. c #FFEBCB",
"S. c #FFF3C6",
"D. c #FFF6C8",
"F. c #FFFCCD",
"G. c #FFEED2",
"H. c #FFE8DA",
"J. c #FFF2D6",
"K. c #FFFFD4",
"L. c #FFFFDD",
"P. c #FFFFE2",
/* pixels */
"} } } } } } } } } } } } } } } } } } } } } } } } } } } } } } ",
"} } #.o.o.O.o.o.o.o.o.o.o.o.o.o.o.O.o.o.o.o.o.o.o.o.O.@.} } ",
"} #.G n N N N N N N N N N N N N N N N N N N N N N N m B }  .",
"} J ` t.l.l.l.l.r.l.l.l.l.l.l.r.l.l.l.l.r.r.r.r.q.w.8.E L ..",
"} J -.H.H.J.G.G.G.G.G.G.G.G.G.G.G.G.G.G.G.G.A.A.Z.j.g.W L ..",
"{ J =.V.C.C.B.B.C.C.C.C.C.C.C.C.C.C.C.C.C.Z.C.c.h.6.,.Y P ..",
"{ J *.N.B.b.b.A.Z.Z.Z.Z.Z.Z.Z.Z.Z.Z.Z.Z.Z.C.M.c.y.1._ U P ..",
"} J *.N.b.b.Z.q + - - = = = = = = = = = = $ < p.a.>.^ Z P ..",
"} J =.N.b.b.M.E 5 w w w r w 0 w q w w w w 9 w y.y.;.~ Z ' ..",
"} J *.N.b.x.h.Z.K.L.F.F.K.K.D.Z.K.K.K.K.K.K.M.a.4.;.~ Z ' ..",
"} J *.N.b.x.x.m.p.6 $ : & x n.M.) * * & , 4.n.i.4.%.~ Z ' ..",
"} J *.N.b.c.x.S.w   w e 3   y.S.# * e e . 2 Z.a.4.%.~ Z ' ..",
"} J *.N.b.c.x.D.9 : K.L.y.X 7.m.X / P.L.0 - m.a.6.;.~ Z ' ..",
"} J *.N.b.c.x.D.0 ; n.S.1.o 7.m.@ T S.S.9 > m.a.4.;.~ Z P ..",
"} J *.N.b.c.x.S.0 = n.S.1.O 7.M.# T S.S.8 > m.a.6.;.~ Z P  .",
"} J *.N.b.c.x.S.0 : n.S.1.O 7.m.# T D.D.9 > n.a.5.;.Q Z { ..",
"} J *.N.b.c.x.D.0 : n.S.1.O 7.n.o ! L.K.9 = n.a.6.) ~ Z P #.",
"} J *.N.b.x.x.A.0 = n.S.1.o 6.S.= . 1 1   7 Z.a.6.;.~ Z P ..",
"} J *.N.b.c.x.S.0 ; n.S.1.O 3.S.3.5 6 3 q i.n.p.6.) ~ Z P ..",
"} J *.N.b.c.x.S.0 : n.S.2.O 3.M.Z.S.S.S.S.n.s.p.6.) ~ Z P ..",
"} J *.N.b.b.x.S.9 : K.P.7.o 2.M.j.j.j.j.x.j.h.a.6.;.~ Z P ..",
"} K *.N.b.c.c.S.w   w u 3   6.M.j.j.j.j.j.j.h.i.5.;.~ Z P ..",
"} J *.v.c.k.j.c.7.4 % * & l k.h.f.f.f.f.f.f.a.9.3.) Q p ] ..",
"} J *.v.k.s.i.7.s.j.a.s.f.x.y.9.y.7.9.9.9.7.6.4.>.( b i ] ..",
"} J *.d.u.4.3.1.1.1.2.2.1.1.1.1.1.1.1.1.1.1.>.%.( R c y ] ..",
"} [ ` 0.2.) / ! ! ! ! ! ! ! ! ! ! ! ! ! ! E ! R z k h t ] ..",
"} X.F :.^ v j g f h g g f h f h f f f f f f f f d s a q ] ..",
"} | H D S A A M M M C C M M C M M M M M M M M M M M C V }  .",
"} } | X.o.O.O.+.@.@.@.@.O.@.@.@.@.@.O.$.@.$.@.$.@.$.O.@. .} ",
"} } } } } } } } } } } } } } } } } } } } } } } } }  .} } } } "
};
