/* XPM */
static char *toolBarLeftDisabled_xpm[] = {
/* columns rows colors chars-per-pixel */
"30 30 182 2 ",
"   c #685F5F",
".  c #6B6666",
"X  c #6C6666",
"o  c #6C6767",
"O  c #6D6767",
"+  c #6D6868",
"@  c #6C6C6C",
"#  c #767171",
"$  c #7E7E7E",
"%  c gray50",
"&  c #818181",
"*  c #848484",
"=  c #888585",
"-  c #8C8686",
";  c #808989",
":  c #858989",
">  c #868A8A",
",  c #868B8B",
"<  c #878B8B",
"1  c #888888",
"2  c #898989",
"3  c gray54",
"4  c #8B8B8B",
"5  c #8E8B8B",
"6  c gray55",
"7  c #8D8C8C",
"8  c #8D8D8D",
"9  c gray56",
"0  c #928F8F",
"q  c #8B9090",
"w  c #889393",
"e  c #8F9A9A",
"r  c #8F9B9B",
"t  c #909090",
"y  c gray57",
"u  c #939091",
"i  c #929292",
"p  c #939393",
"a  c #949190",
"s  c #949191",
"d  c gray58",
"f  c #959595",
"g  c gray59",
"h  c #979797",
"j  c #9D9191",
"k  c #989595",
"l  c #959E9E",
"z  c gray60",
"x  c #9A9A9A",
"c  c gray61",
"v  c #9D9D9D",
"b  c #9F9F9F",
"n  c #94A0A0",
"m  c #94A1A1",
"M  c #95A1A1",
"N  c #95A2A2",
"B  c #9DA1A1",
"V  c #99A6A6",
"C  c #98A7A7",
"Z  c #9BAAAB",
"A  c #A0A0A0",
"S  c gray63",
"D  c #A2A2A2",
"F  c #A4A4A4",
"G  c #A5A5A5",
"H  c gray65",
"J  c #A8A5A5",
"K  c #A5ADAD",
"L  c #A5AEAE",
"P  c gray66",
"I  c #A9A9A9",
"U  c #AAAAAA",
"Y  c gray67",
"T  c #ACACAC",
"R  c gray68",
"E  c #AEAEAE",
"W  c #AFAFAF",
"Q  c #B7ACAC",
"!  c gray69",
"~  c #B1B1B1",
"^  c #B2B2B2",
"/  c gray70",
"(  c #B4B4B4",
")  c gray71",
"_  c #B6B6B6",
"`  c #B7B7B7",
"'  c #BBB2B2",
"]  c gray72",
"[  c gray73",
"{  c #BCBCBC",
"}  c gray",
"|  c #C2BCBC",
" . c #C4BFBF",
".. c #AEC1C1",
"X. c #B6C2C2",
"o. c #B6C3C3",
"O. c #B7C3C3",
"+. c #BBC7C7",
"@. c #B5C9C9",
"#. c #C0C0C0",
"$. c #C1C1C1",
"%. c gray76",
"&. c #C3C3C3",
"*. c #C6C1C1",
"=. c #C7C1C1",
"-. c #C7C2C2",
";. c gray77",
":. c #C5C5C5",
">. c #C6C6C6",
",. c gray78",
"<. c #C8C8C8",
"1. c gray79",
"2. c gray80",
"3. c #CDCDCD",
"4. c #CECECE",
"5. c gray81",
"6. c #D1CCCC",
"7. c #D0D0D0",
"8. c gray82",
"9. c #D2D2D2",
"0. c LightGray",
"q. c #D4D0D0",
"w. c #D5D5D5",
"e. c gray84",
"r. c #D7D7D7",
"t. c #DAD4D4",
"y. c #DBD5D5",
"u. c #DCD6D6",
"i. c #DCD7D7",
"p. c #D8D8D8",
"a. c gray85",
"s. c #DADADA",
"d. c gray86",
"f. c #DDD8D8",
"g. c gainsboro",
"h. c #DDDDDD",
"j. c gray87",
"k. c #DFDFDF",
"l. c #CEECED",
"z. c #CFEEEE",
"x. c #D5F4F4",
"c. c #D6F5F5",
"v. c #D7F6F6",
"b. c #D8F7F7",
"n. c #D8F8F8",
"m. c #DFFDFD",
"M. c #DEFFFF",
"N. c #DFFFFF",
"B. c gray88",
"V. c #E1E1E1",
"C. c #E2E2E2",
"Z. c gray89",
"A. c #E4E4E4",
"S. c gray90",
"D. c #E6E6E6",
"F. c #E7E7E7",
"G. c #EDE7E7",
"H. c gray91",
"J. c #E9E9E9",
"K. c #EAEAEA",
"L. c gray93",
"P. c #EEEEEE",
"I. c #E0FDFD",
"U. c LightCyan",
"Y. c #E1FFFF",
"T. c #E2FFFF",
"R. c #E5FFFF",
"E. c #E6FFFF",
"W. c #E8FFFF",
"Q. c #E9FFFF",
"!. c #EBFFFF",
"~. c #ECFFFF",
"^. c #EDFFFF",
"/. c #EEFFFF",
"(. c #F1F1F1",
"). c gray95",
"_. c #F3F3F3",
"`. c #F4F4F4",
"'. c gray96",
"]. c #F6F6F6",
"[. c azure",
"{. c #F1FFFF",
/* pixels */
"Y.Y.Y.Y.Y.Y.Y.Y.Y.Y.Y.Y.Y.Y.Y.Y.Y.Y.Y.Y.Y.Y.Y.Y.Y.Y.Y.Y.Y.Y.",
"Y.N.~.{././././././././././././././././././././././.[.{.T.U.",
"Y./...; r r r r r r r r r r r r r r r r r r r r r r w C I.R.",
"Y.E.K Q -.*.=.*.*.*.*.*.*.*.*.*.*.*.*.*.*.*.*.*. .| ' 7 l.Q.",
"Y.M.+.G.].'.'.`.`.`.`.`.`.`.`.`.`.`.`.`.`.`.`._.(.K.q.B z.W.",
"Y.U.O.f.F.S.Z.A.A.Z.Z.Z.Z.Z.Z.Z.Z.Z.Z.Z.Z.Z.Z.C.j.<.J q x.W.",
"Y.U.X.i.A.B.j.S.C.g.h.h.h.h.h.h.h.h.h.h.h.h.j.h.5./ k < c.W.",
"Y.U.O.u.Z.k.V.Y [ V.j.D.S.S.S.S.D.S.g.p.a.a.s.w.&.U u > v.W.",
"Y.U.O.u.Z.B.V.4 F K.r._ E ~ ~ ~ E { d.d.a.a.a.9.#.P a , v.W.",
"Y.U.O.u.Z.B.B.f Y P.H % i y y y t $ _ S.a.a.a.0.$.I a , v.W.",
"Y.U.O.u.Z.B.B.f T J.y I D.s.s.g.C.h b S.a.a.a.0.$.I a , v.W.",
"Y.U.O.u.Z.B.B.f T K.f ~ (.Z.Z.A.L.v S S.a.a.a.0.$.I a , v.W.",
"Y.U.O.u.Z.B.B.f T K.y D a.5.5.7.e.i A D.a.a.a.0.$.I a , v.W.",
"Y.U.O.u.Z.B.B.f Y P.~ & 2 3 3 3 1 * } A.a.a.a.0.$.I a , v.W.",
"Y.U.O.u.Z.B.B.f U D.g.<.&.:.:.:.%.3.B.g.g.d.a.0.$.I a , v.W.",
"Y.U.O.u.Z.B.B.f U C.Z.K.F.F.F.F.H.D.j.g.g.B.V.9.$.I a , v.W.",
"Y.U.O.u.Z.B.B.f U L.>.d t p p p p p p p 9 f >.s.%.I a , v.W.",
"Y.U.O.u.Z.B.B.f T L.h 6 ( E E E E E E W ( 8 h d.&.I a , v.W.",
"Y.U.O.u.Z.B.B.f T K.p ! ).S.S.S.S.S.S.S.).~ i p.;.I a , v.W.",
"Y.U.O.u.Z.B.B.f T K.i ! ).S.S.S.S.S.S.S.).~ i r.&.I a , v.W.",
"Y.U.O.u.Z.B.B.f T L.h 6 / R R R R R R R / 8 h d.&.I a , v.W.",
"Y.U.O.u.Z.V.V.t P P.<.g t p p p p p p p t f ,.g.%.I s , v.W.",
"Y.Y.X.u.Z.B.C.c E C.B.j.s.d.d.d.d.d.d.d.s.k.B.8.$.I s < v.W.",
"Y.Y.X.y.Z.d.0.1.1.3.2.4.5.5.5.5.5.5.5.5.5.5.2.>.] G 0 > v.W.",
"Y.Y.o.t.d.>._ ` ) ~ ^ ^ ^ ^ ^ ^ ^ ^ ^ ^ ^ ^ ^ E H x 5 > v.W.",
"Y.Y.O.6.$.H z f f f f f f f f f f f f f f f d d t 8 = : b.W.",
"Y.W.L j - # + . o o o o o o o o o o o o o o o X X O   @ n.Q.",
"Y.!.@.l V N n n m m m m m m m m m m m m m m m m M N e Z m.R.",
"Y.U.Q.!.^.[.{.{.{.{.{.{.{.{.{.{.{.{.{.{.{.{.{.{.{.[.[.[.T.U.",
"Y.Y.Y.Y.Y.Y.Y.Y.Y.Y.Y.Y.Y.Y.Y.Y.Y.Y.Y.Y.Y.Y.Y.Y.Y.Y.Y.Y.Y.Y."
};
