/* XPM */
static char *toolBarTopPressed_xpm[] = {
/* columns rows colors chars-per-pixel */
"30 30 115 2 ",
"   c #000004",
".  c #06050B",
"X  c #0B0A0E",
"o  c #0F0C11",
"O  c #120F12",
"+  c #151315",
"@  c #1A1719",
"#  c #1C191B",
"$  c #201C1E",
"%  c #3C2214",
"&  c #252122",
"*  c #2B2625",
"=  c #2F2B2B",
"-  c #302B2A",
";  c #573A27",
":  c #533B29",
">  c #413D39",
",  c #584739",
"<  c #59483A",
"1  c #67523F",
"2  c #4C4842",
"3  c #594F48",
"4  c #5C5049",
"5  c #675341",
"6  c #6A5544",
"7  c #645A53",
"8  c #6A5D55",
"9  c #797067",
"0  c #836C5B",
"q  c #87725E",
"w  c #857564",
"e  c #8A7768",
"r  c #8E7D6D",
"t  c #917E6E",
"y  c #8F806D",
"u  c #92816F",
"i  c #878279",
"p  c #88857D",
"a  c #968473",
"s  c #988674",
"d  c #9A8976",
"f  c #998778",
"g  c #9E8A79",
"h  c #A08D7C",
"j  c #A7937F",
"k  c #787F80",
"l  c #7E8786",
"z  c #838784",
"x  c #878B86",
"c  c #8D918C",
"v  c #869291",
"b  c #889393",
"n  c #939B97",
"m  c #A69483",
"M  c #A89581",
"N  c #AD9985",
"B  c #AE9E8D",
"V  c #B09D87",
"C  c #B39E8A",
"Z  c #99A09B",
"A  c #B2A18D",
"S  c #BBA68F",
"D  c #AFA092",
"F  c #B6A696",
"G  c #BAA590",
"H  c #BEA891",
"J  c #B7A998",
"K  c #BBAB98",
"L  c #93A1A0",
"P  c #9EA7A3",
"I  c #9EA8A3",
"U  c #A0ADAB",
"Y  c #ABBEBE",
"T  c #C3AD95",
"R  c #C7B19A",
"E  c #CCB59C",
"W  c #D2B79D",
"Q  c #C5B3A1",
"!  c #CEB8A2",
"~  c #D5BEA5",
"^  c #D9BFA5",
"/  c #DCC2A7",
"(  c #D6C3AE",
")  c #DDC4A9",
"_  c #DEC8AE",
"`  c #D7C4B0",
"'  c #DEC9B1",
"]  c #E1C6AB",
"[  c #E3C9AD",
"{  c #E6CBB0",
"}  c #E9CEB1",
"|  c #ECD1B4",
" . c #EDD5BC",
".. c #F5DABC",
"X. c #FADDBE",
"o. c #B0C2C0",
"O. c #EFD8C1",
"+. c #F3DBC1",
"@. c #FCDFC1",
"#. c #FDE1C4",
"$. c #FFECCC",
"%. c #FFF0CD",
"&. c PapayaWhip",
"*. c #FFF3D2",
"=. c #FFF9D5",
"-. c #FFFDDB",
";. c #D6F7F9",
":. c #D7F8FA",
">. c #DCFDFE",
",. c #FFFFE2",
"<. c #E1FFFF",
"1. c #EAFFFF",
"2. c #FFFFF3",
"3. c #F3FFFF",
"4. c #F9FFFF",
/* pixels */
"<.<.<.<.>.<.<.>.<.<.>.<.<.>.<.<.<.>.<.>.<.<.>.<.<.>.<.<.<.<.",
"<.>.3.4.3.4.4.4.4.4.4.3.4.4.3.4.3.4.4.4.4.4.3.4.4.4.4.4.<.<.",
"<.1.Y k v v v v v v v v v v v v v v v v v v v v v v l L <.<.",
"<.4.z % , , , , , , , , , < , , < < < < , , , , , , : 7 >.1.",
"<.3.n 1 w w r y r y y r y y y y r r y y y y y r e w q i :.1.",
"<.3.n 5 e d M N N N N N N N N N N N N N N N N N M g u p :.<.",
"<.1.n 6 a N T / | | } } } } } } } } } } } | / W R A d p ;.1.",
"<.3.n 6 d S ] W j N N N N N N N N N N N N j ~ .._ K g p ;.1.",
">.3.n 6 d H #.g   @ # # # # # # @ # # # @   m -.' K g p ;.1.",
"<.3.n 6 d H ] [ ] #.$.#.$...] ] @.$.#.$.@.] +.#.' H h i ;.1.",
"<.3.n 6 d H / ..-.) f g j ..=.=.| g g f { -.#.+.' K h i ;.1.",
">.3.n 6 d H / $.E X @ = . - %.+.$ o = + + _ *.+.[ K h p ;.<.",
"<.1.n 6 d H / =.a + X.,.H X X./ . ^ ,.{ o C -.O.' K h p ;.<.",
"<.3.n 6 d H / %.g $ #.,.R @ ../ + ] ,.| # S -.O.' J g p ;.1.",
"<.3.n 6 d H ) *.g # ..-.T @ X.) + ^ -.] # S -...[ K g p ;.1.",
"<.3.n 6 d H / *.g $ ..-.H @ X.) + ^ ,.[ # G -.O.' K g p ;.1.",
"<.3.n 6 f H / *.h $ ..,.H @ X.^ X | 2...+ B -...' J g p ;.1.",
"<.1.n 6 d S ) %.g $ ..-.H # ....X & 2 * . ~ =.+.{ K g p ;.1.",
"<.3.n 6 d H / *.g # ..-.T @ ] -.S 4 4 3 C $.#.+.' J g p ;.1.",
"<.3.n 6 d H / *.g $ X.,.T # ) &.*.-.-.-.=.#.@...' H g p ;.<.",
">.3.n 6 d H / *.a @ $.2.! o ^ &.@.@.@.#.@.@.#.+.' J g p ;.1.",
"<.3.n 6 d H ) %.T   * > + # ..&.@.@.#.#.@.#.#.+.{ K g p ;.1.",
"<.3.n 1 d H ] #.&.N 7 8 8 ! &.@.#.#.#.#.#.#.#.+.' K f p ;.1.",
">.3.Z 6 u H ]  .+.-.,.-.,.&.O.O.O.O.O.O.O.O.+. .( F f r ;.1.",
"<.3.n 5 a B ! ( ` ` ` ` ` ` ` ` ` ` ` ` ` ( ` ~ Q D a z ;.<.",
"<.3.n 1 r N F J J J J J J F J J J J J J F G K F F m a p ;.1.",
">.4.x ; 0 e t t r r r r r r t e r r r r t t t e e e 0 9 ;.1.",
"<.1.o.c P P P P P P P P P D U U P P P P U n U U U U n U <.<.",
"<.>.1.4.1.1.1.1.1.1.1.1.1.1.1.1.1.1.1.1.1.1.1.1.3.1.1.3.<.<.",
"<.<.<.<.<.<.<.<.<.<.<.<.<.<.<.<.<.<.<.<.<.<.<.<.<.<.<.<.<.<."
};
