/* XPM */
static char *toolBarLeftNormal_xpm[] = {
/* columns rows colors chars-per-pixel */
"30 30 148 2 ",
"   c #000002",
".  c #09080E",
"X  c #0E0E12",
"o  c #131216",
"O  c #161418",
"+  c #181619",
"@  c #1E1C1E",
"#  c #231B1D",
"$  c #23201F",
"%  c #241F20",
"&  c #242121",
"*  c #282424",
"=  c #2D2827",
"-  c #2F2A28",
";  c #342D2B",
":  c #3E3632",
">  c #483E38",
",  c #4E443D",
"<  c #52473F",
"1  c #624126",
"2  c #674E37",
"3  c #6D533B",
"4  c #71573E",
"5  c #74593F",
"6  c #564B42",
"7  c #5A4E45",
"8  c #66584B",
"9  c #64564B",
"0  c #755941",
"q  c #6E5E51",
"w  c #7C6046",
"e  c #7E654B",
"r  c #6E6051",
"t  c #746455",
"y  c #786758",
"u  c #7B695A",
"i  c #7E7664",
"p  c #886A4F",
"a  c #816E5E",
"s  c #8C7155",
"d  c #83705F",
"f  c #88755E",
"g  c #9B7B5E",
"h  c #AB7B53",
"j  c #837362",
"k  c #827865",
"l  c #817A6D",
"z  c #947E67",
"x  c #927D69",
"c  c #867D70",
"v  c #9F8063",
"b  c #9D866D",
"n  c #8C8375",
"m  c #9A8672",
"M  c #928779",
"N  c #9A8E7E",
"B  c #A28365",
"V  c #A68668",
"C  c #AF8E6E",
"Z  c #A38B71",
"A  c #AB9277",
"S  c #A79078",
"D  c #AE9479",
"F  c #B69C7F",
"G  c #CF9F75",
"H  c #C19E7B",
"J  c #818886",
"K  c #8A928E",
"L  c #91948D",
"P  c #8F9B9A",
"I  c #969D97",
"U  c #9A9E94",
"Y  c #909B99",
"T  c #AC9E8A",
"R  c #B69A80",
"E  c #BA9E82",
"W  c #9BA19A",
"Q  c #BCA083",
"!  c #A0A59E",
"~  c #A8A69A",
"^  c #99A6A4",
"/  c #9DA8A4",
"(  c #AAACA4",
")  c #BABBAF",
"_  c #BEBFB3",
"`  c #C1A587",
"'  c #C2A689",
"]  c #C5A889",
"[  c #CAAC8D",
"{  c #CBA68C",
"}  c #D8AC85",
"|  c #CEB18F",
" . c #D8B18D",
".. c #CEB090",
"X. c #D6B795",
"o. c #D7B895",
"O. c #D9B997",
"+. c #D7B699",
"@. c #DCBC99",
"#. c #E0BE9C",
"$. c #D7BBA5",
"%. c #D8BDA7",
"&. c #BEC0B6",
"*. c #BDC1B9",
"=. c #DFC09D",
"-. c #EAC096",
";. c #E4C09D",
":. c #F1C297",
">. c #C2C5BD",
",. c #E7C4A0",
"<. c #E9C6A2",
"1. c #EBC8A3",
"2. c #E1CDA8",
"3. c #F1CCA7",
"4. c #F8CCA2",
"5. c #F5CEAB",
"6. c #E1D6AE",
"7. c #F5D1AB",
"8. c #FAD5AE",
"9. c #FED8AF",
"0. c #F6D2B2",
"q. c #FAD7B2",
"w. c #FDDBB5",
"e. c #FDDDBC",
"r. c #FFE1B7",
"t. c #FFE5BC",
"y. c #FFE8BD",
"u. c #AEC1C0",
"i. c #B7C8C5",
"p. c #FBDFC1",
"a. c #FEE4C2",
"s. c #FFEEC1",
"d. c #FFECCA",
"f. c #FFF3C6",
"g. c #FFF5C9",
"h. c #FFFACB",
"j. c #FFEED2",
"k. c #FFF2D6",
"l. c #FFFED3",
"z. c #FFFFDD",
"x. c #CBEFF5",
"c. c #D3F6FA",
"v. c #D5F8FC",
"b. c #DDFFFF",
"n. c LightYellow",
"m. c #E1FFFF",
"M. c #ECFFFF",
"N. c #F0FFFF",
/* pixels */
"m.m.m.m.m.m.m.m.m.m.m.m.m.m.m.m.m.m.m.m.m.m.b.m.m.m.m.m.m.m.",
"m.b.M.N.M.M.M.M.M.M.M.M.M.M.N.M.M.M.M.M.M.M.M.M.M.M.M.N.m.b.",
"m.M.u.J P P P P Y Y Y P P P Y Y P P P P Y Y Y I P Y K ^ m.M.",
"m.m.( { %.%.$.%.$.$.$.$.$.$.$.$.$.$.$.$.$.$.$.$.+. .G m x.m.",
"m.b.>.a.k.j.j.j.j.j.j.j.j.j.j.j.j.j.j.j.j.j.j.d.t.q.-.T x.M.",
"m.b.*.0.a.p.p.a.p.e.p.p.p.e.e.p.p.p.p.p.e.p.e.w.5.@.H N c.m.",
"m.b.*.0.p.e.e.d.a.q.q.e.w.q.w.e.w.w.w.w.w.e.w.8.;.[ C M c.M.",
"m.b.&.7.p.e.a.q m s.t.h.g.g.g.d.g.g.e.7.q.0.8.3.@.` V M c.M.",
"m.b.&.5.e.r.y.o 7 l.7.x u j j j y Z w.w.q.9.7.1.X.Q B n v.M.",
"m.b.&.5.e.e.t.- t z.9   & & & # @   x f.8.8.7.1.X.Q B n c.M.",
"m.b.&.5.e.e.t.- t l.& r f.w.w.w.s.; , f.8.8.7.1.X.Q B n v.m.",
"m.b._ 5.e.e.t.- t h.= u z.f.y.f.l.> < f.8.8.7.1.X.Q B n v.M.",
"m.b.&.5.e.e.t.- t l.$ 6 6.@.@.=.2.& , f.8.8.7.1.X.Q B n v.m.",
"m.b.&.5.e.e.t.- t l.a   . o X X .   S f.8.8.7.<.O.Q B n c.M.",
"m.b.&.5.e.w.t.- r g.w.[ E Q Q Q F o.t.r.w.w.8.1.o.Q B n v.M.",
"m.b.&.5.e.e.t.; r y.s.l.h.h.h.h.h.f.r.w.w.t.t.;.O.F B n v.m.",
"m.b.&.5.e.e.t.- t l.' - # * * * = * * * # - Q w.O.Q B n v.M.",
"m.b.&.5.e.e.t.- t l.; o k y y y u y u u k + ; w.@.H B n v.m.",
"m.b.&.5.e.w.t.- t h.* j n.f.f.f.f.f.f.f.z.d & 8.@.F B n v.M.",
"m.b.&.5.e.e.t.- t l.* u n.g.f.f.f.f.f.f.n.d & 8.@.` B n v.M.",
"m.b.&.5.e.e.t.- t l.; O i y y y y y y y i + ; w.#.F B n c.M.",
"m.b.&.5.e.e.t.$ 8 l.' - # * * & * * * * # - Q q.o.Q B n c.M.",
"m.b.&.7.w.w.r.: y y.r.w.7.8.8.8.8.8.8.8.8.r.w.;...F z n c.m.",
"m.b.&.4.9.3.1.O.O.;.;.;.<.<.<.<.,.;.1.;.1.;.@.| ` D g n v.M.",
"m.b._ :.<.O.[ X.| ` ] ] ] ] ] ] ] ] ] ] ] ] ` E D b s c v.M.",
"m.m.) } [ F A Z Z Z Z Z Z Z Z Z Z Z Z Z Z Z Z b z f e l b.m.",
"m.m.~ h g p w 5 5 0 5 0 0 0 0 0 0 5 5 0 0 5 5 4 3 2 1 r b.M.",
"m.M.i.U ! W U I U I I I I I I I I I I W I I I I I I L / m.m.",
"m.m.M.m.M.M.N.N.M.N.M.N.N.N.M.N.M.M.M.N.N.M.N.N.M.N.N.M.m.m.",
"m.m.m.m.m.m.m.m.m.m.m.m.m.m.m.m.m.m.m.m.m.m.m.m.m.m.m.m.m.m."
};
