/* XPM */
static char *toolBarLeftPressed_xpm[] = {
/* columns rows colors chars-per-pixel */
"30 30 118 2 ",
"   c #010104",
".  c #07060B",
"X  c #0C0A0E",
"o  c #0F0C10",
"O  c #110E12",
"+  c #151316",
"@  c #181416",
"#  c #191619",
"$  c #1C191B",
"%  c #201C1D",
"&  c #3C2214",
"*  c #252121",
"=  c #2B2625",
"-  c #312C2A",
";  c #573A27",
":  c #533B29",
">  c #463D38",
",  c #584739",
"<  c #59483A",
"1  c #67523F",
"2  c #524842",
"3  c #5A4F48",
"4  c #5B5049",
"5  c #675341",
"6  c #6A5544",
"7  c #655A53",
"8  c #6B5F56",
"9  c #797067",
"0  c #836C5B",
"q  c #87725E",
"w  c #857564",
"e  c #8A7768",
"r  c #8E7D6D",
"t  c #917E6E",
"y  c #8F806D",
"u  c #92816F",
"i  c #878279",
"p  c #88857D",
"a  c #968474",
"s  c #9A8776",
"d  c #9A8976",
"f  c #9E8A79",
"g  c #A18F7E",
"h  c #A7937F",
"j  c #787F80",
"k  c #7E8786",
"l  c #838784",
"z  c #878B86",
"x  c #8D918C",
"c  c #869291",
"v  c #889393",
"b  c #939B97",
"n  c #A59585",
"m  c #A89581",
"M  c #AD9A85",
"N  c #AE9D8C",
"B  c #B09D87",
"V  c #B49F8B",
"C  c #99A09B",
"Z  c #B5A18C",
"A  c #BBA68F",
"S  c #AFA092",
"D  c #B6A696",
"F  c #BEA891",
"G  c #B7A998",
"H  c #BBAB98",
"J  c #93A1A0",
"K  c #9EA7A3",
"L  c #9EA8A3",
"P  c #A0ADAB",
"I  c #ABBEBE",
"U  c #C2AC95",
"Y  c #C4AE98",
"T  c #C5B49D",
"R  c #CEB69C",
"E  c #D0B89E",
"W  c #C5B3A1",
"Q  c #CDB8A2",
"!  c #D4BBA2",
"~  c #D8BFA4",
"^  c #D9C0A7",
"/  c #D6C3AD",
"(  c #DDC4AA",
")  c #D7C4B0",
"_  c #DEC9B1",
"`  c #DCD1B4",
"'  c #E1C7AC",
"]  c #E4CAAE",
"[  c #E6CCB0",
"{  c #EBCEB1",
"}  c #E5D1B5",
"|  c #EED2B4",
" . c #ECD6BC",
".. c #E8DBBD",
"X. c #F1D5B7",
"o. c #F0D4B8",
"O. c #F6DABC",
"+. c #F9DCBD",
"@. c #B0C2C0",
"#. c #F2DAC1",
"$. c #FBDFC1",
"%. c #FDE3C4",
"&. c #FFE8C6",
"*. c #FFE6CA",
"=. c #FFECCB",
"-. c #FFF1CE",
";. c #FFF2D2",
":. c #FFF9D6",
">. c #FFFEDD",
",. c #D6F7F9",
"<. c #D7F8FA",
"1. c #DCFDFE",
"2. c #FFFFE2",
"3. c #E1FFFF",
"4. c #EAFFFF",
"5. c #FFFFF3",
"6. c #F3FFFF",
"7. c #F9FFFF",
/* pixels */
"3.3.3.3.1.3.3.1.3.3.1.3.3.3.3.3.1.3.3.1.3.3.1.3.3.1.3.3.3.3.",
"3.1.6.7.7.7.7.7.7.7.7.6.7.6.6.7.7.7.7.7.7.7.6.7.7.7.7.7.3.3.",
"3.4.I j c c c c c c c c c c c c c c c c c c c c c c k J 3.3.",
"3.7.l & , < , < , , , , , , , , , , , , , , , , , , : 7 1.4.",
"3.6.b 1 w w r y y y r r y y y y y y y r r u t r e w q i <.4.",
"3.6.b 5 e d h M M M M M M M M M M M M M M M M m m d u p <.4.",
"3.4.b 6 a M U ^ X.E R R R R R R E R R R R R ! ! T Z d l ,.4.",
"3.6.b 6 d A ' E a ( | $.&.&.%.%.%.%.{ ] [ [ | | ( H f p ,.4.",
"1.6.b 6 d A +.M   ( :.( M Z Z Z M E %.O.O.+.%.$._ Y n i ,.4.",
"3.7.b 6 d U +.V # +._ # + $ % % # . Z :.+.%.%.#._ H t i ,.4.",
"3.6.b 6 d U O.Z $ =.d + [ } ' ] ..= 3 >.+.$.%.O._ H s i ,.4.",
"1.6.b 1 d A O.V $ &.f - 2.2.>.2.5.2 3 >.+.%.$.#._ H n r ,.3.",
"3.6.b 6 d F O.Z $ =.f O ^ ( ~ / _ * 4 >.$.$.$.#._ H n r ,.3.",
"3.6.b 6 d F O.Z # $.[ % . + + + X X D :.$.$.$.#._ H s l ,.4.",
"3.4.b 5 d F O.V $ ( >.+.~ ( ( ( ~ O.>.=.;.=.$.#._ H n r ,.4.",
"3.6.b 6 d F O.V $ ( :.-.O.+.+.+.$.O.' ' ~ O.;.#._ G s l ,.4.",
"3.6.b 6 d F O.Z $ O. .- X # $ $ $ # $ $ O $ Q ;._ H f p ,.4.",
"1.6.b 6 s F O.V # =.g . F T F F F F F U T + 8 2.' H f p ,.4.",
"3.6.b 6 d F O.Z $ *.f - 2.2.2.>.2.>.>.2.5.> 7 >._ H g l ,.4.",
"3.6.b 6 d F O.V $ =.s # +.%.O.O.O.O.O.$.=.= 7 2.( A g l ,.3.",
"3.6.b 6 d F O.V $ $.~ X O $ $ + $ $ $ $ @   M :._ H n l ,.4.",
"3.7.b 6 d F +.B   ~ 2.Q a d n n n f n f a Y ;.$._ H s r ,.3.",
"3.6.b 6 s U | ] n #.*.>.2.2.2.2.2.>.>.2.2.2.*.#._ H f l ,.4.",
"3.4.b 1 u A ( $.2.#.#.#.#.#.#.#.#.#.#.#.#.#.#. .~ G s r ,.4.",
"3.6.b 5 u V Q / ) ) ) ) ) ) ) ) ~ ( ) ) ~ ) ~ ~ W S t z ,.4.",
"3.7.b 1 a n D G G G G G G D G G P D G G H H G G S C s t ,.4.",
"3.6.z ; 0 e r t r r r r r r t e r r t t t e t e e e 0 9 ,.4.",
"3.4.@.x K K K K K K K K K S P P K K K K K K K P P P C P <.4.",
"3.1.4.7.4.4.4.4.4.4.4.4.4.4.4.4.4.4.4.4.4.4.4.4.6.4.6.4.3.1.",
"3.3.3.3.3.3.3.3.3.3.3.3.3.3.3.3.3.3.3.3.3.3.3.3.3.3.3.3.3.3."
};
