/* XPM */
static char *toolBarTopNormal_xpm[] = {
/* columns rows colors chars-per-pixel */
"30 30 147 2 ",
"   c #000002",
".  c #03030A",
"X  c #0A090F",
"o  c #0E0D12",
"O  c #100E13",
"+  c #111014",
"@  c #171419",
"#  c #181519",
"$  c #201D1E",
"%  c #241F20",
"&  c #252121",
"*  c #2C2424",
"=  c #2D2827",
"-  c #2E2A28",
";  c #312826",
":  c #322B29",
">  c #3A332F",
",  c #3E3532",
"<  c #403733",
"1  c #423C37",
"2  c #453E38",
"3  c #4A403A",
"4  c #52453D",
"5  c #624126",
"6  c #674E37",
"7  c #6D533B",
"8  c #71573E",
"9  c #74593F",
"0  c #554A41",
"q  c #5B4E45",
"w  c #5E5147",
"e  c #5F5248",
"r  c #64554A",
"t  c #68594E",
"y  c #755941",
"u  c #6E5E51",
"i  c #7C6046",
"p  c #7E654B",
"a  c #6C6051",
"s  c #746455",
"d  c #776E5E",
"f  c #796C5C",
"g  c #7B7160",
"h  c #886A4F",
"j  c #8C7155",
"k  c #88755E",
"l  c #9B7B5E",
"z  c #AB7B53",
"x  c #8B7864",
"c  c #817A6D",
"v  c #947E67",
"b  c #947E6A",
"n  c #867D70",
"m  c #9F8063",
"M  c #97816C",
"N  c #9D866D",
"B  c #8C8375",
"V  c #9A8571",
"C  c #928779",
"Z  c #9A8E7E",
"A  c #A28365",
"S  c #A68668",
"D  c #AF8E6E",
"F  c #A38B71",
"G  c #AB9277",
"H  c #AC9279",
"J  c #B59B7F",
"K  c #CF9F75",
"L  c #C19E7B",
"P  c #818886",
"I  c #8A928E",
"U  c #91948D",
"Y  c #8F9B9A",
"T  c #969D97",
"R  c #9A9E94",
"E  c #909B99",
"W  c #AC9E8A",
"Q  c #BB9F82",
"!  c #9BA19A",
"~  c #BBA082",
"^  c #A0A59E",
"/  c #A8A69A",
"(  c #99A6A4",
")  c #9DA8A4",
"_  c #AAACA4",
"`  c #BABBAF",
"'  c #BEBFB3",
"]  c #C1A587",
"[  c #C2A588",
"{  c #CBA68C",
"}  c #C6A98B",
"|  c #CAAC8D",
" . c #D8AC85",
".. c #D8B18D",
"X. c #CEB191",
"o. c #D6B695",
"O. c #D8B797",
"+. c #DAB997",
"@. c #D7B699",
"#. c #DDBC9A",
"$. c #E0BE9C",
"%. c #D7BBA5",
"&. c #D8BDA7",
"*. c #BEC0B6",
"=. c #BDC1B9",
"-. c #EAC096",
";. c #E3C19E",
":. c #F1C297",
">. c #C2C5BD",
",. c #E7C5A1",
"<. c #E9C7A2",
"1. c #E7C8A4",
"2. c #EECBA5",
"3. c #F1CDA7",
"4. c #F8CCA2",
"5. c #F4CEAA",
"6. c #F6D1AB",
"7. c #FBD5AE",
"8. c #FED8AF",
"9. c #F6D2B2",
"0. c #FAD7B1",
"q. c #FBDAB4",
"w. c #FDDDBC",
"e. c #FFE2B7",
"r. c #FFE4BA",
"t. c #FFEABE",
"y. c #AEC1C0",
"u. c #B7C8C5",
"i. c #FBDFC2",
"p. c #FFE3C3",
"a. c #FFE9C3",
"s. c #FFEBCB",
"d. c #FFF3C6",
"f. c #FFF6C8",
"g. c #FFFCCD",
"h. c #FFEED2",
"j. c #FFF2D6",
"k. c #FFFFD4",
"l. c #FFFFDD",
"z. c #CBEFF5",
"x. c #D3F6FA",
"c. c #D5F8FC",
"v. c #DDFFFF",
"b. c #FFFFE2",
"n. c #E1FFFF",
"m. c #ECFFFF",
"M. c #F0FFFF",
/* pixels */
"n.n.n.n.n.n.n.n.n.n.n.n.n.n.n.n.n.n.n.n.n.n.n.n.n.n.n.n.n.n.",
"n.v.m.M.m.m.m.m.m.m.m.m.m.M.m.m.m.m.m.m.m.M.m.m.m.m.m.M.n.n.",
"n.m.y.P E E Y Y E E E E E E E E Y Y Y Y E E E E Y Y I ( v.n.",
"n.n._ { &.%.%.%.%.%.%.%.%.%.%.%.%.%.%.%.%.%.%.%.@...K N z.m.",
"n.v.>.p.j.h.h.h.h.h.h.h.h.h.h.h.h.h.h.h.h.h.j.s.r.0.-.W z.m.",
"n.v.=.9.p.i.i.i.p.p.p.p.p.p.p.p.p.p.p.p.p.p.r.q.6.#.L Z x.m.",
"n.v.=.9.i.w.w.s.a.p.a.a.a.p.a.a.a.a.p.a.p.a.t.0.;.| D C x.m.",
"n.v.*.6.i.w.a.a + - - - - - - - - - - - - $ 1 ;.2.] S B x.n.",
"n.v.' 5.w.q.r.V q s s s s s t a u s s s s r s ;.;.~ A B c.m.",
"n.v.' 5.w.q.0.a.k.l.g.g.k.l.d.d.k.k.k.g.l.k.t.2.o.Q A B c.n.",
"n.v.' 9.w.q.9.r.1.0 & ; & b e.t.Q * * * , o.e.1.o.Q A B c.m.",
"n.v.' 5.w.q.q.f.s   s d 3   1.t.# & d d . 2 t.2.o.Q A B c.n.",
"n.v.*.5.w.q.0.d.e : g.l.;.o O.r.o G b.l.u ; r.2.o.~ A B c.m.",
"n.v.*.5.w.q.0.d.t : r.d.} O #.r.@ v d.d.e > r.2.+.~ A B c.m.",
"n.v.*.5.w.q.0.d.t : e.d.} + #.t.@ M d.d.e > r.2.o.~ A B c.n.",
"n.v.>.5.w.q.0.d.t : r.d.} o #.r.@ M g.f.e > e.3.o.~ A B c.m.",
"n.v.' 5.w.q.0.d.t - e.d.} O $.r.o F l.k.r = e.2.o.~ A B c.m.",
"n.v.>.5.w.q.q.d.t ; e.d.} o O.d.* . 2 ,   w a.2.o.~ A B c.m.",
"n.v.' 5.w.q.0.d.t - e.d.} O X.g.X.q 4 4 u <.e.1.o.~ A B x.m.",
"n.v.' 5.w.q.q.d.t - e.d.| O X.r.a.f.d.d.f.r.3.,.+.~ A B c.n.",
"n.v.*.5.w.q.9.d.r > k.l.;.X | t.8.0.8.7.8.7.6.<.+.~ A B c.n.",
"n.v.*.5.w.q.q.f.s   s g 3 . +.t.7.6.7.0.7.7.6.<.o.~ A B c.m.",
"n.v.*.4.q.8.9.q.#.4 & * % x 0.6.3.3.3.3.3.3.2.;.X.J v B c.m.",
"n.v.>.4.q.5.;.$.2.8.2.2.3.7.;.#.$.#.$.$.$.#.+.o.[ G l B c.m.",
"n.v.' :.<.o.| | } | | | | | [ } } } } [ } } ] Q H N j c c.m.",
"n.n.`  .| J H F F F F F F F F F F F F F F F F N v k h c c.m.",
"n.n./ z l h i y 9 9 9 9 y y y y y y y y y y 9 8 7 6 5 u c.m.",
"n.m.u.R ^ ! R R R T T T T T T T T T T T T T T T T T I ( n.n.",
"n.n.m.n.m.m.M.m.m.M.M.m.M.M.m.M.M.M.m.M.M.m.M.M.M.M.M.M.n.n.",
"n.n.n.n.n.n.n.n.n.n.n.n.n.n.n.n.n.n.n.n.n.n.n.n.n.n.n.n.n.n."
};
