/* XPM */
static char *toolBarBottomMouseOver_xpm[] = {
/* columns rows colors chars-per-pixel */
"30 30 162 2 ",
"   c #000002",
".  c #05060B",
"X  c #090A0F",
"o  c #0E0E12",
"O  c #100E13",
"+  c #121015",
"@  c #171619",
"#  c #181519",
"$  c #221E1F",
"%  c #262121",
"&  c #2D2524",
"*  c #2E2827",
"=  c #2F2A29",
"-  c #312826",
";  c #312B29",
":  c #36302D",
">  c #3A332F",
",  c #3D3532",
"<  c #433C36",
"1  c #463E39",
"2  c #483E39",
"3  c #52443D",
"4  c #53483F",
"5  c #564A41",
"6  c #5B4E45",
"7  c #5E5147",
"8  c #63554A",
"9  c #68594E",
"0  c #6D5E51",
"q  c #736355",
"w  c #776658",
"e  c #786658",
"r  c #796E5D",
"t  c #766D5C",
"y  c #6F765D",
"u  c #747A5F",
"i  c #777D62",
"p  c #797F65",
"a  c #8C484B",
"s  c #80524D",
"d  c #855751",
"f  c #8D5E57",
"g  c #8F5F58",
"h  c #8C6759",
"j  c #96655C",
"k  c #88765F",
"l  c #947E67",
"z  c #937D6A",
"x  c #9B7463",
"c  c #A16E65",
"v  c #A77D6B",
"b  c #578062",
"n  c #598965",
"m  c #5F9265",
"M  c #589068",
"N  c #579969",
"B  c #5B9C69",
"V  c #638C64",
"C  c #7B8065",
"Z  c #619466",
"A  c #639769",
"S  c #699B6D",
"D  c #73946E",
"F  c #7F9E76",
"G  c #55B072",
"H  c #5FB776",
"J  c #3EE67C",
"K  c #3FEB7D",
"L  c #40D579",
"P  c #49DD7F",
"I  c #45DA7D",
"U  c #808468",
"Y  c #888B6D",
"T  c #97806C",
"R  c #9D866D",
"E  c #9F8872",
"W  c #9A8574",
"Q  c #9A9A7A",
"!  c #AD8370",
"~  c #A38B71",
"^  c #B18672",
"/  c #B58875",
"(  c #AB9277",
")  c #AC9379",
"_  c #BE917B",
"`  c #B59B7F",
"'  c #83B07E",
"]  c #4ADD80",
"[  c #4DE182",
"{  c #41EA81",
"}  c #55E584",
"|  c #58E585",
" . c #52EF87",
".. c #58E987",
"X. c #59EC88",
"o. c #44F285",
"O. c #4DF385",
"+. c #4DF689",
"@. c #4FFA8C",
"#. c #51F68B",
"$. c #58F38A",
"%. c #51F88C",
"&. c #BB9F82",
"*. c #82A480",
"=. c #86B585",
"-. c #86B788",
";. c #8BBB8B",
":. c #BBA082",
">. c #E18583",
",. c #C0A486",
"<. c #CFA087",
"1. c #C6A98C",
"2. c #CAAD8D",
"3. c #CEB091",
"4. c #D6B695",
"5. c #D7B895",
"6. c #DBBA97",
"7. c #DCBC9A",
"8. c #F4A79B",
"9. c #E1BF9C",
"0. c #F3B19B",
"q. c #F0BBAF",
"w. c #F1B6A3",
"e. c #EEBEB7",
"r. c #F0BFBB",
"t. c #F1B1BC",
"y. c #E2C19E",
"u. c #E6C5A2",
"i. c #E9C7A2",
"p. c #E7C8A4",
"a. c #EECBA6",
"s. c #F1CDA7",
"d. c #FFC7AC",
"f. c #F1CDA8",
"g. c #F9C2A2",
"h. c #F6D2AA",
"j. c #FBD6AE",
"k. c #FED8AF",
"l. c #EFC0BB",
"z. c #F1C1BC",
"x. c #FAD7B2",
"c. c #FBDAB5",
"v. c #FFD2BC",
"b. c #FCDDBD",
"n. c #FFE2B7",
"m. c #FFE4BA",
"M. c #FFEABE",
"N. c #FFD3C2",
"B. c #FBDFC1",
"V. c #FFD8C9",
"C. c #FFE4C2",
"Z. c #FFECC1",
"A. c #FFEBCB",
"S. c #FFF3C6",
"D. c #FFF5C9",
"F. c #FFFBCD",
"G. c #FFEED2",
"H. c #FFE8DA",
"J. c #FFF2D6",
"K. c #FFFFD3",
"L. c #FFFFDD",
"P. c #FFFFE1",
/* pixels */
"| | | | | | | | | | | | | | | | } | | | | | | | | | | | | | ",
"| | $.O.o.o.O.O.O.O.+.o.O.O.O.O.O.O.O.O.O.O.O.O.o.+.+.#.| | ",
"| $.G b n M M M M M M M M M M M M M M M M M M M M M n N | X.",
"| J ' t.N.l.r.r.r.r.r.r.r.r.r.r.r.r.r.e.r.r.r.e.q.w.8.W L X.",
"| J ;.H.H.J.G.G.G.G.G.G.G.G.G.G.G.G.G.G.G.G.D.A.C.k.g.Q L X.",
"} J -.V.C.C.B.B.B.C.C.C.C.B.b.B.B.B.B.B.B.B.b.c.h.6.<.Y P X.",
"} J =.N.B.b.b.x.C.D.C.C.Z.A.b.x.c.c.b.c.c.c.x.j.y.2._ U P X.",
"| J =.N.B.c.x.C.u.5 $ & $ z m.c.x.x.x.x.x.x.k.s.7.,./ C P X.",
"| J =.N.b.c.x.F.q   q r 1   7.Z.j.j.j.j.x.j.h.a.5.:.^ C ] X.",
"| J =.N.c.c.x.S.8 ; F.L.u.X 1.Z.j.j.j.j.j.j.h.y.5.:.^ C ] X.",
"| J =.N.m.c.x.S.9 ; n.S.1.O 3.m.m.D.S.S.F.m.s.i.5.&.^ C ] X.",
"| J =.N.B.c.x.D.9 = n.S.1.o 3.F.4.6 3 4 9 i.c.a.5.:.^ C P X.",
"| J =.N.b.c.x.S.9 = n.Z.1.O 7.D.* . < ,   6 Z.a.5.&.^ C ] X.",
"| J =.N.c.c.x.D.9 ; n.S.1.o 9.c.X E L.K.8 * n.s.5.&.^ C ] X.",
"| J =.N.b.c.x.S.9 ; n.S.1.O 7.m.@ T F.S.8 > m.a.5.:.^ C P X.",
"| J =.N.b.c.x.S.9 = n.S.1.+ 7.m.@ T S.S.7 > n.a.5.:.^ C [ X.",
"| J =.N.b.x.x.D.9 * m.S.1.O 7.m.@ z D.S.7 , n.a.5.` / C P X.",
"| J =.N.b.x.x.D.7 : F.L.y.o 7.n.o ) P.P.0 = n.a.6.:.^ C P X.",
"| J =.N.b.b.x.D.w   q r 1   u.Z.@ % r t . 1 Z.a.6.` ^ C P X.",
"| J =.N.b.x.x.m.p.5 % * % z n.Z.&.% * & , 3.m.u.6.` ^ C P X.",
"| J =.N.b.c.j.m.K.K.K.F.K.K.S.Z.K.K.K.F.L.K.M.a.4.&.^ C P X.",
"| J =.N.b.c.m.~ 7 w w w w q q q q w w w w 9 e y.y.:.^ C [ X.",
"| J =.v.c.c.m.0 O * * * * * & = = & * * * $ , 5.7.` ! C P X.",
"| K =.v.x.s.i.f.h.a.f.f.f.f.f.f.f.f.s.s.s.s.a.5.,.) v i [ X.",
"| J =.d.i.4.3.2.2.2.2.2.2.2.2.2.2.2.2.2.2.2.1.&.) R x u P X.",
"| { ' 0.2.&./ ~ ~ ~ ~ ~ ~ ~ ~ ~ ~ ~ ~ ~ ~ E E R l k h y } X.",
"| o.F >.v c j h f f f g g f g g f f g f f f f f a 0 a q P X.",
"|  .H D S A Z m m m m m m m m m m m m m m m m m Z m V B } ..",
"| |  .o.O.+.+.#.#.#.%.@.#.+.#.#.%.+.%.#.@.#.#.%.%.%.%.%.| | ",
"| | | | | | | | | | | | | | | | | | | | | | | | | | | | | | "
};
