/* XPM */
static char *toolBarBottomNormal_xpm[] = {
/* columns rows colors chars-per-pixel */
"30 30 146 2 ",
"   c #000002",
".  c #05060B",
"X  c #090A0F",
"o  c #0E0E12",
"O  c #100E13",
"+  c #121015",
"@  c #171619",
"#  c #181519",
"$  c #221E1F",
"%  c #262121",
"&  c #2D2524",
"*  c #2E2827",
"=  c #2F2A29",
"-  c #312826",
";  c #312B29",
":  c #36302D",
">  c #3A332F",
",  c #3D3532",
"<  c #433C36",
"1  c #463E39",
"2  c #483E39",
"3  c #52443D",
"4  c #53483F",
"5  c #624126",
"6  c #674E37",
"7  c #6D533B",
"8  c #71573E",
"9  c #74593F",
"0  c #564A41",
"q  c #5B4E45",
"w  c #5E5147",
"e  c #63554A",
"r  c #68594E",
"t  c #755941",
"y  c #6D5E51",
"u  c #7C6046",
"i  c #7E654B",
"p  c #6C6051",
"a  c #746355",
"s  c #776658",
"d  c #786658",
"f  c #766D5C",
"g  c #796E5D",
"h  c #886A4F",
"j  c #8C7155",
"k  c #88755E",
"l  c #9B7B5E",
"z  c #AB7B53",
"x  c #817A6D",
"c  c #947E67",
"v  c #937D6A",
"b  c #867D70",
"n  c #9F8063",
"m  c #97806C",
"M  c #9D866D",
"N  c #8C8375",
"B  c #988471",
"V  c #9F8872",
"C  c #928779",
"Z  c #9A8E7E",
"A  c #A28365",
"S  c #A68668",
"D  c #AF8E6E",
"F  c #A38B71",
"G  c #AB9277",
"H  c #AC9378",
"J  c #B59B7F",
"K  c #CF9F75",
"L  c #C19E7B",
"P  c #818886",
"I  c #8A928E",
"U  c #91948D",
"Y  c #8F9B9A",
"T  c #969D97",
"R  c #9A9E94",
"E  c #909B99",
"W  c #AC9E8A",
"Q  c #BB9F82",
"!  c #9BA19A",
"~  c #BBA082",
"^  c #A0A59E",
"/  c #A8A69A",
"(  c #99A6A4",
")  c #9DA8A4",
"_  c #AAACA4",
"`  c #BABBAF",
"'  c #BEBFB3",
"]  c #C0A486",
"[  c #CBA68C",
"{  c #C6A98C",
"}  c #CAAD8D",
"|  c #D8AC85",
" . c #D8B18D",
".. c #CEB091",
"X. c #D6B695",
"o. c #D7B895",
"O. c #DBBA97",
"+. c #D7B699",
"@. c #DCBC9A",
"#. c #E1BF9C",
"$. c #D7BBA5",
"%. c #D8BDA7",
"&. c #BEC0B6",
"*. c #BDC1B9",
"=. c #EAC096",
"-. c #E2C19E",
";. c #F1C297",
":. c #C2C5BD",
">. c #E6C5A2",
",. c #E9C7A2",
"<. c #E7C8A4",
"1. c #EECBA6",
"2. c #F1CDA7",
"3. c #F8CCA2",
"4. c #F3CEAA",
"5. c #F6D1AB",
"6. c #FBD6AE",
"7. c #FED8AF",
"8. c #F6D2B2",
"9. c #FAD7B2",
"0. c #FBDAB5",
"q. c #FCDDBD",
"w. c #FFE2B7",
"e. c #FFE4BA",
"r. c #FFEABE",
"t. c #AEC1C0",
"y. c #B7C8C5",
"u. c #FBDFC1",
"i. c #FFE4C3",
"p. c #FFECC1",
"a. c #FFEBCB",
"s. c #FFF3C6",
"d. c #FFF5C9",
"f. c #FFFBCD",
"g. c #FFEED2",
"h. c #FFF2D6",
"j. c #FFFFD3",
"k. c #FFFFDD",
"l. c #CBEFF5",
"z. c #D3F6FA",
"x. c #D5F8FC",
"c. c #DDFFFF",
"v. c #FFFFE1",
"b. c #E1FFFF",
"n. c #ECFFFF",
"m. c #F0FFFF",
/* pixels */
"b.b.b.b.b.b.b.b.b.b.b.b.b.b.b.b.b.b.b.b.b.b.b.b.b.b.b.b.b.b.",
"b.c.n.m.n.n.n.n.n.n.n.n.n.m.n.n.n.n.n.n.n.n.n.n.n.n.n.m.b.b.",
"b.n.t.P Y Y Y Y E E E E E E E E Y Y Y Y E E E E Y E I ( b.b.",
"b.b._ [ %.$.%.$.$.$.$.$.$.$.$.$.$.$.$.$.$.$.$.$.+. .K M l.n.",
"b.c.:.i.h.g.g.g.g.g.a.h.g.g.g.g.g.g.g.g.g.g.d.a.i.7.=.W l.n.",
"b.c.*.8.i.u.u.i.u.i.i.i.i.u.q.u.u.i.q.u.u.u.q.0.5.O.L Z z.n.",
"b.c.*.8.u.q.q.8.i.d.i.i.i.d.q.8.0.0.0.0.0.0.0.6.-.} D C z.b.",
"b.c.&.5.u.q.8.i.<.3 % & % v e.0.8.9.0.0.8.8.6.2.@.] S N z.n.",
"b.c.&.4.q.0.9.f.a   a g 1   +.p.6.6.6.9.6.6.5.,.X.~ A N x.b.",
"b.c.&.4.q.0.9.s.e ; f.k.>.X } p.6.6.6.6.6.6.5.>.o.~ A N x.n.",
"b.c.' 4.q.0.9.s.r ; w.s.{ O ..e.p.d.s.s.d.e.2.,.X.~ A N x.n.",
"b.c.:.4.q.0.9.d.r ; w.s.{ o ..f...q 3 3 p >.w.,.o.~ A N z.n.",
"b.c.:.4.q.0.6.s.r = w.p.{ + +.s.& . 3 ,   q p.1.X.~ A N x.n.",
"b.c.%.4.q.0.9.s.r = w.s.{ o @.w.X V j.j.e * w.1.X.~ A N z.b.",
"c.c.' 4.q.0.9.s.r ; w.s.{ o @.e.@ m f.d.e > e.1.X.~ A N x.n.",
"c.x.*.4.q.0.9.s.r = w.s.{ + #.e.@ m s.s.w > w.1.O.~ A N x.n.",
"b.c.' 4.q.0.9.s.r ; w.s.{ O @.e.@ m d.s.w > e.1.O.Q A N x.b.",
"b.c.:.4.q.0.9.s.w : f.k.#.o +.w.o G v.k.y = e.1.X.~ A N x.n.",
"b.c.&.4.q.0.9.d.a   a g 1   <.s.@ % g f . < r.1.X.~ A N x.b.",
"b.c.&.4.q.0.9.e.>.0 % - % v w.i.J & * & , X.e.<.X.~ A N x.n.",
"b.c.:.4.q.0.9.r.j.j.j.j.j.j.d.p.j.j.j.f.j.j.i.1.X.Q A N z.n.",
"b.b.` 4.q.0.e.F w a s s s a a p a s d d a r g -.-.L A N x.b.",
"b.c.' 4.0.0.e.y o = * = * * = * * * * * * $ > O.@.J n N x.n.",
"b.c.:.3.7.2.>.4.5.2.2.2.1.4.2.4.2.2.1.2.2.2.1.X.] G c b x.n.",
"b.c.' ;.,.o.} } } } } } } } } } } } } } } } { Q G M j x x.n.",
"b.b.` | } J G F F F F F F F F F F F F F F F F M c k h x c.b.",
"b.b./ z l h u 9 t t 9 t t t t t t t t t t t 9 8 7 6 5 y c.n.",
"b.n.y.R ^ ! R R T T T R T T T R T T T T T T T T T T U ( b.b.",
"b.b.n.b.n.n.n.m.m.n.m.m.n.m.m.n.n.m.n.m.n.m.m.m.n.m.m.n.b.b.",
"b.b.b.b.b.b.b.b.b.b.b.b.b.b.b.b.b.b.b.b.b.b.b.b.b.b.b.b.b.b."
};
