/* XPM */
static char *toolBarBottomPressed_xpm[] = {
/* columns rows colors chars-per-pixel */
"30 30 118 2 ",
"   c #000004",
".  c #050409",
"X  c #08070C",
"o  c #0A090D",
"O  c #0E0D11",
"+  c #151316",
"@  c #191719",
"#  c #1D1A1B",
"$  c #211D1D",
"%  c #3C2214",
"&  c #2A2525",
"*  c #322D2B",
"=  c #39322F",
"-  c #3D3532",
";  c #3F3835",
":  c #573A27",
">  c #533B29",
",  c #413A36",
"<  c #453D39",
"1  c #4C3E39",
"2  c #4B433D",
"3  c #584739",
"4  c #59483A",
"5  c #67523F",
"6  c #544B44",
"7  c #5D544D",
"8  c #675341",
"9  c #6A5544",
"0  c #645B53",
"q  c #6E645B",
"w  c #797067",
"e  c #836C5B",
"r  c #87725E",
"t  c #857564",
"y  c #8A7768",
"u  c #8E7D6D",
"i  c #917E6E",
"p  c #8F806D",
"a  c #92816F",
"s  c #878279",
"d  c #88857D",
"f  c #958473",
"g  c #988674",
"h  c #9A8976",
"j  c #9E8A79",
"k  c #A7937F",
"l  c #787F80",
"z  c #7E8786",
"x  c #838784",
"c  c #878B86",
"v  c #8D918C",
"b  c #869291",
"n  c #889393",
"m  c #939B97",
"M  c #A69583",
"N  c #AA9683",
"B  c #AD9A85",
"V  c #AE9F8F",
"C  c #B09D87",
"Z  c #B39F8A",
"A  c #99A09B",
"S  c #B2A18D",
"D  c #BBA58F",
"F  c #AFA092",
"G  c #B6A696",
"H  c #BAA590",
"J  c #BEA891",
"K  c #B7A998",
"L  c #BCAB98",
"P  c #93A1A0",
"I  c #9EA7A3",
"U  c #9EA8A3",
"Y  c #A0ADAB",
"T  c #ABBEBE",
"R  c #C3AC95",
"E  c #C5AF98",
"W  c #C3B09C",
"Q  c #CDB59D",
"!  c #C5B3A1",
"~  c #CDB8A3",
"^  c #D5BDA3",
"/  c #DABFA5",
"(  c #DCC2A7",
")  c #D5C3AE",
"_  c #DDC4A9",
"`  c #D7C5B0",
"'  c #DEC9B1",
"]  c #E2C7AB",
"[  c #E5CAAE",
"{  c #E6CCB0",
"}  c #E9CEB3",
"|  c #E5D0B4",
" . c #ECD1B4",
".. c #F0D4B7",
"X. c #F1D6B9",
"o. c #F6DABC",
"O. c #F9DCBE",
"+. c #B0C2C0",
"@. c #F4DBC0",
"#. c #FCDEC1",
"$. c #EEE9CA",
"%. c #FDE3C4",
"&. c #FFE6C9",
"*. c #FEECCC",
"=. c #FFF0CE",
"-. c #F6F0D1",
";. c #FFF3D2",
":. c #FFFBD7",
">. c #FFFDDC",
",. c #D6F7F9",
"<. c #D7F8FA",
"1. c #DCFDFE",
"2. c #FFFFE5",
"3. c #FFFFEA",
"4. c #E1FFFF",
"5. c #EAFFFF",
"6. c #F3FFFF",
"7. c #FBFFFD",
/* pixels */
"4.4.4.4.4.4.4.4.4.4.4.4.4.4.4.4.4.4.4.4.4.4.4.4.4.4.4.4.4.4.",
"4.1.5.7.7.6.6.6.7.6.6.6.7.6.7.6.6.6.7.6.7.6.7.6.6.6.7.6.4.4.",
"4.6.T l b b b b b b b b b b b b b b b b b b b b b b z P 4.4.",
"4.7.x % 3 4 3 4 4 4 4 4 3 3 3 3 3 3 3 3 3 3 3 3 4 4 > 0 1.5.",
"4.6.m 5 t t u p u p u a p p p u a a p p u i a i y t r s <.5.",
"1.6.m 8 y h k B B B B B B B B B B B B B B B B N M j a d <.5.",
"4.5.m 9 f C E Q Q ] } } } ( Q Q Q Q Q Q Q Q Q ^ Q S h d ,.4.",
"4.6.m 9 h D ( ] o.^ k N N [ X.[ [ [ } [ [ { ...._ K j d ,.5.",
"1.6.A 9 h J ( %.( # O $ . 2 %.%.o.o.o.O.o.o.%.@.| L c u ,.5.",
"4.5.m 9 h J _ :.g o _ $.M X ( ;.O.%.#.O.O.%.%.@.` R j d ,.5.",
"4.6.m 9 h J ( ;.h $ =.3.Q @ _ *.*.>.:.>.*.O.%.@.] L h d ,.5.",
"1.6.m 9 h J ( =.j # o.>.R # _ >. .N N N } *.#.@.' L M i ,.4.",
"4.6.m 9 h J ( ;.j $ o.>.J # ..&.* . $ X & } *.@.' L M s ,.4.",
"4.6.m 9 h J ( ;.j # o.>.J @ %./ . E -.~ X Z 2.@.' L j d ,.5.",
"4.6.m 9 h J _ ;.M # o.>.J @ O.( + { 3.X.# H :.@.] L i c ,.5.",
"4.5.m 9 h H _ ;.j # o.>.R @ O._ + ^ 2.] @ H 2.@.` R j d ,.5.",
"4.6.m 9 g J ( ;.j # O.>.R @ O._ + ( >.] # D :.o.' L j d ,.5.",
"4.5.m 9 h J ( ;.f # :.7.( + o.( o X.7.%.@ S >.@.' L j d ,.5.",
"4.6.m 9 h J ( ;.S   6 q * o %. .. , q 2   Q :.@.' L j x ,.5.",
"4.6.m 9 h J ( o.&.i ; 1 , Z :.=.M , 1 ; j *.%.@.] R j x ,.4.",
"4.5.m 9 h J ( o.:.3.2.2.3.2.*.;.3.2.2.3.3.:.*.X.` L j i ,.5.",
"4.6.m 9 h J O.k # - - - - = - * = - - , = # Z >.| L j x ,.4.",
"4.6.m 9 h J o.E 7 q q q q q q q q q 0 q q 7 E -.' K h d ,.5.",
"4.6.m 9 f J _ %.2.>.>.>.2.>.2.2.2.>.>.>.2.3.*.} / G h u ,.5.",
"4.6.m 5 f B ~ ` ` ` ` ` ` ` ` ` ) ` ` ` / ` ` / ! F g x ,.5.",
"4.6.m 5 i N G K K K K K K G K K K K K K G H K K F M g x ,.5.",
"4.6.c : w y y i u u u i u u i y u i i u y i i y y y e w ,.5.",
"4.5.+.v I F Y Y I I I I I F Y Y I I I I Y I I Y Y Y m Y 4.4.",
"4.1.5.6.5.5.5.5.5.5.5.5.5.5.5.5.5.5.5.5.5.5.5.5.6.5.5.6.4.4.",
"4.4.4.4.4.4.4.4.4.4.4.4.4.4.4.4.4.4.4.4.4.4.4.4.4.4.4.4.4.4."
};
