/* XPM */
static char *zoomEventsDisabled_xpm[] = {
/* columns rows colors chars-per-pixel */
"30 30 200 2 ",
"   c #685F5F",
".  c #6B6666",
"X  c #6C6666",
"o  c #6C6767",
"O  c #6D6767",
"+  c #6D6868",
"@  c #6C6C6C",
"#  c gray44",
"$  c #717171",
"%  c #727272",
"&  c #767171",
"*  c gray46",
"=  c #767676",
"-  c #777777",
";  c #797979",
":  c #7B7B7B",
">  c #7C7C7C",
",  c gray50",
"<  c #808080",
"1  c #818181",
"2  c gray51",
"3  c gray52",
"4  c #868686",
"5  c gray53",
"6  c #888585",
"7  c #8C8686",
"8  c #808989",
"9  c #858989",
"0  c #868A8A",
"q  c #868B8B",
"w  c #878B8B",
"e  c #888888",
"r  c #898989",
"t  c gray54",
"y  c #8B8B8B",
"u  c #8E8B8B",
"i  c gray55",
"p  c #8D8C8C",
"a  c #8D8D8D",
"s  c #8E8E8E",
"d  c #928F8F",
"f  c #8B9090",
"g  c #889393",
"h  c #8F9A9A",
"j  c #8F9B9B",
"k  c #909090",
"l  c gray57",
"z  c #939091",
"x  c #929292",
"c  c #939393",
"v  c #949190",
"b  c #949191",
"n  c gray58",
"m  c #959595",
"M  c gray59",
"N  c #9D9191",
"B  c #989595",
"V  c #959E9E",
"C  c #989898",
"Z  c gray60",
"A  c #9A9A9A",
"S  c #9B9B9B",
"D  c gray61",
"F  c #9D9D9D",
"G  c #94A0A0",
"H  c #94A1A1",
"J  c #95A1A1",
"K  c #95A2A2",
"L  c #9DA1A1",
"P  c #99A6A6",
"I  c #98A7A7",
"U  c #9BAAAB",
"Y  c #A0A0A0",
"T  c gray63",
"R  c #A2A2A2",
"E  c gray64",
"W  c #A4A4A4",
"Q  c #A5A5A5",
"!  c gray65",
"~  c #A7A7A7",
"^  c #A8A5A5",
"/  c #A5ADAD",
"(  c #A5AEAE",
")  c gray66",
"_  c #A9A9A9",
"`  c #AAAAAA",
"'  c gray68",
"]  c #AEAEAE",
"[  c #AFAFAF",
"{  c #B7ACAC",
"}  c #B1B1B1",
"|  c #B2B2B2",
" . c gray70",
".. c #B4B4B4",
"X. c gray71",
"o. c #B6B6B6",
"O. c #B7B7B7",
"+. c #BBB2B2",
"@. c gray72",
"#. c #B9B9B9",
"$. c gray73",
"%. c #BBBBBB",
"&. c #BCBCBC",
"*. c gray74",
"=. c gray",
"-. c #C2BCBC",
";. c #C4BFBF",
":. c #AEC1C1",
">. c #B6C2C2",
",. c #B6C3C3",
"<. c #B7C3C3",
"1. c #BBC7C7",
"2. c #B5C9C9",
"3. c #C0C0C0",
"4. c #C1C1C1",
"5. c gray76",
"6. c #C3C3C3",
"7. c #C6C1C1",
"8. c #C7C1C1",
"9. c #C7C2C2",
"0. c gray77",
"q. c #C5C5C5",
"w. c #C6C6C6",
"e. c gray78",
"r. c #C8C8C8",
"t. c gray79",
"y. c #CACACA",
"u. c #CBCBCB",
"i. c gray80",
"p. c #CDCDCD",
"a. c #CECECE",
"s. c gray81",
"d. c #D1CCCC",
"f. c #D0D0D0",
"g. c gray82",
"h. c #D2D2D2",
"j. c LightGray",
"k. c #D4D0D0",
"l. c gray83",
"z. c #D5D5D5",
"x. c #D7D7D7",
"c. c #DAD4D4",
"v. c #DBD5D5",
"b. c #DBD6D6",
"n. c #DCD6D6",
"m. c #DCD7D7",
"M. c #D8D8D8",
"N. c gray85",
"B. c #DADADA",
"V. c gray86",
"C. c #DDD8D8",
"Z. c gainsboro",
"A. c #DDDDDD",
"S. c gray87",
"D. c #DFDFDF",
"F. c #CEECED",
"G. c #CFEEEE",
"H. c #D5F4F4",
"J. c #D6F5F5",
"K. c #D7F6F6",
"L. c #D8F7F7",
"P. c #D8F8F8",
"I. c #DFFDFD",
"U. c #DEFFFF",
"Y. c #DFFFFF",
"T. c gray88",
"R. c #E1E1E1",
"E. c #E2E2E2",
"W. c gray89",
"Q. c #E4E4E4",
"!. c gray90",
"~. c #E6E6E6",
"^. c #E7E7E7",
"/. c #EDE7E7",
"(. c gray91",
"). c #E9E9E9",
"_. c #EAEAEA",
"`. c gray92",
"'. c #ECECEC",
"]. c #EFEFEF",
"[. c #E0FDFD",
"{. c LightCyan",
"}. c #E1FFFF",
"|. c #E2FFFF",
" X c #E5FFFF",
".X c #E6FFFF",
"XX c #E8FFFF",
"oX c #E9FFFF",
"OX c #EBFFFF",
"+X c #ECFFFF",
"@X c #EDFFFF",
"#X c #EEFFFF",
"$X c gray94",
"%X c #F1F1F1",
"&X c #F3F3F3",
"*X c #F4F4F4",
"=X c gray96",
"-X c #F6F6F6",
";X c azure",
":X c #F1FFFF",
/* pixels */
"}.}.}.}.}.}.}.}.}.}.}.}.}.}.}.}.}.}.}.}.}.}.}.}.}.}.}.}.}.}.",
"}.Y.+X:X#X#X#X#X#X#X#X#X#X#X#X#X#X#X#X#X#X#X#X#X#X#X;X:X|.{.",
"}.#X:.8 j j j j j j j j j j j j j j j j j j j j j j g I [. X",
"}..X/ { 9.7.8.7.7.7.7.7.7.7.7.7.7.7.7.7.7.7.7.7.;.-.+.p F.oX",
"}.U.1./.-X=X=X*X*X*X*X*X*X*X*X*X*X*X*X*X*X*X*X&X%X_.k.L G.XX",
"}.{.<.C.^.!.W.W.W.W.W.W.W.W.W.W.W.W.W.W.W.W.W.E.S.r.^ f H.XX",
"}.{.>.m.Q.T.D.S.A.A.A.A.A.A.A.A.A.A.A.A.A.A.S.A.s. .B w J.XX",
"}.{.<.n.W.S.V.B.N.N.N.N.N.N.N.N.M.E.^.Z.M.N.B.z.6.` z 0 K.XX",
"}.{.<.n.W.S.B.V.!.A.x.N.N.M.V.^.~.$.] D.T.M.N.h.3.) v q K.XX",
"}.{.<.n.W.S.A.z.3.B.R.M.W.(.l.[ M.] # ) !.R.x.j.4._ v q K.XX",
"}.{.<.n.W.S.~.0.* Z S.~.' 4.h.- n =.x , ! Q.R.g.5._ v q K.XX",
"}.{.<.n.W.S.S.A.Q % A T.M $ *.0.e y n k 1 ! W.M.3._ v q K.XX",
"}.{.<.n.W.S.N.(.].~ % F g.m , o.S y l x k < ' A.5._ v q K.XX",
"}.{.<.b.W.A.!.3.o.)._ % R h.A 2 k x l l l a t w.y._ v q K.XX",
"}.{.<.n.W.(.r.2 = ..].) * T W i l l l l l x 3 X.s._ v q K.XX",
"}.{.<.n.W.Q.l.T C w.Q.~.) ; y c l l l l l x 4 #.a._ v q K.XX",
"}.{.<.n.W.Z.'.&.T `.M.T.Q.` r l l l l l x 5 l f.e._ v q K.XX",
"}.{.<.b.W.Z.`.%.R ).M.x.`.`.D e l l l x t 3 q.S.4._ v q K.XX",
"}.{.<.n.W.(.y.c s o.~.).g._ l s a r 5 2 4 0.(.j.4._ v q K.XX",
"}.{.<.n.W.~.g.i : 3.Q.} t > 2 5 x F Y E y.^.B.h.4._ v q K.XX",
"}.{.<.n.W.Z.Q.g.a.N.r % 3 A ] 5.h.Z.D.W.W.N.M.j.4._ v q K.XX",
"}.{.<.n.W.S.B.R.$X4.k  .t.V.~.^.R.A.Z.V.B.B.B.l.5._ b q K.XX",
"}.}.>.n.W.D.Z.N.M.M.A.!.W.Z.M.M.M.M.M.M.M.N.N.g.4._ b w K.XX",
"}.}.>.v.W.V.h.i.u.p.s.i.i.i.i.i.i.i.i.i.i.p.i.q.@.Q d 0 K.XX",
"}.}.,.c.V.w.O.| } | | | | | | | | | | | | | | ] ! A u 0 K.XX",
"}.}.<.d.4.! Z m m m m m m m m m m m m m m m n n k a 6 9 L.XX",
"}.XX( N 7 & + . o o o o o o o o o o o o o o o X X O   @ P.oX",
"}.OX2.V P K G G H H H H H H H H H H H H H H H H J K h U I. X",
"}.{.oXOX@X;X:X:X:X:X:X:X:X:X:X:X:X:X:X:X:X:X:X:X:X;X;X;X|.{.",
"}.}.}.}.}.}.}.}.}.}.}.}.}.}.}.}.}.}.}.}.}.}.}.}.}.}.}.}.}.}."
};
