/* XPM */
static char *zoomEventsMouseOver_xpm[] = {
/* columns rows colors chars-per-pixel */
"30 30 165 2 ",
"   c #000001",
".  c #04050B",
"X  c #07080E",
"o  c #09090F",
"O  c #0C0C11",
"+  c #110F13",
"@  c #131115",
"#  c #181519",
"$  c #1D1A1C",
"%  c #221E1F",
"&  c #231F20",
"*  c #252122",
"=  c #2C2626",
"-  c #342E2A",
";  c #3D3531",
":  c #443B35",
">  c #4F433C",
",  c #564A41",
"<  c #594E44",
"1  c #645249",
"2  c #675A4E",
"3  c #6B5A4E",
"4  c #6F6053",
"5  c #746356",
"6  c #766658",
"7  c #7C6B5A",
"8  c #6F765D",
"9  c #747A5F",
"0  c #7D7160",
"q  c #777D62",
"w  c #797F65",
"e  c #8C484B",
"r  c #80524D",
"t  c #855751",
"y  c #8D5E57",
"u  c #8F5F58",
"i  c #8C6759",
"p  c #806E5B",
"a  c #96655C",
"s  c #88765F",
"d  c #867260",
"f  c #8B7766",
"g  c #8B7E69",
"h  c #947E67",
"j  c #917C68",
"k  c #9B7463",
"l  c #A16E65",
"z  c #A77D6B",
"x  c #578062",
"c  c #598965",
"v  c #5F9265",
"b  c #589068",
"n  c #579969",
"m  c #5B9C69",
"M  c #638C64",
"N  c #7B8065",
"B  c #639769",
"V  c #65986A",
"C  c #73946E",
"Z  c #7F9E76",
"A  c #55B072",
"S  c #5FB776",
"D  c #3EE67C",
"F  c #3FEB7D",
"G  c #40D579",
"H  c #49DD7F",
"J  c #45DA7D",
"K  c #808468",
"L  c #888B6D",
"P  c #9C856E",
"I  c #9C8673",
"U  c #9A9A7A",
"Y  c #AD8370",
"T  c #A38B72",
"R  c #B18672",
"E  c #B58875",
"W  c #A7967D",
"Q  c #AC947B",
"!  c #AB9277",
"~  c #B3957D",
"^  c #B59B7F",
"/  c #BE917B",
"(  c #83B07E",
")  c #4ADD80",
"_  c #4DE182",
"`  c #41EA81",
"'  c #55E584",
"]  c #58E585",
"[  c #52EF87",
"{  c #58E987",
"}  c #59EC88",
"|  c #44F285",
" . c #4DF385",
".. c #4DF689",
"X. c #4FFA8C",
"o. c #51F68B",
"O. c #58F38A",
"+. c #51F88C",
"@. c #B39D82",
"#. c #BA9F83",
"$. c #82A480",
"%. c #86B585",
"&. c #86B788",
"*. c #8BBB8B",
"=. c #BBA082",
"-. c #BBA488",
";. c #E18583",
":. c #C1A587",
">. c #CFA087",
",. c #C3A689",
"<. c #C5A88A",
"1. c #CBAD8D",
"2. c #C4AD90",
"3. c #CBAF90",
"4. c #CFB191",
"5. c #C6B897",
"6. c #D6B695",
"7. c #D8B797",
"8. c #DABA97",
"9. c #D6BE9E",
"0. c #DBBC9A",
"q. c #F4A79B",
"w. c #E0BE9C",
"e. c #F3B19B",
"r. c #F0BBAF",
"t. c #F1B6A3",
"y. c #EEBEB7",
"u. c #F0BFBB",
"i. c #F1B1BC",
"p. c #E2C19E",
"a. c #D8C5A3",
"s. c #E6C4A0",
"d. c #E8C6A1",
"f. c #ECC9A4",
"g. c #F1CDA7",
"h. c #FFC7AC",
"j. c #F0CEA8",
"k. c #F9C2A2",
"l. c #EED5AE",
"z. c #F5D2AB",
"x. c #FAD4AD",
"c. c #FED8AF",
"v. c #EFC0BB",
"b. c #F1C1BC",
"n. c #FAD6B2",
"m. c #FCDAB5",
"M. c #FFD2BC",
"N. c #FCDDBD",
"B. c #F6E0B7",
"V. c #FFE5BA",
"C. c #FFE9BD",
"Z. c #FFD3C2",
"A. c #FBDFC1",
"S. c #FFD8C9",
"D. c #FEE5C3",
"F. c #FEEDC2",
"G. c #FFEBCB",
"H. c #FFF3C6",
"J. c #FFF4C9",
"K. c #FFFCCD",
"L. c #FFEED2",
"P. c #FFE8DA",
"I. c #FFF2D6",
"U. c #FFFFD1",
"Y. c #FFFFD9",
/* pixels */
"] ] ] ] ] ] ] ] ] ] ' ] ] ' ] ] ' ' ] ] ] ] ] ] ] ] ] ] ] ] ",
"] ] O. . . . . . . . . . . . . . . . . . . . . . .....o.] ] ",
"] O.A x b b b b b b b b b b b b b b b b b b b b b b c n ] } ",
"] D ( i.v.u.u.u.u.u.v.v.v.v.v.v.v.u.u.u.u.v.u.y.r.t.q.I G } ",
"] D *.P.P.I.L.L.L.L.L.L.L.L.L.L.L.L.L.L.L.L.L.G.D.c.k.U G } ",
"' D &.S.D.D.A.A.A.N.N.N.A.A.A.N.A.A.A.N.A.V.N.m.z.8.>.L H } ",
"' D %.Z.A.A.N.N.n.N.N.N.m.m.m.m.n.m.m.n.m.m.m.x.p.1./ K H } ",
"] D %.Z.N.m.n.n.n.l.n.n.n.n.n.n.n.F.K.N.n.n.x.g.w.:.R N H } ",
"' D %.Z.N.m.x.V.J.V.z.c.c.x.m.J.H.I 7 C.C.z.z.f.7.=.R N H } ",
"] D %.Z.N.m.m.f.~ x.C.z.F.K.f.p l.7   3 H.C.g.d.7.=.R N H } ",
"] D %.Z.N.m.H.=.  ; V.H.6 W d.  = T *   1 H.V.d.6.=.R N H } ",
"] D %.M.N.m.N.m.1   : V.-   T #.o @ = $   1 V.z.6.=.R N ) } ",
"] D &.Z.N.n.n.U.Y.3   > s.-   j : @ % * %   5 V.8.=.R N ' } ",
"] D %.Z.N.n.F.~ g K.3   < s.;   $ * * & * # o ,.g.=.R N H } ",
"] D %.Z.N.J.<.    f Y.3   , < @ % & * % % * . f c.=.R N H } ",
"] D %.Z.N.F.a., - -.F.H.3   O = * % % * % * . P c.^ R N H } ",
"] D %.Z.N.x.U.T , K.x.V.H.5 O $ * * * * * . % p.p.^ E N H O.",
"] D %.Z.N.n.U.T < K.x.z.K.K.: o $ * * * O . @.V.8.=.E N H } ",
"] D %.Z.N.G.2.= $ g J.K.9.2 * $ # O o   . =.J.f.8.^ R N H } ",
"] D %.Z.N.G.9.@   W F.7 O     o * : > < 3.J.x.d.8.^ R N H } ",
"] D %.Z.N.n.F.s.5.l.@   . ; 6 ^ p.m.V.H.H.x.z.f.8.^ E N H } ",
"] D %.Z.N.m.x.C.Y.~ % s <.n.H.H.C.m.c.m.z.x.z.d.8.^ R N ] } ",
"] D %.M.m.n.x.z.g.g.c.H.C.c.g.g.g.g.g.j.z.f.f.p.4.^ Y g H } ",
"' D %.M.c.g.d.w.p.p.p.w.w.0.w.w.w.p.w.0.w.w.8.6.:.! z K H } ",
"] D %.h.s.7.1.<.<.<.<.<.<.<.<.<.<.<.<.<.<.<.:.^ Q P k 9 H } ",
"] ` ( e.1.@.! Y T T T T T T T T T T T T P T T P P s i 8 ] } ",
"' | ( ;.E l a u y i y y y y y i y y y y y y y y e 3 e 4 H } ",
"' ' S C V B B v v v v M v v M v M v v v v v v M v v M m ] } ",
"] ] [ |  . ...+.o.o.o.o.o.o.o.o...X.X.X.o.o.o.X.+.+.O.O.} } ",
"] ] ] ] ] ] ] ] ] ' ] ] ] ' ] ] ] ] ] ] ] ] ] ] } H H } H } "
};
