/* XPM */
static char *zoomEventsNormal_xpm[] = {
/* columns rows colors chars-per-pixel */
"30 30 149 2 ",
"   c #000001",
".  c #04050B",
"X  c #07080E",
"o  c #09090F",
"O  c #0C0C11",
"+  c #110F13",
"@  c #131115",
"#  c #181519",
"$  c #1D1A1C",
"%  c #221E1F",
"&  c #231F20",
"*  c #252122",
"=  c #2C2626",
"-  c #342E2A",
";  c #3D3531",
":  c #443B35",
">  c #4F433C",
",  c #624126",
"<  c #674E37",
"1  c #6D533B",
"2  c #71573E",
"3  c #74593F",
"4  c #564A41",
"5  c #594E44",
"6  c #645249",
"7  c #675A4E",
"8  c #6B5A4E",
"9  c #755941",
"0  c #7C6046",
"q  c #7E654B",
"w  c #6E6052",
"e  c #776557",
"r  c #766658",
"t  c #7C6B5A",
"y  c #7D7160",
"u  c #886A4F",
"i  c #806E5B",
"p  c #8C7155",
"a  c #88755E",
"s  c #9B7B5E",
"d  c #AB7B53",
"f  c #867260",
"g  c #8B7766",
"h  c #817A6D",
"j  c #8B7E69",
"k  c #947E67",
"l  c #917C68",
"z  c #867D70",
"x  c #9F8063",
"c  c #9C856E",
"v  c #8C8375",
"b  c #9B8671",
"n  c #928779",
"m  c #9A8E7E",
"M  c #A28365",
"N  c #A68668",
"B  c #AF8E6E",
"V  c #A38B72",
"C  c #AB9277",
"Z  c #A7967D",
"A  c #AC947B",
"S  c #B3957D",
"D  c #B59B7F",
"F  c #CF9F75",
"G  c #C19E7B",
"H  c #818886",
"J  c #8A928E",
"K  c #91948D",
"L  c #8F9B9A",
"P  c #969D97",
"I  c #9A9E94",
"U  c #909B99",
"Y  c #AC9E8A",
"T  c #B39D82",
"R  c #BA9F83",
"E  c #9BA19A",
"W  c #BBA082",
"Q  c #BBA488",
"!  c #A0A59E",
"~  c #A8A69A",
"^  c #99A6A4",
"/  c #9DA8A4",
"(  c #AAACA4",
")  c #BABBAF",
"_  c #BEBFB3",
"`  c #C1A587",
"'  c #C3A689",
"]  c #CBA68C",
"[  c #C5A88A",
"{  c #CBAD8D",
"}  c #D8AC85",
"|  c #D8B18D",
" . c #C4AD90",
".. c #CBAF90",
"X. c #CFB191",
"o. c #C6B897",
"O. c #D6B695",
"+. c #D8B797",
"@. c #DABA97",
"#. c #D7B699",
"$. c #D6BE9E",
"%. c #DBBC9A",
"&. c #E0BE9C",
"*. c #D7BBA5",
"=. c #D8BDA7",
"-. c #BEC0B6",
";. c #BDC1B9",
":. c #EAC096",
">. c #E2C19E",
",. c #F1C297",
"<. c #D8C5A3",
"1. c #C2C5BD",
"2. c #E6C4A0",
"3. c #E8C6A1",
"4. c #ECC9A4",
"5. c #F1CDA7",
"6. c #F8CCA2",
"7. c #F4CEAA",
"8. c #EED5AE",
"9. c #F5D1AB",
"0. c #FAD4AD",
"q. c #FED8AF",
"w. c #F6D2B2",
"e. c #FAD6B2",
"r. c #FCDAB5",
"t. c #FCDDBD",
"y. c #F6E0B7",
"u. c #FFE5BA",
"i. c #FFE9BD",
"p. c #AEC1C0",
"a. c #B7C8C5",
"s. c #FBDFC1",
"d. c #FEE4C3",
"f. c #FEEDC2",
"g. c #FFEBCB",
"h. c #FFF3C6",
"j. c #FFF4C9",
"k. c #FFFCCD",
"l. c #FFEED2",
"z. c #FFF2D6",
"x. c #FFFFD1",
"c. c #FFFFD9",
"v. c #CBEFF5",
"b. c #D3F6FA",
"n. c #D5F8FC",
"m. c #DDFFFF",
"M. c #E1FFFF",
"N. c #ECFFFF",
"B. c #F0FFFF",
/* pixels */
"M.M.M.M.M.M.M.M.M.M.M.M.M.M.M.M.M.M.m.M.M.M.M.M.M.M.M.M.M.M.",
"M.m.N.B.N.N.N.N.N.N.N.N.N.B.N.N.N.N.N.N.N.N.N.N.N.N.B.B.M.M.",
"M.N.p.H L U L L U U U U U U U U L L L L U U U U L L J ^ M.M.",
"M.M.( ] *.*.*.*.*.*.*.*.*.*.*.*.*.*.*.*.*.*.*.*.#.| F c v.N.",
"M.m.1.d.z.l.l.l.l.l.l.l.l.l.l.l.l.l.l.l.l.l.l.g.u.e.&.T v.N.",
"M.m.;.w.d.s.s.s.t.t.s.t.s.t.t.s.s.t.t.s.s.t.t.r.9.@.G m n.M.",
"M.m.;.w.s.t.t.t.t.r.t.r.r.r.t.r.t.r.r.r.r.t.r.0.3.{ B n n.M.",
"M.m.-.9.s.t.e.e.w.e.w.e.e.e.e.e.0.f.k.r.0.e.q.5.@.` N n n.N.",
"M.m._ 7.t.r.e.r.j.u.0.0.q.9.r.j.h.b t u.i.0.9.3.O.W M v n.N.",
"M.m.-.7.t.e.u.4.S 0.i.9.h.k.4.i 8.r   8 h.u.5.3.@.R M v b.N.",
"M.m._ 7.t.e.h.Q   ; u.h.r Z >.  = C *   6 h.u.2.O.W M v n.M.",
"M.m.1.7.t.r.r.y.6   : u.-   C W X @ = %   6 i.0.O.W M v n.N.",
"M.m.-.7.t.r.0.k.c.8   : >.-   l : + & & %   e u.@.W M v n.M.",
"M.m.1.7.t.e.g.S j k.8   5 >.;   % * & & & # o [ 5.R M v n.N.",
"M.m._ 7.t.j.[     g c.8   4 5 @ & & & & & * . g q.R M v n.N.",
"M.m._ 7.t.f.<.4 - Q h.h.8   + = & & & & & &   c q.W M v n.M.",
"M.m._ 7.t.0.x.V 4 x.0.u.f.e O % & & % & * . & >.:.Q M v n.N.",
"M.m.1.7.t.e.c.V 4 k.0.0.k.k.: X & & * = O . T u.O.W M v n.M.",
"M.m.-.7.t.g. .= $ j h.k.$.w & $ # O .   . T j.4.O.W M v n.N.",
"M.m.-.7.t.f.$.@   Z f.y o     X * : > 5 ..k.0.3.O.W M v n.N.",
"M.m.1.7.t.e.f.2.o.8.@   . ; r S :.y.u.h.f.q.9.3.O.W M v n.N.",
"M.m._ 7.t.r.0.i.c.S % a [ e.h.h.i.r.e.e.0.0.9.3.O.R M v n.M.",
"M.m.-.9.r.e.0.9.5.5.y.i.i.r.5.5.9.4.5.5.5.5.4.>.| D s v n.N.",
"M.m.-.6.q.5.2.&.>.2.:.&.&.&.&.&.>.>.%.&.&.&.@.O.' S k z n.M.",
"M.m._ ,.3.O.{ { [ [ [ [ [ [ [ ' [ [ [ [ [ [ ` R C c p h n.N.",
"M.m.) } { D C V V V V V V V V V V V V V V V V c k a u h m.M.",
"m.N.~ d s u 0 3 3 3 3 3 9 9 9 9 9 9 3 3 9 9 3 2 1 < , 8 m.N.",
"M.N.a.I ! E I I P I P P P P P P P P P P P P I P P P K / M.M.",
"M.M.N.N.N.N.N.N.N.B.B.N.B.B.N.B.N.B.B.N.B.B.N.B.N.B.B.N.M.M.",
"M.M.M.M.m.m.M.M.M.M.M.M.M.M.M.M.M.M.M.M.M.M.M.M.M.M.M.M.M.M."
};
